<?xml version="1.0" encoding="us-ascii" standalone="no"?><svg xmlns="http://www.w3.org/2000/svg" xmlns:xlink="http://www.w3.org/1999/xlink" contentStyleType="text/css" height="1579px" preserveAspectRatio="none" style="width:2035px;height:1579px;background:#FFFFFF;" version="1.1" viewBox="0 0 2035 1579" width="2035px" zoomAndPan="magnify"><defs/><g><text fill="#000000" font-family="sans-serif" font-size="14" font-weight="bold" lengthAdjust="spacing" textLength="166" x="933.5" y="29.5332">Sequence Diagram Title</text><rect fill="#FFFFFF" height="1357.1172" style="stroke:#181818;stroke-width:1.0;" width="10" x="39" y="131.2188"/><rect fill="#FFFFFF" height="669.7344" style="stroke:#181818;stroke-width:1.0;" width="10" x="284" y="169.9219"/><rect fill="#FFFFFF" height="618.3281" style="stroke:#181818;stroke-width:1.0;" width="10" x="284" y="870.0078"/><rect fill="#FFFFFF" height="609.0313" style="stroke:#181818;stroke-width:1.0;" width="10" x="586" y="200.2734"/><rect fill="#FFFFFF" height="548.625" style="stroke:#181818;stroke-width:1.0;" width="10" x="586" y="900.3594"/><rect fill="#FFFFFF" height="434.9219" style="stroke:#181818;stroke-width:1.0;" width="10" x="915" y="352.0313"/><rect fill="#FFFFFF" height="427.2188" style="stroke:#181818;stroke-width:1.0;" width="10" x="915" y="991.4141"/><rect fill="#FFFFFF" height="30.3516" style="stroke:#181818;stroke-width:1.0;" width="10" x="1084" y="230.625"/><rect fill="#FFFFFF" height="30.3516" style="stroke:#181818;stroke-width:1.0;" width="10" x="1084" y="291.3281"/><rect fill="#FFFFFF" height="30.3516" style="stroke:#181818;stroke-width:1.0;" width="10" x="1084" y="930.7109"/><rect fill="#FFFFFF" height="30.3516" style="stroke:#181818;stroke-width:1.0;" width="10" x="1185.5" y="443.0859"/><rect fill="#FFFFFF" height="30.3516" style="stroke:#181818;stroke-width:1.0;" width="10" x="1341" y="625.1953"/><rect fill="#FFFFFF" height="30.3516" style="stroke:#181818;stroke-width:1.0;" width="10" x="1341" y="1021.7656"/><rect fill="#FFFFFF" height="30.3516" style="stroke:#181818;stroke-width:1.0;" width="10" x="1341" y="1357.9297"/><rect fill="#FFFFFF" height="30.3516" style="stroke:#181818;stroke-width:1.0;" width="10" x="1505.5" y="503.7891"/><rect fill="#FFFFFF" height="30.3516" style="stroke:#181818;stroke-width:1.0;" width="10" x="1636" y="685.8984"/><rect fill="#FFFFFF" height="70.6094" style="stroke:#181818;stroke-width:1.0;" width="10" x="1636" y="1107.8203"/><rect fill="#FFFFFF" height="70.6094" style="stroke:#181818;stroke-width:1.0;" width="10" x="1636" y="1249.9688"/><rect fill="#FFFFFF" height="16.2578" style="stroke:#181818;stroke-width:1.0;" width="10" x="1809" y="1148.1719"/><rect fill="#FFFFFF" height="16.2578" style="stroke:#181818;stroke-width:1.0;" width="10" x="1883" y="1290.3203"/><rect fill="#FFFFFF" height="30.3516" style="stroke:#181818;stroke-width:1.0;" width="10" x="1949.5" y="382.3828"/><rect fill="#FFFFFF" height="30.3516" style="stroke:#181818;stroke-width:1.0;" width="10" x="2002.5" y="564.4922"/><rect fill="none" height="48.7031" style="stroke:#000000;stroke-width:1.5;" width="571" x="473" y="731.25"/><rect fill="none" height="119.3125" style="stroke:#000000;stroke-width:1.5;" width="1137" x="796" y="1209.2656"/><line style="stroke:#181818;stroke-width:0.5;stroke-dasharray:5.0,5.0;" x1="44" x2="44" y1="121.2188" y2="1497.3359"/><line style="stroke:#181818;stroke-width:0.5;stroke-dasharray:5.0,5.0;" x1="289" x2="289" y1="121.2188" y2="1497.3359"/><line style="stroke:#181818;stroke-width:0.5;stroke-dasharray:5.0,5.0;" x1="591" x2="591" y1="121.2188" y2="1497.3359"/><line style="stroke:#181818;stroke-width:0.5;stroke-dasharray:5.0,5.0;" x1="920" x2="920" y1="121.2188" y2="1497.3359"/><line style="stroke:#181818;stroke-width:0.5;stroke-dasharray:5.0,5.0;" x1="1089" x2="1089" y1="121.2188" y2="1497.3359"/><line style="stroke:#181818;stroke-width:0.5;stroke-dasharray:5.0,5.0;" x1="1190" x2="1190" y1="121.2188" y2="1497.3359"/><line style="stroke:#181818;stroke-width:0.5;stroke-dasharray:5.0,5.0;" x1="1346" x2="1346" y1="121.2188" y2="1497.3359"/><line style="stroke:#181818;stroke-width:0.5;stroke-dasharray:5.0,5.0;" x1="1510" x2="1510" y1="121.2188" y2="1497.3359"/><line style="stroke:#181818;stroke-width:0.5;stroke-dasharray:5.0,5.0;" x1="1641" x2="1641" y1="121.2188" y2="1497.3359"/><line style="stroke:#181818;stroke-width:0.5;stroke-dasharray:5.0,5.0;" x1="1814" x2="1814" y1="1147.125" y2="1497.3359"/><line style="stroke:#181818;stroke-width:0.5;stroke-dasharray:5.0,5.0;" x1="1888" x2="1888" y1="1289.2734" y2="1497.3359"/><line style="stroke:#181818;stroke-width:0.5;stroke-dasharray:5.0,5.0;" x1="1954" x2="1954" y1="121.2188" y2="1497.3359"/><line style="stroke:#181818;stroke-width:0.5;stroke-dasharray:5.0,5.0;" x1="2007" x2="2007" y1="121.2188" y2="1497.3359"/><text fill="#000000" font-family="sans-serif" font-size="14" lengthAdjust="spacing" textLength="42" x="20" y="118.1426">Doctor</text><ellipse cx="44" cy="52.1094" fill="#E2E2F0" rx="8" ry="8" style="stroke:#181818;stroke-width:0.5;"/><path d="M44,60.1094 L44,87.1094 M31,68.1094 L57,68.1094 M44,87.1094 L31,102.1094 M44,87.1094 L57,102.1094 " fill="none" style="stroke:#181818;stroke-width:0.5;"/><text fill="#000000" font-family="sans-serif" font-size="14" lengthAdjust="spacing" textLength="42" x="20" y="1510.8691">Doctor</text><ellipse cx="44" cy="1522.4453" fill="#E2E2F0" rx="8" ry="8" style="stroke:#181818;stroke-width:0.5;"/><path d="M44,1530.4453 L44,1557.4453 M31,1538.4453 L57,1538.4453 M44,1557.4453 L31,1572.4453 M44,1557.4453 L57,1572.4453 " fill="none" style="stroke:#181818;stroke-width:0.5;"/><rect fill="#E2E2F0" height="31.6094" rx="2.5" ry="2.5" style="stroke:#181818;stroke-width:0.5;" width="166" x="206" y="88.6094"/><text fill="#000000" font-family="sans-serif" font-size="14" lengthAdjust="spacing" textLength="152" x="213" y="110.1426">EditOperationRequestUI</text><rect fill="#E2E2F0" height="31.6094" rx="2.5" ry="2.5" style="stroke:#181818;stroke-width:0.5;" width="166" x="206" y="1496.3359"/><text fill="#000000" font-family="sans-serif" font-size="14" lengthAdjust="spacing" textLength="152" x="213" y="1517.8691">EditOperationRequestUI</text><rect fill="#E2E2F0" height="31.6094" rx="2.5" ry="2.5" style="stroke:#181818;stroke-width:0.5;" width="216" x="483" y="88.6094"/><text fill="#000000" font-family="sans-serif" font-size="14" lengthAdjust="spacing" textLength="202" x="490" y="110.1426">EditOperationRequestController</text><rect fill="#E2E2F0" height="31.6094" rx="2.5" ry="2.5" style="stroke:#181818;stroke-width:0.5;" width="216" x="483" y="1496.3359"/><text fill="#000000" font-family="sans-serif" font-size="14" lengthAdjust="spacing" textLength="202" x="490" y="1517.8691">EditOperationRequestController</text><rect fill="#E2E2F0" height="31.6094" rx="2.5" ry="2.5" style="stroke:#181818;stroke-width:0.5;" width="228" x="806" y="88.6094"/><text fill="#000000" font-family="sans-serif" font-size="14" lengthAdjust="spacing" textLength="214" x="813" y="110.1426">ManageOperationRequestService</text><rect fill="#E2E2F0" height="31.6094" rx="2.5" ry="2.5" style="stroke:#181818;stroke-width:0.5;" width="228" x="806" y="1496.3359"/><text fill="#000000" font-family="sans-serif" font-size="14" lengthAdjust="spacing" textLength="214" x="813" y="1517.8691">ManageOperationRequestService</text><rect fill="#E2E2F0" height="31.6094" rx="2.5" ry="2.5" style="stroke:#181818;stroke-width:0.5;" width="90" x="1044" y="88.6094"/><text fill="#000000" font-family="sans-serif" font-size="14" lengthAdjust="spacing" textLength="76" x="1051" y="110.1426">AuthService</text><rect fill="#E2E2F0" height="31.6094" rx="2.5" ry="2.5" style="stroke:#181818;stroke-width:0.5;" width="90" x="1044" y="1496.3359"/><text fill="#000000" font-family="sans-serif" font-size="14" lengthAdjust="spacing" textLength="76" x="1051" y="1517.8691">AuthService</text><rect fill="#E2E2F0" height="31.6094" rx="2.5" ry="2.5" style="stroke:#181818;stroke-width:0.5;" width="93" x="1144" y="88.6094"/><text fill="#000000" font-family="sans-serif" font-size="14" lengthAdjust="spacing" textLength="79" x="1151" y="110.1426">Repositories</text><rect fill="#E2E2F0" height="31.6094" rx="2.5" ry="2.5" style="stroke:#181818;stroke-width:0.5;" width="93" x="1144" y="1496.3359"/><text fill="#000000" font-family="sans-serif" font-size="14" lengthAdjust="spacing" textLength="79" x="1151" y="1517.8691">Repositories</text><rect fill="#E2E2F0" height="31.6094" rx="2.5" ry="2.5" style="stroke:#181818;stroke-width:0.5;" width="198" x="1247" y="88.6094"/><text fill="#000000" font-family="sans-serif" font-size="14" lengthAdjust="spacing" textLength="184" x="1254" y="110.1426">OperationRequestRepository</text><rect fill="#E2E2F0" height="31.6094" rx="2.5" ry="2.5" style="stroke:#181818;stroke-width:0.5;" width="198" x="1247" y="1496.3359"/><text fill="#000000" font-family="sans-serif" font-size="14" lengthAdjust="spacing" textLength="184" x="1254" y="1517.8691">OperationRequestRepository</text><rect fill="#E2E2F0" height="31.6094" rx="2.5" ry="2.5" style="stroke:#181818;stroke-width:0.5;" width="111" x="1455" y="88.6094"/><text fill="#000000" font-family="sans-serif" font-size="14" lengthAdjust="spacing" textLength="97" x="1462" y="110.1426">StaffRepository</text><rect fill="#E2E2F0" height="31.6094" rx="2.5" ry="2.5" style="stroke:#181818;stroke-width:0.5;" width="111" x="1455" y="1496.3359"/><text fill="#000000" font-family="sans-serif" font-size="14" lengthAdjust="spacing" textLength="97" x="1462" y="1517.8691">StaffRepository</text><rect fill="#E2E2F0" height="31.6094" rx="2.5" ry="2.5" style="stroke:#181818;stroke-width:0.5;" width="130" x="1576" y="88.6094"/><text fill="#000000" font-family="sans-serif" font-size="14" lengthAdjust="spacing" textLength="116" x="1583" y="110.1426">OperationRequest</text><rect fill="#E2E2F0" height="31.6094" rx="2.5" ry="2.5" style="stroke:#181818;stroke-width:0.5;" width="130" x="1576" y="1496.3359"/><text fill="#000000" font-family="sans-serif" font-size="14" lengthAdjust="spacing" textLength="116" x="1583" y="1517.8691">OperationRequest</text><rect fill="#E2E2F0" height="31.6094" rx="2.5" ry="2.5" style="stroke:#181818;stroke-width:0.5;" width="58" x="1785" y="1496.3359"/><text fill="#000000" font-family="sans-serif" font-size="14" lengthAdjust="spacing" textLength="44" x="1792" y="1517.8691">Priority</text><rect fill="#E2E2F0" height="31.6094" rx="2.5" ry="2.5" style="stroke:#181818;stroke-width:0.5;" width="70" x="1853" y="1496.3359"/><text fill="#000000" font-family="sans-serif" font-size="14" lengthAdjust="spacing" textLength="56" x="1860" y="1517.8691">Deadline</text><rect fill="#E2E2F0" height="31.6094" rx="2.5" ry="2.5" style="stroke:#181818;stroke-width:0.5;" width="43" x="1933" y="88.6094"/><text fill="#000000" font-family="sans-serif" font-size="14" lengthAdjust="spacing" textLength="29" x="1940" y="110.1426">User</text><rect fill="#E2E2F0" height="31.6094" rx="2.5" ry="2.5" style="stroke:#181818;stroke-width:0.5;" width="43" x="1933" y="1496.3359"/><text fill="#000000" font-family="sans-serif" font-size="14" lengthAdjust="spacing" textLength="29" x="1940" y="1517.8691">User</text><rect fill="#E2E2F0" height="31.6094" rx="2.5" ry="2.5" style="stroke:#181818;stroke-width:0.5;" width="43" x="1986" y="88.6094"/><text fill="#000000" font-family="sans-serif" font-size="14" lengthAdjust="spacing" textLength="29" x="1993" y="110.1426">Staff</text><rect fill="#E2E2F0" height="31.6094" rx="2.5" ry="2.5" style="stroke:#181818;stroke-width:0.5;" width="43" x="1986" y="1496.3359"/><text fill="#000000" font-family="sans-serif" font-size="14" lengthAdjust="spacing" textLength="29" x="1993" y="1517.8691">Staff</text><rect fill="#FFFFFF" height="1357.1172" style="stroke:#181818;stroke-width:1.0;" width="10" x="39" y="131.2188"/><rect fill="#FFFFFF" height="669.7344" style="stroke:#181818;stroke-width:1.0;" width="10" x="284" y="169.9219"/><rect fill="#FFFFFF" height="618.3281" style="stroke:#181818;stroke-width:1.0;" width="10" x="284" y="870.0078"/><rect fill="#FFFFFF" height="609.0313" style="stroke:#181818;stroke-width:1.0;" width="10" x="586" y="200.2734"/><rect fill="#FFFFFF" height="548.625" style="stroke:#181818;stroke-width:1.0;" width="10" x="586" y="900.3594"/><rect fill="#FFFFFF" height="434.9219" style="stroke:#181818;stroke-width:1.0;" width="10" x="915" y="352.0313"/><rect fill="#FFFFFF" height="427.2188" style="stroke:#181818;stroke-width:1.0;" width="10" x="915" y="991.4141"/><rect fill="#FFFFFF" height="30.3516" style="stroke:#181818;stroke-width:1.0;" width="10" x="1084" y="230.625"/><rect fill="#FFFFFF" height="30.3516" style="stroke:#181818;stroke-width:1.0;" width="10" x="1084" y="291.3281"/><rect fill="#FFFFFF" height="30.3516" style="stroke:#181818;stroke-width:1.0;" width="10" x="1084" y="930.7109"/><rect fill="#FFFFFF" height="30.3516" style="stroke:#181818;stroke-width:1.0;" width="10" x="1185.5" y="443.0859"/><rect fill="#FFFFFF" height="30.3516" style="stroke:#181818;stroke-width:1.0;" width="10" x="1341" y="625.1953"/><rect fill="#FFFFFF" height="30.3516" style="stroke:#181818;stroke-width:1.0;" width="10" x="1341" y="1021.7656"/><rect fill="#FFFFFF" height="30.3516" style="stroke:#181818;stroke-width:1.0;" width="10" x="1341" y="1357.9297"/><rect fill="#FFFFFF" height="30.3516" style="stroke:#181818;stroke-width:1.0;" width="10" x="1505.5" y="503.7891"/><rect fill="#FFFFFF" height="30.3516" style="stroke:#181818;stroke-width:1.0;" width="10" x="1636" y="685.8984"/><rect fill="#FFFFFF" height="70.6094" style="stroke:#181818;stroke-width:1.0;" width="10" x="1636" y="1107.8203"/><rect fill="#FFFFFF" height="70.6094" style="stroke:#181818;stroke-width:1.0;" width="10" x="1636" y="1249.9688"/><rect fill="#FFFFFF" height="16.2578" style="stroke:#181818;stroke-width:1.0;" width="10" x="1809" y="1148.1719"/><rect fill="#FFFFFF" height="16.2578" style="stroke:#181818;stroke-width:1.0;" width="10" x="1883" y="1290.3203"/><rect fill="#FFFFFF" height="30.3516" style="stroke:#181818;stroke-width:1.0;" width="10" x="1949.5" y="382.3828"/><rect fill="#FFFFFF" height="30.3516" style="stroke:#181818;stroke-width:1.0;" width="10" x="2002.5" y="564.4922"/><polygon fill="#A52A2A" points="272,165.9219,282,169.9219,272,173.9219,276,169.9219" style="stroke:#A52A2A;stroke-width:1.0;"/><line style="stroke:#A52A2A;stroke-width:1.0;" x1="49" x2="278" y1="169.9219" y2="169.9219"/><text fill="#000000" font-family="sans-serif" font-size="13" lengthAdjust="spacing" textLength="163" x="56" y="148.7139">Request to edit an operation</text><text fill="#000000" font-family="sans-serif" font-size="13" lengthAdjust="spacing" textLength="194" x="60" y="165.0654">request choosen in the US 5.1.19</text><polygon fill="#A52A2A" points="574,196.2734,584,200.2734,574,204.2734,578,200.2734" style="stroke:#A52A2A;stroke-width:1.0;"/><line style="stroke:#A52A2A;stroke-width:1.0;" x1="294" x2="580" y1="200.2734" y2="200.2734"/><text fill="#000000" font-family="sans-serif" font-size="13" lengthAdjust="spacing" textLength="267" x="301" y="195.417">canEditOperationRequest(operationRequestId)</text><polygon fill="#A52A2A" points="1072,226.625,1082,230.625,1072,234.625,1076,230.625" style="stroke:#A52A2A;stroke-width:1.0;"/><line style="stroke:#A52A2A;stroke-width:1.0;" x1="596" x2="1078" y1="230.625" y2="230.625"/><text fill="#000000" font-family="sans-serif" font-size="13" lengthAdjust="spacing" textLength="234" x="603" y="225.7686">ensureAuthenticatedUserHasAnyOf(role)</text><polygon fill="#A52A2A" points="607,256.9766,597,260.9766,607,264.9766,603,260.9766" style="stroke:#A52A2A;stroke-width:1.0;"/><line style="stroke:#A52A2A;stroke-width:1.0;stroke-dasharray:2.0,2.0;" x1="601" x2="1088" y1="260.9766" y2="260.9766"/><text fill="#000000" font-family="sans-serif" font-size="13" lengthAdjust="spacing" textLength="22" x="613" y="256.1201">true</text><polygon fill="#A52A2A" points="1072,287.3281,1082,291.3281,1072,295.3281,1076,291.3281" style="stroke:#A52A2A;stroke-width:1.0;"/><line style="stroke:#A52A2A;stroke-width:1.0;" x1="596" x2="1078" y1="291.3281" y2="291.3281"/><text fill="#000000" font-family="sans-serif" font-size="13" lengthAdjust="spacing" textLength="95" x="603" y="286.4717">getLoggedUser()</text><polygon fill="#A52A2A" points="607,317.6797,597,321.6797,607,325.6797,603,321.6797" style="stroke:#A52A2A;stroke-width:1.0;"/><line style="stroke:#A52A2A;stroke-width:1.0;stroke-dasharray:2.0,2.0;" x1="601" x2="1088" y1="321.6797" y2="321.6797"/><text fill="#000000" font-family="sans-serif" font-size="13" lengthAdjust="spacing" textLength="25" x="613" y="316.8232">user</text><polygon fill="#A52A2A" points="903,348.0313,913,352.0313,903,356.0313,907,352.0313" style="stroke:#A52A2A;stroke-width:1.0;"/><line style="stroke:#A52A2A;stroke-width:1.0;" x1="596" x2="909" y1="352.0313" y2="352.0313"/><text fill="#000000" font-family="sans-serif" font-size="13" lengthAdjust="spacing" textLength="300" x="603" y="347.1748">canEditOperationRequest(operationRequestId, user)</text><polygon fill="#A52A2A" points="1937.5,378.3828,1947.5,382.3828,1937.5,386.3828,1941.5,382.3828" style="stroke:#A52A2A;stroke-width:1.0;"/><line style="stroke:#A52A2A;stroke-width:1.0;" x1="925" x2="1943.5" y1="382.3828" y2="382.3828"/><text fill="#000000" font-family="sans-serif" font-size="13" lengthAdjust="spacing" textLength="86" x="932" y="377.5264">getUserEmail()</text><polygon fill="#A52A2A" points="936,408.7344,926,412.7344,936,416.7344,932,412.7344" style="stroke:#A52A2A;stroke-width:1.0;"/><line style="stroke:#A52A2A;stroke-width:1.0;stroke-dasharray:2.0,2.0;" x1="930" x2="1953.5" y1="412.7344" y2="412.7344"/><text fill="#000000" font-family="sans-serif" font-size="13" lengthAdjust="spacing" textLength="58" x="942" y="407.8779">userEmail</text><polygon fill="#A52A2A" points="1173.5,439.0859,1183.5,443.0859,1173.5,447.0859,1177.5,443.0859" style="stroke:#A52A2A;stroke-width:1.0;"/><line style="stroke:#A52A2A;stroke-width:1.0;" x1="925" x2="1179.5" y1="443.0859" y2="443.0859"/><text fill="#000000" font-family="sans-serif" font-size="13" lengthAdjust="spacing" textLength="114" x="932" y="438.2295">getStaffRepository()</text><polygon fill="#A52A2A" points="936,469.4375,926,473.4375,936,477.4375,932,473.4375" style="stroke:#A52A2A;stroke-width:1.0;"/><line style="stroke:#A52A2A;stroke-width:1.0;stroke-dasharray:2.0,2.0;" x1="930" x2="1189.5" y1="473.4375" y2="473.4375"/><text fill="#000000" font-family="sans-serif" font-size="13" lengthAdjust="spacing" textLength="86" x="942" y="468.5811">staffRepository</text><polygon fill="#A52A2A" points="1493.5,499.7891,1503.5,503.7891,1493.5,507.7891,1497.5,503.7891" style="stroke:#A52A2A;stroke-width:1.0;"/><line style="stroke:#A52A2A;stroke-width:1.0;" x1="925" x2="1499.5" y1="503.7891" y2="503.7891"/><text fill="#000000" font-family="sans-serif" font-size="13" lengthAdjust="spacing" textLength="159" x="932" y="498.9326">getStaffByEmail(userEmail)</text><polygon fill="#A52A2A" points="936,530.1406,926,534.1406,936,538.1406,932,534.1406" style="stroke:#A52A2A;stroke-width:1.0;"/><line style="stroke:#A52A2A;stroke-width:1.0;stroke-dasharray:2.0,2.0;" x1="930" x2="1509.5" y1="534.1406" y2="534.1406"/><text fill="#000000" font-family="sans-serif" font-size="13" lengthAdjust="spacing" textLength="24" x="942" y="529.2842">staff</text><polygon fill="#A52A2A" points="1990.5,560.4922,2000.5,564.4922,1990.5,568.4922,1994.5,564.4922" style="stroke:#A52A2A;stroke-width:1.0;"/><line style="stroke:#A52A2A;stroke-width:1.0;" x1="925" x2="1996.5" y1="564.4922" y2="564.4922"/><text fill="#000000" font-family="sans-serif" font-size="13" lengthAdjust="spacing" textLength="71" x="932" y="559.6357">getStaffEId()</text><polygon fill="#A52A2A" points="936,590.8438,926,594.8438,936,598.8438,932,594.8438" style="stroke:#A52A2A;stroke-width:1.0;"/><line style="stroke:#A52A2A;stroke-width:1.0;stroke-dasharray:2.0,2.0;" x1="930" x2="2006.5" y1="594.8438" y2="594.8438"/><text fill="#000000" font-family="sans-serif" font-size="13" lengthAdjust="spacing" textLength="43" x="942" y="589.9873">staffEId</text><polygon fill="#A52A2A" points="1329,621.1953,1339,625.1953,1329,629.1953,1333,625.1953" style="stroke:#A52A2A;stroke-width:1.0;"/><line style="stroke:#A52A2A;stroke-width:1.0;" x1="925" x2="1335" y1="625.1953" y2="625.1953"/><text fill="#000000" font-family="sans-serif" font-size="13" lengthAdjust="spacing" textLength="241" x="932" y="620.3389">getOperationRequest(operationRequestId)</text><polygon fill="#A52A2A" points="936,651.5469,926,655.5469,936,659.5469,932,655.5469" style="stroke:#A52A2A;stroke-width:1.0;"/><line style="stroke:#A52A2A;stroke-width:1.0;stroke-dasharray:2.0,2.0;" x1="930" x2="1345" y1="655.5469" y2="655.5469"/><text fill="#000000" font-family="sans-serif" font-size="13" lengthAdjust="spacing" textLength="101" x="942" y="650.6904">operationRequest</text><polygon fill="#A52A2A" points="1624,681.8984,1634,685.8984,1624,689.8984,1628,685.8984" style="stroke:#A52A2A;stroke-width:1.0;"/><line style="stroke:#A52A2A;stroke-width:1.0;" x1="925" x2="1630" y1="685.8984" y2="685.8984"/><text fill="#000000" font-family="sans-serif" font-size="13" lengthAdjust="spacing" textLength="74" x="932" y="681.042">getDoctorId()</text><polygon fill="#A52A2A" points="936,712.25,926,716.25,936,720.25,932,716.25" style="stroke:#A52A2A;stroke-width:1.0;"/><line style="stroke:#A52A2A;stroke-width:1.0;stroke-dasharray:2.0,2.0;" x1="930" x2="1640" y1="716.25" y2="716.25"/><text fill="#000000" font-family="sans-serif" font-size="13" lengthAdjust="spacing" textLength="46" x="942" y="711.3936">doctorId</text><path d="M473,731.25 L534,731.25 L534,739.6016 L524,749.6016 L473,749.6016 L473,731.25 " fill="#EEEEEE" style="stroke:#000000;stroke-width:1.5;"/><rect fill="none" height="48.7031" style="stroke:#000000;stroke-width:1.5;" width="571" x="473" y="731.25"/><text fill="#000000" font-family="sans-serif" font-size="13" font-weight="bold" lengthAdjust="spacing" textLength="16" x="488" y="745.7451">alt</text><text fill="#000000" font-family="sans-serif" font-size="11" font-weight="bold" lengthAdjust="spacing" textLength="210" x="549" y="744.6689">[if the doctorId is equal to the staffEId]</text><polygon fill="#A52A2A" points="607,767.9531,597,771.9531,607,775.9531,603,771.9531" style="stroke:#A52A2A;stroke-width:1.0;"/><line style="stroke:#A52A2A;stroke-width:1.0;" x1="601" x2="914" y1="771.9531" y2="771.9531"/><text fill="#000000" font-family="sans-serif" font-size="13" lengthAdjust="spacing" textLength="22" x="613" y="767.0967">true</text><polygon fill="#A52A2A" points="305,805.3047,295,809.3047,305,813.3047,301,809.3047" style="stroke:#A52A2A;stroke-width:1.0;"/><line style="stroke:#A52A2A;stroke-width:1.0;stroke-dasharray:2.0,2.0;" x1="299" x2="590" y1="809.3047" y2="809.3047"/><text fill="#000000" font-family="sans-serif" font-size="13" lengthAdjust="spacing" textLength="22" x="311" y="804.4482">true</text><polygon fill="#A52A2A" points="60,835.6563,50,839.6563,60,843.6563,56,839.6563" style="stroke:#A52A2A;stroke-width:1.0;"/><line style="stroke:#A52A2A;stroke-width:1.0;" x1="54" x2="288" y1="839.6563" y2="839.6563"/><text fill="#000000" font-family="sans-serif" font-size="13" lengthAdjust="spacing" textLength="211" x="66" y="834.7998">asks which data he wants to change</text><polygon fill="#A52A2A" points="272,866.0078,282,870.0078,272,874.0078,276,870.0078" style="stroke:#A52A2A;stroke-width:1.0;"/><line style="stroke:#A52A2A;stroke-width:1.0;" x1="49" x2="278" y1="870.0078" y2="870.0078"/><text fill="#000000" font-family="sans-serif" font-size="13" lengthAdjust="spacing" textLength="172" x="56" y="865.1514">sends the data to be changed</text><polygon fill="#A52A2A" points="574,896.3594,584,900.3594,574,904.3594,578,900.3594" style="stroke:#A52A2A;stroke-width:1.0;"/><line style="stroke:#A52A2A;stroke-width:1.0;" x1="294" x2="580" y1="900.3594" y2="900.3594"/><text fill="#000000" font-family="sans-serif" font-size="13" lengthAdjust="spacing" textLength="273" x="301" y="895.5029">editOperationRequest(operationRequestId,data)</text><polygon fill="#A52A2A" points="1072,926.7109,1082,930.7109,1072,934.7109,1076,930.7109" style="stroke:#A52A2A;stroke-width:1.0;"/><line style="stroke:#A52A2A;stroke-width:1.0;" x1="596" x2="1078" y1="930.7109" y2="930.7109"/><text fill="#000000" font-family="sans-serif" font-size="13" lengthAdjust="spacing" textLength="234" x="603" y="925.8545">ensureAuthenticatedUserHasAnyOf(role)</text><polygon fill="#A52A2A" points="607,957.0625,597,961.0625,607,965.0625,603,961.0625" style="stroke:#A52A2A;stroke-width:1.0;"/><line style="stroke:#A52A2A;stroke-width:1.0;stroke-dasharray:2.0,2.0;" x1="601" x2="1088" y1="961.0625" y2="961.0625"/><text fill="#000000" font-family="sans-serif" font-size="13" lengthAdjust="spacing" textLength="22" x="613" y="956.2061">true</text><polygon fill="#A52A2A" points="903,987.4141,913,991.4141,903,995.4141,907,991.4141" style="stroke:#A52A2A;stroke-width:1.0;"/><line style="stroke:#A52A2A;stroke-width:1.0;" x1="596" x2="909" y1="991.4141" y2="991.4141"/><text fill="#000000" font-family="sans-serif" font-size="13" lengthAdjust="spacing" textLength="273" x="603" y="986.5576">editOperationRequest(operationRequestId,data)</text><polygon fill="#A52A2A" points="1329,1017.7656,1339,1021.7656,1329,1025.7656,1333,1021.7656" style="stroke:#A52A2A;stroke-width:1.0;"/><line style="stroke:#A52A2A;stroke-width:1.0;" x1="925" x2="1335" y1="1021.7656" y2="1021.7656"/><text fill="#000000" font-family="sans-serif" font-size="13" lengthAdjust="spacing" textLength="241" x="932" y="1016.9092">getOperationRequest(operationRequestId)</text><polygon fill="#A52A2A" points="936,1048.1172,926,1052.1172,936,1056.1172,932,1052.1172" style="stroke:#A52A2A;stroke-width:1.0;"/><line style="stroke:#A52A2A;stroke-width:1.0;stroke-dasharray:2.0,2.0;" x1="930" x2="1345" y1="1052.1172" y2="1052.1172"/><text fill="#000000" font-family="sans-serif" font-size="13" lengthAdjust="spacing" textLength="101" x="942" y="1047.2607">operationRequest</text><polygon fill="#A52A2A" points="1624,1103.8203,1634,1107.8203,1624,1111.8203,1628,1107.8203" style="stroke:#A52A2A;stroke-width:1.0;"/><line style="stroke:#A52A2A;stroke-width:1.0;" x1="925" x2="1630" y1="1107.8203" y2="1107.8203"/><text fill="#000000" font-family="sans-serif" font-size="13" lengthAdjust="spacing" textLength="130" x="932" y="1102.9639">changePriority(priority)</text><polygon fill="#A52A2A" points="1773,1134.1719,1783,1138.1719,1773,1142.1719,1777,1138.1719" style="stroke:#A52A2A;stroke-width:1.0;"/><line style="stroke:#A52A2A;stroke-width:1.0;" x1="1646" x2="1779" y1="1138.1719" y2="1138.1719"/><text fill="#000000" font-family="sans-serif" font-size="13" lengthAdjust="spacing" textLength="115" x="1653" y="1133.3154">new Priority(priority)</text><rect fill="#E2E2F0" height="31.6094" rx="2.5" ry="2.5" style="stroke:#181818;stroke-width:0.5;" width="58" x="1785" y="1115.8203"/><text fill="#000000" font-family="sans-serif" font-size="14" lengthAdjust="spacing" textLength="44" x="1792" y="1137.3535">Priority</text><polygon fill="#A52A2A" points="1657,1160.4297,1647,1164.4297,1657,1168.4297,1653,1164.4297" style="stroke:#A52A2A;stroke-width:1.0;"/><line style="stroke:#A52A2A;stroke-width:1.0;stroke-dasharray:2.0,2.0;" x1="1651" x2="1813" y1="1164.4297" y2="1164.4297"/><polygon fill="#A52A2A" points="936,1174.4297,926,1178.4297,936,1182.4297,932,1178.4297" style="stroke:#A52A2A;stroke-width:1.0;"/><line style="stroke:#A52A2A;stroke-width:1.0;stroke-dasharray:2.0,2.0;" x1="930" x2="1640" y1="1178.4297" y2="1178.4297"/><path d="M796,1209.2656 L857,1209.2656 L857,1217.6172 L847,1227.6172 L796,1227.6172 L796,1209.2656 " fill="#EEEEEE" style="stroke:#000000;stroke-width:1.5;"/><rect fill="none" height="119.3125" style="stroke:#000000;stroke-width:1.5;" width="1137" x="796" y="1209.2656"/><text fill="#000000" font-family="sans-serif" font-size="13" font-weight="bold" lengthAdjust="spacing" textLength="16" x="811" y="1223.7607">alt</text><text fill="#000000" font-family="sans-serif" font-size="11" font-weight="bold" lengthAdjust="spacing" textLength="176" x="872" y="1222.6846">[if the data contains the priority]</text><polygon fill="#A52A2A" points="1624,1245.9688,1634,1249.9688,1624,1253.9688,1628,1249.9688" style="stroke:#A52A2A;stroke-width:1.0;"/><line style="stroke:#A52A2A;stroke-width:1.0;" x1="925" x2="1630" y1="1249.9688" y2="1249.9688"/><text fill="#000000" font-family="sans-serif" font-size="13" lengthAdjust="spacing" textLength="148" x="932" y="1245.1123">changeDeadline(deadline)</text><polygon fill="#A52A2A" points="1841,1276.3203,1851,1280.3203,1841,1284.3203,1845,1280.3203" style="stroke:#A52A2A;stroke-width:1.0;"/><line style="stroke:#A52A2A;stroke-width:1.0;" x1="1646" x2="1847" y1="1280.3203" y2="1280.3203"/><text fill="#000000" font-family="sans-serif" font-size="13" lengthAdjust="spacing" textLength="133" x="1653" y="1275.4639">new Deadline(deadline)</text><rect fill="#E2E2F0" height="31.6094" rx="2.5" ry="2.5" style="stroke:#181818;stroke-width:0.5;" width="70" x="1853" y="1257.9688"/><text fill="#000000" font-family="sans-serif" font-size="14" lengthAdjust="spacing" textLength="56" x="1860" y="1279.502">Deadline</text><polygon fill="#A52A2A" points="1657,1302.5781,1647,1306.5781,1657,1310.5781,1653,1306.5781" style="stroke:#A52A2A;stroke-width:1.0;"/><line style="stroke:#A52A2A;stroke-width:1.0;stroke-dasharray:2.0,2.0;" x1="1651" x2="1887" y1="1306.5781" y2="1306.5781"/><polygon fill="#A52A2A" points="936,1316.5781,926,1320.5781,936,1324.5781,932,1320.5781" style="stroke:#A52A2A;stroke-width:1.0;"/><line style="stroke:#A52A2A;stroke-width:1.0;stroke-dasharray:2.0,2.0;" x1="930" x2="1640" y1="1320.5781" y2="1320.5781"/><polygon fill="#A52A2A" points="1329,1353.9297,1339,1357.9297,1329,1361.9297,1333,1357.9297" style="stroke:#A52A2A;stroke-width:1.0;"/><line style="stroke:#A52A2A;stroke-width:1.0;" x1="925" x2="1335" y1="1357.9297" y2="1357.9297"/><text fill="#000000" font-family="sans-serif" font-size="13" lengthAdjust="spacing" textLength="148" x="932" y="1353.0732">update(operationRequest)</text><polygon fill="#A52A2A" points="936,1384.2813,926,1388.2813,936,1392.2813,932,1388.2813" style="stroke:#A52A2A;stroke-width:1.0;"/><line style="stroke:#A52A2A;stroke-width:1.0;stroke-dasharray:2.0,2.0;" x1="930" x2="1345" y1="1388.2813" y2="1388.2813"/><text fill="#000000" font-family="sans-serif" font-size="13" lengthAdjust="spacing" textLength="46" x="942" y="1383.4248">updated</text><polygon fill="#A52A2A" points="607,1414.6328,597,1418.6328,607,1422.6328,603,1418.6328" style="stroke:#A52A2A;stroke-width:1.0;"/><line style="stroke:#A52A2A;stroke-width:1.0;stroke-dasharray:2.0,2.0;" x1="601" x2="919" y1="1418.6328" y2="1418.6328"/><text fill="#000000" font-family="sans-serif" font-size="13" lengthAdjust="spacing" textLength="46" x="613" y="1413.7764">updated</text><polygon fill="#A52A2A" points="305,1444.9844,295,1448.9844,305,1452.9844,301,1448.9844" style="stroke:#A52A2A;stroke-width:1.0;"/><line style="stroke:#A52A2A;stroke-width:1.0;stroke-dasharray:2.0,2.0;" x1="299" x2="590" y1="1448.9844" y2="1448.9844"/><text fill="#000000" font-family="sans-serif" font-size="13" lengthAdjust="spacing" textLength="46" x="311" y="1444.1279">updated</text><polygon fill="#A52A2A" points="60,1475.3359,50,1479.3359,60,1483.3359,56,1479.3359" style="stroke:#A52A2A;stroke-width:1.0;"/><line style="stroke:#A52A2A;stroke-width:1.0;stroke-dasharray:2.0,2.0;" x1="54" x2="283" y1="1479.3359" y2="1479.3359"/><text fill="#000000" font-family="sans-serif" font-size="13" lengthAdjust="spacing" textLength="46" x="66" y="1474.4795">updated</text><!--SRC=[rLOzRzim4DtrAuXCRj04pT2X7WhOJe0AS9l0YhSkZ7YsYIYaIr8ntAB_lKTI7oJzbRHBwi6Yn7VltXtlJZBSL40A-563A85SSxfKz8dSsyUPVkHYJUrzML6jHyOe_b0Ro4if2luJo8SinP1V6S7Vb2zWoWMCfMAW9hAIYbnBjWGrhcg88RHyN2fP2-PXexkxQJuPtUUttnmktP_2anIJ5Lyif720aL9ou_V6kF8FGyS5PQm2l_SxLBn6Qhg4mcmn1mfAGyKImmvZeehz1o7HqZWrzfAXSiDBlgR2aBCRnitj6XGrN8gPFMPjvlaPePhCyzFGYHH6oQe2vKpwszZqAnMOnzIu0FNCIt2Msj35eeYjHhLPXHYAzp5Y1ckfEGR5GJj8-226fiuxvDOPocvx5jiLLbW2Tc9dn_aJrXXyfpXAD9vjtTp4a6kWhC9QSH3MtCIGkMxINkiquKvrhpNBN0tmPsgWBGD_8HUVyQ27f55DZ2I0vqoewCL_5rZyVhjSIQb142w8MG6P5-JZvTNbrQUU7QjcdblMlXQ6s2PYN_KCPF8WP-zwfg2O-gLbjdKm921qhS3M20WC72sOJSWNgaTYUxiO81u2DbSyzezS9EA8KTYVcE88ki_b4inKBfVUqU15vEveZdFxqdzDajuxsi1_qpt-OZdjljDhbTuyKLw5Sfqe- -Vajlxh5XhgTT20E6mmvo3fZz1Dr8pXJUHMnmIXyuYWr-0jUk_ZhO-m2o3DpCmRptRzXjv2QE-dTtEJiq7AxD6xl8ZTeGwOWsdZ-5_N6E6i2jQHYfGWL1FQxzFa9Fdn48SSZBD-6RbbZTL-Tncj3E4BDpfQ9E6Qe4HQsT5ZDxhyzTB2XdBD2c8tlKNKLirOIrixc2b-IlamXpWf7pNPh7Yv8emQIb381YUfjghA5Rxt8neSSl7un9d8j8_BMgFH0pHsxCHiX1Vsl2L-ezEnFVs_36LdUhsTzWWBrXuiVjWQoeK_wkx5lR-9_F6th_f1YpxTJvyxvlFp8H6m8ST8-i-7Pk423VZ2s3hmtluzqBLP1fM6mtdelax-FLljLy-WvNn9jbficwrZ99tMTd4iMntuLTd2KK2oGzLShp4pi5F0honVpy9E3VNqMsJNwl3at0DEXcSmFLjmyFi3]--></g></svg>