<?xml version="1.0" encoding="us-ascii" standalone="no"?><svg xmlns="http://www.w3.org/2000/svg" xmlns:xlink="http://www.w3.org/1999/xlink" contentStyleType="text/css" height="902px" preserveAspectRatio="none" style="width:1870px;height:902px;background:#FFFFFF;" version="1.1" viewBox="0 0 1870 902" width="1870px" zoomAndPan="magnify"><defs/><g><text fill="#000000" font-family="sans-serif" font-size="14" font-weight="bold" lengthAdjust="spacing" textLength="132" x="870.75" y="29.5332">Sequence Diagram</text><rect fill="#FFFFFF" height="671.0313" style="stroke:#181818;stroke-width:1.0;" width="10" x="24" y="131.2188"/><rect fill="#FFFFFF" height="648.6797" style="stroke:#181818;stroke-width:1.0;" width="10" x="147" y="153.5703"/><rect fill="#FFFFFF" height="587.9766" style="stroke:#181818;stroke-width:1.0;" width="10" x="464" y="183.9219"/><rect fill="#FFFFFF" height="527.2734" style="stroke:#181818;stroke-width:1.0;" width="10" x="899" y="214.2734"/><rect fill="#FFFFFF" height="91.0547" style="stroke:#181818;stroke-width:1.0;" width="10" x="1147" y="244.625"/><rect fill="#FFFFFF" height="58.3516" style="stroke:#181818;stroke-width:1.0;" width="10" x="1147" y="652.8438"/><rect fill="#FFFFFF" height="119.0547" style="stroke:#181818;stroke-width:1.0;" width="10" x="1298.5" y="496.4375"/><rect fill="#FFFFFF" height="58.3516" style="stroke:#181818;stroke-width:1.0;" width="10" x="1412.5" y="526.7891"/><rect fill="#FFFFFF" height="14" style="stroke:#181818;stroke-width:1.0;" width="10" x="1540.5" y="452.0859"/><rect fill="#FFFFFF" height="30.3516" style="stroke:#181818;stroke-width:1.0;" width="10" x="1691.5" y="391.3828"/><rect fill="#FFFFFF" height="30.3516" style="stroke:#181818;stroke-width:1.0;" width="10" x="1813.5" y="274.9766"/><rect fill="#FFFFFF" height="14" style="stroke:#181818;stroke-width:1.0;" width="10" x="1813.5" y="557.1406"/><rect fill="#FFFFFF" height="14" style="stroke:#181818;stroke-width:1.0;" width="10" x="1813.5" y="683.1953"/><rect fill="none" height="272.8125" style="stroke:#000000;stroke-width:1.5;" width="1059" x="805.5" y="350.6797"/><line style="stroke:#181818;stroke-width:0.5;stroke-dasharray:5.0,5.0;" x1="29" x2="29" y1="121.2188" y2="820.25"/><line style="stroke:#181818;stroke-width:0.5;stroke-dasharray:5.0,5.0;" x1="152" x2="152" y1="121.2188" y2="820.25"/><line style="stroke:#181818;stroke-width:0.5;stroke-dasharray:5.0,5.0;" x1="469" x2="469" y1="121.2188" y2="820.25"/><line style="stroke:#181818;stroke-width:0.5;stroke-dasharray:5.0,5.0;" x1="903.5" x2="903.5" y1="121.2188" y2="820.25"/><line style="stroke:#181818;stroke-width:0.5;stroke-dasharray:5.0,5.0;" x1="1152" x2="1152" y1="121.2188" y2="820.25"/><line style="stroke:#181818;stroke-width:0.5;stroke-dasharray:5.0,5.0;" x1="1303" x2="1303" y1="121.2188" y2="820.25"/><line style="stroke:#181818;stroke-width:0.5;stroke-dasharray:5.0,5.0;" x1="1417.5" x2="1417.5" y1="121.2188" y2="820.25"/><line style="stroke:#181818;stroke-width:0.5;stroke-dasharray:5.0,5.0;" x1="1545.5" x2="1545.5" y1="121.2188" y2="820.25"/><line style="stroke:#181818;stroke-width:0.5;stroke-dasharray:5.0,5.0;" x1="1696.5" x2="1696.5" y1="121.2188" y2="820.25"/><line style="stroke:#181818;stroke-width:0.5;stroke-dasharray:5.0,5.0;" x1="1818.5" x2="1818.5" y1="121.2188" y2="820.25"/><text fill="#000000" font-family="sans-serif" font-size="14" lengthAdjust="spacing" textLength="42" x="5" y="118.1426">Doctor</text><ellipse cx="29" cy="52.1094" fill="#E2E2F0" rx="8" ry="8" style="stroke:#181818;stroke-width:0.5;"/><path d="M29,60.1094 L29,87.1094 M16,68.1094 L42,68.1094 M29,87.1094 L16,102.1094 M29,87.1094 L42,102.1094 " fill="none" style="stroke:#181818;stroke-width:0.5;"/><text fill="#000000" font-family="sans-serif" font-size="14" lengthAdjust="spacing" textLength="42" x="5" y="833.7832">Doctor</text><ellipse cx="29" cy="845.3594" fill="#E2E2F0" rx="8" ry="8" style="stroke:#181818;stroke-width:0.5;"/><path d="M29,853.3594 L29,880.3594 M16,861.3594 L42,861.3594 M29,880.3594 L16,895.3594 M29,880.3594 L42,895.3594 " fill="none" style="stroke:#181818;stroke-width:0.5;"/><rect fill="#E2E2F0" height="31.6094" rx="2.5" ry="2.5" style="stroke:#181818;stroke-width:0.5;" width="52" x="126" y="88.6094"/><text fill="#000000" font-family="sans-serif" font-size="14" lengthAdjust="spacing" textLength="38" x="133" y="110.1426">Route</text><rect fill="#E2E2F0" height="31.6094" rx="2.5" ry="2.5" style="stroke:#181818;stroke-width:0.5;" width="52" x="126" y="819.25"/><text fill="#000000" font-family="sans-serif" font-size="14" lengthAdjust="spacing" textLength="38" x="133" y="840.7832">Route</text><rect fill="#E2E2F0" height="31.6094" rx="2.5" ry="2.5" style="stroke:#181818;stroke-width:0.5;" width="192" x="373" y="88.6094"/><text fill="#000000" font-family="sans-serif" font-size="14" lengthAdjust="spacing" textLength="178" x="380" y="110.1426">OperationRequestController</text><rect fill="#E2E2F0" height="31.6094" rx="2.5" ry="2.5" style="stroke:#181818;stroke-width:0.5;" width="192" x="373" y="819.25"/><text fill="#000000" font-family="sans-serif" font-size="14" lengthAdjust="spacing" textLength="178" x="380" y="840.7832">OperationRequestController</text><rect fill="#E2E2F0" height="31.6094" rx="2.5" ry="2.5" style="stroke:#181818;stroke-width:0.5;" width="177" x="815.5" y="88.6094"/><text fill="#000000" font-family="sans-serif" font-size="14" lengthAdjust="spacing" textLength="163" x="822.5" y="110.1426">OperationRequestService</text><rect fill="#E2E2F0" height="31.6094" rx="2.5" ry="2.5" style="stroke:#181818;stroke-width:0.5;" width="177" x="815.5" y="819.25"/><text fill="#000000" font-family="sans-serif" font-size="14" lengthAdjust="spacing" textLength="163" x="822.5" y="840.7832">OperationRequestService</text><rect fill="#E2E2F0" height="31.6094" rx="2.5" ry="2.5" style="stroke:#181818;stroke-width:0.5;" width="198" x="1053" y="88.6094"/><text fill="#000000" font-family="sans-serif" font-size="14" lengthAdjust="spacing" textLength="184" x="1060" y="110.1426">OperationRequestRepository</text><rect fill="#E2E2F0" height="31.6094" rx="2.5" ry="2.5" style="stroke:#181818;stroke-width:0.5;" width="198" x="1053" y="819.25"/><text fill="#000000" font-family="sans-serif" font-size="14" lengthAdjust="spacing" textLength="184" x="1060" y="840.7832">OperationRequestRepository</text><rect fill="#E2E2F0" height="31.6094" rx="2.5" ry="2.5" style="stroke:#181818;stroke-width:0.5;" width="85" x="1261" y="88.6094"/><text fill="#000000" font-family="sans-serif" font-size="14" lengthAdjust="spacing" textLength="71" x="1268" y="110.1426">LogService</text><rect fill="#E2E2F0" height="31.6094" rx="2.5" ry="2.5" style="stroke:#181818;stroke-width:0.5;" width="85" x="1261" y="819.25"/><text fill="#000000" font-family="sans-serif" font-size="14" lengthAdjust="spacing" textLength="71" x="1268" y="840.7832">LogService</text><rect fill="#E2E2F0" height="31.6094" rx="2.5" ry="2.5" style="stroke:#181818;stroke-width:0.5;" width="106" x="1364.5" y="88.6094"/><text fill="#000000" font-family="sans-serif" font-size="14" lengthAdjust="spacing" textLength="92" x="1371.5" y="110.1426">LogRepository</text><rect fill="#E2E2F0" height="31.6094" rx="2.5" ry="2.5" style="stroke:#181818;stroke-width:0.5;" width="106" x="1364.5" y="819.25"/><text fill="#000000" font-family="sans-serif" font-size="14" lengthAdjust="spacing" textLength="92" x="1371.5" y="840.7832">LogRepository</text><rect fill="#E2E2F0" height="31.6094" rx="2.5" ry="2.5" style="stroke:#181818;stroke-width:0.5;" width="130" x="1480.5" y="88.6094"/><text fill="#000000" font-family="sans-serif" font-size="14" lengthAdjust="spacing" textLength="116" x="1487.5" y="110.1426">OperationRequest</text><rect fill="#E2E2F0" height="31.6094" rx="2.5" ry="2.5" style="stroke:#181818;stroke-width:0.5;" width="130" x="1480.5" y="819.25"/><text fill="#000000" font-family="sans-serif" font-size="14" lengthAdjust="spacing" textLength="116" x="1487.5" y="840.7832">OperationRequest</text><rect fill="#E2E2F0" height="31.6094" rx="2.5" ry="2.5" style="stroke:#181818;stroke-width:0.5;" width="152" x="1620.5" y="88.6094"/><text fill="#000000" font-family="sans-serif" font-size="14" lengthAdjust="spacing" textLength="138" x="1627.5" y="110.1426">OperationRequestDto</text><rect fill="#E2E2F0" height="31.6094" rx="2.5" ry="2.5" style="stroke:#181818;stroke-width:0.5;" width="152" x="1620.5" y="819.25"/><text fill="#000000" font-family="sans-serif" font-size="14" lengthAdjust="spacing" textLength="138" x="1627.5" y="840.7832">OperationRequestDto</text><text fill="#000000" font-family="sans-serif" font-size="14" lengthAdjust="spacing" textLength="66" x="1782.5" y="118.1426">Data Base</text><path d="M1800.5,67.6094 C1800.5,57.6094 1818.5,57.6094 1818.5,57.6094 C1818.5,57.6094 1836.5,57.6094 1836.5,67.6094 L1836.5,93.6094 C1836.5,103.6094 1818.5,103.6094 1818.5,103.6094 C1818.5,103.6094 1800.5,103.6094 1800.5,93.6094 L1800.5,67.6094 " fill="#E2E2F0" style="stroke:#181818;stroke-width:1.5;"/><path d="M1800.5,67.6094 C1800.5,77.6094 1818.5,77.6094 1818.5,77.6094 C1818.5,77.6094 1836.5,77.6094 1836.5,67.6094 " fill="none" style="stroke:#181818;stroke-width:1.5;"/><text fill="#000000" font-family="sans-serif" font-size="14" lengthAdjust="spacing" textLength="66" x="1782.5" y="833.7832">Data Base</text><path d="M1800.5,846.8594 C1800.5,836.8594 1818.5,836.8594 1818.5,836.8594 C1818.5,836.8594 1836.5,836.8594 1836.5,846.8594 L1836.5,872.8594 C1836.5,882.8594 1818.5,882.8594 1818.5,882.8594 C1818.5,882.8594 1800.5,882.8594 1800.5,872.8594 L1800.5,846.8594 " fill="#E2E2F0" style="stroke:#181818;stroke-width:1.5;"/><path d="M1800.5,846.8594 C1800.5,856.8594 1818.5,856.8594 1818.5,856.8594 C1818.5,856.8594 1836.5,856.8594 1836.5,846.8594 " fill="none" style="stroke:#181818;stroke-width:1.5;"/><rect fill="#FFFFFF" height="671.0313" style="stroke:#181818;stroke-width:1.0;" width="10" x="24" y="131.2188"/><rect fill="#FFFFFF" height="648.6797" style="stroke:#181818;stroke-width:1.0;" width="10" x="147" y="153.5703"/><rect fill="#FFFFFF" height="587.9766" style="stroke:#181818;stroke-width:1.0;" width="10" x="464" y="183.9219"/><rect fill="#FFFFFF" height="527.2734" style="stroke:#181818;stroke-width:1.0;" width="10" x="899" y="214.2734"/><rect fill="#FFFFFF" height="91.0547" style="stroke:#181818;stroke-width:1.0;" width="10" x="1147" y="244.625"/><rect fill="#FFFFFF" height="58.3516" style="stroke:#181818;stroke-width:1.0;" width="10" x="1147" y="652.8438"/><rect fill="#FFFFFF" height="119.0547" style="stroke:#181818;stroke-width:1.0;" width="10" x="1298.5" y="496.4375"/><rect fill="#FFFFFF" height="58.3516" style="stroke:#181818;stroke-width:1.0;" width="10" x="1412.5" y="526.7891"/><rect fill="#FFFFFF" height="14" style="stroke:#181818;stroke-width:1.0;" width="10" x="1540.5" y="452.0859"/><rect fill="#FFFFFF" height="30.3516" style="stroke:#181818;stroke-width:1.0;" width="10" x="1691.5" y="391.3828"/><rect fill="#FFFFFF" height="30.3516" style="stroke:#181818;stroke-width:1.0;" width="10" x="1813.5" y="274.9766"/><rect fill="#FFFFFF" height="14" style="stroke:#181818;stroke-width:1.0;" width="10" x="1813.5" y="557.1406"/><rect fill="#FFFFFF" height="14" style="stroke:#181818;stroke-width:1.0;" width="10" x="1813.5" y="683.1953"/><polygon fill="#A52A2A" points="135,149.5703,145,153.5703,135,157.5703,139,153.5703" style="stroke:#A52A2A;stroke-width:1.0;"/><line style="stroke:#A52A2A;stroke-width:1.0;" x1="34" x2="141" y1="153.5703" y2="153.5703"/><text fill="#000000" font-family="sans-serif" font-size="13" lengthAdjust="spacing" textLength="94" x="41" y="148.7139">HttpPatch("{id}")</text><polygon fill="#A52A2A" points="452,179.9219,462,183.9219,452,187.9219,456,183.9219" style="stroke:#A52A2A;stroke-width:1.0;"/><line style="stroke:#A52A2A;stroke-width:1.0;" x1="157" x2="458" y1="183.9219" y2="183.9219"/><text fill="#000000" font-family="sans-serif" font-size="13" lengthAdjust="spacing" textLength="288" x="164" y="179.0654">UpdateOperationRequest(id,operationRequestDto)</text><polygon fill="#A52A2A" points="887,210.2734,897,214.2734,887,218.2734,891,214.2734" style="stroke:#A52A2A;stroke-width:1.0;"/><line style="stroke:#A52A2A;stroke-width:1.0;" x1="474" x2="893" y1="214.2734" y2="214.2734"/><text fill="#000000" font-family="sans-serif" font-size="13" lengthAdjust="spacing" textLength="406" x="481" y="209.417">UpdateOperationRequestAsync(id, operationRequestDto, doctorEmail)</text><polygon fill="#A52A2A" points="1135,240.625,1145,244.625,1135,248.625,1139,244.625" style="stroke:#A52A2A;stroke-width:1.0;"/><line style="stroke:#A52A2A;stroke-width:1.0;" x1="909" x2="1141" y1="244.625" y2="244.625"/><text fill="#000000" font-family="sans-serif" font-size="13" lengthAdjust="spacing" textLength="219" x="916" y="239.7686">GetByIdAsync(new OperationRequest</text><polygon fill="#A52A2A" points="1801.5,270.9766,1811.5,274.9766,1801.5,278.9766,1805.5,274.9766" style="stroke:#A52A2A;stroke-width:1.0;"/><line style="stroke:#A52A2A;stroke-width:1.0;" x1="1157" x2="1807.5" y1="274.9766" y2="274.9766"/><text fill="#000000" font-family="sans-serif" font-size="13" lengthAdjust="spacing" textLength="36" x="1164" y="270.1201">get(id)</text><polygon fill="#A52A2A" points="1168,301.3281,1158,305.3281,1168,309.3281,1164,305.3281" style="stroke:#A52A2A;stroke-width:1.0;"/><line style="stroke:#A52A2A;stroke-width:1.0;stroke-dasharray:2.0,2.0;" x1="1162" x2="1817.5" y1="305.3281" y2="305.3281"/><text fill="#000000" font-family="sans-serif" font-size="13" lengthAdjust="spacing" textLength="104" x="1174" y="300.4717">OperationRequest</text><polygon fill="#A52A2A" points="920,331.6797,910,335.6797,920,339.6797,916,335.6797" style="stroke:#A52A2A;stroke-width:1.0;"/><line style="stroke:#A52A2A;stroke-width:1.0;stroke-dasharray:2.0,2.0;" x1="914" x2="1151" y1="335.6797" y2="335.6797"/><text fill="#000000" font-family="sans-serif" font-size="13" lengthAdjust="spacing" textLength="104" x="926" y="330.8232">OperationRequest</text><path d="M805.5,350.6797 L878.5,350.6797 L878.5,359.0313 L868.5,369.0313 L805.5,369.0313 L805.5,350.6797 " fill="#EEEEEE" style="stroke:#000000;stroke-width:1.5;"/><rect fill="none" height="272.8125" style="stroke:#000000;stroke-width:1.5;" width="1059" x="805.5" y="350.6797"/><text fill="#000000" font-family="sans-serif" font-size="13" font-weight="bold" lengthAdjust="spacing" textLength="28" x="820.5" y="365.1748">loop</text><text fill="#000000" font-family="sans-serif" font-size="11" font-weight="bold" lengthAdjust="spacing" textLength="158" x="893.5" y="364.0986">[OperationRequest attribute]</text><polygon fill="#A52A2A" points="1679.5,387.3828,1689.5,391.3828,1679.5,395.3828,1683.5,391.3828" style="stroke:#A52A2A;stroke-width:1.0;"/><line style="stroke:#A52A2A;stroke-width:1.0;" x1="909" x2="1685.5" y1="391.3828" y2="391.3828"/><text fill="#000000" font-family="sans-serif" font-size="13" lengthAdjust="spacing" textLength="72" x="916" y="386.5264">getXattribute</text><polygon fill="#A52A2A" points="920,417.7344,910,421.7344,920,425.7344,916,421.7344" style="stroke:#A52A2A;stroke-width:1.0;"/><line style="stroke:#A52A2A;stroke-width:1.0;stroke-dasharray:2.0,2.0;" x1="914" x2="1695.5" y1="421.7344" y2="421.7344"/><text fill="#000000" font-family="sans-serif" font-size="13" lengthAdjust="spacing" textLength="54" x="926" y="416.8779">Xattribute</text><polygon fill="#A52A2A" points="1528.5,448.0859,1538.5,452.0859,1528.5,456.0859,1532.5,452.0859" style="stroke:#A52A2A;stroke-width:1.0;"/><line style="stroke:#A52A2A;stroke-width:1.0;stroke-dasharray:2.0,2.0;" x1="909" x2="1534.5" y1="452.0859" y2="452.0859"/><text fill="#000000" font-family="sans-serif" font-size="13" lengthAdjust="spacing" textLength="96" x="916" y="447.2295">changeXattribute</text><polygon fill="#A52A2A" points="920,462.0859,910,466.0859,920,470.0859,916,466.0859" style="stroke:#A52A2A;stroke-width:1.0;"/><line style="stroke:#A52A2A;stroke-width:1.0;stroke-dasharray:2.0,2.0;" x1="914" x2="1544.5" y1="466.0859" y2="466.0859"/><polygon fill="#A52A2A" points="1286.5,492.4375,1296.5,496.4375,1286.5,500.4375,1290.5,496.4375" style="stroke:#A52A2A;stroke-width:1.0;"/><line style="stroke:#A52A2A;stroke-width:1.0;" x1="909" x2="1292.5" y1="496.4375" y2="496.4375"/><text fill="#000000" font-family="sans-serif" font-size="13" lengthAdjust="spacing" textLength="160" x="916" y="491.5811">CreateLogAsync(log, email)</text><polygon fill="#A52A2A" points="1400.5,522.7891,1410.5,526.7891,1400.5,530.7891,1404.5,526.7891" style="stroke:#A52A2A;stroke-width:1.0;"/><line style="stroke:#A52A2A;stroke-width:1.0;" x1="1308.5" x2="1406.5" y1="526.7891" y2="526.7891"/><text fill="#000000" font-family="sans-serif" font-size="13" lengthAdjust="spacing" textLength="85" x="1315.5" y="521.9326">AddAsync(log)</text><polygon fill="#A52A2A" points="1801.5,553.1406,1811.5,557.1406,1801.5,561.1406,1805.5,557.1406" style="stroke:#A52A2A;stroke-width:1.0;"/><line style="stroke:#A52A2A;stroke-width:1.0;" x1="1422.5" x2="1807.5" y1="557.1406" y2="557.1406"/><text fill="#000000" font-family="sans-serif" font-size="13" lengthAdjust="spacing" textLength="52" x="1429.5" y="552.2842">Add(Log)</text><polygon fill="#A52A2A" points="1433.5,567.1406,1423.5,571.1406,1433.5,575.1406,1429.5,571.1406" style="stroke:#A52A2A;stroke-width:1.0;"/><line style="stroke:#A52A2A;stroke-width:1.0;stroke-dasharray:2.0,2.0;" x1="1427.5" x2="1817.5" y1="571.1406" y2="571.1406"/><polygon fill="#A52A2A" points="1319.5,581.1406,1309.5,585.1406,1319.5,589.1406,1315.5,585.1406" style="stroke:#A52A2A;stroke-width:1.0;"/><line style="stroke:#A52A2A;stroke-width:1.0;stroke-dasharray:2.0,2.0;" x1="1313.5" x2="1416.5" y1="585.1406" y2="585.1406"/><polygon fill="#A52A2A" points="920,611.4922,910,615.4922,920,619.4922,916,615.4922" style="stroke:#A52A2A;stroke-width:1.0;"/><line style="stroke:#A52A2A;stroke-width:1.0;stroke-dasharray:2.0,2.0;" x1="914" x2="1302.5" y1="615.4922" y2="615.4922"/><text fill="#000000" font-family="sans-serif" font-size="13" lengthAdjust="spacing" textLength="22" x="926" y="610.6357">true</text><polygon fill="#A52A2A" points="1135,648.8438,1145,652.8438,1135,656.8438,1139,652.8438" style="stroke:#A52A2A;stroke-width:1.0;"/><line style="stroke:#A52A2A;stroke-width:1.0;" x1="909" x2="1141" y1="652.8438" y2="652.8438"/><text fill="#000000" font-family="sans-serif" font-size="13" lengthAdjust="spacing" textLength="185" x="916" y="647.9873">updateAsync(operationRequest)</text><polygon fill="#A52A2A" points="1801.5,679.1953,1811.5,683.1953,1801.5,687.1953,1805.5,683.1953" style="stroke:#A52A2A;stroke-width:1.0;"/><line style="stroke:#A52A2A;stroke-width:1.0;" x1="1157" x2="1807.5" y1="683.1953" y2="683.1953"/><text fill="#000000" font-family="sans-serif" font-size="13" lengthAdjust="spacing" textLength="148" x="1164" y="678.3389">update(operationRequest)</text><polygon fill="#A52A2A" points="1168,693.1953,1158,697.1953,1168,701.1953,1164,697.1953" style="stroke:#A52A2A;stroke-width:1.0;"/><line style="stroke:#A52A2A;stroke-width:1.0;stroke-dasharray:2.0,2.0;" x1="1162" x2="1817.5" y1="697.1953" y2="697.1953"/><polygon fill="#A52A2A" points="920,707.1953,910,711.1953,920,715.1953,916,711.1953" style="stroke:#A52A2A;stroke-width:1.0;"/><line style="stroke:#A52A2A;stroke-width:1.0;stroke-dasharray:2.0,2.0;" x1="914" x2="1151" y1="711.1953" y2="711.1953"/><polygon fill="#A52A2A" points="485,737.5469,475,741.5469,485,745.5469,481,741.5469" style="stroke:#A52A2A;stroke-width:1.0;"/><line style="stroke:#A52A2A;stroke-width:1.0;stroke-dasharray:2.0,2.0;" x1="479" x2="903" y1="741.5469" y2="741.5469"/><text fill="#000000" font-family="sans-serif" font-size="13" lengthAdjust="spacing" textLength="22" x="491" y="736.6904">true</text><polygon fill="#A52A2A" points="168,767.8984,158,771.8984,168,775.8984,164,771.8984" style="stroke:#A52A2A;stroke-width:1.0;"/><line style="stroke:#A52A2A;stroke-width:1.0;stroke-dasharray:2.0,2.0;" x1="162" x2="468" y1="771.8984" y2="771.8984"/><text fill="#000000" font-family="sans-serif" font-size="13" lengthAdjust="spacing" textLength="22" x="174" y="767.042">true</text><polygon fill="#A52A2A" points="40,798.25,30,802.25,40,806.25,36,802.25" style="stroke:#A52A2A;stroke-width:1.0;"/><line style="stroke:#A52A2A;stroke-width:1.0;stroke-dasharray:2.0,2.0;" x1="34" x2="151" y1="802.25" y2="802.25"/><text fill="#000000" font-family="sans-serif" font-size="13" lengthAdjust="spacing" textLength="22" x="46" y="797.3936">true</text><!--SRC=[rLNBRjim4BppAnO-sK02zAn30J-Are3G1743z4gBQuM8JAeKdS0DykzTaPP5IPIA8gVg8ahSdPbzS6cbBH1s-Ek4AaFOI9uRVcJLirGbfnLa1Q-gfRL6xayMjvbME_aRuHFhsy0R0tfIUS1KAbnf8z2iTQ4DRBJ8qQoA4tPDUFQS6trImfijx-_JxNhvOtlttTdrzrCyQhL-aeU3LivWQOn-zNihMlcV8V6E2r6WttiF5PS4pNFSsJD5Rp2pNEK5TcBYHlm78V7CEZNrYv5oApDPScLXzg2fNZFW5Jnkkpjt9HfkfLOFTTahkzRA6bqKQ9nv-pdjjaFp8ZDF4TkRzdx0KbUIL9-Z0FLs5o3LUSXu-HpOz70lVwQrH1LCksoiZdhHVoQuvNjU8SmsjAAQLrwos0DZhcJoXLjigiRy-_Op5Ig1RzQMzzncJ_FPcnJlimL0wq6LVDm2MROrWkIn94Bi2vbBSQE7uXOjM831sZM1nue92SHvbjLPPJKPHDXkGBZOlXovB1P1wD5-YV96zDG59JrVqQxEM-45A7mTLd2KphL459Reg4m9v5XdCCYMs3FQk1sHamp9cS3GESusdkr9l6WyXTRbO0TuCxgZwOtmKzby_3zRrr7YkjrPvETOO0a4g1C1HN6Tu0Xm0jaJpM-C2HxcSP2XqI9C2MIZtNePJ9J3jK5ofM_VeeNERm3zIRZYDcEiyV80bmvV2d5rxVeu0zOiNDCwytdQiMoRzkhJxSehGYiyj6YcvrNTQ5cjEM7Fqu6X4koV3dO29pTdVE3zcRBuo9dsm4DC21C6KyVy8sVwh-StdgNUi7U9XibXuCY2YUumwDeO5Ycy0UfxXUpyNNJb2Opfxc4TtkRwwZr_0000]--></g></svg>