<?xml version="1.0" encoding="us-ascii" standalone="no"?><svg xmlns="http://www.w3.org/2000/svg" xmlns:xlink="http://www.w3.org/1999/xlink" contentStyleType="text/css" height="1778px" preserveAspectRatio="none" style="width:2427px;height:1778px;background:#FFFFFF;" version="1.1" viewBox="0 0 2427 1778" width="2427px" zoomAndPan="magnify"><defs/><g><text fill="#000000" font-family="sans-serif" font-size="14" font-weight="bold" lengthAdjust="spacing" textLength="166" x="1129.5" y="29.5332">Sequence Diagram Title</text><rect fill="#FFFFFF" height="1556.4844" style="stroke:#181818;stroke-width:1.0;" width="10" x="24" y="131.2188"/><rect fill="#FFFFFF" height="669.7344" style="stroke:#181818;stroke-width:1.0;" width="10" x="269" y="169.9219"/><rect fill="#FFFFFF" height="817.6953" style="stroke:#181818;stroke-width:1.0;" width="10" x="269" y="870.0078"/><rect fill="#FFFFFF" height="609.0313" style="stroke:#181818;stroke-width:1.0;" width="10" x="571" y="200.2734"/><rect fill="#FFFFFF" height="747.9922" style="stroke:#181818;stroke-width:1.0;" width="10" x="571" y="900.3594"/><rect fill="#FFFFFF" height="434.9219" style="stroke:#181818;stroke-width:1.0;" width="10" x="900" y="352.0313"/><rect fill="#FFFFFF" height="626.5859" style="stroke:#181818;stroke-width:1.0;" width="10" x="900" y="991.4141"/><rect fill="#FFFFFF" height="30.3516" style="stroke:#181818;stroke-width:1.0;" width="10" x="1086" y="1557.2969"/><rect fill="#FFFFFF" height="30.3516" style="stroke:#181818;stroke-width:1.0;" width="10" x="1203" y="230.625"/><rect fill="#FFFFFF" height="30.3516" style="stroke:#181818;stroke-width:1.0;" width="10" x="1203" y="291.3281"/><rect fill="#FFFFFF" height="30.3516" style="stroke:#181818;stroke-width:1.0;" width="10" x="1203" y="930.7109"/><rect fill="#FFFFFF" height="133.6641" style="stroke:#181818;stroke-width:1.0;" width="10" x="1304" y="1393.2813"/><rect fill="#FFFFFF" height="30.3516" style="stroke:#181818;stroke-width:1.0;" width="10" x="1406.5" y="443.0859"/><rect fill="#FFFFFF" height="30.3516" style="stroke:#181818;stroke-width:1.0;" width="10" x="1562" y="625.1953"/><rect fill="#FFFFFF" height="30.3516" style="stroke:#181818;stroke-width:1.0;" width="10" x="1562" y="1021.7656"/><rect fill="#FFFFFF" height="30.3516" style="stroke:#181818;stroke-width:1.0;" width="10" x="1562" y="1332.5781"/><rect fill="#FFFFFF" height="30.3516" style="stroke:#181818;stroke-width:1.0;" width="10" x="1727.5" y="1466.2422"/><rect fill="#FFFFFF" height="30.3516" style="stroke:#181818;stroke-width:1.0;" width="10" x="1897.5" y="503.7891"/><rect fill="#FFFFFF" height="30.3516" style="stroke:#181818;stroke-width:1.0;" width="10" x="2028" y="685.8984"/><rect fill="#FFFFFF" height="70.6094" style="stroke:#181818;stroke-width:1.0;" width="10" x="2028" y="1107.8203"/><rect fill="#FFFFFF" height="70.6094" style="stroke:#181818;stroke-width:1.0;" width="10" x="2028" y="1224.6172"/><rect fill="#FFFFFF" height="16.2578" style="stroke:#181818;stroke-width:1.0;" width="10" x="2201" y="1148.1719"/><rect fill="#FFFFFF" height="16.2578" style="stroke:#181818;stroke-width:1.0;" width="10" x="2275" y="1264.9688"/><rect fill="#FFFFFF" height="30.3516" style="stroke:#181818;stroke-width:1.0;" width="10" x="2341.5" y="382.3828"/><rect fill="#FFFFFF" height="30.3516" style="stroke:#181818;stroke-width:1.0;" width="10" x="2394.5" y="564.4922"/><rect fill="none" height="48.7031" style="stroke:#000000;stroke-width:1.5;" width="571" x="458" y="731.25"/><rect fill="none" height="236.1094" style="stroke:#000000;stroke-width:1.5;" width="1544" x="781" y="1067.1172"/><line style="stroke:#181818;stroke-width:0.5;stroke-dasharray:5.0,5.0;" x1="29" x2="29" y1="121.2188" y2="1696.7031"/><line style="stroke:#181818;stroke-width:0.5;stroke-dasharray:5.0,5.0;" x1="274" x2="274" y1="121.2188" y2="1696.7031"/><line style="stroke:#181818;stroke-width:0.5;stroke-dasharray:5.0,5.0;" x1="576" x2="576" y1="121.2188" y2="1696.7031"/><line style="stroke:#181818;stroke-width:0.5;stroke-dasharray:5.0,5.0;" x1="905" x2="905" y1="121.2188" y2="1696.7031"/><line style="stroke:#181818;stroke-width:0.5;stroke-dasharray:5.0,5.0;" x1="1091" x2="1091" y1="121.2188" y2="1696.7031"/><line style="stroke:#181818;stroke-width:0.5;stroke-dasharray:5.0,5.0;" x1="1208" x2="1208" y1="121.2188" y2="1696.7031"/><line style="stroke:#181818;stroke-width:0.5;stroke-dasharray:5.0,5.0;" x1="1309" x2="1309" y1="121.2188" y2="1696.7031"/><line style="stroke:#181818;stroke-width:0.5;stroke-dasharray:5.0,5.0;" x1="1411" x2="1411" y1="121.2188" y2="1696.7031"/><line style="stroke:#181818;stroke-width:0.5;stroke-dasharray:5.0,5.0;" x1="1567" x2="1567" y1="121.2188" y2="1696.7031"/><line style="stroke:#181818;stroke-width:0.5;stroke-dasharray:5.0,5.0;" x1="1732" x2="1732" y1="121.2188" y2="1696.7031"/><line style="stroke:#181818;stroke-width:0.5;stroke-dasharray:5.0,5.0;" x1="1818" x2="1818" y1="1432.5859" y2="1696.7031"/><line style="stroke:#181818;stroke-width:0.5;stroke-dasharray:5.0,5.0;" x1="1902" x2="1902" y1="121.2188" y2="1696.7031"/><line style="stroke:#181818;stroke-width:0.5;stroke-dasharray:5.0,5.0;" x1="2033" x2="2033" y1="121.2188" y2="1696.7031"/><line style="stroke:#181818;stroke-width:0.5;stroke-dasharray:5.0,5.0;" x1="2206" x2="2206" y1="1147.125" y2="1696.7031"/><line style="stroke:#181818;stroke-width:0.5;stroke-dasharray:5.0,5.0;" x1="2280" x2="2280" y1="1263.9219" y2="1696.7031"/><line style="stroke:#181818;stroke-width:0.5;stroke-dasharray:5.0,5.0;" x1="2346" x2="2346" y1="121.2188" y2="1696.7031"/><line style="stroke:#181818;stroke-width:0.5;stroke-dasharray:5.0,5.0;" x1="2399" x2="2399" y1="121.2188" y2="1696.7031"/><text fill="#000000" font-family="sans-serif" font-size="14" lengthAdjust="spacing" textLength="42" x="5" y="118.1426">Doctor</text><ellipse cx="29" cy="52.1094" fill="#E2E2F0" rx="8" ry="8" style="stroke:#181818;stroke-width:0.5;"/><path d="M29,60.1094 L29,87.1094 M16,68.1094 L42,68.1094 M29,87.1094 L16,102.1094 M29,87.1094 L42,102.1094 " fill="none" style="stroke:#181818;stroke-width:0.5;"/><text fill="#000000" font-family="sans-serif" font-size="14" lengthAdjust="spacing" textLength="42" x="5" y="1710.2363">Doctor</text><ellipse cx="29" cy="1721.8125" fill="#E2E2F0" rx="8" ry="8" style="stroke:#181818;stroke-width:0.5;"/><path d="M29,1729.8125 L29,1756.8125 M16,1737.8125 L42,1737.8125 M29,1756.8125 L16,1771.8125 M29,1756.8125 L42,1771.8125 " fill="none" style="stroke:#181818;stroke-width:0.5;"/><rect fill="#E2E2F0" height="31.6094" rx="2.5" ry="2.5" style="stroke:#181818;stroke-width:0.5;" width="166" x="191" y="88.6094"/><text fill="#000000" font-family="sans-serif" font-size="14" lengthAdjust="spacing" textLength="152" x="198" y="110.1426">EditOperationRequestUI</text><rect fill="#E2E2F0" height="31.6094" rx="2.5" ry="2.5" style="stroke:#181818;stroke-width:0.5;" width="166" x="191" y="1695.7031"/><text fill="#000000" font-family="sans-serif" font-size="14" lengthAdjust="spacing" textLength="152" x="198" y="1717.2363">EditOperationRequestUI</text><rect fill="#E2E2F0" height="31.6094" rx="2.5" ry="2.5" style="stroke:#181818;stroke-width:0.5;" width="216" x="468" y="88.6094"/><text fill="#000000" font-family="sans-serif" font-size="14" lengthAdjust="spacing" textLength="202" x="475" y="110.1426">EditOperationRequestController</text><rect fill="#E2E2F0" height="31.6094" rx="2.5" ry="2.5" style="stroke:#181818;stroke-width:0.5;" width="216" x="468" y="1695.7031"/><text fill="#000000" font-family="sans-serif" font-size="14" lengthAdjust="spacing" textLength="202" x="475" y="1717.2363">EditOperationRequestController</text><rect fill="#E2E2F0" height="31.6094" rx="2.5" ry="2.5" style="stroke:#181818;stroke-width:0.5;" width="228" x="791" y="88.6094"/><text fill="#000000" font-family="sans-serif" font-size="14" lengthAdjust="spacing" textLength="214" x="798" y="110.1426">ManageOperationRequestService</text><rect fill="#E2E2F0" height="31.6094" rx="2.5" ry="2.5" style="stroke:#181818;stroke-width:0.5;" width="228" x="791" y="1695.7031"/><text fill="#000000" font-family="sans-serif" font-size="14" lengthAdjust="spacing" textLength="214" x="798" y="1717.2363">ManageOperationRequestService</text><rect fill="#E2E2F0" height="31.6094" rx="2.5" ry="2.5" style="stroke:#181818;stroke-width:0.5;" width="124" x="1029" y="88.6094"/><text fill="#000000" font-family="sans-serif" font-size="14" lengthAdjust="spacing" textLength="110" x="1036" y="110.1426">PlanningInterface</text><rect fill="#E2E2F0" height="31.6094" rx="2.5" ry="2.5" style="stroke:#181818;stroke-width:0.5;" width="124" x="1029" y="1695.7031"/><text fill="#000000" font-family="sans-serif" font-size="14" lengthAdjust="spacing" textLength="110" x="1036" y="1717.2363">PlanningInterface</text><rect fill="#E2E2F0" height="31.6094" rx="2.5" ry="2.5" style="stroke:#181818;stroke-width:0.5;" width="90" x="1163" y="88.6094"/><text fill="#000000" font-family="sans-serif" font-size="14" lengthAdjust="spacing" textLength="76" x="1170" y="110.1426">AuthService</text><rect fill="#E2E2F0" height="31.6094" rx="2.5" ry="2.5" style="stroke:#181818;stroke-width:0.5;" width="90" x="1163" y="1695.7031"/><text fill="#000000" font-family="sans-serif" font-size="14" lengthAdjust="spacing" textLength="76" x="1170" y="1717.2363">AuthService</text><rect fill="#E2E2F0" height="31.6094" rx="2.5" ry="2.5" style="stroke:#181818;stroke-width:0.5;" width="92" x="1263" y="88.6094"/><text fill="#000000" font-family="sans-serif" font-size="14" lengthAdjust="spacing" textLength="78" x="1270" y="110.1426">LogsService</text><rect fill="#E2E2F0" height="31.6094" rx="2.5" ry="2.5" style="stroke:#181818;stroke-width:0.5;" width="92" x="1263" y="1695.7031"/><text fill="#000000" font-family="sans-serif" font-size="14" lengthAdjust="spacing" textLength="78" x="1270" y="1717.2363">LogsService</text><rect fill="#E2E2F0" height="31.6094" rx="2.5" ry="2.5" style="stroke:#181818;stroke-width:0.5;" width="93" x="1365" y="88.6094"/><text fill="#000000" font-family="sans-serif" font-size="14" lengthAdjust="spacing" textLength="79" x="1372" y="110.1426">Repositories</text><rect fill="#E2E2F0" height="31.6094" rx="2.5" ry="2.5" style="stroke:#181818;stroke-width:0.5;" width="93" x="1365" y="1695.7031"/><text fill="#000000" font-family="sans-serif" font-size="14" lengthAdjust="spacing" textLength="79" x="1372" y="1717.2363">Repositories</text><rect fill="#E2E2F0" height="31.6094" rx="2.5" ry="2.5" style="stroke:#181818;stroke-width:0.5;" width="198" x="1468" y="88.6094"/><text fill="#000000" font-family="sans-serif" font-size="14" lengthAdjust="spacing" textLength="184" x="1475" y="110.1426">OperationRequestRepository</text><rect fill="#E2E2F0" height="31.6094" rx="2.5" ry="2.5" style="stroke:#181818;stroke-width:0.5;" width="198" x="1468" y="1695.7031"/><text fill="#000000" font-family="sans-serif" font-size="14" lengthAdjust="spacing" textLength="184" x="1475" y="1717.2363">OperationRequestRepository</text><rect fill="#E2E2F0" height="31.6094" rx="2.5" ry="2.5" style="stroke:#181818;stroke-width:0.5;" width="113" x="1676" y="88.6094"/><text fill="#000000" font-family="sans-serif" font-size="14" lengthAdjust="spacing" textLength="99" x="1683" y="110.1426">LogsRepository</text><rect fill="#E2E2F0" height="31.6094" rx="2.5" ry="2.5" style="stroke:#181818;stroke-width:0.5;" width="113" x="1676" y="1695.7031"/><text fill="#000000" font-family="sans-serif" font-size="14" lengthAdjust="spacing" textLength="99" x="1683" y="1717.2363">LogsRepository</text><rect fill="#E2E2F0" height="31.6094" rx="2.5" ry="2.5" style="stroke:#181818;stroke-width:0.5;" width="38" x="1799" y="1695.7031"/><text fill="#000000" font-family="sans-serif" font-size="14" lengthAdjust="spacing" textLength="24" x="1806" y="1717.2363">Log</text><rect fill="#E2E2F0" height="31.6094" rx="2.5" ry="2.5" style="stroke:#181818;stroke-width:0.5;" width="111" x="1847" y="88.6094"/><text fill="#000000" font-family="sans-serif" font-size="14" lengthAdjust="spacing" textLength="97" x="1854" y="110.1426">StaffRepository</text><rect fill="#E2E2F0" height="31.6094" rx="2.5" ry="2.5" style="stroke:#181818;stroke-width:0.5;" width="111" x="1847" y="1695.7031"/><text fill="#000000" font-family="sans-serif" font-size="14" lengthAdjust="spacing" textLength="97" x="1854" y="1717.2363">StaffRepository</text><rect fill="#E2E2F0" height="31.6094" rx="2.5" ry="2.5" style="stroke:#181818;stroke-width:0.5;" width="130" x="1968" y="88.6094"/><text fill="#000000" font-family="sans-serif" font-size="14" lengthAdjust="spacing" textLength="116" x="1975" y="110.1426">OperationRequest</text><rect fill="#E2E2F0" height="31.6094" rx="2.5" ry="2.5" style="stroke:#181818;stroke-width:0.5;" width="130" x="1968" y="1695.7031"/><text fill="#000000" font-family="sans-serif" font-size="14" lengthAdjust="spacing" textLength="116" x="1975" y="1717.2363">OperationRequest</text><rect fill="#E2E2F0" height="31.6094" rx="2.5" ry="2.5" style="stroke:#181818;stroke-width:0.5;" width="58" x="2177" y="1695.7031"/><text fill="#000000" font-family="sans-serif" font-size="14" lengthAdjust="spacing" textLength="44" x="2184" y="1717.2363">Priority</text><rect fill="#E2E2F0" height="31.6094" rx="2.5" ry="2.5" style="stroke:#181818;stroke-width:0.5;" width="70" x="2245" y="1695.7031"/><text fill="#000000" font-family="sans-serif" font-size="14" lengthAdjust="spacing" textLength="56" x="2252" y="1717.2363">Deadline</text><rect fill="#E2E2F0" height="31.6094" rx="2.5" ry="2.5" style="stroke:#181818;stroke-width:0.5;" width="43" x="2325" y="88.6094"/><text fill="#000000" font-family="sans-serif" font-size="14" lengthAdjust="spacing" textLength="29" x="2332" y="110.1426">User</text><rect fill="#E2E2F0" height="31.6094" rx="2.5" ry="2.5" style="stroke:#181818;stroke-width:0.5;" width="43" x="2325" y="1695.7031"/><text fill="#000000" font-family="sans-serif" font-size="14" lengthAdjust="spacing" textLength="29" x="2332" y="1717.2363">User</text><rect fill="#E2E2F0" height="31.6094" rx="2.5" ry="2.5" style="stroke:#181818;stroke-width:0.5;" width="43" x="2378" y="88.6094"/><text fill="#000000" font-family="sans-serif" font-size="14" lengthAdjust="spacing" textLength="29" x="2385" y="110.1426">Staff</text><rect fill="#E2E2F0" height="31.6094" rx="2.5" ry="2.5" style="stroke:#181818;stroke-width:0.5;" width="43" x="2378" y="1695.7031"/><text fill="#000000" font-family="sans-serif" font-size="14" lengthAdjust="spacing" textLength="29" x="2385" y="1717.2363">Staff</text><rect fill="#FFFFFF" height="1556.4844" style="stroke:#181818;stroke-width:1.0;" width="10" x="24" y="131.2188"/><rect fill="#FFFFFF" height="669.7344" style="stroke:#181818;stroke-width:1.0;" width="10" x="269" y="169.9219"/><rect fill="#FFFFFF" height="817.6953" style="stroke:#181818;stroke-width:1.0;" width="10" x="269" y="870.0078"/><rect fill="#FFFFFF" height="609.0313" style="stroke:#181818;stroke-width:1.0;" width="10" x="571" y="200.2734"/><rect fill="#FFFFFF" height="747.9922" style="stroke:#181818;stroke-width:1.0;" width="10" x="571" y="900.3594"/><rect fill="#FFFFFF" height="434.9219" style="stroke:#181818;stroke-width:1.0;" width="10" x="900" y="352.0313"/><rect fill="#FFFFFF" height="626.5859" style="stroke:#181818;stroke-width:1.0;" width="10" x="900" y="991.4141"/><rect fill="#FFFFFF" height="30.3516" style="stroke:#181818;stroke-width:1.0;" width="10" x="1086" y="1557.2969"/><rect fill="#FFFFFF" height="30.3516" style="stroke:#181818;stroke-width:1.0;" width="10" x="1203" y="230.625"/><rect fill="#FFFFFF" height="30.3516" style="stroke:#181818;stroke-width:1.0;" width="10" x="1203" y="291.3281"/><rect fill="#FFFFFF" height="30.3516" style="stroke:#181818;stroke-width:1.0;" width="10" x="1203" y="930.7109"/><rect fill="#FFFFFF" height="133.6641" style="stroke:#181818;stroke-width:1.0;" width="10" x="1304" y="1393.2813"/><rect fill="#FFFFFF" height="30.3516" style="stroke:#181818;stroke-width:1.0;" width="10" x="1406.5" y="443.0859"/><rect fill="#FFFFFF" height="30.3516" style="stroke:#181818;stroke-width:1.0;" width="10" x="1562" y="625.1953"/><rect fill="#FFFFFF" height="30.3516" style="stroke:#181818;stroke-width:1.0;" width="10" x="1562" y="1021.7656"/><rect fill="#FFFFFF" height="30.3516" style="stroke:#181818;stroke-width:1.0;" width="10" x="1562" y="1332.5781"/><rect fill="#FFFFFF" height="30.3516" style="stroke:#181818;stroke-width:1.0;" width="10" x="1727.5" y="1466.2422"/><rect fill="#FFFFFF" height="30.3516" style="stroke:#181818;stroke-width:1.0;" width="10" x="1897.5" y="503.7891"/><rect fill="#FFFFFF" height="30.3516" style="stroke:#181818;stroke-width:1.0;" width="10" x="2028" y="685.8984"/><rect fill="#FFFFFF" height="70.6094" style="stroke:#181818;stroke-width:1.0;" width="10" x="2028" y="1107.8203"/><rect fill="#FFFFFF" height="70.6094" style="stroke:#181818;stroke-width:1.0;" width="10" x="2028" y="1224.6172"/><rect fill="#FFFFFF" height="16.2578" style="stroke:#181818;stroke-width:1.0;" width="10" x="2201" y="1148.1719"/><rect fill="#FFFFFF" height="16.2578" style="stroke:#181818;stroke-width:1.0;" width="10" x="2275" y="1264.9688"/><rect fill="#FFFFFF" height="30.3516" style="stroke:#181818;stroke-width:1.0;" width="10" x="2341.5" y="382.3828"/><rect fill="#FFFFFF" height="30.3516" style="stroke:#181818;stroke-width:1.0;" width="10" x="2394.5" y="564.4922"/><polygon fill="#A52A2A" points="257,165.9219,267,169.9219,257,173.9219,261,169.9219" style="stroke:#A52A2A;stroke-width:1.0;"/><line style="stroke:#A52A2A;stroke-width:1.0;" x1="34" x2="263" y1="169.9219" y2="169.9219"/><text fill="#000000" font-family="sans-serif" font-size="13" lengthAdjust="spacing" textLength="163" x="41" y="148.7139">Request to edit an operation</text><text fill="#000000" font-family="sans-serif" font-size="13" lengthAdjust="spacing" textLength="194" x="45" y="165.0654">request choosen in the US 5.1.19</text><polygon fill="#A52A2A" points="559,196.2734,569,200.2734,559,204.2734,563,200.2734" style="stroke:#A52A2A;stroke-width:1.0;"/><line style="stroke:#A52A2A;stroke-width:1.0;" x1="279" x2="565" y1="200.2734" y2="200.2734"/><text fill="#000000" font-family="sans-serif" font-size="13" lengthAdjust="spacing" textLength="267" x="286" y="195.417">canEditOperationRequest(operationRequestId)</text><polygon fill="#A52A2A" points="1191,226.625,1201,230.625,1191,234.625,1195,230.625" style="stroke:#A52A2A;stroke-width:1.0;"/><line style="stroke:#A52A2A;stroke-width:1.0;" x1="581" x2="1197" y1="230.625" y2="230.625"/><text fill="#000000" font-family="sans-serif" font-size="13" lengthAdjust="spacing" textLength="234" x="588" y="225.7686">ensureAuthenticatedUserHasAnyOf(role)</text><polygon fill="#A52A2A" points="592,256.9766,582,260.9766,592,264.9766,588,260.9766" style="stroke:#A52A2A;stroke-width:1.0;"/><line style="stroke:#A52A2A;stroke-width:1.0;stroke-dasharray:2.0,2.0;" x1="586" x2="1207" y1="260.9766" y2="260.9766"/><text fill="#000000" font-family="sans-serif" font-size="13" lengthAdjust="spacing" textLength="22" x="598" y="256.1201">true</text><polygon fill="#A52A2A" points="1191,287.3281,1201,291.3281,1191,295.3281,1195,291.3281" style="stroke:#A52A2A;stroke-width:1.0;"/><line style="stroke:#A52A2A;stroke-width:1.0;" x1="581" x2="1197" y1="291.3281" y2="291.3281"/><text fill="#000000" font-family="sans-serif" font-size="13" lengthAdjust="spacing" textLength="95" x="588" y="286.4717">getLoggedUser()</text><polygon fill="#A52A2A" points="592,317.6797,582,321.6797,592,325.6797,588,321.6797" style="stroke:#A52A2A;stroke-width:1.0;"/><line style="stroke:#A52A2A;stroke-width:1.0;stroke-dasharray:2.0,2.0;" x1="586" x2="1207" y1="321.6797" y2="321.6797"/><text fill="#000000" font-family="sans-serif" font-size="13" lengthAdjust="spacing" textLength="25" x="598" y="316.8232">user</text><polygon fill="#A52A2A" points="888,348.0313,898,352.0313,888,356.0313,892,352.0313" style="stroke:#A52A2A;stroke-width:1.0;"/><line style="stroke:#A52A2A;stroke-width:1.0;" x1="581" x2="894" y1="352.0313" y2="352.0313"/><text fill="#000000" font-family="sans-serif" font-size="13" lengthAdjust="spacing" textLength="300" x="588" y="347.1748">canEditOperationRequest(operationRequestId, user)</text><polygon fill="#A52A2A" points="2329.5,378.3828,2339.5,382.3828,2329.5,386.3828,2333.5,382.3828" style="stroke:#A52A2A;stroke-width:1.0;"/><line style="stroke:#A52A2A;stroke-width:1.0;" x1="910" x2="2335.5" y1="382.3828" y2="382.3828"/><text fill="#000000" font-family="sans-serif" font-size="13" lengthAdjust="spacing" textLength="86" x="917" y="377.5264">getUserEmail()</text><polygon fill="#A52A2A" points="921,408.7344,911,412.7344,921,416.7344,917,412.7344" style="stroke:#A52A2A;stroke-width:1.0;"/><line style="stroke:#A52A2A;stroke-width:1.0;stroke-dasharray:2.0,2.0;" x1="915" x2="2345.5" y1="412.7344" y2="412.7344"/><text fill="#000000" font-family="sans-serif" font-size="13" lengthAdjust="spacing" textLength="58" x="927" y="407.8779">userEmail</text><polygon fill="#A52A2A" points="1394.5,439.0859,1404.5,443.0859,1394.5,447.0859,1398.5,443.0859" style="stroke:#A52A2A;stroke-width:1.0;"/><line style="stroke:#A52A2A;stroke-width:1.0;" x1="910" x2="1400.5" y1="443.0859" y2="443.0859"/><text fill="#000000" font-family="sans-serif" font-size="13" lengthAdjust="spacing" textLength="114" x="917" y="438.2295">getStaffRepository()</text><polygon fill="#A52A2A" points="921,469.4375,911,473.4375,921,477.4375,917,473.4375" style="stroke:#A52A2A;stroke-width:1.0;"/><line style="stroke:#A52A2A;stroke-width:1.0;stroke-dasharray:2.0,2.0;" x1="915" x2="1410.5" y1="473.4375" y2="473.4375"/><text fill="#000000" font-family="sans-serif" font-size="13" lengthAdjust="spacing" textLength="86" x="927" y="468.5811">staffRepository</text><polygon fill="#A52A2A" points="1885.5,499.7891,1895.5,503.7891,1885.5,507.7891,1889.5,503.7891" style="stroke:#A52A2A;stroke-width:1.0;"/><line style="stroke:#A52A2A;stroke-width:1.0;" x1="910" x2="1891.5" y1="503.7891" y2="503.7891"/><text fill="#000000" font-family="sans-serif" font-size="13" lengthAdjust="spacing" textLength="159" x="917" y="498.9326">getStaffByEmail(userEmail)</text><polygon fill="#A52A2A" points="921,530.1406,911,534.1406,921,538.1406,917,534.1406" style="stroke:#A52A2A;stroke-width:1.0;"/><line style="stroke:#A52A2A;stroke-width:1.0;stroke-dasharray:2.0,2.0;" x1="915" x2="1901.5" y1="534.1406" y2="534.1406"/><text fill="#000000" font-family="sans-serif" font-size="13" lengthAdjust="spacing" textLength="24" x="927" y="529.2842">staff</text><polygon fill="#A52A2A" points="2382.5,560.4922,2392.5,564.4922,2382.5,568.4922,2386.5,564.4922" style="stroke:#A52A2A;stroke-width:1.0;"/><line style="stroke:#A52A2A;stroke-width:1.0;" x1="910" x2="2388.5" y1="564.4922" y2="564.4922"/><text fill="#000000" font-family="sans-serif" font-size="13" lengthAdjust="spacing" textLength="71" x="917" y="559.6357">getStaffEId()</text><polygon fill="#A52A2A" points="921,590.8438,911,594.8438,921,598.8438,917,594.8438" style="stroke:#A52A2A;stroke-width:1.0;"/><line style="stroke:#A52A2A;stroke-width:1.0;stroke-dasharray:2.0,2.0;" x1="915" x2="2398.5" y1="594.8438" y2="594.8438"/><text fill="#000000" font-family="sans-serif" font-size="13" lengthAdjust="spacing" textLength="43" x="927" y="589.9873">staffEId</text><polygon fill="#A52A2A" points="1550,621.1953,1560,625.1953,1550,629.1953,1554,625.1953" style="stroke:#A52A2A;stroke-width:1.0;"/><line style="stroke:#A52A2A;stroke-width:1.0;" x1="910" x2="1556" y1="625.1953" y2="625.1953"/><text fill="#000000" font-family="sans-serif" font-size="13" lengthAdjust="spacing" textLength="241" x="917" y="620.3389">getOperationRequest(operationRequestId)</text><polygon fill="#A52A2A" points="921,651.5469,911,655.5469,921,659.5469,917,655.5469" style="stroke:#A52A2A;stroke-width:1.0;"/><line style="stroke:#A52A2A;stroke-width:1.0;stroke-dasharray:2.0,2.0;" x1="915" x2="1566" y1="655.5469" y2="655.5469"/><text fill="#000000" font-family="sans-serif" font-size="13" lengthAdjust="spacing" textLength="101" x="927" y="650.6904">operationRequest</text><polygon fill="#A52A2A" points="2016,681.8984,2026,685.8984,2016,689.8984,2020,685.8984" style="stroke:#A52A2A;stroke-width:1.0;"/><line style="stroke:#A52A2A;stroke-width:1.0;" x1="910" x2="2022" y1="685.8984" y2="685.8984"/><text fill="#000000" font-family="sans-serif" font-size="13" lengthAdjust="spacing" textLength="74" x="917" y="681.042">getDoctorId()</text><polygon fill="#A52A2A" points="921,712.25,911,716.25,921,720.25,917,716.25" style="stroke:#A52A2A;stroke-width:1.0;"/><line style="stroke:#A52A2A;stroke-width:1.0;stroke-dasharray:2.0,2.0;" x1="915" x2="2032" y1="716.25" y2="716.25"/><text fill="#000000" font-family="sans-serif" font-size="13" lengthAdjust="spacing" textLength="46" x="927" y="711.3936">doctorId</text><path d="M458,731.25 L519,731.25 L519,739.6016 L509,749.6016 L458,749.6016 L458,731.25 " fill="#EEEEEE" style="stroke:#000000;stroke-width:1.5;"/><rect fill="none" height="48.7031" style="stroke:#000000;stroke-width:1.5;" width="571" x="458" y="731.25"/><text fill="#000000" font-family="sans-serif" font-size="13" font-weight="bold" lengthAdjust="spacing" textLength="16" x="473" y="745.7451">alt</text><text fill="#000000" font-family="sans-serif" font-size="11" font-weight="bold" lengthAdjust="spacing" textLength="210" x="534" y="744.6689">[if the doctorId is equal to the staffEId]</text><polygon fill="#A52A2A" points="592,767.9531,582,771.9531,592,775.9531,588,771.9531" style="stroke:#A52A2A;stroke-width:1.0;"/><line style="stroke:#A52A2A;stroke-width:1.0;" x1="586" x2="899" y1="771.9531" y2="771.9531"/><text fill="#000000" font-family="sans-serif" font-size="13" lengthAdjust="spacing" textLength="22" x="598" y="767.0967">true</text><polygon fill="#A52A2A" points="290,805.3047,280,809.3047,290,813.3047,286,809.3047" style="stroke:#A52A2A;stroke-width:1.0;"/><line style="stroke:#A52A2A;stroke-width:1.0;stroke-dasharray:2.0,2.0;" x1="284" x2="575" y1="809.3047" y2="809.3047"/><text fill="#000000" font-family="sans-serif" font-size="13" lengthAdjust="spacing" textLength="22" x="296" y="804.4482">true</text><polygon fill="#A52A2A" points="45,835.6563,35,839.6563,45,843.6563,41,839.6563" style="stroke:#A52A2A;stroke-width:1.0;"/><line style="stroke:#A52A2A;stroke-width:1.0;" x1="39" x2="273" y1="839.6563" y2="839.6563"/><text fill="#000000" font-family="sans-serif" font-size="13" lengthAdjust="spacing" textLength="211" x="51" y="834.7998">asks which data he wants to change</text><polygon fill="#A52A2A" points="257,866.0078,267,870.0078,257,874.0078,261,870.0078" style="stroke:#A52A2A;stroke-width:1.0;"/><line style="stroke:#A52A2A;stroke-width:1.0;" x1="34" x2="263" y1="870.0078" y2="870.0078"/><text fill="#000000" font-family="sans-serif" font-size="13" lengthAdjust="spacing" textLength="172" x="41" y="865.1514">sends the data to be changed</text><polygon fill="#A52A2A" points="559,896.3594,569,900.3594,559,904.3594,563,900.3594" style="stroke:#A52A2A;stroke-width:1.0;"/><line style="stroke:#A52A2A;stroke-width:1.0;" x1="279" x2="565" y1="900.3594" y2="900.3594"/><text fill="#000000" font-family="sans-serif" font-size="13" lengthAdjust="spacing" textLength="273" x="286" y="895.5029">editOperationRequest(operationRequestId,data)</text><polygon fill="#A52A2A" points="1191,926.7109,1201,930.7109,1191,934.7109,1195,930.7109" style="stroke:#A52A2A;stroke-width:1.0;"/><line style="stroke:#A52A2A;stroke-width:1.0;" x1="581" x2="1197" y1="930.7109" y2="930.7109"/><text fill="#000000" font-family="sans-serif" font-size="13" lengthAdjust="spacing" textLength="234" x="588" y="925.8545">ensureAuthenticatedUserHasAnyOf(role)</text><polygon fill="#A52A2A" points="592,957.0625,582,961.0625,592,965.0625,588,961.0625" style="stroke:#A52A2A;stroke-width:1.0;"/><line style="stroke:#A52A2A;stroke-width:1.0;stroke-dasharray:2.0,2.0;" x1="586" x2="1207" y1="961.0625" y2="961.0625"/><text fill="#000000" font-family="sans-serif" font-size="13" lengthAdjust="spacing" textLength="22" x="598" y="956.2061">true</text><polygon fill="#A52A2A" points="888,987.4141,898,991.4141,888,995.4141,892,991.4141" style="stroke:#A52A2A;stroke-width:1.0;"/><line style="stroke:#A52A2A;stroke-width:1.0;" x1="581" x2="894" y1="991.4141" y2="991.4141"/><text fill="#000000" font-family="sans-serif" font-size="13" lengthAdjust="spacing" textLength="273" x="588" y="986.5576">editOperationRequest(operationRequestId,data)</text><polygon fill="#A52A2A" points="1550,1017.7656,1560,1021.7656,1550,1025.7656,1554,1021.7656" style="stroke:#A52A2A;stroke-width:1.0;"/><line style="stroke:#A52A2A;stroke-width:1.0;" x1="910" x2="1556" y1="1021.7656" y2="1021.7656"/><text fill="#000000" font-family="sans-serif" font-size="13" lengthAdjust="spacing" textLength="241" x="917" y="1016.9092">getOperationRequest(operationRequestId)</text><polygon fill="#A52A2A" points="921,1048.1172,911,1052.1172,921,1056.1172,917,1052.1172" style="stroke:#A52A2A;stroke-width:1.0;"/><line style="stroke:#A52A2A;stroke-width:1.0;stroke-dasharray:2.0,2.0;" x1="915" x2="1566" y1="1052.1172" y2="1052.1172"/><text fill="#000000" font-family="sans-serif" font-size="13" lengthAdjust="spacing" textLength="101" x="927" y="1047.2607">operationRequest</text><path d="M781,1067.1172 L842,1067.1172 L842,1075.4688 L832,1085.4688 L781,1085.4688 L781,1067.1172 " fill="#EEEEEE" style="stroke:#000000;stroke-width:1.5;"/><rect fill="none" height="236.1094" style="stroke:#000000;stroke-width:1.5;" width="1544" x="781" y="1067.1172"/><text fill="#000000" font-family="sans-serif" font-size="13" font-weight="bold" lengthAdjust="spacing" textLength="16" x="796" y="1081.6123">alt</text><text fill="#000000" font-family="sans-serif" font-size="11" font-weight="bold" lengthAdjust="spacing" textLength="176" x="857" y="1080.5361">[if the data contains the priority]</text><polygon fill="#A52A2A" points="2016,1103.8203,2026,1107.8203,2016,1111.8203,2020,1107.8203" style="stroke:#A52A2A;stroke-width:1.0;"/><line style="stroke:#A52A2A;stroke-width:1.0;" x1="910" x2="2022" y1="1107.8203" y2="1107.8203"/><text fill="#000000" font-family="sans-serif" font-size="13" lengthAdjust="spacing" textLength="130" x="917" y="1102.9639">changePriority(priority)</text><polygon fill="#A52A2A" points="2165,1134.1719,2175,1138.1719,2165,1142.1719,2169,1138.1719" style="stroke:#A52A2A;stroke-width:1.0;"/><line style="stroke:#A52A2A;stroke-width:1.0;" x1="2038" x2="2171" y1="1138.1719" y2="1138.1719"/><text fill="#000000" font-family="sans-serif" font-size="13" lengthAdjust="spacing" textLength="115" x="2045" y="1133.3154">new Priority(priority)</text><rect fill="#E2E2F0" height="31.6094" rx="2.5" ry="2.5" style="stroke:#181818;stroke-width:0.5;" width="58" x="2177" y="1115.8203"/><text fill="#000000" font-family="sans-serif" font-size="14" lengthAdjust="spacing" textLength="44" x="2184" y="1137.3535">Priority</text><polygon fill="#A52A2A" points="2049,1160.4297,2039,1164.4297,2049,1168.4297,2045,1164.4297" style="stroke:#A52A2A;stroke-width:1.0;"/><line style="stroke:#A52A2A;stroke-width:1.0;stroke-dasharray:2.0,2.0;" x1="2043" x2="2205" y1="1164.4297" y2="1164.4297"/><polygon fill="#A52A2A" points="921,1174.4297,911,1178.4297,921,1182.4297,917,1178.4297" style="stroke:#A52A2A;stroke-width:1.0;"/><line style="stroke:#A52A2A;stroke-width:1.0;stroke-dasharray:2.0,2.0;" x1="915" x2="2032" y1="1178.4297" y2="1178.4297"/><line style="stroke:#000000;stroke-width:1.0;stroke-dasharray:2.0,2.0;" x1="781" x2="2325" y1="1187.4297" y2="1187.4297"/><text fill="#000000" font-family="sans-serif" font-size="11" font-weight="bold" lengthAdjust="spacing" textLength="183" x="786" y="1198.8486">[if the data contains the deadline]</text><polygon fill="#A52A2A" points="2016,1220.6172,2026,1224.6172,2016,1228.6172,2020,1224.6172" style="stroke:#A52A2A;stroke-width:1.0;"/><line style="stroke:#A52A2A;stroke-width:1.0;" x1="910" x2="2022" y1="1224.6172" y2="1224.6172"/><text fill="#000000" font-family="sans-serif" font-size="13" lengthAdjust="spacing" textLength="148" x="917" y="1219.7607">changeDeadline(deadline)</text><polygon fill="#A52A2A" points="2233,1250.9688,2243,1254.9688,2233,1258.9688,2237,1254.9688" style="stroke:#A52A2A;stroke-width:1.0;"/><line style="stroke:#A52A2A;stroke-width:1.0;" x1="2038" x2="2239" y1="1254.9688" y2="1254.9688"/><text fill="#000000" font-family="sans-serif" font-size="13" lengthAdjust="spacing" textLength="133" x="2045" y="1250.1123">new Deadline(deadline)</text><rect fill="#E2E2F0" height="31.6094" rx="2.5" ry="2.5" style="stroke:#181818;stroke-width:0.5;" width="70" x="2245" y="1232.6172"/><text fill="#000000" font-family="sans-serif" font-size="14" lengthAdjust="spacing" textLength="56" x="2252" y="1254.1504">Deadline</text><polygon fill="#A52A2A" points="2049,1277.2266,2039,1281.2266,2049,1285.2266,2045,1281.2266" style="stroke:#A52A2A;stroke-width:1.0;"/><line style="stroke:#A52A2A;stroke-width:1.0;stroke-dasharray:2.0,2.0;" x1="2043" x2="2279" y1="1281.2266" y2="1281.2266"/><polygon fill="#A52A2A" points="921,1291.2266,911,1295.2266,921,1299.2266,917,1295.2266" style="stroke:#A52A2A;stroke-width:1.0;"/><line style="stroke:#A52A2A;stroke-width:1.0;stroke-dasharray:2.0,2.0;" x1="915" x2="2032" y1="1295.2266" y2="1295.2266"/><polygon fill="#A52A2A" points="1550,1328.5781,1560,1332.5781,1550,1336.5781,1554,1332.5781" style="stroke:#A52A2A;stroke-width:1.0;"/><line style="stroke:#A52A2A;stroke-width:1.0;" x1="910" x2="1556" y1="1332.5781" y2="1332.5781"/><text fill="#000000" font-family="sans-serif" font-size="13" lengthAdjust="spacing" textLength="148" x="917" y="1327.7217">update(operationRequest)</text><polygon fill="#A52A2A" points="921,1358.9297,911,1362.9297,921,1366.9297,917,1362.9297" style="stroke:#A52A2A;stroke-width:1.0;"/><line style="stroke:#A52A2A;stroke-width:1.0;stroke-dasharray:2.0,2.0;" x1="915" x2="1566" y1="1362.9297" y2="1362.9297"/><text fill="#000000" font-family="sans-serif" font-size="13" lengthAdjust="spacing" textLength="46" x="927" y="1358.0732">updated</text><polygon fill="#A52A2A" points="1292,1389.2813,1302,1393.2813,1292,1397.2813,1296,1393.2813" style="stroke:#A52A2A;stroke-width:1.0;"/><line style="stroke:#A52A2A;stroke-width:1.0;" x1="910" x2="1298" y1="1393.2813" y2="1393.2813"/><text fill="#000000" font-family="sans-serif" font-size="13" lengthAdjust="spacing" textLength="62" x="917" y="1388.4248">logAction()</text><polygon fill="#A52A2A" points="1787,1419.6328,1797,1423.6328,1787,1427.6328,1791,1423.6328" style="stroke:#A52A2A;stroke-width:1.0;"/><line style="stroke:#A52A2A;stroke-width:1.0;" x1="1314" x2="1793" y1="1423.6328" y2="1423.6328"/><text fill="#000000" font-family="sans-serif" font-size="13" lengthAdjust="spacing" textLength="56" x="1321" y="1418.7764">new Log()</text><rect fill="#E2E2F0" height="31.6094" rx="2.5" ry="2.5" style="stroke:#181818;stroke-width:0.5;" width="38" x="1799" y="1401.2813"/><text fill="#000000" font-family="sans-serif" font-size="14" lengthAdjust="spacing" textLength="24" x="1806" y="1422.8145">Log</text><polygon fill="#A52A2A" points="1715.5,1462.2422,1725.5,1466.2422,1715.5,1470.2422,1719.5,1466.2422" style="stroke:#A52A2A;stroke-width:1.0;"/><line style="stroke:#A52A2A;stroke-width:1.0;" x1="1314" x2="1721.5" y1="1466.2422" y2="1466.2422"/><text fill="#000000" font-family="sans-serif" font-size="13" lengthAdjust="spacing" textLength="51" x="1321" y="1461.3857">save(log)</text><polygon fill="#A52A2A" points="1325,1492.5938,1315,1496.5938,1325,1500.5938,1321,1496.5938" style="stroke:#A52A2A;stroke-width:1.0;"/><line style="stroke:#A52A2A;stroke-width:1.0;stroke-dasharray:2.0,2.0;" x1="1319" x2="1731.5" y1="1496.5938" y2="1496.5938"/><text fill="#000000" font-family="sans-serif" font-size="13" lengthAdjust="spacing" textLength="33" x="1331" y="1491.7373">saved</text><polygon fill="#A52A2A" points="921,1522.9453,911,1526.9453,921,1530.9453,917,1526.9453" style="stroke:#A52A2A;stroke-width:1.0;"/><line style="stroke:#A52A2A;stroke-width:1.0;stroke-dasharray:2.0,2.0;" x1="915" x2="1308" y1="1526.9453" y2="1526.9453"/><text fill="#000000" font-family="sans-serif" font-size="13" lengthAdjust="spacing" textLength="35" x="927" y="1522.0889">added</text><polygon fill="#A52A2A" points="1074,1553.2969,1084,1557.2969,1074,1561.2969,1078,1557.2969" style="stroke:#A52A2A;stroke-width:1.0;"/><line style="stroke:#A52A2A;stroke-width:1.0;stroke-dasharray:2.0,2.0;" x1="910" x2="1080" y1="1557.2969" y2="1557.2969"/><text fill="#000000" font-family="sans-serif" font-size="13" lengthAdjust="spacing" textLength="142" x="917" y="1552.4404">requestUpdated(request)</text><polygon fill="#A52A2A" points="921,1583.6484,911,1587.6484,921,1591.6484,917,1587.6484" style="stroke:#A52A2A;stroke-width:1.0;"/><line style="stroke:#A52A2A;stroke-width:1.0;stroke-dasharray:2.0,2.0;" x1="915" x2="1090" y1="1587.6484" y2="1587.6484"/><text fill="#000000" font-family="sans-serif" font-size="13" lengthAdjust="spacing" textLength="22" x="927" y="1582.792">true</text><polygon fill="#A52A2A" points="592,1614,582,1618,592,1622,588,1618" style="stroke:#A52A2A;stroke-width:1.0;"/><line style="stroke:#A52A2A;stroke-width:1.0;stroke-dasharray:2.0,2.0;" x1="586" x2="904" y1="1618" y2="1618"/><text fill="#000000" font-family="sans-serif" font-size="13" lengthAdjust="spacing" textLength="46" x="598" y="1613.1436">updated</text><polygon fill="#A52A2A" points="290,1644.3516,280,1648.3516,290,1652.3516,286,1648.3516" style="stroke:#A52A2A;stroke-width:1.0;"/><line style="stroke:#A52A2A;stroke-width:1.0;stroke-dasharray:2.0,2.0;" x1="284" x2="575" y1="1648.3516" y2="1648.3516"/><text fill="#000000" font-family="sans-serif" font-size="13" lengthAdjust="spacing" textLength="46" x="296" y="1643.4951">updated</text><polygon fill="#A52A2A" points="45,1674.7031,35,1678.7031,45,1682.7031,41,1678.7031" style="stroke:#A52A2A;stroke-width:1.0;"/><line style="stroke:#A52A2A;stroke-width:1.0;stroke-dasharray:2.0,2.0;" x1="39" x2="268" y1="1678.7031" y2="1678.7031"/><text fill="#000000" font-family="sans-serif" font-size="13" lengthAdjust="spacing" textLength="46" x="51" y="1673.8467">updated</text><!--SRC=[rLTDRziu4BthLn0zkS6cQ0zxM1yAE1z01RYRmAflUs75iKn48LsIIf1Tx7_V8QcF8UKuoPxQ729HVFFcpMXcH3lfMc0L_EX0rS2k96yClsVV_EF2tabru7vTjzpQbND6VkySbBLMbVmRsCSYnx1_2eP_Qxc3jLHmeOq0SwbRRTYL5WsOYxQ35CBhkyReJea8MztUhilBrRVovi-0o_VNSA_LvLxkTbe5mCeO_HZtBl0kFgIEAov42t7lNwhuWDIyWSezOGuCr8wh1iEcCN4ZVe6GUEs26dyfKBcJjJnmvTYxQo7TpG4CTrAhZN_DrctBTunRjYrVXbvgvOnkMp31P5gcfb-vmZpcnXMO1rb3iBIExtPLQdNRSgMaQahbmEnuZppqJrFigdDxoiTndIBMkh4KqU8wHMpWeAt454cm0K8VfD0yb17v50prkBsPYyYmNiSSDMob6vNFKcOVChSvBIyJbQNPI8pGHRP3lqWXLy15YuKR8A9Vf92jxMkWi_dR3wedhKKH2b8-S0T3JSOBE_-CLRTalMhcD0CiEiRL9FulXPqOj-kzrXOKaugvFR1jnNx_yEd3fpycTYpXRUbPfy9SOi-gOwMyqDc3KhoVc4XbJxUUsHVQae6odG5VXA0mSBGGFY5Vk5sffvlT0l50s49r-d_iF1F7dC5XWIbEeCTSDk2mJfheQF4gyl1gJdF7FdnBaduBjCH_tyhnuZdzVj3hbLxVSzbIkK6K_nVa3lwx0Khr1YWXflqP76JzGTqalKmNYLkR4b3d2S6a8LfCtY-UOeHZ07bcDj5uC_TBlL7ev6ToSrsAHSuSqNDUnCwe2JCPLe7_ROr1HnsvJrJa15GDjJ-cAKYAuo4DcOopwJPnAtghu-uAtZecTs5q34WcBKE9lFMZns-C-PkaqOOApGfgdjugQQj-hEMjJMPAd58np2LEoZlB7lUotZF17MSev14dgVMgwZqUGX8Q77Bf-CIPA6oCorkZqNVexSGBin5UsVEU-2UTZiFR_v-XpARNpzCUj63zYyLJjkDInLSzVhYFDr5y_SEdVZ6WN-wdpoFpsTcIANXafqYcuqD_4m8bV3Is4NoqVv_fsgA0riBpUHXF9oSJCHne5WFyDOaOi4CYJf6CCeQRKuaOmMzA17OvAvuhrEw0gO5PRRwnCYEBU7bU-qCiM_hBglQRT527WtO0HE3P6Olvm-CBuiYEtU2EvG-mm4N6W1cBb_F9dOScuk9PEZAEOI0GVmtDWQDyN-FzZmh4zgVBRGnzOMQ96x75U9SuosVKX2SEasFPFClFVqIEWBFl2FcG363ozny0]--></g></svg>