<?xml version="1.0" encoding="us-ascii" standalone="no"?><svg xmlns="http://www.w3.org/2000/svg" xmlns:xlink="http://www.w3.org/1999/xlink" contentStyleType="text/css" height="703px" preserveAspectRatio="none" style="width:1546px;height:703px;background:#FFFFFF;" version="1.1" viewBox="0 0 1546 703" width="1546px" zoomAndPan="magnify"><defs/><g><!--cluster User Aggregate--><g id="cluster_User Aggregate"><rect fill="none" height="318" rx="2.5" ry="2.5" style="stroke:#000000;stroke-width:1.5;" width="423" x="490" y="7"/><text fill="#000000" font-family="sans-serif" font-size="14" font-weight="bold" lengthAdjust="spacing" textLength="110" x="646.5" y="23.5332">User Aggregate</text></g><!--cluster Patient Aggregate--><g id="cluster_Patient Aggregate"><rect fill="none" height="322" rx="2.5" ry="2.5" style="stroke:#000000;stroke-width:1.5;" width="1533" x="7" y="375"/><text fill="#000000" font-family="sans-serif" font-size="14" font-weight="bold" lengthAdjust="spacing" textLength="126" x="710.5" y="391.5332">Patient Aggregate</text></g><!--class User--><g id="elem_User"><rect codeLine="34" fill="#FFFACD" height="65.7969" id="User" rx="2.5" ry="2.5" style="stroke:#8B4513;stroke-width:0.5;" width="45" x="694.5" y="243"/><text fill="#000000" font-family="sans-serif" font-size="12" font-style="italic" lengthAdjust="spacing" textLength="43" x="695.5" y="260.457">&#171;entity&#187;</text><text fill="#000000" font-family="sans-serif" font-size="12" font-style="italic" lengthAdjust="spacing" textLength="35" x="699.5" y="275.5508">&#171;root&#187;</text><text fill="#000000" font-family="sans-serif" font-size="14" lengthAdjust="spacing" textLength="29" x="702.5" y="292.7207">User</text><line style="stroke:#8B4513;stroke-width:0.5;" x1="695.5" x2="738.5" y1="300.7969" y2="300.7969"/></g><!--entity Username--><g id="elem_Username"><rect fill="#FFFACD" height="41.2188" rx="2.5" ry="2.5" style="stroke:#8B4513;stroke-width:0.5;" width="117" x="506.5" y="92"/><text fill="#000000" font-family="sans-serif" font-size="14" font-style="italic" lengthAdjust="spacing" textLength="97" x="516.5" y="109.5332">&#171;Value Object&#187;</text><text fill="#000000" font-family="sans-serif" font-size="14" lengthAdjust="spacing" textLength="64" x="533" y="127.1426">Username</text></g><!--entity Email--><g id="elem_Email"><rect fill="#FFFACD" height="41.2188" rx="2.5" ry="2.5" style="stroke:#8B4513;stroke-width:0.5;" width="117" x="658.5" y="92"/><text fill="#000000" font-family="sans-serif" font-size="14" font-style="italic" lengthAdjust="spacing" textLength="97" x="668.5" y="109.5332">&#171;Value Object&#187;</text><text fill="#000000" font-family="sans-serif" font-size="14" lengthAdjust="spacing" textLength="34" x="700" y="127.1426">Email</text></g><!--class Role--><g id="elem_Role"><rect codeLine="40" fill="#FFFACD" height="138.75" id="Role" rx="2.5" ry="2.5" style="stroke:#8B4513;stroke-width:0.5;" width="86" x="811" y="43"/><text fill="#000000" font-family="sans-serif" font-size="12" font-style="italic" lengthAdjust="spacing" textLength="84" x="812" y="60.457">&#171;enumeration&#187;</text><text fill="#000000" font-family="sans-serif" font-size="14" lengthAdjust="spacing" textLength="29" x="839.5" y="77.627">Role</text><line style="stroke:#8B4513;stroke-width:0.5;" x1="812" x2="896" y1="85.7031" y2="85.7031"/><text fill="#000000" font-family="sans-serif" font-size="14" lengthAdjust="spacing" textLength="39" x="817" y="104.2363">Admin</text><text fill="#000000" font-family="sans-serif" font-size="14" lengthAdjust="spacing" textLength="42" x="817" y="121.8457">Doctor</text><text fill="#000000" font-family="sans-serif" font-size="14" lengthAdjust="spacing" textLength="37" x="817" y="139.4551">Nurse</text><text fill="#000000" font-family="sans-serif" font-size="14" lengthAdjust="spacing" textLength="69" x="817" y="157.0645">Technician</text><text fill="#000000" font-family="sans-serif" font-size="14" lengthAdjust="spacing" textLength="44" x="817" y="174.6738">Patient</text></g><!--class Patient--><g id="elem_Patient"><rect codeLine="59" fill="#FFFACD" height="65.7969" id="Patient" rx="2.5" ry="2.5" style="stroke:#8B4513;stroke-width:0.5;" width="50" x="692" y="411"/><text fill="#000000" font-family="sans-serif" font-size="12" font-style="italic" lengthAdjust="spacing" textLength="43" x="695.5" y="428.457">&#171;entity&#187;</text><text fill="#000000" font-family="sans-serif" font-size="12" font-style="italic" lengthAdjust="spacing" textLength="35" x="699.5" y="443.5508">&#171;root&#187;</text><text fill="#000000" font-family="sans-serif" font-size="14" lengthAdjust="spacing" textLength="44" x="695" y="460.7207">Patient</text><line style="stroke:#8B4513;stroke-width:0.5;" x1="693" x2="741" y1="468.7969" y2="468.7969"/></g><!--entity PatientFirstName--><g id="elem_PatientFirstName"><rect fill="#FFFACD" height="41.2188" rx="2.5" ry="2.5" style="stroke:#8B4513;stroke-width:0.5;" width="128" x="23" y="538"/><text fill="#000000" font-family="sans-serif" font-size="14" font-style="italic" lengthAdjust="spacing" textLength="97" x="38.5" y="555.5332">&#171;Value Object&#187;</text><text fill="#000000" font-family="sans-serif" font-size="14" lengthAdjust="spacing" textLength="108" x="33" y="573.1426">PatientFirstName</text></g><!--entity PatientLastName--><g id="elem_PatientLastName"><rect fill="#FFFACD" height="41.2188" rx="2.5" ry="2.5" style="stroke:#8B4513;stroke-width:0.5;" width="127" x="186.5" y="538"/><text fill="#000000" font-family="sans-serif" font-size="14" font-style="italic" lengthAdjust="spacing" textLength="97" x="201.5" y="555.5332">&#171;Value Object&#187;</text><text fill="#000000" font-family="sans-serif" font-size="14" lengthAdjust="spacing" textLength="107" x="196.5" y="573.1426">PatientLastName</text></g><!--entity PatientFullName--><g id="elem_PatientFullName"><rect fill="#FFFACD" height="41.2188" rx="2.5" ry="2.5" style="stroke:#8B4513;stroke-width:0.5;" width="123" x="348.5" y="538"/><text fill="#000000" font-family="sans-serif" font-size="14" font-style="italic" lengthAdjust="spacing" textLength="97" x="361.5" y="555.5332">&#171;Value Object&#187;</text><text fill="#000000" font-family="sans-serif" font-size="14" lengthAdjust="spacing" textLength="103" x="358.5" y="573.1426">PatientFullName</text></g><!--entity DateOfBirth--><g id="elem_DateOfBirth"><rect fill="#FFFACD" height="41.2188" rx="2.5" ry="2.5" style="stroke:#8B4513;stroke-width:0.5;" width="117" x="506.5" y="538"/><text fill="#000000" font-family="sans-serif" font-size="14" font-style="italic" lengthAdjust="spacing" textLength="97" x="516.5" y="555.5332">&#171;Value Object&#187;</text><text fill="#000000" font-family="sans-serif" font-size="14" lengthAdjust="spacing" textLength="74" x="528" y="573.1426">DateOfBirth</text></g><!--entity Gender--><g id="elem_Gender"><rect fill="#FFFACD" height="41.2188" rx="2.5" ry="2.5" style="stroke:#8B4513;stroke-width:0.5;" width="117" x="658.5" y="538"/><text fill="#000000" font-family="sans-serif" font-size="14" font-style="italic" lengthAdjust="spacing" textLength="97" x="668.5" y="555.5332">&#171;Value Object&#187;</text><text fill="#000000" font-family="sans-serif" font-size="14" lengthAdjust="spacing" textLength="48" x="693" y="573.1426">Gender</text></g><!--entity MedicalRecordNumber--><g id="elem_MedicalRecordNumber"><rect fill="#FFFACD" height="41.2188" rx="2.5" ry="2.5" style="stroke:#8B4513;stroke-width:0.5;" width="163" x="810.5" y="538"/><text fill="#000000" font-family="sans-serif" font-size="14" font-style="italic" lengthAdjust="spacing" textLength="97" x="843.5" y="555.5332">&#171;Value Object&#187;</text><text fill="#000000" font-family="sans-serif" font-size="14" lengthAdjust="spacing" textLength="143" x="820.5" y="573.1426">MedicalRecordNumber</text></g><!--entity ContactInformation--><g id="elem_ContactInformation"><rect fill="#FFFACD" height="41.2188" rx="2.5" ry="2.5" style="stroke:#8B4513;stroke-width:0.5;" width="139" x="1008.5" y="538"/><text fill="#000000" font-family="sans-serif" font-size="14" font-style="italic" lengthAdjust="spacing" textLength="97" x="1029.5" y="555.5332">&#171;Value Object&#187;</text><text fill="#000000" font-family="sans-serif" font-size="14" lengthAdjust="spacing" textLength="119" x="1018.5" y="573.1426">ContactInformation</text></g><!--entity AllergiesAndConditions--><g id="elem_AllergiesAndConditions"><rect fill="#FFFACD" height="41.2188" rx="2.5" ry="2.5" style="stroke:#8B4513;stroke-width:0.5;" width="166" x="1183" y="538"/><text fill="#000000" font-family="sans-serif" font-size="14" font-style="italic" lengthAdjust="spacing" textLength="97" x="1217.5" y="555.5332">&#171;Value Object&#187;</text><text fill="#000000" font-family="sans-serif" font-size="14" lengthAdjust="spacing" textLength="146" x="1193" y="573.1426">AllergiesAndConditions</text></g><!--entity EmergencyContact--><g id="elem_EmergencyContact"><rect fill="#FFFACD" height="41.2188" rx="2.5" ry="2.5" style="stroke:#8B4513;stroke-width:0.5;" width="140" x="1384" y="538"/><text fill="#000000" font-family="sans-serif" font-size="14" font-style="italic" lengthAdjust="spacing" textLength="97" x="1405.5" y="555.5332">&#171;Value Object&#187;</text><text fill="#000000" font-family="sans-serif" font-size="14" lengthAdjust="spacing" textLength="120" x="1394" y="573.1426">EmergencyContact</text></g><!--entity PatientEmail--><g id="elem_PatientEmail"><rect fill="#FFFACD" height="41.2188" rx="2.5" ry="2.5" style="stroke:#8B4513;stroke-width:0.5;" width="117" x="961.5" y="640"/><text fill="#000000" font-family="sans-serif" font-size="14" font-style="italic" lengthAdjust="spacing" textLength="97" x="971.5" y="657.5332">&#171;Value Object&#187;</text><text fill="#000000" font-family="sans-serif" font-size="14" lengthAdjust="spacing" textLength="78" x="981" y="675.1426">PatientEmail</text></g><!--entity PhoneNumber--><g id="elem_PhoneNumber"><rect fill="#FFFACD" height="41.2188" rx="2.5" ry="2.5" style="stroke:#8B4513;stroke-width:0.5;" width="117" x="1113.5" y="640"/><text fill="#000000" font-family="sans-serif" font-size="14" font-style="italic" lengthAdjust="spacing" textLength="97" x="1123.5" y="657.5332">&#171;Value Object&#187;</text><text fill="#000000" font-family="sans-serif" font-size="14" lengthAdjust="spacing" textLength="90" x="1127" y="675.1426">PhoneNumber</text></g><!--reverse link Username to User--><g id="link_Username_User"><path codeLine="50" d="M587.7517,137.6696 C615.6517,167.3196 664.11,218.81 694.24,250.82 " fill="none" id="Username-backto-User" style="stroke:#A52A2A;stroke-width:1.0;"/><polygon fill="#A52A2A" points="583.64,133.3,586.8945,142.5956,587.0664,136.9414,592.7207,137.1133,583.64,133.3" style="stroke:#A52A2A;stroke-width:1.0;"/><text fill="#000000" font-family="sans-serif" font-size="13" lengthAdjust="spacing" textLength="7" x="580.7089" y="154.553">1</text><text fill="#000000" font-family="sans-serif" font-size="13" lengthAdjust="spacing" textLength="7" x="679.5261" y="238.65">1</text></g><!--reverse link Email to User--><g id="link_Email_User"><path codeLine="51" d="M717,139.3 C717,166.59 717,210.09 717,242.75 " fill="none" id="Email-backto-User" style="stroke:#A52A2A;stroke-width:1.0;"/><polygon fill="#A52A2A" points="717,133.3,713,142.3,717,138.3,721,142.3,717,133.3" style="stroke:#A52A2A;stroke-width:1.0;"/><text fill="#000000" font-family="sans-serif" font-size="13" lengthAdjust="spacing" textLength="7" x="709.0594" y="154.553">1</text><text fill="#000000" font-family="sans-serif" font-size="13" lengthAdjust="spacing" textLength="7" x="709.3109" y="232.1786">1</text></g><!--reverse link Role to User--><g id="link_Role_User"><path codeLine="52" d="M806.7681,169.1751 C783.2481,196.8951 759.02,225.46 739.78,248.15 " fill="none" id="Role-backto-User" style="stroke:#A52A2A;stroke-width:1.0;"/><polygon fill="#A52A2A" points="810.65,164.6,801.7772,168.8747,807.4151,168.4125,807.8772,174.0505,810.65,164.6" style="stroke:#A52A2A;stroke-width:1.0;"/><text fill="#000000" font-family="sans-serif" font-size="13" lengthAdjust="spacing" textLength="7" x="795.8905" y="169.449">1</text><text fill="#000000" font-family="sans-serif" font-size="13" lengthAdjust="spacing" textLength="7" x="747.4998" y="235.1956">1</text></g><!--link ContactInformation to PatientEmail--><g id="link_ContactInformation_PatientEmail"><path codeLine="78" d="M1066.54,579.26 C1056.37,596.79 1044.6112,617.0804 1034.4512,634.5904 " fill="none" id="ContactInformation-to-PatientEmail" style="stroke:#A52A2A;stroke-width:1.0;"/><polygon fill="#A52A2A" points="1031.44,639.78,1039.4166,634.003,1033.9494,635.4553,1032.4971,629.988,1031.44,639.78" style="stroke:#A52A2A;stroke-width:1.0;"/><text fill="#000000" font-family="sans-serif" font-size="13" lengthAdjust="spacing" textLength="7" x="1055.3325" y="600.8625">1</text><text fill="#000000" font-family="sans-serif" font-size="13" lengthAdjust="spacing" textLength="7" x="1026.6731" y="629.2163">1</text></g><!--link ContactInformation to PhoneNumber--><g id="link_ContactInformation_PhoneNumber"><path codeLine="79" d="M1096.57,579.26 C1113.05,596.79 1132.8891,617.8996 1149.3591,635.4096 " fill="none" id="ContactInformation-to-PhoneNumber" style="stroke:#A52A2A;stroke-width:1.0;"/><polygon fill="#A52A2A" points="1153.47,639.78,1150.2173,630.4838,1150.0443,636.138,1144.3901,635.9649,1153.47,639.78" style="stroke:#A52A2A;stroke-width:1.0;"/><text fill="#000000" font-family="sans-serif" font-size="13" lengthAdjust="spacing" textLength="7" x="1093.8084" y="600.8625">1</text><text fill="#000000" font-family="sans-serif" font-size="13" lengthAdjust="spacing" textLength="7" x="1140.2741" y="629.2163">1</text></g><!--link Patient to PatientFirstName--><g id="link_Patient_PatientFirstName"><path codeLine="82" d="M691.77,448.68 C613.72,460.2 369.47,497.2 169,538 C163.26,539.17 163.1776,539.1505 157.2276,540.4705 " fill="none" id="Patient-to-PatientFirstName" style="stroke:#A52A2A;stroke-width:1.0;"/><polygon fill="#A52A2A" points="151.37,541.77,161.0227,543.7258,156.2513,540.6871,159.29,535.9157,151.37,541.77" style="stroke:#A52A2A;stroke-width:1.0;"/><text fill="#000000" font-family="sans-serif" font-size="13" lengthAdjust="spacing" textLength="7" x="677.0488" y="445.3574">1</text><text fill="#000000" font-family="sans-serif" font-size="13" lengthAdjust="spacing" textLength="7" x="158.7933" y="536.5675">1</text></g><!--link Patient to PatientLastName--><g id="link_Patient_PatientLastName"><path codeLine="83" d="M691.89,451.05 C621.04,468.12 423.7431,515.6447 319.3931,540.7847 " fill="none" id="Patient-to-PatientLastName" style="stroke:#A52A2A;stroke-width:1.0;"/><polygon fill="#A52A2A" points="313.56,542.19,323.2465,543.9708,318.4209,541.0189,321.3728,536.1933,313.56,542.19" style="stroke:#A52A2A;stroke-width:1.0;"/><text fill="#000000" font-family="sans-serif" font-size="13" lengthAdjust="spacing" textLength="7" x="676.8434" y="468.8559">1</text><text fill="#000000" font-family="sans-serif" font-size="13" lengthAdjust="spacing" textLength="7" x="321.3138" y="536.882">1</text></g><!--link Patient to PatientFullName--><g id="link_Patient_PatientFullName"><path codeLine="84" d="M691.88,454.21 C642.19,472.42 536.0136,511.3255 469.1036,535.8455 " fill="none" id="Patient-to-PatientFullName" style="stroke:#A52A2A;stroke-width:1.0;"/><polygon fill="#A52A2A" points="463.47,537.91,473.2968,538.569,468.1647,536.1896,470.5441,531.0575,463.47,537.91" style="stroke:#A52A2A;stroke-width:1.0;"/><text fill="#000000" font-family="sans-serif" font-size="13" lengthAdjust="spacing" textLength="7" x="677.0576" y="474.2912">1</text><text fill="#000000" font-family="sans-serif" font-size="13" lengthAdjust="spacing" textLength="7" x="471.1487" y="527.0263">1</text></g><!--link Patient to DateOfBirth--><g id="link_Patient_DateOfBirth"><path codeLine="85" d="M691.9,463.58 C664.16,484.11 624.4932,513.4712 596.2332,534.3812 " fill="none" id="Patient-to-DateOfBirth" style="stroke:#A52A2A;stroke-width:1.0;"/><polygon fill="#A52A2A" points="591.41,537.95,601.0241,535.8123,595.4294,534.976,596.2657,529.3813,591.41,537.95" style="stroke:#A52A2A;stroke-width:1.0;"/><text fill="#000000" font-family="sans-serif" font-size="13" lengthAdjust="spacing" textLength="7" x="676.8562" y="484.91">1</text><text fill="#000000" font-family="sans-serif" font-size="13" lengthAdjust="spacing" textLength="7" x="591.1398" y="527.0781">1</text></g><!--link Patient to Gender--><g id="link_Patient_Gender"><path codeLine="86" d="M717,477.24 C717,496.85 717,515.25 717,531.97 " fill="none" id="Patient-to-Gender" style="stroke:#A52A2A;stroke-width:1.0;"/><polygon fill="#A52A2A" points="717,537.97,721,528.97,717,532.97,713,528.97,717,537.97" style="stroke:#A52A2A;stroke-width:1.0;"/><text fill="#000000" font-family="sans-serif" font-size="13" lengthAdjust="spacing" textLength="7" x="709.3547" y="498.3899">1</text><text fill="#000000" font-family="sans-serif" font-size="13" lengthAdjust="spacing" textLength="7" x="708.9719" y="527.1039">1</text></g><!--link Patient to MedicalRecordNumber--><g id="link_Patient_MedicalRecordNumber"><path codeLine="87" d="M742.07,461.12 C773.55,481.35 822.4523,512.7965 856.3323,534.5665 " fill="none" id="Patient-to-MedicalRecordNumber" style="stroke:#A52A2A;stroke-width:1.0;"/><polygon fill="#A52A2A" points="861.38,537.81,855.9707,529.5796,857.1735,535.1071,851.646,536.3099,861.38,537.81" style="stroke:#A52A2A;stroke-width:1.0;"/><text fill="#000000" font-family="sans-serif" font-size="13" lengthAdjust="spacing" textLength="7" x="750.1053" y="481.7581">1</text><text fill="#000000" font-family="sans-serif" font-size="13" lengthAdjust="spacing" textLength="7" x="844.7837" y="527.2547">1</text></g><!--link Patient to ContactInformation--><g id="link_Patient_ContactInformation"><path codeLine="88" d="M742.1,452.82 C798.06,470.26 928.7518,510.9846 1009.4718,536.1446 " fill="none" id="Patient-to-ContactInformation" style="stroke:#A52A2A;stroke-width:1.0;"/><polygon fill="#A52A2A" points="1015.2,537.93,1007.798,531.433,1010.4265,536.4421,1005.4174,539.0706,1015.2,537.93" style="stroke:#A52A2A;stroke-width:1.0;"/><text fill="#000000" font-family="sans-serif" font-size="13" lengthAdjust="spacing" textLength="7" x="750.1438" y="450.6237">1</text><text fill="#000000" font-family="sans-serif" font-size="13" lengthAdjust="spacing" textLength="7" x="993.6969" y="529.19">1</text></g><!--link Patient to AllergiesAndConditions--><g id="link_Patient_AllergiesAndConditions"><path codeLine="89" d="M742.02,450.13 C819.11,465.92 1049.6121,513.1556 1176.8921,539.2356 " fill="none" id="Patient-to-AllergiesAndConditions" style="stroke:#A52A2A;stroke-width:1.0;"/><polygon fill="#A52A2A" points="1182.77,540.44,1174.7561,534.7148,1177.8718,539.4363,1173.1503,542.552,1182.77,540.44" style="stroke:#A52A2A;stroke-width:1.0;"/><text fill="#000000" font-family="sans-serif" font-size="13" lengthAdjust="spacing" textLength="7" x="750.0413" y="467.6772">1</text><text fill="#000000" font-family="sans-serif" font-size="13" lengthAdjust="spacing" textLength="5" x="1169.8668" y="535.5388">*</text></g><!--link Patient to EmergencyContact--><g id="link_Patient_EmergencyContact"><path codeLine="90" d="M742.21,447.89 C829.26,458 1125.08,493.65 1367,538 C1372.48,539 1372.2613,538.9094 1377.9413,540.0694 " fill="none" id="Patient-to-EmergencyContact" style="stroke:#A52A2A;stroke-width:1.0;"/><polygon fill="#A52A2A" points="1383.82,541.27,1375.8024,535.55,1378.9211,540.2695,1374.2016,543.3882,1383.82,541.27" style="stroke:#A52A2A;stroke-width:1.0;"/><text fill="#000000" font-family="sans-serif" font-size="13" lengthAdjust="spacing" textLength="7" x="749.9258" y="444.3551">1</text><text fill="#000000" font-family="sans-serif" font-size="13" lengthAdjust="spacing" textLength="7" x="1369.2218" y="536.1701">1</text></g><!--reverse link User to Patient--><g id="link_User_Patient"><path codeLine="94" d="M717,315.01 C717,344.31 717,381.45 717,410.81 " fill="none" id="User-backto-Patient" style="stroke:#A52A2A;stroke-width:1.0;"/><polygon fill="#A52A2A" points="717,309.01,713,318.01,717,314.01,721,318.01,717,309.01" style="stroke:#A52A2A;stroke-width:1.0;"/><text fill="#000000" font-family="sans-serif" font-size="13" lengthAdjust="spacing" textLength="28" x="718" y="355.4951">edits</text><text fill="#000000" font-family="sans-serif" font-size="13" lengthAdjust="spacing" textLength="7" x="709.3328" y="330.3755">1</text><text fill="#000000" font-family="sans-serif" font-size="13" lengthAdjust="spacing" textLength="7" x="709.3109" y="400.2504">1</text></g><!--SRC=[rPJ1Zjem48RlUGeh5wHAAxNN2aKAx6wBH071jjVAs4CoNSU3R4UKLhnx7IT0Tac0Qxa4PxxC_3F-xHmbC856A8Zowdy1BYTf8wuKxNuM-1jr5aK3-ufwomqlM46QH6we0BRXoa8xjkNYbMUmSdi5p81mN6Vg3M5pBcddSrv-h523ss-1aV4IeYWwXuJYrgRE6LoN3YQ2z0h_0FjumR2_4VE_AMvWwjEDo4WmOr9as2F93Cn8bV0MyP8pGwMMDPOk5jF9E7sPp6U1Un-VWX_0ECVDXdG0KcDeLyT6_b_zibrunQLKKCSERSKzqshtn8ty3rgAcavO_Ds2hvTb1ZBk8FRQmxUW7Rez2z7Xi5uboN1eY5oID1qUQZRqN96QUuiDXp-uxu_Drx_yW9BaZ3mL7DLblAbN5cn92aAriW337P8-bGfDoWBrQVL8mf4vBMUbiN1QlO38DGhaPtxX4_e-si87R0agrB4vRYr3RQi3vNAe6-V7iTHuU1T_YX_AXyG_JYrt1aEpdP6gIxy3XzOcDDhwz-48tBKL3VoCnhhPzIrfq2c_btmkbRf1Fdhzyyq8_PrmXVe2MWPlzG7VGABWQWd2stXM5kkhz9Yquy9Dz8PC4RRq2fmg1IP3i6breBJ4O86hplKyQB5lodIZWphvTakeNU67zHMjj-Y-n_83bjRN8zcZVDRIVp7wdkDpndBIq3UeJh_tLUqOPkNVshvjDNVGPr4tpzpHvETZrpgtbmfE_hwE7Rrz8rdZwnwgvUaEedeqXkxvliFCVNaknzb9VeXxRDoNzxs7mmtKubXrFp5slDZOPnPxqSx6qJy0]--></g></svg>