<?xml version="1.0" encoding="us-ascii" standalone="no"?><svg xmlns="http://www.w3.org/2000/svg" xmlns:xlink="http://www.w3.org/1999/xlink" contentStyleType="text/css" height="517px" preserveAspectRatio="none" style="width:1067px;height:517px;background:#FFFFFF;" version="1.1" viewBox="0 0 1067 517" width="1067px" zoomAndPan="magnify"><defs/><g><text fill="#000000" font-family="sans-serif" font-size="14" font-weight="bold" lengthAdjust="spacing" textLength="100" x="476.5" y="24.5332">Domain Model</text><!--cluster Patient Aggregate--><g id="cluster_Patient Aggregate"><rect fill="none" height="466" rx="2.5" ry="2.5" style="stroke:#000000;stroke-width:1.5;" width="1054" x="7" y="45.6094"/><text fill="#000000" font-family="sans-serif" font-size="14" font-weight="bold" lengthAdjust="spacing" textLength="126" x="471" y="62.1426">Patient Aggregate</text></g><!--class Patient--><g id="elem_Patient"><rect codeLine="40" fill="#FFFACD" height="65.7969" id="Patient" rx="2.5" ry="2.5" style="stroke:#8B4513;stroke-width:0.5;" width="50" x="556" y="227.6094"/><text fill="#000000" font-family="sans-serif" font-size="12" font-style="italic" lengthAdjust="spacing" textLength="43" x="559.5" y="245.0664">&#171;entity&#187;</text><text fill="#000000" font-family="sans-serif" font-size="12" font-style="italic" lengthAdjust="spacing" textLength="35" x="563.5" y="260.1602">&#171;root&#187;</text><text fill="#000000" font-family="sans-serif" font-size="14" lengthAdjust="spacing" textLength="44" x="559" y="277.3301">Patient</text><line style="stroke:#8B4513;stroke-width:0.5;" x1="557" x2="605" y1="285.4063" y2="285.4063"/></g><!--entity PatientFirstName--><g id="elem_PatientFirstName"><rect fill="#FFFACD" height="41.2188" rx="2.5" ry="2.5" style="stroke:#8B4513;stroke-width:0.5;" width="128" x="194" y="104.1094"/><text fill="#000000" font-family="sans-serif" font-size="14" font-style="italic" lengthAdjust="spacing" textLength="97" x="209.5" y="121.6426">&#171;Value Object&#187;</text><text fill="#000000" font-family="sans-serif" font-size="14" lengthAdjust="spacing" textLength="108" x="204" y="139.252">PatientFirstName</text></g><!--entity PatientLastName--><g id="elem_PatientLastName"><rect fill="#FFFACD" height="41.2188" rx="2.5" ry="2.5" style="stroke:#8B4513;stroke-width:0.5;" width="127" x="357.5" y="104.1094"/><text fill="#000000" font-family="sans-serif" font-size="14" font-style="italic" lengthAdjust="spacing" textLength="97" x="372.5" y="121.6426">&#171;Value Object&#187;</text><text fill="#000000" font-family="sans-serif" font-size="14" lengthAdjust="spacing" textLength="107" x="367.5" y="139.252">PatientLastName</text></g><!--entity PatientFullName--><g id="elem_PatientFullName"><rect fill="#FFFACD" height="41.2188" rx="2.5" ry="2.5" style="stroke:#8B4513;stroke-width:0.5;" width="123" x="519.5" y="104.1094"/><text fill="#000000" font-family="sans-serif" font-size="14" font-style="italic" lengthAdjust="spacing" textLength="97" x="532.5" y="121.6426">&#171;Value Object&#187;</text><text fill="#000000" font-family="sans-serif" font-size="14" lengthAdjust="spacing" textLength="103" x="529.5" y="139.252">PatientFullName</text></g><!--entity DateOfBirth--><g id="elem_DateOfBirth"><rect fill="#FFFACD" height="41.2188" rx="2.5" ry="2.5" style="stroke:#8B4513;stroke-width:0.5;" width="117" x="677.5" y="104.1094"/><text fill="#000000" font-family="sans-serif" font-size="14" font-style="italic" lengthAdjust="spacing" textLength="97" x="687.5" y="121.6426">&#171;Value Object&#187;</text><text fill="#000000" font-family="sans-serif" font-size="14" lengthAdjust="spacing" textLength="74" x="699" y="139.252">DateOfBirth</text></g><!--class Gender--><g id="elem_Gender"><rect codeLine="47" fill="#FFFACD" height="85.9219" id="Gender" rx="2.5" ry="2.5" style="stroke:#8B4513;stroke-width:0.5;" width="86" x="830" y="81.6094"/><text fill="#000000" font-family="sans-serif" font-size="12" font-style="italic" lengthAdjust="spacing" textLength="84" x="831" y="99.0664">&#171;enumeration&#187;</text><text fill="#000000" font-family="sans-serif" font-size="14" lengthAdjust="spacing" textLength="48" x="849" y="116.2363">Gender</text><line style="stroke:#8B4513;stroke-width:0.5;" x1="831" x2="915" y1="124.3125" y2="124.3125"/><text fill="#000000" font-family="sans-serif" font-size="14" lengthAdjust="spacing" textLength="30" x="836" y="142.8457">Male</text><text fill="#000000" font-family="sans-serif" font-size="14" lengthAdjust="spacing" textLength="47" x="836" y="160.4551">Female</text></g><!--entity MedicalRecordNumber--><g id="elem_MedicalRecordNumber"><rect fill="#FFFACD" height="41.2188" rx="2.5" ry="2.5" style="stroke:#8B4513;stroke-width:0.5;" width="163" x="23.5" y="353.6094"/><text fill="#000000" font-family="sans-serif" font-size="14" font-style="italic" lengthAdjust="spacing" textLength="97" x="56.5" y="371.1426">&#171;Value Object&#187;</text><text fill="#000000" font-family="sans-serif" font-size="14" lengthAdjust="spacing" textLength="143" x="33.5" y="388.752">MedicalRecordNumber</text></g><!--entity AllergiesAndConditions--><g id="elem_AllergiesAndConditions"><rect fill="#FFFACD" height="41.2188" rx="2.5" ry="2.5" style="stroke:#8B4513;stroke-width:0.5;" width="166" x="222" y="353.6094"/><text fill="#000000" font-family="sans-serif" font-size="14" font-style="italic" lengthAdjust="spacing" textLength="97" x="256.5" y="371.1426">&#171;Value Object&#187;</text><text fill="#000000" font-family="sans-serif" font-size="14" lengthAdjust="spacing" textLength="146" x="232" y="388.752">AllergiesAndConditions</text></g><!--entity EmergencyContact--><g id="elem_EmergencyContact"><rect fill="#FFFACD" height="41.2188" rx="2.5" ry="2.5" style="stroke:#8B4513;stroke-width:0.5;" width="140" x="423" y="353.6094"/><text fill="#000000" font-family="sans-serif" font-size="14" font-style="italic" lengthAdjust="spacing" textLength="97" x="444.5" y="371.1426">&#171;Value Object&#187;</text><text fill="#000000" font-family="sans-serif" font-size="14" lengthAdjust="spacing" textLength="120" x="433" y="388.752">EmergencyContact</text></g><!--entity AppointmentHistory--><g id="elem_AppointmentHistory"><rect fill="#FFFACD" height="41.2188" rx="2.5" ry="2.5" style="stroke:#8B4513;stroke-width:0.5;" width="142" x="598" y="353.6094"/><text fill="#000000" font-family="sans-serif" font-size="14" font-style="italic" lengthAdjust="spacing" textLength="97" x="620.5" y="371.1426">&#171;Value Object&#187;</text><text fill="#000000" font-family="sans-serif" font-size="14" lengthAdjust="spacing" textLength="122" x="608" y="388.752">AppointmentHistory</text></g><!--entity PatientEmail--><g id="elem_PatientEmail"><rect fill="#FFFACD" height="41.2188" rx="2.5" ry="2.5" style="stroke:#8B4513;stroke-width:0.5;" width="117" x="775.5" y="353.6094"/><text fill="#000000" font-family="sans-serif" font-size="14" font-style="italic" lengthAdjust="spacing" textLength="97" x="785.5" y="371.1426">&#171;Value Object&#187;</text><text fill="#000000" font-family="sans-serif" font-size="14" lengthAdjust="spacing" textLength="78" x="795" y="388.752">PatientEmail</text></g><!--entity PhoneNumber--><g id="elem_PhoneNumber"><rect fill="#FFFACD" height="41.2188" rx="2.5" ry="2.5" style="stroke:#8B4513;stroke-width:0.5;" width="117" x="927.5" y="353.6094"/><text fill="#000000" font-family="sans-serif" font-size="14" font-style="italic" lengthAdjust="spacing" textLength="97" x="937.5" y="371.1426">&#171;Value Object&#187;</text><text fill="#000000" font-family="sans-serif" font-size="14" lengthAdjust="spacing" textLength="90" x="941" y="388.752">PhoneNumber</text></g><!--entity AppointmentId--><g id="elem_AppointmentId"><rect fill="#FFFACD" height="41.2188" rx="2.5" ry="2.5" style="stroke:#8B4513;stroke-width:0.5;" width="117" x="610.5" y="454.6094"/><text fill="#000000" font-family="sans-serif" font-size="14" font-style="italic" lengthAdjust="spacing" textLength="97" x="620.5" y="472.1426">&#171;Value Object&#187;</text><text fill="#000000" font-family="sans-serif" font-size="14" lengthAdjust="spacing" textLength="90" x="624" y="489.752">AppointmentId</text></g><!--link AppointmentHistory to AppointmentId--><g id="link_AppointmentHistory_AppointmentId"><path codeLine="66" d="M669,394.6694 C669,412.0294 669,431.2494 669,448.5894 " fill="none" id="AppointmentHistory-to-AppointmentId" style="stroke:#A52A2A;stroke-width:1.0;"/><polygon fill="#A52A2A" points="669,454.5894,673,445.5894,669,449.5894,665,445.5894,669,454.5894" style="stroke:#A52A2A;stroke-width:1.0;"/><text fill="#000000" font-family="sans-serif" font-size="13" lengthAdjust="spacing" textLength="7" x="661.0156" y="416.2157">1</text><text fill="#000000" font-family="sans-serif" font-size="13" lengthAdjust="spacing" textLength="5" x="663.2656" y="443.7262">*</text></g><!--reverse link PatientFirstName to Patient--><g id="link_PatientFirstName_Patient"><path codeLine="70" d="M299.6405,148.0628 C313.7405,155.4128 324.8,160.8394 340,167.6094 C417.12,201.9594 511.33,235.5994 555.65,250.9594 " fill="none" id="PatientFirstName-backto-Patient" style="stroke:#A52A2A;stroke-width:1.0;"/><polygon fill="#A52A2A" points="294.32,145.2894,300.4518,152.9966,298.7538,147.6006,304.1498,145.9026,294.32,145.2894" style="stroke:#A52A2A;stroke-width:1.0;"/><text fill="#000000" font-family="sans-serif" font-size="13" lengthAdjust="spacing" textLength="7" x="296.5506" y="166.8694">1</text><text fill="#000000" font-family="sans-serif" font-size="13" lengthAdjust="spacing" textLength="7" x="540.8966" y="264.0856">1</text></g><!--reverse link PatientLastName to Patient--><g id="link_PatientLastName_Patient"><path codeLine="71" d="M449.2096,149.2322 C479.0196,174.2022 525.5,213.1294 555.98,238.6494 " fill="none" id="PatientLastName-backto-Patient" style="stroke:#A52A2A;stroke-width:1.0;"/><polygon fill="#A52A2A" points="444.61,145.3794,448.9408,154.2249,448.443,148.59,454.0779,148.0922,444.61,145.3794" style="stroke:#A52A2A;stroke-width:1.0;"/><text fill="#000000" font-family="sans-serif" font-size="13" lengthAdjust="spacing" textLength="7" x="443.2659" y="166.9847">1</text><text fill="#000000" font-family="sans-serif" font-size="13" lengthAdjust="spacing" textLength="7" x="540.9588" y="227.7962">1</text></g><!--reverse link PatientFullName to Patient--><g id="link_PatientFullName_Patient"><path codeLine="72" d="M581,151.3794 C581,172.9994 581,201.9794 581,227.5394 " fill="none" id="PatientFullName-backto-Patient" style="stroke:#A52A2A;stroke-width:1.0;"/><polygon fill="#A52A2A" points="581,145.3794,577,154.3794,581,150.3794,585,154.3794,581,145.3794" style="stroke:#A52A2A;stroke-width:1.0;"/><text fill="#000000" font-family="sans-serif" font-size="13" lengthAdjust="spacing" textLength="7" x="573.0156" y="166.9847">1</text><text fill="#000000" font-family="sans-serif" font-size="13" lengthAdjust="spacing" textLength="7" x="573.2781" y="216.621">1</text></g><!--reverse link DateOfBirth to Patient--><g id="link_DateOfBirth_Patient"><path codeLine="73" d="M708.591,149.3033 C679.961,174.0533 635.63,212.3794 606.02,237.9794 " fill="none" id="DateOfBirth-backto-Patient" style="stroke:#A52A2A;stroke-width:1.0;"/><polygon fill="#A52A2A" points="713.13,145.3794,703.7055,148.2392,709.3475,148.6493,708.9374,154.2913,713.13,145.3794" style="stroke:#A52A2A;stroke-width:1.0;"/><text fill="#000000" font-family="sans-serif" font-size="13" lengthAdjust="spacing" textLength="7" x="698.7134" y="166.9847">1</text><text fill="#000000" font-family="sans-serif" font-size="13" lengthAdjust="spacing" textLength="7" x="614.0413" y="226.9378">1</text></g><!--reverse link Gender to Patient--><g id="link_Gender_Patient"><path codeLine="74" d="M824.7048,160.3412 C818.8548,164.0812 817.9,164.4594 812,167.6094 C740.43,205.8794 649.4,237.5494 606.09,251.6794 " fill="none" id="Gender-backto-Patient" style="stroke:#A52A2A;stroke-width:1.0;"/><polygon fill="#A52A2A" points="829.76,157.1094,820.0226,158.587,825.5473,159.8026,824.3318,165.3273,829.76,157.1094" style="stroke:#A52A2A;stroke-width:1.0;"/><text fill="#000000" font-family="sans-serif" font-size="13" lengthAdjust="spacing" textLength="7" x="815.0187" y="158.6979">1</text><text fill="#000000" font-family="sans-serif" font-size="13" lengthAdjust="spacing" textLength="7" x="614.1309" y="244.4909">1</text></g><!--link Patient to MedicalRecordNumber--><g id="link_Patient_MedicalRecordNumber"><path codeLine="75" d="M555.74,267.5294 C487.51,283.5094 303.052,326.7213 192.752,352.5513 " fill="none" id="Patient-to-MedicalRecordNumber" style="stroke:#A52A2A;stroke-width:1.0;"/><polygon fill="#A52A2A" points="186.91,353.9194,196.585,355.7619,191.7783,352.7793,194.7609,347.9726,186.91,353.9194" style="stroke:#A52A2A;stroke-width:1.0;"/><text fill="#000000" font-family="sans-serif" font-size="13" lengthAdjust="spacing" textLength="7" x="541.0108" y="285.1088">1</text><text fill="#000000" font-family="sans-serif" font-size="13" lengthAdjust="spacing" textLength="7" x="194.5168" y="348.9097">1</text></g><!--link Patient to AllergiesAndConditions--><g id="link_Patient_AllergiesAndConditions"><path codeLine="76" d="M555.53,271.8994 C509.62,290.4494 417.8733,327.5122 358.9533,351.3122 " fill="none" id="Patient-to-AllergiesAndConditions" style="stroke:#A52A2A;stroke-width:1.0;"/><polygon fill="#A52A2A" points="353.39,353.5594,363.2331,353.8974,358.0261,351.6867,360.2368,346.4797,353.39,353.5594" style="stroke:#A52A2A;stroke-width:1.0;"/><text fill="#000000" font-family="sans-serif" font-size="13" lengthAdjust="spacing" textLength="7" x="540.9231" y="292.1208">1</text><text fill="#000000" font-family="sans-serif" font-size="13" lengthAdjust="spacing" textLength="5" x="361.8702" y="342.6874">*</text></g><!--link Patient to EmergencyContact--><g id="link_Patient_EmergencyContact"><path codeLine="77" d="M555.78,293.5594 C540.55,312.8694 525.3272,332.1496 512.2572,348.7096 " fill="none" id="Patient-to-EmergencyContact" style="stroke:#A52A2A;stroke-width:1.0;"/><polygon fill="#A52A2A" points="508.54,353.4194,517.2557,348.8328,511.6377,349.4945,510.976,343.8765,508.54,353.4194" style="stroke:#A52A2A;stroke-width:1.0;"/><text fill="#000000" font-family="sans-serif" font-size="13" lengthAdjust="spacing" textLength="7" x="543.3053" y="314.9135">1</text><text fill="#000000" font-family="sans-serif" font-size="13" lengthAdjust="spacing" textLength="7" x="504.9263" y="342.8641">1</text></g><!--link Patient to AppointmentHistory--><g id="link_Patient_AppointmentHistory"><path codeLine="78" d="M606.22,293.5594 C621.45,312.8694 636.6728,332.1496 649.7428,348.7096 " fill="none" id="Patient-to-AppointmentHistory" style="stroke:#A52A2A;stroke-width:1.0;"/><polygon fill="#A52A2A" points="653.46,353.4194,651.024,343.8765,650.3623,349.4945,644.7443,348.8328,653.46,353.4194" style="stroke:#A52A2A;stroke-width:1.0;"/><text fill="#000000" font-family="sans-serif" font-size="13" lengthAdjust="spacing" textLength="7" x="603.3604" y="314.9135">1</text><text fill="#000000" font-family="sans-serif" font-size="13" lengthAdjust="spacing" textLength="7" x="641.105" y="342.8641">1</text></g><!--link Patient to PatientEmail--><g id="link_Patient_PatientEmail"><path codeLine="79" d="M606.18,272.7094 C648.93,291.5494 730.7293,327.6004 783.9793,351.0604 " fill="none" id="Patient-to-PatientEmail" style="stroke:#A52A2A;stroke-width:1.0;"/><polygon fill="#A52A2A" points="789.47,353.4794,782.8466,346.1903,784.8944,351.4635,779.6212,353.5113,789.47,353.4794" style="stroke:#A52A2A;stroke-width:1.0;"/><text fill="#000000" font-family="sans-serif" font-size="13" lengthAdjust="spacing" textLength="7" x="613.8878" y="271.3809">1</text><text fill="#000000" font-family="sans-serif" font-size="13" lengthAdjust="spacing" textLength="7" x="768.3612" y="342.5839">1</text></g><!--link Patient to PhoneNumber--><g id="link_Patient_PhoneNumber"><path codeLine="80" d="M606.03,268.4994 C669.41,285.9494 831.7754,330.6463 921.6454,355.3963 " fill="none" id="Patient-to-PhoneNumber" style="stroke:#A52A2A;stroke-width:1.0;"/><polygon fill="#A52A2A" points="927.43,356.9894,919.8151,350.7433,922.6095,355.6618,917.691,358.4562,927.43,356.9894" style="stroke:#A52A2A;stroke-width:1.0;"/><text fill="#000000" font-family="sans-serif" font-size="13" lengthAdjust="spacing" textLength="7" x="614.0541" y="286.5416">1</text><text fill="#000000" font-family="sans-serif" font-size="13" lengthAdjust="spacing" textLength="7" x="912.4773" y="351.2745">1</text></g><!--SRC=[rPJ9Rjim48RlUWf2bm050hHtGO3inAa1RuY3NWj674biA8v0Kd3T8k_UqMOhbcJdMXq4alFnduKSPb80YwM95NXPDSx1PIYinvN2myzS_fOwzRmx-oPrmGtFMOuQuynW3YpXoaBVLl3uZQUmTqS5p43ik4xL1y9cNE21D8URbTJWZWKmD1G2-MGlqj5kL_tP0-PSQhP60ShplFEsM75h8-UCV2qTB6FKU_a7sDS1m_vwZBwLJ615hcPe19WvAZGaBb8mCrN2HuJIIGsMMZHOjDkjblFePRdTrDobVGLKd7acamHr3KJ6uA6npMZKBFOTxxaG2XhRUp_YYKhsS-96_0SfqJ56QMeWvGuiJTl4cB_ZJe9sPwjFsTHgj2hTaNL043GBOHW41j65OPlsUuFNXMZXXJJMRJZTpI3umIbvjdtzHTKBmm6wufyb5wLIDyW7Yd-Rp2JTt74AT9cp9z1KfZgXCWT3wgXFsLJVcYiuJHQGTzD-fciGCkRg6M8g-gRCNsl5gS0YfS2a4cnKdQWMil9fhsnufC1IqF6HQCTZTqsxA51gbrE9lalhq1p7uRjFqmtEegQPqR8kYALEqEHrmGR7yqWFWxfsYXbgc2hKm6ClJDR6EPhnKaoAFOEg8xMPBAO5H-hXV_FP_Nt8_2_-XIjlN5jgMxtPBeDJj_2kdUeDtMgjN5RIDBZibPjarogt9TjEcGPxZJ8DDNqojBVcaGuOPwioZjx_IUdBspy93azl4krVqsdeV4czwjdy1m00]--></g></svg>