<?xml version="1.0" encoding="us-ascii" standalone="no"?><svg xmlns="http://www.w3.org/2000/svg" xmlns:xlink="http://www.w3.org/1999/xlink" contentStyleType="text/css" height="859px" preserveAspectRatio="none" style="width:1976px;height:859px;background:#FFFFFF;" version="1.1" viewBox="0 0 1976 859" width="1976px" zoomAndPan="magnify"><defs/><g><text fill="#000000" font-family="sans-serif" font-size="14" font-weight="bold" lengthAdjust="spacing" textLength="483" x="745.75" y="29.5332">US 5.1.18 - As a Doctor, I want to remove an operation reqRoutesition</text><rect fill="#FFFFFF" height="637.0313" style="stroke:#181818;stroke-width:1.0;" width="10" x="24" y="131.2188"/><rect fill="#FFFFFF" height="598.3281" style="stroke:#181818;stroke-width:1.0;" width="10" x="289" y="169.9219"/><rect fill="#FFFFFF" height="512.2734" style="stroke:#181818;stroke-width:1.0;" width="10" x="459" y="216.625"/><rect fill="#FFFFFF" height="30.3516" style="stroke:#181818;stroke-width:1.0;" width="10" x="731" y="246.9766"/><rect fill="#FFFFFF" height="390.8672" style="stroke:#181818;stroke-width:1.0;" width="10" x="874.5" y="307.6797"/><rect fill="#FFFFFF" height="28" style="stroke:#181818;stroke-width:1.0;" width="10" x="879.5" y="467.4375"/><rect fill="#FFFFFF" height="30.3516" style="stroke:#181818;stroke-width:1.0;" width="10" x="1369.5" y="338.0313"/><rect fill="#FFFFFF" height="30.3516" style="stroke:#181818;stroke-width:1.0;" width="10" x="1523.5" y="398.7344"/><rect fill="#FFFFFF" height="30.3516" style="stroke:#181818;stroke-width:1.0;" width="10" x="1523.5" y="593.4922"/><rect fill="#FFFFFF" height="30.3516" style="stroke:#181818;stroke-width:1.0;" width="10" x="1713" y="532.7891"/><rect fill="#FFFFFF" height="14" style="stroke:#181818;stroke-width:1.0;" width="10" x="1884.5" y="654.1953"/><line style="stroke:#181818;stroke-width:0.5;stroke-dasharray:5.0,5.0;" x1="29" x2="29" y1="121.2188" y2="777.25"/><line style="stroke:#181818;stroke-width:0.5;stroke-dasharray:5.0,5.0;" x1="294" x2="294" y1="121.2188" y2="777.25"/><line style="stroke:#181818;stroke-width:0.5;stroke-dasharray:5.0,5.0;" x1="464" x2="464" y1="121.2188" y2="777.25"/><line style="stroke:#181818;stroke-width:0.5;stroke-dasharray:5.0,5.0;" x1="736" x2="736" y1="121.2188" y2="777.25"/><line style="stroke:#181818;stroke-width:0.5;stroke-dasharray:5.0,5.0;" x1="879" x2="879" y1="121.2188" y2="777.25"/><line style="stroke:#181818;stroke-width:0.5;stroke-dasharray:5.0,5.0;" x1="1374.5" x2="1374.5" y1="121.2188" y2="777.25"/><line style="stroke:#181818;stroke-width:0.5;stroke-dasharray:5.0,5.0;" x1="1528.5" x2="1528.5" y1="121.2188" y2="777.25"/><line style="stroke:#181818;stroke-width:0.5;stroke-dasharray:5.0,5.0;" x1="1717.5" x2="1717.5" y1="121.2188" y2="777.25"/><line style="stroke:#181818;stroke-width:0.5;stroke-dasharray:5.0,5.0;" x1="1889.5" x2="1889.5" y1="121.2188" y2="777.25"/><text fill="#000000" font-family="sans-serif" font-size="14" lengthAdjust="spacing" textLength="42" x="5" y="118.1426">Doctor</text><ellipse cx="29" cy="52.1094" fill="#E2E2F0" rx="8" ry="8" style="stroke:#181818;stroke-width:0.5;"/><path d="M29,60.1094 L29,87.1094 M16,68.1094 L42,68.1094 M29,87.1094 L16,102.1094 M29,87.1094 L42,102.1094 " fill="none" style="stroke:#181818;stroke-width:0.5;"/><text fill="#000000" font-family="sans-serif" font-size="14" lengthAdjust="spacing" textLength="42" x="5" y="790.7832">Doctor</text><ellipse cx="29" cy="802.3594" fill="#E2E2F0" rx="8" ry="8" style="stroke:#181818;stroke-width:0.5;"/><path d="M29,810.3594 L29,837.3594 M16,818.3594 L42,818.3594 M29,837.3594 L16,852.3594 M29,837.3594 L42,852.3594 " fill="none" style="stroke:#181818;stroke-width:0.5;"/><rect fill="#E2E2F0" height="31.6094" rx="2.5" ry="2.5" style="stroke:#181818;stroke-width:0.5;" width="52" x="268" y="88.6094"/><text fill="#000000" font-family="sans-serif" font-size="14" lengthAdjust="spacing" textLength="38" x="275" y="110.1426">Route</text><rect fill="#E2E2F0" height="31.6094" rx="2.5" ry="2.5" style="stroke:#181818;stroke-width:0.5;" width="52" x="268" y="776.25"/><text fill="#000000" font-family="sans-serif" font-size="14" lengthAdjust="spacing" textLength="38" x="275" y="797.7832">Route</text><rect fill="#E2E2F0" height="31.6094" rx="2.5" ry="2.5" style="stroke:#181818;stroke-width:0.5;" width="192" x="368" y="88.6094"/><text fill="#000000" font-family="sans-serif" font-size="14" lengthAdjust="spacing" textLength="178" x="375" y="110.1426">OperationRequestController</text><rect fill="#E2E2F0" height="31.6094" rx="2.5" ry="2.5" style="stroke:#181818;stroke-width:0.5;" width="192" x="368" y="776.25"/><text fill="#000000" font-family="sans-serif" font-size="14" lengthAdjust="spacing" textLength="178" x="375" y="797.7832">OperationRequestController</text><rect fill="#E2E2F0" height="31.6094" rx="2.5" ry="2.5" style="stroke:#181818;stroke-width:0.5;" width="90" x="691" y="88.6094"/><text fill="#000000" font-family="sans-serif" font-size="14" lengthAdjust="spacing" textLength="76" x="698" y="110.1426">AuthService</text><rect fill="#E2E2F0" height="31.6094" rx="2.5" ry="2.5" style="stroke:#181818;stroke-width:0.5;" width="90" x="691" y="776.25"/><text fill="#000000" font-family="sans-serif" font-size="14" lengthAdjust="spacing" textLength="76" x="698" y="797.7832">AuthService</text><rect fill="#E2E2F0" height="31.6094" rx="2.5" ry="2.5" style="stroke:#181818;stroke-width:0.5;" width="177" x="791" y="88.6094"/><text fill="#000000" font-family="sans-serif" font-size="14" lengthAdjust="spacing" textLength="163" x="798" y="110.1426">OperationRequestService</text><rect fill="#E2E2F0" height="31.6094" rx="2.5" ry="2.5" style="stroke:#181818;stroke-width:0.5;" width="177" x="791" y="776.25"/><text fill="#000000" font-family="sans-serif" font-size="14" lengthAdjust="spacing" textLength="163" x="798" y="797.7832">OperationRequestService</text><rect fill="#E2E2F0" height="31.6094" rx="2.5" ry="2.5" style="stroke:#181818;stroke-width:0.5;" width="90" x="1329.5" y="88.6094"/><text fill="#000000" font-family="sans-serif" font-size="14" lengthAdjust="spacing" textLength="76" x="1336.5" y="110.1426">StaffService</text><rect fill="#E2E2F0" height="31.6094" rx="2.5" ry="2.5" style="stroke:#181818;stroke-width:0.5;" width="90" x="1329.5" y="776.25"/><text fill="#000000" font-family="sans-serif" font-size="14" lengthAdjust="spacing" textLength="76" x="1336.5" y="797.7832">StaffService</text><rect fill="#E2E2F0" height="31.6094" rx="2.5" ry="2.5" style="stroke:#181818;stroke-width:0.5;" width="198" x="1429.5" y="88.6094"/><text fill="#000000" font-family="sans-serif" font-size="14" lengthAdjust="spacing" textLength="184" x="1436.5" y="110.1426">OperationRequestRepository</text><rect fill="#E2E2F0" height="31.6094" rx="2.5" ry="2.5" style="stroke:#181818;stroke-width:0.5;" width="198" x="1429.5" y="776.25"/><text fill="#000000" font-family="sans-serif" font-size="14" lengthAdjust="spacing" textLength="184" x="1436.5" y="797.7832">OperationRequestRepository</text><rect fill="#E2E2F0" height="31.6094" rx="2.5" ry="2.5" style="stroke:#181818;stroke-width:0.5;" width="161" x="1637.5" y="88.6094"/><text fill="#000000" font-family="sans-serif" font-size="14" lengthAdjust="spacing" textLength="147" x="1644.5" y="110.1426">AppointmentRepository</text><rect fill="#E2E2F0" height="31.6094" rx="2.5" ry="2.5" style="stroke:#181818;stroke-width:0.5;" width="161" x="1637.5" y="776.25"/><text fill="#000000" font-family="sans-serif" font-size="14" lengthAdjust="spacing" textLength="147" x="1644.5" y="797.7832">AppointmentRepository</text><rect fill="#E2E2F0" height="31.6094" rx="2.5" ry="2.5" style="stroke:#181818;stroke-width:0.5;" width="162" x="1808.5" y="88.6094"/><text fill="#000000" font-family="sans-serif" font-size="14" lengthAdjust="spacing" textLength="148" x="1815.5" y="110.1426">PlanningModuleService</text><rect fill="#E2E2F0" height="31.6094" rx="2.5" ry="2.5" style="stroke:#181818;stroke-width:0.5;" width="162" x="1808.5" y="776.25"/><text fill="#000000" font-family="sans-serif" font-size="14" lengthAdjust="spacing" textLength="148" x="1815.5" y="797.7832">PlanningModuleService</text><rect fill="#FFFFFF" height="637.0313" style="stroke:#181818;stroke-width:1.0;" width="10" x="24" y="131.2188"/><rect fill="#FFFFFF" height="598.3281" style="stroke:#181818;stroke-width:1.0;" width="10" x="289" y="169.9219"/><rect fill="#FFFFFF" height="512.2734" style="stroke:#181818;stroke-width:1.0;" width="10" x="459" y="216.625"/><rect fill="#FFFFFF" height="30.3516" style="stroke:#181818;stroke-width:1.0;" width="10" x="731" y="246.9766"/><rect fill="#FFFFFF" height="390.8672" style="stroke:#181818;stroke-width:1.0;" width="10" x="874.5" y="307.6797"/><rect fill="#FFFFFF" height="28" style="stroke:#181818;stroke-width:1.0;" width="10" x="879.5" y="467.4375"/><rect fill="#FFFFFF" height="30.3516" style="stroke:#181818;stroke-width:1.0;" width="10" x="1369.5" y="338.0313"/><rect fill="#FFFFFF" height="30.3516" style="stroke:#181818;stroke-width:1.0;" width="10" x="1523.5" y="398.7344"/><rect fill="#FFFFFF" height="30.3516" style="stroke:#181818;stroke-width:1.0;" width="10" x="1523.5" y="593.4922"/><rect fill="#FFFFFF" height="30.3516" style="stroke:#181818;stroke-width:1.0;" width="10" x="1713" y="532.7891"/><rect fill="#FFFFFF" height="14" style="stroke:#181818;stroke-width:1.0;" width="10" x="1884.5" y="654.1953"/><polygon fill="#A52A2A" points="277,165.9219,287,169.9219,277,173.9219,281,169.9219" style="stroke:#A52A2A;stroke-width:1.0;"/><line style="stroke:#A52A2A;stroke-width:1.0;" x1="34" x2="283" y1="169.9219" y2="169.9219"/><text fill="#000000" font-family="sans-serif" font-size="13" lengthAdjust="spacing" textLength="50" x="41" y="148.7139">DELETE</text><text fill="#000000" font-family="sans-serif" font-size="13" lengthAdjust="spacing" textLength="155" x="41" y="165.0654">/api/operationRequests/{id}</text><polygon fill="#A52A2A" points="447,212.625,457,216.625,447,220.625,451,216.625" style="stroke:#A52A2A;stroke-width:1.0;"/><line style="stroke:#A52A2A;stroke-width:1.0;" x1="299" x2="453" y1="216.625" y2="216.625"/><text fill="#000000" font-family="sans-serif" font-size="13" lengthAdjust="spacing" textLength="141" x="306" y="195.417">DeleteOperationRequest</text><text fill="#000000" font-family="sans-serif" font-size="13" lengthAdjust="spacing" textLength="124" x="306" y="211.7686">(OperationRequestID)</text><polygon fill="#A52A2A" points="719,242.9766,729,246.9766,719,250.9766,723,246.9766" style="stroke:#A52A2A;stroke-width:1.0;"/><line style="stroke:#A52A2A;stroke-width:1.0;" x1="469" x2="725" y1="246.9766" y2="246.9766"/><text fill="#000000" font-family="sans-serif" font-size="13" lengthAdjust="spacing" textLength="243" x="476" y="242.1201">getAuthenticatedUserEmail(accessToken)</text><polygon fill="#A52A2A" points="480,273.3281,470,277.3281,480,281.3281,476,277.3281" style="stroke:#A52A2A;stroke-width:1.0;"/><line style="stroke:#A52A2A;stroke-width:1.0;stroke-dasharray:2.0,2.0;" x1="474" x2="735" y1="277.3281" y2="277.3281"/><text fill="#000000" font-family="sans-serif" font-size="13" lengthAdjust="spacing" textLength="31" x="486" y="272.4717">email</text><polygon fill="#A52A2A" points="862.5,303.6797,872.5,307.6797,862.5,311.6797,866.5,307.6797" style="stroke:#A52A2A;stroke-width:1.0;"/><line style="stroke:#A52A2A;stroke-width:1.0;" x1="469" x2="868.5" y1="307.6797" y2="307.6797"/><text fill="#000000" font-family="sans-serif" font-size="13" lengthAdjust="spacing" textLength="273" x="476" y="302.8232">DeleteOperationRequestAsync(id, doctorEmail)</text><polygon fill="#A52A2A" points="1357.5,334.0313,1367.5,338.0313,1357.5,342.0313,1361.5,338.0313" style="stroke:#A52A2A;stroke-width:1.0;"/><line style="stroke:#A52A2A;stroke-width:1.0;" x1="884.5" x2="1363.5" y1="338.0313" y2="338.0313"/><text fill="#000000" font-family="sans-serif" font-size="13" lengthAdjust="spacing" textLength="208" x="891.5" y="333.1748">GetIdFromEmailAsync(doctorEmail)</text><polygon fill="#A52A2A" points="895.5,364.3828,885.5,368.3828,895.5,372.3828,891.5,368.3828" style="stroke:#A52A2A;stroke-width:1.0;"/><line style="stroke:#A52A2A;stroke-width:1.0;stroke-dasharray:2.0,2.0;" x1="889.5" x2="1373.5" y1="368.3828" y2="368.3828"/><text fill="#000000" font-family="sans-serif" font-size="13" lengthAdjust="spacing" textLength="48" x="901.5" y="363.5264">doctorID</text><polygon fill="#A52A2A" points="1511.5,394.7344,1521.5,398.7344,1511.5,402.7344,1515.5,398.7344" style="stroke:#A52A2A;stroke-width:1.0;"/><line style="stroke:#A52A2A;stroke-width:1.0;" x1="884.5" x2="1517.5" y1="398.7344" y2="398.7344"/><text fill="#000000" font-family="sans-serif" font-size="13" lengthAdjust="spacing" textLength="208" x="891.5" y="393.8779">GetByIdAsync(OperationRequestID)</text><polygon fill="#A52A2A" points="895.5,425.0859,885.5,429.0859,895.5,433.0859,891.5,429.0859" style="stroke:#A52A2A;stroke-width:1.0;"/><line style="stroke:#A52A2A;stroke-width:1.0;stroke-dasharray:2.0,2.0;" x1="889.5" x2="1527.5" y1="429.0859" y2="429.0859"/><text fill="#000000" font-family="sans-serif" font-size="13" lengthAdjust="spacing" textLength="101" x="901.5" y="424.2295">operationRequest</text><line style="stroke:#A52A2A;stroke-width:1.0;" x1="889.5" x2="931.5" y1="459.4375" y2="459.4375"/><line style="stroke:#A52A2A;stroke-width:1.0;" x1="931.5" x2="931.5" y1="459.4375" y2="472.4375"/><line style="stroke:#A52A2A;stroke-width:1.0;" x1="890.5" x2="931.5" y1="472.4375" y2="472.4375"/><polygon fill="#A52A2A" points="900.5,468.4375,890.5,472.4375,900.5,476.4375,896.5,472.4375" style="stroke:#A52A2A;stroke-width:1.0;"/><text fill="#000000" font-family="sans-serif" font-size="13" lengthAdjust="spacing" textLength="471" x="896.5" y="454.5811">checkIfDoctorIsTheCreatorOfOperationRequestAsync(doctorID, operationRequest)</text><polygon fill="#A52A2A" points="1701,528.7891,1711,532.7891,1701,536.7891,1705,532.7891" style="stroke:#A52A2A;stroke-width:1.0;"/><line style="stroke:#A52A2A;stroke-width:1.0;" x1="884.5" x2="1707" y1="532.7891" y2="532.7891"/><text fill="#000000" font-family="sans-serif" font-size="13" lengthAdjust="spacing" textLength="188" x="891.5" y="527.9326">CheckIfOperationIsScheduled(id)</text><polygon fill="#A52A2A" points="895.5,559.1406,885.5,563.1406,895.5,567.1406,891.5,563.1406" style="stroke:#A52A2A;stroke-width:1.0;"/><line style="stroke:#A52A2A;stroke-width:1.0;stroke-dasharray:2.0,2.0;" x1="889.5" x2="1717" y1="563.1406" y2="563.1406"/><text fill="#000000" font-family="sans-serif" font-size="13" lengthAdjust="spacing" textLength="27" x="901.5" y="558.2842">false</text><polygon fill="#A52A2A" points="1511.5,589.4922,1521.5,593.4922,1511.5,597.4922,1515.5,593.4922" style="stroke:#A52A2A;stroke-width:1.0;"/><line style="stroke:#A52A2A;stroke-width:1.0;" x1="884.5" x2="1517.5" y1="593.4922" y2="593.4922"/><text fill="#000000" font-family="sans-serif" font-size="13" lengthAdjust="spacing" textLength="155" x="891.5" y="588.6357">Remove(operationRequest)</text><polygon fill="#A52A2A" points="895.5,619.8438,885.5,623.8438,895.5,627.8438,891.5,623.8438" style="stroke:#A52A2A;stroke-width:1.0;"/><line style="stroke:#A52A2A;stroke-width:1.0;stroke-dasharray:2.0,2.0;" x1="889.5" x2="1527.5" y1="623.8438" y2="623.8438"/><text fill="#000000" font-family="sans-serif" font-size="13" lengthAdjust="spacing" textLength="22" x="901.5" y="618.9873">true</text><polygon fill="#A52A2A" points="1872.5,650.1953,1882.5,654.1953,1872.5,658.1953,1876.5,654.1953" style="stroke:#A52A2A;stroke-width:1.0;"/><line style="stroke:#A52A2A;stroke-width:1.0;" x1="884.5" x2="1878.5" y1="654.1953" y2="654.1953"/><text fill="#000000" font-family="sans-serif" font-size="13" lengthAdjust="spacing" textLength="199" x="891.5" y="649.3389">NotifyOperationRequestDeleted(id)</text><polygon fill="#A52A2A" points="895.5,664.1953,885.5,668.1953,895.5,672.1953,891.5,668.1953" style="stroke:#A52A2A;stroke-width:1.0;"/><line style="stroke:#A52A2A;stroke-width:1.0;stroke-dasharray:2.0,2.0;" x1="889.5" x2="1888.5" y1="668.1953" y2="668.1953"/><polygon fill="#A52A2A" points="480,694.5469,470,698.5469,480,702.5469,476,698.5469" style="stroke:#A52A2A;stroke-width:1.0;"/><line style="stroke:#A52A2A;stroke-width:1.0;stroke-dasharray:2.0,2.0;" x1="474" x2="878.5" y1="698.5469" y2="698.5469"/><text fill="#000000" font-family="sans-serif" font-size="13" lengthAdjust="spacing" textLength="22" x="486" y="693.6904">true</text><polygon fill="#A52A2A" points="310,724.8984,300,728.8984,310,732.8984,306,728.8984" style="stroke:#A52A2A;stroke-width:1.0;"/><line style="stroke:#A52A2A;stroke-width:1.0;stroke-dasharray:2.0,2.0;" x1="304" x2="463" y1="728.8984" y2="728.8984"/><text fill="#000000" font-family="sans-serif" font-size="13" lengthAdjust="spacing" textLength="22" x="316" y="724.042">true</text><polygon fill="#A52A2A" points="45,755.25,35,759.25,45,763.25,41,759.25" style="stroke:#A52A2A;stroke-width:1.0;"/><line style="stroke:#A52A2A;stroke-width:1.0;stroke-dasharray:2.0,2.0;" x1="39" x2="288" y1="759.25" y2="759.25"/><text fill="#000000" font-family="sans-serif" font-size="13" lengthAdjust="spacing" textLength="231" x="51" y="754.3936">Operation request removed successfully</text><!--SRC=[pLNBRjim4BphAnOvfK0UpQ50uKC1-T52W5C7Of9JBgouiWdJf49I2ToW_zubQJkIugJNwg3NZcPdPqZ8IwyGxXXykRYwkFeAvv0xu30rbJVs30fuvjg3Ds1nOvuGk0RJeELU6atl7alJUdGoF6QPMqlTSCitK2dkNEwzbR-eNbH6C_aRuVCR3BnaGCTSrZYN6iV62hGJeumb3MA9TgnQx4DujLvQqsgHO551H0mhSvAi9ojProGk079hpNEgZUaklUosP5m8XQdsfwkr8Mg-HEQtv9R5odEzLDYRXblnNm_3Gw9maf8z0Uvs8MSP3U1b9PkGz4bK4Cj9Iw-us4TVucEBpa-CzjOeXObmKKxw-BprAuRsILQ9CcSVytMnYt80PfxNTHV1xZzcAx4nj3IDtUu8ou6wfZ5I-mtg8JGV86yKrrhgvRKHhSAkXflh8elUoYVkyM1fkiBvj-JY2AQp-Uns1W_waZVoqWoKkiiNAVvqU9BtMRm45dAME52Xn-6K3_fq-AgOVkfmXLGoEWMUd8rWYJxaGbFBYkhYpg6TRRXKfxogqBbRiqRT9Q3Kifp1-Lu71d2M2UmXEeyKpBuXfVYUyDnjTNKgnHc8w5RKq1VE0WyBFEn-13_G5-AxDPk8J9-_ysbGmEvtaab1WXNJ8p9Pabb6_l6s48duNvwMuTlojSCmqbwd7PmT7AbMMAsBEYsJmjskS6AHq_sYFcxJVe2pDutUEDRh- -fWJXDEKjj3Yy8nKXBMjA0WUfcJuBmpNisLmtxcPT-zCluWJZ-MDtJDsnRVTOhsrWX-6Y_hxT2KjAA6ekDcfDE1lqSTgv5wlv2FT6UxbVkwSu-09eUTIR2KuGWMtTzYqBZxPGfmRTnNTQlKDZj-_0K0]--></g></svg>