<?xml version="1.0" encoding="us-ascii" standalone="no"?><svg xmlns="http://www.w3.org/2000/svg" xmlns:xlink="http://www.w3.org/1999/xlink" contentStyleType="text/css" height="1048px" preserveAspectRatio="none" style="width:2155px;height:1048px;background:#FFFFFF;" version="1.1" viewBox="0 0 2155 1048" width="2155px" zoomAndPan="magnify"><defs/><g><text fill="#000000" font-family="sans-serif" font-size="14" font-weight="bold" lengthAdjust="spacing" textLength="454" x="849.75" y="29.5332">US 5.1.18 - As a Doctor, I want to remove an operation requisition</text><rect fill="#FFFFFF" height="825.7891" style="stroke:#181818;stroke-width:1.0;" width="10" x="24" y="131.2188"/><rect fill="#FFFFFF" height="803.4375" style="stroke:#181818;stroke-width:1.0;" width="10" x="289" y="153.5703"/><rect fill="#FFFFFF" height="733.7344" style="stroke:#181818;stroke-width:1.0;" width="10" x="587" y="183.9219"/><rect fill="#FFFFFF" height="30.3516" style="stroke:#181818;stroke-width:1.0;" width="10" x="855" y="214.2734"/><rect fill="#FFFFFF" height="30.3516" style="stroke:#181818;stroke-width:1.0;" width="10" x="855" y="274.9766"/><rect fill="#FFFFFF" height="30.3516" style="stroke:#181818;stroke-width:1.0;" width="10" x="965.5" y="335.6797"/><rect fill="#FFFFFF" height="490.9219" style="stroke:#181818;stroke-width:1.0;" width="10" x="1119.5" y="396.3828"/><rect fill="#FFFFFF" height="102.0547" style="stroke:#181818;stroke-width:1.0;" width="10" x="1124.5" y="495.4375"/><rect fill="#FFFFFF" height="102.0547" style="stroke:#181818;stroke-width:1.0;" width="10" x="1124.5" y="642.8438"/><rect fill="#FFFFFF" height="30.3516" style="stroke:#181818;stroke-width:1.0;" width="10" x="1554.5" y="426.7344"/><rect fill="#FFFFFF" height="30.3516" style="stroke:#181818;stroke-width:1.0;" width="10" x="1554.5" y="782.25"/><rect fill="#FFFFFF" height="30.3516" style="stroke:#181818;stroke-width:1.0;" width="10" x="1728.5" y="530.7891"/><rect fill="#FFFFFF" height="30.3516" style="stroke:#181818;stroke-width:1.0;" width="10" x="1884" y="678.1953"/><rect fill="#FFFFFF" height="14" style="stroke:#181818;stroke-width:1.0;" width="10" x="2059.5" y="842.9531"/><line style="stroke:#181818;stroke-width:0.5;stroke-dasharray:5.0,5.0;" x1="29" x2="29" y1="121.2188" y2="966.0078"/><line style="stroke:#181818;stroke-width:0.5;stroke-dasharray:5.0,5.0;" x1="294" x2="294" y1="121.2188" y2="966.0078"/><line style="stroke:#181818;stroke-width:0.5;stroke-dasharray:5.0,5.0;" x1="592" x2="592" y1="121.2188" y2="966.0078"/><line style="stroke:#181818;stroke-width:0.5;stroke-dasharray:5.0,5.0;" x1="860" x2="860" y1="121.2188" y2="966.0078"/><line style="stroke:#181818;stroke-width:0.5;stroke-dasharray:5.0,5.0;" x1="970" x2="970" y1="121.2188" y2="966.0078"/><line style="stroke:#181818;stroke-width:0.5;stroke-dasharray:5.0,5.0;" x1="1124" x2="1124" y1="121.2188" y2="966.0078"/><line style="stroke:#181818;stroke-width:0.5;stroke-dasharray:5.0,5.0;" x1="1559.5" x2="1559.5" y1="121.2188" y2="966.0078"/><line style="stroke:#181818;stroke-width:0.5;stroke-dasharray:5.0,5.0;" x1="1733.5" x2="1733.5" y1="121.2188" y2="966.0078"/><line style="stroke:#181818;stroke-width:0.5;stroke-dasharray:5.0,5.0;" x1="1888.5" x2="1888.5" y1="121.2188" y2="966.0078"/><line style="stroke:#181818;stroke-width:0.5;stroke-dasharray:5.0,5.0;" x1="2064.5" x2="2064.5" y1="121.2188" y2="966.0078"/><text fill="#000000" font-family="sans-serif" font-size="14" lengthAdjust="spacing" textLength="42" x="5" y="118.1426">Doctor</text><ellipse cx="29" cy="52.1094" fill="#E2E2F0" rx="8" ry="8" style="stroke:#181818;stroke-width:0.5;"/><path d="M29,60.1094 L29,87.1094 M16,68.1094 L42,68.1094 M29,87.1094 L16,102.1094 M29,87.1094 L42,102.1094 " fill="none" style="stroke:#181818;stroke-width:0.5;"/><text fill="#000000" font-family="sans-serif" font-size="14" lengthAdjust="spacing" textLength="42" x="5" y="979.541">Doctor</text><ellipse cx="29" cy="991.1172" fill="#E2E2F0" rx="8" ry="8" style="stroke:#181818;stroke-width:0.5;"/><path d="M29,999.1172 L29,1026.1172 M16,1007.1172 L42,1007.1172 M29,1026.1172 L16,1041.1172 M29,1026.1172 L42,1041.1172 " fill="none" style="stroke:#181818;stroke-width:0.5;"/><rect fill="#E2E2F0" height="31.6094" rx="2.5" ry="2.5" style="stroke:#181818;stroke-width:0.5;" width="194" x="197" y="88.6094"/><text fill="#000000" font-family="sans-serif" font-size="14" lengthAdjust="spacing" textLength="180" x="204" y="110.1426">RemoveOperationRequestUI</text><rect fill="#E2E2F0" height="31.6094" rx="2.5" ry="2.5" style="stroke:#181818;stroke-width:0.5;" width="194" x="197" y="965.0078"/><text fill="#000000" font-family="sans-serif" font-size="14" lengthAdjust="spacing" textLength="180" x="204" y="986.541">RemoveOperationRequestUI</text><rect fill="#E2E2F0" height="31.6094" rx="2.5" ry="2.5" style="stroke:#181818;stroke-width:0.5;" width="192" x="496" y="88.6094"/><text fill="#000000" font-family="sans-serif" font-size="14" lengthAdjust="spacing" textLength="178" x="503" y="110.1426">OperationRequestController</text><rect fill="#E2E2F0" height="31.6094" rx="2.5" ry="2.5" style="stroke:#181818;stroke-width:0.5;" width="192" x="496" y="965.0078"/><text fill="#000000" font-family="sans-serif" font-size="14" lengthAdjust="spacing" textLength="178" x="503" y="986.541">OperationRequestController</text><rect fill="#E2E2F0" height="31.6094" rx="2.5" ry="2.5" style="stroke:#181818;stroke-width:0.5;" width="90" x="815" y="88.6094"/><text fill="#000000" font-family="sans-serif" font-size="14" lengthAdjust="spacing" textLength="76" x="822" y="110.1426">AuthService</text><rect fill="#E2E2F0" height="31.6094" rx="2.5" ry="2.5" style="stroke:#181818;stroke-width:0.5;" width="90" x="815" y="965.0078"/><text fill="#000000" font-family="sans-serif" font-size="14" lengthAdjust="spacing" textLength="76" x="822" y="986.541">AuthService</text><rect fill="#E2E2F0" height="31.6094" rx="2.5" ry="2.5" style="stroke:#181818;stroke-width:0.5;" width="111" x="915" y="88.6094"/><text fill="#000000" font-family="sans-serif" font-size="14" lengthAdjust="spacing" textLength="97" x="922" y="110.1426">StaffRepository</text><rect fill="#E2E2F0" height="31.6094" rx="2.5" ry="2.5" style="stroke:#181818;stroke-width:0.5;" width="111" x="915" y="965.0078"/><text fill="#000000" font-family="sans-serif" font-size="14" lengthAdjust="spacing" textLength="97" x="922" y="986.541">StaffRepository</text><rect fill="#E2E2F0" height="31.6094" rx="2.5" ry="2.5" style="stroke:#181818;stroke-width:0.5;" width="177" x="1036" y="88.6094"/><text fill="#000000" font-family="sans-serif" font-size="14" lengthAdjust="spacing" textLength="163" x="1043" y="110.1426">OperationRequestService</text><rect fill="#E2E2F0" height="31.6094" rx="2.5" ry="2.5" style="stroke:#181818;stroke-width:0.5;" width="177" x="1036" y="965.0078"/><text fill="#000000" font-family="sans-serif" font-size="14" lengthAdjust="spacing" textLength="163" x="1043" y="986.541">OperationRequestService</text><rect fill="#E2E2F0" height="31.6094" rx="2.5" ry="2.5" style="stroke:#181818;stroke-width:0.5;" width="198" x="1460.5" y="88.6094"/><text fill="#000000" font-family="sans-serif" font-size="14" lengthAdjust="spacing" textLength="184" x="1467.5" y="110.1426">OperationRequestRepository</text><rect fill="#E2E2F0" height="31.6094" rx="2.5" ry="2.5" style="stroke:#181818;stroke-width:0.5;" width="198" x="1460.5" y="965.0078"/><text fill="#000000" font-family="sans-serif" font-size="14" lengthAdjust="spacing" textLength="184" x="1467.5" y="986.541">OperationRequestRepository</text><rect fill="#E2E2F0" height="31.6094" rx="2.5" ry="2.5" style="stroke:#181818;stroke-width:0.5;" width="130" x="1668.5" y="88.6094"/><text fill="#000000" font-family="sans-serif" font-size="14" lengthAdjust="spacing" textLength="116" x="1675.5" y="110.1426">OperationRequest</text><rect fill="#E2E2F0" height="31.6094" rx="2.5" ry="2.5" style="stroke:#181818;stroke-width:0.5;" width="130" x="1668.5" y="965.0078"/><text fill="#000000" font-family="sans-serif" font-size="14" lengthAdjust="spacing" textLength="116" x="1675.5" y="986.541">OperationRequest</text><rect fill="#E2E2F0" height="31.6094" rx="2.5" ry="2.5" style="stroke:#181818;stroke-width:0.5;" width="161" x="1808.5" y="88.6094"/><text fill="#000000" font-family="sans-serif" font-size="14" lengthAdjust="spacing" textLength="147" x="1815.5" y="110.1426">AppointmentRepository</text><rect fill="#E2E2F0" height="31.6094" rx="2.5" ry="2.5" style="stroke:#181818;stroke-width:0.5;" width="161" x="1808.5" y="965.0078"/><text fill="#000000" font-family="sans-serif" font-size="14" lengthAdjust="spacing" textLength="147" x="1815.5" y="986.541">AppointmentRepository</text><rect fill="#E2E2F0" height="31.6094" rx="2.5" ry="2.5" style="stroke:#181818;stroke-width:0.5;" width="170" x="1979.5" y="88.6094"/><text fill="#000000" font-family="sans-serif" font-size="14" lengthAdjust="spacing" textLength="156" x="1986.5" y="110.1426">PlanningModuleInterface</text><rect fill="#E2E2F0" height="31.6094" rx="2.5" ry="2.5" style="stroke:#181818;stroke-width:0.5;" width="170" x="1979.5" y="965.0078"/><text fill="#000000" font-family="sans-serif" font-size="14" lengthAdjust="spacing" textLength="156" x="1986.5" y="986.541">PlanningModuleInterface</text><rect fill="#FFFFFF" height="825.7891" style="stroke:#181818;stroke-width:1.0;" width="10" x="24" y="131.2188"/><rect fill="#FFFFFF" height="803.4375" style="stroke:#181818;stroke-width:1.0;" width="10" x="289" y="153.5703"/><rect fill="#FFFFFF" height="733.7344" style="stroke:#181818;stroke-width:1.0;" width="10" x="587" y="183.9219"/><rect fill="#FFFFFF" height="30.3516" style="stroke:#181818;stroke-width:1.0;" width="10" x="855" y="214.2734"/><rect fill="#FFFFFF" height="30.3516" style="stroke:#181818;stroke-width:1.0;" width="10" x="855" y="274.9766"/><rect fill="#FFFFFF" height="30.3516" style="stroke:#181818;stroke-width:1.0;" width="10" x="965.5" y="335.6797"/><rect fill="#FFFFFF" height="490.9219" style="stroke:#181818;stroke-width:1.0;" width="10" x="1119.5" y="396.3828"/><rect fill="#FFFFFF" height="102.0547" style="stroke:#181818;stroke-width:1.0;" width="10" x="1124.5" y="495.4375"/><rect fill="#FFFFFF" height="102.0547" style="stroke:#181818;stroke-width:1.0;" width="10" x="1124.5" y="642.8438"/><rect fill="#FFFFFF" height="30.3516" style="stroke:#181818;stroke-width:1.0;" width="10" x="1554.5" y="426.7344"/><rect fill="#FFFFFF" height="30.3516" style="stroke:#181818;stroke-width:1.0;" width="10" x="1554.5" y="782.25"/><rect fill="#FFFFFF" height="30.3516" style="stroke:#181818;stroke-width:1.0;" width="10" x="1728.5" y="530.7891"/><rect fill="#FFFFFF" height="30.3516" style="stroke:#181818;stroke-width:1.0;" width="10" x="1884" y="678.1953"/><rect fill="#FFFFFF" height="14" style="stroke:#181818;stroke-width:1.0;" width="10" x="2059.5" y="842.9531"/><polygon fill="#A52A2A" points="277,149.5703,287,153.5703,277,157.5703,281,153.5703" style="stroke:#A52A2A;stroke-width:1.0;"/><line style="stroke:#A52A2A;stroke-width:1.0;" x1="34" x2="283" y1="153.5703" y2="153.5703"/><text fill="#000000" font-family="sans-serif" font-size="13" lengthAdjust="spacing" textLength="212" x="41" y="148.7139">Request to remove operation request</text><polygon fill="#A52A2A" points="575,179.9219,585,183.9219,575,187.9219,579,183.9219" style="stroke:#A52A2A;stroke-width:1.0;"/><line style="stroke:#A52A2A;stroke-width:1.0;" x1="299" x2="581" y1="183.9219" y2="183.9219"/><text fill="#000000" font-family="sans-serif" font-size="13" lengthAdjust="spacing" textLength="269" x="306" y="179.0654">removeOperationRequest(OperationRequestID)</text><polygon fill="#A52A2A" points="843,210.2734,853,214.2734,843,218.2734,847,214.2734" style="stroke:#A52A2A;stroke-width:1.0;"/><line style="stroke:#A52A2A;stroke-width:1.0;" x1="597" x2="849" y1="214.2734" y2="214.2734"/><text fill="#000000" font-family="sans-serif" font-size="13" lengthAdjust="spacing" textLength="239" x="604" y="209.417">ensureAuthenticatedUserHasRole(doctor)</text><polygon fill="#A52A2A" points="608,240.625,598,244.625,608,248.625,604,244.625" style="stroke:#A52A2A;stroke-width:1.0;"/><line style="stroke:#A52A2A;stroke-width:1.0;stroke-dasharray:2.0,2.0;" x1="602" x2="859" y1="244.625" y2="244.625"/><text fill="#000000" font-family="sans-serif" font-size="13" lengthAdjust="spacing" textLength="22" x="614" y="239.7686">true</text><polygon fill="#A52A2A" points="843,270.9766,853,274.9766,843,278.9766,847,274.9766" style="stroke:#A52A2A;stroke-width:1.0;"/><line style="stroke:#A52A2A;stroke-width:1.0;" x1="597" x2="849" y1="274.9766" y2="274.9766"/><text fill="#000000" font-family="sans-serif" font-size="13" lengthAdjust="spacing" textLength="166" x="604" y="270.1201">getAuthenticatedUserEmail()</text><polygon fill="#A52A2A" points="608,301.3281,598,305.3281,608,309.3281,604,305.3281" style="stroke:#A52A2A;stroke-width:1.0;"/><line style="stroke:#A52A2A;stroke-width:1.0;stroke-dasharray:2.0,2.0;" x1="602" x2="859" y1="305.3281" y2="305.3281"/><text fill="#000000" font-family="sans-serif" font-size="13" lengthAdjust="spacing" textLength="31" x="614" y="300.4717">email</text><polygon fill="#A52A2A" points="953.5,331.6797,963.5,335.6797,953.5,339.6797,957.5,335.6797" style="stroke:#A52A2A;stroke-width:1.0;"/><line style="stroke:#A52A2A;stroke-width:1.0;" x1="597" x2="959.5" y1="335.6797" y2="335.6797"/><text fill="#000000" font-family="sans-serif" font-size="13" lengthAdjust="spacing" textLength="158" x="604" y="330.8232">findDoctorIDByEmail(email)</text><polygon fill="#A52A2A" points="608,362.0313,598,366.0313,608,370.0313,604,366.0313" style="stroke:#A52A2A;stroke-width:1.0;"/><line style="stroke:#A52A2A;stroke-width:1.0;stroke-dasharray:2.0,2.0;" x1="602" x2="969.5" y1="366.0313" y2="366.0313"/><text fill="#000000" font-family="sans-serif" font-size="13" lengthAdjust="spacing" textLength="48" x="614" y="361.1748">doctorID</text><polygon fill="#A52A2A" points="1107.5,392.3828,1117.5,396.3828,1107.5,400.3828,1111.5,396.3828" style="stroke:#A52A2A;stroke-width:1.0;"/><line style="stroke:#A52A2A;stroke-width:1.0;" x1="597" x2="1113.5" y1="396.3828" y2="396.3828"/><text fill="#000000" font-family="sans-serif" font-size="13" lengthAdjust="spacing" textLength="325" x="604" y="391.5264">removeOperationRequest(doctorID, OperationRequestID)</text><polygon fill="#A52A2A" points="1542.5,422.7344,1552.5,426.7344,1542.5,430.7344,1546.5,426.7344" style="stroke:#A52A2A;stroke-width:1.0;"/><line style="stroke:#A52A2A;stroke-width:1.0;" x1="1129.5" x2="1548.5" y1="426.7344" y2="426.7344"/><text fill="#000000" font-family="sans-serif" font-size="13" lengthAdjust="spacing" textLength="276" x="1136.5" y="421.8779">findOperationRequestByID(OperationRequestID)</text><polygon fill="#A52A2A" points="1140.5,453.0859,1130.5,457.0859,1140.5,461.0859,1136.5,457.0859" style="stroke:#A52A2A;stroke-width:1.0;"/><line style="stroke:#A52A2A;stroke-width:1.0;stroke-dasharray:2.0,2.0;" x1="1134.5" x2="1558.5" y1="457.0859" y2="457.0859"/><text fill="#000000" font-family="sans-serif" font-size="13" lengthAdjust="spacing" textLength="101" x="1146.5" y="452.2295">operationRequest</text><line style="stroke:#A52A2A;stroke-width:1.0;" x1="1129.5" x2="1176.5" y1="482.4375" y2="482.4375"/><line style="stroke:#A52A2A;stroke-width:1.0;" x1="1176.5" x2="1176.5" y1="482.4375" y2="495.4375"/><line style="stroke:#A52A2A;stroke-width:1.0;" x1="1135.5" x2="1176.5" y1="495.4375" y2="495.4375"/><polygon fill="#A52A2A" points="1145.5,491.4375,1135.5,495.4375,1145.5,499.4375,1141.5,495.4375" style="stroke:#A52A2A;stroke-width:1.0;"/><text fill="#000000" font-family="sans-serif" font-size="13" lengthAdjust="spacing" textLength="411" x="1141.5" y="477.5811">validateOperationRequestBelongsToDoctor(doctorID, operationRequest)</text><polygon fill="#A52A2A" points="1716.5,526.7891,1726.5,530.7891,1716.5,534.7891,1720.5,530.7891" style="stroke:#A52A2A;stroke-width:1.0;"/><line style="stroke:#A52A2A;stroke-width:1.0;" x1="1134.5" x2="1722.5" y1="530.7891" y2="530.7891"/><text fill="#000000" font-family="sans-serif" font-size="13" lengthAdjust="spacing" textLength="173" x="1141.5" y="525.9326">doctorResponsibleIs(doctorID)</text><polygon fill="#A52A2A" points="1145.5,557.1406,1135.5,561.1406,1145.5,565.1406,1141.5,561.1406" style="stroke:#A52A2A;stroke-width:1.0;"/><line style="stroke:#A52A2A;stroke-width:1.0;stroke-dasharray:2.0,2.0;" x1="1139.5" x2="1732.5" y1="561.1406" y2="561.1406"/><text fill="#000000" font-family="sans-serif" font-size="13" lengthAdjust="spacing" textLength="22" x="1151.5" y="556.2842">true</text><line style="stroke:#A52A2A;stroke-width:1.0;stroke-dasharray:2.0,2.0;" x1="1134.5" x2="1176.5" y1="596.4922" y2="596.4922"/><line style="stroke:#A52A2A;stroke-width:1.0;stroke-dasharray:2.0,2.0;" x1="1176.5" x2="1176.5" y1="596.4922" y2="609.4922"/><line style="stroke:#A52A2A;stroke-width:1.0;stroke-dasharray:2.0,2.0;" x1="1129.5" x2="1176.5" y1="609.4922" y2="609.4922"/><polygon fill="#A52A2A" points="1139.5,605.4922,1129.5,609.4922,1139.5,613.4922,1135.5,609.4922" style="stroke:#A52A2A;stroke-width:1.0;"/><text fill="#000000" font-family="sans-serif" font-size="13" lengthAdjust="spacing" textLength="22" x="1141.5" y="591.6357">true</text><line style="stroke:#A52A2A;stroke-width:1.0;" x1="1129.5" x2="1176.5" y1="629.8438" y2="629.8438"/><line style="stroke:#A52A2A;stroke-width:1.0;" x1="1176.5" x2="1176.5" y1="629.8438" y2="642.8438"/><line style="stroke:#A52A2A;stroke-width:1.0;" x1="1135.5" x2="1176.5" y1="642.8438" y2="642.8438"/><polygon fill="#A52A2A" points="1145.5,638.8438,1135.5,642.8438,1145.5,646.8438,1141.5,642.8438" style="stroke:#A52A2A;stroke-width:1.0;"/><text fill="#000000" font-family="sans-serif" font-size="13" lengthAdjust="spacing" textLength="310" x="1141.5" y="624.9873">ensureOperationIsNotScheduled(OperationRequestID)</text><polygon fill="#A52A2A" points="1872,674.1953,1882,678.1953,1872,682.1953,1876,678.1953" style="stroke:#A52A2A;stroke-width:1.0;"/><line style="stroke:#A52A2A;stroke-width:1.0;" x1="1134.5" x2="1878" y1="678.1953" y2="678.1953"/><text fill="#000000" font-family="sans-serif" font-size="13" lengthAdjust="spacing" textLength="292" x="1141.5" y="673.3389">checkIfOperationIsScheduled(OperationRequestID)</text><polygon fill="#A52A2A" points="1145.5,704.5469,1135.5,708.5469,1145.5,712.5469,1141.5,708.5469" style="stroke:#A52A2A;stroke-width:1.0;"/><line style="stroke:#A52A2A;stroke-width:1.0;stroke-dasharray:2.0,2.0;" x1="1139.5" x2="1888" y1="708.5469" y2="708.5469"/><text fill="#000000" font-family="sans-serif" font-size="13" lengthAdjust="spacing" textLength="27" x="1151.5" y="703.6904">false</text><line style="stroke:#A52A2A;stroke-width:1.0;stroke-dasharray:2.0,2.0;" x1="1134.5" x2="1176.5" y1="743.8984" y2="743.8984"/><line style="stroke:#A52A2A;stroke-width:1.0;stroke-dasharray:2.0,2.0;" x1="1176.5" x2="1176.5" y1="743.8984" y2="756.8984"/><line style="stroke:#A52A2A;stroke-width:1.0;stroke-dasharray:2.0,2.0;" x1="1129.5" x2="1176.5" y1="756.8984" y2="756.8984"/><polygon fill="#A52A2A" points="1139.5,752.8984,1129.5,756.8984,1139.5,760.8984,1135.5,756.8984" style="stroke:#A52A2A;stroke-width:1.0;"/><text fill="#000000" font-family="sans-serif" font-size="13" lengthAdjust="spacing" textLength="27" x="1141.5" y="739.042">false</text><polygon fill="#A52A2A" points="1542.5,778.25,1552.5,782.25,1542.5,786.25,1546.5,782.25" style="stroke:#A52A2A;stroke-width:1.0;"/><line style="stroke:#A52A2A;stroke-width:1.0;" x1="1129.5" x2="1548.5" y1="782.25" y2="782.25"/><text fill="#000000" font-family="sans-serif" font-size="13" lengthAdjust="spacing" textLength="254" x="1136.5" y="777.3936">removeOperationRequest(operationRequest)</text><polygon fill="#A52A2A" points="1140.5,808.6016,1130.5,812.6016,1140.5,816.6016,1136.5,812.6016" style="stroke:#A52A2A;stroke-width:1.0;"/><line style="stroke:#A52A2A;stroke-width:1.0;stroke-dasharray:2.0,2.0;" x1="1134.5" x2="1558.5" y1="812.6016" y2="812.6016"/><text fill="#000000" font-family="sans-serif" font-size="13" lengthAdjust="spacing" textLength="22" x="1146.5" y="807.7451">true</text><polygon fill="#A52A2A" points="2047.5,838.9531,2057.5,842.9531,2047.5,846.9531,2051.5,842.9531" style="stroke:#A52A2A;stroke-width:1.0;"/><line style="stroke:#A52A2A;stroke-width:1.0;" x1="1129.5" x2="2053.5" y1="842.9531" y2="842.9531"/><text fill="#000000" font-family="sans-serif" font-size="13" lengthAdjust="spacing" textLength="297" x="1136.5" y="838.0967">notifyOperationRequestRemoved(operationRequest)</text><polygon fill="#A52A2A" points="1140.5,852.9531,1130.5,856.9531,1140.5,860.9531,1136.5,856.9531" style="stroke:#A52A2A;stroke-width:1.0;"/><line style="stroke:#A52A2A;stroke-width:1.0;stroke-dasharray:2.0,2.0;" x1="1134.5" x2="2063.5" y1="856.9531" y2="856.9531"/><polygon fill="#A52A2A" points="608,883.3047,598,887.3047,608,891.3047,604,887.3047" style="stroke:#A52A2A;stroke-width:1.0;"/><line style="stroke:#A52A2A;stroke-width:1.0;stroke-dasharray:2.0,2.0;" x1="602" x2="1123.5" y1="887.3047" y2="887.3047"/><text fill="#000000" font-family="sans-serif" font-size="13" lengthAdjust="spacing" textLength="22" x="614" y="882.4482">true</text><polygon fill="#A52A2A" points="310,913.6563,300,917.6563,310,921.6563,306,917.6563" style="stroke:#A52A2A;stroke-width:1.0;"/><line style="stroke:#A52A2A;stroke-width:1.0;stroke-dasharray:2.0,2.0;" x1="304" x2="591" y1="917.6563" y2="917.6563"/><text fill="#000000" font-family="sans-serif" font-size="13" lengthAdjust="spacing" textLength="22" x="316" y="912.7998">true</text><polygon fill="#A52A2A" points="45,944.0078,35,948.0078,45,952.0078,41,948.0078" style="stroke:#A52A2A;stroke-width:1.0;"/><line style="stroke:#A52A2A;stroke-width:1.0;stroke-dasharray:2.0,2.0;" x1="39" x2="288" y1="948.0078" y2="948.0078"/><text fill="#000000" font-family="sans-serif" font-size="13" lengthAdjust="spacing" textLength="231" x="51" y="943.1514">Operation request removed successfully</text><!--SRC=[rLJBRjim4BphAuYSN209caE1meS2iboW19pO4ECFOCILGeGcLP9ou1RzzwvUjaJ5JgxnGHQqixCxEqjwwHMGBIFVRkzkxxwJ6n8xmidIPDxOQqB9AzUUU4CixCmU2DV4b62vbqRZjz-LTB9-ZoBt8dN9BT-HJ77dOk-jVAeyqCne9ly0-Jh1aByHmTzAvh2I6XR62h29KSPY0w80kr0LZ24yUocigRHeOV5ciw99_4ZN3mqkZA-mQvqyopp75cj0RArvRMCBV6i_3WipBeI2DlPls769rBm0vWyuC0kPvxfGCDB4hVW4adXjBRbgBRuYt7LkHn7Ay3AJPMtvLTeOlkxDJj5hS7vBcumj7OD3M6AqjqOfQ0kiqsICZol_pC3kPGOD86RZEFCyprCe3MwNiOS6mzBBDOTywvHT1WVSw_GTyWuLg2XB8xNVWGxvuW2vKLnhgOjx8oe5L7kmEUzwtTpJg755xhc7endjFxdvWSEUawwDmKaS7qEC3JZGdcXBwroS_BpB22NDmWzq-MN0KNiMuQDcYTcSW7QLXTeub2ipX8Yj0_kBkzGec8cctI41UXh5ZDpqNNYBcny960461Ghm4_QVEoxLx18hr8Xpj2oTarngqSwIBXU7bh196hBYRaKiFR6ABc54N8CwOjolisFjSw_9UmDk6cKjNzTfcB8uqEMxHZLzzTrZOoR0ZrHqS7QKiUTA2enCIeCokd2FfftUG5V8VrvLFyaKN6cqaq-u_Ex8DCwhqquQ9jkoxjk-W61ZPUtA7dLHzs0yovwXFeDYzd5tOjI1QTaBpGTa7sN2ko2A1yfohbnm449fKyXaMSuitsLhmaLvOuIdvS1xQKwqyJ8_J6_FkhYuMAsvrl1nh3Ogr4HFcfFpTYODfBu3tq0axJs7W7P9vwSprr-BtQG4SLMMWNDvfTGXUllt7m00]--></g></svg>