<?xml version="1.0" encoding="us-ascii" standalone="no"?><svg xmlns="http://www.w3.org/2000/svg" xmlns:xlink="http://www.w3.org/1999/xlink" contentStyleType="text/css" height="1007px" preserveAspectRatio="none" style="width:2018px;height:1007px;background:#FFFFFF;" version="1.1" viewBox="0 0 2018 1007" width="2018px" zoomAndPan="magnify"><defs/><g><text fill="#000000" font-family="sans-serif" font-size="14" font-weight="bold" lengthAdjust="spacing" textLength="132" x="942.25" y="29.5332">Sequence Diagram</text><rect fill="#FFFFFF" height="776.0859" style="stroke:#181818;stroke-width:1.0;" width="10" x="25" y="131.2188"/><rect fill="#FFFFFF" height="762.7344" style="stroke:#181818;stroke-width:1.0;" width="10" x="258" y="153.5703"/><rect fill="#FFFFFF" height="709.3828" style="stroke:#181818;stroke-width:1.0;" width="10" x="652" y="183.9219"/><rect fill="#FFFFFF" height="665.0313" style="stroke:#181818;stroke-width:1.0;" width="10" x="835" y="214.2734"/><rect fill="#FFFFFF" height="91.0547" style="stroke:#181818;stroke-width:1.0;" width="10" x="966" y="512.7891"/><rect fill="#FFFFFF" height="151.7578" style="stroke:#181818;stroke-width:1.0;" width="10" x="1122" y="269.9766"/><rect fill="#FFFFFF" height="91.0547" style="stroke:#181818;stroke-width:1.0;" width="10" x="1308.5" y="300.3281"/><rect fill="#FFFFFF" height="102.7031" style="stroke:#181818;stroke-width:1.0;" width="10" x="1454.5" y="739.25"/><rect fill="#FFFFFF" height="58.3516" style="stroke:#181818;stroke-width:1.0;" width="10" x="1643.5" y="769.6016"/><rect fill="#FFFFFF" height="30.3516" style="stroke:#181818;stroke-width:1.0;" width="10" x="1766" y="452.0859"/><rect fill="#FFFFFF" height="30.3516" style="stroke:#181818;stroke-width:1.0;" width="10" x="1766" y="634.1953"/><rect fill="#FFFFFF" height="14" style="stroke:#181818;stroke-width:1.0;" width="10" x="1864.5" y="694.8984"/><rect fill="#FFFFFF" height="30.3516" style="stroke:#181818;stroke-width:1.0;" width="10" x="1937.5" y="330.6797"/><rect fill="#FFFFFF" height="30.3516" style="stroke:#181818;stroke-width:1.0;" width="10" x="1937.5" y="543.1406"/><rect fill="#FFFFFF" height="14" style="stroke:#181818;stroke-width:1.0;" width="10" x="1937.5" y="799.9531"/><rect fill="none" height="620.6797" style="stroke:#000000;stroke-width:1.5;" width="1209" x="777.5" y="229.2734"/><line style="stroke:#181818;stroke-width:0.5;stroke-dasharray:5.0,5.0;" x1="30" x2="30" y1="121.2188" y2="925.3047"/><line style="stroke:#181818;stroke-width:0.5;stroke-dasharray:5.0,5.0;" x1="263" x2="263" y1="121.2188" y2="925.3047"/><line style="stroke:#181818;stroke-width:0.5;stroke-dasharray:5.0,5.0;" x1="657" x2="657" y1="121.2188" y2="925.3047"/><line style="stroke:#181818;stroke-width:0.5;stroke-dasharray:5.0,5.0;" x1="839.5" x2="839.5" y1="121.2188" y2="925.3047"/><line style="stroke:#181818;stroke-width:0.5;stroke-dasharray:5.0,5.0;" x1="971" x2="971" y1="121.2188" y2="925.3047"/><line style="stroke:#181818;stroke-width:0.5;stroke-dasharray:5.0,5.0;" x1="1127" x2="1127" y1="121.2188" y2="925.3047"/><line style="stroke:#181818;stroke-width:0.5;stroke-dasharray:5.0,5.0;" x1="1313" x2="1313" y1="121.2188" y2="925.3047"/><line style="stroke:#181818;stroke-width:0.5;stroke-dasharray:5.0,5.0;" x1="1459" x2="1459" y1="121.2188" y2="925.3047"/><line style="stroke:#181818;stroke-width:0.5;stroke-dasharray:5.0,5.0;" x1="1648.5" x2="1648.5" y1="121.2188" y2="925.3047"/><line style="stroke:#181818;stroke-width:0.5;stroke-dasharray:5.0,5.0;" x1="1770.5" x2="1770.5" y1="121.2188" y2="925.3047"/><line style="stroke:#181818;stroke-width:0.5;stroke-dasharray:5.0,5.0;" x1="1869.5" x2="1869.5" y1="121.2188" y2="925.3047"/><line style="stroke:#181818;stroke-width:0.5;stroke-dasharray:5.0,5.0;" x1="1942.5" x2="1942.5" y1="121.2188" y2="925.3047"/><line style="stroke:#181818;stroke-width:0.5;stroke-dasharray:5.0,5.0;" x1="1999.5" x2="1999.5" y1="121.2188" y2="925.3047"/><text fill="#000000" font-family="sans-serif" font-size="14" lengthAdjust="spacing" textLength="44" x="5" y="118.1426">Patient</text><ellipse cx="30" cy="52.1094" fill="#E2E2F0" rx="8" ry="8" style="stroke:#181818;stroke-width:0.5;"/><path d="M30,60.1094 L30,87.1094 M17,68.1094 L43,68.1094 M30,87.1094 L17,102.1094 M30,87.1094 L43,102.1094 " fill="none" style="stroke:#181818;stroke-width:0.5;"/><text fill="#000000" font-family="sans-serif" font-size="14" lengthAdjust="spacing" textLength="44" x="5" y="938.8379">Patient</text><ellipse cx="30" cy="950.4141" fill="#E2E2F0" rx="8" ry="8" style="stroke:#181818;stroke-width:0.5;"/><path d="M30,958.4141 L30,985.4141 M17,966.4141 L43,966.4141 M30,985.4141 L17,1000.4141 M30,985.4141 L43,1000.4141 " fill="none" style="stroke:#181818;stroke-width:0.5;"/><rect fill="#E2E2F0" height="31.6094" rx="2.5" ry="2.5" style="stroke:#181818;stroke-width:0.5;" width="52" x="237" y="88.6094"/><text fill="#000000" font-family="sans-serif" font-size="14" lengthAdjust="spacing" textLength="38" x="244" y="110.1426">Route</text><rect fill="#E2E2F0" height="31.6094" rx="2.5" ry="2.5" style="stroke:#181818;stroke-width:0.5;" width="52" x="237" y="924.3047"/><text fill="#000000" font-family="sans-serif" font-size="14" lengthAdjust="spacing" textLength="38" x="244" y="945.8379">Route</text><rect fill="#E2E2F0" height="31.6094" rx="2.5" ry="2.5" style="stroke:#181818;stroke-width:0.5;" width="120" x="597" y="88.6094"/><text fill="#000000" font-family="sans-serif" font-size="14" lengthAdjust="spacing" textLength="106" x="604" y="110.1426">PatientController</text><rect fill="#E2E2F0" height="31.6094" rx="2.5" ry="2.5" style="stroke:#181818;stroke-width:0.5;" width="120" x="597" y="924.3047"/><text fill="#000000" font-family="sans-serif" font-size="14" lengthAdjust="spacing" textLength="106" x="604" y="945.8379">PatientController</text><rect fill="#E2E2F0" height="31.6094" rx="2.5" ry="2.5" style="stroke:#181818;stroke-width:0.5;" width="105" x="787.5" y="88.6094"/><text fill="#000000" font-family="sans-serif" font-size="14" lengthAdjust="spacing" textLength="91" x="794.5" y="110.1426">PatientService</text><rect fill="#E2E2F0" height="31.6094" rx="2.5" ry="2.5" style="stroke:#181818;stroke-width:0.5;" width="105" x="787.5" y="924.3047"/><text fill="#000000" font-family="sans-serif" font-size="14" lengthAdjust="spacing" textLength="91" x="794.5" y="945.8379">PatientService</text><rect fill="#E2E2F0" height="31.6094" rx="2.5" ry="2.5" style="stroke:#181818;stroke-width:0.5;" width="126" x="908" y="88.6094"/><text fill="#000000" font-family="sans-serif" font-size="14" lengthAdjust="spacing" textLength="112" x="915" y="110.1426">PatientRepository</text><rect fill="#E2E2F0" height="31.6094" rx="2.5" ry="2.5" style="stroke:#181818;stroke-width:0.5;" width="126" x="908" y="924.3047"/><text fill="#000000" font-family="sans-serif" font-size="14" lengthAdjust="spacing" textLength="112" x="915" y="945.8379">PatientRepository</text><rect fill="#E2E2F0" height="31.6094" rx="2.5" ry="2.5" style="stroke:#181818;stroke-width:0.5;" width="166" x="1044" y="88.6094"/><text fill="#000000" font-family="sans-serif" font-size="14" lengthAdjust="spacing" textLength="152" x="1051" y="110.1426">PendingRequestService</text><rect fill="#E2E2F0" height="31.6094" rx="2.5" ry="2.5" style="stroke:#181818;stroke-width:0.5;" width="166" x="1044" y="924.3047"/><text fill="#000000" font-family="sans-serif" font-size="14" lengthAdjust="spacing" textLength="152" x="1051" y="945.8379">PendingRequestService</text><rect fill="#E2E2F0" height="31.6094" rx="2.5" ry="2.5" style="stroke:#181818;stroke-width:0.5;" width="187" x="1220" y="88.6094"/><text fill="#000000" font-family="sans-serif" font-size="14" lengthAdjust="spacing" textLength="173" x="1227" y="110.1426">PendingRequestRepository</text><rect fill="#E2E2F0" height="31.6094" rx="2.5" ry="2.5" style="stroke:#181818;stroke-width:0.5;" width="187" x="1220" y="924.3047"/><text fill="#000000" font-family="sans-serif" font-size="14" lengthAdjust="spacing" textLength="173" x="1227" y="945.8379">PendingRequestRepository</text><rect fill="#E2E2F0" height="31.6094" rx="2.5" ry="2.5" style="stroke:#181818;stroke-width:0.5;" width="85" x="1417" y="88.6094"/><text fill="#000000" font-family="sans-serif" font-size="14" lengthAdjust="spacing" textLength="71" x="1424" y="110.1426">LogService</text><rect fill="#E2E2F0" height="31.6094" rx="2.5" ry="2.5" style="stroke:#181818;stroke-width:0.5;" width="85" x="1417" y="924.3047"/><text fill="#000000" font-family="sans-serif" font-size="14" lengthAdjust="spacing" textLength="71" x="1424" y="945.8379">LogService</text><rect fill="#E2E2F0" height="31.6094" rx="2.5" ry="2.5" style="stroke:#181818;stroke-width:0.5;" width="106" x="1595.5" y="88.6094"/><text fill="#000000" font-family="sans-serif" font-size="14" lengthAdjust="spacing" textLength="92" x="1602.5" y="110.1426">LogRepository</text><rect fill="#E2E2F0" height="31.6094" rx="2.5" ry="2.5" style="stroke:#181818;stroke-width:0.5;" width="106" x="1595.5" y="924.3047"/><text fill="#000000" font-family="sans-serif" font-size="14" lengthAdjust="spacing" textLength="92" x="1602.5" y="945.8379">LogRepository</text><rect fill="#E2E2F0" height="31.6094" rx="2.5" ry="2.5" style="stroke:#181818;stroke-width:0.5;" width="119" x="1711.5" y="88.6094"/><text fill="#000000" font-family="sans-serif" font-size="14" lengthAdjust="spacing" textLength="105" x="1718.5" y="110.1426">PendingRequest</text><rect fill="#E2E2F0" height="31.6094" rx="2.5" ry="2.5" style="stroke:#181818;stroke-width:0.5;" width="119" x="1711.5" y="924.3047"/><text fill="#000000" font-family="sans-serif" font-size="14" lengthAdjust="spacing" textLength="105" x="1718.5" y="945.8379">PendingRequest</text><rect fill="#E2E2F0" height="31.6094" rx="2.5" ry="2.5" style="stroke:#181818;stroke-width:0.5;" width="58" x="1840.5" y="88.6094"/><text fill="#000000" font-family="sans-serif" font-size="14" lengthAdjust="spacing" textLength="44" x="1847.5" y="110.1426">Patient</text><rect fill="#E2E2F0" height="31.6094" rx="2.5" ry="2.5" style="stroke:#181818;stroke-width:0.5;" width="58" x="1840.5" y="924.3047"/><text fill="#000000" font-family="sans-serif" font-size="14" lengthAdjust="spacing" textLength="44" x="1847.5" y="945.8379">Patient</text><text fill="#000000" font-family="sans-serif" font-size="14" lengthAdjust="spacing" textLength="62" x="1908.5" y="118.1426">DataBase</text><path d="M1924.5,67.6094 C1924.5,57.6094 1942.5,57.6094 1942.5,57.6094 C1942.5,57.6094 1960.5,57.6094 1960.5,67.6094 L1960.5,93.6094 C1960.5,103.6094 1942.5,103.6094 1942.5,103.6094 C1942.5,103.6094 1924.5,103.6094 1924.5,93.6094 L1924.5,67.6094 " fill="#E2E2F0" style="stroke:#181818;stroke-width:1.5;"/><path d="M1924.5,67.6094 C1924.5,77.6094 1942.5,77.6094 1942.5,77.6094 C1942.5,77.6094 1960.5,77.6094 1960.5,67.6094 " fill="none" style="stroke:#181818;stroke-width:1.5;"/><text fill="#000000" font-family="sans-serif" font-size="14" lengthAdjust="spacing" textLength="62" x="1908.5" y="938.8379">DataBase</text><path d="M1924.5,951.9141 C1924.5,941.9141 1942.5,941.9141 1942.5,941.9141 C1942.5,941.9141 1960.5,941.9141 1960.5,951.9141 L1960.5,977.9141 C1960.5,987.9141 1942.5,987.9141 1942.5,987.9141 C1942.5,987.9141 1924.5,987.9141 1924.5,977.9141 L1924.5,951.9141 " fill="#E2E2F0" style="stroke:#181818;stroke-width:1.5;"/><path d="M1924.5,951.9141 C1924.5,961.9141 1942.5,961.9141 1942.5,961.9141 C1942.5,961.9141 1960.5,961.9141 1960.5,951.9141 " fill="none" style="stroke:#181818;stroke-width:1.5;"/><rect fill="#E2E2F0" height="31.6094" rx="2.5" ry="2.5" style="stroke:#181818;stroke-width:0.5;" width="26" x="1986.5" y="88.6094"/><text fill="#000000" font-family="sans-serif" font-size="14" lengthAdjust="spacing" textLength="12" x="1993.5" y="110.1426">Ui</text><rect fill="#E2E2F0" height="31.6094" rx="2.5" ry="2.5" style="stroke:#181818;stroke-width:0.5;" width="26" x="1986.5" y="924.3047"/><text fill="#000000" font-family="sans-serif" font-size="14" lengthAdjust="spacing" textLength="12" x="1993.5" y="945.8379">Ui</text><rect fill="#FFFFFF" height="776.0859" style="stroke:#181818;stroke-width:1.0;" width="10" x="25" y="131.2188"/><rect fill="#FFFFFF" height="762.7344" style="stroke:#181818;stroke-width:1.0;" width="10" x="258" y="153.5703"/><rect fill="#FFFFFF" height="709.3828" style="stroke:#181818;stroke-width:1.0;" width="10" x="652" y="183.9219"/><rect fill="#FFFFFF" height="665.0313" style="stroke:#181818;stroke-width:1.0;" width="10" x="835" y="214.2734"/><rect fill="#FFFFFF" height="91.0547" style="stroke:#181818;stroke-width:1.0;" width="10" x="966" y="512.7891"/><rect fill="#FFFFFF" height="151.7578" style="stroke:#181818;stroke-width:1.0;" width="10" x="1122" y="269.9766"/><rect fill="#FFFFFF" height="91.0547" style="stroke:#181818;stroke-width:1.0;" width="10" x="1308.5" y="300.3281"/><rect fill="#FFFFFF" height="102.7031" style="stroke:#181818;stroke-width:1.0;" width="10" x="1454.5" y="739.25"/><rect fill="#FFFFFF" height="58.3516" style="stroke:#181818;stroke-width:1.0;" width="10" x="1643.5" y="769.6016"/><rect fill="#FFFFFF" height="30.3516" style="stroke:#181818;stroke-width:1.0;" width="10" x="1766" y="452.0859"/><rect fill="#FFFFFF" height="30.3516" style="stroke:#181818;stroke-width:1.0;" width="10" x="1766" y="634.1953"/><rect fill="#FFFFFF" height="14" style="stroke:#181818;stroke-width:1.0;" width="10" x="1864.5" y="694.8984"/><rect fill="#FFFFFF" height="30.3516" style="stroke:#181818;stroke-width:1.0;" width="10" x="1937.5" y="330.6797"/><rect fill="#FFFFFF" height="30.3516" style="stroke:#181818;stroke-width:1.0;" width="10" x="1937.5" y="543.1406"/><rect fill="#FFFFFF" height="14" style="stroke:#181818;stroke-width:1.0;" width="10" x="1937.5" y="799.9531"/><polygon fill="#A52A2A" points="246,149.5703,256,153.5703,246,157.5703,250,153.5703" style="stroke:#A52A2A;stroke-width:1.0;"/><line style="stroke:#A52A2A;stroke-width:1.0;" x1="35" x2="252" y1="153.5703" y2="153.5703"/><text fill="#000000" font-family="sans-serif" font-size="13" lengthAdjust="spacing" textLength="204" x="42" y="148.7139">HttpGet("acceptPendingRequests")</text><polygon fill="#A52A2A" points="640,179.9219,650,183.9219,640,187.9219,644,183.9219" style="stroke:#A52A2A;stroke-width:1.0;"/><line style="stroke:#A52A2A;stroke-width:1.0;" x1="268" x2="646" y1="183.9219" y2="183.9219"/><text fill="#000000" font-family="sans-serif" font-size="13" lengthAdjust="spacing" textLength="365" x="275" y="179.0654">AcceptPatientPendingRequests([FromQuery] string requestIds)</text><polygon fill="#A52A2A" points="823,210.2734,833,214.2734,823,218.2734,827,214.2734" style="stroke:#A52A2A;stroke-width:1.0;"/><line style="stroke:#A52A2A;stroke-width:1.0;" x1="662" x2="829" y1="214.2734" y2="214.2734"/><text fill="#000000" font-family="sans-serif" font-size="13" lengthAdjust="spacing" textLength="154" x="669" y="209.417">AcceptRequests(requests)</text><path d="M777.5,229.2734 L850.5,229.2734 L850.5,237.625 L840.5,247.625 L777.5,247.625 L777.5,229.2734 " fill="#EEEEEE" style="stroke:#000000;stroke-width:1.5;"/><rect fill="none" height="620.6797" style="stroke:#000000;stroke-width:1.5;" width="1209" x="777.5" y="229.2734"/><text fill="#000000" font-family="sans-serif" font-size="13" font-weight="bold" lengthAdjust="spacing" textLength="28" x="792.5" y="243.7686">loop</text><text fill="#000000" font-family="sans-serif" font-size="11" font-weight="bold" lengthAdjust="spacing" textLength="148" x="865.5" y="242.6924">[for each pending request]</text><polygon fill="#A52A2A" points="1110,265.9766,1120,269.9766,1110,273.9766,1114,269.9766" style="stroke:#A52A2A;stroke-width:1.0;"/><line style="stroke:#A52A2A;stroke-width:1.0;" x1="845" x2="1116" y1="269.9766" y2="269.9766"/><text fill="#000000" font-family="sans-serif" font-size="13" lengthAdjust="spacing" textLength="147" x="852" y="265.1201">GetByIdAsync(requestID)</text><polygon fill="#A52A2A" points="1296.5,296.3281,1306.5,300.3281,1296.5,304.3281,1300.5,300.3281" style="stroke:#A52A2A;stroke-width:1.0;"/><line style="stroke:#A52A2A;stroke-width:1.0;" x1="1132" x2="1302.5" y1="300.3281" y2="300.3281"/><text fill="#000000" font-family="sans-serif" font-size="13" lengthAdjust="spacing" textLength="147" x="1139" y="295.4717">GetByIdAsync(requestID)</text><polygon fill="#A52A2A" points="1925.5,326.6797,1935.5,330.6797,1925.5,334.6797,1929.5,330.6797" style="stroke:#A52A2A;stroke-width:1.0;"/><line style="stroke:#A52A2A;stroke-width:1.0;" x1="1318.5" x2="1931.5" y1="330.6797" y2="330.6797"/><text fill="#000000" font-family="sans-serif" font-size="13" lengthAdjust="spacing" textLength="107" x="1325.5" y="325.8232">getById(requestID)</text><polygon fill="#A52A2A" points="1329.5,357.0313,1319.5,361.0313,1329.5,365.0313,1325.5,361.0313" style="stroke:#A52A2A;stroke-width:1.0;"/><line style="stroke:#A52A2A;stroke-width:1.0;stroke-dasharray:2.0,2.0;" x1="1323.5" x2="1941.5" y1="361.0313" y2="361.0313"/><text fill="#000000" font-family="sans-serif" font-size="13" lengthAdjust="spacing" textLength="93" x="1335.5" y="356.1748">pendingRequest</text><polygon fill="#A52A2A" points="1143,387.3828,1133,391.3828,1143,395.3828,1139,391.3828" style="stroke:#A52A2A;stroke-width:1.0;"/><line style="stroke:#A52A2A;stroke-width:1.0;stroke-dasharray:2.0,2.0;" x1="1137" x2="1312.5" y1="391.3828" y2="391.3828"/><text fill="#000000" font-family="sans-serif" font-size="13" lengthAdjust="spacing" textLength="93" x="1149" y="386.5264">pendingRequest</text><polygon fill="#A52A2A" points="856,417.7344,846,421.7344,856,425.7344,852,421.7344" style="stroke:#A52A2A;stroke-width:1.0;"/><line style="stroke:#A52A2A;stroke-width:1.0;stroke-dasharray:2.0,2.0;" x1="850" x2="1126" y1="421.7344" y2="421.7344"/><text fill="#000000" font-family="sans-serif" font-size="13" lengthAdjust="spacing" textLength="93" x="862" y="416.8779">pendingRequest</text><polygon fill="#A52A2A" points="1754,448.0859,1764,452.0859,1754,456.0859,1758,452.0859" style="stroke:#A52A2A;stroke-width:1.0;"/><line style="stroke:#A52A2A;stroke-width:1.0;" x1="845" x2="1760" y1="452.0859" y2="452.0859"/><text fill="#000000" font-family="sans-serif" font-size="13" lengthAdjust="spacing" textLength="79" x="852" y="447.2295">getPatientID()</text><polygon fill="#A52A2A" points="856,478.4375,846,482.4375,856,486.4375,852,482.4375" style="stroke:#A52A2A;stroke-width:1.0;"/><line style="stroke:#A52A2A;stroke-width:1.0;stroke-dasharray:2.0,2.0;" x1="850" x2="1770" y1="482.4375" y2="482.4375"/><text fill="#000000" font-family="sans-serif" font-size="13" lengthAdjust="spacing" textLength="33" x="862" y="477.5811">Value</text><polygon fill="#A52A2A" points="954,508.7891,964,512.7891,954,516.7891,958,512.7891" style="stroke:#A52A2A;stroke-width:1.0;"/><line style="stroke:#A52A2A;stroke-width:1.0;" x1="845" x2="960" y1="512.7891" y2="512.7891"/><text fill="#000000" font-family="sans-serif" font-size="13" lengthAdjust="spacing" textLength="102" x="852" y="507.9326">GetByIdAsync(id)</text><polygon fill="#A52A2A" points="1925.5,539.1406,1935.5,543.1406,1925.5,547.1406,1929.5,543.1406" style="stroke:#A52A2A;stroke-width:1.0;"/><line style="stroke:#A52A2A;stroke-width:1.0;" x1="976" x2="1931.5" y1="543.1406" y2="543.1406"/><text fill="#000000" font-family="sans-serif" font-size="13" lengthAdjust="spacing" textLength="62" x="983" y="538.2842">getById(id)</text><polygon fill="#A52A2A" points="987,569.4922,977,573.4922,987,577.4922,983,573.4922" style="stroke:#A52A2A;stroke-width:1.0;"/><line style="stroke:#A52A2A;stroke-width:1.0;stroke-dasharray:2.0,2.0;" x1="981" x2="1941.5" y1="573.4922" y2="573.4922"/><text fill="#000000" font-family="sans-serif" font-size="13" lengthAdjust="spacing" textLength="39" x="993" y="568.6357">patient</text><polygon fill="#A52A2A" points="856,599.8438,846,603.8438,856,607.8438,852,603.8438" style="stroke:#A52A2A;stroke-width:1.0;"/><line style="stroke:#A52A2A;stroke-width:1.0;stroke-dasharray:2.0,2.0;" x1="850" x2="970" y1="603.8438" y2="603.8438"/><text fill="#000000" font-family="sans-serif" font-size="13" lengthAdjust="spacing" textLength="39" x="862" y="598.9873">patient</text><polygon fill="#A52A2A" points="1754,630.1953,1764,634.1953,1754,638.1953,1758,634.1953" style="stroke:#A52A2A;stroke-width:1.0;"/><line style="stroke:#A52A2A;stroke-width:1.0;" x1="845" x2="1760" y1="634.1953" y2="634.1953"/><text fill="#000000" font-family="sans-serif" font-size="13" lengthAdjust="spacing" textLength="59" x="852" y="629.3389">getValue()</text><polygon fill="#A52A2A" points="856,660.5469,846,664.5469,856,668.5469,852,664.5469" style="stroke:#A52A2A;stroke-width:1.0;"/><line style="stroke:#A52A2A;stroke-width:1.0;stroke-dasharray:2.0,2.0;" x1="850" x2="1770" y1="664.5469" y2="664.5469"/><text fill="#000000" font-family="sans-serif" font-size="13" lengthAdjust="spacing" textLength="33" x="862" y="659.6904">Value</text><polygon fill="#A52A2A" points="1852.5,690.8984,1862.5,694.8984,1852.5,698.8984,1856.5,694.8984" style="stroke:#A52A2A;stroke-width:1.0;"/><line style="stroke:#A52A2A;stroke-width:1.0;" x1="845" x2="1858.5" y1="694.8984" y2="694.8984"/><text fill="#000000" font-family="sans-serif" font-size="13" lengthAdjust="spacing" textLength="135" x="852" y="690.042">changeXAttribute(value)</text><polygon fill="#A52A2A" points="856,704.8984,846,708.8984,856,712.8984,852,708.8984" style="stroke:#A52A2A;stroke-width:1.0;"/><line style="stroke:#A52A2A;stroke-width:1.0;stroke-dasharray:2.0,2.0;" x1="850" x2="1868.5" y1="708.8984" y2="708.8984"/><polygon fill="#A52A2A" points="1442.5,735.25,1452.5,739.25,1442.5,743.25,1446.5,739.25" style="stroke:#A52A2A;stroke-width:1.0;"/><line style="stroke:#A52A2A;stroke-width:1.0;" x1="845" x2="1448.5" y1="739.25" y2="739.25"/><text fill="#000000" font-family="sans-serif" font-size="13" lengthAdjust="spacing" textLength="160" x="852" y="734.3936">CreateLogAsync(log, email)</text><polygon fill="#A52A2A" points="1631.5,765.6016,1641.5,769.6016,1631.5,773.6016,1635.5,769.6016" style="stroke:#A52A2A;stroke-width:1.0;"/><line style="stroke:#A52A2A;stroke-width:1.0;" x1="1464.5" x2="1637.5" y1="769.6016" y2="769.6016"/><text fill="#000000" font-family="sans-serif" font-size="13" lengthAdjust="spacing" textLength="160" x="1471.5" y="764.7451">CreateLogAsync(log, email)</text><polygon fill="#A52A2A" points="1925.5,795.9531,1935.5,799.9531,1925.5,803.9531,1929.5,799.9531" style="stroke:#A52A2A;stroke-width:1.0;"/><line style="stroke:#A52A2A;stroke-width:1.0;" x1="1653.5" x2="1931.5" y1="799.9531" y2="799.9531"/><text fill="#000000" font-family="sans-serif" font-size="13" lengthAdjust="spacing" textLength="46" x="1660.5" y="795.0967">add(log)</text><polygon fill="#A52A2A" points="1664.5,809.9531,1654.5,813.9531,1664.5,817.9531,1660.5,813.9531" style="stroke:#A52A2A;stroke-width:1.0;"/><line style="stroke:#A52A2A;stroke-width:1.0;stroke-dasharray:2.0,2.0;" x1="1658.5" x2="1941.5" y1="813.9531" y2="813.9531"/><polygon fill="#A52A2A" points="1475.5,823.9531,1465.5,827.9531,1475.5,831.9531,1471.5,827.9531" style="stroke:#A52A2A;stroke-width:1.0;"/><line style="stroke:#A52A2A;stroke-width:1.0;stroke-dasharray:2.0,2.0;" x1="1469.5" x2="1647.5" y1="827.9531" y2="827.9531"/><polygon fill="#A52A2A" points="856,837.9531,846,841.9531,856,845.9531,852,841.9531" style="stroke:#A52A2A;stroke-width:1.0;"/><line style="stroke:#A52A2A;stroke-width:1.0;stroke-dasharray:2.0,2.0;" x1="850" x2="1458.5" y1="841.9531" y2="841.9531"/><polygon fill="#A52A2A" points="673,875.3047,663,879.3047,673,883.3047,669,879.3047" style="stroke:#A52A2A;stroke-width:1.0;"/><line style="stroke:#A52A2A;stroke-width:1.0;stroke-dasharray:2.0,2.0;" x1="667" x2="839" y1="879.3047" y2="879.3047"/><text fill="#000000" font-family="sans-serif" font-size="13" lengthAdjust="spacing" textLength="22" x="679" y="874.4482">true</text><polygon fill="#A52A2A" points="279,889.3047,269,893.3047,279,897.3047,275,893.3047" style="stroke:#A52A2A;stroke-width:1.0;"/><line style="stroke:#A52A2A;stroke-width:1.0;stroke-dasharray:2.0,2.0;" x1="273" x2="656" y1="893.3047" y2="893.3047"/><polygon fill="#A52A2A" points="41,903.3047,31,907.3047,41,911.3047,37,907.3047" style="stroke:#A52A2A;stroke-width:1.0;"/><line style="stroke:#A52A2A;stroke-width:1.0;stroke-dasharray:2.0,2.0;" x1="35" x2="257" y1="907.3047" y2="907.3047"/><!--SRC=[rPLDZzCm48Rl_XMZdeh4IfnxGEg7W4WLB0cBa107rvwcrgPsSDn51V7VcTX9QvkesWCNScYSp3ElvyEPEkKQX0g_dr0BX8tYjUL7ODsZqYtlbwBXNRTqpghToM4XZAxKJuHNB6VW5mEwjcgFMwLnPQn4kpQDiR0niaQxQawO8bmyrjQSj0pOylv-MwoNdueFxpsNsxTuD7fzKFkzqHvOMcj-1DkALk5bl775fMmms7x74RSapMkit9dIjoWSrtM3IKxSolyW9IuSlRpdJg5sZ49tIgYMQmUpqb33Pi0xU2XIou2lZNRMD0rQJrqV9-aAxPCIGV3KeQqcgH9RqocAwNm1omn4BPMko_xCTObgYxgwnMRQX9SivRUcZWNxnx-0JAL_SslJSQl9R2yvCiaTt_4EORQXrOfMtYPtlaNgYJkyT6cumzrhwim2tZdNlaKtdt4Xi7NfzjtinLM0-lXGz6xNLYsMmIb8Phxphs-iENuyeJr_Wuu-OLtJOVUsGdQHSDJwwxBVo3SQ5X1skUWE8h54E1AiCQQ5FHr9vEBGrqr6cp8Mz4Yux_K2AEtLkP3Bxgp5A5fi8jLm9EXdy2dXUKubyp0voHsvrC5bagOM4NCtw2_6c8TScSIO3Af3_70B7eEeF3xMyIPVfVK9SG-TBJRpD4FenHFjpxoVHgbafEW_nRnyIcOjB865MrwwXBpMpCEKrt2qqseDIcECarYO41E9-tJ-HT8B40SQx_ZbyYysV-gziin3uf5u7cKasmyMsdnjaOpq48hPcFebu96h9fBsCyZpmQzylb_9F3zsWWP_ZoPjWB4FdipA7xo7S6FRg1sTpSnSCJgeC2QSJ1oAnDcqva4XdXn-jCL8PFGpZ81n3CROWugVne4vSVq1]--></g></svg>