<?xml version="1.0" encoding="us-ascii" standalone="no"?><svg xmlns="http://www.w3.org/2000/svg" xmlns:xlink="http://www.w3.org/1999/xlink" contentStyleType="text/css" height="688px" preserveAspectRatio="none" style="width:1407px;height:688px;background:#FFFFFF;" version="1.1" viewBox="0 0 1407 688" width="1407px" zoomAndPan="magnify"><defs/><g><text fill="#000000" font-family="sans-serif" font-size="14" font-weight="bold" lengthAdjust="spacing" textLength="431" x="487.25" y="29.5332">US 5.1.20 - As an Admin, I want to add new types of operations</text><rect fill="#FFFFFF" height="466.1797" style="stroke:#181818;stroke-width:1.0;" width="10" x="22.5" y="131.2188"/><rect fill="#FFFFFF" height="443.8281" style="stroke:#181818;stroke-width:1.0;" width="10" x="260.5" y="153.5703"/><rect fill="#FFFFFF" height="374.125" style="stroke:#181818;stroke-width:1.0;" width="10" x="431.5" y="183.9219"/><rect fill="#FFFFFF" height="30.3516" style="stroke:#181818;stroke-width:1.0;" width="10" x="703.5" y="214.2734"/><rect fill="#FFFFFF" height="252.7188" style="stroke:#181818;stroke-width:1.0;" width="10" x="840.5" y="274.9766"/><rect fill="#FFFFFF" height="32.6094" style="stroke:#181818;stroke-width:1.0;" width="10" x="1055" y="376.0313"/><rect fill="#FFFFFF" height="30.3516" style="stroke:#181818;stroke-width:1.0;" width="10" x="1210" y="305.3281"/><rect fill="#FFFFFF" height="14" style="stroke:#181818;stroke-width:1.0;" width="10" x="1210" y="438.9922"/><rect fill="#FFFFFF" height="14" style="stroke:#181818;stroke-width:1.0;" width="10" x="1353.5" y="483.3438"/><line style="stroke:#181818;stroke-width:0.5;stroke-dasharray:5.0,5.0;" x1="27" x2="27" y1="121.2188" y2="606.3984"/><line style="stroke:#181818;stroke-width:0.5;stroke-dasharray:5.0,5.0;" x1="265.5" x2="265.5" y1="121.2188" y2="606.3984"/><line style="stroke:#181818;stroke-width:0.5;stroke-dasharray:5.0,5.0;" x1="436" x2="436" y1="121.2188" y2="606.3984"/><line style="stroke:#181818;stroke-width:0.5;stroke-dasharray:5.0,5.0;" x1="708.5" x2="708.5" y1="121.2188" y2="606.3984"/><line style="stroke:#181818;stroke-width:0.5;stroke-dasharray:5.0,5.0;" x1="845.5" x2="845.5" y1="121.2188" y2="606.3984"/><line style="stroke:#181818;stroke-width:0.5;stroke-dasharray:5.0,5.0;" x1="1059.5" x2="1059.5" y1="374.9844" y2="606.3984"/><line style="stroke:#181818;stroke-width:0.5;stroke-dasharray:5.0,5.0;" x1="1214.5" x2="1214.5" y1="121.2188" y2="606.3984"/><line style="stroke:#181818;stroke-width:0.5;stroke-dasharray:5.0,5.0;" x1="1358.5" x2="1358.5" y1="121.2188" y2="606.3984"/><text fill="#000000" font-family="sans-serif" font-size="14" lengthAdjust="spacing" textLength="39" x="5" y="118.1426">Admin</text><ellipse cx="27.5" cy="52.1094" fill="#E2E2F0" rx="8" ry="8" style="stroke:#181818;stroke-width:0.5;"/><path d="M27.5,60.1094 L27.5,87.1094 M14.5,68.1094 L40.5,68.1094 M27.5,87.1094 L14.5,102.1094 M27.5,87.1094 L40.5,102.1094 " fill="none" style="stroke:#181818;stroke-width:0.5;"/><text fill="#000000" font-family="sans-serif" font-size="14" lengthAdjust="spacing" textLength="39" x="5" y="619.9316">Admin</text><ellipse cx="27.5" cy="631.5078" fill="#E2E2F0" rx="8" ry="8" style="stroke:#181818;stroke-width:0.5;"/><path d="M27.5,639.5078 L27.5,666.5078 M14.5,647.5078 L40.5,647.5078 M27.5,666.5078 L14.5,681.5078 M27.5,666.5078 L40.5,681.5078 " fill="none" style="stroke:#181818;stroke-width:0.5;"/><rect fill="#E2E2F0" height="31.6094" rx="2.5" ry="2.5" style="stroke:#181818;stroke-width:0.5;" width="52" x="239.5" y="88.6094"/><text fill="#000000" font-family="sans-serif" font-size="14" lengthAdjust="spacing" textLength="38" x="246.5" y="110.1426">Route</text><rect fill="#E2E2F0" height="31.6094" rx="2.5" ry="2.5" style="stroke:#181818;stroke-width:0.5;" width="52" x="239.5" y="605.3984"/><text fill="#000000" font-family="sans-serif" font-size="14" lengthAdjust="spacing" textLength="38" x="246.5" y="626.9316">Route</text><rect fill="#E2E2F0" height="31.6094" rx="2.5" ry="2.5" style="stroke:#181818;stroke-width:0.5;" width="175" x="349" y="88.6094"/><text fill="#000000" font-family="sans-serif" font-size="14" lengthAdjust="spacing" textLength="161" x="356" y="110.1426">:OperationTypeController</text><rect fill="#E2E2F0" height="31.6094" rx="2.5" ry="2.5" style="stroke:#181818;stroke-width:0.5;" width="175" x="349" y="605.3984"/><text fill="#000000" font-family="sans-serif" font-size="14" lengthAdjust="spacing" textLength="161" x="356" y="626.9316">:OperationTypeController</text><rect fill="#E2E2F0" height="31.6094" rx="2.5" ry="2.5" style="stroke:#181818;stroke-width:0.5;" width="94" x="661.5" y="88.6094"/><text fill="#000000" font-family="sans-serif" font-size="14" lengthAdjust="spacing" textLength="80" x="668.5" y="110.1426">:AuthService</text><rect fill="#E2E2F0" height="31.6094" rx="2.5" ry="2.5" style="stroke:#181818;stroke-width:0.5;" width="94" x="661.5" y="605.3984"/><text fill="#000000" font-family="sans-serif" font-size="14" lengthAdjust="spacing" textLength="80" x="668.5" y="626.9316">:AuthService</text><rect fill="#E2E2F0" height="31.6094" rx="2.5" ry="2.5" style="stroke:#181818;stroke-width:0.5;" width="160" x="765.5" y="88.6094"/><text fill="#000000" font-family="sans-serif" font-size="14" lengthAdjust="spacing" textLength="146" x="772.5" y="110.1426">:OperationTypeService</text><rect fill="#E2E2F0" height="31.6094" rx="2.5" ry="2.5" style="stroke:#181818;stroke-width:0.5;" width="160" x="765.5" y="605.3984"/><text fill="#000000" font-family="sans-serif" font-size="14" lengthAdjust="spacing" textLength="146" x="772.5" y="626.9316">:OperationTypeService</text><rect fill="#E2E2F0" height="31.6094" rx="2.5" ry="2.5" style="stroke:#181818;stroke-width:0.5;" width="109" x="1005.5" y="605.3984"/><text fill="#000000" font-family="sans-serif" font-size="14" lengthAdjust="spacing" textLength="95" x="1012.5" y="626.9316">OperationType</text><rect fill="#E2E2F0" height="31.6094" rx="2.5" ry="2.5" style="stroke:#181818;stroke-width:0.5;" width="181" x="1124.5" y="88.6094"/><text fill="#000000" font-family="sans-serif" font-size="14" lengthAdjust="spacing" textLength="167" x="1131.5" y="110.1426">:OperationTypeRepository</text><rect fill="#E2E2F0" height="31.6094" rx="2.5" ry="2.5" style="stroke:#181818;stroke-width:0.5;" width="181" x="1124.5" y="605.3984"/><text fill="#000000" font-family="sans-serif" font-size="14" lengthAdjust="spacing" textLength="167" x="1131.5" y="626.9316">:OperationTypeRepository</text><rect fill="#E2E2F0" height="31.6094" rx="2.5" ry="2.5" style="stroke:#181818;stroke-width:0.5;" width="86" x="1315.5" y="88.6094"/><text fill="#000000" font-family="sans-serif" font-size="14" lengthAdjust="spacing" textLength="72" x="1322.5" y="110.1426">:LogServce</text><rect fill="#E2E2F0" height="31.6094" rx="2.5" ry="2.5" style="stroke:#181818;stroke-width:0.5;" width="86" x="1315.5" y="605.3984"/><text fill="#000000" font-family="sans-serif" font-size="14" lengthAdjust="spacing" textLength="72" x="1322.5" y="626.9316">:LogServce</text><rect fill="#FFFFFF" height="466.1797" style="stroke:#181818;stroke-width:1.0;" width="10" x="22.5" y="131.2188"/><rect fill="#FFFFFF" height="443.8281" style="stroke:#181818;stroke-width:1.0;" width="10" x="260.5" y="153.5703"/><rect fill="#FFFFFF" height="374.125" style="stroke:#181818;stroke-width:1.0;" width="10" x="431.5" y="183.9219"/><rect fill="#FFFFFF" height="30.3516" style="stroke:#181818;stroke-width:1.0;" width="10" x="703.5" y="214.2734"/><rect fill="#FFFFFF" height="252.7188" style="stroke:#181818;stroke-width:1.0;" width="10" x="840.5" y="274.9766"/><rect fill="#FFFFFF" height="32.6094" style="stroke:#181818;stroke-width:1.0;" width="10" x="1055" y="376.0313"/><rect fill="#FFFFFF" height="30.3516" style="stroke:#181818;stroke-width:1.0;" width="10" x="1210" y="305.3281"/><rect fill="#FFFFFF" height="14" style="stroke:#181818;stroke-width:1.0;" width="10" x="1210" y="438.9922"/><rect fill="#FFFFFF" height="14" style="stroke:#181818;stroke-width:1.0;" width="10" x="1353.5" y="483.3438"/><polygon fill="#A52A2A" points="248.5,149.5703,258.5,153.5703,248.5,157.5703,252.5,153.5703" style="stroke:#A52A2A;stroke-width:1.0;"/><line style="stroke:#A52A2A;stroke-width:1.0;" x1="32.5" x2="254.5" y1="153.5703" y2="153.5703"/><text fill="#000000" font-family="sans-serif" font-size="13" lengthAdjust="spacing" textLength="190" x="39.5" y="148.7139">POST /api/OperationType/Create</text><polygon fill="#A52A2A" points="419.5,179.9219,429.5,183.9219,419.5,187.9219,423.5,183.9219" style="stroke:#A52A2A;stroke-width:1.0;"/><line style="stroke:#A52A2A;stroke-width:1.0;" x1="270.5" x2="425.5" y1="183.9219" y2="183.9219"/><text fill="#000000" font-family="sans-serif" font-size="13" lengthAdjust="spacing" textLength="142" x="277.5" y="179.0654">CreateOperationType(...)</text><polygon fill="#A52A2A" points="691.5,210.2734,701.5,214.2734,691.5,218.2734,695.5,214.2734" style="stroke:#A52A2A;stroke-width:1.0;"/><line style="stroke:#A52A2A;stroke-width:1.0;" x1="441.5" x2="697.5" y1="214.2734" y2="214.2734"/><text fill="#000000" font-family="sans-serif" font-size="13" lengthAdjust="spacing" textLength="243" x="448.5" y="209.417">getAuthenticatedUserEmail(accessToken)</text><polygon fill="#A52A2A" points="452.5,240.625,442.5,244.625,452.5,248.625,448.5,244.625" style="stroke:#A52A2A;stroke-width:1.0;"/><line style="stroke:#A52A2A;stroke-width:1.0;stroke-dasharray:2.0,2.0;" x1="446.5" x2="707.5" y1="244.625" y2="244.625"/><text fill="#000000" font-family="sans-serif" font-size="13" lengthAdjust="spacing" textLength="68" x="458.5" y="239.7686">adminEmail</text><polygon fill="#A52A2A" points="828.5,270.9766,838.5,274.9766,828.5,278.9766,832.5,274.9766" style="stroke:#A52A2A;stroke-width:1.0;"/><line style="stroke:#A52A2A;stroke-width:1.0;" x1="441.5" x2="834.5" y1="274.9766" y2="274.9766"/><text fill="#000000" font-family="sans-serif" font-size="13" lengthAdjust="spacing" textLength="322" x="448.5" y="270.1201">createOperationTypeAsync(operationType, adminEmail)</text><polygon fill="#A52A2A" points="1198,301.3281,1208,305.3281,1198,309.3281,1202,305.3281" style="stroke:#A52A2A;stroke-width:1.0;"/><line style="stroke:#A52A2A;stroke-width:1.0;" x1="850.5" x2="1204" y1="305.3281" y2="305.3281"/><text fill="#000000" font-family="sans-serif" font-size="13" lengthAdjust="spacing" textLength="247" x="857.5" y="300.4717">OperationTypeExists(OperationTypeName)</text><polygon fill="#A52A2A" points="861.5,331.6797,851.5,335.6797,861.5,339.6797,857.5,335.6797" style="stroke:#A52A2A;stroke-width:1.0;"/><line style="stroke:#A52A2A;stroke-width:1.0;stroke-dasharray:2.0,2.0;" x1="855.5" x2="1214" y1="335.6797" y2="335.6797"/><text fill="#000000" font-family="sans-serif" font-size="13" lengthAdjust="spacing" textLength="27" x="867.5" y="330.8232">false</text><polygon fill="#A52A2A" points="993.5,362.0313,1003.5,366.0313,993.5,370.0313,997.5,366.0313" style="stroke:#A52A2A;stroke-width:1.0;"/><line style="stroke:#A52A2A;stroke-width:1.0;" x1="850.5" x2="999.5" y1="366.0313" y2="366.0313"/><text fill="#000000" font-family="sans-serif" font-size="13" lengthAdjust="spacing" textLength="131" x="857.5" y="361.1748">new OperationType(...)</text><rect fill="#E2E2F0" height="31.6094" rx="2.5" ry="2.5" style="stroke:#181818;stroke-width:0.5;" width="109" x="1005.5" y="343.6797"/><text fill="#000000" font-family="sans-serif" font-size="14" lengthAdjust="spacing" textLength="95" x="1012.5" y="365.2129">OperationType</text><polygon fill="#A52A2A" points="861.5,404.6406,851.5,408.6406,861.5,412.6406,857.5,408.6406" style="stroke:#A52A2A;stroke-width:1.0;"/><line style="stroke:#A52A2A;stroke-width:1.0;stroke-dasharray:2.0,2.0;" x1="855.5" x2="1059" y1="408.6406" y2="408.6406"/><text fill="#000000" font-family="sans-serif" font-size="13" lengthAdjust="spacing" textLength="81" x="867.5" y="403.7842">operationType</text><polygon fill="#A52A2A" points="1198,434.9922,1208,438.9922,1198,442.9922,1202,438.9922" style="stroke:#A52A2A;stroke-width:1.0;"/><line style="stroke:#A52A2A;stroke-width:1.0;" x1="850.5" x2="1204" y1="438.9922" y2="438.9922"/><text fill="#000000" font-family="sans-serif" font-size="13" lengthAdjust="spacing" textLength="149" x="857.5" y="434.1357">AddAsync(operationType)</text><polygon fill="#A52A2A" points="861.5,448.9922,851.5,452.9922,861.5,456.9922,857.5,452.9922" style="stroke:#A52A2A;stroke-width:1.0;"/><line style="stroke:#A52A2A;stroke-width:1.0;stroke-dasharray:2.0,2.0;" x1="855.5" x2="1214" y1="452.9922" y2="452.9922"/><polygon fill="#A52A2A" points="1341.5,479.3438,1351.5,483.3438,1341.5,487.3438,1345.5,483.3438" style="stroke:#A52A2A;stroke-width:1.0;"/><line style="stroke:#A52A2A;stroke-width:1.0;" x1="850.5" x2="1347.5" y1="483.3438" y2="483.3438"/><text fill="#000000" font-family="sans-serif" font-size="13" lengthAdjust="spacing" textLength="233" x="857.5" y="478.4873">CreateLogAsync(message, adminEmail)</text><polygon fill="#A52A2A" points="861.5,493.3438,851.5,497.3438,861.5,501.3438,857.5,497.3438" style="stroke:#A52A2A;stroke-width:1.0;"/><line style="stroke:#A52A2A;stroke-width:1.0;stroke-dasharray:2.0,2.0;" x1="855.5" x2="1357.5" y1="497.3438" y2="497.3438"/><polygon fill="#A52A2A" points="452.5,523.6953,442.5,527.6953,452.5,531.6953,448.5,527.6953" style="stroke:#A52A2A;stroke-width:1.0;"/><line style="stroke:#A52A2A;stroke-width:1.0;stroke-dasharray:2.0,2.0;" x1="446.5" x2="844.5" y1="527.6953" y2="527.6953"/><text fill="#000000" font-family="sans-serif" font-size="13" lengthAdjust="spacing" textLength="17" x="458.5" y="522.8389">Ok</text><polygon fill="#A52A2A" points="281.5,554.0469,271.5,558.0469,281.5,562.0469,277.5,558.0469" style="stroke:#A52A2A;stroke-width:1.0;"/><line style="stroke:#A52A2A;stroke-width:1.0;stroke-dasharray:2.0,2.0;" x1="275.5" x2="435.5" y1="558.0469" y2="558.0469"/><text fill="#000000" font-family="sans-serif" font-size="13" lengthAdjust="spacing" textLength="17" x="287.5" y="553.1904">Ok</text><polygon fill="#A52A2A" points="43.5,584.3984,33.5,588.3984,43.5,592.3984,39.5,588.3984" style="stroke:#A52A2A;stroke-width:1.0;"/><line style="stroke:#A52A2A;stroke-width:1.0;stroke-dasharray:2.0,2.0;" x1="37.5" x2="259.5" y1="588.3984" y2="588.3984"/><text fill="#000000" font-family="sans-serif" font-size="13" lengthAdjust="spacing" textLength="204" x="49.5" y="583.542">Operatio Type created successfully</text><!--SRC=[rLJ1Rjim3BthAuYSig99kW6x-310oNe843H1dNw0Pj6f45io9BbPDkpV9qjkBBbhi1sNIoZfaNny96s5hH2USlWy_pZ_T0Spe0QO1Cfh8MzX3IScBLW5Z7EGU09xRj20Aa4rg9aLIXf2p578XcbMGr4nOwYrMdnhBQuB9NFn0-7k3GP-4d2_ZIXn8oGkbUQeLwfI6hugVa2zh5fC8Qmu7hHg9GymkjjjrYkwNsyVF6xyli5QoTMpA4ibFO1ghKxXRUciS1adpbsH5OQtNp7ZneLc1ypjsOcbiR1C7YfCQcAQ_mSbiSAwoudlxWIO2Nqcn1LXHI6QhjcJH-LQvr-zbJvcszU-xzqah9IqMbKLQeyVZYCdsjhd7FMBA49Wcb-B6YDxEuKdQ0zBRgx5ViH66U5KE8SAByUHqqOTkjGzY_xK4V4YYXTcyLKy_mUpBq6k37RRV0yBreX5adcnqkYy8lyWB_5_dVyWNmO1d0IOpkVp3v5xf3OPx2uGpJCueErKH-cAScZ-P53VrqnKKrOKQCnU7L76uLnF2CrXDYB2kkgy8o4S4tIQj1SeW-8jTMhEifYg-EesYXpJkEZS6rxOIvUojDFttuMnPfhSFR0Quu1HYybW-pelb4jM6KpgYxqY9acccvlCVnElTYcTJ98SKn8gHKPaHZ7UKOPo_WUT_rMAlr5XM8VNGNKt8NVjHijzAj_hRhn8WvqmI0Z4-1WSJ-ZscBXSyF5u3jivGiTBr2zYjq0T-M7Mm3Shp3K7q_e5AjkgEfFV]--></g></svg>