<?xml version="1.0" encoding="us-ascii" standalone="no"?><svg xmlns="http://www.w3.org/2000/svg" xmlns:xlink="http://www.w3.org/1999/xlink" contentStyleType="text/css" height="801px" preserveAspectRatio="none" style="width:1141px;height:801px;background:#FFFFFF;" version="1.1" viewBox="0 0 1141 801" width="1141px" zoomAndPan="magnify"><defs/><g><text fill="#000000" font-family="sans-serif" font-size="14" font-weight="bold" lengthAdjust="spacing" textLength="535" x="304" y="29.5332">US 5.1.3 - As a Patient, I want to self-register so that I can use the application</text><rect fill="#FFFFFF" height="579.1641" style="stroke:#181818;stroke-width:1.0;" width="10" x="40" y="131.2188"/><rect fill="#FFFFFF" height="30.3516" style="stroke:#181818;stroke-width:1.0;" width="10" x="329" y="153.5703"/><rect fill="#FFFFFF" height="496.1094" style="stroke:#181818;stroke-width:1.0;" width="10" x="329" y="214.2734"/><rect fill="#FFFFFF" height="465.7578" style="stroke:#181818;stroke-width:1.0;" width="10" x="479" y="244.625"/><rect fill="#FFFFFF" height="435.4063" style="stroke:#181818;stroke-width:1.0;" width="10" x="623" y="274.9766"/><rect fill="#FFFFFF" height="405.0547" style="stroke:#181818;stroke-width:1.0;" width="10" x="767" y="305.3281"/><rect fill="#FFFFFF" height="374.7031" style="stroke:#181818;stroke-width:1.0;" width="10" x="945" y="335.6797"/><rect fill="#FFFFFF" height="14" style="stroke:#181818;stroke-width:1.0;" width="10" x="1069.5" y="558.9766"/><rect fill="none" height="321.3516" style="stroke:#000000;stroke-width:1.5;" width="1124" x="10" y="381.0313"/><line style="stroke:#181818;stroke-width:0.5;stroke-dasharray:5.0,5.0;" x1="45" x2="45" y1="121.2188" y2="719.3828"/><line style="stroke:#181818;stroke-width:0.5;stroke-dasharray:5.0,5.0;" x1="333.5" x2="333.5" y1="121.2188" y2="719.3828"/><line style="stroke:#181818;stroke-width:0.5;stroke-dasharray:5.0,5.0;" x1="483.5" x2="483.5" y1="121.2188" y2="719.3828"/><line style="stroke:#181818;stroke-width:0.5;stroke-dasharray:5.0,5.0;" x1="628" x2="628" y1="121.2188" y2="719.3828"/><line style="stroke:#181818;stroke-width:0.5;stroke-dasharray:5.0,5.0;" x1="771.5" x2="771.5" y1="121.2188" y2="719.3828"/><line style="stroke:#181818;stroke-width:0.5;stroke-dasharray:5.0,5.0;" x1="950" x2="950" y1="121.2188" y2="719.3828"/><line style="stroke:#181818;stroke-width:0.5;stroke-dasharray:5.0,5.0;" x1="1074" x2="1074" y1="121.2188" y2="719.3828"/><text fill="#000000" font-family="sans-serif" font-size="14" lengthAdjust="spacing" textLength="44" x="20" y="118.1426">Patient</text><ellipse cx="45" cy="52.1094" fill="#E2E2F0" rx="8" ry="8" style="stroke:#181818;stroke-width:0.5;"/><path d="M45,60.1094 L45,87.1094 M32,68.1094 L58,68.1094 M45,87.1094 L32,102.1094 M45,87.1094 L58,102.1094 " fill="none" style="stroke:#181818;stroke-width:0.5;"/><text fill="#000000" font-family="sans-serif" font-size="14" lengthAdjust="spacing" textLength="44" x="20" y="732.916">Patient</text><ellipse cx="45" cy="744.4922" fill="#E2E2F0" rx="8" ry="8" style="stroke:#181818;stroke-width:0.5;"/><path d="M45,752.4922 L45,779.4922 M32,760.4922 L58,760.4922 M45,779.4922 L32,794.4922 M45,779.4922 L58,794.4922 " fill="none" style="stroke:#181818;stroke-width:0.5;"/><rect fill="#E2E2F0" height="31.6094" rx="2.5" ry="2.5" style="stroke:#181818;stroke-width:0.5;" width="149" x="259.5" y="88.6094"/><text fill="#000000" font-family="sans-serif" font-size="14" lengthAdjust="spacing" textLength="135" x="266.5" y="110.1426">External IAM Provider</text><rect fill="#E2E2F0" height="31.6094" rx="2.5" ry="2.5" style="stroke:#181818;stroke-width:0.5;" width="149" x="259.5" y="718.3828"/><text fill="#000000" font-family="sans-serif" font-size="14" lengthAdjust="spacing" textLength="135" x="266.5" y="739.916">External IAM Provider</text><rect fill="#E2E2F0" height="31.6094" rx="2.5" ry="2.5" style="stroke:#181818;stroke-width:0.5;" width="35" x="466.5" y="88.6094"/><text fill="#000000" font-family="sans-serif" font-size="14" lengthAdjust="spacing" textLength="21" x="473.5" y="110.1426">API</text><rect fill="#E2E2F0" height="31.6094" rx="2.5" ry="2.5" style="stroke:#181818;stroke-width:0.5;" width="35" x="466.5" y="718.3828"/><text fill="#000000" font-family="sans-serif" font-size="14" lengthAdjust="spacing" textLength="21" x="473.5" y="739.916">API</text><rect fill="#E2E2F0" height="31.6094" rx="2.5" ry="2.5" style="stroke:#181818;stroke-width:0.5;" width="124" x="566" y="88.6094"/><text fill="#000000" font-family="sans-serif" font-size="14" lengthAdjust="spacing" textLength="110" x="573" y="110.1426">:PatientController</text><rect fill="#E2E2F0" height="31.6094" rx="2.5" ry="2.5" style="stroke:#181818;stroke-width:0.5;" width="124" x="566" y="718.3828"/><text fill="#000000" font-family="sans-serif" font-size="14" lengthAdjust="spacing" textLength="110" x="573" y="739.916">:PatientController</text><rect fill="#E2E2F0" height="31.6094" rx="2.5" ry="2.5" style="stroke:#181818;stroke-width:0.5;" width="109" x="717.5" y="88.6094"/><text fill="#000000" font-family="sans-serif" font-size="14" lengthAdjust="spacing" textLength="95" x="724.5" y="110.1426">:PatientService</text><rect fill="#E2E2F0" height="31.6094" rx="2.5" ry="2.5" style="stroke:#181818;stroke-width:0.5;" width="109" x="717.5" y="718.3828"/><text fill="#000000" font-family="sans-serif" font-size="14" lengthAdjust="spacing" textLength="95" x="724.5" y="739.916">:PatientService</text><rect fill="#E2E2F0" height="31.6094" rx="2.5" ry="2.5" style="stroke:#181818;stroke-width:0.5;" width="130" x="885" y="88.6094"/><text fill="#000000" font-family="sans-serif" font-size="14" lengthAdjust="spacing" textLength="116" x="892" y="110.1426">:PatientRepository</text><rect fill="#E2E2F0" height="31.6094" rx="2.5" ry="2.5" style="stroke:#181818;stroke-width:0.5;" width="130" x="885" y="718.3828"/><text fill="#000000" font-family="sans-serif" font-size="14" lengthAdjust="spacing" textLength="116" x="892" y="739.916">:PatientRepository</text><rect fill="#E2E2F0" height="31.6094" rx="2.5" ry="2.5" style="stroke:#181818;stroke-width:0.5;" width="99" x="1025" y="88.6094"/><text fill="#000000" font-family="sans-serif" font-size="14" lengthAdjust="spacing" textLength="85" x="1032" y="110.1426">:EmailService</text><rect fill="#E2E2F0" height="31.6094" rx="2.5" ry="2.5" style="stroke:#181818;stroke-width:0.5;" width="99" x="1025" y="718.3828"/><text fill="#000000" font-family="sans-serif" font-size="14" lengthAdjust="spacing" textLength="85" x="1032" y="739.916">:EmailService</text><rect fill="#FFFFFF" height="579.1641" style="stroke:#181818;stroke-width:1.0;" width="10" x="40" y="131.2188"/><rect fill="#FFFFFF" height="30.3516" style="stroke:#181818;stroke-width:1.0;" width="10" x="329" y="153.5703"/><rect fill="#FFFFFF" height="496.1094" style="stroke:#181818;stroke-width:1.0;" width="10" x="329" y="214.2734"/><rect fill="#FFFFFF" height="465.7578" style="stroke:#181818;stroke-width:1.0;" width="10" x="479" y="244.625"/><rect fill="#FFFFFF" height="435.4063" style="stroke:#181818;stroke-width:1.0;" width="10" x="623" y="274.9766"/><rect fill="#FFFFFF" height="405.0547" style="stroke:#181818;stroke-width:1.0;" width="10" x="767" y="305.3281"/><rect fill="#FFFFFF" height="374.7031" style="stroke:#181818;stroke-width:1.0;" width="10" x="945" y="335.6797"/><rect fill="#FFFFFF" height="14" style="stroke:#181818;stroke-width:1.0;" width="10" x="1069.5" y="558.9766"/><polygon fill="#A52A2A" points="317,149.5703,327,153.5703,317,157.5703,321,153.5703" style="stroke:#A52A2A;stroke-width:1.0;"/><line style="stroke:#A52A2A;stroke-width:1.0;" x1="50" x2="323" y1="153.5703" y2="153.5703"/><text fill="#000000" font-family="sans-serif" font-size="13" lengthAdjust="spacing" textLength="114" x="57" y="148.7139">Tries to self-register</text><polygon fill="#A52A2A" points="61,179.9219,51,183.9219,61,187.9219,57,183.9219" style="stroke:#A52A2A;stroke-width:1.0;"/><line style="stroke:#A52A2A;stroke-width:1.0;" x1="55" x2="333" y1="183.9219" y2="183.9219"/><text fill="#000000" font-family="sans-serif" font-size="13" lengthAdjust="spacing" textLength="121" x="67" y="179.0654">Asks for login details</text><polygon fill="#A52A2A" points="317,210.2734,327,214.2734,317,218.2734,321,214.2734" style="stroke:#A52A2A;stroke-width:1.0;"/><line style="stroke:#A52A2A;stroke-width:1.0;" x1="50" x2="323" y1="214.2734" y2="214.2734"/><text fill="#000000" font-family="sans-serif" font-size="13" lengthAdjust="spacing" textLength="122" x="57" y="209.417">Provides login details</text><polygon fill="#A52A2A" points="467,240.625,477,244.625,467,248.625,471,244.625" style="stroke:#A52A2A;stroke-width:1.0;"/><line style="stroke:#A52A2A;stroke-width:1.0;" x1="339" x2="473" y1="244.625" y2="244.625"/><text fill="#000000" font-family="sans-serif" font-size="13" lengthAdjust="spacing" textLength="121" x="346" y="239.7686">validate patient email</text><polygon fill="#A52A2A" points="611,270.9766,621,274.9766,611,278.9766,615,274.9766" style="stroke:#A52A2A;stroke-width:1.0;"/><line style="stroke:#A52A2A;stroke-width:1.0;" x1="489" x2="617" y1="274.9766" y2="274.9766"/><text fill="#000000" font-family="sans-serif" font-size="13" lengthAdjust="spacing" textLength="115" x="496" y="270.1201">validateEmail(email)</text><polygon fill="#A52A2A" points="755,301.3281,765,305.3281,755,309.3281,759,305.3281" style="stroke:#A52A2A;stroke-width:1.0;"/><line style="stroke:#A52A2A;stroke-width:1.0;" x1="633" x2="761" y1="305.3281" y2="305.3281"/><text fill="#000000" font-family="sans-serif" font-size="13" lengthAdjust="spacing" textLength="115" x="640" y="300.4717">validateEmail(email)</text><polygon fill="#A52A2A" points="933,331.6797,943,335.6797,933,339.6797,937,335.6797" style="stroke:#A52A2A;stroke-width:1.0;"/><line style="stroke:#A52A2A;stroke-width:1.0;" x1="777" x2="939" y1="335.6797" y2="335.6797"/><text fill="#000000" font-family="sans-serif" font-size="13" lengthAdjust="spacing" textLength="149" x="784" y="330.8232">findPatientByEmail(email)</text><polygon fill="#A52A2A" points="788,362.0313,778,366.0313,788,370.0313,784,366.0313" style="stroke:#A52A2A;stroke-width:1.0;"/><line style="stroke:#A52A2A;stroke-width:1.0;stroke-dasharray:2.0,2.0;" x1="782" x2="944" y1="366.0313" y2="366.0313"/><text fill="#000000" font-family="sans-serif" font-size="13" lengthAdjust="spacing" textLength="32" x="794" y="361.1748">result</text><path d="M10,381.0313 L71,381.0313 L71,389.3828 L61,399.3828 L10,399.3828 L10,381.0313 " fill="#EEEEEE" style="stroke:#000000;stroke-width:1.5;"/><rect fill="none" height="321.3516" style="stroke:#000000;stroke-width:1.5;" width="1124" x="10" y="381.0313"/><text fill="#000000" font-family="sans-serif" font-size="13" font-weight="bold" lengthAdjust="spacing" textLength="16" x="25" y="395.5264">alt</text><text fill="#000000" font-family="sans-serif" font-size="11" font-weight="bold" lengthAdjust="spacing" textLength="112" x="86" y="394.4502">["Patient not found"]</text><polygon fill="#A52A2A" points="644,417.7344,634,421.7344,644,425.7344,640,421.7344" style="stroke:#A52A2A;stroke-width:1.0;"/><line style="stroke:#A52A2A;stroke-width:1.0;stroke-dasharray:2.0,2.0;" x1="638" x2="766" y1="421.7344" y2="421.7344"/><text fill="#000000" font-family="sans-serif" font-size="13" lengthAdjust="spacing" textLength="27" x="650" y="416.8779">false</text><polygon fill="#A52A2A" points="500,448.0859,490,452.0859,500,456.0859,496,452.0859" style="stroke:#A52A2A;stroke-width:1.0;"/><line style="stroke:#A52A2A;stroke-width:1.0;stroke-dasharray:2.0,2.0;" x1="494" x2="622" y1="452.0859" y2="452.0859"/><text fill="#000000" font-family="sans-serif" font-size="13" lengthAdjust="spacing" textLength="27" x="506" y="447.2295">false</text><polygon fill="#A52A2A" points="350,478.4375,340,482.4375,350,486.4375,346,482.4375" style="stroke:#A52A2A;stroke-width:1.0;"/><line style="stroke:#A52A2A;stroke-width:1.0;stroke-dasharray:2.0,2.0;" x1="344" x2="478" y1="482.4375" y2="482.4375"/><text fill="#000000" font-family="sans-serif" font-size="13" lengthAdjust="spacing" textLength="27" x="356" y="477.5811">false</text><polygon fill="#A52A2A" points="61,508.7891,51,512.7891,61,516.7891,57,512.7891" style="stroke:#A52A2A;stroke-width:1.0;"/><line style="stroke:#A52A2A;stroke-width:1.0;stroke-dasharray:2.0,2.0;" x1="55" x2="328" y1="512.7891" y2="512.7891"/><text fill="#000000" font-family="sans-serif" font-size="13" lengthAdjust="spacing" textLength="149" x="67" y="507.9326">shows "Patient not found"</text><line style="stroke:#000000;stroke-width:1.0;stroke-dasharray:2.0,2.0;" x1="10" x2="1134" y1="521.7891" y2="521.7891"/><text fill="#000000" font-family="sans-serif" font-size="11" font-weight="bold" lengthAdjust="spacing" textLength="91" x="15" y="533.208">["Patient found"]</text><polygon fill="#A52A2A" points="1057.5,554.9766,1067.5,558.9766,1057.5,562.9766,1061.5,558.9766" style="stroke:#A52A2A;stroke-width:1.0;"/><line style="stroke:#A52A2A;stroke-width:1.0;" x1="777" x2="1063.5" y1="558.9766" y2="558.9766"/><text fill="#000000" font-family="sans-serif" font-size="13" lengthAdjust="spacing" textLength="210" x="784" y="554.1201">sendPatientRegistrationEmail(email)</text><polygon fill="#A52A2A" points="788,568.9766,778,572.9766,788,576.9766,784,572.9766" style="stroke:#A52A2A;stroke-width:1.0;"/><line style="stroke:#A52A2A;stroke-width:1.0;stroke-dasharray:2.0,2.0;" x1="782" x2="1073.5" y1="572.9766" y2="572.9766"/><polygon fill="#A52A2A" points="644,599.3281,634,603.3281,644,607.3281,640,603.3281" style="stroke:#A52A2A;stroke-width:1.0;"/><line style="stroke:#A52A2A;stroke-width:1.0;stroke-dasharray:2.0,2.0;" x1="638" x2="766" y1="603.3281" y2="603.3281"/><text fill="#000000" font-family="sans-serif" font-size="13" lengthAdjust="spacing" textLength="22" x="650" y="598.4717">true</text><polygon fill="#A52A2A" points="500,629.6797,490,633.6797,500,637.6797,496,633.6797" style="stroke:#A52A2A;stroke-width:1.0;"/><line style="stroke:#A52A2A;stroke-width:1.0;stroke-dasharray:2.0,2.0;" x1="494" x2="622" y1="633.6797" y2="633.6797"/><text fill="#000000" font-family="sans-serif" font-size="13" lengthAdjust="spacing" textLength="22" x="506" y="628.8232">true</text><polygon fill="#A52A2A" points="350,660.0313,340,664.0313,350,668.0313,346,664.0313" style="stroke:#A52A2A;stroke-width:1.0;"/><line style="stroke:#A52A2A;stroke-width:1.0;stroke-dasharray:2.0,2.0;" x1="344" x2="478" y1="664.0313" y2="664.0313"/><text fill="#000000" font-family="sans-serif" font-size="13" lengthAdjust="spacing" textLength="22" x="356" y="659.1748">true</text><polygon fill="#A52A2A" points="61,690.3828,51,694.3828,61,698.3828,57,694.3828" style="stroke:#A52A2A;stroke-width:1.0;"/><line style="stroke:#A52A2A;stroke-width:1.0;stroke-dasharray:2.0,2.0;" x1="55" x2="328" y1="694.3828" y2="694.3828"/><text fill="#000000" font-family="sans-serif" font-size="13" lengthAdjust="spacing" textLength="255" x="67" y="689.5264">shows "User Registrered, check your email"</text><!--SRC=[rPJFZjem4CRlVeeHfrPQLgsgNZYi558EaMWRaTq7S9D9i31sP4-WjEgxT-na8G5MFPS3VsQ-ySplyn1If15U2lZy-F7n4ymXyI0XbwJGq0DaS9I6W2nurFNSOQCyeGDlWRQIE5zA0vr7_eaWsrQhackj4SBlb6cbatiejVG-8NBgHqUObTOKwXV2XniD_1R0hxMgSQqCBgshqALMMmTVRDMWM-eEfn9PxXfdErFriYJFrrcQF6VVlqNTTNwDUslIhQfh7Z484kViiSyj-LiV73SkP5Lfx7D_nXEtVBHiiA0J6-Ym96aQZHCcwQh_04cMnC7PSESpa1vo8HY1LAdQSFsprK- -T2CrPCbNo9qzA3uiAZambIPv5XFyEKqiXWQfDUIiriC1UNfVLg0xg19xJN5Viy7MUiNJdthPvagssakbnmUjYeYh3f8mGEOmVme82tXs2ltDde_K0LG4VAx85_mtsNcesJTj6sMWGk9MNeWAfnMN3eDj_hhYRWTsRm47gLKLCcsF2nXuHXN1Oy5lSQRqKX2vtqNr-p5molEaKLpyMynMvKKKRnPGArCDfYzFRrLik683y-5yXxxJn7bDv-K2OubTuzsTYRYMeSCmV2srno6QncWqOHIEfAzsZkBHi_vQ_DOU_VrsoFfBvdg89zuDBiSpvYQkW8iFiobmA3b3XuqAWLLn1ky3eqLurOnWoNLtM2_H2UebV4lwulbfFCoA3gi7ABTOxk1aEzVloqmmb9Y-_W80]--></g></svg>