<?xml version="1.0" encoding="us-ascii" standalone="no"?><svg xmlns="http://www.w3.org/2000/svg" xmlns:xlink="http://www.w3.org/1999/xlink" contentStyleType="text/css" height="710px" preserveAspectRatio="none" style="width:1301px;height:710px;background:#FFFFFF;" version="1.1" viewBox="0 0 1301 710" width="1301px" zoomAndPan="magnify"><defs/><g><text fill="#000000" font-family="sans-serif" font-size="14" font-weight="bold" lengthAdjust="spacing" textLength="535" x="384" y="29.5332">US 5.1.3 - As a Patient, I want to self-register so that I can use the application</text><rect fill="#FFFFFF" height="488.1094" style="stroke:#181818;stroke-width:1.0;" width="10" x="40" y="131.2188"/><rect fill="#FFFFFF" height="449.4063" style="stroke:#181818;stroke-width:1.0;" width="10" x="332" y="169.9219"/><rect fill="#FFFFFF" height="372.7031" style="stroke:#181818;stroke-width:1.0;" width="10" x="567" y="200.2734"/><rect fill="#FFFFFF" height="312" style="stroke:#181818;stroke-width:1.0;" width="10" x="802" y="230.625"/><rect fill="#FFFFFF" height="30.3516" style="stroke:#181818;stroke-width:1.0;" width="10" x="946" y="260.9766"/><rect fill="#FFFFFF" height="14" style="stroke:#181818;stroke-width:1.0;" width="10" x="1095.5" y="453.9219"/><rect fill="#FFFFFF" height="14" style="stroke:#181818;stroke-width:1.0;" width="10" x="1229.5" y="498.2734"/><rect fill="none" height="305" style="stroke:#000000;stroke-width:1.5;" width="1284" x="10" y="306.3281"/><line style="stroke:#181818;stroke-width:0.5;stroke-dasharray:5.0,5.0;" x1="45" x2="45" y1="121.2188" y2="628.3281"/><line style="stroke:#181818;stroke-width:0.5;stroke-dasharray:5.0,5.0;" x1="336.5" x2="336.5" y1="121.2188" y2="628.3281"/><line style="stroke:#181818;stroke-width:0.5;stroke-dasharray:5.0,5.0;" x1="572" x2="572" y1="121.2188" y2="628.3281"/><line style="stroke:#181818;stroke-width:0.5;stroke-dasharray:5.0,5.0;" x1="806.5" x2="806.5" y1="121.2188" y2="628.3281"/><line style="stroke:#181818;stroke-width:0.5;stroke-dasharray:5.0,5.0;" x1="951" x2="951" y1="121.2188" y2="628.3281"/><line style="stroke:#181818;stroke-width:0.5;stroke-dasharray:5.0,5.0;" x1="1100" x2="1100" y1="121.2188" y2="628.3281"/><line style="stroke:#181818;stroke-width:0.5;stroke-dasharray:5.0,5.0;" x1="1234" x2="1234" y1="121.2188" y2="628.3281"/><text fill="#000000" font-family="sans-serif" font-size="14" lengthAdjust="spacing" textLength="44" x="20" y="118.1426">Patient</text><ellipse cx="45" cy="52.1094" fill="#E2E2F0" rx="8" ry="8" style="stroke:#181818;stroke-width:0.5;"/><path d="M45,60.1094 L45,87.1094 M32,68.1094 L58,68.1094 M45,87.1094 L32,102.1094 M45,87.1094 L58,102.1094 " fill="none" style="stroke:#181818;stroke-width:0.5;"/><text fill="#000000" font-family="sans-serif" font-size="14" lengthAdjust="spacing" textLength="44" x="20" y="641.8613">Patient</text><ellipse cx="45" cy="653.4375" fill="#E2E2F0" rx="8" ry="8" style="stroke:#181818;stroke-width:0.5;"/><path d="M45,661.4375 L45,688.4375 M32,669.4375 L58,669.4375 M45,688.4375 L32,703.4375 M45,688.4375 L58,703.4375 " fill="none" style="stroke:#181818;stroke-width:0.5;"/><rect fill="#E2E2F0" height="31.6094" rx="2.5" ry="2.5" style="stroke:#181818;stroke-width:0.5;" width="35" x="319.5" y="88.6094"/><text fill="#000000" font-family="sans-serif" font-size="14" lengthAdjust="spacing" textLength="21" x="326.5" y="110.1426">API</text><rect fill="#E2E2F0" height="31.6094" rx="2.5" ry="2.5" style="stroke:#181818;stroke-width:0.5;" width="35" x="319.5" y="627.3281"/><text fill="#000000" font-family="sans-serif" font-size="14" lengthAdjust="spacing" textLength="21" x="326.5" y="648.8613">API</text><rect fill="#E2E2F0" height="31.6094" rx="2.5" ry="2.5" style="stroke:#181818;stroke-width:0.5;" width="124" x="510" y="88.6094"/><text fill="#000000" font-family="sans-serif" font-size="14" lengthAdjust="spacing" textLength="110" x="517" y="110.1426">:PatientController</text><rect fill="#E2E2F0" height="31.6094" rx="2.5" ry="2.5" style="stroke:#181818;stroke-width:0.5;" width="124" x="510" y="627.3281"/><text fill="#000000" font-family="sans-serif" font-size="14" lengthAdjust="spacing" textLength="110" x="517" y="648.8613">:PatientController</text><rect fill="#E2E2F0" height="31.6094" rx="2.5" ry="2.5" style="stroke:#181818;stroke-width:0.5;" width="109" x="752.5" y="88.6094"/><text fill="#000000" font-family="sans-serif" font-size="14" lengthAdjust="spacing" textLength="95" x="759.5" y="110.1426">:PatientService</text><rect fill="#E2E2F0" height="31.6094" rx="2.5" ry="2.5" style="stroke:#181818;stroke-width:0.5;" width="109" x="752.5" y="627.3281"/><text fill="#000000" font-family="sans-serif" font-size="14" lengthAdjust="spacing" textLength="95" x="759.5" y="648.8613">:PatientService</text><rect fill="#E2E2F0" height="31.6094" rx="2.5" ry="2.5" style="stroke:#181818;stroke-width:0.5;" width="130" x="886" y="88.6094"/><text fill="#000000" font-family="sans-serif" font-size="14" lengthAdjust="spacing" textLength="116" x="893" y="110.1426">:PatientRepository</text><rect fill="#E2E2F0" height="31.6094" rx="2.5" ry="2.5" style="stroke:#181818;stroke-width:0.5;" width="130" x="886" y="627.3281"/><text fill="#000000" font-family="sans-serif" font-size="14" lengthAdjust="spacing" textLength="116" x="893" y="648.8613">:PatientRepository</text><rect fill="#E2E2F0" height="31.6094" rx="2.5" ry="2.5" style="stroke:#181818;stroke-width:0.5;" width="149" x="1026" y="88.6094"/><text fill="#000000" font-family="sans-serif" font-size="14" lengthAdjust="spacing" textLength="135" x="1033" y="110.1426">External IAM Provider</text><rect fill="#E2E2F0" height="31.6094" rx="2.5" ry="2.5" style="stroke:#181818;stroke-width:0.5;" width="149" x="1026" y="627.3281"/><text fill="#000000" font-family="sans-serif" font-size="14" lengthAdjust="spacing" textLength="135" x="1033" y="648.8613">External IAM Provider</text><rect fill="#E2E2F0" height="31.6094" rx="2.5" ry="2.5" style="stroke:#181818;stroke-width:0.5;" width="99" x="1185" y="88.6094"/><text fill="#000000" font-family="sans-serif" font-size="14" lengthAdjust="spacing" textLength="85" x="1192" y="110.1426">:EmailService</text><rect fill="#E2E2F0" height="31.6094" rx="2.5" ry="2.5" style="stroke:#181818;stroke-width:0.5;" width="99" x="1185" y="627.3281"/><text fill="#000000" font-family="sans-serif" font-size="14" lengthAdjust="spacing" textLength="85" x="1192" y="648.8613">:EmailService</text><rect fill="#FFFFFF" height="488.1094" style="stroke:#181818;stroke-width:1.0;" width="10" x="40" y="131.2188"/><rect fill="#FFFFFF" height="449.4063" style="stroke:#181818;stroke-width:1.0;" width="10" x="332" y="169.9219"/><rect fill="#FFFFFF" height="372.7031" style="stroke:#181818;stroke-width:1.0;" width="10" x="567" y="200.2734"/><rect fill="#FFFFFF" height="312" style="stroke:#181818;stroke-width:1.0;" width="10" x="802" y="230.625"/><rect fill="#FFFFFF" height="30.3516" style="stroke:#181818;stroke-width:1.0;" width="10" x="946" y="260.9766"/><rect fill="#FFFFFF" height="14" style="stroke:#181818;stroke-width:1.0;" width="10" x="1095.5" y="453.9219"/><rect fill="#FFFFFF" height="14" style="stroke:#181818;stroke-width:1.0;" width="10" x="1229.5" y="498.2734"/><polygon fill="#A52A2A" points="320,165.9219,330,169.9219,320,173.9219,324,169.9219" style="stroke:#A52A2A;stroke-width:1.0;"/><line style="stroke:#A52A2A;stroke-width:1.0;" x1="50" x2="326" y1="169.9219" y2="169.9219"/><text fill="#000000" font-family="sans-serif" font-size="13" lengthAdjust="spacing" textLength="196" x="57" y="148.7139">Tries to self-register (sends email,</text><text fill="#000000" font-family="sans-serif" font-size="13" lengthAdjust="spacing" textLength="161" x="57" y="165.0654">patient email, password, ...)</text><polygon fill="#A52A2A" points="555,196.2734,565,200.2734,555,204.2734,559,200.2734" style="stroke:#A52A2A;stroke-width:1.0;"/><line style="stroke:#A52A2A;stroke-width:1.0;" x1="342" x2="561" y1="200.2734" y2="200.2734"/><text fill="#000000" font-family="sans-serif" font-size="13" lengthAdjust="spacing" textLength="206" x="349" y="195.417">registerPatient(email, password, ...)</text><polygon fill="#A52A2A" points="790,226.625,800,230.625,790,234.625,794,230.625" style="stroke:#A52A2A;stroke-width:1.0;"/><line style="stroke:#A52A2A;stroke-width:1.0;" x1="577" x2="796" y1="230.625" y2="230.625"/><text fill="#000000" font-family="sans-serif" font-size="13" lengthAdjust="spacing" textLength="206" x="584" y="225.7686">registerPatient(email, password, ...)</text><polygon fill="#A52A2A" points="934,256.9766,944,260.9766,934,264.9766,938,260.9766" style="stroke:#A52A2A;stroke-width:1.0;"/><line style="stroke:#A52A2A;stroke-width:1.0;" x1="812" x2="940" y1="260.9766" y2="260.9766"/><text fill="#000000" font-family="sans-serif" font-size="13" lengthAdjust="spacing" textLength="115" x="819" y="256.1201">patientExists(email)</text><polygon fill="#A52A2A" points="823,287.3281,813,291.3281,823,295.3281,819,291.3281" style="stroke:#A52A2A;stroke-width:1.0;"/><line style="stroke:#A52A2A;stroke-width:1.0;stroke-dasharray:2.0,2.0;" x1="817" x2="950" y1="291.3281" y2="291.3281"/><text fill="#000000" font-family="sans-serif" font-size="13" lengthAdjust="spacing" textLength="32" x="829" y="286.4717">result</text><path d="M10,306.3281 L71,306.3281 L71,314.6797 L61,324.6797 L10,324.6797 L10,306.3281 " fill="#EEEEEE" style="stroke:#000000;stroke-width:1.5;"/><rect fill="none" height="305" style="stroke:#000000;stroke-width:1.5;" width="1284" x="10" y="306.3281"/><text fill="#000000" font-family="sans-serif" font-size="13" font-weight="bold" lengthAdjust="spacing" textLength="16" x="25" y="320.8232">alt</text><text fill="#000000" font-family="sans-serif" font-size="11" font-weight="bold" lengthAdjust="spacing" textLength="112" x="86" y="319.7471">["Patient not found"]</text><polygon fill="#A52A2A" points="588,343.0313,578,347.0313,588,351.0313,584,347.0313" style="stroke:#A52A2A;stroke-width:1.0;"/><line style="stroke:#A52A2A;stroke-width:1.0;stroke-dasharray:2.0,2.0;" x1="582" x2="801" y1="347.0313" y2="347.0313"/><text fill="#000000" font-family="sans-serif" font-size="13" lengthAdjust="spacing" textLength="27" x="594" y="342.1748">false</text><polygon fill="#A52A2A" points="353,373.3828,343,377.3828,353,381.3828,349,377.3828" style="stroke:#A52A2A;stroke-width:1.0;"/><line style="stroke:#A52A2A;stroke-width:1.0;stroke-dasharray:2.0,2.0;" x1="347" x2="566" y1="377.3828" y2="377.3828"/><text fill="#000000" font-family="sans-serif" font-size="13" lengthAdjust="spacing" textLength="27" x="359" y="372.5264">false</text><polygon fill="#A52A2A" points="61,403.7344,51,407.7344,61,411.7344,57,407.7344" style="stroke:#A52A2A;stroke-width:1.0;"/><line style="stroke:#A52A2A;stroke-width:1.0;stroke-dasharray:2.0,2.0;" x1="55" x2="331" y1="407.7344" y2="407.7344"/><text fill="#000000" font-family="sans-serif" font-size="13" lengthAdjust="spacing" textLength="152" x="67" y="402.8779">returns "Patient not found"</text><line style="stroke:#000000;stroke-width:1.0;stroke-dasharray:2.0,2.0;" x1="10" x2="1294" y1="416.7344" y2="416.7344"/><text fill="#000000" font-family="sans-serif" font-size="11" font-weight="bold" lengthAdjust="spacing" textLength="91" x="15" y="428.1533">["Patient found"]</text><polygon fill="#A52A2A" points="1083.5,449.9219,1093.5,453.9219,1083.5,457.9219,1087.5,453.9219" style="stroke:#A52A2A;stroke-width:1.0;"/><line style="stroke:#A52A2A;stroke-width:1.0;" x1="812" x2="1089.5" y1="453.9219" y2="453.9219"/><text fill="#000000" font-family="sans-serif" font-size="13" lengthAdjust="spacing" textLength="230" x="819" y="449.0654">registers patient in IAM in pending state</text><polygon fill="#A52A2A" points="823,463.9219,813,467.9219,823,471.9219,819,467.9219" style="stroke:#A52A2A;stroke-width:1.0;"/><line style="stroke:#A52A2A;stroke-width:1.0;stroke-dasharray:2.0,2.0;" x1="817" x2="1099.5" y1="467.9219" y2="467.9219"/><polygon fill="#A52A2A" points="1217.5,494.2734,1227.5,498.2734,1217.5,502.2734,1221.5,498.2734" style="stroke:#A52A2A;stroke-width:1.0;"/><line style="stroke:#A52A2A;stroke-width:1.0;" x1="812" x2="1223.5" y1="498.2734" y2="498.2734"/><text fill="#000000" font-family="sans-serif" font-size="13" lengthAdjust="spacing" textLength="213" x="819" y="493.417">sendPatientConfirmationEmail(email)</text><polygon fill="#A52A2A" points="823,508.2734,813,512.2734,823,516.2734,819,512.2734" style="stroke:#A52A2A;stroke-width:1.0;"/><line style="stroke:#A52A2A;stroke-width:1.0;stroke-dasharray:2.0,2.0;" x1="817" x2="1233.5" y1="512.2734" y2="512.2734"/><polygon fill="#A52A2A" points="588,538.625,578,542.625,588,546.625,584,542.625" style="stroke:#A52A2A;stroke-width:1.0;"/><line style="stroke:#A52A2A;stroke-width:1.0;stroke-dasharray:2.0,2.0;" x1="582" x2="806" y1="542.625" y2="542.625"/><text fill="#000000" font-family="sans-serif" font-size="13" lengthAdjust="spacing" textLength="22" x="594" y="537.7686">true</text><polygon fill="#A52A2A" points="353,568.9766,343,572.9766,353,576.9766,349,572.9766" style="stroke:#A52A2A;stroke-width:1.0;"/><line style="stroke:#A52A2A;stroke-width:1.0;stroke-dasharray:2.0,2.0;" x1="347" x2="571" y1="572.9766" y2="572.9766"/><text fill="#000000" font-family="sans-serif" font-size="13" lengthAdjust="spacing" textLength="22" x="359" y="568.1201">true</text><polygon fill="#A52A2A" points="61,599.3281,51,603.3281,61,607.3281,57,603.3281" style="stroke:#A52A2A;stroke-width:1.0;"/><line style="stroke:#A52A2A;stroke-width:1.0;stroke-dasharray:2.0,2.0;" x1="55" x2="331" y1="603.3281" y2="603.3281"/><text fill="#000000" font-family="sans-serif" font-size="13" lengthAdjust="spacing" textLength="258" x="67" y="598.4717">returns "User Registrered, check your email"</text><!--SRC=[rLJ1Zjem4BtdAqQSjjA2MbMzS5Wff3b4ecsKxDvwyIOJi31sP3kmjEg_Tso7a01LfTwQ0u4tRsRydf-mt0g4bn8-BJuiFi8SOWCCScOvIli86HoPj60L61JDNEE66uiQZ0AxPPRg5PFG6QIV2Anj1Q-eLyaeCZikMwRP7Yh1Z8cjrVorivXLIfRy1yBx6mxyZ82UDMzmpIMkbAvH9qee3PzLlK6z4XrEAQpQRRJgP1reSPwlioH-phvzzRph-XhtIYPRtZHqH4U8jLR7K5lHjm2E5vUihWM6sg_nYLiQpJPOsXCPgB6oJ6u4JZGnNVy7abXb2PprTpu3PY2F8f9WUSLRT_spECyyJkzfOTbt9KfQhOH07VgJ-xGIzO5N63ZbVKw1hJASZdGAj69AIzyeVv89oE8la6jru7M_b82hYUcUSJ7UcPPUBZymYqva3lCd9se9pvgZkStvWq5P6q0tw16-qyNwCvw1ba9x96SVOR5Ol1lDTaP5zE7cvyaIpWDxZGz_woS3eppntUK_T9FClFJTnHBwCwTlDCE4tWcv8781ys6NwOIDeXed32Ri416GoaBZ4ZYBVBZShbvemuJ17aqywkqTmTuLntQxRAUbkJyOgUDIkLxtvAxxuemvgmGkVJBerTBLSRa1Oqb4w1makQnun75xwG4OwHv8OM5AxhWuN2BVSBtt_tO-Q8EraqqkSWv8oy7YcqLdpiX7gpkyuUNbhRFtYScVlNunbEl2-wPH8wMdscArWvFgTCYrCr_MqVJv3G00]--></g></svg>