<?xml version="1.0" encoding="us-ascii" standalone="no"?><svg xmlns="http://www.w3.org/2000/svg" xmlns:xlink="http://www.w3.org/1999/xlink" contentStyleType="text/css" height="754px" preserveAspectRatio="none" style="width:1687px;height:754px;background:#FFFFFF;" version="1.1" viewBox="0 0 1687 754" width="1687px" zoomAndPan="magnify"><defs/><g><text fill="#000000" font-family="sans-serif" font-size="14" font-weight="bold" lengthAdjust="spacing" textLength="535" x="577.25" y="29.5332">US 5.1.3 - As a Patient, I want to self-register so that I can use the application</text><rect fill="#FFFFFF" height="532.4609" style="stroke:#181818;stroke-width:1.0;" width="10" x="40" y="131.2188"/><rect fill="#FFFFFF" height="510.1094" style="stroke:#181818;stroke-width:1.0;" width="10" x="328" y="153.5703"/><rect fill="#FFFFFF" height="433.4063" style="stroke:#181818;stroke-width:1.0;" width="10" x="599" y="183.9219"/><rect fill="#FFFFFF" height="372.7031" style="stroke:#181818;stroke-width:1.0;" width="10" x="916" y="214.2734"/><rect fill="#FFFFFF" height="30.3516" style="stroke:#181818;stroke-width:1.0;" width="10" x="1060" y="244.625"/><rect fill="#FFFFFF" height="119.0547" style="stroke:#181818;stroke-width:1.0;" width="10" x="1218" y="437.5703"/><rect fill="#FFFFFF" height="14" style="stroke:#181818;stroke-width:1.0;" width="10" x="1482" y="467.9219"/><rect fill="#FFFFFF" height="14" style="stroke:#181818;stroke-width:1.0;" width="10" x="1616" y="512.2734"/><rect fill="none" height="365.7031" style="stroke:#000000;stroke-width:1.5;" width="1670.5" x="10" y="289.9766"/><line style="stroke:#181818;stroke-width:0.5;stroke-dasharray:5.0,5.0;" x1="45" x2="45" y1="121.2188" y2="672.6797"/><line style="stroke:#181818;stroke-width:0.5;stroke-dasharray:5.0,5.0;" x1="333" x2="333" y1="121.2188" y2="672.6797"/><line style="stroke:#181818;stroke-width:0.5;stroke-dasharray:5.0,5.0;" x1="603.5" x2="603.5" y1="121.2188" y2="672.6797"/><line style="stroke:#181818;stroke-width:0.5;stroke-dasharray:5.0,5.0;" x1="920.5" x2="920.5" y1="121.2188" y2="672.6797"/><line style="stroke:#181818;stroke-width:0.5;stroke-dasharray:5.0,5.0;" x1="1065" x2="1065" y1="121.2188" y2="672.6797"/><line style="stroke:#181818;stroke-width:0.5;stroke-dasharray:5.0,5.0;" x1="1223" x2="1223" y1="121.2188" y2="672.6797"/><line style="stroke:#181818;stroke-width:0.5;stroke-dasharray:5.0,5.0;" x1="1486.5" x2="1486.5" y1="121.2188" y2="672.6797"/><line style="stroke:#181818;stroke-width:0.5;stroke-dasharray:5.0,5.0;" x1="1620.5" x2="1620.5" y1="121.2188" y2="672.6797"/><text fill="#000000" font-family="sans-serif" font-size="14" lengthAdjust="spacing" textLength="44" x="20" y="118.1426">Patient</text><ellipse cx="45" cy="52.1094" fill="#E2E2F0" rx="8" ry="8" style="stroke:#181818;stroke-width:0.5;"/><path d="M45,60.1094 L45,87.1094 M32,68.1094 L58,68.1094 M45,87.1094 L32,102.1094 M45,87.1094 L58,102.1094 " fill="none" style="stroke:#181818;stroke-width:0.5;"/><text fill="#000000" font-family="sans-serif" font-size="14" lengthAdjust="spacing" textLength="44" x="20" y="686.2129">Patient</text><ellipse cx="45" cy="697.7891" fill="#E2E2F0" rx="8" ry="8" style="stroke:#181818;stroke-width:0.5;"/><path d="M45,705.7891 L45,732.7891 M32,713.7891 L58,713.7891 M45,732.7891 L32,747.7891 M45,732.7891 L58,747.7891 " fill="none" style="stroke:#181818;stroke-width:0.5;"/><rect fill="#E2E2F0" height="31.6094" rx="2.5" ry="2.5" style="stroke:#181818;stroke-width:0.5;" width="52" x="307" y="88.6094"/><text fill="#000000" font-family="sans-serif" font-size="14" lengthAdjust="spacing" textLength="38" x="314" y="110.1426">Route</text><rect fill="#E2E2F0" height="31.6094" rx="2.5" ry="2.5" style="stroke:#181818;stroke-width:0.5;" width="52" x="307" y="671.6797"/><text fill="#000000" font-family="sans-serif" font-size="14" lengthAdjust="spacing" textLength="38" x="314" y="693.2129">Route</text><rect fill="#E2E2F0" height="31.6094" rx="2.5" ry="2.5" style="stroke:#181818;stroke-width:0.5;" width="109" x="549.5" y="88.6094"/><text fill="#000000" font-family="sans-serif" font-size="14" lengthAdjust="spacing" textLength="95" x="556.5" y="110.1426">:UserController</text><rect fill="#E2E2F0" height="31.6094" rx="2.5" ry="2.5" style="stroke:#181818;stroke-width:0.5;" width="109" x="549.5" y="671.6797"/><text fill="#000000" font-family="sans-serif" font-size="14" lengthAdjust="spacing" textLength="95" x="556.5" y="693.2129">:UserController</text><rect fill="#E2E2F0" height="31.6094" rx="2.5" ry="2.5" style="stroke:#181818;stroke-width:0.5;" width="109" x="866.5" y="88.6094"/><text fill="#000000" font-family="sans-serif" font-size="14" lengthAdjust="spacing" textLength="95" x="873.5" y="110.1426">:PatientService</text><rect fill="#E2E2F0" height="31.6094" rx="2.5" ry="2.5" style="stroke:#181818;stroke-width:0.5;" width="109" x="866.5" y="671.6797"/><text fill="#000000" font-family="sans-serif" font-size="14" lengthAdjust="spacing" textLength="95" x="873.5" y="693.2129">:PatientService</text><rect fill="#E2E2F0" height="31.6094" rx="2.5" ry="2.5" style="stroke:#181818;stroke-width:0.5;" width="130" x="1000" y="88.6094"/><text fill="#000000" font-family="sans-serif" font-size="14" lengthAdjust="spacing" textLength="116" x="1007" y="110.1426">:PatientRepository</text><rect fill="#E2E2F0" height="31.6094" rx="2.5" ry="2.5" style="stroke:#181818;stroke-width:0.5;" width="130" x="1000" y="671.6797"/><text fill="#000000" font-family="sans-serif" font-size="14" lengthAdjust="spacing" textLength="116" x="1007" y="693.2129">:PatientRepository</text><rect fill="#E2E2F0" height="31.6094" rx="2.5" ry="2.5" style="stroke:#181818;stroke-width:0.5;" width="94" x="1176" y="88.6094"/><text fill="#000000" font-family="sans-serif" font-size="14" lengthAdjust="spacing" textLength="80" x="1183" y="110.1426">:AuthService</text><rect fill="#E2E2F0" height="31.6094" rx="2.5" ry="2.5" style="stroke:#181818;stroke-width:0.5;" width="94" x="1176" y="671.6797"/><text fill="#000000" font-family="sans-serif" font-size="14" lengthAdjust="spacing" textLength="80" x="1183" y="693.2129">:AuthService</text><rect fill="#E2E2F0" height="31.6094" rx="2.5" ry="2.5" style="stroke:#181818;stroke-width:0.5;" width="149" x="1412.5" y="88.6094"/><text fill="#000000" font-family="sans-serif" font-size="14" lengthAdjust="spacing" textLength="135" x="1419.5" y="110.1426">External IAM Provider</text><rect fill="#E2E2F0" height="31.6094" rx="2.5" ry="2.5" style="stroke:#181818;stroke-width:0.5;" width="149" x="1412.5" y="671.6797"/><text fill="#000000" font-family="sans-serif" font-size="14" lengthAdjust="spacing" textLength="135" x="1419.5" y="693.2129">External IAM Provider</text><rect fill="#E2E2F0" height="31.6094" rx="2.5" ry="2.5" style="stroke:#181818;stroke-width:0.5;" width="99" x="1571.5" y="88.6094"/><text fill="#000000" font-family="sans-serif" font-size="14" lengthAdjust="spacing" textLength="85" x="1578.5" y="110.1426">:EmailService</text><rect fill="#E2E2F0" height="31.6094" rx="2.5" ry="2.5" style="stroke:#181818;stroke-width:0.5;" width="99" x="1571.5" y="671.6797"/><text fill="#000000" font-family="sans-serif" font-size="14" lengthAdjust="spacing" textLength="85" x="1578.5" y="693.2129">:EmailService</text><rect fill="#FFFFFF" height="532.4609" style="stroke:#181818;stroke-width:1.0;" width="10" x="40" y="131.2188"/><rect fill="#FFFFFF" height="510.1094" style="stroke:#181818;stroke-width:1.0;" width="10" x="328" y="153.5703"/><rect fill="#FFFFFF" height="433.4063" style="stroke:#181818;stroke-width:1.0;" width="10" x="599" y="183.9219"/><rect fill="#FFFFFF" height="372.7031" style="stroke:#181818;stroke-width:1.0;" width="10" x="916" y="214.2734"/><rect fill="#FFFFFF" height="30.3516" style="stroke:#181818;stroke-width:1.0;" width="10" x="1060" y="244.625"/><rect fill="#FFFFFF" height="119.0547" style="stroke:#181818;stroke-width:1.0;" width="10" x="1218" y="437.5703"/><rect fill="#FFFFFF" height="14" style="stroke:#181818;stroke-width:1.0;" width="10" x="1482" y="467.9219"/><rect fill="#FFFFFF" height="14" style="stroke:#181818;stroke-width:1.0;" width="10" x="1616" y="512.2734"/><polygon fill="#A52A2A" points="316,149.5703,326,153.5703,316,157.5703,320,153.5703" style="stroke:#A52A2A;stroke-width:1.0;"/><line style="stroke:#A52A2A;stroke-width:1.0;" x1="50" x2="322" y1="153.5703" y2="153.5703"/><text fill="#000000" font-family="sans-serif" font-size="13" lengthAdjust="spacing" textLength="137" x="57" y="148.7139">/api/User/signup-patient</text><polygon fill="#A52A2A" points="587,179.9219,597,183.9219,587,187.9219,591,183.9219" style="stroke:#A52A2A;stroke-width:1.0;"/><line style="stroke:#A52A2A;stroke-width:1.0;" x1="338" x2="593" y1="183.9219" y2="183.9219"/><text fill="#000000" font-family="sans-serif" font-size="13" lengthAdjust="spacing" textLength="242" x="345" y="179.0654">SignUpPatientAsync(email, password, ...)</text><polygon fill="#A52A2A" points="904,210.2734,914,214.2734,904,218.2734,908,214.2734" style="stroke:#A52A2A;stroke-width:1.0;"/><line style="stroke:#A52A2A;stroke-width:1.0;" x1="609" x2="910" y1="214.2734" y2="214.2734"/><text fill="#000000" font-family="sans-serif" font-size="13" lengthAdjust="spacing" textLength="288" x="616" y="209.417">SignUpNewPatientIamAsync(email, password, ...)</text><polygon fill="#A52A2A" points="1048,240.625,1058,244.625,1048,248.625,1052,244.625" style="stroke:#A52A2A;stroke-width:1.0;"/><line style="stroke:#A52A2A;stroke-width:1.0;" x1="926" x2="1054" y1="244.625" y2="244.625"/><text fill="#000000" font-family="sans-serif" font-size="13" lengthAdjust="spacing" textLength="115" x="933" y="239.7686">patientExists(email)</text><polygon fill="#A52A2A" points="937,270.9766,927,274.9766,937,278.9766,933,274.9766" style="stroke:#A52A2A;stroke-width:1.0;"/><line style="stroke:#A52A2A;stroke-width:1.0;stroke-dasharray:2.0,2.0;" x1="931" x2="1064" y1="274.9766" y2="274.9766"/><text fill="#000000" font-family="sans-serif" font-size="13" lengthAdjust="spacing" textLength="32" x="943" y="270.1201">result</text><path d="M10,289.9766 L71,289.9766 L71,298.3281 L61,308.3281 L10,308.3281 L10,289.9766 " fill="#EEEEEE" style="stroke:#000000;stroke-width:1.5;"/><rect fill="none" height="365.7031" style="stroke:#000000;stroke-width:1.5;" width="1670.5" x="10" y="289.9766"/><text fill="#000000" font-family="sans-serif" font-size="13" font-weight="bold" lengthAdjust="spacing" textLength="16" x="25" y="304.4717">alt</text><text fill="#000000" font-family="sans-serif" font-size="11" font-weight="bold" lengthAdjust="spacing" textLength="112" x="86" y="303.3955">["Patient not found"]</text><polygon fill="#A52A2A" points="620,326.6797,610,330.6797,620,334.6797,616,330.6797" style="stroke:#A52A2A;stroke-width:1.0;"/><line style="stroke:#A52A2A;stroke-width:1.0;stroke-dasharray:2.0,2.0;" x1="614" x2="915" y1="330.6797" y2="330.6797"/><text fill="#000000" font-family="sans-serif" font-size="13" lengthAdjust="spacing" textLength="27" x="626" y="325.8232">false</text><polygon fill="#A52A2A" points="349,357.0313,339,361.0313,349,365.0313,345,361.0313" style="stroke:#A52A2A;stroke-width:1.0;"/><line style="stroke:#A52A2A;stroke-width:1.0;stroke-dasharray:2.0,2.0;" x1="343" x2="598" y1="361.0313" y2="361.0313"/><text fill="#000000" font-family="sans-serif" font-size="13" lengthAdjust="spacing" textLength="27" x="355" y="356.1748">false</text><polygon fill="#A52A2A" points="61,387.3828,51,391.3828,61,395.3828,57,391.3828" style="stroke:#A52A2A;stroke-width:1.0;"/><line style="stroke:#A52A2A;stroke-width:1.0;stroke-dasharray:2.0,2.0;" x1="55" x2="327" y1="391.3828" y2="391.3828"/><text fill="#000000" font-family="sans-serif" font-size="13" lengthAdjust="spacing" textLength="152" x="67" y="386.5264">returns "Patient not found"</text><line style="stroke:#000000;stroke-width:1.0;stroke-dasharray:2.0,2.0;" x1="10" x2="1680.5" y1="400.3828" y2="400.3828"/><text fill="#000000" font-family="sans-serif" font-size="11" font-weight="bold" lengthAdjust="spacing" textLength="91" x="15" y="411.8018">["Patient found"]</text><polygon fill="#A52A2A" points="1206,433.5703,1216,437.5703,1206,441.5703,1210,437.5703" style="stroke:#A52A2A;stroke-width:1.0;"/><line style="stroke:#A52A2A;stroke-width:1.0;stroke-dasharray:2.0,2.0;" x1="926" x2="1212" y1="437.5703" y2="437.5703"/><text fill="#000000" font-family="sans-serif" font-size="13" lengthAdjust="spacing" textLength="273" x="933" y="432.7139">RegisterNewPatientAsync(email, password, ...)</text><polygon fill="#A52A2A" points="1470,463.9219,1480,467.9219,1470,471.9219,1474,467.9219" style="stroke:#A52A2A;stroke-width:1.0;"/><line style="stroke:#A52A2A;stroke-width:1.0;" x1="1228" x2="1476" y1="467.9219" y2="467.9219"/><text fill="#000000" font-family="sans-serif" font-size="13" lengthAdjust="spacing" textLength="235" x="1235" y="463.0654">AdminCreateUserAsync(signUpRequest)</text><polygon fill="#A52A2A" points="1239,477.9219,1229,481.9219,1239,485.9219,1235,481.9219" style="stroke:#A52A2A;stroke-width:1.0;"/><line style="stroke:#A52A2A;stroke-width:1.0;stroke-dasharray:2.0,2.0;" x1="1233" x2="1486" y1="481.9219" y2="481.9219"/><polygon fill="#A52A2A" points="1604,508.2734,1614,512.2734,1604,516.2734,1608,512.2734" style="stroke:#A52A2A;stroke-width:1.0;"/><line style="stroke:#A52A2A;stroke-width:1.0;" x1="1228" x2="1610" y1="512.2734" y2="512.2734"/><text fill="#000000" font-family="sans-serif" font-size="13" lengthAdjust="spacing" textLength="213" x="1235" y="507.417">sendConfirmationEmail(patientEmail)</text><polygon fill="#A52A2A" points="1239,522.2734,1229,526.2734,1239,530.2734,1235,526.2734" style="stroke:#A52A2A;stroke-width:1.0;"/><line style="stroke:#A52A2A;stroke-width:1.0;stroke-dasharray:2.0,2.0;" x1="1233" x2="1620" y1="526.2734" y2="526.2734"/><polygon fill="#A52A2A" points="937,552.625,927,556.625,937,560.625,933,556.625" style="stroke:#A52A2A;stroke-width:1.0;"/><line style="stroke:#A52A2A;stroke-width:1.0;stroke-dasharray:2.0,2.0;" x1="931" x2="1222" y1="556.625" y2="556.625"/><text fill="#000000" font-family="sans-serif" font-size="13" lengthAdjust="spacing" textLength="22" x="943" y="551.7686">true</text><polygon fill="#A52A2A" points="620,582.9766,610,586.9766,620,590.9766,616,586.9766" style="stroke:#A52A2A;stroke-width:1.0;"/><line style="stroke:#A52A2A;stroke-width:1.0;stroke-dasharray:2.0,2.0;" x1="614" x2="920" y1="586.9766" y2="586.9766"/><text fill="#000000" font-family="sans-serif" font-size="13" lengthAdjust="spacing" textLength="22" x="626" y="582.1201">true</text><polygon fill="#A52A2A" points="349,613.3281,339,617.3281,349,621.3281,345,617.3281" style="stroke:#A52A2A;stroke-width:1.0;"/><line style="stroke:#A52A2A;stroke-width:1.0;stroke-dasharray:2.0,2.0;" x1="343" x2="603" y1="617.3281" y2="617.3281"/><text fill="#000000" font-family="sans-serif" font-size="13" lengthAdjust="spacing" textLength="22" x="355" y="612.4717">true</text><polygon fill="#A52A2A" points="61,643.6797,51,647.6797,61,651.6797,57,647.6797" style="stroke:#A52A2A;stroke-width:1.0;"/><line style="stroke:#A52A2A;stroke-width:1.0;stroke-dasharray:2.0,2.0;" x1="55" x2="327" y1="647.6797" y2="647.6797"/><text fill="#000000" font-family="sans-serif" font-size="13" lengthAdjust="spacing" textLength="254" x="67" y="642.8232">returns "User Registered, check your email"</text><!--SRC=[rLHDZzCm4BtdLunwMgHj5uIuz82K3JbKAakKq1zWaabhhMi7szbkGVntnXzjaxGWhkJIrFFcpRnvurXk1SAcWW-BTultC8VK08E2MOxItiCA3anQi0eCYdQkSSkDHGr6WTqnI_6QIUWDqby4rdM2rvIhP9AOPouxfjaUQi6CIQtL_5jlSLKhMV4V26-lCF0p0NhMlCKrb_YeT8CwKq9f-AIQBUf7qUCOmkhdhLQzR08iBOhrAak_hhuyUTmqliQzajcEjosrw02frkeGOe_q5Ww7XIlMD093xDUmuuwesHOhUwG1Qgmjark18qrCD_-195PREfn5psV031H9GX8ihtddx9-LYepp4Vys3YutnZ5BgvKGg3riaqqmaRr2_SBhG5LKjp4bTifmwkaOOEK4blPsD-H99ppvAsseP09MwMSej7hXJUoA3YPS-PvnCIJBApyG_i8ikZ4KCFyOH2_XWNNymObzC7mh-sxUXOO76M4yYVzncPji2HM1DrqKbvgZhE_GbRsd5JBcGCRSmsAnU3EWeV4bcymH5DM9u0aFaMF5zlz6GnDEYihJb4k8tUQlT8LDo1s1ImANC8z5DPfUaBG6HmWcx7bLG2eBhTl4MUANpDMAebic38PJ9-Gon44WJiaLTFLihwMvJOwKSudSA9bInsNyE5q6zTSfkUopDDgXS7Vyj6XFbf0sUoupZHHsdWSkuwqeyNkFnav9t7hv4xTuiQjmC1ZY6HHAvTIuGNUNPSlrtdyx_LBUdUoAFeqgvR7T_AB-gb0-a1GzjRh7Azn9-i2ycxYYkcNdJQXRtpyRxAPvDWl9Ztg7zJCSLQ_1U-KCbqqoVdu3]--></g></svg>