<?xml version="1.0" encoding="us-ascii" standalone="no"?><svg xmlns="http://www.w3.org/2000/svg" xmlns:xlink="http://www.w3.org/1999/xlink" contentStyleType="text/css" height="795px" preserveAspectRatio="none" style="width:1239px;height:795px;background:#FFFFFF;" version="1.1" viewBox="0 0 1239 795" width="1239px" zoomAndPan="magnify"><defs/><g><text fill="#000000" font-family="sans-serif" font-size="14" font-weight="bold" lengthAdjust="spacing" textLength="166" x="535.5" y="29.5332">Sequence Diagram Title</text><rect fill="#FFFFFF" height="573.5859" style="stroke:#181818;stroke-width:1.0;" width="10" x="22.5" y="131.2188"/><rect fill="#FFFFFF" height="30.3516" style="stroke:#181818;stroke-width:1.0;" width="10" x="280.5" y="153.5703"/><rect fill="#FFFFFF" height="490.5313" style="stroke:#181818;stroke-width:1.0;" width="10" x="280.5" y="214.2734"/><rect fill="#FFFFFF" height="420.8281" style="stroke:#181818;stroke-width:1.0;" width="10" x="437.5" y="244.625"/><rect fill="#FFFFFF" height="299.4219" style="stroke:#181818;stroke-width:1.0;" width="10" x="604" y="335.6797"/><rect fill="#FFFFFF" height="30.3516" style="stroke:#181818;stroke-width:1.0;" width="10" x="729.5" y="274.9766"/><rect fill="#FFFFFF" height="30.3516" style="stroke:#181818;stroke-width:1.0;" width="10" x="831" y="366.0313"/><rect fill="#FFFFFF" height="30.3516" style="stroke:#181818;stroke-width:1.0;" width="10" x="943" y="426.7344"/><rect fill="#FFFFFF" height="30.3516" style="stroke:#181818;stroke-width:1.0;" width="10" x="943" y="574.3984"/><rect fill="#FFFFFF" height="56.6094" style="stroke:#181818;stroke-width:1.0;" width="10" x="1030" y="487.4375"/><line style="stroke:#181818;stroke-width:0.5;stroke-dasharray:5.0,5.0;" x1="27" x2="27" y1="121.2188" y2="713.8047"/><line style="stroke:#181818;stroke-width:0.5;stroke-dasharray:5.0,5.0;" x1="285.5" x2="285.5" y1="121.2188" y2="713.8047"/><line style="stroke:#181818;stroke-width:0.5;stroke-dasharray:5.0,5.0;" x1="442.5" x2="442.5" y1="121.2188" y2="713.8047"/><line style="stroke:#181818;stroke-width:0.5;stroke-dasharray:5.0,5.0;" x1="608.5" x2="608.5" y1="121.2188" y2="713.8047"/><line style="stroke:#181818;stroke-width:0.5;stroke-dasharray:5.0,5.0;" x1="734.5" x2="734.5" y1="121.2188" y2="713.8047"/><line style="stroke:#181818;stroke-width:0.5;stroke-dasharray:5.0,5.0;" x1="835.5" x2="835.5" y1="121.2188" y2="713.8047"/><line style="stroke:#181818;stroke-width:0.5;stroke-dasharray:5.0,5.0;" x1="947.5" x2="947.5" y1="121.2188" y2="713.8047"/><line style="stroke:#181818;stroke-width:0.5;stroke-dasharray:5.0,5.0;" x1="1034.5" x2="1034.5" y1="121.2188" y2="713.8047"/><line style="stroke:#181818;stroke-width:0.5;stroke-dasharray:5.0,5.0;" x1="1202" x2="1202" y1="526.7422" y2="713.8047"/><text fill="#000000" font-family="sans-serif" font-size="14" lengthAdjust="spacing" textLength="39" x="5" y="118.1426">Admin</text><ellipse cx="27.5" cy="52.1094" fill="#E2E2F0" rx="8" ry="8" style="stroke:#181818;stroke-width:0.5;"/><path d="M27.5,60.1094 L27.5,87.1094 M14.5,68.1094 L40.5,68.1094 M27.5,87.1094 L14.5,102.1094 M27.5,87.1094 L40.5,102.1094 " fill="none" style="stroke:#181818;stroke-width:0.5;"/><text fill="#000000" font-family="sans-serif" font-size="14" lengthAdjust="spacing" textLength="39" x="5" y="727.3379">Admin</text><ellipse cx="27.5" cy="738.9141" fill="#E2E2F0" rx="8" ry="8" style="stroke:#181818;stroke-width:0.5;"/><path d="M27.5,746.9141 L27.5,773.9141 M14.5,754.9141 L40.5,754.9141 M27.5,773.9141 L14.5,788.9141 M27.5,773.9141 L40.5,788.9141 " fill="none" style="stroke:#181818;stroke-width:0.5;"/><rect fill="#E2E2F0" height="31.6094" rx="2.5" ry="2.5" style="stroke:#181818;stroke-width:0.5;" width="122" x="224.5" y="88.6094"/><text fill="#000000" font-family="sans-serif" font-size="14" lengthAdjust="spacing" textLength="108" x="231.5" y="110.1426">DeactivateStaffUI</text><rect fill="#E2E2F0" height="31.6094" rx="2.5" ry="2.5" style="stroke:#181818;stroke-width:0.5;" width="122" x="224.5" y="712.8047"/><text fill="#000000" font-family="sans-serif" font-size="14" lengthAdjust="spacing" textLength="108" x="231.5" y="734.3379">DeactivateStaffUI</text><rect fill="#E2E2F0" height="31.6094" rx="2.5" ry="2.5" style="stroke:#181818;stroke-width:0.5;" width="172" x="356.5" y="88.6094"/><text fill="#000000" font-family="sans-serif" font-size="14" lengthAdjust="spacing" textLength="158" x="363.5" y="110.1426">DeactivateStaffController</text><rect fill="#E2E2F0" height="31.6094" rx="2.5" ry="2.5" style="stroke:#181818;stroke-width:0.5;" width="172" x="356.5" y="712.8047"/><text fill="#000000" font-family="sans-serif" font-size="14" lengthAdjust="spacing" textLength="158" x="363.5" y="734.3379">DeactivateStaffController</text><rect fill="#E2E2F0" height="31.6094" rx="2.5" ry="2.5" style="stroke:#181818;stroke-width:0.5;" width="141" x="538.5" y="88.6094"/><text fill="#000000" font-family="sans-serif" font-size="14" lengthAdjust="spacing" textLength="127" x="545.5" y="110.1426">ManageStaffService</text><rect fill="#E2E2F0" height="31.6094" rx="2.5" ry="2.5" style="stroke:#181818;stroke-width:0.5;" width="141" x="538.5" y="712.8047"/><text fill="#000000" font-family="sans-serif" font-size="14" lengthAdjust="spacing" textLength="127" x="545.5" y="734.3379">ManageStaffService</text><rect fill="#E2E2F0" height="31.6094" rx="2.5" ry="2.5" style="stroke:#181818;stroke-width:0.5;" width="90" x="689.5" y="88.6094"/><text fill="#000000" font-family="sans-serif" font-size="14" lengthAdjust="spacing" textLength="76" x="696.5" y="110.1426">AuthService</text><rect fill="#E2E2F0" height="31.6094" rx="2.5" ry="2.5" style="stroke:#181818;stroke-width:0.5;" width="90" x="689.5" y="712.8047"/><text fill="#000000" font-family="sans-serif" font-size="14" lengthAdjust="spacing" textLength="76" x="696.5" y="734.3379">AuthService</text><rect fill="#E2E2F0" height="31.6094" rx="2.5" ry="2.5" style="stroke:#181818;stroke-width:0.5;" width="93" x="789.5" y="88.6094"/><text fill="#000000" font-family="sans-serif" font-size="14" lengthAdjust="spacing" textLength="79" x="796.5" y="110.1426">Repositories</text><rect fill="#E2E2F0" height="31.6094" rx="2.5" ry="2.5" style="stroke:#181818;stroke-width:0.5;" width="93" x="789.5" y="712.8047"/><text fill="#000000" font-family="sans-serif" font-size="14" lengthAdjust="spacing" textLength="79" x="796.5" y="734.3379">Repositories</text><rect fill="#E2E2F0" height="31.6094" rx="2.5" ry="2.5" style="stroke:#181818;stroke-width:0.5;" width="111" x="892.5" y="88.6094"/><text fill="#000000" font-family="sans-serif" font-size="14" lengthAdjust="spacing" textLength="97" x="899.5" y="110.1426">StaffRepository</text><rect fill="#E2E2F0" height="31.6094" rx="2.5" ry="2.5" style="stroke:#181818;stroke-width:0.5;" width="111" x="892.5" y="712.8047"/><text fill="#000000" font-family="sans-serif" font-size="14" lengthAdjust="spacing" textLength="97" x="899.5" y="734.3379">StaffRepository</text><rect fill="#E2E2F0" height="31.6094" rx="2.5" ry="2.5" style="stroke:#181818;stroke-width:0.5;" width="43" x="1013.5" y="88.6094"/><text fill="#000000" font-family="sans-serif" font-size="14" lengthAdjust="spacing" textLength="29" x="1020.5" y="110.1426">Staff</text><rect fill="#E2E2F0" height="31.6094" rx="2.5" ry="2.5" style="stroke:#181818;stroke-width:0.5;" width="43" x="1013.5" y="712.8047"/><text fill="#000000" font-family="sans-serif" font-size="14" lengthAdjust="spacing" textLength="29" x="1020.5" y="734.3379">Staff</text><rect fill="#E2E2F0" height="31.6094" rx="2.5" ry="2.5" style="stroke:#181818;stroke-width:0.5;" width="62" x="1171" y="712.8047"/><text fill="#000000" font-family="sans-serif" font-size="14" lengthAdjust="spacing" textLength="48" x="1178" y="734.3379">IsActive</text><rect fill="#FFFFFF" height="573.5859" style="stroke:#181818;stroke-width:1.0;" width="10" x="22.5" y="131.2188"/><rect fill="#FFFFFF" height="30.3516" style="stroke:#181818;stroke-width:1.0;" width="10" x="280.5" y="153.5703"/><rect fill="#FFFFFF" height="490.5313" style="stroke:#181818;stroke-width:1.0;" width="10" x="280.5" y="214.2734"/><rect fill="#FFFFFF" height="420.8281" style="stroke:#181818;stroke-width:1.0;" width="10" x="437.5" y="244.625"/><rect fill="#FFFFFF" height="299.4219" style="stroke:#181818;stroke-width:1.0;" width="10" x="604" y="335.6797"/><rect fill="#FFFFFF" height="30.3516" style="stroke:#181818;stroke-width:1.0;" width="10" x="729.5" y="274.9766"/><rect fill="#FFFFFF" height="30.3516" style="stroke:#181818;stroke-width:1.0;" width="10" x="831" y="366.0313"/><rect fill="#FFFFFF" height="30.3516" style="stroke:#181818;stroke-width:1.0;" width="10" x="943" y="426.7344"/><rect fill="#FFFFFF" height="30.3516" style="stroke:#181818;stroke-width:1.0;" width="10" x="943" y="574.3984"/><rect fill="#FFFFFF" height="56.6094" style="stroke:#181818;stroke-width:1.0;" width="10" x="1030" y="487.4375"/><polygon fill="#A52A2A" points="268.5,149.5703,278.5,153.5703,268.5,157.5703,272.5,153.5703" style="stroke:#A52A2A;stroke-width:1.0;"/><line style="stroke:#A52A2A;stroke-width:1.0;" x1="32.5" x2="274.5" y1="153.5703" y2="153.5703"/><text fill="#000000" font-family="sans-serif" font-size="13" lengthAdjust="spacing" textLength="151" x="39.5" y="148.7139">I want to deactivate a user</text><polygon fill="#A52A2A" points="43.5,179.9219,33.5,183.9219,43.5,187.9219,39.5,183.9219" style="stroke:#A52A2A;stroke-width:1.0;"/><line style="stroke:#A52A2A;stroke-width:1.0;" x1="37.5" x2="284.5" y1="183.9219" y2="183.9219"/><text fill="#000000" font-family="sans-serif" font-size="13" lengthAdjust="spacing" textLength="224" x="49.5" y="179.0654">Which user do you want to deactivate?</text><polygon fill="#A52A2A" points="268.5,210.2734,278.5,214.2734,268.5,218.2734,272.5,214.2734" style="stroke:#A52A2A;stroke-width:1.0;"/><line style="stroke:#A52A2A;stroke-width:1.0;" x1="32.5" x2="274.5" y1="214.2734" y2="214.2734"/><text fill="#000000" font-family="sans-serif" font-size="13" lengthAdjust="spacing" textLength="34" x="39.5" y="209.417">staffId</text><polygon fill="#A52A2A" points="425.5,240.625,435.5,244.625,425.5,248.625,429.5,244.625" style="stroke:#A52A2A;stroke-width:1.0;"/><line style="stroke:#A52A2A;stroke-width:1.0;" x1="290.5" x2="431.5" y1="244.625" y2="244.625"/><text fill="#000000" font-family="sans-serif" font-size="13" lengthAdjust="spacing" textLength="126" x="297.5" y="239.7686">deactivateStaff(staffId)</text><polygon fill="#A52A2A" points="717.5,270.9766,727.5,274.9766,717.5,278.9766,721.5,274.9766" style="stroke:#A52A2A;stroke-width:1.0;"/><line style="stroke:#A52A2A;stroke-width:1.0;" x1="447.5" x2="723.5" y1="274.9766" y2="274.9766"/><text fill="#000000" font-family="sans-serif" font-size="13" lengthAdjust="spacing" textLength="234" x="454.5" y="270.1201">ensureAuthenticatedUserHasAnyOf(role)</text><polygon fill="#A52A2A" points="458.5,301.3281,448.5,305.3281,458.5,309.3281,454.5,305.3281" style="stroke:#A52A2A;stroke-width:1.0;"/><line style="stroke:#A52A2A;stroke-width:1.0;stroke-dasharray:2.0,2.0;" x1="452.5" x2="733.5" y1="305.3281" y2="305.3281"/><text fill="#000000" font-family="sans-serif" font-size="13" lengthAdjust="spacing" textLength="22" x="464.5" y="300.4717">true</text><polygon fill="#A52A2A" points="592,331.6797,602,335.6797,592,339.6797,596,335.6797" style="stroke:#A52A2A;stroke-width:1.0;"/><line style="stroke:#A52A2A;stroke-width:1.0;" x1="447.5" x2="598" y1="335.6797" y2="335.6797"/><text fill="#000000" font-family="sans-serif" font-size="13" lengthAdjust="spacing" textLength="126" x="454.5" y="330.8232">deactivateStaff(staffId)</text><polygon fill="#A52A2A" points="819,362.0313,829,366.0313,819,370.0313,823,366.0313" style="stroke:#A52A2A;stroke-width:1.0;"/><line style="stroke:#A52A2A;stroke-width:1.0;" x1="614" x2="825" y1="366.0313" y2="366.0313"/><text fill="#000000" font-family="sans-serif" font-size="13" lengthAdjust="spacing" textLength="114" x="621" y="361.1748">getStaffRepository()</text><polygon fill="#A52A2A" points="625,392.3828,615,396.3828,625,400.3828,621,396.3828" style="stroke:#A52A2A;stroke-width:1.0;"/><line style="stroke:#A52A2A;stroke-width:1.0;stroke-dasharray:2.0,2.0;" x1="619" x2="835" y1="396.3828" y2="396.3828"/><text fill="#000000" font-family="sans-serif" font-size="13" lengthAdjust="spacing" textLength="86" x="631" y="391.5264">staffRepository</text><polygon fill="#A52A2A" points="931,422.7344,941,426.7344,931,430.7344,935,426.7344" style="stroke:#A52A2A;stroke-width:1.0;"/><line style="stroke:#A52A2A;stroke-width:1.0;" x1="614" x2="937" y1="426.7344" y2="426.7344"/><text fill="#000000" font-family="sans-serif" font-size="13" lengthAdjust="spacing" textLength="86" x="621" y="421.8779">getStaff(staffId)</text><polygon fill="#A52A2A" points="625,453.0859,615,457.0859,625,461.0859,621,457.0859" style="stroke:#A52A2A;stroke-width:1.0;"/><line style="stroke:#A52A2A;stroke-width:1.0;stroke-dasharray:2.0,2.0;" x1="619" x2="947" y1="457.0859" y2="457.0859"/><text fill="#000000" font-family="sans-serif" font-size="13" lengthAdjust="spacing" textLength="24" x="631" y="452.2295">staff</text><polygon fill="#A52A2A" points="1018,483.4375,1028,487.4375,1018,491.4375,1022,487.4375" style="stroke:#A52A2A;stroke-width:1.0;"/><line style="stroke:#A52A2A;stroke-width:1.0;" x1="614" x2="1024" y1="487.4375" y2="487.4375"/><text fill="#000000" font-family="sans-serif" font-size="13" lengthAdjust="spacing" textLength="66" x="621" y="482.5811">deactivate()</text><polygon fill="#A52A2A" points="1159,513.7891,1169,517.7891,1159,521.7891,1163,517.7891" style="stroke:#A52A2A;stroke-width:1.0;"/><line style="stroke:#A52A2A;stroke-width:1.0;" x1="1040" x2="1165" y1="517.7891" y2="517.7891"/><text fill="#000000" font-family="sans-serif" font-size="13" lengthAdjust="spacing" textLength="107" x="1047" y="512.9326">new isActive(false)</text><rect fill="#E2E2F0" height="31.6094" rx="2.5" ry="2.5" style="stroke:#181818;stroke-width:0.5;" width="62" x="1171" y="495.4375"/><text fill="#000000" font-family="sans-serif" font-size="14" lengthAdjust="spacing" textLength="48" x="1178" y="516.9707">IsActive</text><polygon fill="#A52A2A" points="625,540.0469,615,544.0469,625,548.0469,621,544.0469" style="stroke:#A52A2A;stroke-width:1.0;"/><line style="stroke:#A52A2A;stroke-width:1.0;stroke-dasharray:2.0,2.0;" x1="619" x2="1034" y1="544.0469" y2="544.0469"/><polygon fill="#A52A2A" points="931,570.3984,941,574.3984,931,578.3984,935,574.3984" style="stroke:#A52A2A;stroke-width:1.0;"/><line style="stroke:#A52A2A;stroke-width:1.0;" x1="614" x2="937" y1="574.3984" y2="574.3984"/><text fill="#000000" font-family="sans-serif" font-size="13" lengthAdjust="spacing" textLength="72" x="621" y="569.542">update(user)</text><polygon fill="#A52A2A" points="625,600.75,615,604.75,625,608.75,621,604.75" style="stroke:#A52A2A;stroke-width:1.0;"/><line style="stroke:#A52A2A;stroke-width:1.0;stroke-dasharray:2.0,2.0;" x1="619" x2="947" y1="604.75" y2="604.75"/><text fill="#000000" font-family="sans-serif" font-size="13" lengthAdjust="spacing" textLength="46" x="631" y="599.8936">updated</text><polygon fill="#A52A2A" points="458.5,631.1016,448.5,635.1016,458.5,639.1016,454.5,635.1016" style="stroke:#A52A2A;stroke-width:1.0;"/><line style="stroke:#A52A2A;stroke-width:1.0;stroke-dasharray:2.0,2.0;" x1="452.5" x2="608" y1="635.1016" y2="635.1016"/><text fill="#000000" font-family="sans-serif" font-size="13" lengthAdjust="spacing" textLength="46" x="464.5" y="630.2451">updated</text><polygon fill="#A52A2A" points="301.5,661.4531,291.5,665.4531,301.5,669.4531,297.5,665.4531" style="stroke:#A52A2A;stroke-width:1.0;"/><line style="stroke:#A52A2A;stroke-width:1.0;stroke-dasharray:2.0,2.0;" x1="295.5" x2="441.5" y1="665.4531" y2="665.4531"/><text fill="#000000" font-family="sans-serif" font-size="13" lengthAdjust="spacing" textLength="95" x="307.5" y="660.5967">Staff deactivated</text><polygon fill="#A52A2A" points="43.5,691.8047,33.5,695.8047,43.5,699.8047,39.5,695.8047" style="stroke:#A52A2A;stroke-width:1.0;"/><line style="stroke:#A52A2A;stroke-width:1.0;stroke-dasharray:2.0,2.0;" x1="37.5" x2="279.5" y1="695.8047" y2="695.8047"/><text fill="#000000" font-family="sans-serif" font-size="13" lengthAdjust="spacing" textLength="95" x="49.5" y="690.9482">Staff deactivated</text><!--SRC=[rLF1Rjim3BtxAuYUl081TivXWvCSQY1hYxZ1pff5Eq8TAPNa1jcmVnybPRRa94Elyy6mpFVuo4VA2jiXLFZMewmHLeArcktXnVtEpAkG1-RETSUCAQpLuaTliQoLhCHFXC_P50E_Cg1dBHfS2uaBfJdgfUgKXfNYBUf5rsCAOVLhgrKlUO0Lpy_hSbcyb4-F7ZUDht6lv78dcaP93oYqLiSGMz1N-1aBLupp3aFiTrpnWLAp5Yjx8WyqrfR9bjgEUsAQ_mSjiTew6RuNCgF2hQZ5WKaBTokaa7XdbffaJRCjxu0Ps9R_H2sLj5fr7MgF7eyfwnkJtZnYLAZVHOqUtXlKLOeiUhkB8OpEAMA31sK4DI7GU4Zy8uLwmI5y6ZGtLs13C8sLfd3zXcACPROttaDlmTb6_uRP5p9h3YKS7T4gu8DLm7nc68bawxPqbC2Tm_UTg7S1nHMSL7ybpTSiIaaP8btAO5mN9R-YCKvb7cNpNUTdrgUH5irm_7Hft2ZcWDBq6jsOK99DnE1Rglg1cKAUdfgSy1Xby_DpBvXDAW6hwIx49ZbeAkaN13vITLYbW2TYl1F4Rz5ETY6FkCa29SnPL8D94yIL9mc66locHU8tgjva0NYX5IkCm25rOai-IUgX3XbMzlv-3XAF8CxRd3UiCpGcXnfrfuANhVG7xiJSyGDT13I_sKUo4BVnLR8KVzVTMnevaD2Y7NPN8BfdbxJn-GC0]--></g></svg>