<?xml version="1.0" encoding="us-ascii" standalone="no"?><svg xmlns="http://www.w3.org/2000/svg" xmlns:xlink="http://www.w3.org/1999/xlink" contentStyleType="text/css" height="836px" preserveAspectRatio="none" style="width:1212px;height:836px;background:#FFFFFF;" version="1.1" viewBox="0 0 1212 836" width="1212px" zoomAndPan="magnify"><defs/><g><text fill="#000000" font-family="sans-serif" font-size="14" font-weight="bold" lengthAdjust="spacing" textLength="132" x="541.5" y="29.5332">Sequence Diagram</text><rect fill="#FFFFFF" height="604.9766" style="stroke:#181818;stroke-width:1.0;" width="10" x="22.5" y="131.2188"/><rect fill="#FFFFFF" height="582.625" style="stroke:#181818;stroke-width:1.0;" width="10" x="198.5" y="153.5703"/><rect fill="#FFFFFF" height="521.9219" style="stroke:#181818;stroke-width:1.0;" width="10" x="367.5" y="183.9219"/><rect fill="#FFFFFF" height="461.2188" style="stroke:#181818;stroke-width:1.0;" width="10" x="613.5" y="214.2734"/><rect fill="#FFFFFF" height="91.0547" style="stroke:#181818;stroke-width:1.0;" width="10" x="752.5" y="244.625"/><rect fill="#FFFFFF" height="58.3516" style="stroke:#181818;stroke-width:1.0;" width="10" x="752.5" y="453.7344"/><rect fill="#FFFFFF" height="102.7031" style="stroke:#181818;stroke-width:1.0;" width="10" x="860.5" y="542.4375"/><rect fill="#FFFFFF" height="58.3516" style="stroke:#181818;stroke-width:1.0;" width="10" x="974.5" y="572.7891"/><rect fill="#FFFFFF" height="57.3516" style="stroke:#181818;stroke-width:1.0;" width="10" x="1059" y="366.0313"/><rect fill="#FFFFFF" height="30.3516" style="stroke:#181818;stroke-width:1.0;" width="10" x="1172" y="274.9766"/><rect fill="#FFFFFF" height="14" style="stroke:#181818;stroke-width:1.0;" width="10" x="1172" y="484.0859"/><rect fill="#FFFFFF" height="14" style="stroke:#181818;stroke-width:1.0;" width="10" x="1172" y="603.1406"/><line style="stroke:#181818;stroke-width:0.5;stroke-dasharray:5.0,5.0;" x1="27" x2="27" y1="121.2188" y2="754.1953"/><line style="stroke:#181818;stroke-width:0.5;stroke-dasharray:5.0,5.0;" x1="203.5" x2="203.5" y1="121.2188" y2="754.1953"/><line style="stroke:#181818;stroke-width:0.5;stroke-dasharray:5.0,5.0;" x1="372" x2="372" y1="121.2188" y2="754.1953"/><line style="stroke:#181818;stroke-width:0.5;stroke-dasharray:5.0,5.0;" x1="618.5" x2="618.5" y1="121.2188" y2="754.1953"/><line style="stroke:#181818;stroke-width:0.5;stroke-dasharray:5.0,5.0;" x1="757" x2="757" y1="121.2188" y2="754.1953"/><line style="stroke:#181818;stroke-width:0.5;stroke-dasharray:5.0,5.0;" x1="865" x2="865" y1="121.2188" y2="754.1953"/><line style="stroke:#181818;stroke-width:0.5;stroke-dasharray:5.0,5.0;" x1="979.5" x2="979.5" y1="121.2188" y2="754.1953"/><line style="stroke:#181818;stroke-width:0.5;stroke-dasharray:5.0,5.0;" x1="1063.5" x2="1063.5" y1="121.2188" y2="754.1953"/><line style="stroke:#181818;stroke-width:0.5;stroke-dasharray:5.0,5.0;" x1="1177" x2="1177" y1="121.2188" y2="754.1953"/><text fill="#000000" font-family="sans-serif" font-size="14" lengthAdjust="spacing" textLength="39" x="5" y="118.1426">Admin</text><ellipse cx="27.5" cy="52.1094" fill="#E2E2F0" rx="8" ry="8" style="stroke:#181818;stroke-width:0.5;"/><path d="M27.5,60.1094 L27.5,87.1094 M14.5,68.1094 L40.5,68.1094 M27.5,87.1094 L14.5,102.1094 M27.5,87.1094 L40.5,102.1094 " fill="none" style="stroke:#181818;stroke-width:0.5;"/><text fill="#000000" font-family="sans-serif" font-size="14" lengthAdjust="spacing" textLength="39" x="5" y="767.7285">Admin</text><ellipse cx="27.5" cy="779.3047" fill="#E2E2F0" rx="8" ry="8" style="stroke:#181818;stroke-width:0.5;"/><path d="M27.5,787.3047 L27.5,814.3047 M14.5,795.3047 L40.5,795.3047 M27.5,814.3047 L14.5,829.3047 M27.5,814.3047 L40.5,829.3047 " fill="none" style="stroke:#181818;stroke-width:0.5;"/><rect fill="#E2E2F0" height="31.6094" rx="2.5" ry="2.5" style="stroke:#181818;stroke-width:0.5;" width="52" x="177.5" y="88.6094"/><text fill="#000000" font-family="sans-serif" font-size="14" lengthAdjust="spacing" textLength="38" x="184.5" y="110.1426">Route</text><rect fill="#E2E2F0" height="31.6094" rx="2.5" ry="2.5" style="stroke:#181818;stroke-width:0.5;" width="52" x="177.5" y="753.1953"/><text fill="#000000" font-family="sans-serif" font-size="14" lengthAdjust="spacing" textLength="38" x="184.5" y="774.7285">Route</text><rect fill="#E2E2F0" height="31.6094" rx="2.5" ry="2.5" style="stroke:#181818;stroke-width:0.5;" width="105" x="320" y="88.6094"/><text fill="#000000" font-family="sans-serif" font-size="14" lengthAdjust="spacing" textLength="91" x="327" y="110.1426">StaffController</text><rect fill="#E2E2F0" height="31.6094" rx="2.5" ry="2.5" style="stroke:#181818;stroke-width:0.5;" width="105" x="320" y="753.1953"/><text fill="#000000" font-family="sans-serif" font-size="14" lengthAdjust="spacing" textLength="91" x="327" y="774.7285">StaffController</text><rect fill="#E2E2F0" height="31.6094" rx="2.5" ry="2.5" style="stroke:#181818;stroke-width:0.5;" width="90" x="573.5" y="88.6094"/><text fill="#000000" font-family="sans-serif" font-size="14" lengthAdjust="spacing" textLength="76" x="580.5" y="110.1426">StaffService</text><rect fill="#E2E2F0" height="31.6094" rx="2.5" ry="2.5" style="stroke:#181818;stroke-width:0.5;" width="90" x="573.5" y="753.1953"/><text fill="#000000" font-family="sans-serif" font-size="14" lengthAdjust="spacing" textLength="76" x="580.5" y="774.7285">StaffService</text><rect fill="#E2E2F0" height="31.6094" rx="2.5" ry="2.5" style="stroke:#181818;stroke-width:0.5;" width="111" x="702" y="88.6094"/><text fill="#000000" font-family="sans-serif" font-size="14" lengthAdjust="spacing" textLength="97" x="709" y="110.1426">StaffRepository</text><rect fill="#E2E2F0" height="31.6094" rx="2.5" ry="2.5" style="stroke:#181818;stroke-width:0.5;" width="111" x="702" y="753.1953"/><text fill="#000000" font-family="sans-serif" font-size="14" lengthAdjust="spacing" textLength="97" x="709" y="774.7285">StaffRepository</text><rect fill="#E2E2F0" height="31.6094" rx="2.5" ry="2.5" style="stroke:#181818;stroke-width:0.5;" width="85" x="823" y="88.6094"/><text fill="#000000" font-family="sans-serif" font-size="14" lengthAdjust="spacing" textLength="71" x="830" y="110.1426">LogService</text><rect fill="#E2E2F0" height="31.6094" rx="2.5" ry="2.5" style="stroke:#181818;stroke-width:0.5;" width="85" x="823" y="753.1953"/><text fill="#000000" font-family="sans-serif" font-size="14" lengthAdjust="spacing" textLength="71" x="830" y="774.7285">LogService</text><rect fill="#E2E2F0" height="31.6094" rx="2.5" ry="2.5" style="stroke:#181818;stroke-width:0.5;" width="106" x="926.5" y="88.6094"/><text fill="#000000" font-family="sans-serif" font-size="14" lengthAdjust="spacing" textLength="92" x="933.5" y="110.1426">LogRepository</text><rect fill="#E2E2F0" height="31.6094" rx="2.5" ry="2.5" style="stroke:#181818;stroke-width:0.5;" width="106" x="926.5" y="753.1953"/><text fill="#000000" font-family="sans-serif" font-size="14" lengthAdjust="spacing" textLength="92" x="933.5" y="774.7285">LogRepository</text><rect fill="#E2E2F0" height="31.6094" rx="2.5" ry="2.5" style="stroke:#181818;stroke-width:0.5;" width="43" x="1042.5" y="88.6094"/><text fill="#000000" font-family="sans-serif" font-size="14" lengthAdjust="spacing" textLength="29" x="1049.5" y="110.1426">Staff</text><rect fill="#E2E2F0" height="31.6094" rx="2.5" ry="2.5" style="stroke:#181818;stroke-width:0.5;" width="43" x="1042.5" y="753.1953"/><text fill="#000000" font-family="sans-serif" font-size="14" lengthAdjust="spacing" textLength="29" x="1049.5" y="774.7285">Staff</text><text fill="#000000" font-family="sans-serif" font-size="14" lengthAdjust="spacing" textLength="62" x="1143" y="118.1426">DataBase</text><path d="M1159,67.6094 C1159,57.6094 1177,57.6094 1177,57.6094 C1177,57.6094 1195,57.6094 1195,67.6094 L1195,93.6094 C1195,103.6094 1177,103.6094 1177,103.6094 C1177,103.6094 1159,103.6094 1159,93.6094 L1159,67.6094 " fill="#E2E2F0" style="stroke:#181818;stroke-width:1.5;"/><path d="M1159,67.6094 C1159,77.6094 1177,77.6094 1177,77.6094 C1177,77.6094 1195,77.6094 1195,67.6094 " fill="none" style="stroke:#181818;stroke-width:1.5;"/><text fill="#000000" font-family="sans-serif" font-size="14" lengthAdjust="spacing" textLength="62" x="1143" y="767.7285">DataBase</text><path d="M1159,780.8047 C1159,770.8047 1177,770.8047 1177,770.8047 C1177,770.8047 1195,770.8047 1195,780.8047 L1195,806.8047 C1195,816.8047 1177,816.8047 1177,816.8047 C1177,816.8047 1159,816.8047 1159,806.8047 L1159,780.8047 " fill="#E2E2F0" style="stroke:#181818;stroke-width:1.5;"/><path d="M1159,780.8047 C1159,790.8047 1177,790.8047 1177,790.8047 C1177,790.8047 1195,790.8047 1195,780.8047 " fill="none" style="stroke:#181818;stroke-width:1.5;"/><rect fill="#FFFFFF" height="604.9766" style="stroke:#181818;stroke-width:1.0;" width="10" x="22.5" y="131.2188"/><rect fill="#FFFFFF" height="582.625" style="stroke:#181818;stroke-width:1.0;" width="10" x="198.5" y="153.5703"/><rect fill="#FFFFFF" height="521.9219" style="stroke:#181818;stroke-width:1.0;" width="10" x="367.5" y="183.9219"/><rect fill="#FFFFFF" height="461.2188" style="stroke:#181818;stroke-width:1.0;" width="10" x="613.5" y="214.2734"/><rect fill="#FFFFFF" height="91.0547" style="stroke:#181818;stroke-width:1.0;" width="10" x="752.5" y="244.625"/><rect fill="#FFFFFF" height="58.3516" style="stroke:#181818;stroke-width:1.0;" width="10" x="752.5" y="453.7344"/><rect fill="#FFFFFF" height="102.7031" style="stroke:#181818;stroke-width:1.0;" width="10" x="860.5" y="542.4375"/><rect fill="#FFFFFF" height="58.3516" style="stroke:#181818;stroke-width:1.0;" width="10" x="974.5" y="572.7891"/><rect fill="#FFFFFF" height="57.3516" style="stroke:#181818;stroke-width:1.0;" width="10" x="1059" y="366.0313"/><rect fill="#FFFFFF" height="30.3516" style="stroke:#181818;stroke-width:1.0;" width="10" x="1172" y="274.9766"/><rect fill="#FFFFFF" height="14" style="stroke:#181818;stroke-width:1.0;" width="10" x="1172" y="484.0859"/><rect fill="#FFFFFF" height="14" style="stroke:#181818;stroke-width:1.0;" width="10" x="1172" y="603.1406"/><polygon fill="#A52A2A" points="186.5,149.5703,196.5,153.5703,186.5,157.5703,190.5,153.5703" style="stroke:#A52A2A;stroke-width:1.0;"/><line style="stroke:#A52A2A;stroke-width:1.0;" x1="32.5" x2="192.5" y1="153.5703" y2="153.5703"/><text fill="#000000" font-family="sans-serif" font-size="13" lengthAdjust="spacing" textLength="147" x="39.5" y="148.7139">HttpPatch("/isActive/{id}")</text><polygon fill="#A52A2A" points="355.5,179.9219,365.5,183.9219,355.5,187.9219,359.5,183.9219" style="stroke:#A52A2A;stroke-width:1.0;"/><line style="stroke:#A52A2A;stroke-width:1.0;" x1="208.5" x2="361.5" y1="183.9219" y2="183.9219"/><text fill="#000000" font-family="sans-serif" font-size="13" lengthAdjust="spacing" textLength="140" x="215.5" y="179.0654">UpdateIsActive(string id)</text><polygon fill="#A52A2A" points="601.5,210.2734,611.5,214.2734,601.5,218.2734,605.5,214.2734" style="stroke:#A52A2A;stroke-width:1.0;"/><line style="stroke:#A52A2A;stroke-width:1.0;" x1="377.5" x2="607.5" y1="214.2734" y2="214.2734"/><text fill="#000000" font-family="sans-serif" font-size="13" lengthAdjust="spacing" textLength="217" x="384.5" y="209.417">UpdateIsActiveAsync(id, adminEmail)</text><polygon fill="#A52A2A" points="740.5,240.625,750.5,244.625,740.5,248.625,744.5,244.625" style="stroke:#A52A2A;stroke-width:1.0;"/><line style="stroke:#A52A2A;stroke-width:1.0;" x1="623.5" x2="746.5" y1="244.625" y2="244.625"/><text fill="#000000" font-family="sans-serif" font-size="13" lengthAdjust="spacing" textLength="102" x="630.5" y="239.7686">GetByIdAsync(id)</text><polygon fill="#A52A2A" points="1160,270.9766,1170,274.9766,1160,278.9766,1164,274.9766" style="stroke:#A52A2A;stroke-width:1.0;"/><line style="stroke:#A52A2A;stroke-width:1.0;" x1="762.5" x2="1166" y1="274.9766" y2="274.9766"/><text fill="#000000" font-family="sans-serif" font-size="13" lengthAdjust="spacing" textLength="62" x="769.5" y="270.1201">getById(id)</text><polygon fill="#A52A2A" points="773.5,301.3281,763.5,305.3281,773.5,309.3281,769.5,305.3281" style="stroke:#A52A2A;stroke-width:1.0;"/><line style="stroke:#A52A2A;stroke-width:1.0;stroke-dasharray:2.0,2.0;" x1="767.5" x2="1176" y1="305.3281" y2="305.3281"/><text fill="#000000" font-family="sans-serif" font-size="13" lengthAdjust="spacing" textLength="24" x="779.5" y="300.4717">staff</text><polygon fill="#A52A2A" points="634.5,331.6797,624.5,335.6797,634.5,339.6797,630.5,335.6797" style="stroke:#A52A2A;stroke-width:1.0;"/><line style="stroke:#A52A2A;stroke-width:1.0;stroke-dasharray:2.0,2.0;" x1="628.5" x2="756.5" y1="335.6797" y2="335.6797"/><text fill="#000000" font-family="sans-serif" font-size="13" lengthAdjust="spacing" textLength="24" x="640.5" y="330.8232">staff</text><polygon fill="#A52A2A" points="1047,362.0313,1057,366.0313,1047,370.0313,1051,366.0313" style="stroke:#A52A2A;stroke-width:1.0;"/><line style="stroke:#A52A2A;stroke-width:1.0;" x1="623.5" x2="1053" y1="366.0313" y2="366.0313"/><text fill="#000000" font-family="sans-serif" font-size="13" lengthAdjust="spacing" textLength="88" x="630.5" y="361.1748">changeStatus()</text><line style="stroke:#A52A2A;stroke-width:1.0;" x1="1069" x2="1111" y1="396.3828" y2="396.3828"/><line style="stroke:#A52A2A;stroke-width:1.0;" x1="1111" x2="1111" y1="396.3828" y2="409.3828"/><line style="stroke:#A52A2A;stroke-width:1.0;" x1="1070" x2="1111" y1="409.3828" y2="409.3828"/><polygon fill="#A52A2A" points="1080,405.3828,1070,409.3828,1080,413.3828,1076,409.3828" style="stroke:#A52A2A;stroke-width:1.0;"/><text fill="#000000" font-family="sans-serif" font-size="13" lengthAdjust="spacing" textLength="89" x="1076" y="391.5264">status changed</text><polygon fill="#A52A2A" points="634.5,419.3828,624.5,423.3828,634.5,427.3828,630.5,423.3828" style="stroke:#A52A2A;stroke-width:1.0;"/><line style="stroke:#A52A2A;stroke-width:1.0;stroke-dasharray:2.0,2.0;" x1="628.5" x2="1063" y1="423.3828" y2="423.3828"/><polygon fill="#A52A2A" points="740.5,449.7344,750.5,453.7344,740.5,457.7344,744.5,453.7344" style="stroke:#A52A2A;stroke-width:1.0;"/><line style="stroke:#A52A2A;stroke-width:1.0;stroke-dasharray:2.0,2.0;" x1="623.5" x2="746.5" y1="453.7344" y2="453.7344"/><text fill="#000000" font-family="sans-serif" font-size="13" lengthAdjust="spacing" textLength="110" x="630.5" y="448.8779">UpdateAsync(staff)</text><polygon fill="#A52A2A" points="1160,480.0859,1170,484.0859,1160,488.0859,1164,484.0859" style="stroke:#A52A2A;stroke-width:1.0;"/><line style="stroke:#A52A2A;stroke-width:1.0;" x1="762.5" x2="1166" y1="484.0859" y2="484.0859"/><text fill="#000000" font-family="sans-serif" font-size="13" lengthAdjust="spacing" textLength="71" x="769.5" y="479.2295">update(staff)</text><polygon fill="#A52A2A" points="773.5,494.0859,763.5,498.0859,773.5,502.0859,769.5,498.0859" style="stroke:#A52A2A;stroke-width:1.0;"/><line style="stroke:#A52A2A;stroke-width:1.0;stroke-dasharray:2.0,2.0;" x1="767.5" x2="1176" y1="498.0859" y2="498.0859"/><polygon fill="#A52A2A" points="634.5,508.0859,624.5,512.0859,634.5,516.0859,630.5,512.0859" style="stroke:#A52A2A;stroke-width:1.0;"/><line style="stroke:#A52A2A;stroke-width:1.0;stroke-dasharray:2.0,2.0;" x1="628.5" x2="756.5" y1="512.0859" y2="512.0859"/><polygon fill="#A52A2A" points="848.5,538.4375,858.5,542.4375,848.5,546.4375,852.5,542.4375" style="stroke:#A52A2A;stroke-width:1.0;"/><line style="stroke:#A52A2A;stroke-width:1.0;stroke-dasharray:2.0,2.0;" x1="623.5" x2="854.5" y1="542.4375" y2="542.4375"/><text fill="#000000" font-family="sans-serif" font-size="13" lengthAdjust="spacing" textLength="197" x="630.5" y="537.5811">CreateLogAsync(log, adminEmail)</text><polygon fill="#A52A2A" points="962.5,568.7891,972.5,572.7891,962.5,576.7891,966.5,572.7891" style="stroke:#A52A2A;stroke-width:1.0;"/><line style="stroke:#A52A2A;stroke-width:1.0;stroke-dasharray:2.0,2.0;" x1="870.5" x2="968.5" y1="572.7891" y2="572.7891"/><text fill="#000000" font-family="sans-serif" font-size="13" lengthAdjust="spacing" textLength="85" x="877.5" y="567.9326">AddAsync(log)</text><polygon fill="#A52A2A" points="1160,599.1406,1170,603.1406,1160,607.1406,1164,603.1406" style="stroke:#A52A2A;stroke-width:1.0;"/><line style="stroke:#A52A2A;stroke-width:1.0;" x1="984.5" x2="1166" y1="603.1406" y2="603.1406"/><text fill="#000000" font-family="sans-serif" font-size="13" lengthAdjust="spacing" textLength="46" x="991.5" y="598.2842">add(log)</text><polygon fill="#A52A2A" points="995.5,613.1406,985.5,617.1406,995.5,621.1406,991.5,617.1406" style="stroke:#A52A2A;stroke-width:1.0;"/><line style="stroke:#A52A2A;stroke-width:1.0;stroke-dasharray:2.0,2.0;" x1="989.5" x2="1176" y1="617.1406" y2="617.1406"/><polygon fill="#A52A2A" points="881.5,627.1406,871.5,631.1406,881.5,635.1406,877.5,631.1406" style="stroke:#A52A2A;stroke-width:1.0;"/><line style="stroke:#A52A2A;stroke-width:1.0;stroke-dasharray:2.0,2.0;" x1="875.5" x2="978.5" y1="631.1406" y2="631.1406"/><polygon fill="#A52A2A" points="634.5,641.1406,624.5,645.1406,634.5,649.1406,630.5,645.1406" style="stroke:#A52A2A;stroke-width:1.0;"/><line style="stroke:#A52A2A;stroke-width:1.0;stroke-dasharray:2.0,2.0;" x1="628.5" x2="864.5" y1="645.1406" y2="645.1406"/><polygon fill="#A52A2A" points="388.5,671.4922,378.5,675.4922,388.5,679.4922,384.5,675.4922" style="stroke:#A52A2A;stroke-width:1.0;"/><line style="stroke:#A52A2A;stroke-width:1.0;stroke-dasharray:2.0,2.0;" x1="382.5" x2="617.5" y1="675.4922" y2="675.4922"/><text fill="#000000" font-family="sans-serif" font-size="13" lengthAdjust="spacing" textLength="22" x="394.5" y="670.6357">true</text><polygon fill="#A52A2A" points="219.5,701.8438,209.5,705.8438,219.5,709.8438,215.5,705.8438" style="stroke:#A52A2A;stroke-width:1.0;"/><line style="stroke:#A52A2A;stroke-width:1.0;stroke-dasharray:2.0,2.0;" x1="213.5" x2="371.5" y1="705.8438" y2="705.8438"/><text fill="#000000" font-family="sans-serif" font-size="13" lengthAdjust="spacing" textLength="22" x="225.5" y="700.9873">true</text><polygon fill="#A52A2A" points="38.5,732.1953,28.5,736.1953,38.5,740.1953,34.5,736.1953" style="stroke:#A52A2A;stroke-width:1.0;"/><line style="stroke:#A52A2A;stroke-width:1.0;stroke-dasharray:2.0,2.0;" x1="32.5" x2="202.5" y1="736.1953" y2="736.1953"/><text fill="#000000" font-family="sans-serif" font-size="13" lengthAdjust="spacing" textLength="22" x="44.5" y="731.3389">true</text><!--SRC=[rPJDZfim4CVlF8MLKofrjNlEeH99gYvIr4RGF81Z3yHQObFRR9MkzjqxjY4O9zjxEO3D_ERhRmOhR0kaWbyzI0PaAsYZwPbavaN8ZhebQwankRLQ77iB1LEo4d-0F6KfGzuoWjTErB0J4jPASz0RrIfDjeeteDTj3tE4ifT6grxoWENx_QxOv3-B7zyzbzftS5PoSn9rhQG7SgtLxs1RuogyZ1DNbFCMWkqzhhZ3qBI1obwmVGtCKjcqCEk9QluVj4IPTMduMSWC2xU2YOvAInQbmkDQ46h8ePXRAalhUgEarQfjGNjcsjvXAz2lWeLWlG5TtM5Aw9GHMClbYfLpRAUQE93RtW195FVcJgvhXenJIu_K05biSRN6bRVnenT6l58BWpR-JXw-e1ehycnjjwUMdPQBHs5oHyBZc-3lYq-J7yfsA9p7fCtgq656A0QNfS6fa0qHF7ABb9oMBenNZgp8F4PkBf8j1VzCgAlmwvcADeeMv0wkGumIOtm3kxuKV7HE74gIXGTwy2FYJS3d98g4neSnweeOfst68IQ6E6FvTw1mqhCACICxuK3XU57RcsLIdeT7raT4QF3WW_6gLvegP8gg3d869NnngHY95htdRz143V9l7JuK007tOMEUZGQquYQKrghcWoFsVERlWxixuPppg-CSBZqyDOJ_WmJ2rsCpWP_t4hp7IcEZdxTh9RS7u6TswZJwlbV4QlmL9hAWTpm3Vlhke17ZHmwvCAwtA0vbj0kZdLn_0G00]--></g></svg>