<svg xmlns="http://www.w3.org/2000/svg" xmlns:xlink="http://www.w3.org/1999/xlink" contentStyleType="text/css" height="812px" preserveAspectRatio="none" style="width:1440px;height:812px;background:#FFFFFF;" version="1.1" viewBox="0 0 1440 812" width="1440px" zoomAndPan="magnify"><defs/><g><!--cluster User Aggregate--><g id="cluster_User Aggregate"><rect fill="none" height="345" rx="2.5" ry="2.5" style="stroke:#000000;stroke-width:1.5;" width="451" x="506.5" y="7"/><text fill="#000000" font-family="sans-serif" font-size="14" font-weight="bold" lengthAdjust="spacing" textLength="104.2549" x="679.8726" y="24.1074">User Aggregate</text></g><!--cluster Staff Aggregate--><g id="cluster_Staff Aggregate"><rect fill="none" height="395" rx="2.5" ry="2.5" style="stroke:#000000;stroke-width:1.5;" width="1355" x="79.5" y="411"/><text fill="#000000" font-family="sans-serif" font-size="14" font-weight="bold" lengthAdjust="spacing" textLength="104.2344" x="704.8828" y="428.1074">Staff Aggregate</text></g><!--class User--><g id="elem_User"><rect codeLine="29" fill="#FFFACD" height="68.543" id="User" rx="2.5" ry="2.5" style="stroke:#8B4513;stroke-width:0.5;" width="44.0293" x="736.5" y="259"/><text fill="#000000" font-family="sans-serif" font-size="12" font-style="italic" lengthAdjust="spacing" textLength="42.0293" x="737.5" y="276.9492">&#171;entity&#187;</text><text fill="#000000" font-family="sans-serif" font-size="12" font-style="italic" lengthAdjust="spacing" textLength="34.0254" x="741.502" y="292.9102">&#171;root&#187;</text><text fill="#000000" font-family="sans-serif" font-size="14" lengthAdjust="spacing" textLength="29.5586" x="743.7354" y="311.0293">User</text><line style="stroke:#8B4513;stroke-width:0.5;" x1="737.5" x2="779.5293" y1="319.543" y2="319.543"/></g><!--entity Username--><g id="elem_Username"><rect fill="#FFFACD" height="43.2422" rx="2.5" ry="2.5" style="stroke:#8B4513;stroke-width:0.5;" width="115.7305" x="549.5" y="103.5"/><text fill="#000000" font-family="sans-serif" font-size="14" font-style="italic" lengthAdjust="spacing" textLength="95.7305" x="559.5" y="121.6074">&#171;Value Object&#187;</text><text fill="#000000" font-family="sans-serif" font-size="14" lengthAdjust="spacing" textLength="64.5791" x="575.0757" y="140.2285">Username</text></g><!--entity Email--><g id="elem_Email"><rect fill="#FFFACD" height="43.2422" rx="2.5" ry="2.5" style="stroke:#8B4513;stroke-width:0.5;" width="115.7305" x="700.5" y="103.5"/><text fill="#000000" font-family="sans-serif" font-size="14" font-style="italic" lengthAdjust="spacing" textLength="95.7305" x="710.5" y="121.6074">&#171;Value Object&#187;</text><text fill="#000000" font-family="sans-serif" font-size="14" lengthAdjust="spacing" textLength="35.0068" x="740.8618" y="140.2285">Email</text></g><!--class Role--><g id="elem_Role"><rect codeLine="35" fill="#FFFACD" height="145.6875" id="Role" rx="2.5" ry="2.5" style="stroke:#8B4513;stroke-width:0.5;" width="82.0566" x="851.5" y="52"/><text fill="#000000" font-family="sans-serif" font-size="12" font-style="italic" lengthAdjust="spacing" textLength="80.0566" x="852.5" y="69.9492">&#171;enumeration&#187;</text><text fill="#000000" font-family="sans-serif" font-size="14" lengthAdjust="spacing" textLength="28.793" x="878.1318" y="88.0684">Role</text><line style="stroke:#8B4513;stroke-width:0.5;" x1="852.5" x2="932.5566" y1="96.582" y2="96.582"/><text fill="#000000" font-family="sans-serif" font-size="14" lengthAdjust="spacing" textLength="39.6826" x="857.5" y="115.6895">Admin</text><text fill="#000000" font-family="sans-serif" font-size="14" lengthAdjust="spacing" textLength="41.2344" x="857.5" y="134.3105">Doctor</text><text fill="#000000" font-family="sans-serif" font-size="14" lengthAdjust="spacing" textLength="37.3447" x="857.5" y="152.9316">Nurse</text><text fill="#000000" font-family="sans-serif" font-size="14" lengthAdjust="spacing" textLength="67.7031" x="857.5" y="171.5527">Technician</text><text fill="#000000" font-family="sans-serif" font-size="14" lengthAdjust="spacing" textLength="43.5859" x="857.5" y="190.1738">Patient</text></g><!--class Staff--><g id="elem_Staff"><rect codeLine="54" fill="#FFFACD" height="68.543" id="Staff" rx="2.5" ry="2.5" style="stroke:#8B4513;stroke-width:0.5;" width="44.0293" x="736.5" y="448"/><text fill="#000000" font-family="sans-serif" font-size="12" font-style="italic" lengthAdjust="spacing" textLength="42.0293" x="737.5" y="465.9492">&#171;entity&#187;</text><text fill="#000000" font-family="sans-serif" font-size="12" font-style="italic" lengthAdjust="spacing" textLength="34.0254" x="741.502" y="481.9102">&#171;root&#187;</text><text fill="#000000" font-family="sans-serif" font-size="14" lengthAdjust="spacing" textLength="28.793" x="744.1182" y="500.0293">Staff</text><line style="stroke:#8B4513;stroke-width:0.5;" x1="737.5" x2="779.5293" y1="508.543" y2="508.543"/></g><!--entity StaffID--><g id="elem_StaffID"><rect fill="#FFFACD" height="43.2422" rx="2.5" ry="2.5" style="stroke:#8B4513;stroke-width:0.5;" width="115.7305" x="95.5" y="578"/><text fill="#000000" font-family="sans-serif" font-size="14" font-style="italic" lengthAdjust="spacing" textLength="95.7305" x="105.5" y="596.1074">&#171;Value Object&#187;</text><text fill="#000000" font-family="sans-serif" font-size="14" lengthAdjust="spacing" textLength="42.793" x="131.9688" y="614.7285">StaffID</text></g><!--entity StaffFirstName--><g id="elem_StaffFirstName"><rect fill="#FFFACD" height="43.2422" rx="2.5" ry="2.5" style="stroke:#8B4513;stroke-width:0.5;" width="115.7305" x="246.5" y="578"/><text fill="#000000" font-family="sans-serif" font-size="14" font-style="italic" lengthAdjust="spacing" textLength="95.7305" x="256.5" y="596.1074">&#171;Value Object&#187;</text><text fill="#000000" font-family="sans-serif" font-size="14" lengthAdjust="spacing" textLength="93.3516" x="257.6895" y="614.7285">StaffFirstName</text></g><!--entity StaffLastName--><g id="elem_StaffLastName"><rect fill="#FFFACD" height="43.2422" rx="2.5" ry="2.5" style="stroke:#8B4513;stroke-width:0.5;" width="115.7305" x="397.5" y="578"/><text fill="#000000" font-family="sans-serif" font-size="14" font-style="italic" lengthAdjust="spacing" textLength="95.7305" x="407.5" y="596.1074">&#171;Value Object&#187;</text><text fill="#000000" font-family="sans-serif" font-size="14" lengthAdjust="spacing" textLength="92.5996" x="409.0654" y="614.7285">StaffLastName</text></g><!--entity StaffFullName--><g id="elem_StaffFullName"><rect fill="#FFFACD" height="43.2422" rx="2.5" ry="2.5" style="stroke:#8B4513;stroke-width:0.5;" width="115.7305" x="548.5" y="578"/><text fill="#000000" font-family="sans-serif" font-size="14" font-style="italic" lengthAdjust="spacing" textLength="95.7305" x="558.5" y="596.1074">&#171;Value Object&#187;</text><text fill="#000000" font-family="sans-serif" font-size="14" lengthAdjust="spacing" textLength="88.6963" x="562.0171" y="614.7285">StaffFullName</text></g><!--entity LicenseNumber--><g id="elem_LicenseNumber"><rect fill="#FFFACD" height="43.2422" rx="2.5" ry="2.5" style="stroke:#8B4513;stroke-width:0.5;" width="118.0479" x="699.5" y="578"/><text fill="#000000" font-family="sans-serif" font-size="14" font-style="italic" lengthAdjust="spacing" textLength="95.7305" x="710.6587" y="596.1074">&#171;Value Object&#187;</text><text fill="#000000" font-family="sans-serif" font-size="14" lengthAdjust="spacing" textLength="98.0479" x="709.5" y="614.7285">LicenseNumber</text></g><!--entity isActives--><g id="elem_isActives"><rect fill="#FFFACD" height="43.2422" rx="2.5" ry="2.5" style="stroke:#8B4513;stroke-width:0.5;" width="86.9512" x="853" y="578"/><text fill="#000000" font-family="sans-serif" font-size="14" font-style="italic" lengthAdjust="spacing" textLength="66.9512" x="863" y="596.1074">&#171;Boolean&#187;</text><text fill="#000000" font-family="sans-serif" font-size="14" lengthAdjust="spacing" textLength="55.2344" x="868.8584" y="614.7285">isActives</text></g><!--entity AvailabilitySlots--><g id="elem_AvailabilitySlots"><rect fill="#FFFACD" height="43.2422" rx="2.5" ry="2.5" style="stroke:#8B4513;stroke-width:0.5;" width="117.2617" x="975" y="578"/><text fill="#000000" font-family="sans-serif" font-size="14" font-style="italic" lengthAdjust="spacing" textLength="95.7305" x="985.7656" y="596.1074">&#171;Value Object&#187;</text><text fill="#000000" font-family="sans-serif" font-size="14" lengthAdjust="spacing" textLength="97.2617" x="985" y="614.7285">AvailabilitySlots</text></g><!--class TimeSlots--><g id="elem_TimeSlots"><rect codeLine="67" fill="#FFFACD" height="108.4453" id="TimeSlots" rx="2.5" ry="2.5" style="stroke:#8B4513;stroke-width:0.5;" width="84.0547" x="991.5" y="682"/><text fill="#000000" font-family="sans-serif" font-size="12" font-style="italic" lengthAdjust="spacing" textLength="82.0547" x="992.5" y="699.9492">&#171;Value Object&#187;</text><text fill="#000000" font-family="sans-serif" font-size="14" lengthAdjust="spacing" textLength="62.2344" x="1002.4102" y="718.0684">TimeSlots</text><line style="stroke:#8B4513;stroke-width:0.5;" x1="992.5" x2="1074.5547" y1="726.582" y2="726.582"/><text fill="#000000" font-family="sans-serif" font-size="14" lengthAdjust="spacing" textLength="59.1377" x="997.5" y="745.6895">StartDate</text><text fill="#000000" font-family="sans-serif" font-size="14" lengthAdjust="spacing" textLength="54.4824" x="997.5" y="764.3105">EndDate</text><text fill="#000000" font-family="sans-serif" font-size="14" lengthAdjust="spacing" textLength="59.1445" x="997.5" y="782.9316">Occupied</text></g><!--entity StaffEmail--><g id="elem_StaffEmail"><rect fill="#FFFACD" height="43.2422" rx="2.5" ry="2.5" style="stroke:#8B4513;stroke-width:0.5;" width="115.7305" x="1127.5" y="578"/><text fill="#000000" font-family="sans-serif" font-size="14" font-style="italic" lengthAdjust="spacing" textLength="95.7305" x="1137.5" y="596.1074">&#171;Value Object&#187;</text><text fill="#000000" font-family="sans-serif" font-size="14" lengthAdjust="spacing" textLength="63.7998" x="1153.4653" y="614.7285">StaffEmail</text></g><!--entity StaffPhoneNumber--><g id="elem_StaffPhoneNumber"><rect fill="#FFFACD" height="43.2422" rx="2.5" ry="2.5" style="stroke:#8B4513;stroke-width:0.5;" width="139.0684" x="1279" y="578"/><text fill="#000000" font-family="sans-serif" font-size="14" font-style="italic" lengthAdjust="spacing" textLength="95.7305" x="1300.6689" y="596.1074">&#171;Value Object&#187;</text><text fill="#000000" font-family="sans-serif" font-size="14" lengthAdjust="spacing" textLength="119.0684" x="1289" y="614.7285">StaffPhoneNumber</text></g><g id="elem_GMN13"><path d="M6,111.5 L6,138.791 L478.6167,138.791 L478.6167,121.5 L468.6167,111.5 L6,111.5 " fill="#FEFFDD" style="stroke:#181818;stroke-width:0.5;"/><path d="M468.6167,111.5 L468.6167,121.5 L478.6167,121.5 L468.6167,111.5 " fill="#FEFFDD" style="stroke:#181818;stroke-width:1.0;"/><text fill="#000000" font-family="sans-serif" font-size="13" lengthAdjust="spacing" textLength="451.6167" x="12" y="130.5283">This logic is abstracted by the backend and is implemented in the IAM process</text></g><!--reverse link Username to User--><g id="link_Username_User"><path codeLine="44" d="M630.3511,151.1941 C658.2611,181.9641 706.48,235.14 736.25,267.97 " fill="none" id="Username-backto-User" style="stroke:#A52A2A;stroke-width:1.0;"/><polygon fill="#A52A2A" points="626.32,146.75,629.4038,156.1036,629.6792,150.4535,635.3294,150.7288,626.32,146.75" style="stroke:#A52A2A;stroke-width:1.0;"/><text fill="#000000" font-family="sans-serif" font-size="13" lengthAdjust="spacing" textLength="7.23" x="623.5044" y="168.9146">1</text><text fill="#000000" font-family="sans-serif" font-size="13" lengthAdjust="spacing" textLength="7.23" x="721.3948" y="254.6912">1</text></g><!--reverse link Email to User--><g id="link_Email_User"><path codeLine="45" d="M758.5,152.75 C758.5,180.82 758.5,225.23 758.5,258.78 " fill="none" id="Email-backto-User" style="stroke:#A52A2A;stroke-width:1.0;"/><polygon fill="#A52A2A" points="758.5,146.75,754.5,155.75,758.5,151.75,762.5,155.75,758.5,146.75" style="stroke:#A52A2A;stroke-width:1.0;"/><text fill="#000000" font-family="sans-serif" font-size="13" lengthAdjust="spacing" textLength="7.23" x="750.6265" y="168.9146">1</text><text fill="#000000" font-family="sans-serif" font-size="13" lengthAdjust="spacing" textLength="7.23" x="750.8519" y="247.6408">1</text></g><!--reverse link Role to User--><g id="link_Role_User"><path codeLine="46" d="M847.4388,181.9848 C824.2188,210.8448 799.9,241.06 780.77,264.83 " fill="none" id="Role-backto-User" style="stroke:#A52A2A;stroke-width:1.0;"/><polygon fill="#A52A2A" points="851.2,177.31,842.4417,181.8147,848.0657,181.2056,848.6747,186.8296,851.2,177.31" style="stroke:#A52A2A;stroke-width:1.0;"/><text fill="#000000" font-family="sans-serif" font-size="13" lengthAdjust="spacing" textLength="7.23" x="836.2354" y="182.1957">1</text><text fill="#000000" font-family="sans-serif" font-size="13" lengthAdjust="spacing" textLength="7.23" x="788.3694" y="251.0495">1</text></g><!--link GMN13 to User Aggregate--><g id="link_GMN13_User Aggregate"><path d="M479.17,125 C484.965,125 490.7625,125 496.56,125 C499.4588,125 502.3575,125 505.2559,125 C505.6182,125 505.9805,125 506.3428,125 C506.3881,125 506.4334,125 506.4787,125 " fill="none" id="GMN13-User Aggregate" style="stroke:#A52A2A;stroke-width:1.0;stroke-dasharray:7.0,7.0;"/></g><!--link Staff to StaffFirstName--><g id="link_Staff_StaffFirstName"><path codeLine="79" d="M736.31,488.9 C677.95,503.12 515.37,542.95 380.5,578 C374.68,579.51 374.4188,579.5694 368.3588,581.1794 " fill="none" id="Staff-to-StaffFirstName" style="stroke:#A52A2A;stroke-width:1.0;"/><polygon fill="#A52A2A" points="362.56,582.72,372.2853,584.275,367.3924,581.4362,370.2312,576.5432,362.56,582.72" style="stroke:#A52A2A;stroke-width:1.0;"/><text fill="#000000" font-family="sans-serif" font-size="13" lengthAdjust="spacing" textLength="7.23" x="721.1533" y="507.7969">1</text><text fill="#000000" font-family="sans-serif" font-size="13" lengthAdjust="spacing" textLength="7.23" x="370.0931" y="576.6703">1</text></g><!--link Staff to StaffLastName--><g id="link_Staff_StaffLastName"><path codeLine="80" d="M736.22,491.96 C688.86,509.93 582.6496,550.2411 515.2996,575.8011 " fill="none" id="Staff-to-StaffLastName" style="stroke:#A52A2A;stroke-width:1.0;"/><polygon fill="#A52A2A" points="509.69,577.93,519.5237,578.4764,514.3647,576.1559,516.6852,570.9969,509.69,577.93" style="stroke:#A52A2A;stroke-width:1.0;"/><text fill="#000000" font-family="sans-serif" font-size="13" lengthAdjust="spacing" textLength="7.23" x="721.3556" y="511.6031">1</text><text fill="#000000" font-family="sans-serif" font-size="13" lengthAdjust="spacing" textLength="7.23" x="516.3801" y="566.8836">1</text></g><!--link Staff to StaffFullName--><g id="link_Staff_StaffFullName"><path codeLine="81" d="M736.4,500.22 C709.23,520.78 667.9045,552.0394 638.5545,574.2494 " fill="none" id="Staff-to-StaffFullName" style="stroke:#A52A2A;stroke-width:1.0;"/><polygon fill="#A52A2A" points="633.77,577.87,643.3605,575.6288,637.7571,574.8529,638.533,569.2495,633.77,577.87" style="stroke:#A52A2A;stroke-width:1.0;"/><text fill="#000000" font-family="sans-serif" font-size="13" lengthAdjust="spacing" textLength="7.23" x="721.1378" y="536.1884">1</text><text fill="#000000" font-family="sans-serif" font-size="13" lengthAdjust="spacing" textLength="7.23" x="633.2253" y="566.8074">1</text></g><!--link Staff to StaffID--><g id="link_Staff_StaffID"><path codeLine="82" d="M736.44,486.74 C663.65,497.57 424.56,534.36 229.5,578 C223.77,579.28 223.6268,579.2386 217.6968,580.7386 " fill="none" id="Staff-to-StaffID" style="stroke:#A52A2A;stroke-width:1.0;"/><polygon fill="#A52A2A" points="211.88,582.21,221.5861,583.8808,216.7273,580.9839,219.6243,576.1251,211.88,582.21" style="stroke:#A52A2A;stroke-width:1.0;"/><text fill="#000000" font-family="sans-serif" font-size="13" lengthAdjust="spacing" textLength="7.23" x="721.3247" y="482.5297">1</text><text fill="#000000" font-family="sans-serif" font-size="13" lengthAdjust="spacing" textLength="7.23" x="219.0638" y="576.2592">1</text></g><!--link Staff to LicenseNumber--><g id="link_Staff_LicenseNumber"><path codeLine="83" d="M758.5,517.07 C758.5,536.7 758.5,554.85 758.5,571.73 " fill="none" id="Staff-to-LicenseNumber" style="stroke:#A52A2A;stroke-width:1.0;"/><polygon fill="#A52A2A" points="758.5,577.73,762.5,568.73,758.5,572.73,754.5,568.73,758.5,577.73" style="stroke:#A52A2A;stroke-width:1.0;"/><text fill="#000000" font-family="sans-serif" font-size="13" lengthAdjust="spacing" textLength="7.23" x="750.9157" y="538.5653">1</text><text fill="#000000" font-family="sans-serif" font-size="13" lengthAdjust="spacing" textLength="7.23" x="750.5838" y="566.6298">1</text></g><!--link Staff to AvailabilitySlots--><g id="link_Staff_AvailabilitySlots"><path codeLine="84" d="M780.54,492.72 C824.51,511.1 918.5447,550.4247 978.8147,575.6347 " fill="none" id="Staff-to-AvailabilitySlots" style="stroke:#A52A2A;stroke-width:1.0;"/><polygon fill="#A52A2A" points="984.35,577.95,977.5906,570.7868,979.7373,576.0206,974.5035,578.1672,984.35,577.95" style="stroke:#A52A2A;stroke-width:1.0;"/><text fill="#000000" font-family="sans-serif" font-size="13" lengthAdjust="spacing" textLength="7.23" x="788.3924" y="490.3896">1</text><text fill="#000000" font-family="sans-serif" font-size="13" lengthAdjust="spacing" textLength="7.23" x="963.196" y="566.9089">1</text></g><!--link Staff to isActives--><g id="link_Staff_isActives"><path codeLine="85" d="M780.67,501.98 C805.51,522.68 841.0704,552.3092 866.9704,573.8892 " fill="none" id="Staff-to-isActives" style="stroke:#A52A2A;stroke-width:1.0;"/><polygon fill="#A52A2A" points="871.58,577.73,867.2261,568.8958,867.7387,574.5294,862.1051,575.0419,871.58,577.73" style="stroke:#A52A2A;stroke-width:1.0;"/><text fill="#000000" font-family="sans-serif" font-size="13" lengthAdjust="spacing" textLength="7.23" x="788.5622" y="524.6917">1</text><text fill="#000000" font-family="sans-serif" font-size="13" lengthAdjust="spacing" textLength="7.23" x="856.9796" y="566.6298">1</text></g><!--link AvailabilitySlots to TimeSlots--><g id="link_AvailabilitySlots_TimeSlots"><path codeLine="86" d="M1033.5,621.22 C1033.5,637.36 1033.5,654.51 1033.5,675.72 " fill="none" id="AvailabilitySlots-to-TimeSlots" style="stroke:#A52A2A;stroke-width:1.0;"/><polygon fill="#A52A2A" points="1033.5,681.72,1037.5,672.72,1033.5,676.72,1029.5,672.72,1033.5,681.72" style="stroke:#A52A2A;stroke-width:1.0;"/><text fill="#000000" font-family="sans-serif" font-size="13" lengthAdjust="spacing" textLength="7.23" x="1025.5551" y="643.3765">1</text><text fill="#000000" font-family="sans-serif" font-size="13" lengthAdjust="spacing" textLength="5.0591" x="1028.18" y="670.6947">*</text></g><!--link Staff to StaffEmail--><g id="link_Staff_StaffEmail"><path codeLine="87" d="M780.68,489.47 C836.11,504.38 985.2,544.5 1109.5,578 C1115.31,579.56 1115.5666,579.6391 1121.6166,581.2691 " fill="none" id="Staff-to-StaffEmail" style="stroke:#A52A2A;stroke-width:1.0;"/><polygon fill="#A52A2A" points="1127.41,582.83,1119.7605,576.6264,1122.5822,581.5293,1117.6793,584.351,1127.41,582.83" style="stroke:#A52A2A;stroke-width:1.0;"/><text fill="#000000" font-family="sans-serif" font-size="13" lengthAdjust="spacing" textLength="7.23" x="788.5752" y="508.3506">1</text><text fill="#000000" font-family="sans-serif" font-size="13" lengthAdjust="spacing" textLength="7.23" x="1112.1674" y="576.4794">1</text></g><!--link Staff to StaffPhoneNumber--><g id="link_Staff_StaffPhoneNumber"><path codeLine="88" d="M780.63,487.29 C851.08,499.42 1076.34,538.81 1261.5,578 C1267.12,579.19 1267.076,579.1446 1272.906,580.4546 " fill="none" id="Staff-to-StaffPhoneNumber" style="stroke:#A52A2A;stroke-width:1.0;"/><polygon fill="#A52A2A" points="1278.76,581.77,1270.8559,575.8942,1273.8816,580.6738,1269.102,583.6996,1278.76,581.77" style="stroke:#A52A2A;stroke-width:1.0;"/><text fill="#000000" font-family="sans-serif" font-size="13" lengthAdjust="spacing" textLength="7.23" x="788.5099" y="483.2967">1</text><text fill="#000000" font-family="sans-serif" font-size="13" lengthAdjust="spacing" textLength="7.23" x="1263.7582" y="575.9321">1</text></g><!--reverse link User to Staff--><g id="link_User_Staff"><path codeLine="93" d="M758.5,334.36 C758.5,368.25 758.5,414.09 758.5,447.89 " fill="none" id="User-backto-Staff" style="stroke:#A52A2A;stroke-width:1.0;"/><polygon fill="#A52A2A" points="758.5,328.36,754.5,337.36,758.5,333.36,762.5,337.36,758.5,328.36" style="stroke:#A52A2A;stroke-width:1.0;"/><text fill="#000000" font-family="sans-serif" font-size="13" lengthAdjust="spacing" textLength="27.46" x="759.5" y="391.0283">edits</text><text fill="#000000" font-family="sans-serif" font-size="13" lengthAdjust="spacing" textLength="7.23" x="750.9369" y="349.6318">1</text><text fill="#000000" font-family="sans-serif" font-size="13" lengthAdjust="spacing" textLength="7.23" x="750.8519" y="436.7718">1</text></g><!--SRC=[rPJFYjim4CRlVWhXoq8Xq5vBC3Z9BXZIRDYalHP56jlJbIKZoRlTBVj0VOw-M2To_jX9dEwrXc39yuj6tymdbIY12RH2GLHknnNuqaWNSQNCy_SAVw8keYXoZwXhRdd5XEBEfTvRt3GUCc7q2b-1VJnZsA-8qJF77EQeOMAi13irobWsCx80Er4Dz14k7Wjh6YrRB5qkvzaqNMVtYy2TnkTG6JqjCS-D3a1ghNbkOnCQjH-xYLTSIWLjxAsxuvgMvWMi_8i2Pa5uhWigILSJj_8_a1JjbB3ugmFALnGM2kuXfhs7_uBsw5zOY8x7xIn9ncDhZ4-IdSAtbWsQjwJc5H3zZPC-Th_vGGLAaYDoMt5Kv_5TlgPY3qP1oDPKOBb7em-fWaXPeJxCPaPuOm_JHMCT76Ph4AL6WVp8Bsb1qj7T-0rx01Nok19hnr2xhRbz2QrmlYzBeCEd-5CyQaO9lGwABmQ3rekHhKXgWJOUc8BSCvEVT-4pMvVec3852aO3ld7USk51iirBsE266WXQCau_0h2g5LIaZmZKWSZIBwosHe1pKRVZAy_pVBZbRVXTFGzeDhlIya3SeNL-STqR0Pppzt5tZLB_uEOeG3jODDKcE7Y8GvSAZq_WY9aOQWtNUqlUk1h8GGfVWqNOdz-XH99BwDGWVQ96ymqgAjPA6Uyk9ziLTuqLNAOwFYUDri_sjji-jrhsvlT2D3M2x9ivRMzRuzZKQ4zkOPdEZQt2zazAE70M-z2oD7gmXBkiWoUezL7_2BNVjgTWD4h2ks-GQz3U75SNsXdZb95TA9iDBD7pp01prku1xk2hzde-CybnMn_YeokkxljufGmHdNvHUyWN7P1k7yRsrnRTBp58z2wE_W80]--></g></svg>