<svg xmlns="http://www.w3.org/2000/svg" xmlns:xlink="http://www.w3.org/1999/xlink" contentStyleType="text/css" height="541px" preserveAspectRatio="none" style="width:859px;height:541px;background:#FFFFFF;" version="1.1" viewBox="0 0 859 541" width="859px" zoomAndPan="magnify"><title>Conceptual Domain Model</title><defs/><g><text fill="#000000" font-family="sans-serif" font-size="14" font-weight="bold" lengthAdjust="spacing" textLength="175.7861" x="334.896" y="25.1074">Conceptual Domain Model</text><!--class Appointment--><g id="elem_Appointment"><rect codeLine="15" fill="#FFFACD" height="32" id="Appointment" rx="2.5" ry="2.5" style="stroke:#8B4513;stroke-width:0.5;" width="110.6064" x="306.5" y="280.6211"/><ellipse cx="321.5" cy="296.6211" fill="#ADD1B2" rx="11" ry="11" style="stroke:#181818;stroke-width:1.0;"/><path d="M320.3594,297.418 L320.3594,299.918 L324.6875,299.918 L324.6875,298.9961 Q324.6875,298.3867 324.9219,298.1211 Q325.1719,297.8555 325.5469,297.8555 Q325.9219,297.8555 326.1563,298.1211 Q326.3906,298.3867 326.3906,298.9961 L326.3906,301.6211 L318.3906,301.6211 Q317.7656,301.6211 317.5,301.3867 Q317.25,301.1523 317.25,300.7617 Q317.25,300.3867 317.5156,300.1523 Q317.7813,299.918 318.3906,299.918 L318.6563,299.918 L318.6563,293.2617 L318.3906,293.2617 Q317.7656,293.2617 317.5,293.0273 Q317.25,292.793 317.25,292.4023 Q317.25,292.0273 317.5,291.793 Q317.7656,291.5586 318.3906,291.5586 L326.0156,291.5586 L326.0156,294.1523 Q326.0156,294.7617 325.7813,295.0273 Q325.5625,295.2773 325.1719,295.2773 Q324.7969,295.2773 324.5625,295.0273 Q324.3281,294.7617 324.3281,294.1523 L324.3281,293.2617 L320.3594,293.2617 L320.3594,295.7148 L321.8438,295.7148 Q321.8438,295.0586 321.9688,294.8711 Q322.2344,294.4648 322.7031,294.4648 Q323.0781,294.4648 323.3125,294.7305 Q323.5469,294.9805 323.5469,295.5898 L323.5469,297.5586 Q323.5469,298.1055 323.4219,298.293 Q323.1563,298.6836 322.7031,298.6836 Q322.2344,298.6836 321.9688,298.2773 Q321.8438,298.0898 321.8438,297.418 L320.3594,297.418 Z " fill="#000000"/><text fill="#000000" font-family="sans-serif" font-size="14" lengthAdjust="spacing" textLength="78.6064" x="335.5" y="302.418">Appointment</text></g><!--class Equipment--><g id="elem_Equipment"><rect codeLine="23" fill="#FFFACD" height="32" id="Equipment" rx="2.5" ry="2.5" style="stroke:#8B4513;stroke-width:0.5;" width="98.9307" x="271.5" y="502.6211"/><ellipse cx="286.5" cy="518.6211" fill="#ADD1B2" rx="11" ry="11" style="stroke:#181818;stroke-width:1.0;"/><path d="M285.3594,519.418 L285.3594,521.918 L289.6875,521.918 L289.6875,520.9961 Q289.6875,520.3867 289.9219,520.1211 Q290.1719,519.8555 290.5469,519.8555 Q290.9219,519.8555 291.1563,520.1211 Q291.3906,520.3867 291.3906,520.9961 L291.3906,523.6211 L283.3906,523.6211 Q282.7656,523.6211 282.5,523.3867 Q282.25,523.1523 282.25,522.7617 Q282.25,522.3867 282.5156,522.1523 Q282.7813,521.918 283.3906,521.918 L283.6563,521.918 L283.6563,515.2617 L283.3906,515.2617 Q282.7656,515.2617 282.5,515.0273 Q282.25,514.793 282.25,514.4023 Q282.25,514.0273 282.5,513.793 Q282.7656,513.5586 283.3906,513.5586 L291.0156,513.5586 L291.0156,516.1523 Q291.0156,516.7617 290.7813,517.0273 Q290.5625,517.2773 290.1719,517.2773 Q289.7969,517.2773 289.5625,517.0273 Q289.3281,516.7617 289.3281,516.1523 L289.3281,515.2617 L285.3594,515.2617 L285.3594,517.7148 L286.8438,517.7148 Q286.8438,517.0586 286.9688,516.8711 Q287.2344,516.4648 287.7031,516.4648 Q288.0781,516.4648 288.3125,516.7305 Q288.5469,516.9805 288.5469,517.5898 L288.5469,519.5586 Q288.5469,520.1055 288.4219,520.293 Q288.1563,520.6836 287.7031,520.6836 Q287.2344,520.6836 286.9688,520.2773 Q286.8438,520.0898 286.8438,519.418 L285.3594,519.418 Z " fill="#000000"/><text fill="#000000" font-family="sans-serif" font-size="14" lengthAdjust="spacing" textLength="66.9307" x="300.5" y="524.418">Equipment</text></g><!--class SurgeryRoom--><g id="elem_SurgeryRoom"><rect codeLine="28" fill="#FFFACD" height="32" id="SurgeryRoom" rx="2.5" ry="2.5" style="stroke:#8B4513;stroke-width:0.5;" width="118.3652" x="262" y="391.6211"/><ellipse cx="277" cy="407.6211" fill="#ADD1B2" rx="11" ry="11" style="stroke:#181818;stroke-width:1.0;"/><path d="M275.8594,408.418 L275.8594,410.918 L280.1875,410.918 L280.1875,409.9961 Q280.1875,409.3867 280.4219,409.1211 Q280.6719,408.8555 281.0469,408.8555 Q281.4219,408.8555 281.6563,409.1211 Q281.8906,409.3867 281.8906,409.9961 L281.8906,412.6211 L273.8906,412.6211 Q273.2656,412.6211 273,412.3867 Q272.75,412.1523 272.75,411.7617 Q272.75,411.3867 273.0156,411.1523 Q273.2813,410.918 273.8906,410.918 L274.1563,410.918 L274.1563,404.2617 L273.8906,404.2617 Q273.2656,404.2617 273,404.0273 Q272.75,403.793 272.75,403.4023 Q272.75,403.0273 273,402.793 Q273.2656,402.5586 273.8906,402.5586 L281.5156,402.5586 L281.5156,405.1523 Q281.5156,405.7617 281.2813,406.0273 Q281.0625,406.2773 280.6719,406.2773 Q280.2969,406.2773 280.0625,406.0273 Q279.8281,405.7617 279.8281,405.1523 L279.8281,404.2617 L275.8594,404.2617 L275.8594,406.7148 L277.3438,406.7148 Q277.3438,406.0586 277.4688,405.8711 Q277.7344,405.4648 278.2031,405.4648 Q278.5781,405.4648 278.8125,405.7305 Q279.0469,405.9805 279.0469,406.5898 L279.0469,408.5586 Q279.0469,409.1055 278.9219,409.293 Q278.6563,409.6836 278.2031,409.6836 Q277.7344,409.6836 277.4688,409.2773 Q277.3438,409.0898 277.3438,408.418 L275.8594,408.418 Z " fill="#000000"/><text fill="#000000" font-family="sans-serif" font-size="14" lengthAdjust="spacing" textLength="86.3652" x="291" y="413.418">SurgeryRoom</text></g><!--class User--><g id="elem_User"><rect codeLine="37" fill="#FFFACD" height="32" id="User" rx="2.5" ry="2.5" style="stroke:#8B4513;stroke-width:0.5;" width="61.5586" x="457" y="52.1211"/><ellipse cx="472" cy="68.1211" fill="#ADD1B2" rx="11" ry="11" style="stroke:#181818;stroke-width:1.0;"/><path d="M470.8594,68.918 L470.8594,71.418 L475.1875,71.418 L475.1875,70.4961 Q475.1875,69.8867 475.4219,69.6211 Q475.6719,69.3555 476.0469,69.3555 Q476.4219,69.3555 476.6563,69.6211 Q476.8906,69.8867 476.8906,70.4961 L476.8906,73.1211 L468.8906,73.1211 Q468.2656,73.1211 468,72.8867 Q467.75,72.6523 467.75,72.2617 Q467.75,71.8867 468.0156,71.6523 Q468.2813,71.418 468.8906,71.418 L469.1563,71.418 L469.1563,64.7617 L468.8906,64.7617 Q468.2656,64.7617 468,64.5273 Q467.75,64.293 467.75,63.9023 Q467.75,63.5273 468,63.293 Q468.2656,63.0586 468.8906,63.0586 L476.5156,63.0586 L476.5156,65.6523 Q476.5156,66.2617 476.2813,66.5273 Q476.0625,66.7773 475.6719,66.7773 Q475.2969,66.7773 475.0625,66.5273 Q474.8281,66.2617 474.8281,65.6523 L474.8281,64.7617 L470.8594,64.7617 L470.8594,67.2148 L472.3438,67.2148 Q472.3438,66.5586 472.4688,66.3711 Q472.7344,65.9648 473.2031,65.9648 Q473.5781,65.9648 473.8125,66.2305 Q474.0469,66.4805 474.0469,67.0898 L474.0469,69.0586 Q474.0469,69.6055 473.9219,69.793 Q473.6563,70.1836 473.2031,70.1836 Q472.7344,70.1836 472.4688,69.7773 Q472.3438,69.5898 472.3438,68.918 L470.8594,68.918 Z " fill="#000000"/><text fill="#000000" font-family="sans-serif" font-size="14" lengthAdjust="spacing" textLength="29.5586" x="486" y="73.918">User</text></g><!--class OperationType--><g id="elem_OperationType"><rect codeLine="43" fill="#FFFACD" height="32" id="OperationType" rx="2.5" ry="2.5" style="stroke:#8B4513;stroke-width:0.5;" width="124.6064" x="635.5" y="169.6211"/><ellipse cx="650.5" cy="185.6211" fill="#ADD1B2" rx="11" ry="11" style="stroke:#181818;stroke-width:1.0;"/><path d="M649.3594,186.418 L649.3594,188.918 L653.6875,188.918 L653.6875,187.9961 Q653.6875,187.3867 653.9219,187.1211 Q654.1719,186.8555 654.5469,186.8555 Q654.9219,186.8555 655.1563,187.1211 Q655.3906,187.3867 655.3906,187.9961 L655.3906,190.6211 L647.3906,190.6211 Q646.7656,190.6211 646.5,190.3867 Q646.25,190.1523 646.25,189.7617 Q646.25,189.3867 646.5156,189.1523 Q646.7813,188.918 647.3906,188.918 L647.6563,188.918 L647.6563,182.2617 L647.3906,182.2617 Q646.7656,182.2617 646.5,182.0273 Q646.25,181.793 646.25,181.4023 Q646.25,181.0273 646.5,180.793 Q646.7656,180.5586 647.3906,180.5586 L655.0156,180.5586 L655.0156,183.1523 Q655.0156,183.7617 654.7813,184.0273 Q654.5625,184.2773 654.1719,184.2773 Q653.7969,184.2773 653.5625,184.0273 Q653.3281,183.7617 653.3281,183.1523 L653.3281,182.2617 L649.3594,182.2617 L649.3594,184.7148 L650.8438,184.7148 Q650.8438,184.0586 650.9688,183.8711 Q651.2344,183.4648 651.7031,183.4648 Q652.0781,183.4648 652.3125,183.7305 Q652.5469,183.9805 652.5469,184.5898 L652.5469,186.5586 Q652.5469,187.1055 652.4219,187.293 Q652.1563,187.6836 651.7031,187.6836 Q651.2344,187.6836 650.9688,187.2773 Q650.8438,187.0898 650.8438,186.418 L649.3594,186.418 Z " fill="#000000"/><text fill="#000000" font-family="sans-serif" font-size="14" lengthAdjust="spacing" textLength="92.6064" x="664.5" y="191.418">OperationType</text></g><!--class OperationRequest--><g id="elem_OperationRequest"><rect codeLine="50" fill="#FFFACD" height="32" id="OperationRequest" rx="2.5" ry="2.5" style="stroke:#8B4513;stroke-width:0.5;" width="145.627" x="415" y="391.6211"/><ellipse cx="430" cy="407.6211" fill="#ADD1B2" rx="11" ry="11" style="stroke:#181818;stroke-width:1.0;"/><path d="M428.8594,408.418 L428.8594,410.918 L433.1875,410.918 L433.1875,409.9961 Q433.1875,409.3867 433.4219,409.1211 Q433.6719,408.8555 434.0469,408.8555 Q434.4219,408.8555 434.6563,409.1211 Q434.8906,409.3867 434.8906,409.9961 L434.8906,412.6211 L426.8906,412.6211 Q426.2656,412.6211 426,412.3867 Q425.75,412.1523 425.75,411.7617 Q425.75,411.3867 426.0156,411.1523 Q426.2813,410.918 426.8906,410.918 L427.1563,410.918 L427.1563,404.2617 L426.8906,404.2617 Q426.2656,404.2617 426,404.0273 Q425.75,403.793 425.75,403.4023 Q425.75,403.0273 426,402.793 Q426.2656,402.5586 426.8906,402.5586 L434.5156,402.5586 L434.5156,405.1523 Q434.5156,405.7617 434.2813,406.0273 Q434.0625,406.2773 433.6719,406.2773 Q433.2969,406.2773 433.0625,406.0273 Q432.8281,405.7617 432.8281,405.1523 L432.8281,404.2617 L428.8594,404.2617 L428.8594,406.7148 L430.3438,406.7148 Q430.3438,406.0586 430.4688,405.8711 Q430.7344,405.4648 431.2031,405.4648 Q431.5781,405.4648 431.8125,405.7305 Q432.0469,405.9805 432.0469,406.5898 L432.0469,408.5586 Q432.0469,409.1055 431.9219,409.293 Q431.6563,409.6836 431.2031,409.6836 Q430.7344,409.6836 430.4688,409.2773 Q430.3438,409.0898 430.3438,408.418 L428.8594,408.418 Z " fill="#000000"/><text fill="#000000" font-family="sans-serif" font-size="14" lengthAdjust="spacing" textLength="113.627" x="444" y="413.418">OperationRequest</text></g><!--class Staff--><g id="elem_Staff"><rect codeLine="59" fill="#FFFACD" height="32" id="Staff" rx="2.5" ry="2.5" style="stroke:#8B4513;stroke-width:0.5;" width="60.793" x="457.5" y="169.6211"/><ellipse cx="472.5" cy="185.6211" fill="#ADD1B2" rx="11" ry="11" style="stroke:#181818;stroke-width:1.0;"/><path d="M471.3594,186.418 L471.3594,188.918 L475.6875,188.918 L475.6875,187.9961 Q475.6875,187.3867 475.9219,187.1211 Q476.1719,186.8555 476.5469,186.8555 Q476.9219,186.8555 477.1563,187.1211 Q477.3906,187.3867 477.3906,187.9961 L477.3906,190.6211 L469.3906,190.6211 Q468.7656,190.6211 468.5,190.3867 Q468.25,190.1523 468.25,189.7617 Q468.25,189.3867 468.5156,189.1523 Q468.7813,188.918 469.3906,188.918 L469.6563,188.918 L469.6563,182.2617 L469.3906,182.2617 Q468.7656,182.2617 468.5,182.0273 Q468.25,181.793 468.25,181.4023 Q468.25,181.0273 468.5,180.793 Q468.7656,180.5586 469.3906,180.5586 L477.0156,180.5586 L477.0156,183.1523 Q477.0156,183.7617 476.7813,184.0273 Q476.5625,184.2773 476.1719,184.2773 Q475.7969,184.2773 475.5625,184.0273 Q475.3281,183.7617 475.3281,183.1523 L475.3281,182.2617 L471.3594,182.2617 L471.3594,184.7148 L472.8438,184.7148 Q472.8438,184.0586 472.9688,183.8711 Q473.2344,183.4648 473.7031,183.4648 Q474.0781,183.4648 474.3125,183.7305 Q474.5469,183.9805 474.5469,184.5898 L474.5469,186.5586 Q474.5469,187.1055 474.4219,187.293 Q474.1563,187.6836 473.7031,187.6836 Q473.2344,187.6836 472.9688,187.2773 Q472.8438,187.0898 472.8438,186.418 L471.3594,186.418 Z " fill="#000000"/><text fill="#000000" font-family="sans-serif" font-size="14" lengthAdjust="spacing" textLength="28.793" x="486.5" y="191.418">Staff</text></g><!--class Patient--><g id="elem_Patient"><rect codeLine="69" fill="#FFFACD" height="32" id="Patient" rx="2.5" ry="2.5" style="stroke:#8B4513;stroke-width:0.5;" width="75.5859" x="292" y="169.6211"/><ellipse cx="307" cy="185.6211" fill="#ADD1B2" rx="11" ry="11" style="stroke:#181818;stroke-width:1.0;"/><path d="M305.8594,186.418 L305.8594,188.918 L310.1875,188.918 L310.1875,187.9961 Q310.1875,187.3867 310.4219,187.1211 Q310.6719,186.8555 311.0469,186.8555 Q311.4219,186.8555 311.6563,187.1211 Q311.8906,187.3867 311.8906,187.9961 L311.8906,190.6211 L303.8906,190.6211 Q303.2656,190.6211 303,190.3867 Q302.75,190.1523 302.75,189.7617 Q302.75,189.3867 303.0156,189.1523 Q303.2813,188.918 303.8906,188.918 L304.1563,188.918 L304.1563,182.2617 L303.8906,182.2617 Q303.2656,182.2617 303,182.0273 Q302.75,181.793 302.75,181.4023 Q302.75,181.0273 303,180.793 Q303.2656,180.5586 303.8906,180.5586 L311.5156,180.5586 L311.5156,183.1523 Q311.5156,183.7617 311.2813,184.0273 Q311.0625,184.2773 310.6719,184.2773 Q310.2969,184.2773 310.0625,184.0273 Q309.8281,183.7617 309.8281,183.1523 L309.8281,182.2617 L305.8594,182.2617 L305.8594,184.7148 L307.3438,184.7148 Q307.3438,184.0586 307.4688,183.8711 Q307.7344,183.4648 308.2031,183.4648 Q308.5781,183.4648 308.8125,183.7305 Q309.0469,183.9805 309.0469,184.5898 L309.0469,186.5586 Q309.0469,187.1055 308.9219,187.293 Q308.6563,187.6836 308.2031,187.6836 Q307.7344,187.6836 307.4688,187.2773 Q307.3438,187.0898 307.3438,186.418 L305.8594,186.418 Z " fill="#000000"/><text fill="#000000" font-family="sans-serif" font-size="14" lengthAdjust="spacing" textLength="43.5859" x="321" y="191.418">Patient</text></g><!--class Specialization--><g id="elem_Specialization"><rect codeLine="82" fill="#FFFACD" height="32" id="Specialization" rx="2.5" ry="2.5" style="stroke:#8B4513;stroke-width:0.5;" width="118.3857" x="639" y="280.6211"/><ellipse cx="654" cy="296.6211" fill="#ADD1B2" rx="11" ry="11" style="stroke:#181818;stroke-width:1.0;"/><path d="M652.8594,297.418 L652.8594,299.918 L657.1875,299.918 L657.1875,298.9961 Q657.1875,298.3867 657.4219,298.1211 Q657.6719,297.8555 658.0469,297.8555 Q658.4219,297.8555 658.6563,298.1211 Q658.8906,298.3867 658.8906,298.9961 L658.8906,301.6211 L650.8906,301.6211 Q650.2656,301.6211 650,301.3867 Q649.75,301.1523 649.75,300.7617 Q649.75,300.3867 650.0156,300.1523 Q650.2813,299.918 650.8906,299.918 L651.1563,299.918 L651.1563,293.2617 L650.8906,293.2617 Q650.2656,293.2617 650,293.0273 Q649.75,292.793 649.75,292.4023 Q649.75,292.0273 650,291.793 Q650.2656,291.5586 650.8906,291.5586 L658.5156,291.5586 L658.5156,294.1523 Q658.5156,294.7617 658.2813,295.0273 Q658.0625,295.2773 657.6719,295.2773 Q657.2969,295.2773 657.0625,295.0273 Q656.8281,294.7617 656.8281,294.1523 L656.8281,293.2617 L652.8594,293.2617 L652.8594,295.7148 L654.3438,295.7148 Q654.3438,295.0586 654.4688,294.8711 Q654.7344,294.4648 655.2031,294.4648 Q655.5781,294.4648 655.8125,294.7305 Q656.0469,294.9805 656.0469,295.5898 L656.0469,297.5586 Q656.0469,298.1055 655.9219,298.293 Q655.6563,298.6836 655.2031,298.6836 Q654.7344,298.6836 654.4688,298.2773 Q654.3438,298.0898 654.3438,297.418 L652.8594,297.418 Z " fill="#000000"/><text fill="#000000" font-family="sans-serif" font-size="14" lengthAdjust="spacing" textLength="86.3857" x="668" y="302.418">Specialization</text></g><!--class PendingRequest--><g id="elem_PendingRequest"><rect codeLine="87" fill="#FFFACD" height="32" id="PendingRequest" rx="2.5" ry="2.5" style="stroke:#8B4513;stroke-width:0.5;" width="135.5234" x="7" y="52.1211"/><ellipse cx="22" cy="68.1211" fill="#ADD1B2" rx="11" ry="11" style="stroke:#181818;stroke-width:1.0;"/><path d="M20.8594,68.918 L20.8594,71.418 L25.1875,71.418 L25.1875,70.4961 Q25.1875,69.8867 25.4219,69.6211 Q25.6719,69.3555 26.0469,69.3555 Q26.4219,69.3555 26.6563,69.6211 Q26.8906,69.8867 26.8906,70.4961 L26.8906,73.1211 L18.8906,73.1211 Q18.2656,73.1211 18,72.8867 Q17.75,72.6523 17.75,72.2617 Q17.75,71.8867 18.0156,71.6523 Q18.2813,71.418 18.8906,71.418 L19.1563,71.418 L19.1563,64.7617 L18.8906,64.7617 Q18.2656,64.7617 18,64.5273 Q17.75,64.293 17.75,63.9023 Q17.75,63.5273 18,63.293 Q18.2656,63.0586 18.8906,63.0586 L26.5156,63.0586 L26.5156,65.6523 Q26.5156,66.2617 26.2813,66.5273 Q26.0625,66.7773 25.6719,66.7773 Q25.2969,66.7773 25.0625,66.5273 Q24.8281,66.2617 24.8281,65.6523 L24.8281,64.7617 L20.8594,64.7617 L20.8594,67.2148 L22.3438,67.2148 Q22.3438,66.5586 22.4688,66.3711 Q22.7344,65.9648 23.2031,65.9648 Q23.5781,65.9648 23.8125,66.2305 Q24.0469,66.4805 24.0469,67.0898 L24.0469,69.0586 Q24.0469,69.6055 23.9219,69.793 Q23.6563,70.1836 23.2031,70.1836 Q22.7344,70.1836 22.4688,69.7773 Q22.3438,69.5898 22.3438,68.918 L20.8594,68.918 Z " fill="#000000"/><text fill="#000000" font-family="sans-serif" font-size="14" lengthAdjust="spacing" textLength="103.5234" x="36" y="73.918">PendingRequest</text></g><g id="elem_GMN12"><path d="M178,45.6211 L178,64.1211 L143.12,68.1211 L178,72.1211 L178,90.2031 A0,0 0 0 0 178,90.2031 L422.2979,90.2031 A0,0 0 0 0 422.2979,90.2031 L422.2979,55.6211 L412.2979,45.6211 L178,45.6211 A0,0 0 0 0 178,45.6211 " fill="#FEFFDD" style="stroke:#181818;stroke-width:0.5;"/><path d="M412.2979,45.6211 L412.2979,55.6211 L422.2979,55.6211 L412.2979,45.6211 " fill="#FEFFDD" style="stroke:#181818;stroke-width:0.5;"/><text fill="#000000" font-family="sans-serif" font-size="13" lengthAdjust="spacing" textLength="219.686" x="184" y="64.6494">Used to persist a change which needs</text><text fill="#000000" font-family="sans-serif" font-size="13" lengthAdjust="spacing" textLength="192.207" x="184" y="81.9404">a user confirmation to take effect.</text></g><!--link User to Patient--><g id="link_User_Patient"><path codeLine="103" d="M467.34,84.2211 C437.06,106.3611 380.94,147.3811 350.66,169.5211 " fill="none" id="User-Patient" style="stroke:#A52A2A;stroke-width:1.0;"/><polygon fill="#000000" points="422.0364,127.3158,413,130.2814,416.4689,135.0264,422.0364,127.3158" style="stroke:#000000;stroke-width:1.0;"/><text fill="#000000" font-family="sans-serif" font-size="13" lengthAdjust="spacing" textLength="9.3882" x="427" y="135.6494">is</text><text fill="#000000" font-family="sans-serif" font-size="13" lengthAdjust="spacing" textLength="7.23" x="452.746" y="106.137">1</text><text fill="#000000" font-family="sans-serif" font-size="13" lengthAdjust="spacing" textLength="7.23" x="349.4509" y="158.4489">1</text></g><!--link User to Staff--><g id="link_User_Staff"><path codeLine="104" d="M488,84.2211 C488,106.3611 488,147.3811 488,169.5211 " fill="none" id="User-Staff" style="stroke:#A52A2A;stroke-width:1.0;"/><polygon fill="#000000" points="493,125.2666,490.0611,134.3117,495.9389,134.3117,493,125.2666" style="stroke:#000000;stroke-width:1.0;"/><text fill="#000000" font-family="sans-serif" font-size="13" lengthAdjust="spacing" textLength="9.3882" x="502" y="135.6494">is</text><text fill="#000000" font-family="sans-serif" font-size="13" lengthAdjust="spacing" textLength="7.23" x="479.9914" y="106.137">1</text><text fill="#000000" font-family="sans-serif" font-size="13" lengthAdjust="spacing" textLength="7.23" x="479.913" y="158.4489">1</text></g><!--link User to OperationType--><g id="link_User_OperationType"><path codeLine="105" d="M515.45,84.2211 C555.7,106.3611 630.29,147.3811 670.54,169.5211 " fill="none" id="User-OperationType" style="stroke:#A52A2A;stroke-width:1.0;"/><polygon fill="#000000" points="620.3811,132.6762,613.872,125.7421,611.0393,130.8923,620.3811,132.6762" style="stroke:#000000;stroke-width:1.0;"/><text fill="#000000" font-family="sans-serif" font-size="13" lengthAdjust="spacing" textLength="28.1899" x="625" y="135.6494">adds</text><text fill="#000000" font-family="sans-serif" font-size="13" lengthAdjust="spacing" textLength="7.23" x="516.1911" y="106.137">1</text><text fill="#000000" font-family="sans-serif" font-size="13" lengthAdjust="spacing" textLength="5.0591" x="655.6907" y="158.4489">*</text></g><!--link Patient to Appointment--><g id="link_Patient_Appointment"><path codeLine="107" d="M326.2,201.8111 C323.6,215.0611 321.51,234.6311 327,250.6211 C330.85,261.8511 338.79,272.4411 346.13,280.5211 " fill="none" id="Patient-Appointment" style="stroke:#A52A2A;stroke-width:1.0;"/><polygon fill="#000000" points="333.2273,246.1136,333.8561,236.6239,328.1581,238.0667,333.2273,246.1136" style="stroke:#000000;stroke-width:1.0;"/><text fill="#000000" font-family="sans-serif" font-size="13" lengthAdjust="spacing" textLength="20.96" x="341" y="246.6494">has</text><text fill="#000000" font-family="sans-serif" font-size="13" lengthAdjust="spacing" textLength="7.23" x="316.9758" y="223.7557">1</text><text fill="#000000" font-family="sans-serif" font-size="13" lengthAdjust="spacing" textLength="5.0591" x="335.1199" y="269.4489">*</text></g><!--link Patient to OperationRequest--><g id="link_Patient_OperationRequest"><path codeLine="108" d="M309.33,201.8911 C280.8,224.9611 234.89,270.5111 254,312.6211 C267.67,342.7411 280.72,346.2511 310,361.6211 C328.42,371.2811 374.31,382.7911 414.89,391.7511 " fill="none" id="Patient-OperationRequest" style="stroke:#A52A2A;stroke-width:1.0;"/><polygon fill="#000000" points="261.4297,301.1366,259.603,291.8031,254.4658,294.6593,261.4297,301.1366" style="stroke:#000000;stroke-width:1.0;"/><text fill="#000000" font-family="sans-serif" font-size="13" lengthAdjust="spacing" textLength="20.96" x="268" y="302.1494">has</text><text fill="#000000" font-family="sans-serif" font-size="13" lengthAdjust="spacing" textLength="7.23" x="295.0266" y="223.5498">1</text><text fill="#000000" font-family="sans-serif" font-size="13" lengthAdjust="spacing" textLength="5.0591" x="402.115" y="386.2813">*</text></g><!--link Staff to Specialization--><g id="link_Staff_Specialization"><path codeLine="110" d="M517.2,201.7811 C557.32,222.6011 629.06,259.8411 669.05,280.5911 " fill="none" id="Staff-Specialization" style="stroke:#A52A2A;stroke-width:1.0;"/><polygon fill="#000000" points="614.4379,243.5699,607.7635,236.7947,605.0558,242.0118,614.4379,243.5699" style="stroke:#000000;stroke-width:1.0;"/><text fill="#000000" font-family="sans-serif" font-size="13" lengthAdjust="spacing" textLength="20.96" x="619" y="246.6494">has</text><text fill="#000000" font-family="sans-serif" font-size="13" lengthAdjust="spacing" textLength="5.0591" x="520.753" y="223.7162">*</text><text fill="#000000" font-family="sans-serif" font-size="13" lengthAdjust="spacing" textLength="7.23" x="650.8685" y="269.2372">1</text></g><!--link Staff to OperationRequest--><g id="link_Staff_OperationRequest"><path codeLine="111" d="M488,201.7411 C488,241.9311 488,351.0811 488,391.3911 " fill="none" id="Staff-OperationRequest" style="stroke:#A52A2A;stroke-width:1.0;"/><polygon fill="#000000" points="493,301.7666,495.9389,292.7215,490.0611,292.7215,493,301.7666" style="stroke:#000000;stroke-width:1.0;"/><text fill="#000000" font-family="sans-serif" font-size="13" lengthAdjust="spacing" textLength="101.1626" x="502" y="302.1494">submits and edits</text><text fill="#000000" font-family="sans-serif" font-size="13" lengthAdjust="spacing" textLength="5.0591" x="482.2455" y="223.6634">*</text><text fill="#000000" font-family="sans-serif" font-size="13" lengthAdjust="spacing" textLength="5.0591" x="482.2434" y="380.2758">*</text></g><!--link Staff to Appointment--><g id="link_Staff_Appointment"><path codeLine="112" d="M457.28,197.9511 C439.66,205.5411 417.95,216.8511 402,231.6211 C386.91,245.6011 375.28,266.5011 368.55,280.5811 " fill="none" id="Staff-Appointment" style="stroke:#A52A2A;stroke-width:1.0;"/><polygon fill="#000000" points="403.3409,244.6741,411.9631,240.6606,407.9574,236.3591,403.3409,244.6741" style="stroke:#000000;stroke-width:1.0;"/><text fill="#000000" font-family="sans-serif" font-size="13" lengthAdjust="spacing" textLength="45.5381" x="416" y="246.6494">handles</text><text fill="#000000" font-family="sans-serif" font-size="13" lengthAdjust="spacing" textLength="5.0591" x="444.6286" y="195.8988">*</text><text fill="#000000" font-family="sans-serif" font-size="13" lengthAdjust="spacing" textLength="5.0591" x="365.02" y="269.2238">*</text></g><!--link OperationType to Specialization--><g id="link_OperationType_Specialization"><path codeLine="114" d="M698,201.7811 C698,222.6011 698,259.8411 698,280.5911 " fill="none" id="OperationType-Specialization" style="stroke:#A52A2A;stroke-width:1.0;"/><polygon fill="#000000" points="703,246.2666,705.9389,237.2215,700.0611,237.2215,703,246.2666" style="stroke:#000000;stroke-width:1.0;"/><text fill="#000000" font-family="sans-serif" font-size="13" lengthAdjust="spacing" textLength="46.9663" x="712" y="246.6494">requires</text><text fill="#000000" font-family="sans-serif" font-size="13" lengthAdjust="spacing" textLength="5.0591" x="692.2753" y="223.7162">*</text><text fill="#000000" font-family="sans-serif" font-size="13" lengthAdjust="spacing" textLength="5.0591" x="692.0845" y="269.2372">*</text></g><!--link OperationType to OperationRequest--><g id="link_OperationType_OperationRequest"><path codeLine="115" d="M732.78,201.7811 C745.47,209.0211 758.73,218.9211 767,231.6211 C786.75,261.9311 796.23,283.3311 775,312.6211 C726.54,379.4811 629.08,399.6511 561.25,405.2811 " fill="none" id="OperationType-OperationRequest" style="stroke:#A52A2A;stroke-width:1.0;"/><polygon fill="#000000" points="788.7775,300.5897,796.8542,295.5678,792.3599,291.7796,788.7775,300.5897" style="stroke:#000000;stroke-width:1.0;"/><text fill="#000000" font-family="sans-serif" font-size="13" lengthAdjust="spacing" textLength="50.5781" x="801" y="302.1494">specifies</text><text fill="#000000" font-family="sans-serif" font-size="13" lengthAdjust="spacing" textLength="7.23" x="735.8499" y="223.7162">1</text><text fill="#000000" font-family="sans-serif" font-size="13" lengthAdjust="spacing" textLength="5.0591" x="568.7279" y="401.2567">*</text></g><!--link Appointment to SurgeryRoom--><g id="link_Appointment_SurgeryRoom"><path codeLine="117" d="M344.09,312.8511 C336.07,320.8111 327.44,331.2611 323,342.6211 C316.81,358.4611 317.3,378.2311 318.7,391.5711 " fill="none" id="Appointment-SurgeryRoom" style="stroke:#A52A2A;stroke-width:1.0;"/><polygon fill="#000000" points="326.4652,357.0252,332.0387,349.319,326.4447,347.5147,326.4652,357.0252" style="stroke:#000000;stroke-width:1.0;"/><text fill="#000000" font-family="sans-serif" font-size="13" lengthAdjust="spacing" textLength="10.1182" x="337" y="357.6494">in</text><text fill="#000000" font-family="sans-serif" font-size="13" lengthAdjust="spacing" textLength="7.23" x="330.6287" y="334.4975">1</text><text fill="#000000" font-family="sans-serif" font-size="13" lengthAdjust="spacing" textLength="7.23" x="309.683" y="380.2104">1</text></g><!--link Appointment to OperationRequest--><g id="link_Appointment_OperationRequest"><path codeLine="118" d="M365.34,312.8411 C369.15,327.0411 376.66,348.0411 390,361.6211 C402.99,374.8411 420.59,384.5711 437.29,391.5311 " fill="none" id="Appointment-OperationRequest" style="stroke:#A52A2A;stroke-width:1.0;"/><polygon fill="#000000" points="391.626,348.5766,395.5607,357.2351,399.8985,353.2687,391.626,348.5766" style="stroke:#000000;stroke-width:1.0;"/><text fill="#000000" font-family="sans-serif" font-size="13" lengthAdjust="spacing" textLength="57.8208" x="404" y="357.6494">generates</text><text fill="#000000" font-family="sans-serif" font-size="13" lengthAdjust="spacing" textLength="7.23" x="358.3884" y="334.7953">1</text><text fill="#000000" font-family="sans-serif" font-size="13" lengthAdjust="spacing" textLength="7.23" x="412.4328" y="380.4622">1</text></g><!--link SurgeryRoom to Equipment--><g id="link_SurgeryRoom_Equipment"><path codeLine="120" d="M321,423.7811 C321,444.6011 321,481.8411 321,502.5911 " fill="none" id="SurgeryRoom-Equipment" style="stroke:#A52A2A;stroke-width:1.0;"/><polygon fill="#000000" points="326,468.2666,328.9389,459.2215,323.0611,459.2215,326,468.2666" style="stroke:#000000;stroke-width:1.0;"/><text fill="#000000" font-family="sans-serif" font-size="13" lengthAdjust="spacing" textLength="48.4199" x="335" y="468.6494">contains</text><text fill="#000000" font-family="sans-serif" font-size="13" lengthAdjust="spacing" textLength="7.23" x="312.8628" y="445.7162">1</text><text fill="#000000" font-family="sans-serif" font-size="13" lengthAdjust="spacing" textLength="5.0591" x="315.1627" y="491.2372">*</text></g><!--SRC=[dLLBRzim3BxxLn2z11YGORiMmu0y1gp0rXP9jxiYqJPHMN8bUKLQxB-Fic97Jj9Xc0-9HNuaFxxa6JnGq5Y4-0ihQoIseHCQrhOHPE2xLQYBmZ-IQOKJ3KWjl5-4u6ZN1RoHrcpf1U53KPD2mAODUsYmsQ7pIIG6h3zp0wy5yBCKyh5ojZDgPRLry0qRQrOrbQKrFM3Xd7rEkYM_9U7IEeKkIRT2AOr9zxieq70wUrYqhIKJ6ZuU8is1rE75uLE7FjoiXxErpNXG8k32g0Tgy23nGOJEPyw_F7NKHjU3PoD6i48l7RM1R4vdsxaAtNx3WLwpeBTTBDP14FRju4IALaYswu-pEN2zg3Aeni03hdEEJzj4CCbYwm8QmTtSQXjotZyykY5yn-yPRMVry8hiGMTMToqw4VDvO89djHnzp59ToQ5YFcMvt6zRb2GqlVJMWtSVgE4IgtMNl5wAj4aDEWlMifQnnrvP6QmRZpPdUWIXK9eChZdguCUHTR6-MOSYvo5WISw7ssDrU63pOzbfdMj9el6ODPDhuIybpniJX0mtfhIkoHNY5zTSx4WpbTEktQUa_uzRdEQxSaakr0T9XKQDCzUW8Ydq1YLlr6GQtwQgDRgAq2_YpXf5KUV7sM4T6hbV9VDnW8_h-9KyzsnI-acf_dcdxZaHCjLRin87V9o1yIBAIjCc-vz2TuF8QfMElmjZ0uAZgWvWovDO1I-IWc3PXVES3WYGjJ0LmdDDiWQ3g3mKekSGAyazIpMCHa4yycLPbYZ3Uyv5GGnLn6S66zGzpjVK-XZ6mTN7AvZF-x_39C0ra8TFSARlP_YWdIhVNKtNc45yRNhuN1I3qmoQNvxNK8k8km0xNTSHMoGY4JCmcxHu14vnbrtwRjTGy22uKZojuQBTAMF3duIUoJJhpEACqU7oYbOdHd_DkD_pabAqd4RUb-Fj7xjZ6Fe6yaA0kB1HYB6fHUug8pP-6DYWtrmoaT0V]--></g></svg>