<?xml version="1.0" encoding="us-ascii" standalone="no"?><svg xmlns="http://www.w3.org/2000/svg" xmlns:xlink="http://www.w3.org/1999/xlink" contentStyleType="text/css" height="903px" preserveAspectRatio="none" style="width:1306px;height:903px;background:#FFFFFF;" version="1.1" viewBox="0 0 1306 903" width="1306px" zoomAndPan="magnify"><defs/><g><text fill="#000000" font-family="sans-serif" font-size="14" font-weight="bold" lengthAdjust="spacing" textLength="166" x="571.75" y="29.5332">Sequence Diagram Title</text><rect fill="#FFFFFF" height="681.3828" style="stroke:#181818;stroke-width:1.0;" width="10" x="22.5" y="131.2188"/><rect fill="#FFFFFF" height="30.3516" style="stroke:#181818;stroke-width:1.0;" width="10" x="300.5" y="153.5703"/><rect fill="#FFFFFF" height="589.3281" style="stroke:#181818;stroke-width:1.0;" width="10" x="300.5" y="214.2734"/><rect fill="#FFFFFF" height="528.625" style="stroke:#181818;stroke-width:1.0;" width="10" x="457.5" y="244.625"/><rect fill="#FFFFFF" height="407.2188" style="stroke:#181818;stroke-width:1.0;" width="10" x="624" y="335.6797"/><rect fill="#FFFFFF" height="30.3516" style="stroke:#181818;stroke-width:1.0;" width="10" x="749.5" y="274.9766"/><rect fill="#FFFFFF" height="30.3516" style="stroke:#181818;stroke-width:1.0;" width="10" x="851" y="366.0313"/><rect fill="#FFFFFF" height="285.8125" style="stroke:#181818;stroke-width:1.0;" width="10" x="963" y="426.7344"/><rect fill="#FFFFFF" height="41.3516" style="stroke:#181818;stroke-width:1.0;" width="10" x="968" y="465.0859"/><rect fill="#FFFFFF" height="30.3516" style="stroke:#181818;stroke-width:1.0;" width="10" x="1077" y="569.1406"/><rect fill="none" height="154.7578" style="stroke:#000000;stroke-width:1.5;" width="408" x="892.5" y="528.4375"/><rect fill="none" height="61.7031" style="stroke:#000000;stroke-width:1.5;" width="266" x="902.5" y="614.4922"/><line style="stroke:#181818;stroke-width:0.5;stroke-dasharray:5.0,5.0;" x1="27" x2="27" y1="121.2188" y2="821.6016"/><line style="stroke:#181818;stroke-width:0.5;stroke-dasharray:5.0,5.0;" x1="305.5" x2="305.5" y1="121.2188" y2="821.6016"/><line style="stroke:#181818;stroke-width:0.5;stroke-dasharray:5.0,5.0;" x1="462.5" x2="462.5" y1="121.2188" y2="821.6016"/><line style="stroke:#181818;stroke-width:0.5;stroke-dasharray:5.0,5.0;" x1="628.5" x2="628.5" y1="121.2188" y2="821.6016"/><line style="stroke:#181818;stroke-width:0.5;stroke-dasharray:5.0,5.0;" x1="754.5" x2="754.5" y1="121.2188" y2="821.6016"/><line style="stroke:#181818;stroke-width:0.5;stroke-dasharray:5.0,5.0;" x1="855.5" x2="855.5" y1="121.2188" y2="821.6016"/><line style="stroke:#181818;stroke-width:0.5;stroke-dasharray:5.0,5.0;" x1="967.5" x2="967.5" y1="121.2188" y2="821.6016"/><line style="stroke:#181818;stroke-width:0.5;stroke-dasharray:5.0,5.0;" x1="1081.5" x2="1081.5" y1="121.2188" y2="821.6016"/><text fill="#000000" font-family="sans-serif" font-size="14" lengthAdjust="spacing" textLength="39" x="5" y="118.1426">Admin</text><ellipse cx="27.5" cy="52.1094" fill="#E2E2F0" rx="8" ry="8" style="stroke:#181818;stroke-width:0.5;"/><path d="M27.5,60.1094 L27.5,87.1094 M14.5,68.1094 L40.5,68.1094 M27.5,87.1094 L14.5,102.1094 M27.5,87.1094 L40.5,102.1094 " fill="none" style="stroke:#181818;stroke-width:0.5;"/><text fill="#000000" font-family="sans-serif" font-size="14" lengthAdjust="spacing" textLength="39" x="5" y="835.1348">Admin</text><ellipse cx="27.5" cy="846.7109" fill="#E2E2F0" rx="8" ry="8" style="stroke:#181818;stroke-width:0.5;"/><path d="M27.5,854.7109 L27.5,881.7109 M14.5,862.7109 L40.5,862.7109 M27.5,881.7109 L14.5,896.7109 M27.5,881.7109 L40.5,896.7109 " fill="none" style="stroke:#181818;stroke-width:0.5;"/><rect fill="#E2E2F0" height="31.6094" rx="2.5" ry="2.5" style="stroke:#181818;stroke-width:0.5;" width="122" x="244.5" y="88.6094"/><text fill="#000000" font-family="sans-serif" font-size="14" lengthAdjust="spacing" textLength="108" x="251.5" y="110.1426">DeactivateStaffUI</text><rect fill="#E2E2F0" height="31.6094" rx="2.5" ry="2.5" style="stroke:#181818;stroke-width:0.5;" width="122" x="244.5" y="820.6016"/><text fill="#000000" font-family="sans-serif" font-size="14" lengthAdjust="spacing" textLength="108" x="251.5" y="842.1348">DeactivateStaffUI</text><rect fill="#E2E2F0" height="31.6094" rx="2.5" ry="2.5" style="stroke:#181818;stroke-width:0.5;" width="172" x="376.5" y="88.6094"/><text fill="#000000" font-family="sans-serif" font-size="14" lengthAdjust="spacing" textLength="158" x="383.5" y="110.1426">DeactivateStaffController</text><rect fill="#E2E2F0" height="31.6094" rx="2.5" ry="2.5" style="stroke:#181818;stroke-width:0.5;" width="172" x="376.5" y="820.6016"/><text fill="#000000" font-family="sans-serif" font-size="14" lengthAdjust="spacing" textLength="158" x="383.5" y="842.1348">DeactivateStaffController</text><rect fill="#E2E2F0" height="31.6094" rx="2.5" ry="2.5" style="stroke:#181818;stroke-width:0.5;" width="141" x="558.5" y="88.6094"/><text fill="#000000" font-family="sans-serif" font-size="14" lengthAdjust="spacing" textLength="127" x="565.5" y="110.1426">ManageStaffService</text><rect fill="#E2E2F0" height="31.6094" rx="2.5" ry="2.5" style="stroke:#181818;stroke-width:0.5;" width="141" x="558.5" y="820.6016"/><text fill="#000000" font-family="sans-serif" font-size="14" lengthAdjust="spacing" textLength="127" x="565.5" y="842.1348">ManageStaffService</text><rect fill="#E2E2F0" height="31.6094" rx="2.5" ry="2.5" style="stroke:#181818;stroke-width:0.5;" width="90" x="709.5" y="88.6094"/><text fill="#000000" font-family="sans-serif" font-size="14" lengthAdjust="spacing" textLength="76" x="716.5" y="110.1426">AuthService</text><rect fill="#E2E2F0" height="31.6094" rx="2.5" ry="2.5" style="stroke:#181818;stroke-width:0.5;" width="90" x="709.5" y="820.6016"/><text fill="#000000" font-family="sans-serif" font-size="14" lengthAdjust="spacing" textLength="76" x="716.5" y="842.1348">AuthService</text><rect fill="#E2E2F0" height="31.6094" rx="2.5" ry="2.5" style="stroke:#181818;stroke-width:0.5;" width="93" x="809.5" y="88.6094"/><text fill="#000000" font-family="sans-serif" font-size="14" lengthAdjust="spacing" textLength="79" x="816.5" y="110.1426">Repositories</text><rect fill="#E2E2F0" height="31.6094" rx="2.5" ry="2.5" style="stroke:#181818;stroke-width:0.5;" width="93" x="809.5" y="820.6016"/><text fill="#000000" font-family="sans-serif" font-size="14" lengthAdjust="spacing" textLength="79" x="816.5" y="842.1348">Repositories</text><rect fill="#E2E2F0" height="31.6094" rx="2.5" ry="2.5" style="stroke:#181818;stroke-width:0.5;" width="111" x="912.5" y="88.6094"/><text fill="#000000" font-family="sans-serif" font-size="14" lengthAdjust="spacing" textLength="97" x="919.5" y="110.1426">StaffRepository</text><rect fill="#E2E2F0" height="31.6094" rx="2.5" ry="2.5" style="stroke:#181818;stroke-width:0.5;" width="111" x="912.5" y="820.6016"/><text fill="#000000" font-family="sans-serif" font-size="14" lengthAdjust="spacing" textLength="97" x="919.5" y="842.1348">StaffRepository</text><rect fill="#E2E2F0" height="31.6094" rx="2.5" ry="2.5" style="stroke:#181818;stroke-width:0.5;" width="43" x="1060.5" y="88.6094"/><text fill="#000000" font-family="sans-serif" font-size="14" lengthAdjust="spacing" textLength="29" x="1067.5" y="110.1426">Staff</text><rect fill="#E2E2F0" height="31.6094" rx="2.5" ry="2.5" style="stroke:#181818;stroke-width:0.5;" width="43" x="1060.5" y="820.6016"/><text fill="#000000" font-family="sans-serif" font-size="14" lengthAdjust="spacing" textLength="29" x="1067.5" y="842.1348">Staff</text><rect fill="#FFFFFF" height="681.3828" style="stroke:#181818;stroke-width:1.0;" width="10" x="22.5" y="131.2188"/><rect fill="#FFFFFF" height="30.3516" style="stroke:#181818;stroke-width:1.0;" width="10" x="300.5" y="153.5703"/><rect fill="#FFFFFF" height="589.3281" style="stroke:#181818;stroke-width:1.0;" width="10" x="300.5" y="214.2734"/><rect fill="#FFFFFF" height="528.625" style="stroke:#181818;stroke-width:1.0;" width="10" x="457.5" y="244.625"/><rect fill="#FFFFFF" height="407.2188" style="stroke:#181818;stroke-width:1.0;" width="10" x="624" y="335.6797"/><rect fill="#FFFFFF" height="30.3516" style="stroke:#181818;stroke-width:1.0;" width="10" x="749.5" y="274.9766"/><rect fill="#FFFFFF" height="30.3516" style="stroke:#181818;stroke-width:1.0;" width="10" x="851" y="366.0313"/><rect fill="#FFFFFF" height="285.8125" style="stroke:#181818;stroke-width:1.0;" width="10" x="963" y="426.7344"/><rect fill="#FFFFFF" height="41.3516" style="stroke:#181818;stroke-width:1.0;" width="10" x="968" y="465.0859"/><rect fill="#FFFFFF" height="30.3516" style="stroke:#181818;stroke-width:1.0;" width="10" x="1077" y="569.1406"/><polygon fill="#A52A2A" points="288.5,149.5703,298.5,153.5703,288.5,157.5703,292.5,153.5703" style="stroke:#A52A2A;stroke-width:1.0;"/><line style="stroke:#A52A2A;stroke-width:1.0;" x1="32.5" x2="294.5" y1="153.5703" y2="153.5703"/><text fill="#000000" font-family="sans-serif" font-size="13" lengthAdjust="spacing" textLength="249" x="39.5" y="148.7139">I want to list staff based on some attributes</text><polygon fill="#A52A2A" points="43.5,179.9219,33.5,183.9219,43.5,187.9219,39.5,183.9219" style="stroke:#A52A2A;stroke-width:1.0;"/><line style="stroke:#A52A2A;stroke-width:1.0;stroke-dasharray:2.0,2.0;" x1="37.5" x2="304.5" y1="183.9219" y2="183.9219"/><text fill="#000000" font-family="sans-serif" font-size="13" lengthAdjust="spacing" textLength="216" x="49.5" y="179.0654">Which attributes do you want to use?</text><polygon fill="#A52A2A" points="288.5,210.2734,298.5,214.2734,288.5,218.2734,292.5,214.2734" style="stroke:#A52A2A;stroke-width:1.0;"/><line style="stroke:#A52A2A;stroke-width:1.0;" x1="32.5" x2="294.5" y1="214.2734" y2="214.2734"/><text fill="#000000" font-family="sans-serif" font-size="13" lengthAdjust="spacing" textLength="54" x="39.5" y="209.417">attributes</text><polygon fill="#A52A2A" points="445.5,240.625,455.5,244.625,445.5,248.625,449.5,244.625" style="stroke:#A52A2A;stroke-width:1.0;"/><line style="stroke:#A52A2A;stroke-width:1.0;" x1="310.5" x2="451.5" y1="244.625" y2="244.625"/><text fill="#000000" font-family="sans-serif" font-size="13" lengthAdjust="spacing" textLength="105" x="317.5" y="239.7686">listStaff(attributes)</text><polygon fill="#A52A2A" points="737.5,270.9766,747.5,274.9766,737.5,278.9766,741.5,274.9766" style="stroke:#A52A2A;stroke-width:1.0;"/><line style="stroke:#A52A2A;stroke-width:1.0;" x1="467.5" x2="743.5" y1="274.9766" y2="274.9766"/><text fill="#000000" font-family="sans-serif" font-size="13" lengthAdjust="spacing" textLength="234" x="474.5" y="270.1201">ensureAuthenticatedUserHasAnyOf(role)</text><polygon fill="#A52A2A" points="478.5,301.3281,468.5,305.3281,478.5,309.3281,474.5,305.3281" style="stroke:#A52A2A;stroke-width:1.0;"/><line style="stroke:#A52A2A;stroke-width:1.0;stroke-dasharray:2.0,2.0;" x1="472.5" x2="753.5" y1="305.3281" y2="305.3281"/><text fill="#000000" font-family="sans-serif" font-size="13" lengthAdjust="spacing" textLength="22" x="484.5" y="300.4717">true</text><polygon fill="#A52A2A" points="612,331.6797,622,335.6797,612,339.6797,616,335.6797" style="stroke:#A52A2A;stroke-width:1.0;"/><line style="stroke:#A52A2A;stroke-width:1.0;" x1="467.5" x2="618" y1="335.6797" y2="335.6797"/><text fill="#000000" font-family="sans-serif" font-size="13" lengthAdjust="spacing" textLength="105" x="474.5" y="330.8232">listStaff(attributes)</text><polygon fill="#A52A2A" points="839,362.0313,849,366.0313,839,370.0313,843,366.0313" style="stroke:#A52A2A;stroke-width:1.0;"/><line style="stroke:#A52A2A;stroke-width:1.0;" x1="634" x2="845" y1="366.0313" y2="366.0313"/><text fill="#000000" font-family="sans-serif" font-size="13" lengthAdjust="spacing" textLength="114" x="641" y="361.1748">getStaffRepository()</text><polygon fill="#A52A2A" points="645,392.3828,635,396.3828,645,400.3828,641,396.3828" style="stroke:#A52A2A;stroke-width:1.0;"/><line style="stroke:#A52A2A;stroke-width:1.0;stroke-dasharray:2.0,2.0;" x1="639" x2="855" y1="396.3828" y2="396.3828"/><text fill="#000000" font-family="sans-serif" font-size="13" lengthAdjust="spacing" textLength="86" x="651" y="391.5264">staffRepository</text><polygon fill="#A52A2A" points="951,422.7344,961,426.7344,951,430.7344,955,426.7344" style="stroke:#A52A2A;stroke-width:1.0;"/><line style="stroke:#A52A2A;stroke-width:1.0;" x1="634" x2="957" y1="426.7344" y2="426.7344"/><text fill="#000000" font-family="sans-serif" font-size="13" lengthAdjust="spacing" textLength="178" x="641" y="421.8779">getStaffByAttributes(attributes)</text><line style="stroke:#A52A2A;stroke-width:1.0;" x1="973" x2="1020" y1="452.0859" y2="452.0859"/><line style="stroke:#A52A2A;stroke-width:1.0;" x1="1020" x2="1020" y1="452.0859" y2="465.0859"/><line style="stroke:#A52A2A;stroke-width:1.0;" x1="979" x2="1020" y1="465.0859" y2="465.0859"/><polygon fill="#A52A2A" points="989,461.0859,979,465.0859,989,469.0859,985,465.0859" style="stroke:#A52A2A;stroke-width:1.0;"/><text fill="#000000" font-family="sans-serif" font-size="13" lengthAdjust="spacing" textLength="87" x="985" y="447.2295">getActiveStaff()</text><line style="stroke:#A52A2A;stroke-width:1.0;stroke-dasharray:2.0,2.0;" x1="978" x2="1020" y1="505.4375" y2="505.4375"/><line style="stroke:#A52A2A;stroke-width:1.0;stroke-dasharray:2.0,2.0;" x1="1020" x2="1020" y1="505.4375" y2="518.4375"/><line style="stroke:#A52A2A;stroke-width:1.0;stroke-dasharray:2.0,2.0;" x1="973" x2="1020" y1="518.4375" y2="518.4375"/><polygon fill="#A52A2A" points="983,514.4375,973,518.4375,983,522.4375,979,518.4375" style="stroke:#A52A2A;stroke-width:1.0;"/><text fill="#000000" font-family="sans-serif" font-size="13" lengthAdjust="spacing" textLength="59" x="985" y="500.5811">activeStaff</text><path d="M892.5,528.4375 L965.5,528.4375 L965.5,536.7891 L955.5,546.7891 L892.5,546.7891 L892.5,528.4375 " fill="#EEEEEE" style="stroke:#000000;stroke-width:1.5;"/><rect fill="none" height="154.7578" style="stroke:#000000;stroke-width:1.5;" width="408" x="892.5" y="528.4375"/><text fill="#000000" font-family="sans-serif" font-size="13" font-weight="bold" lengthAdjust="spacing" textLength="28" x="907.5" y="542.9326">loop</text><text fill="#000000" font-family="sans-serif" font-size="11" font-weight="bold" lengthAdjust="spacing" textLength="315" x="980.5" y="541.8564">[for each staff, check if they have the required attributes]</text><polygon fill="#A52A2A" points="1065,565.1406,1075,569.1406,1065,573.1406,1069,569.1406" style="stroke:#A52A2A;stroke-width:1.0;"/><line style="stroke:#A52A2A;stroke-width:1.0;" x1="973" x2="1071" y1="569.1406" y2="569.1406"/><text fill="#000000" font-family="sans-serif" font-size="13" lengthAdjust="spacing" textLength="85" x="980" y="564.2842">getAtribbuteX()</text><polygon fill="#A52A2A" points="984,595.4922,974,599.4922,984,603.4922,980,599.4922" style="stroke:#A52A2A;stroke-width:1.0;"/><line style="stroke:#A52A2A;stroke-width:1.0;" x1="978" x2="1081" y1="599.4922" y2="599.4922"/><text fill="#000000" font-family="sans-serif" font-size="13" lengthAdjust="spacing" textLength="54" x="990" y="594.6357">atributteX</text><path d="M902.5,614.4922 L963.5,614.4922 L963.5,622.8438 L953.5,632.8438 L902.5,632.8438 L902.5,614.4922 " fill="#EEEEEE" style="stroke:#000000;stroke-width:1.5;"/><rect fill="none" height="61.7031" style="stroke:#000000;stroke-width:1.5;" width="266" x="902.5" y="614.4922"/><text fill="#000000" font-family="sans-serif" font-size="13" font-weight="bold" lengthAdjust="spacing" textLength="16" x="917.5" y="628.9873">alt</text><text fill="#000000" font-family="sans-serif" font-size="11" font-weight="bold" lengthAdjust="spacing" textLength="185" x="978.5" y="627.9111">[staff has the required attributes]</text><line style="stroke:#A52A2A;stroke-width:1.0;" x1="973" x2="1015" y1="655.1953" y2="655.1953"/><line style="stroke:#A52A2A;stroke-width:1.0;" x1="1015" x2="1015" y1="655.1953" y2="668.1953"/><line style="stroke:#A52A2A;stroke-width:1.0;" x1="974" x2="1015" y1="668.1953" y2="668.1953"/><polygon fill="#A52A2A" points="984,664.1953,974,668.1953,984,672.1953,980,668.1953" style="stroke:#A52A2A;stroke-width:1.0;"/><text fill="#000000" font-family="sans-serif" font-size="13" lengthAdjust="spacing" textLength="53" x="980" y="650.3389">add(staff)</text><polygon fill="#A52A2A" points="645,708.5469,635,712.5469,645,716.5469,641,712.5469" style="stroke:#A52A2A;stroke-width:1.0;"/><line style="stroke:#A52A2A;stroke-width:1.0;stroke-dasharray:2.0,2.0;" x1="639" x2="967" y1="712.5469" y2="712.5469"/><text fill="#000000" font-family="sans-serif" font-size="13" lengthAdjust="spacing" textLength="45" x="651" y="707.6904">staffList</text><polygon fill="#A52A2A" points="478.5,738.8984,468.5,742.8984,478.5,746.8984,474.5,742.8984" style="stroke:#A52A2A;stroke-width:1.0;"/><line style="stroke:#A52A2A;stroke-width:1.0;stroke-dasharray:2.0,2.0;" x1="472.5" x2="628" y1="742.8984" y2="742.8984"/><text fill="#000000" font-family="sans-serif" font-size="13" lengthAdjust="spacing" textLength="45" x="484.5" y="738.042">staffList</text><polygon fill="#A52A2A" points="321.5,769.25,311.5,773.25,321.5,777.25,317.5,773.25" style="stroke:#A52A2A;stroke-width:1.0;"/><line style="stroke:#A52A2A;stroke-width:1.0;stroke-dasharray:2.0,2.0;" x1="315.5" x2="461.5" y1="773.25" y2="773.25"/><text fill="#000000" font-family="sans-serif" font-size="13" lengthAdjust="spacing" textLength="45" x="327.5" y="768.3936">staffList</text><polygon fill="#A52A2A" points="43.5,799.6016,33.5,803.6016,43.5,807.6016,39.5,803.6016" style="stroke:#A52A2A;stroke-width:1.0;"/><line style="stroke:#A52A2A;stroke-width:1.0;stroke-dasharray:2.0,2.0;" x1="37.5" x2="304.5" y1="803.6016" y2="803.6016"/><text fill="#000000" font-family="sans-serif" font-size="13" lengthAdjust="spacing" textLength="45" x="49.5" y="798.7451">staffList</text><!--SRC=[rLHDZzem4BtdLupsHAKYzSnXgm27HgBT5LdKNhtn9B48DcixhDAg_xrZ6u9DWPwRGvHutfjvysKhR8TGubkFia9O2jPejeCNTvoPhP1xvlwhZXcJMwl5Qs-ng9GinK-4Jzab1dvbGCzArBWI4kTASzGBrIaDIyKRrFEknnJ2gcsZLIzvWENFpwjYaRyKJzyyxjA-mfsIYrRKjP8Ua6kjteDjJb_XC0vSCiux3BRViU8zkMODbdQW6cYiB9CDfHtdn3J_3r9YbNLX-4x8Z8HRKOazanOUbaWcSM2MacHrlIaUW1dO57TH2oMjLbs7sgFFlodhAvE-UCGeKHz4XHxU6zHbYinxsyOGHlyfOerxPGGb8T1uI7oGGdt0qJoCCTTNOAFHbyXdUAoIVyFqaMenWmBU7SSgw8InO1mLNfb13ag2KJi4TffzS_P4PTmKC2KdmTiClhUYQYCiS0M3waVt9ELpnZ7s40aX1tV2F4QDc7cXFiN9cVBXp8bwTlvqFbpfPu3Iz1fTMr1IoOZ1DrIbBypaSdYg9uJ7o9llbtlvP6CPO3NDVfIHXwOX_K30FoM7kGbWOiK3GEG6xKNZ9n4tcPQ4EOq4cDH1B3jnC6hmOnK5dm_Z5MXk9x7E0Yzra3j8s9R9BKB4O6Tuh3EO0R9EgJtKjFHaQqDc7w5giTg2g87wEa3B3kY-w6PxwuMcOOwc2uvF8lMer84SwWS9FU4I1U4qyH5doq8KSZ12BbBmvwmxhLfBMtfBw7MbFWpd4yyFAb7oB7Elj9XZurSqVd-LyjJhPAplCSfak4zhUnKUxU35DN4LJciUFNy0]--></g></svg>