<?xml version="1.0" encoding="us-ascii" standalone="no"?><svg xmlns="http://www.w3.org/2000/svg" xmlns:xlink="http://www.w3.org/1999/xlink" contentStyleType="text/css" height="578px" preserveAspectRatio="none" style="width:1518px;height:578px;background:#FFFFFF;" version="1.1" viewBox="0 0 1518 578" width="1518px" zoomAndPan="magnify"><defs/><g><text fill="#000000" font-family="sans-serif" font-size="14" font-weight="bold" lengthAdjust="spacing" textLength="100" x="702" y="24.5332">Domain Model</text><!--cluster User Aggregate--><g id="cluster_User Aggregate"><rect fill="none" height="333" rx="2.5" ry="2.5" style="stroke:#000000;stroke-width:1.5;" width="458" x="237" y="146.6094"/><text fill="#000000" font-family="sans-serif" font-size="14" font-weight="bold" lengthAdjust="spacing" textLength="110" x="411" y="163.1426">User Aggregate</text></g><!--cluster Patient Aggregate--><g id="cluster_Patient Aggregate"><rect fill="none" height="527" rx="2.5" ry="2.5" style="stroke:#000000;stroke-width:1.5;" width="785" x="727" y="45.6094"/><text fill="#000000" font-family="sans-serif" font-size="14" font-weight="bold" lengthAdjust="spacing" textLength="126" x="1056.5" y="62.1426">Patient Aggregate</text></g><!--class User--><g id="elem_User"><rect codeLine="39" fill="#FFFACD" height="65.7969" id="User" rx="2.5" ry="2.5" style="stroke:#8B4513;stroke-width:0.5;" width="45" x="536.5" y="389.6094"/><text fill="#000000" font-family="sans-serif" font-size="12" font-style="italic" lengthAdjust="spacing" textLength="43" x="537.5" y="407.0664">&#171;entity&#187;</text><text fill="#000000" font-family="sans-serif" font-size="12" font-style="italic" lengthAdjust="spacing" textLength="35" x="541.5" y="422.1602">&#171;root&#187;</text><text fill="#000000" font-family="sans-serif" font-size="14" lengthAdjust="spacing" textLength="29" x="544.5" y="439.3301">User</text><line style="stroke:#8B4513;stroke-width:0.5;" x1="537.5" x2="580.5" y1="447.4063" y2="447.4063"/></g><!--entity Username--><g id="elem_Username"><rect fill="#FFFACD" height="41.2188" rx="2.5" ry="2.5" style="stroke:#8B4513;stroke-width:0.5;" width="117" x="280.5" y="239.6094"/><text fill="#000000" font-family="sans-serif" font-size="14" font-style="italic" lengthAdjust="spacing" textLength="97" x="290.5" y="257.1426">&#171;Value Object&#187;</text><text fill="#000000" font-family="sans-serif" font-size="14" lengthAdjust="spacing" textLength="64" x="307" y="274.752">Username</text></g><!--entity Email--><g id="elem_Email"><rect fill="#FFFACD" height="41.2188" rx="2.5" ry="2.5" style="stroke:#8B4513;stroke-width:0.5;" width="117" x="432.5" y="239.6094"/><text fill="#000000" font-family="sans-serif" font-size="14" font-style="italic" lengthAdjust="spacing" textLength="97" x="442.5" y="257.1426">&#171;Value Object&#187;</text><text fill="#000000" font-family="sans-serif" font-size="14" lengthAdjust="spacing" textLength="34" x="474" y="274.752">Email</text></g><!--class Role--><g id="elem_Role"><rect codeLine="45" fill="#FFFACD" height="138.75" id="Role" rx="2.5" ry="2.5" style="stroke:#8B4513;stroke-width:0.5;" width="86" x="585" y="190.6094"/><text fill="#000000" font-family="sans-serif" font-size="12" font-style="italic" lengthAdjust="spacing" textLength="84" x="586" y="208.0664">&#171;enumeration&#187;</text><text fill="#000000" font-family="sans-serif" font-size="14" lengthAdjust="spacing" textLength="29" x="613.5" y="225.2363">Role</text><line style="stroke:#8B4513;stroke-width:0.5;" x1="586" x2="670" y1="233.3125" y2="233.3125"/><text fill="#000000" font-family="sans-serif" font-size="14" lengthAdjust="spacing" textLength="39" x="591" y="251.8457">Admin</text><text fill="#000000" font-family="sans-serif" font-size="14" lengthAdjust="spacing" textLength="42" x="591" y="269.4551">Doctor</text><text fill="#000000" font-family="sans-serif" font-size="14" lengthAdjust="spacing" textLength="37" x="591" y="287.0645">Nurse</text><text fill="#000000" font-family="sans-serif" font-size="14" lengthAdjust="spacing" textLength="69" x="591" y="304.6738">Technician</text><text fill="#000000" font-family="sans-serif" font-size="14" lengthAdjust="spacing" textLength="44" x="591" y="322.2832">Patient</text></g><!--class Patient--><g id="elem_Patient"><rect codeLine="67" fill="#FFFACD" height="65.7969" id="Patient" rx="2.5" ry="2.5" style="stroke:#8B4513;stroke-width:0.5;" width="50" x="1055" y="227.1094"/><text fill="#000000" font-family="sans-serif" font-size="12" font-style="italic" lengthAdjust="spacing" textLength="43" x="1058.5" y="244.5664">&#171;entity&#187;</text><text fill="#000000" font-family="sans-serif" font-size="12" font-style="italic" lengthAdjust="spacing" textLength="35" x="1062.5" y="259.6602">&#171;root&#187;</text><text fill="#000000" font-family="sans-serif" font-size="14" lengthAdjust="spacing" textLength="44" x="1058" y="276.8301">Patient</text><line style="stroke:#8B4513;stroke-width:0.5;" x1="1056" x2="1104" y1="284.9063" y2="284.9063"/></g><!--entity PatientFirstName--><g id="elem_PatientFirstName"><rect fill="#FFFACD" height="41.2188" rx="2.5" ry="2.5" style="stroke:#8B4513;stroke-width:0.5;" width="128" x="743" y="81.6094"/><text fill="#000000" font-family="sans-serif" font-size="14" font-style="italic" lengthAdjust="spacing" textLength="97" x="758.5" y="99.1426">&#171;Value Object&#187;</text><text fill="#000000" font-family="sans-serif" font-size="14" lengthAdjust="spacing" textLength="108" x="753" y="116.752">PatientFirstName</text></g><!--entity PatientLastName--><g id="elem_PatientLastName"><rect fill="#FFFACD" height="41.2188" rx="2.5" ry="2.5" style="stroke:#8B4513;stroke-width:0.5;" width="127" x="906.5" y="81.6094"/><text fill="#000000" font-family="sans-serif" font-size="14" font-style="italic" lengthAdjust="spacing" textLength="97" x="921.5" y="99.1426">&#171;Value Object&#187;</text><text fill="#000000" font-family="sans-serif" font-size="14" lengthAdjust="spacing" textLength="107" x="916.5" y="116.752">PatientLastName</text></g><!--entity PatientFullName--><g id="elem_PatientFullName"><rect fill="#FFFACD" height="41.2188" rx="2.5" ry="2.5" style="stroke:#8B4513;stroke-width:0.5;" width="123" x="1068.5" y="81.6094"/><text fill="#000000" font-family="sans-serif" font-size="14" font-style="italic" lengthAdjust="spacing" textLength="97" x="1081.5" y="99.1426">&#171;Value Object&#187;</text><text fill="#000000" font-family="sans-serif" font-size="14" lengthAdjust="spacing" textLength="103" x="1078.5" y="116.752">PatientFullName</text></g><!--entity DateOfBirth--><g id="elem_DateOfBirth"><rect fill="#FFFACD" height="41.2188" rx="2.5" ry="2.5" style="stroke:#8B4513;stroke-width:0.5;" width="117" x="1226.5" y="81.6094"/><text fill="#000000" font-family="sans-serif" font-size="14" font-style="italic" lengthAdjust="spacing" textLength="97" x="1236.5" y="99.1426">&#171;Value Object&#187;</text><text fill="#000000" font-family="sans-serif" font-size="14" lengthAdjust="spacing" textLength="74" x="1248" y="116.752">DateOfBirth</text></g><!--entity Gender--><g id="elem_Gender"><rect fill="#FFFACD" height="41.2188" rx="2.5" ry="2.5" style="stroke:#8B4513;stroke-width:0.5;" width="117" x="1378.5" y="81.6094"/><text fill="#000000" font-family="sans-serif" font-size="14" font-style="italic" lengthAdjust="spacing" textLength="97" x="1388.5" y="99.1426">&#171;Value Object&#187;</text><text fill="#000000" font-family="sans-serif" font-size="14" lengthAdjust="spacing" textLength="48" x="1413" y="116.752">Gender</text></g><!--entity MedicalRecordNumber--><g id="elem_MedicalRecordNumber"><rect fill="#FFFACD" height="41.2188" rx="2.5" ry="2.5" style="stroke:#8B4513;stroke-width:0.5;" width="163" x="762.5" y="402.1094"/><text fill="#000000" font-family="sans-serif" font-size="14" font-style="italic" lengthAdjust="spacing" textLength="97" x="795.5" y="419.6426">&#171;Value Object&#187;</text><text fill="#000000" font-family="sans-serif" font-size="14" lengthAdjust="spacing" textLength="143" x="772.5" y="437.252">MedicalRecordNumber</text></g><!--entity ContactInformation--><g id="elem_ContactInformation"><rect fill="#FFFACD" height="41.2188" rx="2.5" ry="2.5" style="stroke:#8B4513;stroke-width:0.5;" width="139" x="960.5" y="402.1094"/><text fill="#000000" font-family="sans-serif" font-size="14" font-style="italic" lengthAdjust="spacing" textLength="97" x="981.5" y="419.6426">&#171;Value Object&#187;</text><text fill="#000000" font-family="sans-serif" font-size="14" lengthAdjust="spacing" textLength="119" x="970.5" y="437.252">ContactInformation</text></g><!--entity AllergiesAndConditions--><g id="elem_AllergiesAndConditions"><rect fill="#FFFACD" height="41.2188" rx="2.5" ry="2.5" style="stroke:#8B4513;stroke-width:0.5;" width="166" x="1135" y="402.1094"/><text fill="#000000" font-family="sans-serif" font-size="14" font-style="italic" lengthAdjust="spacing" textLength="97" x="1169.5" y="419.6426">&#171;Value Object&#187;</text><text fill="#000000" font-family="sans-serif" font-size="14" lengthAdjust="spacing" textLength="146" x="1145" y="437.252">AllergiesAndConditions</text></g><!--entity EmergencyContact--><g id="elem_EmergencyContact"><rect fill="#FFFACD" height="41.2188" rx="2.5" ry="2.5" style="stroke:#8B4513;stroke-width:0.5;" width="140" x="1336" y="402.1094"/><text fill="#000000" font-family="sans-serif" font-size="14" font-style="italic" lengthAdjust="spacing" textLength="97" x="1357.5" y="419.6426">&#171;Value Object&#187;</text><text fill="#000000" font-family="sans-serif" font-size="14" lengthAdjust="spacing" textLength="120" x="1346" y="437.252">EmergencyContact</text></g><!--entity PatientEmail--><g id="elem_PatientEmail"><rect fill="#FFFACD" height="41.2188" rx="2.5" ry="2.5" style="stroke:#8B4513;stroke-width:0.5;" width="117" x="895.5" y="515.6094"/><text fill="#000000" font-family="sans-serif" font-size="14" font-style="italic" lengthAdjust="spacing" textLength="97" x="905.5" y="533.1426">&#171;Value Object&#187;</text><text fill="#000000" font-family="sans-serif" font-size="14" lengthAdjust="spacing" textLength="78" x="915" y="550.752">PatientEmail</text></g><!--entity PhoneNumber--><g id="elem_PhoneNumber"><rect fill="#FFFACD" height="41.2188" rx="2.5" ry="2.5" style="stroke:#8B4513;stroke-width:0.5;" width="117" x="1047.5" y="515.6094"/><text fill="#000000" font-family="sans-serif" font-size="14" font-style="italic" lengthAdjust="spacing" textLength="97" x="1057.5" y="533.1426">&#171;Value Object&#187;</text><text fill="#000000" font-family="sans-serif" font-size="14" lengthAdjust="spacing" textLength="90" x="1061" y="550.752">PhoneNumber</text></g><g id="elem_GMN13"><path d="M6,89.1094 L6,115.4609 L484,115.4609 L484,99.1094 L474,89.1094 L6,89.1094 " fill="#FEFFDD" style="stroke:#181818;stroke-width:0.5;"/><path d="M474,89.1094 L474,99.1094 L484,99.1094 L474,89.1094 " fill="#FEFFDD" style="stroke:#181818;stroke-width:1.0;"/><text fill="#000000" font-family="sans-serif" font-size="13" lengthAdjust="spacing" textLength="457" x="12" y="107.6045">This logic is abstracted by the backend and is implemented in the IAM process</text></g><!--reverse link Username to User--><g id="link_Username_User"><path codeLine="55" d="M363.1862,284.8164 C378.0862,299.0664 394.94,314.3194 415,329.6094 C455.83,360.7094 507.23,391.7894 536.28,408.6794 " fill="none" id="Username-backto-User" style="stroke:#A52A2A;stroke-width:1.0;"/><polygon fill="#A52A2A" points="358.85,280.6694,362.5896,289.7807,362.4635,284.1252,368.1189,283.9991,358.85,280.6694" style="stroke:#A52A2A;stroke-width:1.0;"/><text fill="#000000" font-family="sans-serif" font-size="13" lengthAdjust="spacing" textLength="7" x="356.4484" y="302.2157">1</text><text fill="#000000" font-family="sans-serif" font-size="13" lengthAdjust="spacing" textLength="7" x="521.5779" y="399.814">1</text></g><!--reverse link Email to User--><g id="link_Email_User"><path codeLine="56" d="M501.6806,286.314 C513.1706,313.434 531.67,357.0994 545.42,389.5594 " fill="none" id="Email-backto-User" style="stroke:#A52A2A;stroke-width:1.0;"/><polygon fill="#A52A2A" points="499.34,280.7894,499.1679,290.6367,501.2905,285.3932,506.534,287.5159,499.34,280.7894" style="stroke:#A52A2A;stroke-width:1.0;"/><text fill="#000000" font-family="sans-serif" font-size="13" lengthAdjust="spacing" textLength="7" x="493.7012" y="302.3694">1</text><text fill="#000000" font-family="sans-serif" font-size="13" lengthAdjust="spacing" textLength="7" x="534.8973" y="378.6451">1</text></g><!--reverse link Role to User--><g id="link_Role_User"><path codeLine="57" d="M596.1698,335.1514 C587.2298,355.9414 580.2,372.2894 572.81,389.4794 " fill="none" id="Role-backto-User" style="stroke:#A52A2A;stroke-width:1.0;"/><polygon fill="#A52A2A" points="598.54,329.6394,591.31,336.3272,596.5648,334.2327,598.6593,339.4875,598.54,329.6394" style="stroke:#A52A2A;stroke-width:1.0;"/><text fill="#000000" font-family="sans-serif" font-size="13" lengthAdjust="spacing" textLength="7" x="588.2955" y="350.796">1</text><text fill="#000000" font-family="sans-serif" font-size="13" lengthAdjust="spacing" textLength="7" x="567.9364" y="378.5486">1</text></g><!--link GMN13 to User Aggregate--><g id="link_GMN13_User Aggregate"><path d="M245,115.3494 C245,119.8744 245,125.4623 245,131.7832 C245,134.9436 245,138.2872 245,141.7728 C245,142.6442 245,143.5245 245,144.413 C245,144.8573 245,145.3036 245,145.7518 C245,145.976 245,146.2006 245,146.4257 " fill="none" id="GMN13-User Aggregate" style="stroke:#A52A2A;stroke-width:1.0;stroke-dasharray:7.0,7.0;"/></g><!--link ContactInformation to PatientEmail--><g id="link_ContactInformation_PatientEmail"><path codeLine="86" d="M1016.59,443.2894 C1002.78,463.5394 984.7593,489.9715 970.9093,510.2915 " fill="none" id="ContactInformation-to-PatientEmail" style="stroke:#A52A2A;stroke-width:1.0;"/><polygon fill="#A52A2A" points="967.53,515.2494,975.9041,510.0654,970.3461,511.1178,969.2936,505.5597,967.53,515.2494" style="stroke:#A52A2A;stroke-width:1.0;"/><text fill="#000000" font-family="sans-serif" font-size="13" lengthAdjust="spacing" textLength="7" x="1004.8341" y="464.8694">1</text><text fill="#000000" font-family="sans-serif" font-size="13" lengthAdjust="spacing" textLength="7" x="963.3509" y="504.6463">1</text></g><!--link ContactInformation to PhoneNumber--><g id="link_ContactInformation_PhoneNumber"><path codeLine="87" d="M1043.41,443.2894 C1057.22,463.5394 1075.2407,489.9715 1089.0907,510.2915 " fill="none" id="ContactInformation-to-PhoneNumber" style="stroke:#A52A2A;stroke-width:1.0;"/><polygon fill="#A52A2A" points="1092.47,515.2494,1090.7064,505.5597,1089.6539,511.1178,1084.0959,510.0654,1092.47,515.2494" style="stroke:#A52A2A;stroke-width:1.0;"/><text fill="#000000" font-family="sans-serif" font-size="13" lengthAdjust="spacing" textLength="7" x="1039.1972" y="464.8694">1</text><text fill="#000000" font-family="sans-serif" font-size="13" lengthAdjust="spacing" textLength="7" x="1080.6803" y="504.6463">1</text></g><!--reverse link PatientFirstName to Patient--><g id="link_PatientFirstName_Patient"><path codeLine="90" d="M846.5096,125.6859 C902.2196,157.5159 1005.85,216.7394 1054.94,244.7894 " fill="none" id="PatientFirstName-backto-Patient" style="stroke:#A52A2A;stroke-width:1.0;"/><polygon fill="#A52A2A" points="841.3,122.7094,847.1301,130.6473,845.6414,125.1898,851.0988,123.7011,841.3,122.7094" style="stroke:#A52A2A;stroke-width:1.0;"/><text fill="#000000" font-family="sans-serif" font-size="13" lengthAdjust="spacing" textLength="7" x="842.9625" y="144.2669">1</text><text fill="#000000" font-family="sans-serif" font-size="13" lengthAdjust="spacing" textLength="7" x="1039.9075" y="235.8037">1</text></g><!--reverse link PatientLastName to Patient--><g id="link_PatientLastName_Patient"><path codeLine="91" d="M987.3882,127.7725 C1005.8882,154.0025 1035.33,195.7594 1057.41,227.0694 " fill="none" id="PatientLastName-backto-Patient" style="stroke:#A52A2A;stroke-width:1.0;"/><polygon fill="#A52A2A" points="983.93,122.8694,985.8485,132.5296,986.8118,126.9553,992.3861,127.9186,983.93,122.8694" style="stroke:#A52A2A;stroke-width:1.0;"/><text fill="#000000" font-family="sans-serif" font-size="13" lengthAdjust="spacing" textLength="7" x="979.8634" y="144.4719">1</text><text fill="#000000" font-family="sans-serif" font-size="13" lengthAdjust="spacing" textLength="7" x="1045.0289" y="216.1572">1</text></g><!--reverse link PatientFullName to Patient--><g id="link_PatientFullName_Patient"><path codeLine="92" d="M1121.8381,128.5829 C1113.4281,154.8129 1100.3,195.7594 1090.27,227.0694 " fill="none" id="PatientFullName-backto-Patient" style="stroke:#A52A2A;stroke-width:1.0;"/><polygon fill="#A52A2A" points="1123.67,122.8694,1117.1132,130.2184,1122.1434,127.6306,1124.7312,132.6609,1123.67,122.8694" style="stroke:#A52A2A;stroke-width:1.0;"/><text fill="#000000" font-family="sans-serif" font-size="13" lengthAdjust="spacing" textLength="7" x="1113.9053" y="144.4719">1</text><text fill="#000000" font-family="sans-serif" font-size="13" lengthAdjust="spacing" textLength="7" x="1084.6663" y="216.1572">1</text></g><!--reverse link DateOfBirth to Patient--><g id="link_DateOfBirth_Patient"><path codeLine="93" d="M1254.2651,126.5026 C1214.6151,156.6726 1144.24,210.2194 1105.11,239.9994 " fill="none" id="DateOfBirth-backto-Patient" style="stroke:#A52A2A;stroke-width:1.0;"/><polygon fill="#A52A2A" points="1259.04,122.8694,1249.4555,125.136,1255.0609,125.8971,1254.2998,131.5025,1259.04,122.8694" style="stroke:#A52A2A;stroke-width:1.0;"/><text fill="#000000" font-family="sans-serif" font-size="13" lengthAdjust="spacing" textLength="7" x="1243.7544" y="144.4719">1</text><text fill="#000000" font-family="sans-serif" font-size="13" lengthAdjust="spacing" textLength="7" x="1113.1566" y="229.6666">1</text></g><!--reverse link Gender to Patient--><g id="link_Gender_Patient"><path codeLine="94" d="M1386.6519,125.1116 C1310.8019,158.2516 1165.13,221.9094 1105.26,248.0694 " fill="none" id="Gender-backto-Patient" style="stroke:#A52A2A;stroke-width:1.0;"/><polygon fill="#A52A2A" points="1392.15,122.7094,1382.3013,122.6473,1387.5682,124.7112,1385.5043,129.9781,1392.15,122.7094" style="stroke:#A52A2A;stroke-width:1.0;"/><text fill="#000000" font-family="sans-serif" font-size="13" lengthAdjust="spacing" textLength="7" x="1371.5516" y="144.2669">1</text><text fill="#000000" font-family="sans-serif" font-size="13" lengthAdjust="spacing" textLength="7" x="1112.9893" y="240.2533">1</text></g><!--link Patient to MedicalRecordNumber--><g id="link_Patient_MedicalRecordNumber"><path codeLine="95" d="M1054.74,278.2894 C1010.51,308.3694 924.2614,367.0253 877.6914,398.6953 " fill="none" id="Patient-to-MedicalRecordNumber" style="stroke:#A52A2A;stroke-width:1.0;"/><polygon fill="#A52A2A" points="872.73,402.0694,882.4215,400.3159,876.8645,399.2577,877.9228,393.7007,872.73,402.0694" style="stroke:#A52A2A;stroke-width:1.0;"/><text fill="#000000" font-family="sans-serif" font-size="13" lengthAdjust="spacing" textLength="7" x="1040.0108" y="298.8949">1</text><text fill="#000000" font-family="sans-serif" font-size="13" lengthAdjust="spacing" textLength="7" x="873.1413" y="391.2004">1</text></g><!--link Patient to ContactInformation--><g id="link_Patient_ContactInformation"><path codeLine="96" d="M1070,293.1994 C1059.91,325.5894 1046.435,368.841 1037.975,395.991 " fill="none" id="Patient-to-ContactInformation" style="stroke:#A52A2A;stroke-width:1.0;"/><polygon fill="#A52A2A" points="1036.19,401.7194,1042.6863,394.3168,1037.6775,396.9458,1035.0486,391.9369,1036.19,401.7194" style="stroke:#A52A2A;stroke-width:1.0;"/><text fill="#000000" font-family="sans-serif" font-size="13" lengthAdjust="spacing" textLength="7" x="1060.5109" y="314.3216">1</text><text fill="#000000" font-family="sans-serif" font-size="13" lengthAdjust="spacing" textLength="7" x="1029.9466" y="391.1079">1</text></g><!--link Patient to AllergiesAndConditions--><g id="link_Patient_AllergiesAndConditions"><path codeLine="97" d="M1105.31,290.5494 C1133.17,322.9494 1173.2479,369.5602 1197.1979,397.4102 " fill="none" id="Patient-to-AllergiesAndConditions" style="stroke:#A52A2A;stroke-width:1.0;"/><polygon fill="#A52A2A" points="1201.11,401.9594,1198.2746,392.5275,1197.8499,398.1684,1192.209,397.7437,1201.11,401.9594" style="stroke:#A52A2A;stroke-width:1.0;"/><text fill="#000000" font-family="sans-serif" font-size="13" lengthAdjust="spacing" textLength="7" x="1113.0527" y="294.1498">1</text><text fill="#000000" font-family="sans-serif" font-size="13" lengthAdjust="spacing" textLength="5" x="1190.6566" y="391.4154">*</text></g><!--link Patient to EmergencyContact--><g id="link_Patient_EmergencyContact"><path codeLine="98" d="M1105.04,273.4394 C1161.32,301.1494 1292.8368,365.8997 1360.8768,399.3897 " fill="none" id="Patient-to-EmergencyContact" style="stroke:#A52A2A;stroke-width:1.0;"/><polygon fill="#A52A2A" points="1366.26,402.0394,1359.9516,394.476,1361.774,399.8313,1356.4187,401.6537,1366.26,402.0394" style="stroke:#A52A2A;stroke-width:1.0;"/><text fill="#000000" font-family="sans-serif" font-size="13" lengthAdjust="spacing" textLength="7" x="1113.0669" y="272.5116">1</text><text fill="#000000" font-family="sans-serif" font-size="13" lengthAdjust="spacing" textLength="7" x="1346.5583" y="391.1616">1</text></g><!--reverse link Patient to User--><g id="link_Patient_User"><path codeLine="104" d="M1049.136,270.616 C960.106,298.046 666.24,388.5694 581.5,414.6794 " fill="none" id="Patient-backto-User" style="stroke:#A52A2A;stroke-width:1.0;"/><polygon fill="#A52A2A" points="1054.87,268.8494,1045.0912,267.6767,1050.0917,270.3216,1047.4467,275.322,1054.87,268.8494" style="stroke:#A52A2A;stroke-width:1.0;"/><text fill="#000000" font-family="sans-serif" font-size="13" lengthAdjust="spacing" textLength="20" x="1027.1853" y="266.567">0..*</text><text fill="#000000" font-family="sans-serif" font-size="13" lengthAdjust="spacing" textLength="7" x="589.4625" y="407.3809">1</text></g><!--SRC=[rPJVRzem4CVVyrTOl5IgHDMzJYXIW7L3ehHgsLudOn-9LySNsOuwDlL_tyK992K4-Zga83ltYU_Nzvmf2KmeApH4MRNEmMSeNSIrnjUVkVgjJ1f5L-v5cO9RdhCS3OhCOWvioxM3hgtWueMdyEnt6fW5uRb9zJl2PLpYAvtP_rWh0tvN04DB8P1FjbQUllRLFvjZpfLXzoX1Hr7KVYOqToxntgfDwM4Xq3ohFy1kUmpx6p7wBTKMbkHgYbQ2dQ56IuVB5EnKb_0UeNHIYwMHDPOyFYuNisIzU5W5xjY-12hEB5FRBPe09DRYQssRqgf-sNNypANKKDlUkX4FLBAR4xVoFqY9sfYagOMKUt1HrEJ5HjyTsDOoeap2IM2etJiMh9D9lOlZoSGY-ZXkydshsL21YZISn3YP_E2KBNlO_A9onN6BV27bwBwzyLVcx0ar16zb3fPxXURWAgGiSsKEkpaAZ_QmNPNMmM6t1f4P9HHl-KSwaFBe1dx5da07FovJXMFAk6hqV0PrudnVbXeFxqQVHcnSZkEms2SzO0u93zYgNAah58b1JpwnOBZjj-CpMsVACOsf4emMVEEyvSA3P9jTY7H3dGGZ6QU709KN6d9Ab0YQqufO9FUii2Z0KUFRpZS56Mx-7lXG_nluJbddL-TrqA1B_b7ohjJw0Zcd-1-sKqLNrXdgAnKg27e8k0Uf1DTF86YILcM-EKlFq7ZgnS9iqUP1HsVWH6kmgGANL3Djf0gwEpikn8CHkyRDQVIgFhmeK1bVzVsRSZGNku4verkWlg7HxSDddVXxfH-OsHRBqC1GeKuEsP3N4yMaEHcFusfQkj5yW6w3kZZeUv6tizwvBDwFxB74Bv9xXLy-iX7uCDZHzp1KoxjlRymdn3t8zkjx6hqU3GXxyEHZMOSxyAX1KNHqOTxUt5mVgXNz0m00]--></g></svg>