<?xml version="1.0" encoding="us-ascii" standalone="no"?><svg xmlns="http://www.w3.org/2000/svg" xmlns:xlink="http://www.w3.org/1999/xlink" contentStyleType="text/css" height="623px" preserveAspectRatio="none" style="width:1787px;height:623px;background:#FFFFFF;" version="1.1" viewBox="0 0 1787 623" width="1787px" zoomAndPan="magnify"><defs/><g><text fill="#000000" font-family="sans-serif" font-size="14" font-weight="bold" lengthAdjust="spacing" textLength="100" x="836.5" y="24.5332">Domain Model</text><!--cluster User Aggregate--><g id="cluster_User Aggregate"><rect fill="none" height="333" rx="2.5" ry="2.5" style="stroke:#000000;stroke-width:1.5;" width="458" x="237" y="191.6094"/><text fill="#000000" font-family="sans-serif" font-size="14" font-weight="bold" lengthAdjust="spacing" textLength="110" x="411" y="208.1426">User Aggregate</text></g><!--cluster Patient Aggregate--><g id="cluster_Patient Aggregate"><rect fill="none" height="572" rx="2.5" ry="2.5" style="stroke:#000000;stroke-width:1.5;" width="1054" x="727" y="45.6094"/><text fill="#000000" font-family="sans-serif" font-size="14" font-weight="bold" lengthAdjust="spacing" textLength="126" x="1191" y="62.1426">Patient Aggregate</text></g><!--class User--><g id="elem_User"><rect codeLine="39" fill="#FFFACD" height="65.7969" id="User" rx="2.5" ry="2.5" style="stroke:#8B4513;stroke-width:0.5;" width="45" x="536.5" y="434.6094"/><text fill="#000000" font-family="sans-serif" font-size="12" font-style="italic" lengthAdjust="spacing" textLength="43" x="537.5" y="452.0664">&#171;entity&#187;</text><text fill="#000000" font-family="sans-serif" font-size="12" font-style="italic" lengthAdjust="spacing" textLength="35" x="541.5" y="467.1602">&#171;root&#187;</text><text fill="#000000" font-family="sans-serif" font-size="14" lengthAdjust="spacing" textLength="29" x="544.5" y="484.3301">User</text><line style="stroke:#8B4513;stroke-width:0.5;" x1="537.5" x2="580.5" y1="492.4063" y2="492.4063"/></g><!--entity Username--><g id="elem_Username"><rect fill="#FFFACD" height="41.2188" rx="2.5" ry="2.5" style="stroke:#8B4513;stroke-width:0.5;" width="117" x="280.5" y="284.6094"/><text fill="#000000" font-family="sans-serif" font-size="14" font-style="italic" lengthAdjust="spacing" textLength="97" x="290.5" y="302.1426">&#171;Value Object&#187;</text><text fill="#000000" font-family="sans-serif" font-size="14" lengthAdjust="spacing" textLength="64" x="307" y="319.752">Username</text></g><!--entity Email--><g id="elem_Email"><rect fill="#FFFACD" height="41.2188" rx="2.5" ry="2.5" style="stroke:#8B4513;stroke-width:0.5;" width="117" x="432.5" y="284.6094"/><text fill="#000000" font-family="sans-serif" font-size="14" font-style="italic" lengthAdjust="spacing" textLength="97" x="442.5" y="302.1426">&#171;Value Object&#187;</text><text fill="#000000" font-family="sans-serif" font-size="14" lengthAdjust="spacing" textLength="34" x="474" y="319.752">Email</text></g><!--class Role--><g id="elem_Role"><rect codeLine="45" fill="#FFFACD" height="138.75" id="Role" rx="2.5" ry="2.5" style="stroke:#8B4513;stroke-width:0.5;" width="86" x="585" y="235.6094"/><text fill="#000000" font-family="sans-serif" font-size="12" font-style="italic" lengthAdjust="spacing" textLength="84" x="586" y="253.0664">&#171;enumeration&#187;</text><text fill="#000000" font-family="sans-serif" font-size="14" lengthAdjust="spacing" textLength="29" x="613.5" y="270.2363">Role</text><line style="stroke:#8B4513;stroke-width:0.5;" x1="586" x2="670" y1="278.3125" y2="278.3125"/><text fill="#000000" font-family="sans-serif" font-size="14" lengthAdjust="spacing" textLength="39" x="591" y="296.8457">Admin</text><text fill="#000000" font-family="sans-serif" font-size="14" lengthAdjust="spacing" textLength="42" x="591" y="314.4551">Doctor</text><text fill="#000000" font-family="sans-serif" font-size="14" lengthAdjust="spacing" textLength="37" x="591" y="332.0645">Nurse</text><text fill="#000000" font-family="sans-serif" font-size="14" lengthAdjust="spacing" textLength="69" x="591" y="349.6738">Technician</text><text fill="#000000" font-family="sans-serif" font-size="14" lengthAdjust="spacing" textLength="44" x="591" y="367.2832">Patient</text></g><!--class Patient--><g id="elem_Patient"><rect codeLine="67" fill="#FFFACD" height="65.7969" id="Patient" rx="2.5" ry="2.5" style="stroke:#8B4513;stroke-width:0.5;" width="50" x="1188" y="272.1094"/><text fill="#000000" font-family="sans-serif" font-size="12" font-style="italic" lengthAdjust="spacing" textLength="43" x="1191.5" y="289.5664">&#171;entity&#187;</text><text fill="#000000" font-family="sans-serif" font-size="12" font-style="italic" lengthAdjust="spacing" textLength="35" x="1195.5" y="304.6602">&#171;root&#187;</text><text fill="#000000" font-family="sans-serif" font-size="14" lengthAdjust="spacing" textLength="44" x="1191" y="321.8301">Patient</text><line style="stroke:#8B4513;stroke-width:0.5;" x1="1189" x2="1237" y1="329.9063" y2="329.9063"/></g><!--entity PatientFirstName--><g id="elem_PatientFirstName"><rect fill="#FFFACD" height="41.2188" rx="2.5" ry="2.5" style="stroke:#8B4513;stroke-width:0.5;" width="128" x="826" y="104.1094"/><text fill="#000000" font-family="sans-serif" font-size="14" font-style="italic" lengthAdjust="spacing" textLength="97" x="841.5" y="121.6426">&#171;Value Object&#187;</text><text fill="#000000" font-family="sans-serif" font-size="14" lengthAdjust="spacing" textLength="108" x="836" y="139.252">PatientFirstName</text></g><!--entity PatientLastName--><g id="elem_PatientLastName"><rect fill="#FFFACD" height="41.2188" rx="2.5" ry="2.5" style="stroke:#8B4513;stroke-width:0.5;" width="127" x="989.5" y="104.1094"/><text fill="#000000" font-family="sans-serif" font-size="14" font-style="italic" lengthAdjust="spacing" textLength="97" x="1004.5" y="121.6426">&#171;Value Object&#187;</text><text fill="#000000" font-family="sans-serif" font-size="14" lengthAdjust="spacing" textLength="107" x="999.5" y="139.252">PatientLastName</text></g><!--entity PatientFullName--><g id="elem_PatientFullName"><rect fill="#FFFACD" height="41.2188" rx="2.5" ry="2.5" style="stroke:#8B4513;stroke-width:0.5;" width="123" x="1151.5" y="104.1094"/><text fill="#000000" font-family="sans-serif" font-size="14" font-style="italic" lengthAdjust="spacing" textLength="97" x="1164.5" y="121.6426">&#171;Value Object&#187;</text><text fill="#000000" font-family="sans-serif" font-size="14" lengthAdjust="spacing" textLength="103" x="1161.5" y="139.252">PatientFullName</text></g><!--entity DateOfBirth--><g id="elem_DateOfBirth"><rect fill="#FFFACD" height="41.2188" rx="2.5" ry="2.5" style="stroke:#8B4513;stroke-width:0.5;" width="117" x="1309.5" y="104.1094"/><text fill="#000000" font-family="sans-serif" font-size="14" font-style="italic" lengthAdjust="spacing" textLength="97" x="1319.5" y="121.6426">&#171;Value Object&#187;</text><text fill="#000000" font-family="sans-serif" font-size="14" lengthAdjust="spacing" textLength="74" x="1331" y="139.252">DateOfBirth</text></g><!--class Gender--><g id="elem_Gender"><rect codeLine="74" fill="#FFFACD" height="85.9219" id="Gender" rx="2.5" ry="2.5" style="stroke:#8B4513;stroke-width:0.5;" width="86" x="1462" y="81.6094"/><text fill="#000000" font-family="sans-serif" font-size="12" font-style="italic" lengthAdjust="spacing" textLength="84" x="1463" y="99.0664">&#171;enumeration&#187;</text><text fill="#000000" font-family="sans-serif" font-size="14" lengthAdjust="spacing" textLength="48" x="1481" y="116.2363">Gender</text><line style="stroke:#8B4513;stroke-width:0.5;" x1="1463" x2="1547" y1="124.3125" y2="124.3125"/><text fill="#000000" font-family="sans-serif" font-size="14" lengthAdjust="spacing" textLength="30" x="1468" y="142.8457">Male</text><text fill="#000000" font-family="sans-serif" font-size="14" lengthAdjust="spacing" textLength="47" x="1468" y="160.4551">Female</text></g><!--entity MedicalRecordNumber--><g id="elem_MedicalRecordNumber"><rect fill="#FFFACD" height="41.2188" rx="2.5" ry="2.5" style="stroke:#8B4513;stroke-width:0.5;" width="163" x="743.5" y="447.1094"/><text fill="#000000" font-family="sans-serif" font-size="14" font-style="italic" lengthAdjust="spacing" textLength="97" x="776.5" y="464.6426">&#171;Value Object&#187;</text><text fill="#000000" font-family="sans-serif" font-size="14" lengthAdjust="spacing" textLength="143" x="753.5" y="482.252">MedicalRecordNumber</text></g><!--entity AllergiesAndConditions--><g id="elem_AllergiesAndConditions"><rect fill="#FFFACD" height="41.2188" rx="2.5" ry="2.5" style="stroke:#8B4513;stroke-width:0.5;" width="166" x="942" y="447.1094"/><text fill="#000000" font-family="sans-serif" font-size="14" font-style="italic" lengthAdjust="spacing" textLength="97" x="976.5" y="464.6426">&#171;Value Object&#187;</text><text fill="#000000" font-family="sans-serif" font-size="14" lengthAdjust="spacing" textLength="146" x="952" y="482.252">AllergiesAndConditions</text></g><!--entity EmergencyContact--><g id="elem_EmergencyContact"><rect fill="#FFFACD" height="41.2188" rx="2.5" ry="2.5" style="stroke:#8B4513;stroke-width:0.5;" width="140" x="1143" y="447.1094"/><text fill="#000000" font-family="sans-serif" font-size="14" font-style="italic" lengthAdjust="spacing" textLength="97" x="1164.5" y="464.6426">&#171;Value Object&#187;</text><text fill="#000000" font-family="sans-serif" font-size="14" lengthAdjust="spacing" textLength="120" x="1153" y="482.252">EmergencyContact</text></g><!--entity AppointmentHistory--><g id="elem_AppointmentHistory"><rect fill="#FFFACD" height="41.2188" rx="2.5" ry="2.5" style="stroke:#8B4513;stroke-width:0.5;" width="142" x="1318" y="447.1094"/><text fill="#000000" font-family="sans-serif" font-size="14" font-style="italic" lengthAdjust="spacing" textLength="97" x="1340.5" y="464.6426">&#171;Value Object&#187;</text><text fill="#000000" font-family="sans-serif" font-size="14" lengthAdjust="spacing" textLength="122" x="1328" y="482.252">AppointmentHistory</text></g><!--entity PatientEmail--><g id="elem_PatientEmail"><rect fill="#FFFACD" height="41.2188" rx="2.5" ry="2.5" style="stroke:#8B4513;stroke-width:0.5;" width="117" x="1495.5" y="447.1094"/><text fill="#000000" font-family="sans-serif" font-size="14" font-style="italic" lengthAdjust="spacing" textLength="97" x="1505.5" y="464.6426">&#171;Value Object&#187;</text><text fill="#000000" font-family="sans-serif" font-size="14" lengthAdjust="spacing" textLength="78" x="1515" y="482.252">PatientEmail</text></g><!--entity PhoneNumber--><g id="elem_PhoneNumber"><rect fill="#FFFACD" height="41.2188" rx="2.5" ry="2.5" style="stroke:#8B4513;stroke-width:0.5;" width="117" x="1647.5" y="447.1094"/><text fill="#000000" font-family="sans-serif" font-size="14" font-style="italic" lengthAdjust="spacing" textLength="97" x="1657.5" y="464.6426">&#171;Value Object&#187;</text><text fill="#000000" font-family="sans-serif" font-size="14" lengthAdjust="spacing" textLength="90" x="1661" y="482.252">PhoneNumber</text></g><!--entity AppointmentId--><g id="elem_AppointmentId"><rect fill="#FFFACD" height="41.2188" rx="2.5" ry="2.5" style="stroke:#8B4513;stroke-width:0.5;" width="117" x="1330.5" y="560.6094"/><text fill="#000000" font-family="sans-serif" font-size="14" font-style="italic" lengthAdjust="spacing" textLength="97" x="1340.5" y="578.1426">&#171;Value Object&#187;</text><text fill="#000000" font-family="sans-serif" font-size="14" lengthAdjust="spacing" textLength="90" x="1344" y="595.752">AppointmentId</text></g><g id="elem_GMN13"><path d="M6,111.6094 L6,137.9609 L484,137.9609 L484,121.6094 L474,111.6094 L6,111.6094 " fill="#FEFFDD" style="stroke:#181818;stroke-width:0.5;"/><path d="M474,111.6094 L474,121.6094 L484,121.6094 L474,111.6094 " fill="#FEFFDD" style="stroke:#181818;stroke-width:1.0;"/><text fill="#000000" font-family="sans-serif" font-size="13" lengthAdjust="spacing" textLength="457" x="12" y="130.1045">This logic is abstracted by the backend and is implemented in the IAM process</text></g><!--reverse link Username to User--><g id="link_Username_User"><path codeLine="55" d="M363.1862,329.8164 C378.0862,344.0664 394.94,359.3194 415,374.6094 C455.83,405.7094 507.23,436.7894 536.28,453.6794 " fill="none" id="Username-backto-User" style="stroke:#A52A2A;stroke-width:1.0;"/><polygon fill="#A52A2A" points="358.85,325.6694,362.5896,334.7807,362.4635,329.1252,368.1189,328.9991,358.85,325.6694" style="stroke:#A52A2A;stroke-width:1.0;"/><text fill="#000000" font-family="sans-serif" font-size="13" lengthAdjust="spacing" textLength="7" x="356.4484" y="347.2157">1</text><text fill="#000000" font-family="sans-serif" font-size="13" lengthAdjust="spacing" textLength="7" x="521.5779" y="444.814">1</text></g><!--reverse link Email to User--><g id="link_Email_User"><path codeLine="56" d="M501.6806,331.314 C513.1706,358.434 531.67,402.0994 545.42,434.5594 " fill="none" id="Email-backto-User" style="stroke:#A52A2A;stroke-width:1.0;"/><polygon fill="#A52A2A" points="499.34,325.7894,499.1679,335.6367,501.2905,330.3932,506.534,332.5159,499.34,325.7894" style="stroke:#A52A2A;stroke-width:1.0;"/><text fill="#000000" font-family="sans-serif" font-size="13" lengthAdjust="spacing" textLength="7" x="493.7012" y="347.3694">1</text><text fill="#000000" font-family="sans-serif" font-size="13" lengthAdjust="spacing" textLength="7" x="534.8973" y="423.6451">1</text></g><!--reverse link Role to User--><g id="link_Role_User"><path codeLine="57" d="M596.1698,380.1514 C587.2298,400.9414 580.2,417.2894 572.81,434.4794 " fill="none" id="Role-backto-User" style="stroke:#A52A2A;stroke-width:1.0;"/><polygon fill="#A52A2A" points="598.54,374.6394,591.31,381.3272,596.5648,379.2327,598.6593,384.4875,598.54,374.6394" style="stroke:#A52A2A;stroke-width:1.0;"/><text fill="#000000" font-family="sans-serif" font-size="13" lengthAdjust="spacing" textLength="7" x="588.2955" y="395.796">1</text><text fill="#000000" font-family="sans-serif" font-size="13" lengthAdjust="spacing" textLength="7" x="567.9364" y="423.5486">1</text></g><!--link GMN13 to User Aggregate--><g id="link_GMN13_User Aggregate"><path d="M245,137.8794 C245,147.8044 245,162.9119 245,180.05 C245,182.1923 245,184.3663 245,186.5658 C245,187.6656 245,188.7718 245,189.8836 C245,190.4395 245,190.9968 245,191.5554 " fill="none" id="GMN13-User Aggregate" style="stroke:#A52A2A;stroke-width:1.0;stroke-dasharray:7.0,7.0;"/></g><!--link AppointmentHistory to AppointmentId--><g id="link_AppointmentHistory_AppointmentId"><path codeLine="93" d="M1389,488.2894 C1389,508.5394 1389,533.9294 1389,554.2494 " fill="none" id="AppointmentHistory-to-AppointmentId" style="stroke:#A52A2A;stroke-width:1.0;"/><polygon fill="#A52A2A" points="1389,560.2494,1393,551.2494,1389,555.2494,1385,551.2494,1389,560.2494" style="stroke:#A52A2A;stroke-width:1.0;"/><text fill="#000000" font-family="sans-serif" font-size="13" lengthAdjust="spacing" textLength="7" x="1381.0156" y="509.8694">1</text><text fill="#000000" font-family="sans-serif" font-size="13" lengthAdjust="spacing" textLength="5" x="1383.2969" y="549.6463">*</text></g><!--reverse link PatientFirstName to Patient--><g id="link_PatientFirstName_Patient"><path codeLine="97" d="M930.7414,148.1216 C996.4614,184.4416 1130.34,258.4294 1187.59,290.0694 " fill="none" id="PatientFirstName-backto-Patient" style="stroke:#A52A2A;stroke-width:1.0;"/><polygon fill="#A52A2A" points="925.49,145.2194,931.4323,153.0736,929.8662,147.6379,935.3019,146.0717,925.49,145.2194" style="stroke:#A52A2A;stroke-width:1.0;"/><text fill="#000000" font-family="sans-serif" font-size="13" lengthAdjust="spacing" textLength="7" x="927.4872" y="166.7797">1</text><text fill="#000000" font-family="sans-serif" font-size="13" lengthAdjust="spacing" textLength="7" x="1172.8204" y="281.447">1</text></g><!--reverse link PatientLastName to Patient--><g id="link_PatientLastName_Patient"><path codeLine="98" d="M1074.735,149.857 C1103.215,181.627 1155.24,239.6694 1187.84,276.0394 " fill="none" id="PatientLastName-backto-Patient" style="stroke:#A52A2A;stroke-width:1.0;"/><polygon fill="#A52A2A" points="1070.73,145.3894,1073.7591,154.7609,1074.0675,149.1124,1079.7159,149.4209,1070.73,145.3894" style="stroke:#A52A2A;stroke-width:1.0;"/><text fill="#000000" font-family="sans-serif" font-size="13" lengthAdjust="spacing" textLength="7" x="1067.7322" y="166.9975">1</text><text fill="#000000" font-family="sans-serif" font-size="13" lengthAdjust="spacing" textLength="7" x="1173.1376" y="263.6465">1</text></g><!--reverse link PatientFullName to Patient--><g id="link_PatientFullName_Patient"><path codeLine="99" d="M1213,151.3894 C1213,181.9794 1213,235.0694 1213,271.8794 " fill="none" id="PatientFullName-backto-Patient" style="stroke:#A52A2A;stroke-width:1.0;"/><polygon fill="#A52A2A" points="1213,145.3894,1209,154.3894,1213,150.3894,1217,154.3894,1213,145.3894" style="stroke:#A52A2A;stroke-width:1.0;"/><text fill="#000000" font-family="sans-serif" font-size="13" lengthAdjust="spacing" textLength="7" x="1205.0156" y="166.9975">1</text><text fill="#000000" font-family="sans-serif" font-size="13" lengthAdjust="spacing" textLength="7" x="1205.3109" y="261.3119">1</text></g><!--reverse link DateOfBirth to Patient--><g id="link_DateOfBirth_Patient"><path codeLine="100" d="M1346.8863,149.9199 C1319.5363,181.4199 1269.89,238.5994 1238.19,275.0994 " fill="none" id="DateOfBirth-backto-Patient" style="stroke:#A52A2A;stroke-width:1.0;"/><polygon fill="#A52A2A" points="1350.82,145.3894,1341.8991,149.5628,1347.5419,149.1649,1347.9398,154.8077,1350.82,145.3894" style="stroke:#A52A2A;stroke-width:1.0;"/><text fill="#000000" font-family="sans-serif" font-size="13" lengthAdjust="spacing" textLength="7" x="1338.0037" y="166.9975">1</text><text fill="#000000" font-family="sans-serif" font-size="13" lengthAdjust="spacing" textLength="7" x="1245.9004" y="262.4538">1</text></g><!--reverse link Gender to Patient--><g id="link_Gender_Patient"><path codeLine="101" d="M1456.9544,159.1625 C1450.9744,163.1925 1449.85,163.8694 1444,167.6094 C1370.58,214.4994 1281.17,265.7194 1238.3,289.9194 " fill="none" id="Gender-backto-Patient" style="stroke:#A52A2A;stroke-width:1.0;"/><polygon fill="#A52A2A" points="1461.93,155.8094,1452.2312,157.522,1457.7837,158.6036,1456.702,164.1561,1461.93,155.8094" style="stroke:#A52A2A;stroke-width:1.0;"/><text fill="#000000" font-family="sans-serif" font-size="13" lengthAdjust="spacing" textLength="7" x="1446.9258" y="157.3289">1</text><text fill="#000000" font-family="sans-serif" font-size="13" lengthAdjust="spacing" textLength="7" x="1246.04" y="281.2567">1</text></g><!--link Patient to MedicalRecordNumber--><g id="link_Patient_MedicalRecordNumber"><path codeLine="102" d="M1187.84,316.5194 C1124.03,342.9094 960.6145,410.5161 877.7345,444.7961 " fill="none" id="Patient-to-MedicalRecordNumber" style="stroke:#A52A2A;stroke-width:1.0;"/><polygon fill="#A52A2A" points="872.19,447.0894,882.0355,447.3458,876.8104,445.1783,878.9779,439.9532,872.19,447.0894" style="stroke:#A52A2A;stroke-width:1.0;"/><text fill="#000000" font-family="sans-serif" font-size="13" lengthAdjust="spacing" textLength="7" x="1173.1376" y="335.3055">1</text><text fill="#000000" font-family="sans-serif" font-size="13" lengthAdjust="spacing" textLength="7" x="878.0239" y="436.2262">1</text></g><!--link Patient to AllergiesAndConditions--><g id="link_Patient_AllergiesAndConditions"><path codeLine="103" d="M1187.65,327.7594 C1150.86,359.1594 1087.8033,412.9937 1052.4633,443.1637 " fill="none" id="Patient-to-AllergiesAndConditions" style="stroke:#A52A2A;stroke-width:1.0;"/><polygon fill="#A52A2A" points="1047.9,447.0594,1057.3421,444.258,1051.7027,443.813,1052.1478,438.1736,1047.9,447.0594" style="stroke:#A52A2A;stroke-width:1.0;"/><text fill="#000000" font-family="sans-serif" font-size="13" lengthAdjust="spacing" textLength="7" x="1172.8966" y="349.5662">1</text><text fill="#000000" font-family="sans-serif" font-size="13" lengthAdjust="spacing" textLength="5" x="1048.8925" y="436.1874">*</text></g><!--link Patient to EmergencyContact--><g id="link_Patient_EmergencyContact"><path codeLine="104" d="M1213,338.1994 C1213,370.5894 1213,413.5694 1213,440.7194 " fill="none" id="Patient-to-EmergencyContact" style="stroke:#A52A2A;stroke-width:1.0;"/><polygon fill="#A52A2A" points="1213,446.7194,1217,437.7194,1213,441.7194,1209,437.7194,1213,446.7194" style="stroke:#A52A2A;stroke-width:1.0;"/><text fill="#000000" font-family="sans-serif" font-size="13" lengthAdjust="spacing" textLength="7" x="1205.3547" y="359.3216">1</text><text fill="#000000" font-family="sans-serif" font-size="13" lengthAdjust="spacing" textLength="7" x="1205.0156" y="436.1079">1</text></g><!--link Patient to AppointmentHistory--><g id="link_Patient_AppointmentHistory"><path codeLine="105" d="M1238.22,329.1094 C1272.91,360.7394 1330.3371,413.106 1362.9971,442.896 " fill="none" id="Patient-to-AppointmentHistory" style="stroke:#A52A2A;stroke-width:1.0;"/><polygon fill="#A52A2A" points="1367.43,446.9394,1363.4762,437.919,1363.7359,443.5699,1358.085,443.8296,1367.43,446.9394" style="stroke:#A52A2A;stroke-width:1.0;"/><text fill="#000000" font-family="sans-serif" font-size="13" lengthAdjust="spacing" textLength="7" x="1245.9385" y="330.979">1</text><text fill="#000000" font-family="sans-serif" font-size="13" lengthAdjust="spacing" textLength="7" x="1353.3791" y="436.3897">1</text></g><!--link Patient to PatientEmail--><g id="link_Patient_PatientEmail"><path codeLine="106" d="M1238.07,317.9094 C1296.21,345.2794 1435.2714,410.7238 1506.9214,444.4538 " fill="none" id="Patient-to-PatientEmail" style="stroke:#A52A2A;stroke-width:1.0;"/><polygon fill="#A52A2A" points="1512.35,447.0094,1505.9109,439.557,1507.8262,444.8798,1502.5035,446.7951,1512.35,447.0094" style="stroke:#A52A2A;stroke-width:1.0;"/><text fill="#000000" font-family="sans-serif" font-size="13" lengthAdjust="spacing" textLength="7" x="1246.1053" y="316.8325">1</text><text fill="#000000" font-family="sans-serif" font-size="13" lengthAdjust="spacing" textLength="7" x="1492.0872" y="436.1227">1</text></g><!--link Patient to PhoneNumber--><g id="link_Patient_PhoneNumber"><path codeLine="107" d="M1238.2,312.9294 C1303.57,330.8194 1483.69,381.4194 1630,434.6094 C1640.36,438.3794 1645.8226,440.459 1656.1526,444.769 " fill="none" id="Patient-to-PhoneNumber" style="stroke:#A52A2A;stroke-width:1.0;"/><polygon fill="#A52A2A" points="1661.69,447.0794,1654.9242,439.9223,1657.0755,445.1541,1651.8437,447.3054,1661.69,447.0794" style="stroke:#A52A2A;stroke-width:1.0;"/><text fill="#000000" font-family="sans-serif" font-size="13" lengthAdjust="spacing" textLength="7" x="1245.9131" y="310.4507">1</text><text fill="#000000" font-family="sans-serif" font-size="13" lengthAdjust="spacing" textLength="7" x="1640.6458" y="436.2133">1</text></g><!--reverse link Patient to User--><g id="link_Patient_User"><path codeLine="113" d="M1181.933,313.7299 C1077.003,339.4899 681.87,436.4594 581.75,461.0294 " fill="none" id="Patient-backto-User" style="stroke:#A52A2A;stroke-width:1.0;"/><polygon fill="#A52A2A" points="1187.76,312.2994,1178.0659,310.5605,1182.9042,313.4915,1179.9732,318.3298,1187.76,312.2994" style="stroke:#A52A2A;stroke-width:1.0;"/><text fill="#000000" font-family="sans-serif" font-size="13" lengthAdjust="spacing" textLength="20" x="1160.0513" y="309.678">0..*</text><text fill="#000000" font-family="sans-serif" font-size="13" lengthAdjust="spacing" textLength="7" x="589.4609" y="454.3231">1</text></g><!--SRC=[rPHTRzem58RlyoiiRYfLQjNTJWWfjEk61BHgsMudOnyIhuvFP3lgsDJ_lXCd8O4afRT30iMS9-VxTQeaCA6iq12bvNC6FaNf8gurllxCr6zbaYYwS2_AvDpoZ6LeKAGMCs0xhXrqRJaNBpo1Px_Nm2m8pqsYZmYNSeclvBF_ibO6_3u7XfPIe9XiepozxSjVTeSPLuQjK8AEegXzJMZkNEozLTl2mqAWULP_WDtq6FOtOlHPgXqiATGShGHxYnejEPS9sBaku1YXSXABXP4L5Zy-BXUtyMRni0xSgNq9r9pRLErsQ08GMuklbMrEJzMVtS3FN4eDbUsjc_589xirSIl_Wv9eZ76IM4Yu1nT5TLriyjs1RIqJgYHu0aFZthDWdKwhqsmsdLf4FvlLzRvLREX0IHfEopYT_k1KBNlO_g9spMOjyeKsH_VjTRmYOq-e8KGhCh3SApI7KA5acIbpEDsXy6WFntLX7HnE6n2fKKBnbdyaXrH7D_4BzWGwn76foXrJnfNIyobKXVEcBHKU_fjych2huceM7fgYHyoXu15RMIjDXJ8nw2acvWnt_N5yPfjKEQOnKOBH0zywRxdm8Dbs7pBTqYJ1ICRfIu3ASWqP5Ke4wRGa5l6AvHO5E1fyE_cw8UF3Ru0FpR-6xvLrVlt-7jJead-Kl2-qFaFUKVuFkxcYAskO2WlsbHfLB_JmYgsuRfVe7hBcsArq1L89hfz0aDhMHROD7iSIYxK6coXmSIbb8rLOjtTLGZmOiIVQqwJVyvtdg8mlf_rDELB3VXY- -31TooAkRd5qh4bYONPeiz2mtdX6TDrYAHeOQrGlOYTDLkSvMF52ZZexLlMOmu5-18MM0hsSd8IApjuOZLhQIwDpwnnh_rGhPyb6AkTTraeP1pj26OSgdVJjjNb00SDisSR1_HzrVRhzes1_UgDeTqt7eNP9mwryCkaeEhd2RwwlBm-kety0]--></g></svg>