<?xml version="1.0" encoding="us-ascii" standalone="no"?><svg xmlns="http://www.w3.org/2000/svg" xmlns:xlink="http://www.w3.org/1999/xlink" contentStyleType="text/css" height="498px" preserveAspectRatio="none" style="width:937px;height:498px;background:#FFFFFF;" version="1.1" viewBox="0 0 937 498" width="937px" zoomAndPan="magnify"><defs/><g><text fill="#000000" font-family="sans-serif" font-size="14" font-weight="bold" lengthAdjust="spacing" textLength="419" x="258.25" y="29.5332">US 5.1.23 - As an Admin, I want to list/search operation types</text><rect fill="#FFFFFF" height="276.5156" style="stroke:#181818;stroke-width:1.0;" width="10" x="22.5" y="131.2188"/><rect fill="#FFFFFF" height="245.1641" style="stroke:#181818;stroke-width:1.0;" width="10" x="237.5" y="153.5703"/><rect fill="#FFFFFF" height="168.1094" style="stroke:#181818;stroke-width:1.0;" width="10" x="437.5" y="200.2734"/><rect fill="#FFFFFF" height="91.0547" style="stroke:#181818;stroke-width:1.0;" width="10" x="655.5" y="246.9766"/><rect fill="#FFFFFF" height="30.3516" style="stroke:#181818;stroke-width:1.0;" width="10" x="836" y="277.3281"/><line style="stroke:#181818;stroke-width:0.5;stroke-dasharray:5.0,5.0;" x1="27" x2="27" y1="121.2188" y2="416.7344"/><line style="stroke:#181818;stroke-width:0.5;stroke-dasharray:5.0,5.0;" x1="242.5" x2="242.5" y1="121.2188" y2="416.7344"/><line style="stroke:#181818;stroke-width:0.5;stroke-dasharray:5.0,5.0;" x1="442" x2="442" y1="121.2188" y2="416.7344"/><line style="stroke:#181818;stroke-width:0.5;stroke-dasharray:5.0,5.0;" x1="660.5" x2="660.5" y1="121.2188" y2="416.7344"/><line style="stroke:#181818;stroke-width:0.5;stroke-dasharray:5.0,5.0;" x1="840.5" x2="840.5" y1="121.2188" y2="416.7344"/><text fill="#000000" font-family="sans-serif" font-size="14" lengthAdjust="spacing" textLength="39" x="5" y="118.1426">Admin</text><ellipse cx="27.5" cy="52.1094" fill="#E2E2F0" rx="8" ry="8" style="stroke:#181818;stroke-width:0.5;"/><path d="M27.5,60.1094 L27.5,87.1094 M14.5,68.1094 L40.5,68.1094 M27.5,87.1094 L14.5,102.1094 M27.5,87.1094 L40.5,102.1094 " fill="none" style="stroke:#181818;stroke-width:0.5;"/><text fill="#000000" font-family="sans-serif" font-size="14" lengthAdjust="spacing" textLength="39" x="5" y="430.2676">Admin</text><ellipse cx="27.5" cy="441.8438" fill="#E2E2F0" rx="8" ry="8" style="stroke:#181818;stroke-width:0.5;"/><path d="M27.5,449.8438 L27.5,476.8438 M14.5,457.8438 L40.5,457.8438 M27.5,476.8438 L14.5,491.8438 M27.5,476.8438 L40.5,491.8438 " fill="none" style="stroke:#181818;stroke-width:0.5;"/><rect fill="#E2E2F0" height="31.6094" rx="2.5" ry="2.5" style="stroke:#181818;stroke-width:0.5;" width="52" x="216.5" y="88.6094"/><text fill="#000000" font-family="sans-serif" font-size="14" lengthAdjust="spacing" textLength="38" x="223.5" y="110.1426">Route</text><rect fill="#E2E2F0" height="31.6094" rx="2.5" ry="2.5" style="stroke:#181818;stroke-width:0.5;" width="52" x="216.5" y="415.7344"/><text fill="#000000" font-family="sans-serif" font-size="14" lengthAdjust="spacing" textLength="38" x="223.5" y="437.2676">Route</text><rect fill="#E2E2F0" height="31.6094" rx="2.5" ry="2.5" style="stroke:#181818;stroke-width:0.5;" width="175" x="355" y="88.6094"/><text fill="#000000" font-family="sans-serif" font-size="14" lengthAdjust="spacing" textLength="161" x="362" y="110.1426">:OperationTypeController</text><rect fill="#E2E2F0" height="31.6094" rx="2.5" ry="2.5" style="stroke:#181818;stroke-width:0.5;" width="175" x="355" y="415.7344"/><text fill="#000000" font-family="sans-serif" font-size="14" lengthAdjust="spacing" textLength="161" x="362" y="437.2676">:OperationTypeController</text><rect fill="#E2E2F0" height="31.6094" rx="2.5" ry="2.5" style="stroke:#181818;stroke-width:0.5;" width="160" x="580.5" y="88.6094"/><text fill="#000000" font-family="sans-serif" font-size="14" lengthAdjust="spacing" textLength="146" x="587.5" y="110.1426">:OperationTypeService</text><rect fill="#E2E2F0" height="31.6094" rx="2.5" ry="2.5" style="stroke:#181818;stroke-width:0.5;" width="160" x="580.5" y="415.7344"/><text fill="#000000" font-family="sans-serif" font-size="14" lengthAdjust="spacing" textLength="146" x="587.5" y="437.2676">:OperationTypeService</text><rect fill="#E2E2F0" height="31.6094" rx="2.5" ry="2.5" style="stroke:#181818;stroke-width:0.5;" width="181" x="750.5" y="88.6094"/><text fill="#000000" font-family="sans-serif" font-size="14" lengthAdjust="spacing" textLength="167" x="757.5" y="110.1426">:OperationTypeRepository</text><rect fill="#E2E2F0" height="31.6094" rx="2.5" ry="2.5" style="stroke:#181818;stroke-width:0.5;" width="181" x="750.5" y="415.7344"/><text fill="#000000" font-family="sans-serif" font-size="14" lengthAdjust="spacing" textLength="167" x="757.5" y="437.2676">:OperationTypeRepository</text><rect fill="#FFFFFF" height="276.5156" style="stroke:#181818;stroke-width:1.0;" width="10" x="22.5" y="131.2188"/><rect fill="#FFFFFF" height="245.1641" style="stroke:#181818;stroke-width:1.0;" width="10" x="237.5" y="153.5703"/><rect fill="#FFFFFF" height="168.1094" style="stroke:#181818;stroke-width:1.0;" width="10" x="437.5" y="200.2734"/><rect fill="#FFFFFF" height="91.0547" style="stroke:#181818;stroke-width:1.0;" width="10" x="655.5" y="246.9766"/><rect fill="#FFFFFF" height="30.3516" style="stroke:#181818;stroke-width:1.0;" width="10" x="836" y="277.3281"/><polygon fill="#A52A2A" points="225.5,149.5703,235.5,153.5703,225.5,157.5703,229.5,153.5703" style="stroke:#A52A2A;stroke-width:1.0;"/><line style="stroke:#A52A2A;stroke-width:1.0;" x1="32.5" x2="231.5" y1="153.5703" y2="153.5703"/><text fill="#000000" font-family="sans-serif" font-size="13" lengthAdjust="spacing" textLength="186" x="39.5" y="148.7139">GET /api/OperationType/Filtered</text><polygon fill="#A52A2A" points="425.5,196.2734,435.5,200.2734,425.5,204.2734,429.5,200.2734" style="stroke:#A52A2A;stroke-width:1.0;"/><line style="stroke:#A52A2A;stroke-width:1.0;" x1="247.5" x2="431.5" y1="200.2734" y2="200.2734"/><text fill="#000000" font-family="sans-serif" font-size="13" lengthAdjust="spacing" textLength="155" x="254.5" y="179.0654">GetFilteredOperationTypes</text><text fill="#000000" font-family="sans-serif" font-size="13" lengthAdjust="spacing" textLength="171" x="254.5" y="195.417">(name, specialization, status)</text><polygon fill="#A52A2A" points="643.5,242.9766,653.5,246.9766,643.5,250.9766,647.5,246.9766" style="stroke:#A52A2A;stroke-width:1.0;"/><line style="stroke:#A52A2A;stroke-width:1.0;" x1="447.5" x2="649.5" y1="246.9766" y2="246.9766"/><text fill="#000000" font-family="sans-serif" font-size="13" lengthAdjust="spacing" textLength="189" x="454.5" y="225.7686">getFilteredOperationTypesAsync</text><text fill="#000000" font-family="sans-serif" font-size="13" lengthAdjust="spacing" textLength="171" x="454.5" y="242.1201">(name, specialization, status)</text><polygon fill="#A52A2A" points="824,273.3281,834,277.3281,824,281.3281,828,277.3281" style="stroke:#A52A2A;stroke-width:1.0;"/><line style="stroke:#A52A2A;stroke-width:1.0;" x1="665.5" x2="830" y1="277.3281" y2="277.3281"/><text fill="#000000" font-family="sans-serif" font-size="13" lengthAdjust="spacing" textLength="78" x="672.5" y="272.4717">getAllAsync()</text><polygon fill="#A52A2A" points="676.5,303.6797,666.5,307.6797,676.5,311.6797,672.5,307.6797" style="stroke:#A52A2A;stroke-width:1.0;"/><line style="stroke:#A52A2A;stroke-width:1.0;stroke-dasharray:2.0,2.0;" x1="670.5" x2="840" y1="307.6797" y2="307.6797"/><text fill="#000000" font-family="sans-serif" font-size="13" lengthAdjust="spacing" textLength="121" x="682.5" y="302.8232">List&lt;OperationType&gt;</text><polygon fill="#A52A2A" points="458.5,334.0313,448.5,338.0313,458.5,342.0313,454.5,338.0313" style="stroke:#A52A2A;stroke-width:1.0;"/><line style="stroke:#A52A2A;stroke-width:1.0;stroke-dasharray:2.0,2.0;" x1="452.5" x2="659.5" y1="338.0313" y2="338.0313"/><text fill="#000000" font-family="sans-serif" font-size="13" lengthAdjust="spacing" textLength="141" x="464.5" y="333.1748">List&lt;OperationTypeDto&gt;</text><polygon fill="#A52A2A" points="258.5,364.3828,248.5,368.3828,258.5,372.3828,254.5,368.3828" style="stroke:#A52A2A;stroke-width:1.0;"/><line style="stroke:#A52A2A;stroke-width:1.0;stroke-dasharray:2.0,2.0;" x1="252.5" x2="441.5" y1="368.3828" y2="368.3828"/><text fill="#000000" font-family="sans-serif" font-size="13" lengthAdjust="spacing" textLength="141" x="264.5" y="363.5264">List&lt;OperationTypeDto&gt;</text><polygon fill="#A52A2A" points="43.5,394.7344,33.5,398.7344,43.5,402.7344,39.5,398.7344" style="stroke:#A52A2A;stroke-width:1.0;"/><line style="stroke:#A52A2A;stroke-width:1.0;stroke-dasharray:2.0,2.0;" x1="37.5" x2="241.5" y1="398.7344" y2="398.7344"/><text fill="#000000" font-family="sans-serif" font-size="13" lengthAdjust="spacing" textLength="141" x="49.5" y="393.8779">List&lt;OperationTypeDto&gt;</text><!--SRC=[rLHDRzim3BthLn0vTK3Jx0Ex14C19zs60CPQrEbj5qvYNA6AP4XCYtJOVvyY9R7SRaLtd2-YJFAHxpt3hDaGt3JmyUpTsViFC8Og05ger5hRKrZ00re6Tc1qu4aWzF8MN4SUMJiBlEqe217kjEtGungamH0gPgz_R9WMqjb6FnAyVLO3FmN4fzOhghMbcVEA_DmPv-72gPRyp6neM8BohlLkOrKkgwwkwiMyMYuklwMwf_cQrixER_LgvMmggBnt3patYr5-MGvkK2b3EVUhtBYBqDXImziebYV9Q5j30qxerNz02IN7bwFaxWWmP9-5Y2HOIztjp1vTksXTogPec9nU7inVHk_dph9tnf1FzVtrfQQ6_BsMUS8-VgdycZeNTDnxctSwNaNYe- -HwS0Z7J0-pvjFuUld9KomqvC1ukIBDaoUL06GgOfqx01wAX65-D0nm0dVxOd5DPr2w4XgDFenvUATaJVXJO5VI2FwU3TfBy4Ksh-DgSBMod-OTH1Lx8Cao56sDAWo9g6Ub7sbj7qCutB9Elu7FWtMEnT2qHynZkEVwFaSuuBT4EP8eTIgz_KL2ANWUrTZV_f0NjMVFuZV]--></g></svg>