<?xml version="1.0" encoding="us-ascii" standalone="no"?><svg xmlns="http://www.w3.org/2000/svg" xmlns:xlink="http://www.w3.org/1999/xlink" contentStyleType="text/css" height="626px" preserveAspectRatio="none" style="width:971px;height:626px;background:#FFFFFF;" version="1.1" viewBox="0 0 971 626" width="971px" zoomAndPan="magnify"><defs/><g><text fill="#000000" font-family="sans-serif" font-size="14" font-weight="bold" lengthAdjust="spacing" textLength="868" x="50.75" y="29.5332">US 5.1.8 - As an Admin, I want to create a new patient profile, so that I can register their personal details and medical history.</text><rect fill="#FFFFFF" height="395.4766" style="stroke:#181818;stroke-width:1.0;" width="10" x="22.5" y="131.2188"/><rect fill="#FFFFFF" height="373.125" style="stroke:#181818;stroke-width:1.0;" width="10" x="198.5" y="153.5703"/><rect fill="#FFFFFF" height="312.4219" style="stroke:#181818;stroke-width:1.0;" width="10" x="326.5" y="183.9219"/><rect fill="#FFFFFF" height="251.7188" style="stroke:#181818;stroke-width:1.0;" width="10" x="491.5" y="214.2734"/><rect fill="#FFFFFF" height="65.7031" style="stroke:#181818;stroke-width:1.0;" width="10" x="496.5" y="252.625"/><rect fill="#FFFFFF" height="32.6094" style="stroke:#181818;stroke-width:1.0;" width="10" x="795.5" y="358.6797"/><rect fill="#FFFFFF" height="30.3516" style="stroke:#181818;stroke-width:1.0;" width="10" x="897.5" y="287.9766"/><rect fill="#FFFFFF" height="14" style="stroke:#181818;stroke-width:1.0;" width="10" x="897.5" y="421.6406"/><line style="stroke:#181818;stroke-width:0.5;stroke-dasharray:5.0,5.0;" x1="27" x2="27" y1="121.2188" y2="544.6953"/><line style="stroke:#181818;stroke-width:0.5;stroke-dasharray:5.0,5.0;" x1="203.5" x2="203.5" y1="121.2188" y2="544.6953"/><line style="stroke:#181818;stroke-width:0.5;stroke-dasharray:5.0,5.0;" x1="331.5" x2="331.5" y1="121.2188" y2="544.6953"/><line style="stroke:#181818;stroke-width:0.5;stroke-dasharray:5.0,5.0;" x1="496" x2="496" y1="121.2188" y2="544.6953"/><line style="stroke:#181818;stroke-width:0.5;stroke-dasharray:5.0,5.0;" x1="800.5" x2="800.5" y1="357.6328" y2="544.6953"/><line style="stroke:#181818;stroke-width:0.5;stroke-dasharray:5.0,5.0;" x1="902.5" x2="902.5" y1="121.2188" y2="544.6953"/><text fill="#000000" font-family="sans-serif" font-size="14" lengthAdjust="spacing" textLength="39" x="5" y="118.1426">Admin</text><ellipse cx="27.5" cy="52.1094" fill="#E2E2F0" rx="8" ry="8" style="stroke:#181818;stroke-width:0.5;"/><path d="M27.5,60.1094 L27.5,87.1094 M14.5,68.1094 L40.5,68.1094 M27.5,87.1094 L14.5,102.1094 M27.5,87.1094 L40.5,102.1094 " fill="none" style="stroke:#181818;stroke-width:0.5;"/><text fill="#000000" font-family="sans-serif" font-size="14" lengthAdjust="spacing" textLength="39" x="5" y="558.2285">Admin</text><ellipse cx="27.5" cy="569.8047" fill="#E2E2F0" rx="8" ry="8" style="stroke:#181818;stroke-width:0.5;"/><path d="M27.5,577.8047 L27.5,604.8047 M14.5,585.8047 L40.5,585.8047 M27.5,604.8047 L14.5,619.8047 M27.5,604.8047 L40.5,619.8047 " fill="none" style="stroke:#181818;stroke-width:0.5;"/><rect fill="#E2E2F0" height="31.6094" rx="2.5" ry="2.5" style="stroke:#181818;stroke-width:0.5;" width="52" x="177.5" y="88.6094"/><text fill="#000000" font-family="sans-serif" font-size="14" lengthAdjust="spacing" textLength="38" x="184.5" y="110.1426">Route</text><rect fill="#E2E2F0" height="31.6094" rx="2.5" ry="2.5" style="stroke:#181818;stroke-width:0.5;" width="52" x="177.5" y="543.6953"/><text fill="#000000" font-family="sans-serif" font-size="14" lengthAdjust="spacing" textLength="38" x="184.5" y="565.2285">Route</text><rect fill="#E2E2F0" height="31.6094" rx="2.5" ry="2.5" style="stroke:#181818;stroke-width:0.5;" width="120" x="271.5" y="88.6094"/><text fill="#000000" font-family="sans-serif" font-size="14" lengthAdjust="spacing" textLength="106" x="278.5" y="110.1426">PatientController</text><rect fill="#E2E2F0" height="31.6094" rx="2.5" ry="2.5" style="stroke:#181818;stroke-width:0.5;" width="120" x="271.5" y="543.6953"/><text fill="#000000" font-family="sans-serif" font-size="14" lengthAdjust="spacing" textLength="106" x="278.5" y="565.2285">PatientController</text><rect fill="#E2E2F0" height="31.6094" rx="2.5" ry="2.5" style="stroke:#181818;stroke-width:0.5;" width="105" x="444" y="88.6094"/><text fill="#000000" font-family="sans-serif" font-size="14" lengthAdjust="spacing" textLength="91" x="451" y="110.1426">PatientService</text><rect fill="#E2E2F0" height="31.6094" rx="2.5" ry="2.5" style="stroke:#181818;stroke-width:0.5;" width="105" x="444" y="543.6953"/><text fill="#000000" font-family="sans-serif" font-size="14" lengthAdjust="spacing" textLength="91" x="451" y="565.2285">PatientService</text><rect fill="#E2E2F0" height="31.6094" rx="2.5" ry="2.5" style="stroke:#181818;stroke-width:0.5;" width="58" x="771.5" y="543.6953"/><text fill="#000000" font-family="sans-serif" font-size="14" lengthAdjust="spacing" textLength="44" x="778.5" y="565.2285">Patient</text><rect fill="#E2E2F0" height="31.6094" rx="2.5" ry="2.5" style="stroke:#181818;stroke-width:0.5;" width="126" x="839.5" y="88.6094"/><text fill="#000000" font-family="sans-serif" font-size="14" lengthAdjust="spacing" textLength="112" x="846.5" y="110.1426">PatientRepository</text><rect fill="#E2E2F0" height="31.6094" rx="2.5" ry="2.5" style="stroke:#181818;stroke-width:0.5;" width="126" x="839.5" y="543.6953"/><text fill="#000000" font-family="sans-serif" font-size="14" lengthAdjust="spacing" textLength="112" x="846.5" y="565.2285">PatientRepository</text><rect fill="#FFFFFF" height="395.4766" style="stroke:#181818;stroke-width:1.0;" width="10" x="22.5" y="131.2188"/><rect fill="#FFFFFF" height="373.125" style="stroke:#181818;stroke-width:1.0;" width="10" x="198.5" y="153.5703"/><rect fill="#FFFFFF" height="312.4219" style="stroke:#181818;stroke-width:1.0;" width="10" x="326.5" y="183.9219"/><rect fill="#FFFFFF" height="251.7188" style="stroke:#181818;stroke-width:1.0;" width="10" x="491.5" y="214.2734"/><rect fill="#FFFFFF" height="65.7031" style="stroke:#181818;stroke-width:1.0;" width="10" x="496.5" y="252.625"/><rect fill="#FFFFFF" height="32.6094" style="stroke:#181818;stroke-width:1.0;" width="10" x="795.5" y="358.6797"/><rect fill="#FFFFFF" height="30.3516" style="stroke:#181818;stroke-width:1.0;" width="10" x="897.5" y="287.9766"/><rect fill="#FFFFFF" height="14" style="stroke:#181818;stroke-width:1.0;" width="10" x="897.5" y="421.6406"/><polygon fill="#A52A2A" points="186.5,149.5703,196.5,153.5703,186.5,157.5703,190.5,153.5703" style="stroke:#A52A2A;stroke-width:1.0;"/><line style="stroke:#A52A2A;stroke-width:1.0;" x1="32.5" x2="192.5" y1="153.5703" y2="153.5703"/><text fill="#000000" font-family="sans-serif" font-size="13" lengthAdjust="spacing" textLength="147" x="39.5" y="148.7139">POST /api/Patient/Create</text><polygon fill="#A52A2A" points="314.5,179.9219,324.5,183.9219,314.5,187.9219,318.5,183.9219" style="stroke:#A52A2A;stroke-width:1.0;"/><line style="stroke:#A52A2A;stroke-width:1.0;" x1="208.5" x2="320.5" y1="183.9219" y2="183.9219"/><text fill="#000000" font-family="sans-serif" font-size="13" lengthAdjust="spacing" textLength="99" x="215.5" y="179.0654">CreatePatient(...)</text><polygon fill="#A52A2A" points="479.5,210.2734,489.5,214.2734,479.5,218.2734,483.5,214.2734" style="stroke:#A52A2A;stroke-width:1.0;"/><line style="stroke:#A52A2A;stroke-width:1.0;" x1="336.5" x2="485.5" y1="214.2734" y2="214.2734"/><text fill="#000000" font-family="sans-serif" font-size="13" lengthAdjust="spacing" textLength="136" x="343.5" y="209.417">CreatePatientAsync(...)</text><line style="stroke:#A52A2A;stroke-width:1.0;" x1="501.5" x2="548.5" y1="239.625" y2="239.625"/><line style="stroke:#A52A2A;stroke-width:1.0;" x1="548.5" x2="548.5" y1="239.625" y2="252.625"/><line style="stroke:#A52A2A;stroke-width:1.0;" x1="507.5" x2="548.5" y1="252.625" y2="252.625"/><polygon fill="#A52A2A" points="517.5,248.625,507.5,252.625,517.5,256.625,513.5,252.625" style="stroke:#A52A2A;stroke-width:1.0;"/><text fill="#000000" font-family="sans-serif" font-size="13" lengthAdjust="spacing" textLength="280" x="513.5" y="234.7686">ValidatePatientInformation(email, phone number)</text><polygon fill="#A52A2A" points="885.5,283.9766,895.5,287.9766,885.5,291.9766,889.5,287.9766" style="stroke:#A52A2A;stroke-width:1.0;"/><line style="stroke:#A52A2A;stroke-width:1.0;" x1="506.5" x2="891.5" y1="287.9766" y2="287.9766"/><text fill="#000000" font-family="sans-serif" font-size="13" lengthAdjust="spacing" textLength="207" x="513.5" y="283.1201">PatientExists(email, phone number)</text><polygon fill="#A52A2A" points="512.5,314.3281,502.5,318.3281,512.5,322.3281,508.5,318.3281" style="stroke:#A52A2A;stroke-width:1.0;"/><line style="stroke:#A52A2A;stroke-width:1.0;stroke-dasharray:2.0,2.0;" x1="506.5" x2="901.5" y1="318.3281" y2="318.3281"/><text fill="#000000" font-family="sans-serif" font-size="13" lengthAdjust="spacing" textLength="27" x="518.5" y="313.4717">false</text><polygon fill="#A52A2A" points="759.5,344.6797,769.5,348.6797,759.5,352.6797,763.5,348.6797" style="stroke:#A52A2A;stroke-width:1.0;"/><line style="stroke:#A52A2A;stroke-width:1.0;" x1="501.5" x2="765.5" y1="348.6797" y2="348.6797"/><text fill="#000000" font-family="sans-serif" font-size="13" lengthAdjust="spacing" textLength="88" x="508.5" y="343.8232">new Patient(...)</text><rect fill="#E2E2F0" height="31.6094" rx="2.5" ry="2.5" style="stroke:#181818;stroke-width:0.5;" width="58" x="771.5" y="326.3281"/><text fill="#000000" font-family="sans-serif" font-size="14" lengthAdjust="spacing" textLength="44" x="778.5" y="347.8613">Patient</text><polygon fill="#A52A2A" points="512.5,387.2891,502.5,391.2891,512.5,395.2891,508.5,391.2891" style="stroke:#A52A2A;stroke-width:1.0;"/><line style="stroke:#A52A2A;stroke-width:1.0;stroke-dasharray:2.0,2.0;" x1="506.5" x2="799.5" y1="391.2891" y2="391.2891"/><text fill="#000000" font-family="sans-serif" font-size="13" lengthAdjust="spacing" textLength="39" x="518.5" y="386.4326">patient</text><polygon fill="#A52A2A" points="885.5,417.6406,895.5,421.6406,885.5,425.6406,889.5,421.6406" style="stroke:#A52A2A;stroke-width:1.0;"/><line style="stroke:#A52A2A;stroke-width:1.0;" x1="501.5" x2="891.5" y1="421.6406" y2="421.6406"/><text fill="#000000" font-family="sans-serif" font-size="13" lengthAdjust="spacing" textLength="107" x="508.5" y="416.7842">AddAsync(patient)</text><polygon fill="#A52A2A" points="512.5,431.6406,502.5,435.6406,512.5,439.6406,508.5,435.6406" style="stroke:#A52A2A;stroke-width:1.0;"/><line style="stroke:#A52A2A;stroke-width:1.0;stroke-dasharray:2.0,2.0;" x1="506.5" x2="901.5" y1="435.6406" y2="435.6406"/><polygon fill="#A52A2A" points="347.5,461.9922,337.5,465.9922,347.5,469.9922,343.5,465.9922" style="stroke:#A52A2A;stroke-width:1.0;"/><line style="stroke:#A52A2A;stroke-width:1.0;stroke-dasharray:2.0,2.0;" x1="341.5" x2="495.5" y1="465.9922" y2="465.9922"/><text fill="#000000" font-family="sans-serif" font-size="13" lengthAdjust="spacing" textLength="65" x="353.5" y="461.1357">patientDTO</text><polygon fill="#A52A2A" points="219.5,492.3438,209.5,496.3438,219.5,500.3438,215.5,496.3438" style="stroke:#A52A2A;stroke-width:1.0;"/><line style="stroke:#A52A2A;stroke-width:1.0;stroke-dasharray:2.0,2.0;" x1="213.5" x2="330.5" y1="496.3438" y2="496.3438"/><text fill="#000000" font-family="sans-serif" font-size="13" lengthAdjust="spacing" textLength="65" x="225.5" y="491.4873">patientDTO</text><polygon fill="#A52A2A" points="38.5,522.6953,28.5,526.6953,38.5,530.6953,34.5,526.6953" style="stroke:#A52A2A;stroke-width:1.0;"/><line style="stroke:#A52A2A;stroke-width:1.0;stroke-dasharray:2.0,2.0;" x1="32.5" x2="202.5" y1="526.6953" y2="526.6953"/><text fill="#000000" font-family="sans-serif" font-size="13" lengthAdjust="spacing" textLength="72" x="44.5" y="521.8389">Patient Data</text><!--SRC=[rPHDZzem48Rl-HKZJjiLXFPGgU9GoOGUa5292EtT6q_0MiUERBEKLltldTXPDbcWUzvSuimyxsI-4Y-zGlXHmEVqK_e59i0SS0rCr5AFOGb7hZru0wL5xX4uQ3n2mxr4iZVML5BX69m1l-UU-9B45dVIURHaGscXGUkCvWe4UYvL6rz0ZKAMPDiJQUmfJHBtA7N3BQ-XLDmvvhsL3mUFozBeGlv6-7Z1m9y4w5h92bTIuznOWJOpobXO6B53ErS772AyVDnPSz0YOYpFLykCRPVhxu5xxLzXRNIsbrLbT02OjUOOVNCwHMF_nGKNGc7q_Urdt51eliF2dwZX5alFzKxXe2PknJieYPSqCHY55Ha1Ty2IX0hmifHDkosZZQ6n1Kyu3Prvt9tCQ6-DKcW3c6TNgGBjaonZhBouYaJVLTS66-DakruHsYH9o5u-jQjCMJEOV8qvpY1V5rkOyaPEE_Kq2olVKyHgad1hbNasWmXrahiqJJ_q15HLacS1BLwXp9rqUS4Nn1VF_4-kf7XHB7LbR4rde- -mfWzf3CtUQ0Hzg1_GteYpeSgY_jil-jJScr9gKhw1IPT3nPMZaWKEWFvZqJQrUzdz_Ipy7swrWy1pvEuVCWpMJvi94PlKaV_9yYB1Daete4wzsAulycv7yx80jy3iF75YsRcTiE2U3yXkFNeMbeJh7m00]--></g></svg>