<?xml version="1.0" encoding="us-ascii" standalone="no"?><svg xmlns="http://www.w3.org/2000/svg" xmlns:xlink="http://www.w3.org/1999/xlink" contentStyleType="text/css" height="882px" preserveAspectRatio="none" style="width:1108px;height:882px;background:#FFFFFF;" version="1.1" viewBox="0 0 1108 882" width="1108px" zoomAndPan="magnify"><defs/><g><text fill="#000000" font-family="sans-serif" font-size="14" font-weight="bold" lengthAdjust="spacing" textLength="868" x="119.25" y="29.5332">US 5.1.8 - As an Admin, I want to create a new patient profile, so that I can register their personal details and medical history.</text><rect fill="#FFFFFF" height="651.0313" style="stroke:#181818;stroke-width:1.0;" width="10" x="22.5" y="131.2188"/><rect fill="#FFFFFF" height="30.3516" style="stroke:#181818;stroke-width:1.0;" width="10" x="308.5" y="153.5703"/><rect fill="#FFFFFF" height="551.625" style="stroke:#181818;stroke-width:1.0;" width="10" x="308.5" y="230.625"/><rect fill="#FFFFFF" height="490.9219" style="stroke:#181818;stroke-width:1.0;" width="10" x="470.5" y="260.9766"/><rect fill="#FFFFFF" height="430.2188" style="stroke:#181818;stroke-width:1.0;" width="10" x="632.5" y="291.3281"/><rect fill="#FFFFFF" height="102.0547" style="stroke:#181818;stroke-width:1.0;" width="10" x="637.5" y="329.6797"/><rect fill="#FFFFFF" height="102.0547" style="stroke:#181818;stroke-width:1.0;" width="10" x="637.5" y="477.0859"/><rect fill="#FFFFFF" height="30.3516" style="stroke:#181818;stroke-width:1.0;" width="10" x="932.5" y="616.4922"/><rect fill="#FFFFFF" height="30.3516" style="stroke:#181818;stroke-width:1.0;" width="10" x="1034.5" y="365.0313"/><rect fill="#FFFFFF" height="30.3516" style="stroke:#181818;stroke-width:1.0;" width="10" x="1034.5" y="512.4375"/><rect fill="#FFFFFF" height="14" style="stroke:#181818;stroke-width:1.0;" width="10" x="1034.5" y="677.1953"/><line style="stroke:#181818;stroke-width:0.5;stroke-dasharray:5.0,5.0;" x1="27" x2="27" y1="121.2188" y2="800.25"/><line style="stroke:#181818;stroke-width:0.5;stroke-dasharray:5.0,5.0;" x1="313" x2="313" y1="121.2188" y2="800.25"/><line style="stroke:#181818;stroke-width:0.5;stroke-dasharray:5.0,5.0;" x1="475.5" x2="475.5" y1="121.2188" y2="800.25"/><line style="stroke:#181818;stroke-width:0.5;stroke-dasharray:5.0,5.0;" x1="637" x2="637" y1="121.2188" y2="800.25"/><line style="stroke:#181818;stroke-width:0.5;stroke-dasharray:5.0,5.0;" x1="937.5" x2="937.5" y1="121.2188" y2="800.25"/><line style="stroke:#181818;stroke-width:0.5;stroke-dasharray:5.0,5.0;" x1="1039.5" x2="1039.5" y1="121.2188" y2="800.25"/><text fill="#000000" font-family="sans-serif" font-size="14" lengthAdjust="spacing" textLength="39" x="5" y="118.1426">Admin</text><ellipse cx="27.5" cy="52.1094" fill="#E2E2F0" rx="8" ry="8" style="stroke:#181818;stroke-width:0.5;"/><path d="M27.5,60.1094 L27.5,87.1094 M14.5,68.1094 L40.5,68.1094 M27.5,87.1094 L14.5,102.1094 M27.5,87.1094 L40.5,102.1094 " fill="none" style="stroke:#181818;stroke-width:0.5;"/><text fill="#000000" font-family="sans-serif" font-size="14" lengthAdjust="spacing" textLength="39" x="5" y="813.7832">Admin</text><ellipse cx="27.5" cy="825.3594" fill="#E2E2F0" rx="8" ry="8" style="stroke:#181818;stroke-width:0.5;"/><path d="M27.5,833.3594 L27.5,860.3594 M14.5,841.3594 L40.5,841.3594 M27.5,860.3594 L14.5,875.3594 M27.5,860.3594 L40.5,875.3594 " fill="none" style="stroke:#181818;stroke-width:0.5;"/><rect fill="#E2E2F0" height="31.6094" rx="2.5" ry="2.5" style="stroke:#181818;stroke-width:0.5;" width="153" x="237" y="88.6094"/><text fill="#000000" font-family="sans-serif" font-size="14" lengthAdjust="spacing" textLength="139" x="244" y="110.1426">CreatePatientProfileUI</text><rect fill="#E2E2F0" height="31.6094" rx="2.5" ry="2.5" style="stroke:#181818;stroke-width:0.5;" width="153" x="237" y="799.25"/><text fill="#000000" font-family="sans-serif" font-size="14" lengthAdjust="spacing" textLength="139" x="244" y="820.7832">CreatePatientProfileUI</text><rect fill="#E2E2F0" height="31.6094" rx="2.5" ry="2.5" style="stroke:#181818;stroke-width:0.5;" width="120" x="415.5" y="88.6094"/><text fill="#000000" font-family="sans-serif" font-size="14" lengthAdjust="spacing" textLength="106" x="422.5" y="110.1426">PatientController</text><rect fill="#E2E2F0" height="31.6094" rx="2.5" ry="2.5" style="stroke:#181818;stroke-width:0.5;" width="120" x="415.5" y="799.25"/><text fill="#000000" font-family="sans-serif" font-size="14" lengthAdjust="spacing" textLength="106" x="422.5" y="820.7832">PatientController</text><rect fill="#E2E2F0" height="31.6094" rx="2.5" ry="2.5" style="stroke:#181818;stroke-width:0.5;" width="105" x="585" y="88.6094"/><text fill="#000000" font-family="sans-serif" font-size="14" lengthAdjust="spacing" textLength="91" x="592" y="110.1426">PatientService</text><rect fill="#E2E2F0" height="31.6094" rx="2.5" ry="2.5" style="stroke:#181818;stroke-width:0.5;" width="105" x="585" y="799.25"/><text fill="#000000" font-family="sans-serif" font-size="14" lengthAdjust="spacing" textLength="91" x="592" y="820.7832">PatientService</text><rect fill="#E2E2F0" height="31.6094" rx="2.5" ry="2.5" style="stroke:#181818;stroke-width:0.5;" width="58" x="908.5" y="88.6094"/><text fill="#000000" font-family="sans-serif" font-size="14" lengthAdjust="spacing" textLength="44" x="915.5" y="110.1426">Patient</text><rect fill="#E2E2F0" height="31.6094" rx="2.5" ry="2.5" style="stroke:#181818;stroke-width:0.5;" width="58" x="908.5" y="799.25"/><text fill="#000000" font-family="sans-serif" font-size="14" lengthAdjust="spacing" textLength="44" x="915.5" y="820.7832">Patient</text><rect fill="#E2E2F0" height="31.6094" rx="2.5" ry="2.5" style="stroke:#181818;stroke-width:0.5;" width="126" x="976.5" y="88.6094"/><text fill="#000000" font-family="sans-serif" font-size="14" lengthAdjust="spacing" textLength="112" x="983.5" y="110.1426">PatientRepository</text><rect fill="#E2E2F0" height="31.6094" rx="2.5" ry="2.5" style="stroke:#181818;stroke-width:0.5;" width="126" x="976.5" y="799.25"/><text fill="#000000" font-family="sans-serif" font-size="14" lengthAdjust="spacing" textLength="112" x="983.5" y="820.7832">PatientRepository</text><rect fill="#FFFFFF" height="651.0313" style="stroke:#181818;stroke-width:1.0;" width="10" x="22.5" y="131.2188"/><rect fill="#FFFFFF" height="30.3516" style="stroke:#181818;stroke-width:1.0;" width="10" x="308.5" y="153.5703"/><rect fill="#FFFFFF" height="551.625" style="stroke:#181818;stroke-width:1.0;" width="10" x="308.5" y="230.625"/><rect fill="#FFFFFF" height="490.9219" style="stroke:#181818;stroke-width:1.0;" width="10" x="470.5" y="260.9766"/><rect fill="#FFFFFF" height="430.2188" style="stroke:#181818;stroke-width:1.0;" width="10" x="632.5" y="291.3281"/><rect fill="#FFFFFF" height="102.0547" style="stroke:#181818;stroke-width:1.0;" width="10" x="637.5" y="329.6797"/><rect fill="#FFFFFF" height="102.0547" style="stroke:#181818;stroke-width:1.0;" width="10" x="637.5" y="477.0859"/><rect fill="#FFFFFF" height="30.3516" style="stroke:#181818;stroke-width:1.0;" width="10" x="932.5" y="616.4922"/><rect fill="#FFFFFF" height="30.3516" style="stroke:#181818;stroke-width:1.0;" width="10" x="1034.5" y="365.0313"/><rect fill="#FFFFFF" height="30.3516" style="stroke:#181818;stroke-width:1.0;" width="10" x="1034.5" y="512.4375"/><rect fill="#FFFFFF" height="14" style="stroke:#181818;stroke-width:1.0;" width="10" x="1034.5" y="677.1953"/><polygon fill="#A52A2A" points="296.5,149.5703,306.5,153.5703,296.5,157.5703,300.5,153.5703" style="stroke:#A52A2A;stroke-width:1.0;"/><line style="stroke:#A52A2A;stroke-width:1.0;" x1="32.5" x2="302.5" y1="153.5703" y2="153.5703"/><text fill="#000000" font-family="sans-serif" font-size="13" lengthAdjust="spacing" textLength="123" x="39.5" y="148.7139">Create Patient Profile</text><polygon fill="#A52A2A" points="43.5,179.9219,33.5,183.9219,43.5,187.9219,39.5,183.9219" style="stroke:#A52A2A;stroke-width:1.0;"/><line style="stroke:#A52A2A;stroke-width:1.0;" x1="37.5" x2="312.5" y1="183.9219" y2="183.9219"/><text fill="#000000" font-family="sans-serif" font-size="13" lengthAdjust="spacing" textLength="126" x="49.5" y="179.0654">Ask for patient details</text><polygon fill="#A52A2A" points="296.5,226.625,306.5,230.625,296.5,234.625,300.5,230.625" style="stroke:#A52A2A;stroke-width:1.0;"/><line style="stroke:#A52A2A;stroke-width:1.0;" x1="32.5" x2="302.5" y1="230.625" y2="230.625"/><text fill="#000000" font-family="sans-serif" font-size="13" lengthAdjust="spacing" textLength="257" x="39.5" y="209.417">Provide patient details (firs name, last name,</text><text fill="#000000" font-family="sans-serif" font-size="13" lengthAdjust="spacing" textLength="144" x="43.5" y="225.7686">contact information, etc.)</text><polygon fill="#A52A2A" points="458.5,256.9766,468.5,260.9766,458.5,264.9766,462.5,260.9766" style="stroke:#A52A2A;stroke-width:1.0;"/><line style="stroke:#A52A2A;stroke-width:1.0;" x1="318.5" x2="464.5" y1="260.9766" y2="260.9766"/><text fill="#000000" font-family="sans-serif" font-size="13" lengthAdjust="spacing" textLength="133" x="325.5" y="256.1201">createPatientProfile(...)</text><polygon fill="#A52A2A" points="620.5,287.3281,630.5,291.3281,620.5,295.3281,624.5,291.3281" style="stroke:#A52A2A;stroke-width:1.0;"/><line style="stroke:#A52A2A;stroke-width:1.0;" x1="480.5" x2="626.5" y1="291.3281" y2="291.3281"/><text fill="#000000" font-family="sans-serif" font-size="13" lengthAdjust="spacing" textLength="133" x="487.5" y="286.4717">createPatientProfile(...)</text><line style="stroke:#A52A2A;stroke-width:1.0;" x1="642.5" x2="689.5" y1="316.6797" y2="316.6797"/><line style="stroke:#A52A2A;stroke-width:1.0;" x1="689.5" x2="689.5" y1="316.6797" y2="329.6797"/><line style="stroke:#A52A2A;stroke-width:1.0;" x1="648.5" x2="689.5" y1="329.6797" y2="329.6797"/><polygon fill="#A52A2A" points="658.5,325.6797,648.5,329.6797,658.5,333.6797,654.5,329.6797" style="stroke:#A52A2A;stroke-width:1.0;"/><text fill="#000000" font-family="sans-serif" font-size="13" lengthAdjust="spacing" textLength="276" x="654.5" y="311.8232">validatePatientInformation(email, phone number)</text><polygon fill="#A52A2A" points="1022.5,361.0313,1032.5,365.0313,1022.5,369.0313,1026.5,365.0313" style="stroke:#A52A2A;stroke-width:1.0;"/><line style="stroke:#A52A2A;stroke-width:1.0;" x1="647.5" x2="1028.5" y1="365.0313" y2="365.0313"/><text fill="#000000" font-family="sans-serif" font-size="13" lengthAdjust="spacing" textLength="205" x="654.5" y="360.1748">patientExists(email, phone number)</text><polygon fill="#A52A2A" points="658.5,391.3828,648.5,395.3828,658.5,399.3828,654.5,395.3828" style="stroke:#A52A2A;stroke-width:1.0;"/><line style="stroke:#A52A2A;stroke-width:1.0;stroke-dasharray:2.0,2.0;" x1="652.5" x2="1038.5" y1="395.3828" y2="395.3828"/><text fill="#000000" font-family="sans-serif" font-size="13" lengthAdjust="spacing" textLength="27" x="664.5" y="390.5264">false</text><line style="stroke:#A52A2A;stroke-width:1.0;stroke-dasharray:2.0,2.0;" x1="647.5" x2="689.5" y1="430.7344" y2="430.7344"/><line style="stroke:#A52A2A;stroke-width:1.0;stroke-dasharray:2.0,2.0;" x1="689.5" x2="689.5" y1="430.7344" y2="443.7344"/><line style="stroke:#A52A2A;stroke-width:1.0;stroke-dasharray:2.0,2.0;" x1="642.5" x2="689.5" y1="443.7344" y2="443.7344"/><polygon fill="#A52A2A" points="652.5,439.7344,642.5,443.7344,652.5,447.7344,648.5,443.7344" style="stroke:#A52A2A;stroke-width:1.0;"/><text fill="#000000" font-family="sans-serif" font-size="13" lengthAdjust="spacing" textLength="27" x="654.5" y="425.8779">false</text><line style="stroke:#A52A2A;stroke-width:1.0;" x1="642.5" x2="689.5" y1="464.0859" y2="464.0859"/><line style="stroke:#A52A2A;stroke-width:1.0;" x1="689.5" x2="689.5" y1="464.0859" y2="477.0859"/><line style="stroke:#A52A2A;stroke-width:1.0;" x1="648.5" x2="689.5" y1="477.0859" y2="477.0859"/><polygon fill="#A52A2A" points="658.5,473.0859,648.5,477.0859,658.5,481.0859,654.5,477.0859" style="stroke:#A52A2A;stroke-width:1.0;"/><text fill="#000000" font-family="sans-serif" font-size="13" lengthAdjust="spacing" textLength="111" x="654.5" y="459.2295">generatePatientID()</text><polygon fill="#A52A2A" points="1022.5,508.4375,1032.5,512.4375,1022.5,516.4375,1026.5,512.4375" style="stroke:#A52A2A;stroke-width:1.0;"/><line style="stroke:#A52A2A;stroke-width:1.0;" x1="647.5" x2="1028.5" y1="512.4375" y2="512.4375"/><text fill="#000000" font-family="sans-serif" font-size="13" lengthAdjust="spacing" textLength="82" x="654.5" y="507.5811">lastPatientID()</text><polygon fill="#A52A2A" points="658.5,538.7891,648.5,542.7891,658.5,546.7891,654.5,542.7891" style="stroke:#A52A2A;stroke-width:1.0;"/><line style="stroke:#A52A2A;stroke-width:1.0;stroke-dasharray:2.0,2.0;" x1="652.5" x2="1038.5" y1="542.7891" y2="542.7891"/><text fill="#000000" font-family="sans-serif" font-size="13" lengthAdjust="spacing" textLength="74" x="664.5" y="537.9326">lastPatientID</text><line style="stroke:#A52A2A;stroke-width:1.0;stroke-dasharray:2.0,2.0;" x1="647.5" x2="689.5" y1="578.1406" y2="578.1406"/><line style="stroke:#A52A2A;stroke-width:1.0;stroke-dasharray:2.0,2.0;" x1="689.5" x2="689.5" y1="578.1406" y2="591.1406"/><line style="stroke:#A52A2A;stroke-width:1.0;stroke-dasharray:2.0,2.0;" x1="642.5" x2="689.5" y1="591.1406" y2="591.1406"/><polygon fill="#A52A2A" points="652.5,587.1406,642.5,591.1406,652.5,595.1406,648.5,591.1406" style="stroke:#A52A2A;stroke-width:1.0;"/><text fill="#000000" font-family="sans-serif" font-size="13" lengthAdjust="spacing" textLength="97" x="654.5" y="573.2842">lastPatientID + 1</text><polygon fill="#A52A2A" points="920.5,612.4922,930.5,616.4922,920.5,620.4922,924.5,616.4922" style="stroke:#A52A2A;stroke-width:1.0;"/><line style="stroke:#A52A2A;stroke-width:1.0;" x1="642.5" x2="926.5" y1="616.4922" y2="616.4922"/><text fill="#000000" font-family="sans-serif" font-size="13" lengthAdjust="spacing" textLength="88" x="649.5" y="611.6357">new Patient(...)</text><polygon fill="#A52A2A" points="653.5,642.8438,643.5,646.8438,653.5,650.8438,649.5,646.8438" style="stroke:#A52A2A;stroke-width:1.0;"/><line style="stroke:#A52A2A;stroke-width:1.0;stroke-dasharray:2.0,2.0;" x1="647.5" x2="936.5" y1="646.8438" y2="646.8438"/><text fill="#000000" font-family="sans-serif" font-size="13" lengthAdjust="spacing" textLength="39" x="659.5" y="641.9873">patient</text><polygon fill="#A52A2A" points="1022.5,673.1953,1032.5,677.1953,1022.5,681.1953,1026.5,677.1953" style="stroke:#A52A2A;stroke-width:1.0;"/><line style="stroke:#A52A2A;stroke-width:1.0;" x1="642.5" x2="1028.5" y1="677.1953" y2="677.1953"/><text fill="#000000" font-family="sans-serif" font-size="13" lengthAdjust="spacing" textLength="73" x="649.5" y="672.3389">save(patient)</text><polygon fill="#A52A2A" points="653.5,687.1953,643.5,691.1953,653.5,695.1953,649.5,691.1953" style="stroke:#A52A2A;stroke-width:1.0;"/><line style="stroke:#A52A2A;stroke-width:1.0;stroke-dasharray:2.0,2.0;" x1="647.5" x2="1038.5" y1="691.1953" y2="691.1953"/><polygon fill="#A52A2A" points="491.5,717.5469,481.5,721.5469,491.5,725.5469,487.5,721.5469" style="stroke:#A52A2A;stroke-width:1.0;"/><line style="stroke:#A52A2A;stroke-width:1.0;stroke-dasharray:2.0,2.0;" x1="485.5" x2="636.5" y1="721.5469" y2="721.5469"/><text fill="#000000" font-family="sans-serif" font-size="13" lengthAdjust="spacing" textLength="22" x="497.5" y="716.6904">true</text><polygon fill="#A52A2A" points="329.5,747.8984,319.5,751.8984,329.5,755.8984,325.5,751.8984" style="stroke:#A52A2A;stroke-width:1.0;"/><line style="stroke:#A52A2A;stroke-width:1.0;stroke-dasharray:2.0,2.0;" x1="323.5" x2="474.5" y1="751.8984" y2="751.8984"/><text fill="#000000" font-family="sans-serif" font-size="13" lengthAdjust="spacing" textLength="22" x="335.5" y="747.042">true</text><polygon fill="#A52A2A" points="38.5,778.25,28.5,782.25,38.5,786.25,34.5,782.25" style="stroke:#A52A2A;stroke-width:1.0;"/><line style="stroke:#A52A2A;stroke-width:1.0;stroke-dasharray:2.0,2.0;" x1="32.5" x2="312.5" y1="782.25" y2="782.25"/><text fill="#000000" font-family="sans-serif" font-size="13" lengthAdjust="spacing" textLength="202" x="44.5" y="777.3936">Patient profile created successfully</text><!--SRC=[rPLDRzim38Rl_XL4JncM1EjXm9330CVTmK2m6V5osqMLw4IeB1cKdAuRzjz7MquJDqcxwtnon8SKFruwGGU3i2dXu_ns_Wbca7eG5b9LQpk571w53H0SI48H40HOV8H618rytf2hjC4fU0TX9mBpafq9jze793v3JT0WUMU50OL1QDF5Lr2ZqfBFTamwUfedYN_GjX4aQf16U9-6GFg-3PXBPqlz2-736GE_4-1dfIjSQOjBHmefSyOHt3crHLgQ5iU8a0zRSgrL4KkBOfLdwVVyszUUUsbVOUrijjDLvMmFf4JkCTgM_1OFJoykXL86e-tFQSODXnPRBCCJDvnG1c6t1aSr2LB_GKb2yiJWffV83GWFQP9m0K5BtNHgkSbwhHHH94NKo2RlqKq-HWSeSpQGCmQffuhi8bKYxRN4Y9GNaMYxQ5fZuxpkn1QXTPBqjUXz9sok8ONPPqvm0J5_6FnWgE04vYgIJTxXwO8NvW4gRiXXAGQL9ud2aSDpU8wtrmfVEi2aqkJ1YfeNYjKTukiF2xm0WKE1jdnFpLwELnE3dB-xc5EHBOPr7OzWCf-FFBZBIP7r7kK_UfJiKHuyzi9eTVJ9ZzbDiEQAfj3id4MmRNsFT2NEUd7emvUV_2dmRxhos8erp8OSAc4yZbhT0-LhGDaD_bZ65YtIIHbta-kfTcEvmetp6e6lvJS2uJtSdkKwtBxelxm3UZOOnfv33lqS1pgjmeizJWRgbHgkfitw2jIUTxKJqw3nStiMvHbtfXZ_WGpYK-1RAT7xgZNcwMo1JdwcIV_y1G00]--></g></svg>