<svg xmlns="http://www.w3.org/2000/svg" xmlns:xlink="http://www.w3.org/1999/xlink" contentStyleType="text/css" height="723px" preserveAspectRatio="none" style="width:1543px;height:723px;background:#FFFFFF;" version="1.1" viewBox="0 0 1543 723" width="1543px" zoomAndPan="magnify"><defs/><g><!--cluster User Aggregate--><g id="cluster_User Aggregate"><rect fill="none" height="329" rx="2.5" ry="2.5" style="stroke:#000000;stroke-width:1.5;" width="416" x="491" y="7"/><text fill="#000000" font-family="sans-serif" font-size="14" font-weight="bold" lengthAdjust="spacing" textLength="104.2549" x="646.8726" y="24.1074">User Aggregate</text></g><!--cluster Patient Aggregate--><g id="cluster_Patient Aggregate"><rect fill="none" height="330" rx="2.5" ry="2.5" style="stroke:#000000;stroke-width:1.5;" width="1530" x="7" y="387"/><text fill="#000000" font-family="sans-serif" font-size="14" font-weight="bold" lengthAdjust="spacing" textLength="119.7998" x="712.1001" y="404.1074">Patient Aggregate</text></g><!--class User--><g id="elem_User"><rect codeLine="29" fill="#FFFACD" height="68.543" id="User" rx="2.5" ry="2.5" style="stroke:#8B4513;stroke-width:0.5;" width="44.0293" x="694" y="251"/><text fill="#000000" font-family="sans-serif" font-size="12" font-style="italic" lengthAdjust="spacing" textLength="42.0293" x="695" y="268.9492">&#171;entity&#187;</text><text fill="#000000" font-family="sans-serif" font-size="12" font-style="italic" lengthAdjust="spacing" textLength="34.0254" x="699.002" y="284.9102">&#171;root&#187;</text><text fill="#000000" font-family="sans-serif" font-size="14" lengthAdjust="spacing" textLength="29.5586" x="701.2354" y="303.0293">User</text><line style="stroke:#8B4513;stroke-width:0.5;" x1="695" x2="737.0293" y1="311.543" y2="311.543"/></g><!--entity Username--><g id="elem_Username"><rect fill="#FFFACD" height="43.2422" rx="2.5" ry="2.5" style="stroke:#8B4513;stroke-width:0.5;" width="115.7305" x="507" y="95.5"/><text fill="#000000" font-family="sans-serif" font-size="14" font-style="italic" lengthAdjust="spacing" textLength="95.7305" x="517" y="113.6074">&#171;Value Object&#187;</text><text fill="#000000" font-family="sans-serif" font-size="14" lengthAdjust="spacing" textLength="64.5791" x="532.5757" y="132.2285">Username</text></g><!--entity Email--><g id="elem_Email"><rect fill="#FFFACD" height="43.2422" rx="2.5" ry="2.5" style="stroke:#8B4513;stroke-width:0.5;" width="115.7305" x="658" y="95.5"/><text fill="#000000" font-family="sans-serif" font-size="14" font-style="italic" lengthAdjust="spacing" textLength="95.7305" x="668" y="113.6074">&#171;Value Object&#187;</text><text fill="#000000" font-family="sans-serif" font-size="14" lengthAdjust="spacing" textLength="35.0068" x="698.3618" y="132.2285">Email</text></g><!--class Role--><g id="elem_Role"><rect codeLine="35" fill="#FFFACD" height="145.6875" id="Role" rx="2.5" ry="2.5" style="stroke:#8B4513;stroke-width:0.5;" width="82.0566" x="809" y="44"/><text fill="#000000" font-family="sans-serif" font-size="12" font-style="italic" lengthAdjust="spacing" textLength="80.0566" x="810" y="61.9492">&#171;enumeration&#187;</text><text fill="#000000" font-family="sans-serif" font-size="14" lengthAdjust="spacing" textLength="28.793" x="835.6318" y="80.0684">Role</text><line style="stroke:#8B4513;stroke-width:0.5;" x1="810" x2="890.0566" y1="88.582" y2="88.582"/><text fill="#000000" font-family="sans-serif" font-size="14" lengthAdjust="spacing" textLength="39.6826" x="815" y="107.6895">Admin</text><text fill="#000000" font-family="sans-serif" font-size="14" lengthAdjust="spacing" textLength="41.2344" x="815" y="126.3105">Doctor</text><text fill="#000000" font-family="sans-serif" font-size="14" lengthAdjust="spacing" textLength="37.3447" x="815" y="144.9316">Nurse</text><text fill="#000000" font-family="sans-serif" font-size="14" lengthAdjust="spacing" textLength="67.7031" x="815" y="163.5527">Technician</text><text fill="#000000" font-family="sans-serif" font-size="14" lengthAdjust="spacing" textLength="43.5859" x="815" y="182.1738">Patient</text></g><!--class Patient--><g id="elem_Patient"><rect codeLine="53" fill="#FFFACD" height="68.543" id="Patient" rx="2.5" ry="2.5" style="stroke:#8B4513;stroke-width:0.5;" width="49.5859" x="691" y="424"/><text fill="#000000" font-family="sans-serif" font-size="12" font-style="italic" lengthAdjust="spacing" textLength="42.0293" x="694.7783" y="441.9492">&#171;entity&#187;</text><text fill="#000000" font-family="sans-serif" font-size="12" font-style="italic" lengthAdjust="spacing" textLength="34.0254" x="698.7803" y="457.9102">&#171;root&#187;</text><text fill="#000000" font-family="sans-serif" font-size="14" lengthAdjust="spacing" textLength="43.5859" x="694" y="476.0293">Patient</text><line style="stroke:#8B4513;stroke-width:0.5;" x1="692" x2="739.5859" y1="484.543" y2="484.543"/></g><!--entity PatientFirstName--><g id="elem_PatientFirstName"><rect fill="#FFFACD" height="43.2422" rx="2.5" ry="2.5" style="stroke:#8B4513;stroke-width:0.5;" width="128.1445" x="23" y="554"/><text fill="#000000" font-family="sans-serif" font-size="14" font-style="italic" lengthAdjust="spacing" textLength="95.7305" x="39.207" y="572.1074">&#171;Value Object&#187;</text><text fill="#000000" font-family="sans-serif" font-size="14" lengthAdjust="spacing" textLength="108.1445" x="33" y="590.7285">PatientFirstName</text></g><!--entity PatientLastName--><g id="elem_PatientLastName"><rect fill="#FFFACD" height="43.2422" rx="2.5" ry="2.5" style="stroke:#8B4513;stroke-width:0.5;" width="127.3926" x="186.5" y="554"/><text fill="#000000" font-family="sans-serif" font-size="14" font-style="italic" lengthAdjust="spacing" textLength="95.7305" x="202.3311" y="572.1074">&#171;Value Object&#187;</text><text fill="#000000" font-family="sans-serif" font-size="14" lengthAdjust="spacing" textLength="107.3926" x="196.5" y="590.7285">PatientLastName</text></g><!--entity PatientFullName--><g id="elem_PatientFullName"><rect fill="#FFFACD" height="43.2422" rx="2.5" ry="2.5" style="stroke:#8B4513;stroke-width:0.5;" width="123.4893" x="348.5" y="554"/><text fill="#000000" font-family="sans-serif" font-size="14" font-style="italic" lengthAdjust="spacing" textLength="95.7305" x="362.3794" y="572.1074">&#171;Value Object&#187;</text><text fill="#000000" font-family="sans-serif" font-size="14" lengthAdjust="spacing" textLength="103.4893" x="358.5" y="590.7285">PatientFullName</text></g><!--entity DateOfBirth--><g id="elem_DateOfBirth"><rect fill="#FFFACD" height="43.2422" rx="2.5" ry="2.5" style="stroke:#8B4513;stroke-width:0.5;" width="115.7305" x="507" y="554"/><text fill="#000000" font-family="sans-serif" font-size="14" font-style="italic" lengthAdjust="spacing" textLength="95.7305" x="517" y="572.1074">&#171;Value Object&#187;</text><text fill="#000000" font-family="sans-serif" font-size="14" lengthAdjust="spacing" textLength="73.1377" x="528.2964" y="590.7285">DateOfBirth</text></g><!--entity Gender--><g id="elem_Gender"><rect fill="#FFFACD" height="43.2422" rx="2.5" ry="2.5" style="stroke:#8B4513;stroke-width:0.5;" width="115.7305" x="658" y="554"/><text fill="#000000" font-family="sans-serif" font-size="14" font-style="italic" lengthAdjust="spacing" textLength="95.7305" x="668" y="572.1074">&#171;Value Object&#187;</text><text fill="#000000" font-family="sans-serif" font-size="14" lengthAdjust="spacing" textLength="46.6963" x="692.5171" y="590.7285">Gender</text></g><!--entity MedicalRecordNumber--><g id="elem_MedicalRecordNumber"><rect fill="#FFFACD" height="43.2422" rx="2.5" ry="2.5" style="stroke:#8B4513;stroke-width:0.5;" width="163.165" x="809.5" y="554"/><text fill="#000000" font-family="sans-serif" font-size="14" font-style="italic" lengthAdjust="spacing" textLength="95.7305" x="843.2173" y="572.1074">&#171;Value Object&#187;</text><text fill="#000000" font-family="sans-serif" font-size="14" lengthAdjust="spacing" textLength="143.165" x="819.5" y="590.7285">MedicalRecordNumber</text></g><!--entity ContactInformation--><g id="elem_ContactInformation"><rect fill="#FFFACD" height="43.2422" rx="2.5" ry="2.5" style="stroke:#8B4513;stroke-width:0.5;" width="138.2822" x="1008" y="554"/><text fill="#000000" font-family="sans-serif" font-size="14" font-style="italic" lengthAdjust="spacing" textLength="95.7305" x="1029.2759" y="572.1074">&#171;Value Object&#187;</text><text fill="#000000" font-family="sans-serif" font-size="14" lengthAdjust="spacing" textLength="118.2822" x="1018" y="590.7285">ContactInformation</text></g><!--entity AllergiesAndConditions--><g id="elem_AllergiesAndConditions"><rect fill="#FFFACD" height="43.2422" rx="2.5" ry="2.5" style="stroke:#8B4513;stroke-width:0.5;" width="164.751" x="1181.5" y="554"/><text fill="#000000" font-family="sans-serif" font-size="14" font-style="italic" lengthAdjust="spacing" textLength="95.7305" x="1216.0103" y="572.1074">&#171;Value Object&#187;</text><text fill="#000000" font-family="sans-serif" font-size="14" lengthAdjust="spacing" textLength="144.751" x="1191.5" y="590.7285">AllergiesAndConditions</text></g><!--entity EmergencyContact--><g id="elem_EmergencyContact"><rect fill="#FFFACD" height="43.2422" rx="2.5" ry="2.5" style="stroke:#8B4513;stroke-width:0.5;" width="139.0547" x="1381.5" y="554"/><text fill="#000000" font-family="sans-serif" font-size="14" font-style="italic" lengthAdjust="spacing" textLength="95.7305" x="1403.1621" y="572.1074">&#171;Value Object&#187;</text><text fill="#000000" font-family="sans-serif" font-size="14" lengthAdjust="spacing" textLength="119.0547" x="1391.5" y="590.7285">EmergencyContact</text></g><!--entity PatientEmail--><g id="elem_PatientEmail"><rect fill="#FFFACD" height="43.2422" rx="2.5" ry="2.5" style="stroke:#8B4513;stroke-width:0.5;" width="115.7305" x="961" y="658"/><text fill="#000000" font-family="sans-serif" font-size="14" font-style="italic" lengthAdjust="spacing" textLength="95.7305" x="971" y="676.1074">&#171;Value Object&#187;</text><text fill="#000000" font-family="sans-serif" font-size="14" lengthAdjust="spacing" textLength="78.5928" x="979.5688" y="694.7285">PatientEmail</text></g><!--entity PhoneNumber--><g id="elem_PhoneNumber"><rect fill="#FFFACD" height="43.2422" rx="2.5" ry="2.5" style="stroke:#8B4513;stroke-width:0.5;" width="115.7305" x="1112" y="658"/><text fill="#000000" font-family="sans-serif" font-size="14" font-style="italic" lengthAdjust="spacing" textLength="95.7305" x="1122" y="676.1074">&#171;Value Object&#187;</text><text fill="#000000" font-family="sans-serif" font-size="14" lengthAdjust="spacing" textLength="90.2754" x="1124.7275" y="694.7285">PhoneNumber</text></g><!--reverse link Username to User--><g id="link_Username_User"><path codeLine="44" d="M587.8511,143.1941 C615.7611,173.9641 663.98,227.14 693.75,259.97 " fill="none" id="Username-backto-User" style="stroke:#A52A2A;stroke-width:1.0;"/><polygon fill="#A52A2A" points="583.82,138.75,586.9038,148.1036,587.1792,142.4535,592.8294,142.7288,583.82,138.75" style="stroke:#A52A2A;stroke-width:1.0;"/><text fill="#000000" font-family="sans-serif" font-size="13" lengthAdjust="spacing" textLength="7.23" x="581.0044" y="160.9146">1</text><text fill="#000000" font-family="sans-serif" font-size="13" lengthAdjust="spacing" textLength="7.23" x="678.8948" y="246.6912">1</text></g><!--reverse link Email to User--><g id="link_Email_User"><path codeLine="45" d="M716,144.75 C716,172.82 716,217.23 716,250.78 " fill="none" id="Email-backto-User" style="stroke:#A52A2A;stroke-width:1.0;"/><polygon fill="#A52A2A" points="716,138.75,712,147.75,716,143.75,720,147.75,716,138.75" style="stroke:#A52A2A;stroke-width:1.0;"/><text fill="#000000" font-family="sans-serif" font-size="13" lengthAdjust="spacing" textLength="7.23" x="708.1265" y="160.9146">1</text><text fill="#000000" font-family="sans-serif" font-size="13" lengthAdjust="spacing" textLength="7.23" x="708.3519" y="239.6408">1</text></g><!--reverse link Role to User--><g id="link_Role_User"><path codeLine="46" d="M804.9388,173.9848 C781.7188,202.8448 757.4,233.06 738.27,256.83 " fill="none" id="Role-backto-User" style="stroke:#A52A2A;stroke-width:1.0;"/><polygon fill="#A52A2A" points="808.7,169.31,799.9417,173.8147,805.5657,173.2056,806.1747,178.8296,808.7,169.31" style="stroke:#A52A2A;stroke-width:1.0;"/><text fill="#000000" font-family="sans-serif" font-size="13" lengthAdjust="spacing" textLength="7.23" x="793.7354" y="174.1957">1</text><text fill="#000000" font-family="sans-serif" font-size="13" lengthAdjust="spacing" textLength="7.23" x="745.8694" y="243.0495">1</text></g><!--link ContactInformation to PatientEmail--><g id="link_ContactInformation_PatientEmail"><path codeLine="72" d="M1065.26,597.14 C1055.2,614.84 1043.746,634.9844 1033.686,652.6744 " fill="none" id="ContactInformation-to-PatientEmail" style="stroke:#A52A2A;stroke-width:1.0;"/><polygon fill="#A52A2A" points="1030.72,657.89,1038.6461,652.0439,1033.1917,653.5437,1031.692,648.0892,1030.72,657.89" style="stroke:#A52A2A;stroke-width:1.0;"/><text fill="#000000" font-family="sans-serif" font-size="13" lengthAdjust="spacing" textLength="7.23" x="1054.1572" y="619.275">1</text><text fill="#000000" font-family="sans-serif" font-size="13" lengthAdjust="spacing" textLength="7.23" x="1025.9962" y="646.8328">1</text></g><!--link ContactInformation to PhoneNumber--><g id="link_ContactInformation_PhoneNumber"><path codeLine="73" d="M1095.82,597.14 C1111.96,614.84 1131.0374,635.7664 1147.1674,653.4564 " fill="none" id="ContactInformation-to-PhoneNumber" style="stroke:#A52A2A;stroke-width:1.0;"/><polygon fill="#A52A2A" points="1151.21,657.89,1148.1018,648.5445,1147.8411,654.1953,1142.1903,653.9347,1151.21,657.89" style="stroke:#A52A2A;stroke-width:1.0;"/><text fill="#000000" font-family="sans-serif" font-size="13" lengthAdjust="spacing" textLength="7.23" x="1092.9302" y="619.275">1</text><text fill="#000000" font-family="sans-serif" font-size="13" lengthAdjust="spacing" textLength="7.23" x="1138.2867" y="646.8328">1</text></g><!--link Patient to PatientFirstName--><g id="link_Patient_PatientFirstName"><path codeLine="76" d="M690.79,463.18 C612.84,474.69 368.9,511.8 169,554 C163.26,555.21 163.1554,555.1965 157.1954,556.5765 " fill="none" id="Patient-to-PatientFirstName" style="stroke:#A52A2A;stroke-width:1.0;"/><polygon fill="#A52A2A" points="151.35,557.93,161.0203,559.7967,156.2211,556.8021,159.2157,552.0029,151.35,557.93" style="stroke:#A52A2A;stroke-width:1.0;"/><text fill="#000000" font-family="sans-serif" font-size="13" lengthAdjust="spacing" textLength="7.23" x="675.8059" y="459.2391">1</text><text fill="#000000" font-family="sans-serif" font-size="13" lengthAdjust="spacing" textLength="7.23" x="159.2001" y="551.9468">1</text></g><!--link Patient to PatientLastName--><g id="link_Patient_PatientLastName"><path codeLine="77" d="M690.76,465.63 C629.22,480.59 466.57,520.21 331,554 C325.37,555.4 325.3397,555.4101 319.4797,556.8801 " fill="none" id="Patient-to-PatientLastName" style="stroke:#A52A2A;stroke-width:1.0;"/><polygon fill="#A52A2A" points="313.66,558.34,323.3628,560.03,318.5097,557.1234,321.4163,552.2704,313.66,558.34" style="stroke:#A52A2A;stroke-width:1.0;"/><text fill="#000000" font-family="sans-serif" font-size="13" lengthAdjust="spacing" textLength="7.23" x="675.7674" y="484.1595">1</text><text fill="#000000" font-family="sans-serif" font-size="13" lengthAdjust="spacing" textLength="7.23" x="321.8352" y="552.244">1</text></g><!--link Patient to PatientFullName--><g id="link_Patient_PatientFullName"><path codeLine="78" d="M690.96,468.91 C641.79,487.39 537.2065,526.6992 470.3665,551.8192 " fill="none" id="Patient-to-PatientFullName" style="stroke:#A52A2A;stroke-width:1.0;"/><polygon fill="#A52A2A" points="464.75,553.93,474.5819,554.5081,469.4304,552.171,471.7675,547.0195,464.75,553.93" style="stroke:#A52A2A;stroke-width:1.0;"/><text fill="#000000" font-family="sans-serif" font-size="13" lengthAdjust="spacing" textLength="7.23" x="675.671" y="488.603">1</text><text fill="#000000" font-family="sans-serif" font-size="13" lengthAdjust="spacing" textLength="7.23" x="471.4886" y="542.8836">1</text></g><!--link Patient to DateOfBirth--><g id="link_Patient_DateOfBirth"><path codeLine="79" d="M690.73,478.75 C663.44,499.53 624.9137,528.8752 596.9137,550.1952 " fill="none" id="Patient-to-DateOfBirth" style="stroke:#A52A2A;stroke-width:1.0;"/><polygon fill="#A52A2A" points="592.14,553.83,601.7237,551.5602,596.1181,550.801,596.8773,545.1953,592.14,553.83" style="stroke:#A52A2A;stroke-width:1.0;"/><text fill="#000000" font-family="sans-serif" font-size="13" lengthAdjust="spacing" textLength="7.23" x="675.9845" y="512.8011">1</text><text fill="#000000" font-family="sans-serif" font-size="13" lengthAdjust="spacing" textLength="7.23" x="591.5604" y="542.7567">1</text></g><!--link Patient to Gender--><g id="link_Patient_Gender"><path codeLine="80" d="M716,493.07 C716,512.7 716,530.85 716,547.73 " fill="none" id="Patient-to-Gender" style="stroke:#A52A2A;stroke-width:1.0;"/><polygon fill="#A52A2A" points="716,553.73,720,544.73,716,548.73,712,544.73,716,553.73" style="stroke:#A52A2A;stroke-width:1.0;"/><text fill="#000000" font-family="sans-serif" font-size="13" lengthAdjust="spacing" textLength="7.23" x="708.4538" y="514.5653">1</text><text fill="#000000" font-family="sans-serif" font-size="13" lengthAdjust="spacing" textLength="7.23" x="708.1265" y="542.6298">1</text></g><!--link Patient to MedicalRecordNumber--><g id="link_Patient_MedicalRecordNumber"><path codeLine="81" d="M741.07,475.98 C772.36,496.53 820.8351,528.396 854.7551,550.676 " fill="none" id="Patient-to-MedicalRecordNumber" style="stroke:#A52A2A;stroke-width:1.0;"/><polygon fill="#A52A2A" points="859.77,553.97,854.4436,545.6857,855.5909,551.225,850.0516,552.3723,859.77,553.97" style="stroke:#A52A2A;stroke-width:1.0;"/><text fill="#000000" font-family="sans-serif" font-size="13" lengthAdjust="spacing" textLength="7.23" x="748.4736" y="496.7615">1</text><text fill="#000000" font-family="sans-serif" font-size="13" lengthAdjust="spacing" textLength="7.23" x="843.0113" y="542.5592">1</text></g><!--link Patient to ContactInformation--><g id="link_Patient_ContactInformation"><path codeLine="82" d="M741.1,467.5 C796.66,485.2 925.813,526.3391 1006.753,552.1191 " fill="none" id="Patient-to-ContactInformation" style="stroke:#A52A2A;stroke-width:1.0;"/><polygon fill="#A52A2A" points="1012.47,553.94,1005.1084,547.3973,1007.7058,552.4226,1002.6805,555.02,1012.47,553.94" style="stroke:#A52A2A;stroke-width:1.0;"/><text fill="#000000" font-family="sans-serif" font-size="13" lengthAdjust="spacing" textLength="7.23" x="748.5113" y="464.7523">1</text><text fill="#000000" font-family="sans-serif" font-size="13" lengthAdjust="spacing" textLength="7.23" x="992.9222" y="545.4305">1</text></g><!--link Patient to AllergiesAndConditions--><g id="link_Patient_AllergiesAndConditions"><path codeLine="83" d="M741.33,464.82 C818.74,481.06 1048.7279,529.3277 1175.4779,555.9277 " fill="none" id="Patient-to-AllergiesAndConditions" style="stroke:#A52A2A;stroke-width:1.0;"/><polygon fill="#A52A2A" points="1181.35,557.16,1173.3634,551.3968,1176.4566,556.1331,1171.7203,559.2262,1181.35,557.16" style="stroke:#A52A2A;stroke-width:1.0;"/><text fill="#000000" font-family="sans-serif" font-size="13" lengthAdjust="spacing" textLength="7.23" x="748.4358" y="482.5519">1</text><text fill="#000000" font-family="sans-serif" font-size="13" lengthAdjust="spacing" textLength="5.0591" x="1168.5144" y="551.7163">*</text></g><!--link Patient to EmergencyContact--><g id="link_Patient_EmergencyContact"><path codeLine="84" d="M741.15,462.37 C827.98,472.46 1123.04,508.13 1364,554 C1369.64,555.07 1369.6029,555.0142 1375.4429,556.2642 " fill="none" id="Patient-to-EmergencyContact" style="stroke:#A52A2A;stroke-width:1.0;"/><polygon fill="#A52A2A" points="1381.31,557.52,1373.3465,551.7249,1376.4207,556.4735,1371.6721,559.5477,1381.31,557.52" style="stroke:#A52A2A;stroke-width:1.0;"/><text fill="#000000" font-family="sans-serif" font-size="13" lengthAdjust="spacing" textLength="7.23" x="748.5741" y="458.3077">1</text><text fill="#000000" font-family="sans-serif" font-size="13" lengthAdjust="spacing" textLength="7.23" x="1366.3144" y="551.6547">1</text></g><!--reverse link User to Patient--><g id="link_User_Patient"><path codeLine="88" d="M716,326.28 C716,356.26 716,393.83 716,423.79 " fill="none" id="User-backto-Patient" style="stroke:#A52A2A;stroke-width:1.0;"/><polygon fill="#A52A2A" points="716,320.28,712,329.28,716,325.28,720,329.28,716,320.28" style="stroke:#A52A2A;stroke-width:1.0;"/><text fill="#000000" font-family="sans-serif" font-size="13" lengthAdjust="spacing" textLength="27.46" x="717" y="367.0283">edits</text><text fill="#000000" font-family="sans-serif" font-size="13" lengthAdjust="spacing" textLength="7.23" x="708.4369" y="341.5385">1</text><text fill="#000000" font-family="sans-serif" font-size="13" lengthAdjust="spacing" textLength="7.23" x="708.3942" y="412.6527">1</text></g><!--SRC=[rPJBZjem58RtUGeh6wHA8xNR2aNYCjCYKK0mxROozY4v7L-GxMXAAzwzZdCXCoI1RRD9xFFbN7yxGmw4eM42egpubk0opMr4XT2lFoN-HfL6KMHVK1sfeP8mGQsTE6TmdpjOCArs-0V8nok6_8s8VvPuW2Kgc6h3mSoqq8RCDK_1J4KERn7ANbAZSyLBRBBPB1UpoVDYlGhSU_iIf5Qp30y7hG8mCKQ_bhQf_oetsu5tb7C1fUtSplZeNTCKTkuaW1XWZghKjwHT4pNyFoWfgYeXyNSBFbwQ6aYfWzZd7lu5vT2TIB2En-KgISPZexLBagh2Syc6cWjIKGcU_a5zVMIz_-KRb2GNv55I5DVsAbukoLOB2D5o2OOwrAe95Oha4bMpcclcj6cMgznOQ5RFm3A53Ec5ttY7levsuYEo1H7Ys0oFbg2oXRXT1cNXj6vBeCDM_2b-o1yI_segxZI6MZijHP5-0EVM3AhK-iTG0tTDeeAVq5Yt6fv8XIxflUHJBiGDSkxpNn-cQ5msG7q1nOEq-e1lm95HiGNcLRpAvNwGdcdbA7CBTT16XeaEm1CXmAG8TbAS9yKnA61Gk9u7nKvLc6vqL3e_7ZKg9tsplgBr2ZtrA7vK9qtQMJTNfhtgVS_nkM2PLj3NgKwzToGGk8vk5W8kzTlEvWxwajJDCrUh_EsngtUlCcW4FepLuhxXh19s3zKITGTHl2f5z_pVeUO-FzVjx2G_n3qwxlFxNiJX2cfnfBYW2AblDlAPn3vfP-Fe7m00]--></g></svg>