<svg xmlns="http://www.w3.org/2000/svg" xmlns:xlink="http://www.w3.org/1999/xlink" contentStyleType="text/css" height="277px" preserveAspectRatio="none" style="width:353px;height:277px;background:#FFFFFF;" version="1.1" viewBox="0 0 353 277" width="353px" zoomAndPan="magnify"><defs/><g><!--entity admin--><g id="elem_admin"><ellipse cx="25.8413" cy="107.5" fill="#F1F1F1" rx="8" ry="8" style="stroke:#181818;stroke-width:0.5;"/><path d="M25.8413,115.5 L25.8413,142.5 M12.8413,123.5 L38.8413,123.5 M25.8413,142.5 L12.8413,157.5 M25.8413,142.5 L38.8413,157.5 " fill="none" style="stroke:#181818;stroke-width:0.5;"/><text fill="#000000" font-family="sans-serif" font-size="14" lengthAdjust="spacing" textLength="39.6826" x="6" y="174.1074">Admin</text></g><g id="elem_search"><ellipse cx="253.5222" cy="26.5044" fill="#F1F1F1" rx="90.5222" ry="20.5044" style="stroke:#181818;stroke-width:0.5;"/><text fill="#000000" font-family="sans-serif" font-size="14" lengthAdjust="spacing" textLength="135.4063" x="182.8191" y="31.3082">Search Patient Profile</text></g><g id="elem_view"><ellipse cx="253.466" cy="101.3932" fill="#F1F1F1" rx="84.966" ry="19.3932" style="stroke:#181818;stroke-width:0.5;"/><text fill="#000000" font-family="sans-serif" font-size="14" lengthAdjust="spacing" textLength="121.3926" x="189.7697" y="106.1969">View Patient Profile</text></g><g id="elem_edit"><ellipse cx="253.573" cy="175.4146" fill="#F1F1F1" rx="82.573" ry="18.9146" style="stroke:#181818;stroke-width:0.5;"/><text fill="#000000" font-family="sans-serif" font-size="14" lengthAdjust="spacing" textLength="115.1719" x="192.9871" y="180.2183">Edit Patient Profile</text></g><g id="elem_remove"><ellipse cx="253.6906" cy="250.6381" fill="#F1F1F1" rx="93.6906" ry="21.1381" style="stroke:#181818;stroke-width:0.5;"/><text fill="#000000" font-family="sans-serif" font-size="14" lengthAdjust="spacing" textLength="143.1787" x="179.1012" y="255.4418">Remove Patient Profile</text></g><!--link admin to search--><g id="link_admin_search"><path d="M46.25,118.81 C54.82,110.82 65.36,101.97 76,95.5 C114.09,72.33 161.3,54.36 197.31,42.57 " fill="none" id="admin-search" style="stroke:#181818;stroke-width:1.0;"/><text fill="#000000" font-family="sans-serif" font-size="13" lengthAdjust="spacing" textLength="52.749" x="77" y="65.5283">searches</text></g><!--link admin to view--><g id="link_admin_view"><path d="M46.23,135.35 C76.42,130.39 136.42,120.55 183.96,112.75 " fill="none" id="admin-view" style="stroke:#181818;stroke-width:1.0;"/><text fill="#000000" font-family="sans-serif" font-size="13" lengthAdjust="spacing" textLength="32.5063" x="87" y="118.5283">views</text></g><!--link admin to edit--><g id="link_admin_edit"><path d="M46.17,147.31 C55.06,151.04 65.89,155.07 76,157.5 C107,164.95 141.78,169.31 172.22,171.88 " fill="none" id="admin-edit" style="stroke:#181818;stroke-width:1.0;"/><text fill="#000000" font-family="sans-serif" font-size="13" lengthAdjust="spacing" textLength="27.46" x="89.5" y="153.5283">edits</text></g><!--link admin to remove--><g id="link_admin_remove"><path d="M46.19,166.21 C54.37,176.32 64.65,187.07 76,194.5 C107.47,215.1 147.04,228.57 180.74,237.12 " fill="none" id="admin-remove" style="stroke:#181818;stroke-width:1.0;"/><text fill="#000000" font-family="sans-serif" font-size="13" lengthAdjust="spacing" textLength="49.8481" x="78.5" y="190.5283">removes</text></g><!--SRC=[ROun2iCm34Ltdq9apmMwTUWUMkWkRAKH93P8Qdhzsax06Jn9_FUG_agpWIKG_Ym6WOMySOhEeRSaS0yRHq05B8jpNoMFIZ2y2CKlCA4nHOD9qimh3KNLYfhwPlfrnJs3fZq2MrUZ39hsf2tjr1MbebozbXx7imdSpeMqeV8xWp8kQNcLqp8kwN4tvyUYxWy0]--></g></svg>