<svg xmlns="http://www.w3.org/2000/svg" xmlns:xlink="http://www.w3.org/1999/xlink" contentStyleType="text/css" height="277px" preserveAspectRatio="none" style="width:1025px;height:277px;background:#FFFFFF;" version="1.1" viewBox="0 0 1025 277" width="1025px" zoomAndPan="magnify"><title>System Logging</title><defs/><g><text fill="#000000" font-family="sans-serif" font-size="14" font-weight="bold" lengthAdjust="spacing" textLength="108.8965" x="451.2346" y="25.1074">System Logging</text><!--cluster Log Aggregate--><g id="cluster_Log Aggregate"><rect fill="none" height="225" rx="2.5" ry="2.5" style="stroke:#000000;stroke-width:1.5;" width="450" x="7" y="46.6211"/><text fill="#000000" font-family="sans-serif" font-size="14" font-weight="bold" lengthAdjust="spacing" textLength="98.7793" x="182.6104" y="63.7285">Log Aggregate</text></g><!--class Log--><g id="elem_Log"><rect codeLine="33" fill="#FFFACD" height="68.543" id="Log" rx="2.5" ry="2.5" style="stroke:#8B4513;stroke-width:0.5;" width="44.0293" x="285" y="83.6211"/><text fill="#000000" font-family="sans-serif" font-size="12" font-style="italic" lengthAdjust="spacing" textLength="42.0293" x="286" y="101.5703">&#171;entity&#187;</text><text fill="#000000" font-family="sans-serif" font-size="12" font-style="italic" lengthAdjust="spacing" textLength="34.0254" x="290.002" y="117.5313">&#171;root&#187;</text><text fill="#000000" font-family="sans-serif" font-size="14" lengthAdjust="spacing" textLength="23.3584" x="295.3354" y="135.6504">Log</text><line style="stroke:#8B4513;stroke-width:0.5;" x1="286" x2="328.0293" y1="144.1641" y2="144.1641"/></g><!--entity Timestamp--><g id="elem_Timestamp"><rect fill="#FFFACD" height="43.2422" rx="2.5" ry="2.5" style="stroke:#8B4513;stroke-width:0.5;" width="115.7305" x="23" y="212.6211"/><text fill="#000000" font-family="sans-serif" font-size="14" font-style="italic" lengthAdjust="spacing" textLength="95.7305" x="33" y="230.7285">&#171;Value Object&#187;</text><text fill="#000000" font-family="sans-serif" font-size="14" lengthAdjust="spacing" textLength="69.2344" x="46.248" y="249.3496">Timestamp</text></g><!--entity Action--><g id="elem_Action"><rect fill="#FFFACD" height="43.2422" rx="2.5" ry="2.5" style="stroke:#8B4513;stroke-width:0.5;" width="115.7305" x="174" y="212.6211"/><text fill="#000000" font-family="sans-serif" font-size="14" font-style="italic" lengthAdjust="spacing" textLength="95.7305" x="184" y="230.7285">&#171;Value Object&#187;</text><text fill="#000000" font-family="sans-serif" font-size="14" lengthAdjust="spacing" textLength="38.9102" x="212.4102" y="249.3496">Action</text></g><!--entity Author--><g id="elem_Author"><rect fill="#FFFACD" height="43.2422" rx="2.5" ry="2.5" style="stroke:#8B4513;stroke-width:0.5;" width="115.7305" x="325" y="212.6211"/><text fill="#000000" font-family="sans-serif" font-size="14" font-style="italic" lengthAdjust="spacing" textLength="95.7305" x="335" y="230.7285">&#171;Value Object&#187;</text><text fill="#000000" font-family="sans-serif" font-size="14" lengthAdjust="spacing" textLength="41.248" x="362.2412" y="249.3496">Author</text></g><g id="elem_GMN10"><path d="M473.5,104.6211 L473.5,114.1211 L329.29,118.1211 L473.5,122.1211 L473.5,131.9121 A0,0 0 0 0 473.5,131.9121 L1018.3657,131.9121 A0,0 0 0 0 1018.3657,131.9121 L1018.3657,114.6211 L1008.3657,104.6211 L473.5,104.6211 A0,0 0 0 0 473.5,104.6211 " fill="#FEFFDD" style="stroke:#181818;stroke-width:0.5;"/><path d="M1008.3657,104.6211 L1008.3657,114.6211 L1018.3657,114.6211 L1008.3657,104.6211 " fill="#FEFFDD" style="stroke:#181818;stroke-width:0.5;"/><text fill="#000000" font-family="sans-serif" font-size="13" lengthAdjust="spacing" textLength="523.8657" x="479.5" y="123.6494">They will be used to keep track of the actions taken by the users in compliance with GPDR.</text></g><!--link Log to Timestamp--><g id="link_Log_Timestamp"><path codeLine="41" d="M284.92,130.2611 C247.16,149.3111 174.9773,185.7195 127.1473,209.8395 " fill="none" id="Log-to-Timestamp" style="stroke:#A52A2A;stroke-width:1.0;"/><polygon fill="#A52A2A" points="121.79,212.5411,131.6271,212.0602,126.2545,210.2897,128.0249,204.9171,121.79,212.5411" style="stroke:#A52A2A;stroke-width:1.0;"/><text fill="#000000" font-family="sans-serif" font-size="13" lengthAdjust="spacing" textLength="7.23" x="269.7984" y="128.5689">1</text><text fill="#000000" font-family="sans-serif" font-size="13" lengthAdjust="spacing" textLength="7.23" x="124.8788" y="201.492">1</text></g><!--link Log to Action--><g id="link_Log_Action"><path codeLine="42" d="M284.9,152.7111 C272.2,172.0211 259.9361,190.6476 248.9961,207.2876 " fill="none" id="Log-to-Action" style="stroke:#A52A2A;stroke-width:1.0;"/><polygon fill="#A52A2A" points="245.7,212.3011,253.9866,206.9782,248.4468,208.1232,247.3019,202.5834,245.7,212.3011" style="stroke:#A52A2A;stroke-width:1.0;"/><text fill="#000000" font-family="sans-serif" font-size="13" lengthAdjust="spacing" textLength="7.23" x="269.772" y="158.1748">1</text><text fill="#000000" font-family="sans-serif" font-size="13" lengthAdjust="spacing" textLength="7.23" x="241.5084" y="201.1875">1</text></g><!--link Log to Author--><g id="link_Log_Author"><path codeLine="43" d="M329.19,152.4011 C342.16,171.8511 354.7818,190.7988 365.9418,207.5388 " fill="none" id="Log-to-Author" style="stroke:#A52A2A;stroke-width:1.0;"/><polygon fill="#A52A2A" points="369.27,212.5311,367.6059,202.8238,366.4965,208.3708,360.9495,207.2614,369.27,212.5311" style="stroke:#A52A2A;stroke-width:1.0;"/><text fill="#000000" font-family="sans-serif" font-size="13" lengthAdjust="spacing" textLength="7.23" x="325.537" y="174.1162">1</text><text fill="#000000" font-family="sans-serif" font-size="13" lengthAdjust="spacing" textLength="7.23" x="357.7066" y="201.4793">1</text></g><!--SRC=[rP91Qzmm48Nl-XN3Nd9AQQzXCNWtK1PCicINNejM6ilgoXeZZTcw9V-zOpabsoRqNX-4hFayVkzfRk3eEQ3YUON3b1bxQCWv7vrIdRS8nYSZHDdto1tPh7G8TFdQ- -y5K_diuw2Jxi44dNFDdFnfPDmPYWV_0-7Z6mP-Af2dyIqsFkA6aiMqfK09xiawJ9imuf-8DcUNQ8nsmUhzljbjw-FkyQ5mVzSRx2bkEz-s50jGfqINfRQHtN9u_UE3jZRWKdk-LZn8Q-tmm9E4bD2mZauYkVQaa_qFBAaN9x2IEuRQkOHECwv4UlaKemp2D0y0hDVBIrMjruc8g-h5t_E25iT7tsDctG-2Vz5Y3nvFtoIVgdfbQiEUuh-0KOOglGKASVE4GSyDSkU733xcUGwvas5btRQWVtjOWXNXgq-hszjArbTrxzGMLUyLYXebQKLYkMtlEWPg2tK7nmudkFWGu8GmPhJ016V40JX9j3CuQzEbUmRMPunmcigXu6bs08Rw8NWT3Kehxk3p_lxfW_e5]--></g></svg>