<svg xmlns="http://www.w3.org/2000/svg" xmlns:xlink="http://www.w3.org/1999/xlink" contentStyleType="text/css" height="747px" preserveAspectRatio="none" style="width:1585px;height:747px;background:#FFFFFF;" version="1.1" viewBox="0 0 1585 747" width="1585px" zoomAndPan="magnify"><defs/><g><!--cluster User Aggregate--><g id="cluster_User Aggregate"><rect fill="none" height="345" rx="2.5" ry="2.5" style="stroke:#000000;stroke-width:1.5;" width="451" x="506.5" y="7"/><text fill="#000000" font-family="sans-serif" font-size="14" font-weight="bold" lengthAdjust="spacing" textLength="104.2549" x="679.8726" y="24.1074">User Aggregate</text></g><!--cluster Patient Aggregate--><g id="cluster_Patient Aggregate"><rect fill="none" height="330" rx="2.5" ry="2.5" style="stroke:#000000;stroke-width:1.5;" width="1530" x="49.5" y="411"/><text fill="#000000" font-family="sans-serif" font-size="14" font-weight="bold" lengthAdjust="spacing" textLength="119.7998" x="754.6001" y="428.1074">Patient Aggregate</text></g><!--class User--><g id="elem_User"><rect codeLine="29" fill="#FFFACD" height="68.543" id="User" rx="2.5" ry="2.5" style="stroke:#8B4513;stroke-width:0.5;" width="44.0293" x="736.5" y="259"/><text fill="#000000" font-family="sans-serif" font-size="12" font-style="italic" lengthAdjust="spacing" textLength="42.0293" x="737.5" y="276.9492">&#171;entity&#187;</text><text fill="#000000" font-family="sans-serif" font-size="12" font-style="italic" lengthAdjust="spacing" textLength="34.0254" x="741.502" y="292.9102">&#171;root&#187;</text><text fill="#000000" font-family="sans-serif" font-size="14" lengthAdjust="spacing" textLength="29.5586" x="743.7354" y="311.0293">User</text><line style="stroke:#8B4513;stroke-width:0.5;" x1="737.5" x2="779.5293" y1="319.543" y2="319.543"/></g><!--entity Username--><g id="elem_Username"><rect fill="#FFFACD" height="43.2422" rx="2.5" ry="2.5" style="stroke:#8B4513;stroke-width:0.5;" width="115.7305" x="549.5" y="103.5"/><text fill="#000000" font-family="sans-serif" font-size="14" font-style="italic" lengthAdjust="spacing" textLength="95.7305" x="559.5" y="121.6074">&#171;Value Object&#187;</text><text fill="#000000" font-family="sans-serif" font-size="14" lengthAdjust="spacing" textLength="64.5791" x="575.0757" y="140.2285">Username</text></g><!--entity Email--><g id="elem_Email"><rect fill="#FFFACD" height="43.2422" rx="2.5" ry="2.5" style="stroke:#8B4513;stroke-width:0.5;" width="115.7305" x="700.5" y="103.5"/><text fill="#000000" font-family="sans-serif" font-size="14" font-style="italic" lengthAdjust="spacing" textLength="95.7305" x="710.5" y="121.6074">&#171;Value Object&#187;</text><text fill="#000000" font-family="sans-serif" font-size="14" lengthAdjust="spacing" textLength="35.0068" x="740.8618" y="140.2285">Email</text></g><!--class Role--><g id="elem_Role"><rect codeLine="35" fill="#FFFACD" height="145.6875" id="Role" rx="2.5" ry="2.5" style="stroke:#8B4513;stroke-width:0.5;" width="82.0566" x="851.5" y="52"/><text fill="#000000" font-family="sans-serif" font-size="12" font-style="italic" lengthAdjust="spacing" textLength="80.0566" x="852.5" y="69.9492">&#171;enumeration&#187;</text><text fill="#000000" font-family="sans-serif" font-size="14" lengthAdjust="spacing" textLength="28.793" x="878.1318" y="88.0684">Role</text><line style="stroke:#8B4513;stroke-width:0.5;" x1="852.5" x2="932.5566" y1="96.582" y2="96.582"/><text fill="#000000" font-family="sans-serif" font-size="14" lengthAdjust="spacing" textLength="39.6826" x="857.5" y="115.6895">Admin</text><text fill="#000000" font-family="sans-serif" font-size="14" lengthAdjust="spacing" textLength="41.2344" x="857.5" y="134.3105">Doctor</text><text fill="#000000" font-family="sans-serif" font-size="14" lengthAdjust="spacing" textLength="37.3447" x="857.5" y="152.9316">Nurse</text><text fill="#000000" font-family="sans-serif" font-size="14" lengthAdjust="spacing" textLength="67.7031" x="857.5" y="171.5527">Technician</text><text fill="#000000" font-family="sans-serif" font-size="14" lengthAdjust="spacing" textLength="43.5859" x="857.5" y="190.1738">Patient</text></g><!--class Patient--><g id="elem_Patient"><rect codeLine="53" fill="#FFFACD" height="68.543" id="Patient" rx="2.5" ry="2.5" style="stroke:#8B4513;stroke-width:0.5;" width="49.5859" x="733.5" y="448"/><text fill="#000000" font-family="sans-serif" font-size="12" font-style="italic" lengthAdjust="spacing" textLength="42.0293" x="737.2783" y="465.9492">&#171;entity&#187;</text><text fill="#000000" font-family="sans-serif" font-size="12" font-style="italic" lengthAdjust="spacing" textLength="34.0254" x="741.2803" y="481.9102">&#171;root&#187;</text><text fill="#000000" font-family="sans-serif" font-size="14" lengthAdjust="spacing" textLength="43.5859" x="736.5" y="500.0293">Patient</text><line style="stroke:#8B4513;stroke-width:0.5;" x1="734.5" x2="782.0859" y1="508.543" y2="508.543"/></g><!--entity PatientFirstName--><g id="elem_PatientFirstName"><rect fill="#FFFACD" height="43.2422" rx="2.5" ry="2.5" style="stroke:#8B4513;stroke-width:0.5;" width="128.1445" x="65.5" y="578"/><text fill="#000000" font-family="sans-serif" font-size="14" font-style="italic" lengthAdjust="spacing" textLength="95.7305" x="81.707" y="596.1074">&#171;Value Object&#187;</text><text fill="#000000" font-family="sans-serif" font-size="14" lengthAdjust="spacing" textLength="108.1445" x="75.5" y="614.7285">PatientFirstName</text></g><!--entity PatientLastName--><g id="elem_PatientLastName"><rect fill="#FFFACD" height="43.2422" rx="2.5" ry="2.5" style="stroke:#8B4513;stroke-width:0.5;" width="127.3926" x="229" y="578"/><text fill="#000000" font-family="sans-serif" font-size="14" font-style="italic" lengthAdjust="spacing" textLength="95.7305" x="244.8311" y="596.1074">&#171;Value Object&#187;</text><text fill="#000000" font-family="sans-serif" font-size="14" lengthAdjust="spacing" textLength="107.3926" x="239" y="614.7285">PatientLastName</text></g><!--entity PatientFullName--><g id="elem_PatientFullName"><rect fill="#FFFACD" height="43.2422" rx="2.5" ry="2.5" style="stroke:#8B4513;stroke-width:0.5;" width="123.4893" x="391" y="578"/><text fill="#000000" font-family="sans-serif" font-size="14" font-style="italic" lengthAdjust="spacing" textLength="95.7305" x="404.8794" y="596.1074">&#171;Value Object&#187;</text><text fill="#000000" font-family="sans-serif" font-size="14" lengthAdjust="spacing" textLength="103.4893" x="401" y="614.7285">PatientFullName</text></g><!--entity DateOfBirth--><g id="elem_DateOfBirth"><rect fill="#FFFACD" height="43.2422" rx="2.5" ry="2.5" style="stroke:#8B4513;stroke-width:0.5;" width="115.7305" x="549.5" y="578"/><text fill="#000000" font-family="sans-serif" font-size="14" font-style="italic" lengthAdjust="spacing" textLength="95.7305" x="559.5" y="596.1074">&#171;Value Object&#187;</text><text fill="#000000" font-family="sans-serif" font-size="14" lengthAdjust="spacing" textLength="73.1377" x="570.7964" y="614.7285">DateOfBirth</text></g><!--entity Gender--><g id="elem_Gender"><rect fill="#FFFACD" height="43.2422" rx="2.5" ry="2.5" style="stroke:#8B4513;stroke-width:0.5;" width="115.7305" x="700.5" y="578"/><text fill="#000000" font-family="sans-serif" font-size="14" font-style="italic" lengthAdjust="spacing" textLength="95.7305" x="710.5" y="596.1074">&#171;Value Object&#187;</text><text fill="#000000" font-family="sans-serif" font-size="14" lengthAdjust="spacing" textLength="46.6963" x="735.0171" y="614.7285">Gender</text></g><!--entity MedicalRecordNumber--><g id="elem_MedicalRecordNumber"><rect fill="#FFFACD" height="43.2422" rx="2.5" ry="2.5" style="stroke:#8B4513;stroke-width:0.5;" width="163.165" x="852" y="578"/><text fill="#000000" font-family="sans-serif" font-size="14" font-style="italic" lengthAdjust="spacing" textLength="95.7305" x="885.7173" y="596.1074">&#171;Value Object&#187;</text><text fill="#000000" font-family="sans-serif" font-size="14" lengthAdjust="spacing" textLength="143.165" x="862" y="614.7285">MedicalRecordNumber</text></g><!--entity ContactInformation--><g id="elem_ContactInformation"><rect fill="#FFFACD" height="43.2422" rx="2.5" ry="2.5" style="stroke:#8B4513;stroke-width:0.5;" width="138.2822" x="1050.5" y="578"/><text fill="#000000" font-family="sans-serif" font-size="14" font-style="italic" lengthAdjust="spacing" textLength="95.7305" x="1071.7759" y="596.1074">&#171;Value Object&#187;</text><text fill="#000000" font-family="sans-serif" font-size="14" lengthAdjust="spacing" textLength="118.2822" x="1060.5" y="614.7285">ContactInformation</text></g><!--entity AllergiesAndConditions--><g id="elem_AllergiesAndConditions"><rect fill="#FFFACD" height="43.2422" rx="2.5" ry="2.5" style="stroke:#8B4513;stroke-width:0.5;" width="164.751" x="1224" y="578"/><text fill="#000000" font-family="sans-serif" font-size="14" font-style="italic" lengthAdjust="spacing" textLength="95.7305" x="1258.5103" y="596.1074">&#171;Value Object&#187;</text><text fill="#000000" font-family="sans-serif" font-size="14" lengthAdjust="spacing" textLength="144.751" x="1234" y="614.7285">AllergiesAndConditions</text></g><!--entity EmergencyContact--><g id="elem_EmergencyContact"><rect fill="#FFFACD" height="43.2422" rx="2.5" ry="2.5" style="stroke:#8B4513;stroke-width:0.5;" width="139.0547" x="1424" y="578"/><text fill="#000000" font-family="sans-serif" font-size="14" font-style="italic" lengthAdjust="spacing" textLength="95.7305" x="1445.6621" y="596.1074">&#171;Value Object&#187;</text><text fill="#000000" font-family="sans-serif" font-size="14" lengthAdjust="spacing" textLength="119.0547" x="1434" y="614.7285">EmergencyContact</text></g><!--entity PatientEmail--><g id="elem_PatientEmail"><rect fill="#FFFACD" height="43.2422" rx="2.5" ry="2.5" style="stroke:#8B4513;stroke-width:0.5;" width="115.7305" x="1003.5" y="682"/><text fill="#000000" font-family="sans-serif" font-size="14" font-style="italic" lengthAdjust="spacing" textLength="95.7305" x="1013.5" y="700.1074">&#171;Value Object&#187;</text><text fill="#000000" font-family="sans-serif" font-size="14" lengthAdjust="spacing" textLength="78.5928" x="1022.0688" y="718.7285">PatientEmail</text></g><!--entity PhoneNumber--><g id="elem_PhoneNumber"><rect fill="#FFFACD" height="43.2422" rx="2.5" ry="2.5" style="stroke:#8B4513;stroke-width:0.5;" width="115.7305" x="1154.5" y="682"/><text fill="#000000" font-family="sans-serif" font-size="14" font-style="italic" lengthAdjust="spacing" textLength="95.7305" x="1164.5" y="700.1074">&#171;Value Object&#187;</text><text fill="#000000" font-family="sans-serif" font-size="14" lengthAdjust="spacing" textLength="90.2754" x="1167.2275" y="718.7285">PhoneNumber</text></g><g id="elem_GMN13"><path d="M6,111.5 L6,138.791 L478.6167,138.791 L478.6167,121.5 L468.6167,111.5 L6,111.5 " fill="#FEFFDD" style="stroke:#181818;stroke-width:0.5;"/><path d="M468.6167,111.5 L468.6167,121.5 L478.6167,121.5 L468.6167,111.5 " fill="#FEFFDD" style="stroke:#181818;stroke-width:1.0;"/><text fill="#000000" font-family="sans-serif" font-size="13" lengthAdjust="spacing" textLength="451.6167" x="12" y="130.5283">This logic is abstracted by the backend and is implemented in the IAM process</text></g><!--reverse link Username to User--><g id="link_Username_User"><path codeLine="44" d="M630.3511,151.1941 C658.2611,181.9641 706.48,235.14 736.25,267.97 " fill="none" id="Username-backto-User" style="stroke:#A52A2A;stroke-width:1.0;"/><polygon fill="#A52A2A" points="626.32,146.75,629.4038,156.1036,629.6792,150.4535,635.3294,150.7288,626.32,146.75" style="stroke:#A52A2A;stroke-width:1.0;"/><text fill="#000000" font-family="sans-serif" font-size="13" lengthAdjust="spacing" textLength="7.23" x="623.5044" y="168.9146">1</text><text fill="#000000" font-family="sans-serif" font-size="13" lengthAdjust="spacing" textLength="7.23" x="721.3948" y="254.6912">1</text></g><!--reverse link Email to User--><g id="link_Email_User"><path codeLine="45" d="M758.5,152.75 C758.5,180.82 758.5,225.23 758.5,258.78 " fill="none" id="Email-backto-User" style="stroke:#A52A2A;stroke-width:1.0;"/><polygon fill="#A52A2A" points="758.5,146.75,754.5,155.75,758.5,151.75,762.5,155.75,758.5,146.75" style="stroke:#A52A2A;stroke-width:1.0;"/><text fill="#000000" font-family="sans-serif" font-size="13" lengthAdjust="spacing" textLength="7.23" x="750.6265" y="168.9146">1</text><text fill="#000000" font-family="sans-serif" font-size="13" lengthAdjust="spacing" textLength="7.23" x="750.8519" y="247.6408">1</text></g><!--reverse link Role to User--><g id="link_Role_User"><path codeLine="46" d="M847.4388,181.9848 C824.2188,210.8448 799.9,241.06 780.77,264.83 " fill="none" id="Role-backto-User" style="stroke:#A52A2A;stroke-width:1.0;"/><polygon fill="#A52A2A" points="851.2,177.31,842.4417,181.8147,848.0657,181.2056,848.6747,186.8296,851.2,177.31" style="stroke:#A52A2A;stroke-width:1.0;"/><text fill="#000000" font-family="sans-serif" font-size="13" lengthAdjust="spacing" textLength="7.23" x="836.2354" y="182.1957">1</text><text fill="#000000" font-family="sans-serif" font-size="13" lengthAdjust="spacing" textLength="7.23" x="788.3694" y="251.0495">1</text></g><!--link GMN13 to User Aggregate--><g id="link_GMN13_User Aggregate"><path d="M479.17,125 C484.965,125 490.7625,125 496.56,125 C499.4588,125 502.3575,125 505.2559,125 C505.6182,125 505.9805,125 506.3428,125 C506.3881,125 506.4334,125 506.4787,125 " fill="none" id="GMN13-User Aggregate" style="stroke:#A52A2A;stroke-width:1.0;stroke-dasharray:7.0,7.0;"/></g><!--link ContactInformation to PatientEmail--><g id="link_ContactInformation_PatientEmail"><path codeLine="72" d="M1107.76,621.14 C1097.7,638.84 1086.246,658.9844 1076.186,676.6744 " fill="none" id="ContactInformation-to-PatientEmail" style="stroke:#A52A2A;stroke-width:1.0;"/><polygon fill="#A52A2A" points="1073.22,681.89,1081.1461,676.0439,1075.6917,677.5437,1074.192,672.0892,1073.22,681.89" style="stroke:#A52A2A;stroke-width:1.0;"/><text fill="#000000" font-family="sans-serif" font-size="13" lengthAdjust="spacing" textLength="7.23" x="1096.6572" y="643.275">1</text><text fill="#000000" font-family="sans-serif" font-size="13" lengthAdjust="spacing" textLength="7.23" x="1068.4962" y="670.8328">1</text></g><!--link ContactInformation to PhoneNumber--><g id="link_ContactInformation_PhoneNumber"><path codeLine="73" d="M1138.32,621.14 C1154.46,638.84 1173.5374,659.7664 1189.6674,677.4564 " fill="none" id="ContactInformation-to-PhoneNumber" style="stroke:#A52A2A;stroke-width:1.0;"/><polygon fill="#A52A2A" points="1193.71,681.89,1190.6018,672.5445,1190.3411,678.1953,1184.6903,677.9347,1193.71,681.89" style="stroke:#A52A2A;stroke-width:1.0;"/><text fill="#000000" font-family="sans-serif" font-size="13" lengthAdjust="spacing" textLength="7.23" x="1135.4302" y="643.275">1</text><text fill="#000000" font-family="sans-serif" font-size="13" lengthAdjust="spacing" textLength="7.23" x="1180.7867" y="670.8328">1</text></g><!--link Patient to PatientFirstName--><g id="link_Patient_PatientFirstName"><path codeLine="76" d="M733.29,487.18 C655.34,498.69 411.4,535.8 211.5,578 C205.76,579.21 205.6554,579.1965 199.6954,580.5765 " fill="none" id="Patient-to-PatientFirstName" style="stroke:#A52A2A;stroke-width:1.0;"/><polygon fill="#A52A2A" points="193.85,581.93,203.5203,583.7967,198.7211,580.8021,201.7157,576.0029,193.85,581.93" style="stroke:#A52A2A;stroke-width:1.0;"/><text fill="#000000" font-family="sans-serif" font-size="13" lengthAdjust="spacing" textLength="7.23" x="718.3059" y="483.2391">1</text><text fill="#000000" font-family="sans-serif" font-size="13" lengthAdjust="spacing" textLength="7.23" x="201.7001" y="575.9468">1</text></g><!--link Patient to PatientLastName--><g id="link_Patient_PatientLastName"><path codeLine="77" d="M733.26,489.63 C671.72,504.59 509.07,544.21 373.5,578 C367.87,579.4 367.8397,579.4101 361.9797,580.8801 " fill="none" id="Patient-to-PatientLastName" style="stroke:#A52A2A;stroke-width:1.0;"/><polygon fill="#A52A2A" points="356.16,582.34,365.8628,584.03,361.0097,581.1234,363.9163,576.2704,356.16,582.34" style="stroke:#A52A2A;stroke-width:1.0;"/><text fill="#000000" font-family="sans-serif" font-size="13" lengthAdjust="spacing" textLength="7.23" x="718.2674" y="508.1595">1</text><text fill="#000000" font-family="sans-serif" font-size="13" lengthAdjust="spacing" textLength="7.23" x="364.3352" y="576.244">1</text></g><!--link Patient to PatientFullName--><g id="link_Patient_PatientFullName"><path codeLine="78" d="M733.46,492.91 C684.29,511.39 579.7065,550.6992 512.8665,575.8192 " fill="none" id="Patient-to-PatientFullName" style="stroke:#A52A2A;stroke-width:1.0;"/><polygon fill="#A52A2A" points="507.25,577.93,517.0819,578.5081,511.9304,576.171,514.2675,571.0195,507.25,577.93" style="stroke:#A52A2A;stroke-width:1.0;"/><text fill="#000000" font-family="sans-serif" font-size="13" lengthAdjust="spacing" textLength="7.23" x="718.1191" y="514.2904">1</text><text fill="#000000" font-family="sans-serif" font-size="13" lengthAdjust="spacing" textLength="7.23" x="513.9886" y="566.8836">1</text></g><!--link Patient to DateOfBirth--><g id="link_Patient_DateOfBirth"><path codeLine="79" d="M733.23,502.75 C705.94,523.53 667.4137,552.8752 639.4137,574.1952 " fill="none" id="Patient-to-DateOfBirth" style="stroke:#A52A2A;stroke-width:1.0;"/><polygon fill="#A52A2A" points="634.64,577.83,644.2237,575.5602,638.6181,574.801,639.3773,569.1953,634.64,577.83" style="stroke:#A52A2A;stroke-width:1.0;"/><text fill="#000000" font-family="sans-serif" font-size="13" lengthAdjust="spacing" textLength="7.23" x="718.229" y="524.9695">1</text><text fill="#000000" font-family="sans-serif" font-size="13" lengthAdjust="spacing" textLength="7.23" x="634.0604" y="566.7567">1</text></g><!--link Patient to Gender--><g id="link_Patient_Gender"><path codeLine="80" d="M758.5,517.07 C758.5,536.7 758.5,554.85 758.5,571.73 " fill="none" id="Patient-to-Gender" style="stroke:#A52A2A;stroke-width:1.0;"/><polygon fill="#A52A2A" points="758.5,577.73,762.5,568.73,758.5,572.73,754.5,568.73,758.5,577.73" style="stroke:#A52A2A;stroke-width:1.0;"/><text fill="#000000" font-family="sans-serif" font-size="13" lengthAdjust="spacing" textLength="7.23" x="750.9538" y="538.5653">1</text><text fill="#000000" font-family="sans-serif" font-size="13" lengthAdjust="spacing" textLength="7.23" x="750.6265" y="566.6298">1</text></g><!--link Patient to MedicalRecordNumber--><g id="link_Patient_MedicalRecordNumber"><path codeLine="81" d="M783.57,499.98 C814.86,520.53 863.3351,552.396 897.2551,574.676 " fill="none" id="Patient-to-MedicalRecordNumber" style="stroke:#A52A2A;stroke-width:1.0;"/><polygon fill="#A52A2A" points="902.27,577.97,896.9436,569.6857,898.0909,575.225,892.5516,576.3723,902.27,577.97" style="stroke:#A52A2A;stroke-width:1.0;"/><text fill="#000000" font-family="sans-serif" font-size="13" lengthAdjust="spacing" textLength="7.23" x="790.9736" y="520.7615">1</text><text fill="#000000" font-family="sans-serif" font-size="13" lengthAdjust="spacing" textLength="7.23" x="885.5113" y="566.5592">1</text></g><!--link Patient to ContactInformation--><g id="link_Patient_ContactInformation"><path codeLine="82" d="M783.6,491.5 C839.16,509.2 968.313,550.3391 1049.253,576.1191 " fill="none" id="Patient-to-ContactInformation" style="stroke:#A52A2A;stroke-width:1.0;"/><polygon fill="#A52A2A" points="1054.97,577.94,1047.6084,571.3973,1050.2058,576.4226,1045.1805,579.02,1054.97,577.94" style="stroke:#A52A2A;stroke-width:1.0;"/><text fill="#000000" font-family="sans-serif" font-size="13" lengthAdjust="spacing" textLength="7.23" x="791.0113" y="488.7523">1</text><text fill="#000000" font-family="sans-serif" font-size="13" lengthAdjust="spacing" textLength="7.23" x="1035.4222" y="569.4305">1</text></g><!--link Patient to AllergiesAndConditions--><g id="link_Patient_AllergiesAndConditions"><path codeLine="83" d="M783.83,488.82 C861.24,505.06 1091.2279,553.3277 1217.9779,579.9277 " fill="none" id="Patient-to-AllergiesAndConditions" style="stroke:#A52A2A;stroke-width:1.0;"/><polygon fill="#A52A2A" points="1223.85,581.16,1215.8634,575.3968,1218.9566,580.1331,1214.2203,583.2262,1223.85,581.16" style="stroke:#A52A2A;stroke-width:1.0;"/><text fill="#000000" font-family="sans-serif" font-size="13" lengthAdjust="spacing" textLength="7.23" x="790.9358" y="506.5519">1</text><text fill="#000000" font-family="sans-serif" font-size="13" lengthAdjust="spacing" textLength="5.0591" x="1211.0144" y="575.7163">*</text></g><!--link Patient to EmergencyContact--><g id="link_Patient_EmergencyContact"><path codeLine="84" d="M783.65,486.37 C870.48,496.46 1165.54,532.13 1406.5,578 C1412.14,579.07 1412.1029,579.0142 1417.9429,580.2642 " fill="none" id="Patient-to-EmergencyContact" style="stroke:#A52A2A;stroke-width:1.0;"/><polygon fill="#A52A2A" points="1423.81,581.52,1415.8465,575.7249,1418.9207,580.4735,1414.1721,583.5477,1423.81,581.52" style="stroke:#A52A2A;stroke-width:1.0;"/><text fill="#000000" font-family="sans-serif" font-size="13" lengthAdjust="spacing" textLength="7.23" x="791.0741" y="482.3077">1</text><text fill="#000000" font-family="sans-serif" font-size="13" lengthAdjust="spacing" textLength="7.23" x="1408.8144" y="575.6547">1</text></g><!--reverse link User to Patient--><g id="link_User_Patient"><path codeLine="88" d="M758.5,334.36 C758.5,368.25 758.5,414.09 758.5,447.89 " fill="none" id="User-backto-Patient" style="stroke:#A52A2A;stroke-width:1.0;"/><polygon fill="#A52A2A" points="758.5,328.36,754.5,337.36,758.5,333.36,762.5,337.36,758.5,328.36" style="stroke:#A52A2A;stroke-width:1.0;"/><text fill="#000000" font-family="sans-serif" font-size="13" lengthAdjust="spacing" textLength="27.46" x="759.5" y="391.0283">edits</text><text fill="#000000" font-family="sans-serif" font-size="13" lengthAdjust="spacing" textLength="7.23" x="750.9369" y="349.6318">1</text><text fill="#000000" font-family="sans-serif" font-size="13" lengthAdjust="spacing" textLength="7.23" x="750.8942" y="436.7718">1</text></g><!--SRC=[rPLBQzj04CVl-XIBBe52eBqM8v2TfZKuJaZINijwDPAcsOVONP6w9T-zezN3IYmvljPWfDNyjFFwpwh439X0AoH4PNElm9ScSn6NqZp_LFWRTH55aNj2NN7B5HEIEvTwRt5NUrWBen_m3x2FHmpx6p7wRJ273MfO6fk1NHbfBBioMG5sAMjuZN3nL5XJwwp5qhkxpNgLFgvlju5xQz-0CdfLOfuR7O3KMlFSsfPqrpuSEtxWMIQXjRsC8wveQrx0WzzBO1Q4vxgWaenpuZRx3rAAkanO_Dq1-IiA2mNt45FiuLtG7lsU1UjYqQwIPB6mnlWawJ9yQTcGSqDghe3e7vpoOxUxNrIW93aWNnH7UMpl_DMAtHi9mLkjm7AFHW-kGfAPGZsihepmnWxBRMqT3Aj74AL6WVp0tz66bCSuy0js3pBuSILMZg5sZRXz2MtYl2zBeCEZ-5DyMLycT1aodZI6N2SjJPBK0cqyC0cvPoO_xi9dzbYYOz8KA1ZTy9tpbWiF6TljGu0xQY3eZ77w4u2gag0eFo9G1sATth3A6W7EZHlUrM6-vprmLjix-1gjyzlJxU_G3J-NlAwbV8UyelXlyoLQNvwWlbAXWexdW1l8K71v3u96PbkhtKbwPRIdNgnrRgmAyZa1frA2BH1SsWolpZ38xUIK40zQx3itq-X5ktbL6TI-wVitT3GE-vdnkkY3PkEeX_FP7TL-PbOFM6aqp5LgShWc0WZSH3MRQMc7PHpD6VGXg7S7l5Vvwndldnv5C0ZyDDQB-vtDEc7FK2DHJn3DfLFqpFiJQfxRvxYSa-I7U4R7S_k-5N7KV7H676jEGyRwOvJEkvY2zYwE_W40]--></g></svg>