<?xml version="1.0" encoding="us-ascii" standalone="no"?><svg xmlns="http://www.w3.org/2000/svg" xmlns:xlink="http://www.w3.org/1999/xlink" contentStyleType="text/css" height="433px" preserveAspectRatio="none" style="width:701px;height:433px;background:#FFFFFF;" version="1.1" viewBox="0 0 701 433" width="701px" zoomAndPan="magnify"><defs/><g><text fill="#000000" font-family="sans-serif" font-size="14" font-weight="bold" lengthAdjust="spacing" textLength="100" x="293.5" y="24.5332">Domain Model</text><!--cluster User Aggregate--><g id="cluster_User Aggregate"><rect fill="none" height="333" rx="2.5" ry="2.5" style="stroke:#000000;stroke-width:1.5;" width="458" x="237" y="94.6094"/><text fill="#000000" font-family="sans-serif" font-size="14" font-weight="bold" lengthAdjust="spacing" textLength="110" x="411" y="111.1426">User Aggregate</text></g><!--class User--><g id="elem_User"><rect codeLine="39" fill="#FFFACD" height="65.7969" id="User" rx="2.5" ry="2.5" style="stroke:#8B4513;stroke-width:0.5;" width="45" x="468.5" y="337.6094"/><text fill="#000000" font-family="sans-serif" font-size="12" font-style="italic" lengthAdjust="spacing" textLength="43" x="469.5" y="355.0664">&#171;entity&#187;</text><text fill="#000000" font-family="sans-serif" font-size="12" font-style="italic" lengthAdjust="spacing" textLength="35" x="473.5" y="370.1602">&#171;root&#187;</text><text fill="#000000" font-family="sans-serif" font-size="14" lengthAdjust="spacing" textLength="29" x="476.5" y="387.3301">User</text><line style="stroke:#8B4513;stroke-width:0.5;" x1="469.5" x2="512.5" y1="395.4063" y2="395.4063"/></g><!--entity Username--><g id="elem_Username"><rect fill="#FFFACD" height="41.2188" rx="2.5" ry="2.5" style="stroke:#8B4513;stroke-width:0.5;" width="117" x="280.5" y="187.6094"/><text fill="#000000" font-family="sans-serif" font-size="14" font-style="italic" lengthAdjust="spacing" textLength="97" x="290.5" y="205.1426">&#171;Value Object&#187;</text><text fill="#000000" font-family="sans-serif" font-size="14" lengthAdjust="spacing" textLength="64" x="307" y="222.752">Username</text></g><!--entity Email--><g id="elem_Email"><rect fill="#FFFACD" height="41.2188" rx="2.5" ry="2.5" style="stroke:#8B4513;stroke-width:0.5;" width="117" x="432.5" y="187.6094"/><text fill="#000000" font-family="sans-serif" font-size="14" font-style="italic" lengthAdjust="spacing" textLength="97" x="442.5" y="205.1426">&#171;Value Object&#187;</text><text fill="#000000" font-family="sans-serif" font-size="14" lengthAdjust="spacing" textLength="34" x="474" y="222.752">Email</text></g><!--class Role--><g id="elem_Role"><rect codeLine="45" fill="#FFFACD" height="138.75" id="Role" rx="2.5" ry="2.5" style="stroke:#8B4513;stroke-width:0.5;" width="86" x="585" y="138.6094"/><text fill="#000000" font-family="sans-serif" font-size="12" font-style="italic" lengthAdjust="spacing" textLength="84" x="586" y="156.0664">&#171;enumeration&#187;</text><text fill="#000000" font-family="sans-serif" font-size="14" lengthAdjust="spacing" textLength="29" x="613.5" y="173.2363">Role</text><line style="stroke:#8B4513;stroke-width:0.5;" x1="586" x2="670" y1="181.3125" y2="181.3125"/><text fill="#000000" font-family="sans-serif" font-size="14" lengthAdjust="spacing" textLength="39" x="591" y="199.8457">Admin</text><text fill="#000000" font-family="sans-serif" font-size="14" lengthAdjust="spacing" textLength="42" x="591" y="217.4551">Doctor</text><text fill="#000000" font-family="sans-serif" font-size="14" lengthAdjust="spacing" textLength="37" x="591" y="235.0645">Nurse</text><text fill="#000000" font-family="sans-serif" font-size="14" lengthAdjust="spacing" textLength="69" x="591" y="252.6738">Technician</text><text fill="#000000" font-family="sans-serif" font-size="14" lengthAdjust="spacing" textLength="44" x="591" y="270.2832">Patient</text></g><g id="elem_GMN13"><path d="M6,44.6094 L6,70.9609 L484,70.9609 L484,54.6094 L474,44.6094 L6,44.6094 " fill="#FEFFDD" style="stroke:#181818;stroke-width:0.5;"/><path d="M474,44.6094 L474,54.6094 L484,54.6094 L474,44.6094 " fill="#FEFFDD" style="stroke:#181818;stroke-width:1.0;"/><text fill="#000000" font-family="sans-serif" font-size="13" lengthAdjust="spacing" textLength="457" x="12" y="63.1045">This logic is abstracted by the backend and is implemented in the IAM process</text></g><!--reverse link Username to User--><g id="link_Username_User"><path codeLine="55" d="M361.765,233.1465 C389.665,262.6165 438.11,313.7694 468.24,345.5794 " fill="none" id="Username-backto-User" style="stroke:#A52A2A;stroke-width:1.0;"/><polygon fill="#A52A2A" points="357.64,228.7894,360.9227,238.075,361.0775,232.4203,366.7322,232.5751,357.64,228.7894" style="stroke:#A52A2A;stroke-width:1.0;"/><text fill="#000000" font-family="sans-serif" font-size="13" lengthAdjust="spacing" textLength="7" x="354.8981" y="250.3694">1</text><text fill="#000000" font-family="sans-serif" font-size="13" lengthAdjust="spacing" textLength="7" x="453.5261" y="333.4534">1</text></g><!--reverse link Email to User--><g id="link_Email_User"><path codeLine="56" d="M491,234.7894 C491,261.9094 491,305.0994 491,337.5594 " fill="none" id="Email-backto-User" style="stroke:#A52A2A;stroke-width:1.0;"/><polygon fill="#A52A2A" points="491,228.7894,487,237.7894,491,233.7894,495,237.7894,491,228.7894" style="stroke:#A52A2A;stroke-width:1.0;"/><text fill="#000000" font-family="sans-serif" font-size="13" lengthAdjust="spacing" textLength="7" x="483.0156" y="250.3694">1</text><text fill="#000000" font-family="sans-serif" font-size="13" lengthAdjust="spacing" textLength="7" x="483.2781" y="326.6451">1</text></g><!--reverse link Role to User--><g id="link_Role_User"><path codeLine="57" d="M580.7543,264.4526 C557.2343,292.0026 533.02,320.3794 513.78,342.9294 " fill="none" id="Role-backto-User" style="stroke:#A52A2A;stroke-width:1.0;"/><polygon fill="#A52A2A" points="584.65,259.8894,575.7642,264.1371,581.4036,263.6921,581.8486,269.3314,584.65,259.8894" style="stroke:#A52A2A;stroke-width:1.0;"/><text fill="#000000" font-family="sans-serif" font-size="13" lengthAdjust="spacing" textLength="7" x="569.8905" y="264.6854">1</text><text fill="#000000" font-family="sans-serif" font-size="13" lengthAdjust="spacing" textLength="7" x="521.4998" y="330.025">1</text></g><!--link GMN13 to User Aggregate--><g id="link_GMN13_User Aggregate"><path d="M245,70.7594 C245,75.1231 245,80.4773 245,86.5122 C245,88.0209 245,89.5722 245,91.1612 C245,91.9557 245,92.7596 245,93.5723 C245,93.7755 245,93.9792 245,94.1835 " fill="none" id="GMN13-User Aggregate" style="stroke:#A52A2A;stroke-width:1.0;stroke-dasharray:7.0,7.0;"/></g><!--SRC=[rLF1Rjim3BtxAuXSUYgmNGV3W9Fk421jWoRRTP0bnjOgYGOb8yk6_ljeEKtI1Vc06R0X-ZtnyP5IPms2jgmT5jsuzfWwCh5Gpj7-XxU_R6YBuYw-sj0hLXuy1T8TaqVOAHVn4kkLVbKjRjB18J3gf4BhFZ1Yfmpj9UVrPcS3faEFG2mbY2PiRPBTQVp20tbb0poIGLSKnNcRTYh6EYMspP1mgIbix6-4JrSS-5E0F2kxmvL8pOaDye8SiIGtBVBS3VYH8dPQfY6OYLQlrwlbejukdvyoxrzyXTASHMTtEmgPK3FJViBciff-NWflb34E9-pjik8RdRpqfDZy1vPaZ7NRChOgOIoAeo-OVOl8PsGcJd8c33Bk0sIqBAUegigIYL9L7Vs-JTpSWP4Pb1p6ilokn2qyDp-bNLLrfdoLa-EkyQFUuE6576QrmIEhP2cSfB9busquHG-a4_4fV1euuYdQekw2rLQT-Mj9A3uk2x-35tHP9tQsZs137AzUwd0ohjxRCj7plzdd6TmFzrLUl9k-0MV3Dx3Hgqn5AWcKH9DweDtrEBx0jhCH7BLMWonK4nChdT10SyYLDZ9930QKl4AmldVenQWmv9wEZ6Nz23sJnYY3B_u2]--></g></svg>