<?xml version="1.0" encoding="us-ascii" standalone="no"?><svg xmlns="http://www.w3.org/2000/svg" xmlns:xlink="http://www.w3.org/1999/xlink" contentStyleType="text/css" height="466px" preserveAspectRatio="none" style="width:941px;height:466px;background:#FFFFFF;" version="1.1" viewBox="0 0 941 466" width="941px" zoomAndPan="magnify"><defs/><g><text fill="#000000" font-family="sans-serif" font-size="14" font-weight="bold" lengthAdjust="spacing" textLength="712" x="113.75" y="29.5332">US 5.1.6 - As a (non-authenticated) Backoffice User, I want to log in to the system using my credentials</text><rect fill="#FFFFFF" height="234.8125" style="stroke:#181818;stroke-width:1.0;" width="10" x="52" y="131.2188"/><rect fill="#FFFFFF" height="212.4609" style="stroke:#181818;stroke-width:1.0;" width="10" x="232" y="153.5703"/><rect fill="#FFFFFF" height="151.7578" style="stroke:#181818;stroke-width:1.0;" width="10" x="458" y="183.9219"/><rect fill="#FFFFFF" height="91.0547" style="stroke:#181818;stroke-width:1.0;" width="10" x="662" y="214.2734"/><rect fill="#FFFFFF" height="30.3516" style="stroke:#181818;stroke-width:1.0;" width="10" x="856" y="244.625"/><line style="stroke:#181818;stroke-width:0.5;stroke-dasharray:5.0,5.0;" x1="57" x2="57" y1="121.2188" y2="384.0313"/><line style="stroke:#181818;stroke-width:0.5;stroke-dasharray:5.0,5.0;" x1="237" x2="237" y1="121.2188" y2="384.0313"/><line style="stroke:#181818;stroke-width:0.5;stroke-dasharray:5.0,5.0;" x1="462.5" x2="462.5" y1="121.2188" y2="384.0313"/><line style="stroke:#181818;stroke-width:0.5;stroke-dasharray:5.0,5.0;" x1="667" x2="667" y1="121.2188" y2="384.0313"/><line style="stroke:#181818;stroke-width:0.5;stroke-dasharray:5.0,5.0;" x1="860.5" x2="860.5" y1="121.2188" y2="384.0313"/><text fill="#000000" font-family="sans-serif" font-size="14" lengthAdjust="spacing" textLength="98" x="5" y="118.1426">Backoffice User</text><ellipse cx="57" cy="52.1094" fill="#E2E2F0" rx="8" ry="8" style="stroke:#181818;stroke-width:0.5;"/><path d="M57,60.1094 L57,87.1094 M44,68.1094 L70,68.1094 M57,87.1094 L44,102.1094 M57,87.1094 L70,102.1094 " fill="none" style="stroke:#181818;stroke-width:0.5;"/><text fill="#000000" font-family="sans-serif" font-size="14" lengthAdjust="spacing" textLength="98" x="5" y="397.5645">Backoffice User</text><ellipse cx="57" cy="409.1406" fill="#E2E2F0" rx="8" ry="8" style="stroke:#181818;stroke-width:0.5;"/><path d="M57,417.1406 L57,444.1406 M44,425.1406 L70,425.1406 M57,444.1406 L44,459.1406 M57,444.1406 L70,459.1406 " fill="none" style="stroke:#181818;stroke-width:0.5;"/><rect fill="#E2E2F0" height="31.6094" rx="2.5" ry="2.5" style="stroke:#181818;stroke-width:0.5;" width="52" x="211" y="88.6094"/><text fill="#000000" font-family="sans-serif" font-size="14" lengthAdjust="spacing" textLength="38" x="218" y="110.1426">Route</text><rect fill="#E2E2F0" height="31.6094" rx="2.5" ry="2.5" style="stroke:#181818;stroke-width:0.5;" width="52" x="211" y="383.0313"/><text fill="#000000" font-family="sans-serif" font-size="14" lengthAdjust="spacing" textLength="38" x="218" y="404.5645">Route</text><rect fill="#E2E2F0" height="31.6094" rx="2.5" ry="2.5" style="stroke:#181818;stroke-width:0.5;" width="109" x="408.5" y="88.6094"/><text fill="#000000" font-family="sans-serif" font-size="14" lengthAdjust="spacing" textLength="95" x="415.5" y="110.1426">:UserController</text><rect fill="#E2E2F0" height="31.6094" rx="2.5" ry="2.5" style="stroke:#181818;stroke-width:0.5;" width="109" x="408.5" y="383.0313"/><text fill="#000000" font-family="sans-serif" font-size="14" lengthAdjust="spacing" textLength="95" x="415.5" y="404.5645">:UserController</text><rect fill="#E2E2F0" height="31.6094" rx="2.5" ry="2.5" style="stroke:#181818;stroke-width:0.5;" width="94" x="620" y="88.6094"/><text fill="#000000" font-family="sans-serif" font-size="14" lengthAdjust="spacing" textLength="80" x="627" y="110.1426">:AuthService</text><rect fill="#E2E2F0" height="31.6094" rx="2.5" ry="2.5" style="stroke:#181818;stroke-width:0.5;" width="94" x="620" y="383.0313"/><text fill="#000000" font-family="sans-serif" font-size="14" lengthAdjust="spacing" textLength="80" x="627" y="404.5645">:AuthService</text><rect fill="#E2E2F0" height="31.6094" rx="2.5" ry="2.5" style="stroke:#181818;stroke-width:0.5;" width="149" x="786.5" y="88.6094"/><text fill="#000000" font-family="sans-serif" font-size="14" lengthAdjust="spacing" textLength="135" x="793.5" y="110.1426">External IAM Provider</text><rect fill="#E2E2F0" height="31.6094" rx="2.5" ry="2.5" style="stroke:#181818;stroke-width:0.5;" width="149" x="786.5" y="383.0313"/><text fill="#000000" font-family="sans-serif" font-size="14" lengthAdjust="spacing" textLength="135" x="793.5" y="404.5645">External IAM Provider</text><rect fill="#FFFFFF" height="234.8125" style="stroke:#181818;stroke-width:1.0;" width="10" x="52" y="131.2188"/><rect fill="#FFFFFF" height="212.4609" style="stroke:#181818;stroke-width:1.0;" width="10" x="232" y="153.5703"/><rect fill="#FFFFFF" height="151.7578" style="stroke:#181818;stroke-width:1.0;" width="10" x="458" y="183.9219"/><rect fill="#FFFFFF" height="91.0547" style="stroke:#181818;stroke-width:1.0;" width="10" x="662" y="214.2734"/><rect fill="#FFFFFF" height="30.3516" style="stroke:#181818;stroke-width:1.0;" width="10" x="856" y="244.625"/><polygon fill="#A52A2A" points="220,149.5703,230,153.5703,220,157.5703,224,153.5703" style="stroke:#A52A2A;stroke-width:1.0;"/><line style="stroke:#A52A2A;stroke-width:1.0;" x1="62" x2="226" y1="153.5703" y2="153.5703"/><text fill="#000000" font-family="sans-serif" font-size="13" lengthAdjust="spacing" textLength="151" x="69" y="148.7139">POST /api/User/login-user</text><polygon fill="#A52A2A" points="446,179.9219,456,183.9219,446,187.9219,450,183.9219" style="stroke:#A52A2A;stroke-width:1.0;"/><line style="stroke:#A52A2A;stroke-width:1.0;" x1="242" x2="452" y1="183.9219" y2="183.9219"/><text fill="#000000" font-family="sans-serif" font-size="13" lengthAdjust="spacing" textLength="197" x="249" y="179.0654">LogInUserAsync(email, password)</text><polygon fill="#A52A2A" points="650,210.2734,660,214.2734,650,218.2734,654,214.2734" style="stroke:#A52A2A;stroke-width:1.0;"/><line style="stroke:#A52A2A;stroke-width:1.0;" x1="468" x2="656" y1="214.2734" y2="214.2734"/><text fill="#000000" font-family="sans-serif" font-size="13" lengthAdjust="spacing" textLength="175" x="475" y="209.417">SignInAsync(email, password)</text><polygon fill="#A52A2A" points="844,240.625,854,244.625,844,248.625,848,244.625" style="stroke:#A52A2A;stroke-width:1.0;"/><line style="stroke:#A52A2A;stroke-width:1.0;" x1="672" x2="850" y1="244.625" y2="244.625"/><text fill="#000000" font-family="sans-serif" font-size="13" lengthAdjust="spacing" textLength="153" x="679" y="239.7686">InitiateAuthAsync(request)</text><polygon fill="#A52A2A" points="683,270.9766,673,274.9766,683,278.9766,679,274.9766" style="stroke:#A52A2A;stroke-width:1.0;"/><line style="stroke:#A52A2A;stroke-width:1.0;stroke-dasharray:2.0,2.0;" x1="677" x2="860" y1="274.9766" y2="274.9766"/><text fill="#000000" font-family="sans-serif" font-size="13" lengthAdjust="spacing" textLength="160" x="689" y="270.1201">InitiateAuthAsyncResponse</text><polygon fill="#A52A2A" points="479,301.3281,469,305.3281,479,309.3281,475,305.3281" style="stroke:#A52A2A;stroke-width:1.0;"/><line style="stroke:#A52A2A;stroke-width:1.0;stroke-dasharray:2.0,2.0;" x1="473" x2="666" y1="305.3281" y2="305.3281"/><text fill="#000000" font-family="sans-serif" font-size="13" lengthAdjust="spacing" textLength="79" x="485" y="300.4717">AccessToken</text><polygon fill="#A52A2A" points="253,331.6797,243,335.6797,253,339.6797,249,335.6797" style="stroke:#A52A2A;stroke-width:1.0;"/><line style="stroke:#A52A2A;stroke-width:1.0;stroke-dasharray:2.0,2.0;" x1="247" x2="462" y1="335.6797" y2="335.6797"/><text fill="#000000" font-family="sans-serif" font-size="13" lengthAdjust="spacing" textLength="79" x="259" y="330.8232">AccessToken</text><polygon fill="#A52A2A" points="68,362.0313,58,366.0313,68,370.0313,64,366.0313" style="stroke:#A52A2A;stroke-width:1.0;"/><line style="stroke:#A52A2A;stroke-width:1.0;stroke-dasharray:2.0,2.0;" x1="62" x2="236" y1="366.0313" y2="366.0313"/><text fill="#000000" font-family="sans-serif" font-size="13" lengthAdjust="spacing" textLength="79" x="74" y="361.1748">AccessToken</text><!--SRC=[rLF1ZjCm4BtdAqOzxKhRBHpWa0EIKpX42cpKj1zWd6dMgZiEjjDI4F_Es2aYwMh5cHoIqSnxzdipaw23GTWryExnxUDxM8Bm8E6EB2tb49wHWbOoO7iFXLG7kzzhnN2FxW5AE4iA42mOsu6c6343_CK7FCBWDNLml81osCPpfF5PvW-QUkda4PIHteiGdFuw12oLfKR_G7Zp0WC_C-2dqdkiD65XNOjkROrryD6s7Rh233Y7iDJEsO7Q4IRgkYhNObi-VKcustg5HqlhPxtVMqe0uPmzZxM2ep4vlRYHRMjmhFsQAkxvQDbX4oxSLeSgIEeCpZn9r_u7bgGAd5pSJ7q1qaEnopBsmfkX-xW1Yutb2QPIYkR5FFBMbeApnbnFg3Vh6v3WPMlGdVYYX13D7F3fUq17qa0fFaFjx4ctrxCuaTJg4-zfqbRiOFbXb993_THiOILxlOewLhogcfO3XnFIg3fBdqXbUJbKjYifSeI_aBh3ezJcWUVh_PcxTZ-XHpSPlo9LD3aqkgEI_abZYvbe8eajv52IvdyaOEp4o7NuRK0VffnaDhPWURth1Mk3lhVasKwBSrgywuyveHHwlxK7f1amQafE_ZRmDMXoVMqPeulTwz1hVoUPEARiDm00]--></g></svg>