<?xml version="1.0" encoding="us-ascii" standalone="no"?><svg xmlns="http://www.w3.org/2000/svg" xmlns:xlink="http://www.w3.org/1999/xlink" contentStyleType="text/css" height="748px" preserveAspectRatio="none" style="width:1198px;height:748px;background:#FFFFFF;" version="1.1" viewBox="0 0 1198 748" width="1198px" zoomAndPan="magnify"><defs/><g><text fill="#000000" font-family="sans-serif" font-size="14" font-weight="bold" lengthAdjust="spacing" textLength="132" x="534.5" y="29.5332">Sequence Diagram</text><rect fill="#FFFFFF" height="517.2734" style="stroke:#181818;stroke-width:1.0;" width="10" x="22.5" y="131.2188"/><rect fill="#FFFFFF" height="494.9219" style="stroke:#181818;stroke-width:1.0;" width="10" x="148.5" y="153.5703"/><rect fill="#FFFFFF" height="434.2188" style="stroke:#181818;stroke-width:1.0;" width="10" x="386.5" y="183.9219"/><rect fill="#FFFFFF" height="373.5156" style="stroke:#181818;stroke-width:1.0;" width="10" x="632.5" y="214.2734"/><rect fill="#FFFFFF" height="91.0547" style="stroke:#181818;stroke-width:1.0;" width="10" x="763.5" y="244.625"/><rect fill="#FFFFFF" height="58.3516" style="stroke:#181818;stroke-width:1.0;" width="10" x="763.5" y="366.0313"/><rect fill="#FFFFFF" height="102.7031" style="stroke:#181818;stroke-width:1.0;" width="10" x="879" y="454.7344"/><rect fill="#FFFFFF" height="58.3516" style="stroke:#181818;stroke-width:1.0;" width="10" x="993" y="485.0859"/><rect fill="#FFFFFF" height="30.3516" style="stroke:#181818;stroke-width:1.0;" width="10" x="1158" y="274.9766"/><rect fill="#FFFFFF" height="14" style="stroke:#181818;stroke-width:1.0;" width="10" x="1158" y="396.3828"/><rect fill="#FFFFFF" height="14" style="stroke:#181818;stroke-width:1.0;" width="10" x="1158" y="515.4375"/><line style="stroke:#181818;stroke-width:0.5;stroke-dasharray:5.0,5.0;" x1="27" x2="27" y1="121.2188" y2="666.4922"/><line style="stroke:#181818;stroke-width:0.5;stroke-dasharray:5.0,5.0;" x1="153.5" x2="153.5" y1="121.2188" y2="666.4922"/><line style="stroke:#181818;stroke-width:0.5;stroke-dasharray:5.0,5.0;" x1="391.5" x2="391.5" y1="121.2188" y2="666.4922"/><line style="stroke:#181818;stroke-width:0.5;stroke-dasharray:5.0,5.0;" x1="637" x2="637" y1="121.2188" y2="666.4922"/><line style="stroke:#181818;stroke-width:0.5;stroke-dasharray:5.0,5.0;" x1="768.5" x2="768.5" y1="121.2188" y2="666.4922"/><line style="stroke:#181818;stroke-width:0.5;stroke-dasharray:5.0,5.0;" x1="883.5" x2="883.5" y1="121.2188" y2="666.4922"/><line style="stroke:#181818;stroke-width:0.5;stroke-dasharray:5.0,5.0;" x1="998" x2="998" y1="121.2188" y2="666.4922"/><line style="stroke:#181818;stroke-width:0.5;stroke-dasharray:5.0,5.0;" x1="1090" x2="1090" y1="121.2188" y2="666.4922"/><line style="stroke:#181818;stroke-width:0.5;stroke-dasharray:5.0,5.0;" x1="1163" x2="1163" y1="121.2188" y2="666.4922"/><text fill="#000000" font-family="sans-serif" font-size="14" lengthAdjust="spacing" textLength="39" x="5" y="118.1426">Admin</text><ellipse cx="27.5" cy="52.1094" fill="#E2E2F0" rx="8" ry="8" style="stroke:#181818;stroke-width:0.5;"/><path d="M27.5,60.1094 L27.5,87.1094 M14.5,68.1094 L40.5,68.1094 M27.5,87.1094 L14.5,102.1094 M27.5,87.1094 L40.5,102.1094 " fill="none" style="stroke:#181818;stroke-width:0.5;"/><text fill="#000000" font-family="sans-serif" font-size="14" lengthAdjust="spacing" textLength="39" x="5" y="680.0254">Admin</text><ellipse cx="27.5" cy="691.6016" fill="#E2E2F0" rx="8" ry="8" style="stroke:#181818;stroke-width:0.5;"/><path d="M27.5,699.6016 L27.5,726.6016 M14.5,707.6016 L40.5,707.6016 M27.5,726.6016 L14.5,741.6016 M27.5,726.6016 L40.5,741.6016 " fill="none" style="stroke:#181818;stroke-width:0.5;"/><rect fill="#E2E2F0" height="31.6094" rx="2.5" ry="2.5" style="stroke:#181818;stroke-width:0.5;" width="52" x="127.5" y="88.6094"/><text fill="#000000" font-family="sans-serif" font-size="14" lengthAdjust="spacing" textLength="38" x="134.5" y="110.1426">Route</text><rect fill="#E2E2F0" height="31.6094" rx="2.5" ry="2.5" style="stroke:#181818;stroke-width:0.5;" width="52" x="127.5" y="665.4922"/><text fill="#000000" font-family="sans-serif" font-size="14" lengthAdjust="spacing" textLength="38" x="134.5" y="687.0254">Route</text><rect fill="#E2E2F0" height="31.6094" rx="2.5" ry="2.5" style="stroke:#181818;stroke-width:0.5;" width="120" x="331.5" y="88.6094"/><text fill="#000000" font-family="sans-serif" font-size="14" lengthAdjust="spacing" textLength="106" x="338.5" y="110.1426">PatientController</text><rect fill="#E2E2F0" height="31.6094" rx="2.5" ry="2.5" style="stroke:#181818;stroke-width:0.5;" width="120" x="331.5" y="665.4922"/><text fill="#000000" font-family="sans-serif" font-size="14" lengthAdjust="spacing" textLength="106" x="338.5" y="687.0254">PatientController</text><rect fill="#E2E2F0" height="31.6094" rx="2.5" ry="2.5" style="stroke:#181818;stroke-width:0.5;" width="105" x="585" y="88.6094"/><text fill="#000000" font-family="sans-serif" font-size="14" lengthAdjust="spacing" textLength="91" x="592" y="110.1426">PatientService</text><rect fill="#E2E2F0" height="31.6094" rx="2.5" ry="2.5" style="stroke:#181818;stroke-width:0.5;" width="105" x="585" y="665.4922"/><text fill="#000000" font-family="sans-serif" font-size="14" lengthAdjust="spacing" textLength="91" x="592" y="687.0254">PatientService</text><rect fill="#E2E2F0" height="31.6094" rx="2.5" ry="2.5" style="stroke:#181818;stroke-width:0.5;" width="126" x="705.5" y="88.6094"/><text fill="#000000" font-family="sans-serif" font-size="14" lengthAdjust="spacing" textLength="112" x="712.5" y="110.1426">PatientRepository</text><rect fill="#E2E2F0" height="31.6094" rx="2.5" ry="2.5" style="stroke:#181818;stroke-width:0.5;" width="126" x="705.5" y="665.4922"/><text fill="#000000" font-family="sans-serif" font-size="14" lengthAdjust="spacing" textLength="112" x="712.5" y="687.0254">PatientRepository</text><rect fill="#E2E2F0" height="31.6094" rx="2.5" ry="2.5" style="stroke:#181818;stroke-width:0.5;" width="85" x="841.5" y="88.6094"/><text fill="#000000" font-family="sans-serif" font-size="14" lengthAdjust="spacing" textLength="71" x="848.5" y="110.1426">LogService</text><rect fill="#E2E2F0" height="31.6094" rx="2.5" ry="2.5" style="stroke:#181818;stroke-width:0.5;" width="85" x="841.5" y="665.4922"/><text fill="#000000" font-family="sans-serif" font-size="14" lengthAdjust="spacing" textLength="71" x="848.5" y="687.0254">LogService</text><rect fill="#E2E2F0" height="31.6094" rx="2.5" ry="2.5" style="stroke:#181818;stroke-width:0.5;" width="106" x="945" y="88.6094"/><text fill="#000000" font-family="sans-serif" font-size="14" lengthAdjust="spacing" textLength="92" x="952" y="110.1426">LogRepository</text><rect fill="#E2E2F0" height="31.6094" rx="2.5" ry="2.5" style="stroke:#181818;stroke-width:0.5;" width="106" x="945" y="665.4922"/><text fill="#000000" font-family="sans-serif" font-size="14" lengthAdjust="spacing" textLength="92" x="952" y="687.0254">LogRepository</text><rect fill="#E2E2F0" height="31.6094" rx="2.5" ry="2.5" style="stroke:#181818;stroke-width:0.5;" width="58" x="1061" y="88.6094"/><text fill="#000000" font-family="sans-serif" font-size="14" lengthAdjust="spacing" textLength="44" x="1068" y="110.1426">Patient</text><rect fill="#E2E2F0" height="31.6094" rx="2.5" ry="2.5" style="stroke:#181818;stroke-width:0.5;" width="58" x="1061" y="665.4922"/><text fill="#000000" font-family="sans-serif" font-size="14" lengthAdjust="spacing" textLength="44" x="1068" y="687.0254">Patient</text><text fill="#000000" font-family="sans-serif" font-size="14" lengthAdjust="spacing" textLength="62" x="1129" y="118.1426">DataBase</text><path d="M1145,67.6094 C1145,57.6094 1163,57.6094 1163,57.6094 C1163,57.6094 1181,57.6094 1181,67.6094 L1181,93.6094 C1181,103.6094 1163,103.6094 1163,103.6094 C1163,103.6094 1145,103.6094 1145,93.6094 L1145,67.6094 " fill="#E2E2F0" style="stroke:#181818;stroke-width:1.5;"/><path d="M1145,67.6094 C1145,77.6094 1163,77.6094 1163,77.6094 C1163,77.6094 1181,77.6094 1181,67.6094 " fill="none" style="stroke:#181818;stroke-width:1.5;"/><text fill="#000000" font-family="sans-serif" font-size="14" lengthAdjust="spacing" textLength="62" x="1129" y="680.0254">DataBase</text><path d="M1145,693.1016 C1145,683.1016 1163,683.1016 1163,683.1016 C1163,683.1016 1181,683.1016 1181,693.1016 L1181,719.1016 C1181,729.1016 1163,729.1016 1163,729.1016 C1163,729.1016 1145,729.1016 1145,719.1016 L1145,693.1016 " fill="#E2E2F0" style="stroke:#181818;stroke-width:1.5;"/><path d="M1145,693.1016 C1145,703.1016 1163,703.1016 1163,703.1016 C1163,703.1016 1181,703.1016 1181,693.1016 " fill="none" style="stroke:#181818;stroke-width:1.5;"/><rect fill="#FFFFFF" height="517.2734" style="stroke:#181818;stroke-width:1.0;" width="10" x="22.5" y="131.2188"/><rect fill="#FFFFFF" height="494.9219" style="stroke:#181818;stroke-width:1.0;" width="10" x="148.5" y="153.5703"/><rect fill="#FFFFFF" height="434.2188" style="stroke:#181818;stroke-width:1.0;" width="10" x="386.5" y="183.9219"/><rect fill="#FFFFFF" height="373.5156" style="stroke:#181818;stroke-width:1.0;" width="10" x="632.5" y="214.2734"/><rect fill="#FFFFFF" height="91.0547" style="stroke:#181818;stroke-width:1.0;" width="10" x="763.5" y="244.625"/><rect fill="#FFFFFF" height="58.3516" style="stroke:#181818;stroke-width:1.0;" width="10" x="763.5" y="366.0313"/><rect fill="#FFFFFF" height="102.7031" style="stroke:#181818;stroke-width:1.0;" width="10" x="879" y="454.7344"/><rect fill="#FFFFFF" height="58.3516" style="stroke:#181818;stroke-width:1.0;" width="10" x="993" y="485.0859"/><rect fill="#FFFFFF" height="30.3516" style="stroke:#181818;stroke-width:1.0;" width="10" x="1158" y="274.9766"/><rect fill="#FFFFFF" height="14" style="stroke:#181818;stroke-width:1.0;" width="10" x="1158" y="396.3828"/><rect fill="#FFFFFF" height="14" style="stroke:#181818;stroke-width:1.0;" width="10" x="1158" y="515.4375"/><polygon fill="#A52A2A" points="136.5,149.5703,146.5,153.5703,136.5,157.5703,140.5,153.5703" style="stroke:#A52A2A;stroke-width:1.0;"/><line style="stroke:#A52A2A;stroke-width:1.0;" x1="32.5" x2="142.5" y1="153.5703" y2="153.5703"/><text fill="#000000" font-family="sans-serif" font-size="13" lengthAdjust="spacing" textLength="97" x="39.5" y="148.7139">HttpDelete("{id}")</text><polygon fill="#A52A2A" points="374.5,179.9219,384.5,183.9219,374.5,187.9219,378.5,183.9219" style="stroke:#A52A2A;stroke-width:1.0;"/><line style="stroke:#A52A2A;stroke-width:1.0;" x1="158.5" x2="380.5" y1="183.9219" y2="183.9219"/><text fill="#000000" font-family="sans-serif" font-size="13" lengthAdjust="spacing" textLength="209" x="165.5" y="179.0654">DeletePatientAsync(id, adminEmail)</text><polygon fill="#A52A2A" points="620.5,210.2734,630.5,214.2734,620.5,218.2734,624.5,214.2734" style="stroke:#A52A2A;stroke-width:1.0;"/><line style="stroke:#A52A2A;stroke-width:1.0;" x1="396.5" x2="626.5" y1="214.2734" y2="214.2734"/><text fill="#000000" font-family="sans-serif" font-size="13" lengthAdjust="spacing" textLength="217" x="403.5" y="209.417">UpdateIsActiveAsync(id, adminEmail)</text><polygon fill="#A52A2A" points="751.5,240.625,761.5,244.625,751.5,248.625,755.5,244.625" style="stroke:#A52A2A;stroke-width:1.0;"/><line style="stroke:#A52A2A;stroke-width:1.0;" x1="642.5" x2="757.5" y1="244.625" y2="244.625"/><text fill="#000000" font-family="sans-serif" font-size="13" lengthAdjust="spacing" textLength="102" x="649.5" y="239.7686">GetByIdAsync(id)</text><polygon fill="#A52A2A" points="1146,270.9766,1156,274.9766,1146,278.9766,1150,274.9766" style="stroke:#A52A2A;stroke-width:1.0;"/><line style="stroke:#A52A2A;stroke-width:1.0;" x1="773.5" x2="1152" y1="274.9766" y2="274.9766"/><text fill="#000000" font-family="sans-serif" font-size="13" lengthAdjust="spacing" textLength="62" x="780.5" y="270.1201">getById(id)</text><polygon fill="#A52A2A" points="784.5,301.3281,774.5,305.3281,784.5,309.3281,780.5,305.3281" style="stroke:#A52A2A;stroke-width:1.0;"/><line style="stroke:#A52A2A;stroke-width:1.0;stroke-dasharray:2.0,2.0;" x1="778.5" x2="1162" y1="305.3281" y2="305.3281"/><text fill="#000000" font-family="sans-serif" font-size="13" lengthAdjust="spacing" textLength="39" x="790.5" y="300.4717">patient</text><polygon fill="#A52A2A" points="653.5,331.6797,643.5,335.6797,653.5,339.6797,649.5,335.6797" style="stroke:#A52A2A;stroke-width:1.0;"/><line style="stroke:#A52A2A;stroke-width:1.0;stroke-dasharray:2.0,2.0;" x1="647.5" x2="767.5" y1="335.6797" y2="335.6797"/><text fill="#000000" font-family="sans-serif" font-size="13" lengthAdjust="spacing" textLength="39" x="659.5" y="330.8232">patient</text><polygon fill="#A52A2A" points="751.5,362.0313,761.5,366.0313,751.5,370.0313,755.5,366.0313" style="stroke:#A52A2A;stroke-width:1.0;"/><line style="stroke:#A52A2A;stroke-width:1.0;stroke-dasharray:2.0,2.0;" x1="642.5" x2="757.5" y1="366.0313" y2="366.0313"/><text fill="#000000" font-family="sans-serif" font-size="13" lengthAdjust="spacing" textLength="93" x="649.5" y="361.1748">Remove(patient)</text><polygon fill="#A52A2A" points="1146,392.3828,1156,396.3828,1146,400.3828,1150,396.3828" style="stroke:#A52A2A;stroke-width:1.0;"/><line style="stroke:#A52A2A;stroke-width:1.0;" x1="773.5" x2="1152" y1="396.3828" y2="396.3828"/><text fill="#000000" font-family="sans-serif" font-size="13" lengthAdjust="spacing" textLength="93" x="780.5" y="391.5264">Remove(patient)</text><polygon fill="#A52A2A" points="784.5,406.3828,774.5,410.3828,784.5,414.3828,780.5,410.3828" style="stroke:#A52A2A;stroke-width:1.0;"/><line style="stroke:#A52A2A;stroke-width:1.0;stroke-dasharray:2.0,2.0;" x1="778.5" x2="1162" y1="410.3828" y2="410.3828"/><polygon fill="#A52A2A" points="653.5,420.3828,643.5,424.3828,653.5,428.3828,649.5,424.3828" style="stroke:#A52A2A;stroke-width:1.0;"/><line style="stroke:#A52A2A;stroke-width:1.0;stroke-dasharray:2.0,2.0;" x1="647.5" x2="767.5" y1="424.3828" y2="424.3828"/><polygon fill="#A52A2A" points="867,450.7344,877,454.7344,867,458.7344,871,454.7344" style="stroke:#A52A2A;stroke-width:1.0;"/><line style="stroke:#A52A2A;stroke-width:1.0;stroke-dasharray:2.0,2.0;" x1="642.5" x2="873" y1="454.7344" y2="454.7344"/><text fill="#000000" font-family="sans-serif" font-size="13" lengthAdjust="spacing" textLength="197" x="649.5" y="449.8779">CreateLogAsync(log, adminEmail)</text><polygon fill="#A52A2A" points="981,481.0859,991,485.0859,981,489.0859,985,485.0859" style="stroke:#A52A2A;stroke-width:1.0;"/><line style="stroke:#A52A2A;stroke-width:1.0;stroke-dasharray:2.0,2.0;" x1="889" x2="987" y1="485.0859" y2="485.0859"/><text fill="#000000" font-family="sans-serif" font-size="13" lengthAdjust="spacing" textLength="85" x="896" y="480.2295">AddAsync(log)</text><polygon fill="#A52A2A" points="1146,511.4375,1156,515.4375,1146,519.4375,1150,515.4375" style="stroke:#A52A2A;stroke-width:1.0;"/><line style="stroke:#A52A2A;stroke-width:1.0;" x1="1003" x2="1152" y1="515.4375" y2="515.4375"/><text fill="#000000" font-family="sans-serif" font-size="13" lengthAdjust="spacing" textLength="46" x="1010" y="510.5811">add(log)</text><polygon fill="#A52A2A" points="1014,525.4375,1004,529.4375,1014,533.4375,1010,529.4375" style="stroke:#A52A2A;stroke-width:1.0;"/><line style="stroke:#A52A2A;stroke-width:1.0;stroke-dasharray:2.0,2.0;" x1="1008" x2="1162" y1="529.4375" y2="529.4375"/><polygon fill="#A52A2A" points="900,539.4375,890,543.4375,900,547.4375,896,543.4375" style="stroke:#A52A2A;stroke-width:1.0;"/><line style="stroke:#A52A2A;stroke-width:1.0;stroke-dasharray:2.0,2.0;" x1="894" x2="997" y1="543.4375" y2="543.4375"/><polygon fill="#A52A2A" points="653.5,553.4375,643.5,557.4375,653.5,561.4375,649.5,557.4375" style="stroke:#A52A2A;stroke-width:1.0;"/><line style="stroke:#A52A2A;stroke-width:1.0;stroke-dasharray:2.0,2.0;" x1="647.5" x2="883" y1="557.4375" y2="557.4375"/><polygon fill="#A52A2A" points="407.5,583.7891,397.5,587.7891,407.5,591.7891,403.5,587.7891" style="stroke:#A52A2A;stroke-width:1.0;"/><line style="stroke:#A52A2A;stroke-width:1.0;stroke-dasharray:2.0,2.0;" x1="401.5" x2="636.5" y1="587.7891" y2="587.7891"/><text fill="#000000" font-family="sans-serif" font-size="13" lengthAdjust="spacing" textLength="22" x="413.5" y="582.9326">true</text><polygon fill="#A52A2A" points="169.5,614.1406,159.5,618.1406,169.5,622.1406,165.5,618.1406" style="stroke:#A52A2A;stroke-width:1.0;"/><line style="stroke:#A52A2A;stroke-width:1.0;stroke-dasharray:2.0,2.0;" x1="163.5" x2="390.5" y1="618.1406" y2="618.1406"/><text fill="#000000" font-family="sans-serif" font-size="13" lengthAdjust="spacing" textLength="22" x="175.5" y="613.2842">true</text><polygon fill="#A52A2A" points="38.5,644.4922,28.5,648.4922,38.5,652.4922,34.5,648.4922" style="stroke:#A52A2A;stroke-width:1.0;"/><line style="stroke:#A52A2A;stroke-width:1.0;stroke-dasharray:2.0,2.0;" x1="32.5" x2="152.5" y1="648.4922" y2="648.4922"/><text fill="#000000" font-family="sans-serif" font-size="13" lengthAdjust="spacing" textLength="22" x="44.5" y="643.6357">true</text><!--SRC=[rPJDZfim4CVlF8N5APMwKiySAW6fMYJKHj0yW8Cdr5h7fiQaIbVxxXri2CPXstCv4Dlpc_zyu8dXHW2fuUS0iW6ovxJLz4AY_fdBZexBHj2-JutH_3GOA1ebQ_uRo8SePCXBHF0f-HbABY5Jce7EbL2Qx1LhGMTYW3L2c-TMgq4oXwM7GrdawVVYsrVBXVOIBahcF_ZvhAG5KgtLBsVBSEKE_S0rPKo0ixtw6NSeJLkepGtBrz0OAbi1gvgePlz1IRGnOnXsuJB2n0rlU4Ub8N6by7F5XFRaMAmj1seuI9ChQRGI0hIbbkqcNOE-yiO93ZteUfEge5CznunkTx1QWwLgVQbn-m04AkF9PhHxZ8XHGq-q1nBlSPNXojhOoJQ8Nwc1gKVsJPu-ObSIyiMORWy23EpY5yvUutSBZbqx5YEuD2Pnx1GzxM-osN7sdj1HyzE5Sk7vU_rSbgEUxHv9oB73hA7eqz43_g7cMkvS9uqADJw3oMu5cvq3Xuf4xWSzs0dnrk5h4fk4ngTPDS7PiFL537ncKfeBsCJSzmvFNDfUW0el_HLsaq2OT93pct2GD_bxlezfJir4OBo462dNW5RSk7OArRxnCImVsVVaFdwBbB6xungkBBoKX1CSG7Wy5-FuTItEUyxKDzhPk6VYIWhijLUfTnCJOZJ-UGLjGM__jjevsK0znau9Scwm7b6S8s_dXZ1u_W00]--></g></svg>