<?xml version="1.0" encoding="us-ascii" standalone="no"?><svg xmlns="http://www.w3.org/2000/svg" xmlns:xlink="http://www.w3.org/1999/xlink" contentStyleType="text/css" height="842px" preserveAspectRatio="none" style="width:1253px;height:842px;background:#FFFFFF;" version="1.1" viewBox="0 0 1253 842" width="1253px" zoomAndPan="magnify"><defs/><g><text fill="#000000" font-family="sans-serif" font-size="14" font-weight="bold" lengthAdjust="spacing" textLength="166" x="542.75" y="29.5332">Sequence Diagram Title</text><rect fill="#FFFFFF" height="620.2891" style="stroke:#181818;stroke-width:1.0;" width="10" x="22.5" y="131.2188"/><rect fill="#FFFFFF" height="572.5859" style="stroke:#181818;stroke-width:1.0;" width="10" x="211.5" y="169.9219"/><rect fill="#FFFFFF" height="511.8828" style="stroke:#181818;stroke-width:1.0;" width="10" x="373.5" y="200.2734"/><rect fill="#FFFFFF" height="390.4766" style="stroke:#181818;stroke-width:1.0;" width="10" x="535.5" y="291.3281"/><rect fill="#FFFFFF" height="30.3516" style="stroke:#181818;stroke-width:1.0;" width="10" x="643" y="230.625"/><rect fill="#FFFFFF" height="208.3672" style="stroke:#181818;stroke-width:1.0;" width="10" x="744" y="443.0859"/><rect fill="#FFFFFF" height="30.3516" style="stroke:#181818;stroke-width:1.0;" width="10" x="889" y="321.6797"/><rect fill="#FFFFFF" height="30.3516" style="stroke:#181818;stroke-width:1.0;" width="10" x="889" y="473.4375"/><rect fill="#FFFFFF" height="30.3516" style="stroke:#181818;stroke-width:1.0;" width="10" x="1008.5" y="382.3828"/><rect fill="#FFFFFF" height="30.3516" style="stroke:#181818;stroke-width:1.0;" width="10" x="1138" y="590.75"/><rect fill="#FFFFFF" height="16.2578" style="stroke:#181818;stroke-width:1.0;" width="10" x="1223.5" y="544.1406"/><line style="stroke:#181818;stroke-width:0.5;stroke-dasharray:5.0,5.0;" x1="27" x2="27" y1="121.2188" y2="760.5078"/><line style="stroke:#181818;stroke-width:0.5;stroke-dasharray:5.0,5.0;" x1="216" x2="216" y1="121.2188" y2="760.5078"/><line style="stroke:#181818;stroke-width:0.5;stroke-dasharray:5.0,5.0;" x1="378" x2="378" y1="121.2188" y2="760.5078"/><line style="stroke:#181818;stroke-width:0.5;stroke-dasharray:5.0,5.0;" x1="540" x2="540" y1="121.2188" y2="760.5078"/><line style="stroke:#181818;stroke-width:0.5;stroke-dasharray:5.0,5.0;" x1="648" x2="648" y1="121.2188" y2="760.5078"/><line style="stroke:#181818;stroke-width:0.5;stroke-dasharray:5.0,5.0;" x1="749" x2="749" y1="121.2188" y2="760.5078"/><line style="stroke:#181818;stroke-width:0.5;stroke-dasharray:5.0,5.0;" x1="893.5" x2="893.5" y1="121.2188" y2="760.5078"/><line style="stroke:#181818;stroke-width:0.5;stroke-dasharray:5.0,5.0;" x1="1013.5" x2="1013.5" y1="121.2188" y2="760.5078"/><line style="stroke:#181818;stroke-width:0.5;stroke-dasharray:5.0,5.0;" x1="1142.5" x2="1142.5" y1="121.2188" y2="760.5078"/><line style="stroke:#181818;stroke-width:0.5;stroke-dasharray:5.0,5.0;" x1="1228.5" x2="1228.5" y1="543.0938" y2="760.5078"/><text fill="#000000" font-family="sans-serif" font-size="14" lengthAdjust="spacing" textLength="39" x="5" y="118.1426">Admin</text><ellipse cx="27.5" cy="52.1094" fill="#E2E2F0" rx="8" ry="8" style="stroke:#181818;stroke-width:0.5;"/><path d="M27.5,60.1094 L27.5,87.1094 M14.5,68.1094 L40.5,68.1094 M27.5,87.1094 L14.5,102.1094 M27.5,87.1094 L40.5,102.1094 " fill="none" style="stroke:#181818;stroke-width:0.5;"/><text fill="#000000" font-family="sans-serif" font-size="14" lengthAdjust="spacing" textLength="39" x="5" y="774.041">Admin</text><ellipse cx="27.5" cy="785.6172" fill="#E2E2F0" rx="8" ry="8" style="stroke:#181818;stroke-width:0.5;"/><path d="M27.5,793.6172 L27.5,820.6172 M14.5,801.6172 L40.5,801.6172 M27.5,820.6172 L14.5,835.6172 M27.5,820.6172 L40.5,835.6172 " fill="none" style="stroke:#181818;stroke-width:0.5;"/><rect fill="#E2E2F0" height="31.6094" rx="2.5" ry="2.5" style="stroke:#181818;stroke-width:0.5;" width="111" x="161" y="88.6094"/><text fill="#000000" font-family="sans-serif" font-size="14" lengthAdjust="spacing" textLength="97" x="168" y="110.1426">DeletePatientUI</text><rect fill="#E2E2F0" height="31.6094" rx="2.5" ry="2.5" style="stroke:#181818;stroke-width:0.5;" width="111" x="161" y="759.5078"/><text fill="#000000" font-family="sans-serif" font-size="14" lengthAdjust="spacing" textLength="97" x="168" y="781.041">DeletePatientUI</text><rect fill="#E2E2F0" height="31.6094" rx="2.5" ry="2.5" style="stroke:#181818;stroke-width:0.5;" width="187" x="285" y="88.6094"/><text fill="#000000" font-family="sans-serif" font-size="14" lengthAdjust="spacing" textLength="173" x="292" y="110.1426">DeactivatePatientController</text><rect fill="#E2E2F0" height="31.6094" rx="2.5" ry="2.5" style="stroke:#181818;stroke-width:0.5;" width="187" x="285" y="759.5078"/><text fill="#000000" font-family="sans-serif" font-size="14" lengthAdjust="spacing" textLength="173" x="292" y="781.041">DeactivatePatientController</text><rect fill="#E2E2F0" height="31.6094" rx="2.5" ry="2.5" style="stroke:#181818;stroke-width:0.5;" width="105" x="488" y="88.6094"/><text fill="#000000" font-family="sans-serif" font-size="14" lengthAdjust="spacing" textLength="91" x="495" y="110.1426">PatientService</text><rect fill="#E2E2F0" height="31.6094" rx="2.5" ry="2.5" style="stroke:#181818;stroke-width:0.5;" width="105" x="488" y="759.5078"/><text fill="#000000" font-family="sans-serif" font-size="14" lengthAdjust="spacing" textLength="91" x="495" y="781.041">PatientService</text><rect fill="#E2E2F0" height="31.6094" rx="2.5" ry="2.5" style="stroke:#181818;stroke-width:0.5;" width="90" x="603" y="88.6094"/><text fill="#000000" font-family="sans-serif" font-size="14" lengthAdjust="spacing" textLength="76" x="610" y="110.1426">AuthService</text><rect fill="#E2E2F0" height="31.6094" rx="2.5" ry="2.5" style="stroke:#181818;stroke-width:0.5;" width="90" x="603" y="759.5078"/><text fill="#000000" font-family="sans-serif" font-size="14" lengthAdjust="spacing" textLength="76" x="610" y="781.041">AuthService</text><rect fill="#E2E2F0" height="31.6094" rx="2.5" ry="2.5" style="stroke:#181818;stroke-width:0.5;" width="92" x="703" y="88.6094"/><text fill="#000000" font-family="sans-serif" font-size="14" lengthAdjust="spacing" textLength="78" x="710" y="110.1426">LogsService</text><rect fill="#E2E2F0" height="31.6094" rx="2.5" ry="2.5" style="stroke:#181818;stroke-width:0.5;" width="92" x="703" y="759.5078"/><text fill="#000000" font-family="sans-serif" font-size="14" lengthAdjust="spacing" textLength="78" x="710" y="781.041">LogsService</text><rect fill="#E2E2F0" height="31.6094" rx="2.5" ry="2.5" style="stroke:#181818;stroke-width:0.5;" width="93" x="847.5" y="88.6094"/><text fill="#000000" font-family="sans-serif" font-size="14" lengthAdjust="spacing" textLength="79" x="854.5" y="110.1426">Repositories</text><rect fill="#E2E2F0" height="31.6094" rx="2.5" ry="2.5" style="stroke:#181818;stroke-width:0.5;" width="93" x="847.5" y="759.5078"/><text fill="#000000" font-family="sans-serif" font-size="14" lengthAdjust="spacing" textLength="79" x="854.5" y="781.041">Repositories</text><rect fill="#E2E2F0" height="31.6094" rx="2.5" ry="2.5" style="stroke:#181818;stroke-width:0.5;" width="126" x="950.5" y="88.6094"/><text fill="#000000" font-family="sans-serif" font-size="14" lengthAdjust="spacing" textLength="112" x="957.5" y="110.1426">PatientRepository</text><rect fill="#E2E2F0" height="31.6094" rx="2.5" ry="2.5" style="stroke:#181818;stroke-width:0.5;" width="126" x="950.5" y="759.5078"/><text fill="#000000" font-family="sans-serif" font-size="14" lengthAdjust="spacing" textLength="112" x="957.5" y="781.041">PatientRepository</text><rect fill="#E2E2F0" height="31.6094" rx="2.5" ry="2.5" style="stroke:#181818;stroke-width:0.5;" width="113" x="1086.5" y="88.6094"/><text fill="#000000" font-family="sans-serif" font-size="14" lengthAdjust="spacing" textLength="99" x="1093.5" y="110.1426">LogsRepository</text><rect fill="#E2E2F0" height="31.6094" rx="2.5" ry="2.5" style="stroke:#181818;stroke-width:0.5;" width="113" x="1086.5" y="759.5078"/><text fill="#000000" font-family="sans-serif" font-size="14" lengthAdjust="spacing" textLength="99" x="1093.5" y="781.041">LogsRepository</text><rect fill="#E2E2F0" height="31.6094" rx="2.5" ry="2.5" style="stroke:#181818;stroke-width:0.5;" width="38" x="1209.5" y="759.5078"/><text fill="#000000" font-family="sans-serif" font-size="14" lengthAdjust="spacing" textLength="24" x="1216.5" y="781.041">Log</text><rect fill="#FFFFFF" height="620.2891" style="stroke:#181818;stroke-width:1.0;" width="10" x="22.5" y="131.2188"/><rect fill="#FFFFFF" height="572.5859" style="stroke:#181818;stroke-width:1.0;" width="10" x="211.5" y="169.9219"/><rect fill="#FFFFFF" height="511.8828" style="stroke:#181818;stroke-width:1.0;" width="10" x="373.5" y="200.2734"/><rect fill="#FFFFFF" height="390.4766" style="stroke:#181818;stroke-width:1.0;" width="10" x="535.5" y="291.3281"/><rect fill="#FFFFFF" height="30.3516" style="stroke:#181818;stroke-width:1.0;" width="10" x="643" y="230.625"/><rect fill="#FFFFFF" height="208.3672" style="stroke:#181818;stroke-width:1.0;" width="10" x="744" y="443.0859"/><rect fill="#FFFFFF" height="30.3516" style="stroke:#181818;stroke-width:1.0;" width="10" x="889" y="321.6797"/><rect fill="#FFFFFF" height="30.3516" style="stroke:#181818;stroke-width:1.0;" width="10" x="889" y="473.4375"/><rect fill="#FFFFFF" height="30.3516" style="stroke:#181818;stroke-width:1.0;" width="10" x="1008.5" y="382.3828"/><rect fill="#FFFFFF" height="30.3516" style="stroke:#181818;stroke-width:1.0;" width="10" x="1138" y="590.75"/><rect fill="#FFFFFF" height="16.2578" style="stroke:#181818;stroke-width:1.0;" width="10" x="1223.5" y="544.1406"/><polygon fill="#A52A2A" points="199.5,165.9219,209.5,169.9219,199.5,173.9219,203.5,169.9219" style="stroke:#A52A2A;stroke-width:1.0;"/><line style="stroke:#A52A2A;stroke-width:1.0;" x1="32.5" x2="205.5" y1="169.9219" y2="169.9219"/><text fill="#000000" font-family="sans-serif" font-size="13" lengthAdjust="spacing" textLength="156" x="39.5" y="148.7139">I want to delete this patient</text><text fill="#000000" font-family="sans-serif" font-size="13" lengthAdjust="spacing" textLength="108" x="43.5" y="165.0654">(provides patientId)</text><polygon fill="#A52A2A" points="361.5,196.2734,371.5,200.2734,361.5,204.2734,365.5,200.2734" style="stroke:#A52A2A;stroke-width:1.0;"/><line style="stroke:#A52A2A;stroke-width:1.0;" x1="221.5" x2="367.5" y1="200.2734" y2="200.2734"/><text fill="#000000" font-family="sans-serif" font-size="13" lengthAdjust="spacing" textLength="133" x="228.5" y="195.417">deletePatient(patientId)</text><polygon fill="#A52A2A" points="631,226.625,641,230.625,631,234.625,635,230.625" style="stroke:#A52A2A;stroke-width:1.0;"/><line style="stroke:#A52A2A;stroke-width:1.0;" x1="383.5" x2="637" y1="230.625" y2="230.625"/><text fill="#000000" font-family="sans-serif" font-size="13" lengthAdjust="spacing" textLength="234" x="390.5" y="225.7686">ensureAuthenticatedUserHasAnyOf(role)</text><polygon fill="#A52A2A" points="394.5,256.9766,384.5,260.9766,394.5,264.9766,390.5,260.9766" style="stroke:#A52A2A;stroke-width:1.0;"/><line style="stroke:#A52A2A;stroke-width:1.0;stroke-dasharray:2.0,2.0;" x1="388.5" x2="647" y1="260.9766" y2="260.9766"/><text fill="#000000" font-family="sans-serif" font-size="13" lengthAdjust="spacing" textLength="22" x="400.5" y="256.1201">true</text><polygon fill="#A52A2A" points="523.5,287.3281,533.5,291.3281,523.5,295.3281,527.5,291.3281" style="stroke:#A52A2A;stroke-width:1.0;"/><line style="stroke:#A52A2A;stroke-width:1.0;" x1="383.5" x2="529.5" y1="291.3281" y2="291.3281"/><text fill="#000000" font-family="sans-serif" font-size="13" lengthAdjust="spacing" textLength="133" x="390.5" y="286.4717">deletePatient(patientId)</text><polygon fill="#A52A2A" points="877,317.6797,887,321.6797,877,325.6797,881,321.6797" style="stroke:#A52A2A;stroke-width:1.0;"/><line style="stroke:#A52A2A;stroke-width:1.0;" x1="545.5" x2="883" y1="321.6797" y2="321.6797"/><text fill="#000000" font-family="sans-serif" font-size="13" lengthAdjust="spacing" textLength="129" x="552.5" y="316.8232">getPatientRepository()</text><polygon fill="#A52A2A" points="556.5,348.0313,546.5,352.0313,556.5,356.0313,552.5,352.0313" style="stroke:#A52A2A;stroke-width:1.0;"/><line style="stroke:#A52A2A;stroke-width:1.0;stroke-dasharray:2.0,2.0;" x1="550.5" x2="893" y1="352.0313" y2="352.0313"/><text fill="#000000" font-family="sans-serif" font-size="13" lengthAdjust="spacing" textLength="101" x="562.5" y="347.1748">patientRepository</text><polygon fill="#A52A2A" points="996.5,378.3828,1006.5,382.3828,996.5,386.3828,1000.5,382.3828" style="stroke:#A52A2A;stroke-width:1.0;"/><line style="stroke:#A52A2A;stroke-width:1.0;" x1="545.5" x2="1002.5" y1="382.3828" y2="382.3828"/><text fill="#000000" font-family="sans-serif" font-size="13" lengthAdjust="spacing" textLength="133" x="552.5" y="377.5264">deletePatient(patientId)</text><polygon fill="#A52A2A" points="556.5,408.7344,546.5,412.7344,556.5,416.7344,552.5,412.7344" style="stroke:#A52A2A;stroke-width:1.0;"/><line style="stroke:#A52A2A;stroke-width:1.0;" x1="550.5" x2="1012.5" y1="412.7344" y2="412.7344"/><text fill="#000000" font-family="sans-serif" font-size="13" lengthAdjust="spacing" textLength="42" x="562.5" y="407.8779">deleted</text><polygon fill="#A52A2A" points="732,439.0859,742,443.0859,732,447.0859,736,443.0859" style="stroke:#A52A2A;stroke-width:1.0;"/><line style="stroke:#A52A2A;stroke-width:1.0;" x1="545.5" x2="738" y1="443.0859" y2="443.0859"/><text fill="#000000" font-family="sans-serif" font-size="13" lengthAdjust="spacing" textLength="143" x="552.5" y="438.2295">patientDeletion(patientId)</text><polygon fill="#A52A2A" points="877,469.4375,887,473.4375,877,477.4375,881,473.4375" style="stroke:#A52A2A;stroke-width:1.0;"/><line style="stroke:#A52A2A;stroke-width:1.0;" x1="754" x2="883" y1="473.4375" y2="473.4375"/><text fill="#000000" font-family="sans-serif" font-size="13" lengthAdjust="spacing" textLength="116" x="761" y="468.5811">getLogsRepository()</text><polygon fill="#A52A2A" points="765,499.7891,755,503.7891,765,507.7891,761,503.7891" style="stroke:#A52A2A;stroke-width:1.0;"/><line style="stroke:#A52A2A;stroke-width:1.0;stroke-dasharray:2.0,2.0;" x1="759" x2="893" y1="503.7891" y2="503.7891"/><text fill="#000000" font-family="sans-serif" font-size="13" lengthAdjust="spacing" textLength="86" x="771" y="498.9326">logsRepository</text><polygon fill="#A52A2A" points="1197.5,530.1406,1207.5,534.1406,1197.5,538.1406,1201.5,534.1406" style="stroke:#A52A2A;stroke-width:1.0;"/><line style="stroke:#A52A2A;stroke-width:1.0;" x1="754" x2="1203.5" y1="534.1406" y2="534.1406"/><text fill="#000000" font-family="sans-serif" font-size="13" lengthAdjust="spacing" textLength="193" x="761" y="529.2842">new Log(timestamp, action, user)</text><rect fill="#E2E2F0" height="31.6094" rx="2.5" ry="2.5" style="stroke:#181818;stroke-width:0.5;" width="38" x="1209.5" y="511.7891"/><text fill="#000000" font-family="sans-serif" font-size="14" lengthAdjust="spacing" textLength="24" x="1216.5" y="533.3223">Log</text><polygon fill="#A52A2A" points="765,556.3984,755,560.3984,765,564.3984,761,560.3984" style="stroke:#A52A2A;stroke-width:1.0;"/><line style="stroke:#A52A2A;stroke-width:1.0;stroke-dasharray:2.0,2.0;" x1="759" x2="1227.5" y1="560.3984" y2="560.3984"/><polygon fill="#A52A2A" points="1126,586.75,1136,590.75,1126,594.75,1130,590.75" style="stroke:#A52A2A;stroke-width:1.0;"/><line style="stroke:#A52A2A;stroke-width:1.0;" x1="754" x2="1132" y1="590.75" y2="590.75"/><text fill="#000000" font-family="sans-serif" font-size="13" lengthAdjust="spacing" textLength="51" x="761" y="585.8936">save(log)</text><polygon fill="#A52A2A" points="765,617.1016,755,621.1016,765,625.1016,761,621.1016" style="stroke:#A52A2A;stroke-width:1.0;"/><line style="stroke:#A52A2A;stroke-width:1.0;stroke-dasharray:2.0,2.0;" x1="759" x2="1142" y1="621.1016" y2="621.1016"/><text fill="#000000" font-family="sans-serif" font-size="13" lengthAdjust="spacing" textLength="33" x="771" y="616.2451">saved</text><polygon fill="#A52A2A" points="556.5,647.4531,546.5,651.4531,556.5,655.4531,552.5,651.4531" style="stroke:#A52A2A;stroke-width:1.0;"/><line style="stroke:#A52A2A;stroke-width:1.0;stroke-dasharray:2.0,2.0;" x1="550.5" x2="748" y1="651.4531" y2="651.4531"/><text fill="#000000" font-family="sans-serif" font-size="13" lengthAdjust="spacing" textLength="33" x="562.5" y="646.5967">saved</text><polygon fill="#A52A2A" points="394.5,677.8047,384.5,681.8047,394.5,685.8047,390.5,681.8047" style="stroke:#A52A2A;stroke-width:1.0;"/><line style="stroke:#A52A2A;stroke-width:1.0;stroke-dasharray:2.0,2.0;" x1="388.5" x2="539.5" y1="681.8047" y2="681.8047"/><text fill="#000000" font-family="sans-serif" font-size="13" lengthAdjust="spacing" textLength="42" x="400.5" y="676.9482">deleted</text><polygon fill="#A52A2A" points="232.5,708.1563,222.5,712.1563,232.5,716.1563,228.5,712.1563" style="stroke:#A52A2A;stroke-width:1.0;"/><line style="stroke:#A52A2A;stroke-width:1.0;stroke-dasharray:2.0,2.0;" x1="226.5" x2="377.5" y1="712.1563" y2="712.1563"/><text fill="#000000" font-family="sans-serif" font-size="13" lengthAdjust="spacing" textLength="42" x="238.5" y="707.2998">deleted</text><polygon fill="#A52A2A" points="43.5,738.5078,33.5,742.5078,43.5,746.5078,39.5,742.5078" style="stroke:#A52A2A;stroke-width:1.0;"/><line style="stroke:#A52A2A;stroke-width:1.0;stroke-dasharray:2.0,2.0;" x1="37.5" x2="215.5" y1="742.5078" y2="742.5078"/><text fill="#000000" font-family="sans-serif" font-size="13" lengthAdjust="spacing" textLength="42" x="49.5" y="737.6514">deleted</text><!--SRC=[rPHDZvim48Rl_8hHdkXg8_MSGoMIFInIr8t2vjQBYoV4Mc9JsoHAg_xtZWrBR62bN8iKXErdPjxvSAomDKA1lrgK9SApO9Lc9tXpsubv5x9XRbtMp9ZCMYr-jXRpKib2_4RucemP-9C0FHjnm8sGk5AQerwhMcbuLhn2lQfRZ15MlbTQjP9tMBRTRl9rzfQ_VlVS-7o39oNNHt4uAEc1J6jrwSvMzDLjXe4BndcDtTdVK753hbc5XRrI3JIMbicAqWvpOfh_1ocnqhem_2HaGiAjA4N3f8M7PwpHufPPWTBkymTW1lRvc25pSMO3jrRIQbNNg3r_MyPsFLsWFeiIFTeQr4LCPQqzXWYZTKniL6L2mgrZOeUDCe9I56Wy4cxCYXg0ww1hDuqwGqqWVrAhAl5LzcNg2-tViFX61Lr23XTdOHLmNtAmHs5emBmQ-24XRRGw2ux3Piw_t3nIJ_QvytKhzhBtr6UKpfa5hRbzEZUkoaj0QLgDhWDaA4gou7lAyOMPJ5vV3odn67ZphN4lM8oKWDKquXnZD0xfUm_tgEwcfEF9C6mcsLTe9qrC0-kezv7j8b3HZ5s4wYCNWmu_97Sdi4iwVf8v3oFTI1_23TrDdB-SGidP6FuMU7wsHF7utb-VNa4TcNzQcu_uX3y-afd4Y_EGMd52OzcfUG9dgEIJppHGuMuC_OQOOGXtzk7PcP5ZmywOqlweoBvoeMx7JGeClRUW5HFEQ-Zx40ttvtqheW7tztmU3cwXkyH4TdyDip3TzExv1m00]--></g></svg>