<svg xmlns="http://www.w3.org/2000/svg" xmlns:xlink="http://www.w3.org/1999/xlink" contentStyleType="text/css" height="978px" preserveAspectRatio="none" style="width:1314px;height:978px;background:#FFFFFF;" version="1.1" viewBox="0 0 1314 978" width="1314px" zoomAndPan="magnify"><title>Sequence Diagram Title</title><defs/><g><text fill="#000000" font-family="sans-serif" font-size="14" font-weight="bold" lengthAdjust="spacing" textLength="158.7168" x="579.5972" y="30.1074">Sequence Diagram Title</text><rect fill="#FFFFFF" height="752.6934" style="stroke:#181818;stroke-width:1.0;" width="10" x="22.8413" y="133.2422"/><rect fill="#FFFFFF" height="31.291" style="stroke:#181818;stroke-width:1.0;" width="10" x="319.2109" y="156.5332"/><rect fill="#FFFFFF" height="657.8203" style="stroke:#181818;stroke-width:1.0;" width="10" x="319.2109" y="219.1152"/><rect fill="#FFFFFF" height="595.2383" style="stroke:#181818;stroke-width:1.0;" width="10" x="473.2026" y="250.4063"/><rect fill="#FFFFFF" height="470.0742" style="stroke:#181818;stroke-width:1.0;" width="10" x="627.1943" y="344.2793"/><rect fill="#FFFFFF" height="31.291" style="stroke:#181818;stroke-width:1.0;" width="10" x="758.0151" y="281.6973"/><rect fill="#FFFFFF" height="31.291" style="stroke:#181818;stroke-width:1.0;" width="10" x="862.1631" y="375.5703"/><rect fill="#FFFFFF" height="204.7461" style="stroke:#181818;stroke-width:1.0;" width="10" x="983.8213" y="438.1523"/><rect fill="#FFFFFF" height="31.291" style="stroke:#181818;stroke-width:1.0;" width="10" x="1100.2539" y="495.7344"/><rect fill="#FFFFFF" height="31.291" style="stroke:#181818;stroke-width:1.0;" width="10" x="1182.6157" y="700.4805"/><rect fill="none" height="159.4551" style="stroke:#000000;stroke-width:1.5;" width="402.3413" x="906.5698" y="453.1523"/><rect fill="none" height="63.582" style="stroke:#000000;stroke-width:1.5;" width="265.3608" x="916.5698" y="542.0254"/><rect fill="none" height="126.1641" style="stroke:#000000;stroke-width:1.5;" width="671.1245" x="570.0601" y="657.8984"/><line style="stroke:#181818;stroke-width:0.5;stroke-dasharray:5.0,5.0;" x1="27" x2="27" y1="123.2422" y2="894.9355"/><line style="stroke:#181818;stroke-width:0.5;stroke-dasharray:5.0,5.0;" x1="323.5249" x2="323.5249" y1="123.2422" y2="894.9355"/><line style="stroke:#181818;stroke-width:0.5;stroke-dasharray:5.0,5.0;" x1="478.0649" x2="478.0649" y1="123.2422" y2="894.9355"/><line style="stroke:#181818;stroke-width:0.5;stroke-dasharray:5.0,5.0;" x1="632.0601" x2="632.0601" y1="123.2422" y2="894.9355"/><line style="stroke:#181818;stroke-width:0.5;stroke-dasharray:5.0,5.0;" x1="762.2739" x2="762.2739" y1="123.2422" y2="894.9355"/><line style="stroke:#181818;stroke-width:0.5;stroke-dasharray:5.0,5.0;" x1="866.7563" x2="866.7563" y1="123.2422" y2="894.9355"/><line style="stroke:#181818;stroke-width:0.5;stroke-dasharray:5.0,5.0;" x1="988.5698" x2="988.5698" y1="123.2422" y2="894.9355"/><line style="stroke:#181818;stroke-width:0.5;stroke-dasharray:5.0,5.0;" x1="1104.4609" x2="1104.4609" y1="123.2422" y2="894.9355"/><line style="stroke:#181818;stroke-width:0.5;stroke-dasharray:5.0,5.0;" x1="1187.0469" x2="1187.0469" y1="123.2422" y2="894.9355"/><text fill="#000000" font-family="sans-serif" font-size="14" lengthAdjust="spacing" textLength="39.6826" x="5" y="119.7285">Admin</text><ellipse cx="27.8413" cy="53.1211" fill="#E2E2F0" rx="8" ry="8" style="stroke:#181818;stroke-width:0.5;"/><path d="M27.8413,61.1211 L27.8413,88.1211 M14.8413,69.1211 L40.8413,69.1211 M27.8413,88.1211 L14.8413,103.1211 M27.8413,88.1211 L40.8413,103.1211 " fill="none" style="stroke:#181818;stroke-width:0.5;"/><text fill="#000000" font-family="sans-serif" font-size="14" lengthAdjust="spacing" textLength="39.6826" x="5" y="909.043">Admin</text><ellipse cx="27.8413" cy="921.0566" fill="#E2E2F0" rx="8" ry="8" style="stroke:#181818;stroke-width:0.5;"/><path d="M27.8413,929.0566 L27.8413,956.0566 M14.8413,937.0566 L40.8413,937.0566 M27.8413,956.0566 L14.8413,971.0566 M27.8413,956.0566 L40.8413,971.0566 " fill="none" style="stroke:#181818;stroke-width:0.5;"/><rect fill="#E2E2F0" height="32.6211" rx="2.5" ry="2.5" style="stroke:#181818;stroke-width:0.5;" width="93.3721" x="277.5249" y="89.6211"/><text fill="#000000" font-family="sans-serif" font-size="14" lengthAdjust="spacing" textLength="79.3721" x="284.5249" y="111.7285">ListPatientUI</text><rect fill="#E2E2F0" height="32.6211" rx="2.5" ry="2.5" style="stroke:#181818;stroke-width:0.5;" width="93.3721" x="277.5249" y="893.9355"/><text fill="#000000" font-family="sans-serif" font-size="14" lengthAdjust="spacing" textLength="79.3721" x="284.5249" y="916.043">ListPatientUI</text><rect fill="#E2E2F0" height="32.6211" rx="2.5" ry="2.5" style="stroke:#181818;stroke-width:0.5;" width="118.2754" x="419.0649" y="89.6211"/><text fill="#000000" font-family="sans-serif" font-size="14" lengthAdjust="spacing" textLength="104.2754" x="426.0649" y="111.7285">PatientController</text><rect fill="#E2E2F0" height="32.6211" rx="2.5" ry="2.5" style="stroke:#181818;stroke-width:0.5;" width="118.2754" x="419.0649" y="893.9355"/><text fill="#000000" font-family="sans-serif" font-size="14" lengthAdjust="spacing" textLength="104.2754" x="426.0649" y="916.043">PatientController</text><rect fill="#E2E2F0" height="32.6211" rx="2.5" ry="2.5" style="stroke:#181818;stroke-width:0.5;" width="104.2686" x="580.0601" y="89.6211"/><text fill="#000000" font-family="sans-serif" font-size="14" lengthAdjust="spacing" textLength="90.2686" x="587.0601" y="111.7285">PatientService</text><rect fill="#E2E2F0" height="32.6211" rx="2.5" ry="2.5" style="stroke:#181818;stroke-width:0.5;" width="104.2686" x="580.0601" y="893.9355"/><text fill="#000000" font-family="sans-serif" font-size="14" lengthAdjust="spacing" textLength="90.2686" x="587.0601" y="916.043">PatientService</text><rect fill="#E2E2F0" height="32.6211" rx="2.5" ry="2.5" style="stroke:#181818;stroke-width:0.5;" width="89.4824" x="718.2739" y="89.6211"/><text fill="#000000" font-family="sans-serif" font-size="14" lengthAdjust="spacing" textLength="75.4824" x="725.2739" y="111.7285">AuthService</text><rect fill="#E2E2F0" height="32.6211" rx="2.5" ry="2.5" style="stroke:#181818;stroke-width:0.5;" width="89.4824" x="718.2739" y="893.9355"/><text fill="#000000" font-family="sans-serif" font-size="14" lengthAdjust="spacing" textLength="75.4824" x="725.2739" y="916.043">AuthService</text><rect fill="#E2E2F0" height="32.6211" rx="2.5" ry="2.5" style="stroke:#181818;stroke-width:0.5;" width="98.8135" x="817.7563" y="89.6211"/><text fill="#000000" font-family="sans-serif" font-size="14" lengthAdjust="spacing" textLength="84.8135" x="824.7563" y="111.7285">Repositoriess</text><rect fill="#E2E2F0" height="32.6211" rx="2.5" ry="2.5" style="stroke:#181818;stroke-width:0.5;" width="98.8135" x="817.7563" y="893.9355"/><text fill="#000000" font-family="sans-serif" font-size="14" lengthAdjust="spacing" textLength="84.8135" x="824.7563" y="916.043">Repositoriess</text><rect fill="#E2E2F0" height="32.6211" rx="2.5" ry="2.5" style="stroke:#181818;stroke-width:0.5;" width="124.5029" x="926.5698" y="89.6211"/><text fill="#000000" font-family="sans-serif" font-size="14" lengthAdjust="spacing" textLength="110.5029" x="933.5698" y="111.7285">PatientRepository</text><rect fill="#E2E2F0" height="32.6211" rx="2.5" ry="2.5" style="stroke:#181818;stroke-width:0.5;" width="124.5029" x="926.5698" y="893.9355"/><text fill="#000000" font-family="sans-serif" font-size="14" lengthAdjust="spacing" textLength="110.5029" x="933.5698" y="916.043">PatientRepository</text><rect fill="#E2E2F0" height="32.6211" rx="2.5" ry="2.5" style="stroke:#181818;stroke-width:0.5;" width="57.5859" x="1076.4609" y="89.6211"/><text fill="#000000" font-family="sans-serif" font-size="14" lengthAdjust="spacing" textLength="43.5859" x="1083.4609" y="111.7285">Patient</text><rect fill="#E2E2F0" height="32.6211" rx="2.5" ry="2.5" style="stroke:#181818;stroke-width:0.5;" width="57.5859" x="1076.4609" y="893.9355"/><text fill="#000000" font-family="sans-serif" font-size="14" lengthAdjust="spacing" textLength="43.5859" x="1083.4609" y="916.043">Patient</text><rect fill="#E2E2F0" height="32.6211" rx="2.5" ry="2.5" style="stroke:#181818;stroke-width:0.5;" width="87.1377" x="1144.0469" y="89.6211"/><text fill="#000000" font-family="sans-serif" font-size="14" lengthAdjust="spacing" textLength="73.1377" x="1151.0469" y="111.7285">PatientDTO</text><rect fill="#E2E2F0" height="32.6211" rx="2.5" ry="2.5" style="stroke:#181818;stroke-width:0.5;" width="87.1377" x="1144.0469" y="893.9355"/><text fill="#000000" font-family="sans-serif" font-size="14" lengthAdjust="spacing" textLength="73.1377" x="1151.0469" y="916.043">PatientDTO</text><rect fill="#FFFFFF" height="752.6934" style="stroke:#181818;stroke-width:1.0;" width="10" x="22.8413" y="133.2422"/><rect fill="#FFFFFF" height="31.291" style="stroke:#181818;stroke-width:1.0;" width="10" x="319.2109" y="156.5332"/><rect fill="#FFFFFF" height="657.8203" style="stroke:#181818;stroke-width:1.0;" width="10" x="319.2109" y="219.1152"/><rect fill="#FFFFFF" height="595.2383" style="stroke:#181818;stroke-width:1.0;" width="10" x="473.2026" y="250.4063"/><rect fill="#FFFFFF" height="470.0742" style="stroke:#181818;stroke-width:1.0;" width="10" x="627.1943" y="344.2793"/><rect fill="#FFFFFF" height="31.291" style="stroke:#181818;stroke-width:1.0;" width="10" x="758.0151" y="281.6973"/><rect fill="#FFFFFF" height="31.291" style="stroke:#181818;stroke-width:1.0;" width="10" x="862.1631" y="375.5703"/><rect fill="#FFFFFF" height="204.7461" style="stroke:#181818;stroke-width:1.0;" width="10" x="983.8213" y="438.1523"/><rect fill="#FFFFFF" height="31.291" style="stroke:#181818;stroke-width:1.0;" width="10" x="1100.2539" y="495.7344"/><rect fill="#FFFFFF" height="31.291" style="stroke:#181818;stroke-width:1.0;" width="10" x="1182.6157" y="700.4805"/><polygon fill="#A52A2A" points="307.2109,152.5332,317.2109,156.5332,307.2109,160.5332,311.2109,156.5332" style="stroke:#A52A2A;stroke-width:1.0;"/><line style="stroke:#A52A2A;stroke-width:1.0;" x1="32.8413" x2="313.2109" y1="156.5332" y2="156.5332"/><text fill="#000000" font-family="sans-serif" font-size="13" lengthAdjust="spacing" textLength="267.3696" x="39.8413" y="151.2705">I want to list patients based on some attributes</text><polygon fill="#A52A2A" points="43.8413,183.8242,33.8413,187.8242,43.8413,191.8242,39.8413,187.8242" style="stroke:#A52A2A;stroke-width:1.0;"/><line style="stroke:#A52A2A;stroke-width:1.0;stroke-dasharray:2.0,2.0;" x1="37.8413" x2="323.2109" y1="187.8242" y2="187.8242"/><text fill="#000000" font-family="sans-serif" font-size="13" lengthAdjust="spacing" textLength="213.1733" x="49.8413" y="182.5615">Which attributes do you want to use?</text><polygon fill="#A52A2A" points="307.2109,215.1152,317.2109,219.1152,307.2109,223.1152,311.2109,219.1152" style="stroke:#A52A2A;stroke-width:1.0;"/><line style="stroke:#A52A2A;stroke-width:1.0;" x1="32.8413" x2="313.2109" y1="219.1152" y2="219.1152"/><text fill="#000000" font-family="sans-serif" font-size="13" lengthAdjust="spacing" textLength="112.7153" x="39.8413" y="213.8525">attributes (attribute)</text><polygon fill="#A52A2A" points="461.2026,246.4063,471.2026,250.4063,461.2026,254.4063,465.2026,250.4063" style="stroke:#A52A2A;stroke-width:1.0;"/><line style="stroke:#A52A2A;stroke-width:1.0;" x1="329.2109" x2="467.2026" y1="250.4063" y2="250.4063"/><text fill="#000000" font-family="sans-serif" font-size="13" lengthAdjust="spacing" textLength="124.9917" x="336.2109" y="245.1436">listPatients(attributes)</text><polygon fill="#A52A2A" points="746.0151,277.6973,756.0151,281.6973,746.0151,285.6973,750.0151,281.6973" style="stroke:#A52A2A;stroke-width:1.0;"/><line style="stroke:#A52A2A;stroke-width:1.0;" x1="483.2026" x2="752.0151" y1="281.6973" y2="281.6973"/><text fill="#000000" font-family="sans-serif" font-size="13" lengthAdjust="spacing" textLength="236.2788" x="490.2026" y="276.4346">ensureAuthenticatedUserHasAnyOf(role)</text><polygon fill="#A52A2A" points="494.2026,308.9883,484.2026,312.9883,494.2026,316.9883,490.2026,312.9883" style="stroke:#A52A2A;stroke-width:1.0;"/><line style="stroke:#A52A2A;stroke-width:1.0;stroke-dasharray:2.0,2.0;" x1="488.2026" x2="762.0151" y1="312.9883" y2="312.9883"/><text fill="#000000" font-family="sans-serif" font-size="13" lengthAdjust="spacing" textLength="22.4009" x="500.2026" y="307.7256">true</text><polygon fill="#A52A2A" points="615.1943,340.2793,625.1943,344.2793,615.1943,348.2793,619.1943,344.2793" style="stroke:#A52A2A;stroke-width:1.0;"/><line style="stroke:#A52A2A;stroke-width:1.0;" x1="483.2026" x2="621.1943" y1="344.2793" y2="344.2793"/><text fill="#000000" font-family="sans-serif" font-size="13" lengthAdjust="spacing" textLength="124.9917" x="490.2026" y="339.0166">listPatients(attributes)</text><polygon fill="#A52A2A" points="850.1631,371.5703,860.1631,375.5703,850.1631,379.5703,854.1631,375.5703" style="stroke:#A52A2A;stroke-width:1.0;"/><line style="stroke:#A52A2A;stroke-width:1.0;" x1="637.1943" x2="856.1631" y1="375.5703" y2="375.5703"/><text fill="#000000" font-family="sans-serif" font-size="13" lengthAdjust="spacing" textLength="129.3398" x="644.1943" y="370.3076">getPatientRepository()</text><polygon fill="#A52A2A" points="648.1943,402.8613,638.1943,406.8613,648.1943,410.8613,644.1943,406.8613" style="stroke:#A52A2A;stroke-width:1.0;"/><line style="stroke:#A52A2A;stroke-width:1.0;stroke-dasharray:2.0,2.0;" x1="642.1943" x2="866.1631" y1="406.8613" y2="406.8613"/><text fill="#000000" font-family="sans-serif" font-size="13" lengthAdjust="spacing" textLength="101.1689" x="654.1943" y="401.5986">patientRepository</text><polygon fill="#A52A2A" points="971.8213,434.1523,981.8213,438.1523,971.8213,442.1523,975.8213,438.1523" style="stroke:#A52A2A;stroke-width:1.0;"/><line style="stroke:#A52A2A;stroke-width:1.0;" x1="637.1943" x2="977.8213" y1="438.1523" y2="438.1523"/><text fill="#000000" font-family="sans-serif" font-size="13" lengthAdjust="spacing" textLength="197.2598" x="644.1943" y="432.8896">getPatientsByAttributes(attributes)</text><path d="M906.5698,453.1523 L979.0044,453.1523 L979.0044,462.4434 L969.0044,472.4434 L906.5698,472.4434 L906.5698,453.1523 " fill="#EEEEEE" style="stroke:#000000;stroke-width:1.5;"/><rect fill="none" height="159.4551" style="stroke:#000000;stroke-width:1.5;" width="402.3413" x="906.5698" y="453.1523"/><text fill="#000000" font-family="sans-serif" font-size="13" font-weight="bold" lengthAdjust="spacing" textLength="27.4346" x="921.5698" y="468.1807">loop</text><text fill="#000000" font-family="sans-serif" font-size="11" font-weight="bold" lengthAdjust="spacing" textLength="309.9067" x="994.0044" y="467.0225">[for each patient, check if they have the required attributes]</text><polygon fill="#A52A2A" points="1088.2539,491.7344,1098.2539,495.7344,1088.2539,499.7344,1092.2539,495.7344" style="stroke:#A52A2A;stroke-width:1.0;"/><line style="stroke:#A52A2A;stroke-width:1.0;" x1="993.8213" x2="1094.2539" y1="495.7344" y2="495.7344"/><text fill="#000000" font-family="sans-serif" font-size="13" lengthAdjust="spacing" textLength="87.4326" x="1000.8213" y="490.4717">getAtribbuteX()</text><polygon fill="#A52A2A" points="1004.8213,523.0254,994.8213,527.0254,1004.8213,531.0254,1000.8213,527.0254" style="stroke:#A52A2A;stroke-width:1.0;"/><line style="stroke:#A52A2A;stroke-width:1.0;" x1="998.8213" x2="1104.2539" y1="527.0254" y2="527.0254"/><text fill="#000000" font-family="sans-serif" font-size="13" lengthAdjust="spacing" textLength="55.6436" x="1010.8213" y="521.7627">atributteX</text><path d="M916.5698,542.0254 L976.7407,542.0254 L976.7407,551.3164 L966.7407,561.3164 L916.5698,561.3164 L916.5698,542.0254 " fill="#EEEEEE" style="stroke:#000000;stroke-width:1.5;"/><rect fill="none" height="63.582" style="stroke:#000000;stroke-width:1.5;" width="265.3608" x="916.5698" y="542.0254"/><text fill="#000000" font-family="sans-serif" font-size="13" font-weight="bold" lengthAdjust="spacing" textLength="15.1709" x="931.5698" y="557.0537">alt</text><text fill="#000000" font-family="sans-serif" font-size="11" font-weight="bold" lengthAdjust="spacing" textLength="185.1899" x="991.7407" y="555.8955">[patient has the required attributes]</text><line style="stroke:#A52A2A;stroke-width:1.0;" x1="993.8213" x2="1035.8213" y1="584.6074" y2="584.6074"/><line style="stroke:#A52A2A;stroke-width:1.0;" x1="1035.8213" x2="1035.8213" y1="584.6074" y2="597.6074"/><line style="stroke:#A52A2A;stroke-width:1.0;" x1="994.8213" x2="1035.8213" y1="597.6074" y2="597.6074"/><polygon fill="#A52A2A" points="1004.8213,593.6074,994.8213,597.6074,1004.8213,601.6074,1000.8213,597.6074" style="stroke:#A52A2A;stroke-width:1.0;"/><text fill="#000000" font-family="sans-serif" font-size="13" lengthAdjust="spacing" textLength="69.3799" x="1000.8213" y="579.3447">add(patient)</text><polygon fill="#A52A2A" points="648.1943,638.8984,638.1943,642.8984,648.1943,646.8984,644.1943,642.8984" style="stroke:#A52A2A;stroke-width:1.0;"/><line style="stroke:#A52A2A;stroke-width:1.0;stroke-dasharray:2.0,2.0;" x1="642.1943" x2="987.8213" y1="642.8984" y2="642.8984"/><text fill="#000000" font-family="sans-serif" font-size="13" lengthAdjust="spacing" textLength="59.2617" x="654.1943" y="637.6357">patientList</text><path d="M570.0601,657.8984 L642.4946,657.8984 L642.4946,667.1895 L632.4946,677.1895 L570.0601,677.1895 L570.0601,657.8984 " fill="#EEEEEE" style="stroke:#000000;stroke-width:1.5;"/><rect fill="none" height="126.1641" style="stroke:#000000;stroke-width:1.5;" width="671.1245" x="570.0601" y="657.8984"/><text fill="#000000" font-family="sans-serif" font-size="13" font-weight="bold" lengthAdjust="spacing" textLength="27.4346" x="585.0601" y="672.9268">loop</text><text fill="#000000" font-family="sans-serif" font-size="11" font-weight="bold" lengthAdjust="spacing" textLength="89.23" x="657.4946" y="671.7686">[for each patient]</text><polygon fill="#A52A2A" points="1170.6157,696.4805,1180.6157,700.4805,1170.6157,704.4805,1174.6157,700.4805" style="stroke:#A52A2A;stroke-width:1.0;"/><line style="stroke:#A52A2A;stroke-width:1.0;" x1="637.1943" x2="1176.6157" y1="700.4805" y2="700.4805"/><text fill="#000000" font-family="sans-serif" font-size="13" lengthAdjust="spacing" textLength="143.0635" x="644.1943" y="695.2178">new PatientDTO(patient)</text><polygon fill="#A52A2A" points="648.1943,727.7715,638.1943,731.7715,648.1943,735.7715,644.1943,731.7715" style="stroke:#A52A2A;stroke-width:1.0;"/><line style="stroke:#A52A2A;stroke-width:1.0;stroke-dasharray:2.0,2.0;" x1="642.1943" x2="1186.6157" y1="731.7715" y2="731.7715"/><text fill="#000000" font-family="sans-serif" font-size="13" lengthAdjust="spacing" textLength="66.4727" x="654.1943" y="726.5088">patientDTO</text><line style="stroke:#A52A2A;stroke-width:1.0;" x1="637.1943" x2="679.1943" y1="763.0625" y2="763.0625"/><line style="stroke:#A52A2A;stroke-width:1.0;" x1="679.1943" x2="679.1943" y1="763.0625" y2="776.0625"/><line style="stroke:#A52A2A;stroke-width:1.0;" x1="638.1943" x2="679.1943" y1="776.0625" y2="776.0625"/><polygon fill="#A52A2A" points="648.1943,772.0625,638.1943,776.0625,648.1943,780.0625,644.1943,776.0625" style="stroke:#A52A2A;stroke-width:1.0;"/><text fill="#000000" font-family="sans-serif" font-size="13" lengthAdjust="spacing" textLength="96.8208" x="644.1943" y="757.7998">add(patientDTO)</text><polygon fill="#A52A2A" points="494.2026,810.3535,484.2026,814.3535,494.2026,818.3535,490.2026,814.3535" style="stroke:#A52A2A;stroke-width:1.0;"/><line style="stroke:#A52A2A;stroke-width:1.0;stroke-dasharray:2.0,2.0;" x1="488.2026" x2="631.1943" y1="814.3535" y2="814.3535"/><text fill="#000000" font-family="sans-serif" font-size="13" lengthAdjust="spacing" textLength="86.7026" x="500.2026" y="809.0908">patientDTOList</text><polygon fill="#A52A2A" points="340.2109,841.6445,330.2109,845.6445,340.2109,849.6445,336.2109,845.6445" style="stroke:#A52A2A;stroke-width:1.0;"/><line style="stroke:#A52A2A;stroke-width:1.0;stroke-dasharray:2.0,2.0;" x1="334.2109" x2="477.2026" y1="845.6445" y2="845.6445"/><text fill="#000000" font-family="sans-serif" font-size="13" lengthAdjust="spacing" textLength="86.7026" x="346.2109" y="840.3818">patientDTOList</text><polygon fill="#A52A2A" points="43.8413,872.9355,33.8413,876.9355,43.8413,880.9355,39.8413,876.9355" style="stroke:#A52A2A;stroke-width:1.0;"/><line style="stroke:#A52A2A;stroke-width:1.0;stroke-dasharray:2.0,2.0;" x1="37.8413" x2="323.2109" y1="876.9355" y2="876.9355"/><text fill="#000000" font-family="sans-serif" font-size="13" lengthAdjust="spacing" textLength="86.7026" x="49.8413" y="871.6729">patientDTOList</text><!--SRC=[rLJBhjem4DtdAqPt1LAHkcPngm2B6maLL43jrZUU48jWSsq7HAl-UyVEomcawhPPH7wSENFcuR725WWx_2XHfWWhmOwQdM7lZYDp4lB2t3ujc36njLgybnQJLCcT-8dmEHfYu5S4zAr5XciXSQ4qHxrKXTAmKlo8Ub6Ks8Umz7JKgfIyWiNRxJfPnljayzNZXlThF2kvp4MMAUa1iTRgLjqjQ5KTXevtZFC2gxlVeU8BKRCZxkoTSg0njKmUAUmm9gRvVn0IIwrpmyz2HYJSYbHScBJmiXR6RfaLAEqXUG5cu93q4VNjKachLL6WzgXk-nIzGtqLANfeQL3N-pusBcqU0Xdj-uXlU556a7I1ndYCEtdgiONUMwUZs1Rnz7QrtxG0MllaYIkpMEVF_s7sIfcQGm8tPsiL59H9QXXFOU2T6UIW91XrHc3Dmp016oNwaC2CY2h6ENpFHPe7OE0AxgfiNP2YBn77a25KGmo1xQHTJn-TlWO5d7lfTV2cCpEXNL3lRkbuND7cWDAK6br1YKEaPC4FbButPc9vtsGJmlTa-5Axduy_r09MqsC9WlJGWTEWfU2Vv8Sz61eJb-iI8ZcYVUYaIKZXkyc3PmyABaFBC01lEFJQz6VFirdSsn7wjqWyOw7K1J9wrUGfRnHyWZJ7z0GY0oh57N9sHRUYuVLH2aqj6RGYr5-hfTPLQOeTpW5_k3Gqs9wE7iCWAbQv8VCM5UIajMP5-sX8h1dLEYgsSSVvfEQPUYnA7aNkrncCbStDm6WWhYhQqnn7ZOn1EMbM4AV46tI3fDCKFMJFpPQ6ojcEwck00ub-DerewJY2n931rAUatuoz1zZp-YmnpIlglSXc_8oR1lDZEFN6ZTnywxu_]--></g></svg>