<?xml version="1.0" encoding="us-ascii" standalone="no"?><svg xmlns="http://www.w3.org/2000/svg" xmlns:xlink="http://www.w3.org/1999/xlink" contentStyleType="text/css" height="378px" preserveAspectRatio="none" style="width:885px;height:378px;background:#FFFFFF;" version="1.1" viewBox="0 0 885 378" width="885px" zoomAndPan="magnify"><defs/><g><text fill="#000000" font-family="sans-serif" font-size="14" font-weight="bold" lengthAdjust="spacing" textLength="166" x="358.75" y="29.5332">Sequence Diagram Title</text><rect fill="#FFFFFF" height="202.7188" style="stroke:#181818;stroke-width:1.0;" width="10" x="52.5" y="103.8281"/><rect fill="#FFFFFF" height="173.0156" style="stroke:#181818;stroke-width:1.0;" width="10" x="338.5" y="142.5313"/><rect fill="#FFFFFF" height="30.3516" style="stroke:#181818;stroke-width:1.0;" width="10" x="528.5" y="245.8438"/><rect fill="#FFFFFF" height="32.6094" style="stroke:#181818;stroke-width:1.0;" width="10" x="815" y="182.8828"/><line style="stroke:#181818;stroke-width:0.5;stroke-dasharray:5.0,5.0;" x1="57" x2="57" y1="93.8281" y2="324.5469"/><line style="stroke:#181818;stroke-width:0.5;stroke-dasharray:5.0,5.0;" x1="343" x2="343" y1="93.8281" y2="324.5469"/><line style="stroke:#181818;stroke-width:0.5;stroke-dasharray:5.0,5.0;" x1="533" x2="533" y1="93.8281" y2="324.5469"/><line style="stroke:#181818;stroke-width:0.5;stroke-dasharray:5.0,5.0;" x1="819.5" x2="819.5" y1="181.8359" y2="324.5469"/><rect fill="#E2E2F0" height="49.2188" rx="2.5" ry="2.5" style="stroke:#181818;stroke-width:0.5;" width="105" x="5" y="43.6094"/><text fill="#000000" font-family="sans-serif" font-size="14" lengthAdjust="spacing" textLength="70" x="20.5" y="65.1426">Controller /</text><text fill="#000000" font-family="sans-serif" font-size="14" lengthAdjust="spacing" textLength="87" x="16" y="82.752">Other Service</text><rect fill="#E2E2F0" height="49.2188" rx="2.5" ry="2.5" style="stroke:#181818;stroke-width:0.5;" width="105" x="5" y="323.5469"/><text fill="#000000" font-family="sans-serif" font-size="14" lengthAdjust="spacing" textLength="70" x="20.5" y="345.0801">Controller /</text><text fill="#000000" font-family="sans-serif" font-size="14" lengthAdjust="spacing" textLength="87" x="16" y="362.6895">Other Service</text><rect fill="#E2E2F0" height="31.6094" rx="2.5" ry="2.5" style="stroke:#181818;stroke-width:0.5;" width="173" x="257" y="61.2188"/><text fill="#000000" font-family="sans-serif" font-size="14" lengthAdjust="spacing" textLength="159" x="264" y="82.752">PendingRequestsService</text><rect fill="#E2E2F0" height="31.6094" rx="2.5" ry="2.5" style="stroke:#181818;stroke-width:0.5;" width="173" x="257" y="323.5469"/><text fill="#000000" font-family="sans-serif" font-size="14" lengthAdjust="spacing" textLength="159" x="264" y="345.0801">PendingRequestsService</text><rect fill="#E2E2F0" height="31.6094" rx="2.5" ry="2.5" style="stroke:#181818;stroke-width:0.5;" width="187" x="440" y="61.2188"/><text fill="#000000" font-family="sans-serif" font-size="14" lengthAdjust="spacing" textLength="173" x="447" y="82.752">PendingRequestRepository</text><rect fill="#E2E2F0" height="31.6094" rx="2.5" ry="2.5" style="stroke:#181818;stroke-width:0.5;" width="187" x="440" y="323.5469"/><text fill="#000000" font-family="sans-serif" font-size="14" lengthAdjust="spacing" textLength="173" x="447" y="345.0801">PendingRequestRepository</text><rect fill="#E2E2F0" height="31.6094" rx="2.5" ry="2.5" style="stroke:#181818;stroke-width:0.5;" width="119" x="760.5" y="323.5469"/><text fill="#000000" font-family="sans-serif" font-size="14" lengthAdjust="spacing" textLength="105" x="767.5" y="345.0801">PendingRequest</text><rect fill="#FFFFFF" height="202.7188" style="stroke:#181818;stroke-width:1.0;" width="10" x="52.5" y="103.8281"/><rect fill="#FFFFFF" height="173.0156" style="stroke:#181818;stroke-width:1.0;" width="10" x="338.5" y="142.5313"/><rect fill="#FFFFFF" height="30.3516" style="stroke:#181818;stroke-width:1.0;" width="10" x="528.5" y="245.8438"/><rect fill="#FFFFFF" height="32.6094" style="stroke:#181818;stroke-width:1.0;" width="10" x="815" y="182.8828"/><polygon fill="#A52A2A" points="326.5,138.5313,336.5,142.5313,326.5,146.5313,330.5,142.5313" style="stroke:#A52A2A;stroke-width:1.0;"/><line style="stroke:#A52A2A;stroke-width:1.0;" x1="62.5" x2="332.5" y1="142.5313" y2="142.5313"/><text fill="#000000" font-family="sans-serif" font-size="13" lengthAdjust="spacing" textLength="253" x="69.5" y="121.3232">createPendingRequest(user, attributeName,</text><text fill="#000000" font-family="sans-serif" font-size="13" lengthAdjust="spacing" textLength="140" x="73.5" y="137.6748">pendingValue, oldValue)</text><polygon fill="#A52A2A" points="748.5,168.8828,758.5,172.8828,748.5,176.8828,752.5,172.8828" style="stroke:#A52A2A;stroke-width:1.0;"/><line style="stroke:#A52A2A;stroke-width:1.0;" x1="348.5" x2="754.5" y1="172.8828" y2="172.8828"/><text fill="#000000" font-family="sans-serif" font-size="13" lengthAdjust="spacing" textLength="388" x="355.5" y="168.0264">new PendingRequest(user, attributeName, pendingValue, oldValue)</text><rect fill="#E2E2F0" height="31.6094" rx="2.5" ry="2.5" style="stroke:#181818;stroke-width:0.5;" width="119" x="760.5" y="150.5313"/><text fill="#000000" font-family="sans-serif" font-size="14" lengthAdjust="spacing" textLength="105" x="767.5" y="172.0645">PendingRequest</text><polygon fill="#A52A2A" points="359.5,211.4922,349.5,215.4922,359.5,219.4922,355.5,215.4922" style="stroke:#A52A2A;stroke-width:1.0;"/><line style="stroke:#A52A2A;stroke-width:1.0;stroke-dasharray:2.0,2.0;" x1="353.5" x2="819" y1="215.4922" y2="215.4922"/><text fill="#000000" font-family="sans-serif" font-size="13" lengthAdjust="spacing" textLength="93" x="365.5" y="210.6357">pendingRequest</text><polygon fill="#A52A2A" points="516.5,241.8438,526.5,245.8438,516.5,249.8438,520.5,245.8438" style="stroke:#A52A2A;stroke-width:1.0;"/><line style="stroke:#A52A2A;stroke-width:1.0;" x1="348.5" x2="522.5" y1="245.8438" y2="245.8438"/><text fill="#000000" font-family="sans-serif" font-size="13" lengthAdjust="spacing" textLength="127" x="355.5" y="240.9873">save(pendingRequest)</text><polygon fill="#A52A2A" points="359.5,272.1953,349.5,276.1953,359.5,280.1953,355.5,276.1953" style="stroke:#A52A2A;stroke-width:1.0;"/><line style="stroke:#A52A2A;stroke-width:1.0;stroke-dasharray:2.0,2.0;" x1="353.5" x2="532.5" y1="276.1953" y2="276.1953"/><text fill="#000000" font-family="sans-serif" font-size="13" lengthAdjust="spacing" textLength="33" x="365.5" y="271.3389">saved</text><polygon fill="#A52A2A" points="68.5,302.5469,58.5,306.5469,68.5,310.5469,64.5,306.5469" style="stroke:#A52A2A;stroke-width:1.0;"/><line style="stroke:#A52A2A;stroke-width:1.0;stroke-dasharray:2.0,2.0;" x1="62.5" x2="337.5" y1="306.5469" y2="306.5469"/><text fill="#000000" font-family="sans-serif" font-size="13" lengthAdjust="spacing" textLength="43" x="74.5" y="301.6904">created</text><!--SRC=[rLBBRi8m4Bpp5IjE587QSmz8F2v82111FVMojPTW4UnqxO1erN-lapJ4HkhZsfpMtfcT6M-SSXb1Ggy5QK4mKvWo7c5RNdViGUaSoxF8qDgnSwnU2aTpONIYtWWUEhSOUE-0_nPgHmkbQM9O4azDPXXcHgR4awoW68BYaB8fjAnXu_LwCP-Ej_FLiiBTzXTqD7gwLxkTqHLWp6pETM_Yg_eo54vGoepgtaVeEFUZCQN4NVmRC0c7ElMnmqp8yXz4wdYtJWcLetRGdHhjs6GPCTp3iuQLs_io8JufGLr02oqYPgv9IwNJJVaxM6T3Ygthd_0RoerLpl2bOl3r-1EfWkRHbS-3mgaJEWgT1h66eyOFF89WyiXuQg_m_G5WyySkyKY3yYs-b9xGxsm09fDLTTSADZcR-LugTjVlUqrDP_YBugzoDydZ8mo7epRd3LJITqC2w-qE_02B9-h5sC19iAw0DOoUkfmWG-M0T5NrZ61LpNuYMjl_1000]--></g></svg>