<?xml version="1.0" encoding="us-ascii" standalone="no"?><svg xmlns="http://www.w3.org/2000/svg" xmlns:xlink="http://www.w3.org/1999/xlink" contentStyleType="text/css" height="419px" preserveAspectRatio="none" style="width:488px;height:419px;background:#FFFFFF;" version="1.1" viewBox="0 0 488 419" width="488px" zoomAndPan="magnify"><defs/><g><text fill="#000000" font-family="sans-serif" font-size="14" font-weight="bold" lengthAdjust="spacing" textLength="166" x="160" y="29.5332">Sequence Diagram Title</text><rect fill="#FFFFFF" height="221.1094" style="stroke:#181818;stroke-width:1.0;" width="10" x="254.5" y="126.1797"/><rect fill="#FFFFFF" height="102.0547" style="stroke:#181818;stroke-width:1.0;" width="10" x="259.5" y="164.5313"/><rect fill="#FFFFFF" height="30.3516" style="stroke:#181818;stroke-width:1.0;" width="10" x="437.5" y="199.8828"/><line style="stroke:#181818;stroke-width:0.5;stroke-dasharray:5.0,5.0;" x1="57" x2="57" y1="93.8281" y2="365.2891"/><line style="stroke:#181818;stroke-width:0.5;stroke-dasharray:5.0,5.0;" x1="259.5" x2="259.5" y1="93.8281" y2="365.2891"/><line style="stroke:#181818;stroke-width:0.5;stroke-dasharray:5.0,5.0;" x1="442" x2="442" y1="93.8281" y2="365.2891"/><rect fill="#E2E2F0" height="49.2188" rx="2.5" ry="2.5" style="stroke:#181818;stroke-width:0.5;" width="105" x="5" y="43.6094"/><text fill="#000000" font-family="sans-serif" font-size="14" lengthAdjust="spacing" textLength="70" x="20.5" y="65.1426">Controller /</text><text fill="#000000" font-family="sans-serif" font-size="14" lengthAdjust="spacing" textLength="87" x="16" y="82.752">Other Service</text><rect fill="#E2E2F0" height="49.2188" rx="2.5" ry="2.5" style="stroke:#181818;stroke-width:0.5;" width="105" x="5" y="364.2891"/><text fill="#000000" font-family="sans-serif" font-size="14" lengthAdjust="spacing" textLength="70" x="20.5" y="385.8223">Controller /</text><text fill="#000000" font-family="sans-serif" font-size="14" lengthAdjust="spacing" textLength="87" x="16" y="403.4316">Other Service</text><rect fill="#E2E2F0" height="31.6094" rx="2.5" ry="2.5" style="stroke:#181818;stroke-width:0.5;" width="148" x="185.5" y="61.2188"/><text fill="#000000" font-family="sans-serif" font-size="14" lengthAdjust="spacing" textLength="134" x="192.5" y="82.752">SensitiveDataService</text><rect fill="#E2E2F0" height="31.6094" rx="2.5" ry="2.5" style="stroke:#181818;stroke-width:0.5;" width="148" x="185.5" y="364.2891"/><text fill="#000000" font-family="sans-serif" font-size="14" lengthAdjust="spacing" textLength="134" x="192.5" y="385.8223">SensitiveDataService</text><rect fill="#E2E2F0" height="31.6094" style="stroke:#181818;stroke-width:0.5;" width="75" x="407" y="57.2188"/><rect fill="#E2E2F0" height="31.6094" style="stroke:#181818;stroke-width:0.5;" width="75" x="403" y="61.2188"/><text fill="#000000" font-family="sans-serif" font-size="14" lengthAdjust="spacing" textLength="61" x="410" y="82.752">configFile</text><rect fill="#E2E2F0" height="31.6094" style="stroke:#181818;stroke-width:0.5;" width="75" x="407" y="364.2891"/><rect fill="#E2E2F0" height="31.6094" style="stroke:#181818;stroke-width:0.5;" width="75" x="403" y="368.2891"/><text fill="#000000" font-family="sans-serif" font-size="14" lengthAdjust="spacing" textLength="61" x="410" y="389.8223">configFile</text><rect fill="#FFFFFF" height="221.1094" style="stroke:#181818;stroke-width:1.0;" width="10" x="254.5" y="126.1797"/><rect fill="#FFFFFF" height="102.0547" style="stroke:#181818;stroke-width:1.0;" width="10" x="259.5" y="164.5313"/><rect fill="#FFFFFF" height="30.3516" style="stroke:#181818;stroke-width:1.0;" width="10" x="437.5" y="199.8828"/><polygon fill="#A52A2A" points="242.5,122.1797,252.5,126.1797,242.5,130.1797,246.5,126.1797" style="stroke:#A52A2A;stroke-width:1.0;"/><line style="stroke:#A52A2A;stroke-width:1.0;" x1="57.5" x2="248.5" y1="126.1797" y2="126.1797"/><text fill="#000000" font-family="sans-serif" font-size="13" lengthAdjust="spacing" textLength="178" x="64.5" y="121.3232">isSensitiveData(attributeName)</text><line style="stroke:#A52A2A;stroke-width:1.0;" x1="264.5" x2="311.5" y1="151.5313" y2="151.5313"/><line style="stroke:#A52A2A;stroke-width:1.0;" x1="311.5" x2="311.5" y1="151.5313" y2="164.5313"/><line style="stroke:#A52A2A;stroke-width:1.0;" x1="270.5" x2="311.5" y1="164.5313" y2="164.5313"/><polygon fill="#A52A2A" points="280.5,160.5313,270.5,164.5313,280.5,168.5313,276.5,164.5313" style="stroke:#A52A2A;stroke-width:1.0;"/><text fill="#000000" font-family="sans-serif" font-size="13" lengthAdjust="spacing" textLength="126" x="276.5" y="146.6748">getSensitiveDataList()</text><polygon fill="#A52A2A" points="425.5,195.8828,435.5,199.8828,425.5,203.8828,429.5,199.8828" style="stroke:#A52A2A;stroke-width:1.0;"/><line style="stroke:#A52A2A;stroke-width:1.0;" x1="269.5" x2="431.5" y1="199.8828" y2="199.8828"/><text fill="#000000" font-family="sans-serif" font-size="13" lengthAdjust="spacing" textLength="33" x="276.5" y="195.0264">read()</text><polygon fill="#A52A2A" points="280.5,226.2344,270.5,230.2344,280.5,234.2344,276.5,230.2344" style="stroke:#A52A2A;stroke-width:1.0;"/><line style="stroke:#A52A2A;stroke-width:1.0;stroke-dasharray:2.0,2.0;" x1="274.5" x2="441.5" y1="230.2344" y2="230.2344"/><text fill="#000000" font-family="sans-serif" font-size="13" lengthAdjust="spacing" textLength="55" x="286.5" y="225.3779">configFile</text><line style="stroke:#A52A2A;stroke-width:1.0;stroke-dasharray:2.0,2.0;" x1="269.5" x2="311.5" y1="265.5859" y2="265.5859"/><line style="stroke:#A52A2A;stroke-width:1.0;stroke-dasharray:2.0,2.0;" x1="311.5" x2="311.5" y1="265.5859" y2="278.5859"/><line style="stroke:#A52A2A;stroke-width:1.0;stroke-dasharray:2.0,2.0;" x1="264.5" x2="311.5" y1="278.5859" y2="278.5859"/><polygon fill="#A52A2A" points="274.5,274.5859,264.5,278.5859,274.5,282.5859,270.5,278.5859" style="stroke:#A52A2A;stroke-width:1.0;"/><text fill="#000000" font-family="sans-serif" font-size="13" lengthAdjust="spacing" textLength="17" x="276.5" y="260.7295">list</text><line style="stroke:#A52A2A;stroke-width:1.0;" x1="264.5" x2="306.5" y1="303.9375" y2="303.9375"/><line style="stroke:#A52A2A;stroke-width:1.0;" x1="306.5" x2="306.5" y1="303.9375" y2="316.9375"/><line style="stroke:#A52A2A;stroke-width:1.0;" x1="265.5" x2="306.5" y1="316.9375" y2="316.9375"/><polygon fill="#A52A2A" points="275.5,312.9375,265.5,316.9375,275.5,320.9375,271.5,316.9375" style="stroke:#A52A2A;stroke-width:1.0;"/><text fill="#000000" font-family="sans-serif" font-size="13" lengthAdjust="spacing" textLength="159" x="271.5" y="299.0811">list.contains(attributeName)</text><polygon fill="#A52A2A" points="68.5,343.2891,58.5,347.2891,68.5,351.2891,64.5,347.2891" style="stroke:#A52A2A;stroke-width:1.0;"/><line style="stroke:#A52A2A;stroke-width:1.0;stroke-dasharray:2.0,2.0;" x1="62.5" x2="258.5" y1="347.2891" y2="347.2891"/><text fill="#000000" font-family="sans-serif" font-size="13" lengthAdjust="spacing" textLength="22" x="74.5" y="342.4326">true</text><!--SRC=[rLAzRi8m4Dxp52ScEj1sPgWKG9MG8a0AOvUhVGadZ4tj2rLRzTth908SL7MlfxFl-xkJXSKGbFJMa5K42yRQum6sxNCMzcoFsDwLmH1o4S-lZT1IELlo9y5ZTek1hmpYARYYWYtDdDVavyuu3mkdQ_8pqz0GWcfVUzTOtSFopQPOplFjShtgSBVzWWxEpdTSLSvsWDnxzzxtPh7g7rFZ4hKsrFU-qyJ7A8qrbV8HT-192TewZftEX5x_Wv6oc5POyH6jm6Zkh7Xd37buW1SBQzd5iYH_OaKZm01Nn91PaWqiVA852gQ4qDUPQabAsDa0e_WBAgwVsVIOYjlTPOdxvEbCX2bm6AYFyVoRLdYWkmoZwWc5BbPdva2a9Xce51na_2UvJHM9db2dm2virviC3AupPPg6w8lcW61YWXJwP_mMV1yj1Dc6smsa-iaIfo2-eTyiVW00]--></g></svg>