<?xml version="1.0" encoding="us-ascii" standalone="no"?><svg xmlns="http://www.w3.org/2000/svg" xmlns:xlink="http://www.w3.org/1999/xlink" contentStyleType="text/css" height="800px" preserveAspectRatio="none" style="width:1089px;height:800px;background:#FFFFFF;" version="1.1" viewBox="0 0 1089 800" width="1089px" zoomAndPan="magnify"><defs/><g><text fill="#000000" font-family="sans-serif" font-size="14" font-weight="bold" lengthAdjust="spacing" textLength="535" x="276.25" y="29.5332">US 5.1.3 - As a Patient, I want to self-register so that I can use the application</text><rect fill="#FFFFFF" height="578.1641" style="stroke:#181818;stroke-width:1.0;" width="10" x="40" y="131.2188"/><rect fill="#FFFFFF" height="30.3516" style="stroke:#181818;stroke-width:1.0;" width="10" x="329" y="153.5703"/><rect fill="#FFFFFF" height="495.1094" style="stroke:#181818;stroke-width:1.0;" width="10" x="329" y="214.2734"/><rect fill="#FFFFFF" height="464.7578" style="stroke:#181818;stroke-width:1.0;" width="10" x="479" y="244.625"/><rect fill="#FFFFFF" height="434.4063" style="stroke:#181818;stroke-width:1.0;" width="10" x="623" y="274.9766"/><rect fill="#FFFFFF" height="404.0547" style="stroke:#181818;stroke-width:1.0;" width="10" x="825.5" y="305.3281"/><rect fill="#FFFFFF" height="373.7031" style="stroke:#181818;stroke-width:1.0;" width="10" x="1013.5" y="335.6797"/><rect fill="none" height="320.3516" style="stroke:#000000;stroke-width:1.5;" width="1008.5" x="10" y="381.0313"/><line style="stroke:#181818;stroke-width:0.5;stroke-dasharray:5.0,5.0;" x1="45" x2="45" y1="121.2188" y2="718.3828"/><line style="stroke:#181818;stroke-width:0.5;stroke-dasharray:5.0,5.0;" x1="333.5" x2="333.5" y1="121.2188" y2="718.3828"/><line style="stroke:#181818;stroke-width:0.5;stroke-dasharray:5.0,5.0;" x1="483.5" x2="483.5" y1="121.2188" y2="718.3828"/><line style="stroke:#181818;stroke-width:0.5;stroke-dasharray:5.0,5.0;" x1="628" x2="628" y1="121.2188" y2="718.3828"/><line style="stroke:#181818;stroke-width:0.5;stroke-dasharray:5.0,5.0;" x1="830" x2="830" y1="121.2188" y2="718.3828"/><line style="stroke:#181818;stroke-width:0.5;stroke-dasharray:5.0,5.0;" x1="1018.5" x2="1018.5" y1="121.2188" y2="718.3828"/><text fill="#000000" font-family="sans-serif" font-size="14" lengthAdjust="spacing" textLength="44" x="20" y="118.1426">Patient</text><ellipse cx="45" cy="52.1094" fill="#E2E2F0" rx="8" ry="8" style="stroke:#181818;stroke-width:0.5;"/><path d="M45,60.1094 L45,87.1094 M32,68.1094 L58,68.1094 M45,87.1094 L32,102.1094 M45,87.1094 L58,102.1094 " fill="none" style="stroke:#181818;stroke-width:0.5;"/><text fill="#000000" font-family="sans-serif" font-size="14" lengthAdjust="spacing" textLength="44" x="20" y="731.916">Patient</text><ellipse cx="45" cy="743.4922" fill="#E2E2F0" rx="8" ry="8" style="stroke:#181818;stroke-width:0.5;"/><path d="M45,751.4922 L45,778.4922 M32,759.4922 L58,759.4922 M45,778.4922 L32,793.4922 M45,778.4922 L58,793.4922 " fill="none" style="stroke:#181818;stroke-width:0.5;"/><rect fill="#E2E2F0" height="31.6094" rx="2.5" ry="2.5" style="stroke:#181818;stroke-width:0.5;" width="149" x="259.5" y="88.6094"/><text fill="#000000" font-family="sans-serif" font-size="14" lengthAdjust="spacing" textLength="135" x="266.5" y="110.1426">External IAM Provider</text><rect fill="#E2E2F0" height="31.6094" rx="2.5" ry="2.5" style="stroke:#181818;stroke-width:0.5;" width="149" x="259.5" y="717.3828"/><text fill="#000000" font-family="sans-serif" font-size="14" lengthAdjust="spacing" textLength="135" x="266.5" y="738.916">External IAM Provider</text><rect fill="#E2E2F0" height="31.6094" rx="2.5" ry="2.5" style="stroke:#181818;stroke-width:0.5;" width="35" x="466.5" y="88.6094"/><text fill="#000000" font-family="sans-serif" font-size="14" lengthAdjust="spacing" textLength="21" x="473.5" y="110.1426">API</text><rect fill="#E2E2F0" height="31.6094" rx="2.5" ry="2.5" style="stroke:#181818;stroke-width:0.5;" width="35" x="466.5" y="717.3828"/><text fill="#000000" font-family="sans-serif" font-size="14" lengthAdjust="spacing" textLength="21" x="473.5" y="738.916">API</text><rect fill="#E2E2F0" height="31.6094" rx="2.5" ry="2.5" style="stroke:#181818;stroke-width:0.5;" width="200" x="528" y="88.6094"/><text fill="#000000" font-family="sans-serif" font-size="14" lengthAdjust="spacing" textLength="186" x="535" y="110.1426">:PatientRegistrationController</text><rect fill="#E2E2F0" height="31.6094" rx="2.5" ry="2.5" style="stroke:#181818;stroke-width:0.5;" width="200" x="528" y="717.3828"/><text fill="#000000" font-family="sans-serif" font-size="14" lengthAdjust="spacing" textLength="186" x="535" y="738.916">:PatientRegistrationController</text><rect fill="#E2E2F0" height="31.6094" rx="2.5" ry="2.5" style="stroke:#181818;stroke-width:0.5;" width="185" x="738" y="88.6094"/><text fill="#000000" font-family="sans-serif" font-size="14" lengthAdjust="spacing" textLength="171" x="745" y="110.1426">:PatientRegistrationService</text><rect fill="#E2E2F0" height="31.6094" rx="2.5" ry="2.5" style="stroke:#181818;stroke-width:0.5;" width="185" x="738" y="717.3828"/><text fill="#000000" font-family="sans-serif" font-size="14" lengthAdjust="spacing" textLength="171" x="745" y="738.916">:PatientRegistrationService</text><rect fill="#E2E2F0" height="31.6094" rx="2.5" ry="2.5" style="stroke:#181818;stroke-width:0.5;" width="130" x="953.5" y="88.6094"/><text fill="#000000" font-family="sans-serif" font-size="14" lengthAdjust="spacing" textLength="116" x="960.5" y="110.1426">:PatientRepository</text><rect fill="#E2E2F0" height="31.6094" rx="2.5" ry="2.5" style="stroke:#181818;stroke-width:0.5;" width="130" x="953.5" y="717.3828"/><text fill="#000000" font-family="sans-serif" font-size="14" lengthAdjust="spacing" textLength="116" x="960.5" y="738.916">:PatientRepository</text><rect fill="#FFFFFF" height="578.1641" style="stroke:#181818;stroke-width:1.0;" width="10" x="40" y="131.2188"/><rect fill="#FFFFFF" height="30.3516" style="stroke:#181818;stroke-width:1.0;" width="10" x="329" y="153.5703"/><rect fill="#FFFFFF" height="495.1094" style="stroke:#181818;stroke-width:1.0;" width="10" x="329" y="214.2734"/><rect fill="#FFFFFF" height="464.7578" style="stroke:#181818;stroke-width:1.0;" width="10" x="479" y="244.625"/><rect fill="#FFFFFF" height="434.4063" style="stroke:#181818;stroke-width:1.0;" width="10" x="623" y="274.9766"/><rect fill="#FFFFFF" height="404.0547" style="stroke:#181818;stroke-width:1.0;" width="10" x="825.5" y="305.3281"/><rect fill="#FFFFFF" height="373.7031" style="stroke:#181818;stroke-width:1.0;" width="10" x="1013.5" y="335.6797"/><polygon fill="#A52A2A" points="317,149.5703,327,153.5703,317,157.5703,321,153.5703" style="stroke:#A52A2A;stroke-width:1.0;"/><line style="stroke:#A52A2A;stroke-width:1.0;" x1="50" x2="323" y1="153.5703" y2="153.5703"/><text fill="#000000" font-family="sans-serif" font-size="13" lengthAdjust="spacing" textLength="114" x="57" y="148.7139">Tries to self-register</text><polygon fill="#A52A2A" points="61,179.9219,51,183.9219,61,187.9219,57,183.9219" style="stroke:#A52A2A;stroke-width:1.0;"/><line style="stroke:#A52A2A;stroke-width:1.0;" x1="55" x2="333" y1="183.9219" y2="183.9219"/><text fill="#000000" font-family="sans-serif" font-size="13" lengthAdjust="spacing" textLength="121" x="67" y="179.0654">Asks for login details</text><polygon fill="#A52A2A" points="317,210.2734,327,214.2734,317,218.2734,321,214.2734" style="stroke:#A52A2A;stroke-width:1.0;"/><line style="stroke:#A52A2A;stroke-width:1.0;" x1="50" x2="323" y1="214.2734" y2="214.2734"/><text fill="#000000" font-family="sans-serif" font-size="13" lengthAdjust="spacing" textLength="122" x="57" y="209.417">Provides login details</text><polygon fill="#A52A2A" points="467,240.625,477,244.625,467,248.625,471,244.625" style="stroke:#A52A2A;stroke-width:1.0;"/><line style="stroke:#A52A2A;stroke-width:1.0;" x1="339" x2="473" y1="244.625" y2="244.625"/><text fill="#000000" font-family="sans-serif" font-size="13" lengthAdjust="spacing" textLength="121" x="346" y="239.7686">validate patient email</text><polygon fill="#A52A2A" points="611,270.9766,621,274.9766,611,278.9766,615,274.9766" style="stroke:#A52A2A;stroke-width:1.0;"/><line style="stroke:#A52A2A;stroke-width:1.0;" x1="489" x2="617" y1="274.9766" y2="274.9766"/><text fill="#000000" font-family="sans-serif" font-size="13" lengthAdjust="spacing" textLength="115" x="496" y="270.1201">validateEmail(email)</text><polygon fill="#A52A2A" points="813.5,301.3281,823.5,305.3281,813.5,309.3281,817.5,305.3281" style="stroke:#A52A2A;stroke-width:1.0;"/><line style="stroke:#A52A2A;stroke-width:1.0;" x1="633" x2="819.5" y1="305.3281" y2="305.3281"/><text fill="#000000" font-family="sans-serif" font-size="13" lengthAdjust="spacing" textLength="115" x="640" y="300.4717">validateEmail(email)</text><polygon fill="#A52A2A" points="1001.5,331.6797,1011.5,335.6797,1001.5,339.6797,1005.5,335.6797" style="stroke:#A52A2A;stroke-width:1.0;"/><line style="stroke:#A52A2A;stroke-width:1.0;" x1="835.5" x2="1007.5" y1="335.6797" y2="335.6797"/><text fill="#000000" font-family="sans-serif" font-size="13" lengthAdjust="spacing" textLength="149" x="842.5" y="330.8232">findPatientByEmail(email)</text><polygon fill="#A52A2A" points="846.5,362.0313,836.5,366.0313,846.5,370.0313,842.5,366.0313" style="stroke:#A52A2A;stroke-width:1.0;"/><line style="stroke:#A52A2A;stroke-width:1.0;stroke-dasharray:2.0,2.0;" x1="840.5" x2="1012.5" y1="366.0313" y2="366.0313"/><text fill="#000000" font-family="sans-serif" font-size="13" lengthAdjust="spacing" textLength="32" x="852.5" y="361.1748">result</text><path d="M10,381.0313 L71,381.0313 L71,389.3828 L61,399.3828 L10,399.3828 L10,381.0313 " fill="#EEEEEE" style="stroke:#000000;stroke-width:1.5;"/><rect fill="none" height="320.3516" style="stroke:#000000;stroke-width:1.5;" width="1008.5" x="10" y="381.0313"/><text fill="#000000" font-family="sans-serif" font-size="13" font-weight="bold" lengthAdjust="spacing" textLength="16" x="25" y="395.5264">alt</text><text fill="#000000" font-family="sans-serif" font-size="11" font-weight="bold" lengthAdjust="spacing" textLength="112" x="86" y="394.4502">["Patient not found"]</text><polygon fill="#A52A2A" points="644,417.7344,634,421.7344,644,425.7344,640,421.7344" style="stroke:#A52A2A;stroke-width:1.0;"/><line style="stroke:#A52A2A;stroke-width:1.0;" x1="638" x2="824.5" y1="421.7344" y2="421.7344"/><text fill="#000000" font-family="sans-serif" font-size="13" lengthAdjust="spacing" textLength="27" x="650" y="416.8779">false</text><polygon fill="#A52A2A" points="500,448.0859,490,452.0859,500,456.0859,496,452.0859" style="stroke:#A52A2A;stroke-width:1.0;"/><line style="stroke:#A52A2A;stroke-width:1.0;" x1="494" x2="622" y1="452.0859" y2="452.0859"/><text fill="#000000" font-family="sans-serif" font-size="13" lengthAdjust="spacing" textLength="27" x="506" y="447.2295">false</text><polygon fill="#A52A2A" points="350,478.4375,340,482.4375,350,486.4375,346,482.4375" style="stroke:#A52A2A;stroke-width:1.0;"/><line style="stroke:#A52A2A;stroke-width:1.0;" x1="344" x2="478" y1="482.4375" y2="482.4375"/><text fill="#000000" font-family="sans-serif" font-size="13" lengthAdjust="spacing" textLength="27" x="356" y="477.5811">false</text><polygon fill="#A52A2A" points="61,508.7891,51,512.7891,61,516.7891,57,512.7891" style="stroke:#A52A2A;stroke-width:1.0;"/><line style="stroke:#A52A2A;stroke-width:1.0;" x1="55" x2="328" y1="512.7891" y2="512.7891"/><text fill="#000000" font-family="sans-serif" font-size="13" lengthAdjust="spacing" textLength="149" x="67" y="507.9326">shows "Patient not found"</text><line style="stroke:#000000;stroke-width:1.0;stroke-dasharray:2.0,2.0;" x1="10" x2="1018.5" y1="521.7891" y2="521.7891"/><text fill="#000000" font-family="sans-serif" font-size="11" font-weight="bold" lengthAdjust="spacing" textLength="91" x="15" y="533.208">["Patient found"]</text><line style="stroke:#A52A2A;stroke-width:1.0;" x1="835.5" x2="877.5" y1="558.9766" y2="558.9766"/><line style="stroke:#A52A2A;stroke-width:1.0;" x1="877.5" x2="877.5" y1="558.9766" y2="571.9766"/><line style="stroke:#A52A2A;stroke-width:1.0;" x1="836.5" x2="877.5" y1="571.9766" y2="571.9766"/><polygon fill="#A52A2A" points="846.5,567.9766,836.5,571.9766,846.5,575.9766,842.5,571.9766" style="stroke:#A52A2A;stroke-width:1.0;"/><text fill="#000000" font-family="sans-serif" font-size="13" lengthAdjust="spacing" textLength="164" x="842.5" y="554.1201">sendVerificationEmail(email)</text><polygon fill="#A52A2A" points="644,598.3281,634,602.3281,644,606.3281,640,602.3281" style="stroke:#A52A2A;stroke-width:1.0;"/><line style="stroke:#A52A2A;stroke-width:1.0;" x1="638" x2="824.5" y1="602.3281" y2="602.3281"/><text fill="#000000" font-family="sans-serif" font-size="13" lengthAdjust="spacing" textLength="22" x="650" y="597.4717">true</text><polygon fill="#A52A2A" points="500,628.6797,490,632.6797,500,636.6797,496,632.6797" style="stroke:#A52A2A;stroke-width:1.0;"/><line style="stroke:#A52A2A;stroke-width:1.0;" x1="494" x2="622" y1="632.6797" y2="632.6797"/><text fill="#000000" font-family="sans-serif" font-size="13" lengthAdjust="spacing" textLength="22" x="506" y="627.8232">true</text><polygon fill="#A52A2A" points="350,659.0313,340,663.0313,350,667.0313,346,663.0313" style="stroke:#A52A2A;stroke-width:1.0;"/><line style="stroke:#A52A2A;stroke-width:1.0;" x1="344" x2="478" y1="663.0313" y2="663.0313"/><text fill="#000000" font-family="sans-serif" font-size="13" lengthAdjust="spacing" textLength="22" x="356" y="658.1748">true</text><polygon fill="#A52A2A" points="61,689.3828,51,693.3828,61,697.3828,57,693.3828" style="stroke:#A52A2A;stroke-width:1.0;"/><line style="stroke:#A52A2A;stroke-width:1.0;" x1="55" x2="328" y1="693.3828" y2="693.3828"/><text fill="#000000" font-family="sans-serif" font-size="13" lengthAdjust="spacing" textLength="255" x="67" y="688.5264">shows "User Registrered, check your email"</text><!--SRC=[rLHDZvim4BtxLunoQgNDgbNL2uTAXEu1AMrHsEtTYmTYnR6HFIHDg_xt3XyR8CcglPO3X9dtFE_DJ21D1k4fXu_tx-y_m1BY018oIHejtK4AHsa9o450KouzLZeGUWWEQ2k9yuMqq0JaLmHPrqONp7LMYB3JjfPUxg4mCeIOoEldXZ0jdCtrJuHtLnZu9O2ljIvnhIskd5Ve4sUSXyzELUXNfi4vH1Qxohl6gXuMPzawJUB7zDlN3dUPN-FUsMIhov8bje3OUtViSol-rGUdXNEfbC4-ztkgkEQZPOKvdRY17WkIjZ8uyoIz-WyioO8uk1XclW0P81E2BP0kTDsEV_7mWuTkfO4q_WAPTmVDXtL83ioXSPPs2NxE4z5GODFjaE-s976Ml3DcE2pR97_dvEWFki21aBz6g5tGxEiqu3gR-Y09MtCPB3-rqYDuz1h3rNvFqAr1qTfcHXRntsCNeEH-6LTf2mf9QXE4K3XdZ1M6TeLBniqAtBK83j9erMRgtWpWdYaJHjjRmRTEqoOP6Gyjy4q7Vpjrp7qLVEln-J_WynQVz_W8IctLqDZLwLLEIu7bImcFeJ7404FdtGBhY9l7gxiGtLQUQx27Kfg0B-7at8n9U73STNKI7eSJjkuORbT3Xe-PcnfOT42hlgFNvV0LctkzL4o-kI5uZ4xrZj4hkK-1FwZ3XgD7TGV55eiTd5pZ-z4l1EiIy-iF]--></g></svg>