<?xml version="1.0" encoding="us-ascii" standalone="no"?><svg xmlns="http://www.w3.org/2000/svg" xmlns:xlink="http://www.w3.org/1999/xlink" contentStyleType="text/css" height="371px" preserveAspectRatio="none" style="width:1546px;height:371px;background:#FFFFFF;" version="1.1" viewBox="0 0 1546 371" width="1546px" zoomAndPan="magnify"><defs/><g><text fill="#000000" font-family="sans-serif" font-size="14" font-weight="bold" lengthAdjust="spacing" textLength="100" x="716" y="24.5332">Domain Model</text><!--cluster Patient Aggregate--><g id="cluster_Patient Aggregate"><rect fill="none" height="320" rx="2.5" ry="2.5" style="stroke:#000000;stroke-width:1.5;" width="1533" x="7" y="45.6094"/><text fill="#000000" font-family="sans-serif" font-size="14" font-weight="bold" lengthAdjust="spacing" textLength="126" x="710.5" y="62.1426">Patient Aggregate</text></g><!--class Patient--><g id="elem_Patient"><rect codeLine="39" fill="#FFFACD" height="65.7969" id="Patient" rx="2.5" ry="2.5" style="stroke:#8B4513;stroke-width:0.5;" width="50" x="692" y="81.6094"/><text fill="#000000" font-family="sans-serif" font-size="12" font-style="italic" lengthAdjust="spacing" textLength="43" x="695.5" y="99.0664">&#171;entity&#187;</text><text fill="#000000" font-family="sans-serif" font-size="12" font-style="italic" lengthAdjust="spacing" textLength="35" x="699.5" y="114.1602">&#171;root&#187;</text><text fill="#000000" font-family="sans-serif" font-size="14" lengthAdjust="spacing" textLength="44" x="695" y="131.3301">Patient</text><line style="stroke:#8B4513;stroke-width:0.5;" x1="693" x2="741" y1="139.4063" y2="139.4063"/></g><!--entity PatientFirstName--><g id="elem_PatientFirstName"><rect fill="#FFFACD" height="41.2188" rx="2.5" ry="2.5" style="stroke:#8B4513;stroke-width:0.5;" width="128" x="23" y="207.6094"/><text fill="#000000" font-family="sans-serif" font-size="14" font-style="italic" lengthAdjust="spacing" textLength="97" x="38.5" y="225.1426">&#171;Value Object&#187;</text><text fill="#000000" font-family="sans-serif" font-size="14" lengthAdjust="spacing" textLength="108" x="33" y="242.752">PatientFirstName</text></g><!--entity PatientLastName--><g id="elem_PatientLastName"><rect fill="#FFFACD" height="41.2188" rx="2.5" ry="2.5" style="stroke:#8B4513;stroke-width:0.5;" width="127" x="186.5" y="207.6094"/><text fill="#000000" font-family="sans-serif" font-size="14" font-style="italic" lengthAdjust="spacing" textLength="97" x="201.5" y="225.1426">&#171;Value Object&#187;</text><text fill="#000000" font-family="sans-serif" font-size="14" lengthAdjust="spacing" textLength="107" x="196.5" y="242.752">PatientLastName</text></g><!--entity PatientFullName--><g id="elem_PatientFullName"><rect fill="#FFFACD" height="41.2188" rx="2.5" ry="2.5" style="stroke:#8B4513;stroke-width:0.5;" width="123" x="348.5" y="207.6094"/><text fill="#000000" font-family="sans-serif" font-size="14" font-style="italic" lengthAdjust="spacing" textLength="97" x="361.5" y="225.1426">&#171;Value Object&#187;</text><text fill="#000000" font-family="sans-serif" font-size="14" lengthAdjust="spacing" textLength="103" x="358.5" y="242.752">PatientFullName</text></g><!--entity DateOfBirth--><g id="elem_DateOfBirth"><rect fill="#FFFACD" height="41.2188" rx="2.5" ry="2.5" style="stroke:#8B4513;stroke-width:0.5;" width="117" x="506.5" y="207.6094"/><text fill="#000000" font-family="sans-serif" font-size="14" font-style="italic" lengthAdjust="spacing" textLength="97" x="516.5" y="225.1426">&#171;Value Object&#187;</text><text fill="#000000" font-family="sans-serif" font-size="14" lengthAdjust="spacing" textLength="74" x="528" y="242.752">DateOfBirth</text></g><!--entity Gender--><g id="elem_Gender"><rect fill="#FFFACD" height="41.2188" rx="2.5" ry="2.5" style="stroke:#8B4513;stroke-width:0.5;" width="117" x="658.5" y="207.6094"/><text fill="#000000" font-family="sans-serif" font-size="14" font-style="italic" lengthAdjust="spacing" textLength="97" x="668.5" y="225.1426">&#171;Value Object&#187;</text><text fill="#000000" font-family="sans-serif" font-size="14" lengthAdjust="spacing" textLength="48" x="693" y="242.752">Gender</text></g><!--entity MedicalRecordNumber--><g id="elem_MedicalRecordNumber"><rect fill="#FFFACD" height="41.2188" rx="2.5" ry="2.5" style="stroke:#8B4513;stroke-width:0.5;" width="163" x="810.5" y="207.6094"/><text fill="#000000" font-family="sans-serif" font-size="14" font-style="italic" lengthAdjust="spacing" textLength="97" x="843.5" y="225.1426">&#171;Value Object&#187;</text><text fill="#000000" font-family="sans-serif" font-size="14" lengthAdjust="spacing" textLength="143" x="820.5" y="242.752">MedicalRecordNumber</text></g><!--entity ContactInformation--><g id="elem_ContactInformation"><rect fill="#FFFACD" height="41.2188" rx="2.5" ry="2.5" style="stroke:#8B4513;stroke-width:0.5;" width="139" x="1008.5" y="207.6094"/><text fill="#000000" font-family="sans-serif" font-size="14" font-style="italic" lengthAdjust="spacing" textLength="97" x="1029.5" y="225.1426">&#171;Value Object&#187;</text><text fill="#000000" font-family="sans-serif" font-size="14" lengthAdjust="spacing" textLength="119" x="1018.5" y="242.752">ContactInformation</text></g><!--entity AllergiesAndConditions--><g id="elem_AllergiesAndConditions"><rect fill="#FFFACD" height="41.2188" rx="2.5" ry="2.5" style="stroke:#8B4513;stroke-width:0.5;" width="166" x="1183" y="207.6094"/><text fill="#000000" font-family="sans-serif" font-size="14" font-style="italic" lengthAdjust="spacing" textLength="97" x="1217.5" y="225.1426">&#171;Value Object&#187;</text><text fill="#000000" font-family="sans-serif" font-size="14" lengthAdjust="spacing" textLength="146" x="1193" y="242.752">AllergiesAndConditions</text></g><!--entity EmergencyContact--><g id="elem_EmergencyContact"><rect fill="#FFFACD" height="41.2188" rx="2.5" ry="2.5" style="stroke:#8B4513;stroke-width:0.5;" width="140" x="1384" y="207.6094"/><text fill="#000000" font-family="sans-serif" font-size="14" font-style="italic" lengthAdjust="spacing" textLength="97" x="1405.5" y="225.1426">&#171;Value Object&#187;</text><text fill="#000000" font-family="sans-serif" font-size="14" lengthAdjust="spacing" textLength="120" x="1394" y="242.752">EmergencyContact</text></g><!--entity PatientEmail--><g id="elem_PatientEmail"><rect fill="#FFFACD" height="41.2188" rx="2.5" ry="2.5" style="stroke:#8B4513;stroke-width:0.5;" width="117" x="943.5" y="308.6094"/><text fill="#000000" font-family="sans-serif" font-size="14" font-style="italic" lengthAdjust="spacing" textLength="97" x="953.5" y="326.1426">&#171;Value Object&#187;</text><text fill="#000000" font-family="sans-serif" font-size="14" lengthAdjust="spacing" textLength="78" x="963" y="343.752">PatientEmail</text></g><!--entity PhoneNumber--><g id="elem_PhoneNumber"><rect fill="#FFFACD" height="41.2188" rx="2.5" ry="2.5" style="stroke:#8B4513;stroke-width:0.5;" width="117" x="1095.5" y="308.6094"/><text fill="#000000" font-family="sans-serif" font-size="14" font-style="italic" lengthAdjust="spacing" textLength="97" x="1105.5" y="326.1426">&#171;Value Object&#187;</text><text fill="#000000" font-family="sans-serif" font-size="14" lengthAdjust="spacing" textLength="90" x="1109" y="343.752">PhoneNumber</text></g><!--link ContactInformation to PatientEmail--><g id="link_ContactInformation_PatientEmail"><path codeLine="58" d="M1062.98,248.6694 C1049.66,266.0294 1033.9551,286.4912 1020.6351,303.8312 " fill="none" id="ContactInformation-to-PatientEmail" style="stroke:#A52A2A;stroke-width:1.0;"/><polygon fill="#A52A2A" points="1016.98,308.5894,1025.6347,303.8888,1020.0259,304.6242,1019.2905,299.0154,1016.98,308.5894" style="stroke:#A52A2A;stroke-width:1.0;"/><text fill="#000000" font-family="sans-serif" font-size="13" lengthAdjust="spacing" textLength="7" x="1050.7713" y="270.2157">1</text><text fill="#000000" font-family="sans-serif" font-size="13" lengthAdjust="spacing" textLength="7" x="1013.3523" y="297.7262">1</text></g><!--link ContactInformation to PhoneNumber--><g id="link_ContactInformation_PhoneNumber"><path codeLine="59" d="M1093.02,248.6694 C1106.34,266.0294 1122.0449,286.4912 1135.3649,303.8312 " fill="none" id="ContactInformation-to-PhoneNumber" style="stroke:#A52A2A;stroke-width:1.0;"/><polygon fill="#A52A2A" points="1139.02,308.5894,1136.7095,299.0154,1135.9741,304.6242,1130.3653,303.8888,1139.02,308.5894" style="stroke:#A52A2A;stroke-width:1.0;"/><text fill="#000000" font-family="sans-serif" font-size="13" lengthAdjust="spacing" textLength="7" x="1089.26" y="270.2157">1</text><text fill="#000000" font-family="sans-serif" font-size="13" lengthAdjust="spacing" textLength="7" x="1126.5915" y="297.7262">1</text></g><!--link Patient to PatientFirstName--><g id="link_Patient_PatientFirstName"><path codeLine="62" d="M691.76,119.2294 C613.72,130.5594 369.44,166.9994 169,207.6094 C163.26,208.7694 163.1776,208.7499 157.2276,210.0699 " fill="none" id="Patient-to-PatientFirstName" style="stroke:#A52A2A;stroke-width:1.0;"/><polygon fill="#A52A2A" points="151.37,211.3694,161.0227,213.3252,156.2513,210.2865,159.29,205.5151,151.37,211.3694" style="stroke:#A52A2A;stroke-width:1.0;"/><text fill="#000000" font-family="sans-serif" font-size="13" lengthAdjust="spacing" textLength="7" x="677.0361" y="115.8907">1</text><text fill="#000000" font-family="sans-serif" font-size="13" lengthAdjust="spacing" textLength="7" x="158.7933" y="206.1658">1</text></g><!--link Patient to PatientLastName--><g id="link_Patient_PatientLastName"><path codeLine="63" d="M691.7,121.6194 C630.03,136.2694 467,175.0294 331,207.6094 C325.37,208.9594 325.3635,208.9557 319.5035,210.3657 " fill="none" id="Patient-to-PatientLastName" style="stroke:#A52A2A;stroke-width:1.0;"/><polygon fill="#A52A2A" points="313.67,211.7694,323.356,213.5529,318.5313,210.5997,321.4845,205.7749,313.67,211.7694" style="stroke:#A52A2A;stroke-width:1.0;"/><text fill="#000000" font-family="sans-serif" font-size="13" lengthAdjust="spacing" textLength="7" x="676.96" y="139.223">1</text><text fill="#000000" font-family="sans-serif" font-size="13" lengthAdjust="spacing" textLength="7" x="321.4365" y="206.4579">1</text></g><!--link Patient to PatientFullName--><g id="link_Patient_PatientFullName"><path codeLine="64" d="M691.88,124.7294 C642.26,142.7594 536.3396,181.2213 469.3996,205.5313 " fill="none" id="Patient-to-PatientFullName" style="stroke:#A52A2A;stroke-width:1.0;"/><polygon fill="#A52A2A" points="463.76,207.5794,473.5848,208.267,468.4597,205.8726,470.854,200.7475,463.76,207.5794" style="stroke:#A52A2A;stroke-width:1.0;"/><text fill="#000000" font-family="sans-serif" font-size="13" lengthAdjust="spacing" textLength="7" x="677.0576" y="144.7785">1</text><text fill="#000000" font-family="sans-serif" font-size="13" lengthAdjust="spacing" textLength="7" x="471.5239" y="196.7133">1</text></g><!--link Patient to DateOfBirth--><g id="link_Patient_DateOfBirth"><path codeLine="65" d="M691.9,134.0194 C664.24,154.3094 624.7785,183.2613 596.5085,203.9913 " fill="none" id="Patient-to-DateOfBirth" style="stroke:#A52A2A;stroke-width:1.0;"/><polygon fill="#A52A2A" points="591.67,207.5394,601.2932,205.443,595.7021,204.5827,596.5625,198.9916,591.67,207.5394" style="stroke:#A52A2A;stroke-width:1.0;"/><text fill="#000000" font-family="sans-serif" font-size="13" lengthAdjust="spacing" textLength="7" x="676.8562" y="155.3016">1</text><text fill="#000000" font-family="sans-serif" font-size="13" lengthAdjust="spacing" textLength="7" x="591.4762" y="196.6616">1</text></g><!--link Patient to Gender--><g id="link_Patient_Gender"><path codeLine="66" d="M717,147.8594 C717,167.1594 717,185.0494 717,201.5194 " fill="none" id="Patient-to-Gender" style="stroke:#A52A2A;stroke-width:1.0;"/><polygon fill="#A52A2A" points="717,207.5194,721,198.5194,717,202.5194,713,198.5194,717,207.5194" style="stroke:#A52A2A;stroke-width:1.0;"/><text fill="#000000" font-family="sans-serif" font-size="13" lengthAdjust="spacing" textLength="7" x="709.3547" y="169.0111">1</text><text fill="#000000" font-family="sans-serif" font-size="13" lengthAdjust="spacing" textLength="7" x="708.9719" y="196.6357">1</text></g><!--link Patient to MedicalRecordNumber--><g id="link_Patient_MedicalRecordNumber"><path codeLine="67" d="M742.07,131.5894 C773.55,151.6394 822.4401,182.7849 856.3201,204.3749 " fill="none" id="Patient-to-MedicalRecordNumber" style="stroke:#A52A2A;stroke-width:1.0;"/><polygon fill="#A52A2A" points="861.38,207.5994,855.9397,199.3894,857.1634,204.9123,851.6405,206.136,861.38,207.5994" style="stroke:#A52A2A;stroke-width:1.0;"/><text fill="#000000" font-family="sans-serif" font-size="13" lengthAdjust="spacing" textLength="7" x="750.1053" y="152.1881">1</text><text fill="#000000" font-family="sans-serif" font-size="13" lengthAdjust="spacing" textLength="7" x="844.3573" y="196.7392">1</text></g><!--link Patient to ContactInformation--><g id="link_Patient_ContactInformation"><path codeLine="68" d="M742.1,123.3594 C797.98,140.6194 928.3573,180.8885 1009.1273,205.8385 " fill="none" id="Patient-to-ContactInformation" style="stroke:#A52A2A;stroke-width:1.0;"/><polygon fill="#A52A2A" points="1014.86,207.6094,1007.4415,201.1313,1010.0827,206.1337,1005.0804,208.7749,1014.86,207.6094" style="stroke:#A52A2A;stroke-width:1.0;"/><text fill="#000000" font-family="sans-serif" font-size="13" lengthAdjust="spacing" textLength="7" x="750.1438" y="121.1434">1</text><text fill="#000000" font-family="sans-serif" font-size="13" lengthAdjust="spacing" textLength="7" x="993.2825" y="198.8846">1</text></g><!--link Patient to AllergiesAndConditions--><g id="link_Patient_AllergiesAndConditions"><path codeLine="69" d="M742.02,120.6894 C819.11,136.3494 1049.61,183.1652 1176.89,209.0152 " fill="none" id="Patient-to-AllergiesAndConditions" style="stroke:#A52A2A;stroke-width:1.0;"/><polygon fill="#A52A2A" points="1182.77,210.2094,1174.7462,204.4981,1177.87,209.2142,1173.1539,212.3381,1182.77,210.2094" style="stroke:#A52A2A;stroke-width:1.0;"/><text fill="#000000" font-family="sans-serif" font-size="13" lengthAdjust="spacing" textLength="7" x="750.0413" y="138.2225">1</text><text fill="#000000" font-family="sans-serif" font-size="13" lengthAdjust="spacing" textLength="5" x="1169.8668" y="205.323">*</text></g><!--link Patient to EmergencyContact--><g id="link_Patient_EmergencyContact"><path codeLine="70" d="M742.21,118.4394 C829.26,128.3794 1125.1,163.4494 1367,207.6094 C1372.48,208.6094 1372.2613,208.5188 1377.9413,209.6788 " fill="none" id="Patient-to-EmergencyContact" style="stroke:#A52A2A;stroke-width:1.0;"/><polygon fill="#A52A2A" points="1383.82,210.8794,1375.8024,205.1594,1378.9211,209.8789,1374.2016,212.9976,1383.82,210.8794" style="stroke:#A52A2A;stroke-width:1.0;"/><text fill="#000000" font-family="sans-serif" font-size="13" lengthAdjust="spacing" textLength="7" x="749.9258" y="114.8883">1</text><text fill="#000000" font-family="sans-serif" font-size="13" lengthAdjust="spacing" textLength="7" x="1369.2218" y="205.7795">1</text></g><!--SRC=[rPHDRzim38Rl_XL2BWK65DZkXW4d_LY0D0cQOjT1iMYRgomQae8i6_hVHt-aTUgFzZeVR4DwIBwaNpb71I91csW8ykgz09-JSe7Kceu_2_oD9Wk2A_UCffHM5g8WGqbkgG2HIksWkrVAv5bciFCd3S92ugN9z0NXSgdeo3dxmHeD-5C9WYnBu9hY2Jr7- -ekRgYGQCG3AT114Bo59Lew5tjlSN_mi4p8xF0FYAyzHlmD15yhJ675fUPa5TW5QRASN6LWv_e0bmYtaraw6DLWyNQxMYxYf-LcNNFlzrV0mrdacAPaQY2sbexDtfpVciLkuPrKIaEpzz9LF3B9Ra_Igl-W9RxQNiHiAps2yIBECWkPz33Z1ke4l8h-9Cv063OBKHI6biX7KTlfIuFNlRVm7LhdrvBj68O_9FShDljVFB0ewg4h-Ldoxg3r1-GDwz-aSsIpJb3tO7Wo4y03A4oaVeI4PxW-5Fj9Ua76oyGlJKgsOAba9k1OQx0PWekhhsaKLhoR2BWjc0UJdDeom-XLaxmi2OqlU5ZVqNcofpxTu29kpYQvitpHqTyR_IsVSptrXN8oC3Qejk8Zw3gvox4ShpempDctsVLrnFSBDP-WtqGDQq3Zgh-hp-7LvF9y2kg0ysfFmQk_fx6pjpz8rlfwXEfuUe2e7gsXH-87p3oMfp_EGVBBRCJ6OtdVUpZWdz0_]--></g></svg>