<?xml version="1.0" encoding="us-ascii" standalone="no"?><svg xmlns="http://www.w3.org/2000/svg" xmlns:xlink="http://www.w3.org/1999/xlink" contentStyleType="text/css" height="703px" preserveAspectRatio="none" style="width:1338px;height:703px;background:#FFFFFF;" version="1.1" viewBox="0 0 1338 703" width="1338px" zoomAndPan="magnify"><defs/><g><text fill="#000000" font-family="sans-serif" font-size="14" font-weight="bold" lengthAdjust="spacing" textLength="132" x="605" y="29.5332">Sequence Diagram</text><rect fill="#FFFFFF" height="471.9219" style="stroke:#181818;stroke-width:1.0;" width="10" x="22.5" y="131.2188"/><rect fill="#FFFFFF" height="388.8672" style="stroke:#181818;stroke-width:1.0;" width="10" x="457.5" y="183.9219"/><rect fill="#FFFFFF" height="328.1641" style="stroke:#181818;stroke-width:1.0;" width="10" x="683.5" y="214.2734"/><rect fill="#FFFFFF" height="91.0547" style="stroke:#181818;stroke-width:1.0;" width="10" x="967.5" y="244.625"/><rect fill="#FFFFFF" height="58.3516" style="stroke:#181818;stroke-width:1.0;" width="10" x="967.5" y="453.7344"/><rect fill="#FFFFFF" height="30.3516" style="stroke:#181818;stroke-width:1.0;" width="10" x="1124.5" y="274.9766"/><rect fill="#FFFFFF" height="57.3516" style="stroke:#181818;stroke-width:1.0;" width="10" x="1225" y="366.0313"/><line style="stroke:#181818;stroke-width:0.5;stroke-dasharray:5.0,5.0;" x1="27" x2="27" y1="121.2188" y2="621.1406"/><line style="stroke:#181818;stroke-width:0.5;stroke-dasharray:5.0,5.0;" x1="240.5" x2="240.5" y1="121.2188" y2="621.1406"/><line style="stroke:#181818;stroke-width:0.5;stroke-dasharray:5.0,5.0;" x1="462" x2="462" y1="121.2188" y2="621.1406"/><line style="stroke:#181818;stroke-width:0.5;stroke-dasharray:5.0,5.0;" x1="688.5" x2="688.5" y1="121.2188" y2="621.1406"/><line style="stroke:#181818;stroke-width:0.5;stroke-dasharray:5.0,5.0;" x1="972" x2="972" y1="121.2188" y2="621.1406"/><line style="stroke:#181818;stroke-width:0.5;stroke-dasharray:5.0,5.0;" x1="1129.5" x2="1129.5" y1="121.2188" y2="621.1406"/><line style="stroke:#181818;stroke-width:0.5;stroke-dasharray:5.0,5.0;" x1="1229.5" x2="1229.5" y1="121.2188" y2="621.1406"/><text fill="#000000" font-family="sans-serif" font-size="14" lengthAdjust="spacing" textLength="39" x="5" y="118.1426">Admin</text><ellipse cx="27.5" cy="52.1094" fill="#E2E2F0" rx="8" ry="8" style="stroke:#181818;stroke-width:0.5;"/><path d="M27.5,60.1094 L27.5,87.1094 M14.5,68.1094 L40.5,68.1094 M27.5,87.1094 L14.5,102.1094 M27.5,87.1094 L40.5,102.1094 " fill="none" style="stroke:#181818;stroke-width:0.5;"/><text fill="#000000" font-family="sans-serif" font-size="14" lengthAdjust="spacing" textLength="39" x="5" y="634.6738">Admin</text><ellipse cx="27.5" cy="646.25" fill="#E2E2F0" rx="8" ry="8" style="stroke:#181818;stroke-width:0.5;"/><path d="M27.5,654.25 L27.5,681.25 M14.5,662.25 L40.5,662.25 M27.5,681.25 L14.5,696.25 M27.5,681.25 L40.5,696.25 " fill="none" style="stroke:#181818;stroke-width:0.5;"/><rect fill="#E2E2F0" height="31.6094" rx="2.5" ry="2.5" style="stroke:#181818;stroke-width:0.5;" width="52" x="214.5" y="88.6094"/><text fill="#000000" font-family="sans-serif" font-size="14" lengthAdjust="spacing" textLength="38" x="221.5" y="110.1426">Route</text><rect fill="#E2E2F0" height="31.6094" rx="2.5" ry="2.5" style="stroke:#181818;stroke-width:0.5;" width="52" x="214.5" y="620.1406"/><text fill="#000000" font-family="sans-serif" font-size="14" lengthAdjust="spacing" textLength="38" x="221.5" y="641.6738">Route</text><rect fill="#E2E2F0" height="31.6094" rx="2.5" ry="2.5" style="stroke:#181818;stroke-width:0.5;" width="171" x="377" y="88.6094"/><text fill="#000000" font-family="sans-serif" font-size="14" lengthAdjust="spacing" textLength="157" x="384" y="110.1426">OperationTypeController</text><rect fill="#E2E2F0" height="31.6094" rx="2.5" ry="2.5" style="stroke:#181818;stroke-width:0.5;" width="171" x="377" y="620.1406"/><text fill="#000000" font-family="sans-serif" font-size="14" lengthAdjust="spacing" textLength="157" x="384" y="641.6738">OperationTypeController</text><rect fill="#E2E2F0" height="31.6094" rx="2.5" ry="2.5" style="stroke:#181818;stroke-width:0.5;" width="156" x="610.5" y="88.6094"/><text fill="#000000" font-family="sans-serif" font-size="14" lengthAdjust="spacing" textLength="142" x="617.5" y="110.1426">OperationTypeService</text><rect fill="#E2E2F0" height="31.6094" rx="2.5" ry="2.5" style="stroke:#181818;stroke-width:0.5;" width="156" x="610.5" y="620.1406"/><text fill="#000000" font-family="sans-serif" font-size="14" lengthAdjust="spacing" textLength="142" x="617.5" y="641.6738">OperationTypeService</text><rect fill="#E2E2F0" height="31.6094" rx="2.5" ry="2.5" style="stroke:#181818;stroke-width:0.5;" width="177" x="884" y="88.6094"/><text fill="#000000" font-family="sans-serif" font-size="14" lengthAdjust="spacing" textLength="163" x="891" y="110.1426">OperationTypeRepository</text><rect fill="#E2E2F0" height="31.6094" rx="2.5" ry="2.5" style="stroke:#181818;stroke-width:0.5;" width="177" x="884" y="620.1406"/><text fill="#000000" font-family="sans-serif" font-size="14" lengthAdjust="spacing" textLength="163" x="891" y="641.6738">OperationTypeRepository</text><text fill="#000000" font-family="sans-serif" font-size="14" lengthAdjust="spacing" textLength="66" x="1093.5" y="118.1426">Data Base</text><path d="M1111.5,67.6094 C1111.5,57.6094 1129.5,57.6094 1129.5,57.6094 C1129.5,57.6094 1147.5,57.6094 1147.5,67.6094 L1147.5,93.6094 C1147.5,103.6094 1129.5,103.6094 1129.5,103.6094 C1129.5,103.6094 1111.5,103.6094 1111.5,93.6094 L1111.5,67.6094 " fill="#E2E2F0" style="stroke:#181818;stroke-width:1.5;"/><path d="M1111.5,67.6094 C1111.5,77.6094 1129.5,77.6094 1129.5,77.6094 C1129.5,77.6094 1147.5,77.6094 1147.5,67.6094 " fill="none" style="stroke:#181818;stroke-width:1.5;"/><text fill="#000000" font-family="sans-serif" font-size="14" lengthAdjust="spacing" textLength="66" x="1093.5" y="634.6738">Data Base</text><path d="M1111.5,647.75 C1111.5,637.75 1129.5,637.75 1129.5,637.75 C1129.5,637.75 1147.5,637.75 1147.5,647.75 L1147.5,673.75 C1147.5,683.75 1129.5,683.75 1129.5,683.75 C1129.5,683.75 1111.5,683.75 1111.5,673.75 L1111.5,647.75 " fill="#E2E2F0" style="stroke:#181818;stroke-width:1.5;"/><path d="M1111.5,647.75 C1111.5,657.75 1129.5,657.75 1129.5,657.75 C1129.5,657.75 1147.5,657.75 1147.5,647.75 " fill="none" style="stroke:#181818;stroke-width:1.5;"/><rect fill="#E2E2F0" height="31.6094" rx="2.5" ry="2.5" style="stroke:#181818;stroke-width:0.5;" width="109" x="1175.5" y="88.6094"/><text fill="#000000" font-family="sans-serif" font-size="14" lengthAdjust="spacing" textLength="95" x="1182.5" y="110.1426">OperationType</text><rect fill="#E2E2F0" height="31.6094" rx="2.5" ry="2.5" style="stroke:#181818;stroke-width:0.5;" width="109" x="1175.5" y="620.1406"/><text fill="#000000" font-family="sans-serif" font-size="14" lengthAdjust="spacing" textLength="95" x="1182.5" y="641.6738">OperationType</text><rect fill="#FFFFFF" height="471.9219" style="stroke:#181818;stroke-width:1.0;" width="10" x="22.5" y="131.2188"/><rect fill="#FFFFFF" height="388.8672" style="stroke:#181818;stroke-width:1.0;" width="10" x="457.5" y="183.9219"/><rect fill="#FFFFFF" height="328.1641" style="stroke:#181818;stroke-width:1.0;" width="10" x="683.5" y="214.2734"/><rect fill="#FFFFFF" height="91.0547" style="stroke:#181818;stroke-width:1.0;" width="10" x="967.5" y="244.625"/><rect fill="#FFFFFF" height="58.3516" style="stroke:#181818;stroke-width:1.0;" width="10" x="967.5" y="453.7344"/><rect fill="#FFFFFF" height="30.3516" style="stroke:#181818;stroke-width:1.0;" width="10" x="1124.5" y="274.9766"/><rect fill="#FFFFFF" height="57.3516" style="stroke:#181818;stroke-width:1.0;" width="10" x="1225" y="366.0313"/><polygon fill="#A52A2A" points="228.5,149.5703,238.5,153.5703,228.5,157.5703,232.5,153.5703" style="stroke:#A52A2A;stroke-width:1.0;"/><line style="stroke:#A52A2A;stroke-width:1.0;" x1="32.5" x2="234.5" y1="153.5703" y2="153.5703"/><text fill="#000000" font-family="sans-serif" font-size="13" lengthAdjust="spacing" textLength="184" x="39.5" y="148.7139">HttpPatch("/ChangeStatus/{id}")</text><polygon fill="#A52A2A" points="445.5,179.9219,455.5,183.9219,445.5,187.9219,449.5,183.9219" style="stroke:#A52A2A;stroke-width:1.0;"/><line style="stroke:#A52A2A;stroke-width:1.0;" x1="240.5" x2="451.5" y1="183.9219" y2="183.9219"/><text fill="#000000" font-family="sans-serif" font-size="13" lengthAdjust="spacing" textLength="198" x="247.5" y="179.0654">DeactivateOperationType(string id)</text><polygon fill="#A52A2A" points="671.5,210.2734,681.5,214.2734,671.5,218.2734,675.5,214.2734" style="stroke:#A52A2A;stroke-width:1.0;"/><line style="stroke:#A52A2A;stroke-width:1.0;" x1="467.5" x2="677.5" y1="214.2734" y2="214.2734"/><text fill="#000000" font-family="sans-serif" font-size="13" lengthAdjust="spacing" textLength="197" x="474.5" y="209.417">deactivateOperationTypeAsync(id)</text><polygon fill="#A52A2A" points="955.5,240.625,965.5,244.625,955.5,248.625,959.5,244.625" style="stroke:#A52A2A;stroke-width:1.0;"/><line style="stroke:#A52A2A;stroke-width:1.0;" x1="693.5" x2="961.5" y1="244.625" y2="244.625"/><text fill="#000000" font-family="sans-serif" font-size="13" lengthAdjust="spacing" textLength="255" x="700.5" y="239.7686">GetByIdAsync(new OperationTypeName(id))</text><polygon fill="#A52A2A" points="1112.5,270.9766,1122.5,274.9766,1112.5,278.9766,1116.5,274.9766" style="stroke:#A52A2A;stroke-width:1.0;"/><line style="stroke:#A52A2A;stroke-width:1.0;" x1="977.5" x2="1118.5" y1="274.9766" y2="274.9766"/><text fill="#000000" font-family="sans-serif" font-size="13" lengthAdjust="spacing" textLength="36" x="984.5" y="270.1201">get(id)</text><polygon fill="#A52A2A" points="988.5,301.3281,978.5,305.3281,988.5,309.3281,984.5,305.3281" style="stroke:#A52A2A;stroke-width:1.0;"/><line style="stroke:#A52A2A;stroke-width:1.0;stroke-dasharray:2.0,2.0;" x1="982.5" x2="1128.5" y1="305.3281" y2="305.3281"/><text fill="#000000" font-family="sans-serif" font-size="13" lengthAdjust="spacing" textLength="81" x="994.5" y="300.4717">operationType</text><polygon fill="#A52A2A" points="704.5,331.6797,694.5,335.6797,704.5,339.6797,700.5,335.6797" style="stroke:#A52A2A;stroke-width:1.0;"/><line style="stroke:#A52A2A;stroke-width:1.0;stroke-dasharray:2.0,2.0;" x1="698.5" x2="971.5" y1="335.6797" y2="335.6797"/><text fill="#000000" font-family="sans-serif" font-size="13" lengthAdjust="spacing" textLength="81" x="710.5" y="330.8232">operationType</text><polygon fill="#A52A2A" points="1213,362.0313,1223,366.0313,1213,370.0313,1217,366.0313" style="stroke:#A52A2A;stroke-width:1.0;"/><line style="stroke:#A52A2A;stroke-width:1.0;" x1="693.5" x2="1219" y1="366.0313" y2="366.0313"/><text fill="#000000" font-family="sans-serif" font-size="13" lengthAdjust="spacing" textLength="88" x="700.5" y="361.1748">changeStatus()</text><line style="stroke:#A52A2A;stroke-width:1.0;" x1="1235" x2="1277" y1="396.3828" y2="396.3828"/><line style="stroke:#A52A2A;stroke-width:1.0;" x1="1277" x2="1277" y1="396.3828" y2="409.3828"/><line style="stroke:#A52A2A;stroke-width:1.0;" x1="1236" x2="1277" y1="409.3828" y2="409.3828"/><polygon fill="#A52A2A" points="1246,405.3828,1236,409.3828,1246,413.3828,1242,409.3828" style="stroke:#A52A2A;stroke-width:1.0;"/><text fill="#000000" font-family="sans-serif" font-size="13" lengthAdjust="spacing" textLength="89" x="1242" y="391.5264">status changed</text><polygon fill="#A52A2A" points="704.5,419.3828,694.5,423.3828,704.5,427.3828,700.5,423.3828" style="stroke:#A52A2A;stroke-width:1.0;"/><line style="stroke:#A52A2A;stroke-width:1.0;stroke-dasharray:2.0,2.0;" x1="698.5" x2="1229" y1="423.3828" y2="423.3828"/><polygon fill="#A52A2A" points="955.5,449.7344,965.5,453.7344,955.5,457.7344,959.5,453.7344" style="stroke:#A52A2A;stroke-width:1.0;"/><line style="stroke:#A52A2A;stroke-width:1.0;" x1="693.5" x2="961.5" y1="453.7344" y2="453.7344"/><text fill="#000000" font-family="sans-serif" font-size="13" lengthAdjust="spacing" textLength="167" x="700.5" y="448.8779">UpdateAsync(operationType)</text><polygon fill="#A52A2A" points="1117.5,480.0859,1127.5,484.0859,1117.5,488.0859,1121.5,484.0859" style="stroke:#A52A2A;stroke-width:1.0;"/><line style="stroke:#A52A2A;stroke-width:1.0;" x1="977.5" x2="1123.5" y1="484.0859" y2="484.0859"/><text fill="#000000" font-family="sans-serif" font-size="13" lengthAdjust="spacing" textLength="128" x="984.5" y="479.2295">update(operationType)</text><polygon fill="#A52A2A" points="988.5,494.0859,978.5,498.0859,988.5,502.0859,984.5,498.0859" style="stroke:#A52A2A;stroke-width:1.0;"/><line style="stroke:#A52A2A;stroke-width:1.0;stroke-dasharray:2.0,2.0;" x1="982.5" x2="1128.5" y1="498.0859" y2="498.0859"/><polygon fill="#A52A2A" points="704.5,508.0859,694.5,512.0859,704.5,516.0859,700.5,512.0859" style="stroke:#A52A2A;stroke-width:1.0;"/><line style="stroke:#A52A2A;stroke-width:1.0;stroke-dasharray:2.0,2.0;" x1="698.5" x2="971.5" y1="512.0859" y2="512.0859"/><polygon fill="#A52A2A" points="478.5,538.4375,468.5,542.4375,478.5,546.4375,474.5,542.4375" style="stroke:#A52A2A;stroke-width:1.0;"/><line style="stroke:#A52A2A;stroke-width:1.0;" x1="472.5" x2="687.5" y1="542.4375" y2="542.4375"/><text fill="#000000" font-family="sans-serif" font-size="13" lengthAdjust="spacing" textLength="22" x="484.5" y="537.5811">true</text><polygon fill="#A52A2A" points="251.5,568.7891,241.5,572.7891,251.5,576.7891,247.5,572.7891" style="stroke:#A52A2A;stroke-width:1.0;"/><line style="stroke:#A52A2A;stroke-width:1.0;stroke-dasharray:2.0,2.0;" x1="245.5" x2="461.5" y1="572.7891" y2="572.7891"/><text fill="#000000" font-family="sans-serif" font-size="13" lengthAdjust="spacing" textLength="22" x="257.5" y="567.9326">true</text><polygon fill="#A52A2A" points="38.5,599.1406,28.5,603.1406,38.5,607.1406,34.5,603.1406" style="stroke:#A52A2A;stroke-width:1.0;"/><line style="stroke:#A52A2A;stroke-width:1.0;stroke-dasharray:2.0,2.0;" x1="32.5" x2="239.5" y1="603.1406" y2="603.1406"/><text fill="#000000" font-family="sans-serif" font-size="13" lengthAdjust="spacing" textLength="22" x="44.5" y="598.2842">true</text><!--SRC=[rPJFRk8m4CRlUOeH9tgekkSSLWeWxKP2BMhA0nXx25Q3dRMTLjcgxxw30ufj_gWzRYuOPkOtu-zZugHh42hyqw7Y20l9QiFscNsLgcLq0jumQmldZDnq3akkLIN_8lp8qXpuo82UfTpYKYgSQIFGp7MZ3IoqgD7CcWxZ5CPVQwCx9OQqOhLQblFYfNnwz7bfV8bxhUOxkTrgvHCAO_Jx49lHQVWnR5mn8HeSOf_Xn2sXMOsLw-ds1hbZgcumkXCpuZ-u4kFkq4RifSfeS2UvR9boC7dMPDS4c8Lr6KUUMZJCIQrU-XRdMZcZcmQDpns_tgYfqBn9Fi3rAL3TA7Z6Lbj9W_PnZOzbWZcsOHPXig0JIMG7jDZ03UOvoOiXtvZ3enwP_xZ_IGhayDkvTiKStqqd3_CTsKtcCzVPXmyfFYTt0Dcw1CeT5O0S5dX2HhsdbjP1rI35tTWpACp6Cn57YOWeBXCBsoi-ZNY1iW4Xv7dvYFaBtQmlnS1G-0uH-f7jyK2-X1uCI83KWgJFeKONJoGs6GNkpqR84n_6EnvAKdggoDNQQrDMwG04uO6ZqsitXNYMCorpi1vmf8aqFPeyd3IvGpXfgjIwfR_xqUuezcrxEazA8HSD-euZNtBWR56SwIvxLmMxu3iTTZ7D3juwXoMaBB-v9swOUjpivFa7]--></g></svg>