<?xml version="1.0" encoding="us-ascii" standalone="no"?><svg xmlns="http://www.w3.org/2000/svg" xmlns:xlink="http://www.w3.org/1999/xlink" contentStyleType="text/css" height="1177px" preserveAspectRatio="none" style="width:1755px;height:1177px;background:#FFFFFF;" version="1.1" viewBox="0 0 1755 1177" width="1755px" zoomAndPan="magnify"><defs/><g><text fill="#000000" font-family="sans-serif" font-size="14" font-weight="bold" lengthAdjust="spacing" textLength="166" x="795.75" y="29.5332">Sequence Diagram Title</text><rect fill="#FFFFFF" height="955.6406" style="stroke:#181818;stroke-width:1.0;" width="10" x="37.5" y="131.2188"/><rect fill="#FFFFFF" height="30.3516" style="stroke:#181818;stroke-width:1.0;" width="10" x="427.5" y="153.5703"/><rect fill="#FFFFFF" height="856.5859" style="stroke:#181818;stroke-width:1.0;" width="10" x="427.5" y="214.2734"/><rect fill="#FFFFFF" height="420.8281" style="stroke:#181818;stroke-width:1.0;" width="10" x="707.5" y="269.9766"/><rect fill="#FFFFFF" height="273.1641" style="stroke:#181818;stroke-width:1.0;" width="10" x="707.5" y="767.3438"/><rect fill="#FFFFFF" height="299.4219" style="stroke:#181818;stroke-width:1.0;" width="10" x="977.5" y="361.0313"/><rect fill="#FFFFFF" height="151.7578" style="stroke:#181818;stroke-width:1.0;" width="10" x="977.5" y="858.3984"/><rect fill="#FFFFFF" height="30.3516" style="stroke:#181818;stroke-width:1.0;" width="10" x="1136" y="300.3281"/><rect fill="#FFFFFF" height="30.3516" style="stroke:#181818;stroke-width:1.0;" width="10" x="1136" y="797.6953"/><rect fill="#FFFFFF" height="30.3516" style="stroke:#181818;stroke-width:1.0;" width="10" x="1237.5" y="391.3828"/><rect fill="#FFFFFF" height="30.3516" style="stroke:#181818;stroke-width:1.0;" width="10" x="1237.5" y="888.75"/><rect fill="#FFFFFF" height="30.3516" style="stroke:#181818;stroke-width:1.0;" width="10" x="1382.5" y="452.0859"/><rect fill="#FFFFFF" height="30.3516" style="stroke:#181818;stroke-width:1.0;" width="10" x="1382.5" y="599.75"/><rect fill="#FFFFFF" height="30.3516" style="stroke:#181818;stroke-width:1.0;" width="10" x="1382.5" y="949.4531"/><rect fill="#FFFFFF" height="56.6094" style="stroke:#181818;stroke-width:1.0;" width="10" x="1535.5" y="512.7891"/><rect fill="none" height="849.5859" style="stroke:#000000;stroke-width:1.5;" width="1738.5" x="10" y="229.2734"/><line style="stroke:#181818;stroke-width:0.5;stroke-dasharray:5.0,5.0;" x1="42" x2="42" y1="121.2188" y2="1095.8594"/><line style="stroke:#181818;stroke-width:0.5;stroke-dasharray:5.0,5.0;" x1="432" x2="432" y1="121.2188" y2="1095.8594"/><line style="stroke:#181818;stroke-width:0.5;stroke-dasharray:5.0,5.0;" x1="712" x2="712" y1="121.2188" y2="1095.8594"/><line style="stroke:#181818;stroke-width:0.5;stroke-dasharray:5.0,5.0;" x1="982" x2="982" y1="121.2188" y2="1095.8594"/><line style="stroke:#181818;stroke-width:0.5;stroke-dasharray:5.0,5.0;" x1="1141" x2="1141" y1="121.2188" y2="1095.8594"/><line style="stroke:#181818;stroke-width:0.5;stroke-dasharray:5.0,5.0;" x1="1242" x2="1242" y1="121.2188" y2="1095.8594"/><line style="stroke:#181818;stroke-width:0.5;stroke-dasharray:5.0,5.0;" x1="1387" x2="1387" y1="121.2188" y2="1095.8594"/><line style="stroke:#181818;stroke-width:0.5;stroke-dasharray:5.0,5.0;" x1="1540" x2="1540" y1="121.2188" y2="1095.8594"/><line style="stroke:#181818;stroke-width:0.5;stroke-dasharray:5.0,5.0;" x1="1707.5" x2="1707.5" y1="552.0938" y2="1095.8594"/><text fill="#000000" font-family="sans-serif" font-size="14" lengthAdjust="spacing" textLength="39" x="20" y="118.1426">Admin</text><ellipse cx="42.5" cy="52.1094" fill="#E2E2F0" rx="8" ry="8" style="stroke:#181818;stroke-width:0.5;"/><path d="M42.5,60.1094 L42.5,87.1094 M29.5,68.1094 L55.5,68.1094 M42.5,87.1094 L29.5,102.1094 M42.5,87.1094 L55.5,102.1094 " fill="none" style="stroke:#181818;stroke-width:0.5;"/><text fill="#000000" font-family="sans-serif" font-size="14" lengthAdjust="spacing" textLength="39" x="20" y="1109.3926">Admin</text><ellipse cx="42.5" cy="1120.9688" fill="#E2E2F0" rx="8" ry="8" style="stroke:#181818;stroke-width:0.5;"/><path d="M42.5,1128.9688 L42.5,1155.9688 M29.5,1136.9688 L55.5,1136.9688 M42.5,1155.9688 L29.5,1170.9688 M42.5,1155.9688 L55.5,1170.9688 " fill="none" style="stroke:#181818;stroke-width:0.5;"/><rect fill="#E2E2F0" height="31.6094" rx="2.5" ry="2.5" style="stroke:#181818;stroke-width:0.5;" width="245" x="310" y="88.6094"/><text fill="#000000" font-family="sans-serif" font-size="14" lengthAdjust="spacing" textLength="231" x="317" y="110.1426">DeactivateOrDeleteOperationTypeUI</text><rect fill="#E2E2F0" height="31.6094" rx="2.5" ry="2.5" style="stroke:#181818;stroke-width:0.5;" width="245" x="310" y="1094.8594"/><text fill="#000000" font-family="sans-serif" font-size="14" lengthAdjust="spacing" textLength="231" x="317" y="1116.3926">DeactivateOrDeleteOperationTypeUI</text><rect fill="#E2E2F0" height="31.6094" rx="2.5" ry="2.5" style="stroke:#181818;stroke-width:0.5;" width="295" x="565" y="88.6094"/><text fill="#000000" font-family="sans-serif" font-size="14" lengthAdjust="spacing" textLength="281" x="572" y="110.1426">DeactivateOrDeleteOperationTypeController</text><rect fill="#E2E2F0" height="31.6094" rx="2.5" ry="2.5" style="stroke:#181818;stroke-width:0.5;" width="295" x="565" y="1094.8594"/><text fill="#000000" font-family="sans-serif" font-size="14" lengthAdjust="spacing" textLength="281" x="572" y="1116.3926">DeactivateOrDeleteOperationTypeController</text><rect fill="#E2E2F0" height="31.6094" rx="2.5" ry="2.5" style="stroke:#181818;stroke-width:0.5;" width="207" x="879" y="88.6094"/><text fill="#000000" font-family="sans-serif" font-size="14" lengthAdjust="spacing" textLength="193" x="886" y="110.1426">ManageOperationTypeService</text><rect fill="#E2E2F0" height="31.6094" rx="2.5" ry="2.5" style="stroke:#181818;stroke-width:0.5;" width="207" x="879" y="1094.8594"/><text fill="#000000" font-family="sans-serif" font-size="14" lengthAdjust="spacing" textLength="193" x="886" y="1116.3926">ManageOperationTypeService</text><rect fill="#E2E2F0" height="31.6094" rx="2.5" ry="2.5" style="stroke:#181818;stroke-width:0.5;" width="90" x="1096" y="88.6094"/><text fill="#000000" font-family="sans-serif" font-size="14" lengthAdjust="spacing" textLength="76" x="1103" y="110.1426">AuthService</text><rect fill="#E2E2F0" height="31.6094" rx="2.5" ry="2.5" style="stroke:#181818;stroke-width:0.5;" width="90" x="1096" y="1094.8594"/><text fill="#000000" font-family="sans-serif" font-size="14" lengthAdjust="spacing" textLength="76" x="1103" y="1116.3926">AuthService</text><rect fill="#E2E2F0" height="31.6094" rx="2.5" ry="2.5" style="stroke:#181818;stroke-width:0.5;" width="93" x="1196" y="88.6094"/><text fill="#000000" font-family="sans-serif" font-size="14" lengthAdjust="spacing" textLength="79" x="1203" y="110.1426">Repositories</text><rect fill="#E2E2F0" height="31.6094" rx="2.5" ry="2.5" style="stroke:#181818;stroke-width:0.5;" width="93" x="1196" y="1094.8594"/><text fill="#000000" font-family="sans-serif" font-size="14" lengthAdjust="spacing" textLength="79" x="1203" y="1116.3926">Repositories</text><rect fill="#E2E2F0" height="31.6094" rx="2.5" ry="2.5" style="stroke:#181818;stroke-width:0.5;" width="177" x="1299" y="88.6094"/><text fill="#000000" font-family="sans-serif" font-size="14" lengthAdjust="spacing" textLength="163" x="1306" y="110.1426">OperationTypeRepository</text><rect fill="#E2E2F0" height="31.6094" rx="2.5" ry="2.5" style="stroke:#181818;stroke-width:0.5;" width="177" x="1299" y="1094.8594"/><text fill="#000000" font-family="sans-serif" font-size="14" lengthAdjust="spacing" textLength="163" x="1306" y="1116.3926">OperationTypeRepository</text><rect fill="#E2E2F0" height="31.6094" rx="2.5" ry="2.5" style="stroke:#181818;stroke-width:0.5;" width="109" x="1486" y="88.6094"/><text fill="#000000" font-family="sans-serif" font-size="14" lengthAdjust="spacing" textLength="95" x="1493" y="110.1426">OperationType</text><rect fill="#E2E2F0" height="31.6094" rx="2.5" ry="2.5" style="stroke:#181818;stroke-width:0.5;" width="109" x="1486" y="1094.8594"/><text fill="#000000" font-family="sans-serif" font-size="14" lengthAdjust="spacing" textLength="95" x="1493" y="1116.3926">OperationType</text><rect fill="#E2E2F0" height="31.6094" rx="2.5" ry="2.5" style="stroke:#181818;stroke-width:0.5;" width="62" x="1676.5" y="1094.8594"/><text fill="#000000" font-family="sans-serif" font-size="14" lengthAdjust="spacing" textLength="48" x="1683.5" y="1116.3926">IsActive</text><rect fill="#FFFFFF" height="955.6406" style="stroke:#181818;stroke-width:1.0;" width="10" x="37.5" y="131.2188"/><rect fill="#FFFFFF" height="30.3516" style="stroke:#181818;stroke-width:1.0;" width="10" x="427.5" y="153.5703"/><rect fill="#FFFFFF" height="856.5859" style="stroke:#181818;stroke-width:1.0;" width="10" x="427.5" y="214.2734"/><rect fill="#FFFFFF" height="420.8281" style="stroke:#181818;stroke-width:1.0;" width="10" x="707.5" y="269.9766"/><rect fill="#FFFFFF" height="273.1641" style="stroke:#181818;stroke-width:1.0;" width="10" x="707.5" y="767.3438"/><rect fill="#FFFFFF" height="299.4219" style="stroke:#181818;stroke-width:1.0;" width="10" x="977.5" y="361.0313"/><rect fill="#FFFFFF" height="151.7578" style="stroke:#181818;stroke-width:1.0;" width="10" x="977.5" y="858.3984"/><rect fill="#FFFFFF" height="30.3516" style="stroke:#181818;stroke-width:1.0;" width="10" x="1136" y="300.3281"/><rect fill="#FFFFFF" height="30.3516" style="stroke:#181818;stroke-width:1.0;" width="10" x="1136" y="797.6953"/><rect fill="#FFFFFF" height="30.3516" style="stroke:#181818;stroke-width:1.0;" width="10" x="1237.5" y="391.3828"/><rect fill="#FFFFFF" height="30.3516" style="stroke:#181818;stroke-width:1.0;" width="10" x="1237.5" y="888.75"/><rect fill="#FFFFFF" height="30.3516" style="stroke:#181818;stroke-width:1.0;" width="10" x="1382.5" y="452.0859"/><rect fill="#FFFFFF" height="30.3516" style="stroke:#181818;stroke-width:1.0;" width="10" x="1382.5" y="599.75"/><rect fill="#FFFFFF" height="30.3516" style="stroke:#181818;stroke-width:1.0;" width="10" x="1382.5" y="949.4531"/><rect fill="#FFFFFF" height="56.6094" style="stroke:#181818;stroke-width:1.0;" width="10" x="1535.5" y="512.7891"/><polygon fill="#A52A2A" points="415.5,149.5703,425.5,153.5703,415.5,157.5703,419.5,153.5703" style="stroke:#A52A2A;stroke-width:1.0;"/><line style="stroke:#A52A2A;stroke-width:1.0;" x1="47.5" x2="421.5" y1="153.5703" y2="153.5703"/><text fill="#000000" font-family="sans-serif" font-size="13" lengthAdjust="spacing" textLength="269" x="54.5" y="148.7139">I want to deactivate or delete an operation type</text><polygon fill="#A52A2A" points="58.5,179.9219,48.5,183.9219,58.5,187.9219,54.5,183.9219" style="stroke:#A52A2A;stroke-width:1.0;"/><line style="stroke:#A52A2A;stroke-width:1.0;" x1="52.5" x2="431.5" y1="183.9219" y2="183.9219"/><text fill="#000000" font-family="sans-serif" font-size="13" lengthAdjust="spacing" textLength="356" x="64.5" y="179.0654">asks for which operation type he wants to deactivate or delete</text><polygon fill="#A52A2A" points="415.5,210.2734,425.5,214.2734,415.5,218.2734,419.5,214.2734" style="stroke:#A52A2A;stroke-width:1.0;"/><line style="stroke:#A52A2A;stroke-width:1.0;" x1="47.5" x2="421.5" y1="214.2734" y2="214.2734"/><text fill="#000000" font-family="sans-serif" font-size="13" lengthAdjust="spacing" textLength="91" x="54.5" y="209.417">operationTypeId</text><path d="M10,229.2734 L71,229.2734 L71,237.625 L61,247.625 L10,247.625 L10,229.2734 " fill="#EEEEEE" style="stroke:#000000;stroke-width:1.5;"/><rect fill="none" height="849.5859" style="stroke:#000000;stroke-width:1.5;" width="1738.5" x="10" y="229.2734"/><text fill="#000000" font-family="sans-serif" font-size="13" font-weight="bold" lengthAdjust="spacing" textLength="16" x="25" y="243.7686">alt</text><text fill="#000000" font-family="sans-serif" font-size="11" font-weight="bold" lengthAdjust="spacing" textLength="64" x="86" y="242.6924">[deactivate]</text><polygon fill="#A52A2A" points="695.5,265.9766,705.5,269.9766,695.5,273.9766,699.5,269.9766" style="stroke:#A52A2A;stroke-width:1.0;"/><line style="stroke:#A52A2A;stroke-width:1.0;" x1="437.5" x2="701.5" y1="269.9766" y2="269.9766"/><text fill="#000000" font-family="sans-serif" font-size="13" lengthAdjust="spacing" textLength="241" x="444.5" y="265.1201">deactivateOperationType(operationTypeId)</text><polygon fill="#A52A2A" points="1124,296.3281,1134,300.3281,1124,304.3281,1128,300.3281" style="stroke:#A52A2A;stroke-width:1.0;"/><line style="stroke:#A52A2A;stroke-width:1.0;" x1="717.5" x2="1130" y1="300.3281" y2="300.3281"/><text fill="#000000" font-family="sans-serif" font-size="13" lengthAdjust="spacing" textLength="234" x="724.5" y="295.4717">ensureAuthenticatedUserHasAnyOf(role)</text><polygon fill="#A52A2A" points="728.5,326.6797,718.5,330.6797,728.5,334.6797,724.5,330.6797" style="stroke:#A52A2A;stroke-width:1.0;"/><line style="stroke:#A52A2A;stroke-width:1.0;stroke-dasharray:2.0,2.0;" x1="722.5" x2="1140" y1="330.6797" y2="330.6797"/><text fill="#000000" font-family="sans-serif" font-size="13" lengthAdjust="spacing" textLength="22" x="734.5" y="325.8232">true</text><polygon fill="#A52A2A" points="965.5,357.0313,975.5,361.0313,965.5,365.0313,969.5,361.0313" style="stroke:#A52A2A;stroke-width:1.0;"/><line style="stroke:#A52A2A;stroke-width:1.0;" x1="717.5" x2="971.5" y1="361.0313" y2="361.0313"/><text fill="#000000" font-family="sans-serif" font-size="13" lengthAdjust="spacing" textLength="241" x="724.5" y="356.1748">deactivateOperationType(operationTypeId)</text><polygon fill="#A52A2A" points="1225.5,387.3828,1235.5,391.3828,1225.5,395.3828,1229.5,391.3828" style="stroke:#A52A2A;stroke-width:1.0;"/><line style="stroke:#A52A2A;stroke-width:1.0;" x1="987.5" x2="1231.5" y1="391.3828" y2="391.3828"/><text fill="#000000" font-family="sans-serif" font-size="13" lengthAdjust="spacing" textLength="172" x="994.5" y="386.5264">getOperationTypeRepository()</text><polygon fill="#A52A2A" points="998.5,417.7344,988.5,421.7344,998.5,425.7344,994.5,421.7344" style="stroke:#A52A2A;stroke-width:1.0;"/><line style="stroke:#A52A2A;stroke-width:1.0;stroke-dasharray:2.0,2.0;" x1="992.5" x2="1241.5" y1="421.7344" y2="421.7344"/><text fill="#000000" font-family="sans-serif" font-size="13" lengthAdjust="spacing" textLength="143" x="1004.5" y="416.8779">operationTypeRepository</text><polygon fill="#A52A2A" points="1370.5,448.0859,1380.5,452.0859,1370.5,456.0859,1374.5,452.0859" style="stroke:#A52A2A;stroke-width:1.0;"/><line style="stroke:#A52A2A;stroke-width:1.0;" x1="987.5" x2="1376.5" y1="452.0859" y2="452.0859"/><text fill="#000000" font-family="sans-serif" font-size="13" lengthAdjust="spacing" textLength="201" x="994.5" y="447.2295">getOperationType(operationTypeId)</text><polygon fill="#A52A2A" points="998.5,478.4375,988.5,482.4375,998.5,486.4375,994.5,482.4375" style="stroke:#A52A2A;stroke-width:1.0;"/><line style="stroke:#A52A2A;stroke-width:1.0;stroke-dasharray:2.0,2.0;" x1="992.5" x2="1386.5" y1="482.4375" y2="482.4375"/><text fill="#000000" font-family="sans-serif" font-size="13" lengthAdjust="spacing" textLength="81" x="1004.5" y="477.5811">operationType</text><polygon fill="#A52A2A" points="1523.5,508.7891,1533.5,512.7891,1523.5,516.7891,1527.5,512.7891" style="stroke:#A52A2A;stroke-width:1.0;"/><line style="stroke:#A52A2A;stroke-width:1.0;" x1="987.5" x2="1529.5" y1="512.7891" y2="512.7891"/><text fill="#000000" font-family="sans-serif" font-size="13" lengthAdjust="spacing" textLength="66" x="994.5" y="507.9326">deactivate()</text><polygon fill="#A52A2A" points="1664.5,539.1406,1674.5,543.1406,1664.5,547.1406,1668.5,543.1406" style="stroke:#A52A2A;stroke-width:1.0;"/><line style="stroke:#A52A2A;stroke-width:1.0;" x1="1545.5" x2="1670.5" y1="543.1406" y2="543.1406"/><text fill="#000000" font-family="sans-serif" font-size="13" lengthAdjust="spacing" textLength="107" x="1552.5" y="538.2842">new isActive(false)</text><rect fill="#E2E2F0" height="31.6094" rx="2.5" ry="2.5" style="stroke:#181818;stroke-width:0.5;" width="62" x="1676.5" y="520.7891"/><text fill="#000000" font-family="sans-serif" font-size="14" lengthAdjust="spacing" textLength="48" x="1683.5" y="542.3223">IsActive</text><polygon fill="#A52A2A" points="998.5,565.3984,988.5,569.3984,998.5,573.3984,994.5,569.3984" style="stroke:#A52A2A;stroke-width:1.0;"/><line style="stroke:#A52A2A;stroke-width:1.0;stroke-dasharray:2.0,2.0;" x1="992.5" x2="1539.5" y1="569.3984" y2="569.3984"/><polygon fill="#A52A2A" points="1370.5,595.75,1380.5,599.75,1370.5,603.75,1374.5,599.75" style="stroke:#A52A2A;stroke-width:1.0;"/><line style="stroke:#A52A2A;stroke-width:1.0;" x1="987.5" x2="1376.5" y1="599.75" y2="599.75"/><text fill="#000000" font-family="sans-serif" font-size="13" lengthAdjust="spacing" textLength="128" x="994.5" y="594.8936">update(operationType)</text><polygon fill="#A52A2A" points="998.5,626.1016,988.5,630.1016,998.5,634.1016,994.5,630.1016" style="stroke:#A52A2A;stroke-width:1.0;"/><line style="stroke:#A52A2A;stroke-width:1.0;stroke-dasharray:2.0,2.0;" x1="992.5" x2="1386.5" y1="630.1016" y2="630.1016"/><text fill="#000000" font-family="sans-serif" font-size="13" lengthAdjust="spacing" textLength="46" x="1004.5" y="625.2451">updated</text><polygon fill="#A52A2A" points="728.5,656.4531,718.5,660.4531,728.5,664.4531,724.5,660.4531" style="stroke:#A52A2A;stroke-width:1.0;"/><line style="stroke:#A52A2A;stroke-width:1.0;stroke-dasharray:2.0,2.0;" x1="722.5" x2="981.5" y1="660.4531" y2="660.4531"/><text fill="#000000" font-family="sans-serif" font-size="13" lengthAdjust="spacing" textLength="46" x="734.5" y="655.5967">updated</text><polygon fill="#A52A2A" points="448.5,686.8047,438.5,690.8047,448.5,694.8047,444.5,690.8047" style="stroke:#A52A2A;stroke-width:1.0;"/><line style="stroke:#A52A2A;stroke-width:1.0;stroke-dasharray:2.0,2.0;" x1="442.5" x2="711.5" y1="690.8047" y2="690.8047"/><text fill="#000000" font-family="sans-serif" font-size="13" lengthAdjust="spacing" textLength="46" x="454.5" y="685.9482">updated</text><polygon fill="#A52A2A" points="58.5,717.1563,48.5,721.1563,58.5,725.1563,54.5,721.1563" style="stroke:#A52A2A;stroke-width:1.0;"/><line style="stroke:#A52A2A;stroke-width:1.0;stroke-dasharray:2.0,2.0;" x1="52.5" x2="426.5" y1="721.1563" y2="721.1563"/><text fill="#000000" font-family="sans-serif" font-size="13" lengthAdjust="spacing" textLength="46" x="64.5" y="716.2998">updated</text><line style="stroke:#000000;stroke-width:1.0;stroke-dasharray:2.0,2.0;" x1="10" x2="1748.5" y1="730.1563" y2="730.1563"/><text fill="#000000" font-family="sans-serif" font-size="11" font-weight="bold" lengthAdjust="spacing" textLength="43" x="15" y="741.5752">[delete]</text><polygon fill="#A52A2A" points="695.5,763.3438,705.5,767.3438,695.5,771.3438,699.5,767.3438" style="stroke:#A52A2A;stroke-width:1.0;"/><line style="stroke:#A52A2A;stroke-width:1.0;" x1="437.5" x2="701.5" y1="767.3438" y2="767.3438"/><text fill="#000000" font-family="sans-serif" font-size="13" lengthAdjust="spacing" textLength="218" x="444.5" y="762.4873">deleteOperationType(operationTypeId)</text><polygon fill="#A52A2A" points="1124,793.6953,1134,797.6953,1124,801.6953,1128,797.6953" style="stroke:#A52A2A;stroke-width:1.0;"/><line style="stroke:#A52A2A;stroke-width:1.0;" x1="717.5" x2="1130" y1="797.6953" y2="797.6953"/><text fill="#000000" font-family="sans-serif" font-size="13" lengthAdjust="spacing" textLength="234" x="724.5" y="792.8389">ensureAuthenticatedUserHasAnyOf(role)</text><polygon fill="#A52A2A" points="728.5,824.0469,718.5,828.0469,728.5,832.0469,724.5,828.0469" style="stroke:#A52A2A;stroke-width:1.0;"/><line style="stroke:#A52A2A;stroke-width:1.0;stroke-dasharray:2.0,2.0;" x1="722.5" x2="1140" y1="828.0469" y2="828.0469"/><text fill="#000000" font-family="sans-serif" font-size="13" lengthAdjust="spacing" textLength="22" x="734.5" y="823.1904">true</text><polygon fill="#A52A2A" points="965.5,854.3984,975.5,858.3984,965.5,862.3984,969.5,858.3984" style="stroke:#A52A2A;stroke-width:1.0;"/><line style="stroke:#A52A2A;stroke-width:1.0;" x1="717.5" x2="971.5" y1="858.3984" y2="858.3984"/><text fill="#000000" font-family="sans-serif" font-size="13" lengthAdjust="spacing" textLength="218" x="724.5" y="853.542">deleteOperationType(operationTypeId)</text><polygon fill="#A52A2A" points="1225.5,884.75,1235.5,888.75,1225.5,892.75,1229.5,888.75" style="stroke:#A52A2A;stroke-width:1.0;"/><line style="stroke:#A52A2A;stroke-width:1.0;" x1="987.5" x2="1231.5" y1="888.75" y2="888.75"/><text fill="#000000" font-family="sans-serif" font-size="13" lengthAdjust="spacing" textLength="172" x="994.5" y="883.8936">getOperationTypeRepository()</text><polygon fill="#A52A2A" points="998.5,915.1016,988.5,919.1016,998.5,923.1016,994.5,919.1016" style="stroke:#A52A2A;stroke-width:1.0;"/><line style="stroke:#A52A2A;stroke-width:1.0;stroke-dasharray:2.0,2.0;" x1="992.5" x2="1241.5" y1="919.1016" y2="919.1016"/><text fill="#000000" font-family="sans-serif" font-size="13" lengthAdjust="spacing" textLength="143" x="1004.5" y="914.2451">operationTypeRepository</text><polygon fill="#A52A2A" points="1370.5,945.4531,1380.5,949.4531,1370.5,953.4531,1374.5,949.4531" style="stroke:#A52A2A;stroke-width:1.0;"/><line style="stroke:#A52A2A;stroke-width:1.0;" x1="987.5" x2="1376.5" y1="949.4531" y2="949.4531"/><text fill="#000000" font-family="sans-serif" font-size="13" lengthAdjust="spacing" textLength="218" x="994.5" y="944.5967">deleteOperationType(operationTypeId)</text><polygon fill="#A52A2A" points="998.5,975.8047,988.5,979.8047,998.5,983.8047,994.5,979.8047" style="stroke:#A52A2A;stroke-width:1.0;"/><line style="stroke:#A52A2A;stroke-width:1.0;stroke-dasharray:2.0,2.0;" x1="992.5" x2="1386.5" y1="979.8047" y2="979.8047"/><text fill="#000000" font-family="sans-serif" font-size="13" lengthAdjust="spacing" textLength="42" x="1004.5" y="974.9482">deleted</text><polygon fill="#A52A2A" points="728.5,1006.1563,718.5,1010.1563,728.5,1014.1563,724.5,1010.1563" style="stroke:#A52A2A;stroke-width:1.0;"/><line style="stroke:#A52A2A;stroke-width:1.0;stroke-dasharray:2.0,2.0;" x1="722.5" x2="981.5" y1="1010.1563" y2="1010.1563"/><text fill="#000000" font-family="sans-serif" font-size="13" lengthAdjust="spacing" textLength="42" x="734.5" y="1005.2998">deleted</text><polygon fill="#A52A2A" points="448.5,1036.5078,438.5,1040.5078,448.5,1044.5078,444.5,1040.5078" style="stroke:#A52A2A;stroke-width:1.0;"/><line style="stroke:#A52A2A;stroke-width:1.0;stroke-dasharray:2.0,2.0;" x1="442.5" x2="711.5" y1="1040.5078" y2="1040.5078"/><text fill="#000000" font-family="sans-serif" font-size="13" lengthAdjust="spacing" textLength="42" x="454.5" y="1035.6514">deleted</text><polygon fill="#A52A2A" points="58.5,1066.8594,48.5,1070.8594,58.5,1074.8594,54.5,1070.8594" style="stroke:#A52A2A;stroke-width:1.0;"/><line style="stroke:#A52A2A;stroke-width:1.0;stroke-dasharray:2.0,2.0;" x1="52.5" x2="431.5" y1="1070.8594" y2="1070.8594"/><text fill="#000000" font-family="sans-serif" font-size="13" lengthAdjust="spacing" textLength="42" x="64.5" y="1066.0029">deleted</text><!--SRC=[tLN1Zjem4BtdAwmzqPMGUkPGAS2XaMXPDV01RZm95i5ERMSHhVhl7JjiOYSR5fPJDmU8n_FUl1dFE8QR4aWAlseG6P0bfuMY1xAnvaZlkQYeNMSbrJesHl6VjO4aaoBblu5yZle-v4z4y5dn75PSm5mg1ceXIwd8Kh82rBoi8NIXsRvGiXQiSOkVdbR98juaw-_Ehx-_WeCKYntFSocSGwoKF3PxStnhZ7xWb39MGhFtrrTS8JKj83Kdh862p51HODf-JbIn_o0bcXaRXXsuY52uuHclg33aOGcunP-fWRLQGWduNu6YXaknELMmJHu8rMIRt8HQI66KB4jG3jqjGvPlL61n0sGAwfbdu63oPICDON5jThuVnNNeyGCggJbcp44x5zyGkWRHMxTJAC3jNS0DlKFdHCUsN8qVFo_SeRWQdi_5_PBf5wpsZ2JaQA564jRMck0HCbTjGaKNZnWRi7N2izecbiRnpJ3aNfCSeSSTptOz6Dc12wJ78aMHPqNgG6IGSi823RGqFg5hq4PNrmuppoCewAJ7_Cd1MpAleQozMrfwsmup0aBN2cohWC23G1JRQb1VgOx5QPrFq1zwhAwFd0LVoBIdb1Xr7c8lgnOIIkWwbxmtHQ_vhTrZH7w_dJ520MQaZISzrc0Ex4x0DErBbw-pzgimO0tLXYolwBss5CqO1W4Qoil2-t8lyGq51oSukIHjgCoIlOpxuoCo2JYsXabEIttkmG0LPdDH_JNLhYjcbGVs-olSiB8RQzkRgRT8qi5idI-U4M3lNh3NJNSF-fWe0gnzWtQttDZjDFYqVQoRwTRqFlAjT4SrhX-R9iYTO_CMoUZOZ00lZiq81h_m-81WaVVy0m00]--></g></svg>