<?xml version="1.0" encoding="us-ascii" standalone="no"?><svg xmlns="http://www.w3.org/2000/svg" xmlns:xlink="http://www.w3.org/1999/xlink" contentStyleType="text/css" height="751px" preserveAspectRatio="none" style="width:1042px;height:751px;background:#FFFFFF;" version="1.1" viewBox="0 0 1042 751" width="1042px" zoomAndPan="magnify"><defs/><g><text fill="#000000" font-family="sans-serif" font-size="14" font-weight="bold" lengthAdjust="spacing" textLength="166" x="439.5" y="29.5332">Sequence Diagram Title</text><rect fill="#FFFFFF" height="520.2344" style="stroke:#181818;stroke-width:1.0;" width="10" x="22.5" y="131.2188"/><rect fill="#FFFFFF" height="497.8828" style="stroke:#181818;stroke-width:1.0;" width="10" x="152.5" y="153.5703"/><rect fill="#FFFFFF" height="420.8281" style="stroke:#181818;stroke-width:1.0;" width="10" x="412.5" y="200.2734"/><rect fill="#FFFFFF" height="343.7734" style="stroke:#181818;stroke-width:1.0;" width="10" x="698.5" y="246.9766"/><rect fill="#FFFFFF" height="91.0547" style="stroke:#181818;stroke-width:1.0;" width="10" x="819.5" y="277.3281"/><rect fill="#FFFFFF" height="32.6094" style="stroke:#181818;stroke-width:1.0;" width="10" x="921.5" y="477.4375"/><rect fill="#FFFFFF" height="30.3516" style="stroke:#181818;stroke-width:1.0;" width="10" x="1002" y="307.6797"/><rect fill="none" height="134.6641" style="stroke:#000000;stroke-width:1.5;" width="324.5" x="648.5" y="426.7344"/><line style="stroke:#181818;stroke-width:0.5;stroke-dasharray:5.0,5.0;" x1="27" x2="27" y1="121.2188" y2="669.4531"/><line style="stroke:#181818;stroke-width:0.5;stroke-dasharray:5.0,5.0;" x1="157.5" x2="157.5" y1="121.2188" y2="669.4531"/><line style="stroke:#181818;stroke-width:0.5;stroke-dasharray:5.0,5.0;" x1="417" x2="417" y1="121.2188" y2="669.4531"/><line style="stroke:#181818;stroke-width:0.5;stroke-dasharray:5.0,5.0;" x1="703.5" x2="703.5" y1="121.2188" y2="669.4531"/><line style="stroke:#181818;stroke-width:0.5;stroke-dasharray:5.0,5.0;" x1="824" x2="824" y1="121.2188" y2="669.4531"/><line style="stroke:#181818;stroke-width:0.5;stroke-dasharray:5.0,5.0;" x1="926" x2="926" y1="476.3906" y2="669.4531"/><line style="stroke:#181818;stroke-width:0.5;stroke-dasharray:5.0,5.0;" x1="1007" x2="1007" y1="121.2188" y2="669.4531"/><text fill="#000000" font-family="sans-serif" font-size="14" lengthAdjust="spacing" textLength="39" x="5" y="118.1426">Admin</text><ellipse cx="27.5" cy="52.1094" fill="#E2E2F0" rx="8" ry="8" style="stroke:#181818;stroke-width:0.5;"/><path d="M27.5,60.1094 L27.5,87.1094 M14.5,68.1094 L40.5,68.1094 M27.5,87.1094 L14.5,102.1094 M27.5,87.1094 L40.5,102.1094 " fill="none" style="stroke:#181818;stroke-width:0.5;"/><text fill="#000000" font-family="sans-serif" font-size="14" lengthAdjust="spacing" textLength="39" x="5" y="682.9863">Admin</text><ellipse cx="27.5" cy="694.5625" fill="#E2E2F0" rx="8" ry="8" style="stroke:#181818;stroke-width:0.5;"/><path d="M27.5,702.5625 L27.5,729.5625 M14.5,710.5625 L40.5,710.5625 M27.5,729.5625 L14.5,744.5625 M27.5,729.5625 L40.5,744.5625 " fill="none" style="stroke:#181818;stroke-width:0.5;"/><rect fill="#E2E2F0" height="31.6094" rx="2.5" ry="2.5" style="stroke:#181818;stroke-width:0.5;" width="52" x="131.5" y="88.6094"/><text fill="#000000" font-family="sans-serif" font-size="14" lengthAdjust="spacing" textLength="38" x="138.5" y="110.1426">Route</text><rect fill="#E2E2F0" height="31.6094" rx="2.5" ry="2.5" style="stroke:#181818;stroke-width:0.5;" width="52" x="131.5" y="668.4531"/><text fill="#000000" font-family="sans-serif" font-size="14" lengthAdjust="spacing" textLength="38" x="138.5" y="689.9863">Route</text><rect fill="#E2E2F0" height="31.6094" rx="2.5" ry="2.5" style="stroke:#181818;stroke-width:0.5;" width="105" x="365" y="88.6094"/><text fill="#000000" font-family="sans-serif" font-size="14" lengthAdjust="spacing" textLength="91" x="372" y="110.1426">StaffController</text><rect fill="#E2E2F0" height="31.6094" rx="2.5" ry="2.5" style="stroke:#181818;stroke-width:0.5;" width="105" x="365" y="668.4531"/><text fill="#000000" font-family="sans-serif" font-size="14" lengthAdjust="spacing" textLength="91" x="372" y="689.9863">StaffController</text><rect fill="#E2E2F0" height="31.6094" rx="2.5" ry="2.5" style="stroke:#181818;stroke-width:0.5;" width="90" x="658.5" y="88.6094"/><text fill="#000000" font-family="sans-serif" font-size="14" lengthAdjust="spacing" textLength="76" x="665.5" y="110.1426">StaffService</text><rect fill="#E2E2F0" height="31.6094" rx="2.5" ry="2.5" style="stroke:#181818;stroke-width:0.5;" width="90" x="658.5" y="668.4531"/><text fill="#000000" font-family="sans-serif" font-size="14" lengthAdjust="spacing" textLength="76" x="665.5" y="689.9863">StaffService</text><rect fill="#E2E2F0" height="31.6094" rx="2.5" ry="2.5" style="stroke:#181818;stroke-width:0.5;" width="111" x="769" y="88.6094"/><text fill="#000000" font-family="sans-serif" font-size="14" lengthAdjust="spacing" textLength="97" x="776" y="110.1426">StaffRepository</text><rect fill="#E2E2F0" height="31.6094" rx="2.5" ry="2.5" style="stroke:#181818;stroke-width:0.5;" width="111" x="769" y="668.4531"/><text fill="#000000" font-family="sans-serif" font-size="14" lengthAdjust="spacing" textLength="97" x="776" y="689.9863">StaffRepository</text><rect fill="#E2E2F0" height="31.6094" rx="2.5" ry="2.5" style="stroke:#181818;stroke-width:0.5;" width="73" x="890" y="668.4531"/><text fill="#000000" font-family="sans-serif" font-size="14" lengthAdjust="spacing" textLength="59" x="897" y="689.9863">StaffDTO</text><text fill="#000000" font-family="sans-serif" font-size="14" lengthAdjust="spacing" textLength="62" x="973" y="118.1426">DataBase</text><path d="M989,67.6094 C989,57.6094 1007,57.6094 1007,57.6094 C1007,57.6094 1025,57.6094 1025,67.6094 L1025,93.6094 C1025,103.6094 1007,103.6094 1007,103.6094 C1007,103.6094 989,103.6094 989,93.6094 L989,67.6094 " fill="#E2E2F0" style="stroke:#181818;stroke-width:1.5;"/><path d="M989,67.6094 C989,77.6094 1007,77.6094 1007,77.6094 C1007,77.6094 1025,77.6094 1025,67.6094 " fill="none" style="stroke:#181818;stroke-width:1.5;"/><text fill="#000000" font-family="sans-serif" font-size="14" lengthAdjust="spacing" textLength="62" x="973" y="682.9863">DataBase</text><path d="M989,696.0625 C989,686.0625 1007,686.0625 1007,686.0625 C1007,686.0625 1025,686.0625 1025,696.0625 L1025,722.0625 C1025,732.0625 1007,732.0625 1007,732.0625 C1007,732.0625 989,732.0625 989,722.0625 L989,696.0625 " fill="#E2E2F0" style="stroke:#181818;stroke-width:1.5;"/><path d="M989,696.0625 C989,706.0625 1007,706.0625 1007,706.0625 C1007,706.0625 1025,706.0625 1025,696.0625 " fill="none" style="stroke:#181818;stroke-width:1.5;"/><rect fill="#FFFFFF" height="520.2344" style="stroke:#181818;stroke-width:1.0;" width="10" x="22.5" y="131.2188"/><rect fill="#FFFFFF" height="497.8828" style="stroke:#181818;stroke-width:1.0;" width="10" x="152.5" y="153.5703"/><rect fill="#FFFFFF" height="420.8281" style="stroke:#181818;stroke-width:1.0;" width="10" x="412.5" y="200.2734"/><rect fill="#FFFFFF" height="343.7734" style="stroke:#181818;stroke-width:1.0;" width="10" x="698.5" y="246.9766"/><rect fill="#FFFFFF" height="91.0547" style="stroke:#181818;stroke-width:1.0;" width="10" x="819.5" y="277.3281"/><rect fill="#FFFFFF" height="32.6094" style="stroke:#181818;stroke-width:1.0;" width="10" x="921.5" y="477.4375"/><rect fill="#FFFFFF" height="30.3516" style="stroke:#181818;stroke-width:1.0;" width="10" x="1002" y="307.6797"/><polygon fill="#A52A2A" points="140.5,149.5703,150.5,153.5703,140.5,157.5703,144.5,153.5703" style="stroke:#A52A2A;stroke-width:1.0;"/><line style="stroke:#A52A2A;stroke-width:1.0;" x1="32.5" x2="146.5" y1="153.5703" y2="153.5703"/><text fill="#000000" font-family="sans-serif" font-size="13" lengthAdjust="spacing" textLength="101" x="39.5" y="148.7139">HttpGet("filtered")</text><polygon fill="#A52A2A" points="400.5,196.2734,410.5,200.2734,400.5,204.2734,404.5,200.2734" style="stroke:#A52A2A;stroke-width:1.0;"/><line style="stroke:#A52A2A;stroke-width:1.0;" x1="162.5" x2="406.5" y1="200.2734" y2="200.2734"/><text fill="#000000" font-family="sans-serif" font-size="13" lengthAdjust="spacing" textLength="231" x="169.5" y="179.0654">GetStaffsFiltered( firstName,  lastName,</text><text fill="#000000" font-family="sans-serif" font-size="13" lengthAdjust="spacing" textLength="168" x="173.5" y="195.417">email, specialization, sortBy)</text><polygon fill="#A52A2A" points="686.5,242.9766,696.5,246.9766,686.5,250.9766,690.5,246.9766" style="stroke:#A52A2A;stroke-width:1.0;"/><line style="stroke:#A52A2A;stroke-width:1.0;" x1="422.5" x2="692.5" y1="246.9766" y2="246.9766"/><text fill="#000000" font-family="sans-serif" font-size="13" lengthAdjust="spacing" textLength="257" x="429.5" y="225.7686">getStaffsFilteredAsync(firstName, lastName,</text><text fill="#000000" font-family="sans-serif" font-size="13" lengthAdjust="spacing" textLength="168" x="433.5" y="242.1201">email, specialization, sortBy)</text><polygon fill="#A52A2A" points="807.5,273.3281,817.5,277.3281,807.5,281.3281,811.5,277.3281" style="stroke:#A52A2A;stroke-width:1.0;"/><line style="stroke:#A52A2A;stroke-width:1.0;" x1="708.5" x2="813.5" y1="277.3281" y2="277.3281"/><text fill="#000000" font-family="sans-serif" font-size="13" lengthAdjust="spacing" textLength="81" x="715.5" y="272.4717">GetAllAsync()</text><polygon fill="#A52A2A" points="990,303.6797,1000,307.6797,990,311.6797,994,307.6797" style="stroke:#A52A2A;stroke-width:1.0;"/><line style="stroke:#A52A2A;stroke-width:1.0;" x1="829.5" x2="996" y1="307.6797" y2="307.6797"/><text fill="#000000" font-family="sans-serif" font-size="13" lengthAdjust="spacing" textLength="41" x="836.5" y="302.8232">getAll()</text><polygon fill="#A52A2A" points="840.5,334.0313,830.5,338.0313,840.5,342.0313,836.5,338.0313" style="stroke:#A52A2A;stroke-width:1.0;"/><line style="stroke:#A52A2A;stroke-width:1.0;stroke-dasharray:2.0,2.0;" x1="834.5" x2="1006" y1="338.0313" y2="338.0313"/><text fill="#000000" font-family="sans-serif" font-size="13" lengthAdjust="spacing" textLength="31" x="846.5" y="333.1748">staffs</text><polygon fill="#A52A2A" points="719.5,364.3828,709.5,368.3828,719.5,372.3828,715.5,368.3828" style="stroke:#A52A2A;stroke-width:1.0;"/><line style="stroke:#A52A2A;stroke-width:1.0;stroke-dasharray:2.0,2.0;" x1="713.5" x2="823.5" y1="368.3828" y2="368.3828"/><text fill="#000000" font-family="sans-serif" font-size="13" lengthAdjust="spacing" textLength="31" x="725.5" y="363.5264">staffs</text><line style="stroke:#A52A2A;stroke-width:1.0;" x1="708.5" x2="750.5" y1="398.7344" y2="398.7344"/><line style="stroke:#A52A2A;stroke-width:1.0;" x1="750.5" x2="750.5" y1="398.7344" y2="411.7344"/><line style="stroke:#A52A2A;stroke-width:1.0;" x1="709.5" x2="750.5" y1="411.7344" y2="411.7344"/><polygon fill="#A52A2A" points="719.5,407.7344,709.5,411.7344,719.5,415.7344,715.5,411.7344" style="stroke:#A52A2A;stroke-width:1.0;"/><text fill="#000000" font-family="sans-serif" font-size="13" lengthAdjust="spacing" textLength="97" x="715.5" y="393.8779">applies all  filters</text><path d="M648.5,426.7344 L721.5,426.7344 L721.5,435.0859 L711.5,445.0859 L648.5,445.0859 L648.5,426.7344 " fill="#EEEEEE" style="stroke:#000000;stroke-width:1.5;"/><rect fill="none" height="134.6641" style="stroke:#000000;stroke-width:1.5;" width="324.5" x="648.5" y="426.7344"/><text fill="#000000" font-family="sans-serif" font-size="13" font-weight="bold" lengthAdjust="spacing" textLength="28" x="663.5" y="441.2295">loop</text><text fill="#000000" font-family="sans-serif" font-size="11" font-weight="bold" lengthAdjust="spacing" textLength="163" x="736.5" y="440.1533">[for each staff, convert in dto]</text><polygon fill="#A52A2A" points="878,463.4375,888,467.4375,878,471.4375,882,467.4375" style="stroke:#A52A2A;stroke-width:1.0;"/><line style="stroke:#A52A2A;stroke-width:1.0;" x1="708.5" x2="884" y1="467.4375" y2="467.4375"/><text fill="#000000" font-family="sans-serif" font-size="13" lengthAdjust="spacing" textLength="105" x="715.5" y="462.5811">new StaffDto(staff)</text><rect fill="#E2E2F0" height="31.6094" rx="2.5" ry="2.5" style="stroke:#181818;stroke-width:0.5;" width="73" x="890" y="445.0859"/><text fill="#000000" font-family="sans-serif" font-size="14" lengthAdjust="spacing" textLength="59" x="897" y="466.6191">StaffDTO</text><polygon fill="#A52A2A" points="719.5,506.0469,709.5,510.0469,719.5,514.0469,715.5,510.0469" style="stroke:#A52A2A;stroke-width:1.0;"/><line style="stroke:#A52A2A;stroke-width:1.0;stroke-dasharray:2.0,2.0;" x1="713.5" x2="925.5" y1="510.0469" y2="510.0469"/><text fill="#000000" font-family="sans-serif" font-size="13" lengthAdjust="spacing" textLength="18" x="725.5" y="505.1904">dto</text><line style="stroke:#A52A2A;stroke-width:1.0;" x1="708.5" x2="750.5" y1="540.3984" y2="540.3984"/><line style="stroke:#A52A2A;stroke-width:1.0;" x1="750.5" x2="750.5" y1="540.3984" y2="553.3984"/><line style="stroke:#A52A2A;stroke-width:1.0;" x1="709.5" x2="750.5" y1="553.3984" y2="553.3984"/><polygon fill="#A52A2A" points="719.5,549.3984,709.5,553.3984,719.5,557.3984,715.5,553.3984" style="stroke:#A52A2A;stroke-width:1.0;"/><text fill="#000000" font-family="sans-serif" font-size="13" lengthAdjust="spacing" textLength="70" x="715.5" y="535.542">list.Add(dto)</text><polygon fill="#A52A2A" points="433.5,586.75,423.5,590.75,433.5,594.75,429.5,590.75" style="stroke:#A52A2A;stroke-width:1.0;"/><line style="stroke:#A52A2A;stroke-width:1.0;stroke-dasharray:2.0,2.0;" x1="427.5" x2="702.5" y1="590.75" y2="590.75"/><text fill="#000000" font-family="sans-serif" font-size="13" lengthAdjust="spacing" textLength="65" x="439.5" y="585.8936">staffDtoList</text><polygon fill="#A52A2A" points="173.5,617.1016,163.5,621.1016,173.5,625.1016,169.5,621.1016" style="stroke:#A52A2A;stroke-width:1.0;"/><line style="stroke:#A52A2A;stroke-width:1.0;stroke-dasharray:2.0,2.0;" x1="167.5" x2="416.5" y1="621.1016" y2="621.1016"/><text fill="#000000" font-family="sans-serif" font-size="13" lengthAdjust="spacing" textLength="65" x="179.5" y="616.2451">staffDtoList</text><polygon fill="#A52A2A" points="38.5,647.4531,28.5,651.4531,38.5,655.4531,34.5,651.4531" style="stroke:#A52A2A;stroke-width:1.0;"/><line style="stroke:#A52A2A;stroke-width:1.0;stroke-dasharray:2.0,2.0;" x1="32.5" x2="156.5" y1="651.4531" y2="651.4531"/><text fill="#000000" font-family="sans-serif" font-size="13" lengthAdjust="spacing" textLength="65" x="44.5" y="646.5967">staffDtoList</text><!--SRC=[rPJ1Rjim38RlVWeYfxH8Xvrp6E0as1OWQ8iulUt2MBGhL94yYKcH3dltqLBIs4Qwmsxp8Q7CZ-HFYWbhDWG5_ToJBGaM6ckFEzYqhxFmecs3xRaq64BExFLspxGidItq6y7dRCZ0hmpaMUcALjhIp7b5VkwCyx1mgYO_Ctlg8rY-rDxjhKfO_lYuMixppVBXFd93_ufspiwVTLKv6u7SU_UQV3EnqijkuGALCfHylxkA6qcDDHLyb1buAXbjBMrtUqAl_eEMiEIsZDffcubmrgLkq3ACrawkQmGOu6dPznICLJLtbhqpXdnaBiShR47-eCkKR1_85rUODJKkQD5oVCVMsHLkiNbu1yJE539kCH2C5cBDn8fkjOsjwGCodRgBdt3tHVgPmdVcvXlnU5Hfm-H9ZMukl3Jyj6p9IrTJ43eA25zF4MEej0zyZpkQ0CW69_E71TgXDXC83PKQZNv3rixAsNcU7JjrEaExc6tTE2IOGZsicOUZBSUTklzIDbr1gd4gjeROO6vCgZ2Wrv2bBy7LDWaJjel9mCLpTyutXH25Pugwo2dBkSLhLBhvdhfs5DWqHbC0D0OWNLh8Z7CDLBA_4lwSSar0_c4Ev1daiXKxoFgvP6TkRoMVfLT82yLk72C7FRVBTVg-29P0oJcKUqPxWeqE_2bNQYm1DnbPzIwajrXmce78M4d4C7K1lTM8s_kNa0uRLrZujFOVXmZMFQRVok3v0m00]--></g></svg>