<?xml version="1.0" encoding="us-ascii" standalone="no"?><svg xmlns="http://www.w3.org/2000/svg" xmlns:xlink="http://www.w3.org/1999/xlink" contentStyleType="text/css" height="882px" preserveAspectRatio="none" style="width:1002px;height:882px;background:#FFFFFF;" version="1.1" viewBox="0 0 1002 882" width="1002px" zoomAndPan="magnify"><defs/><g><text fill="#000000" font-family="sans-serif" font-size="14" font-weight="bold" lengthAdjust="spacing" textLength="100" x="444" y="24.5332">Domain Model</text><!--cluster User Aggregate--><g id="cluster_User Aggregate"><rect fill="none" height="343.5" rx="2.5" ry="2.5" style="stroke:#000000;stroke-width:1.5;" width="458" x="538" y="125.6094"/><text fill="#000000" font-family="sans-serif" font-size="14" font-weight="bold" lengthAdjust="spacing" textLength="110" x="712" y="142.1426">User Aggregate</text></g><!--cluster Operation Type Aggregate--><g id="cluster_Operation Type Aggregate"><rect fill="none" height="267.5" rx="2.5" ry="2.5" style="stroke:#000000;stroke-width:1.5;" width="499" x="7" y="355.6094"/><text fill="#000000" font-family="sans-serif" font-size="14" font-weight="bold" lengthAdjust="spacing" textLength="184" x="164.5" y="372.1426">Operation Type Aggregate</text></g><!--cluster Specialization Aggregate--><g id="cluster_Specialization Aggregate"><rect fill="none" height="220" rx="2.5" ry="2.5" style="stroke:#000000;stroke-width:1.5;" width="387" x="175" y="656.1094"/><text fill="#000000" font-family="sans-serif" font-size="14" font-weight="bold" lengthAdjust="spacing" textLength="174" x="281.5" y="672.6426">Specialization Aggregate</text></g><!--class User--><g id="elem_User"><rect codeLine="40" fill="#FFFACD" height="65.7969" id="User" rx="2.5" ry="2.5" style="stroke:#8B4513;stroke-width:0.5;" width="45" x="693.5" y="379.1094"/><text fill="#000000" font-family="sans-serif" font-size="12" font-style="italic" lengthAdjust="spacing" textLength="43" x="694.5" y="396.5664">&#171;entity&#187;</text><text fill="#000000" font-family="sans-serif" font-size="12" font-style="italic" lengthAdjust="spacing" textLength="35" x="698.5" y="411.6602">&#171;root&#187;</text><text fill="#000000" font-family="sans-serif" font-size="14" lengthAdjust="spacing" textLength="29" x="701.5" y="428.8301">User</text><line style="stroke:#8B4513;stroke-width:0.5;" x1="694.5" x2="737.5" y1="436.9063" y2="436.9063"/></g><!--entity Username--><g id="elem_Username"><rect fill="#FFFACD" height="41.2188" rx="2.5" ry="2.5" style="stroke:#8B4513;stroke-width:0.5;" width="117" x="581.5" y="218.6094"/><text fill="#000000" font-family="sans-serif" font-size="14" font-style="italic" lengthAdjust="spacing" textLength="97" x="591.5" y="236.1426">&#171;Value Object&#187;</text><text fill="#000000" font-family="sans-serif" font-size="14" lengthAdjust="spacing" textLength="64" x="608" y="253.752">Username</text></g><!--entity Email--><g id="elem_Email"><rect fill="#FFFACD" height="41.2188" rx="2.5" ry="2.5" style="stroke:#8B4513;stroke-width:0.5;" width="117" x="733.5" y="218.6094"/><text fill="#000000" font-family="sans-serif" font-size="14" font-style="italic" lengthAdjust="spacing" textLength="97" x="743.5" y="236.1426">&#171;Value Object&#187;</text><text fill="#000000" font-family="sans-serif" font-size="14" lengthAdjust="spacing" textLength="34" x="775" y="253.752">Email</text></g><!--class Role--><g id="elem_Role"><rect codeLine="46" fill="#FFFACD" height="138.75" id="Role" rx="2.5" ry="2.5" style="stroke:#8B4513;stroke-width:0.5;" width="86" x="886" y="169.6094"/><text fill="#000000" font-family="sans-serif" font-size="12" font-style="italic" lengthAdjust="spacing" textLength="84" x="887" y="187.0664">&#171;enumeration&#187;</text><text fill="#000000" font-family="sans-serif" font-size="14" lengthAdjust="spacing" textLength="29" x="914.5" y="204.2363">Role</text><line style="stroke:#8B4513;stroke-width:0.5;" x1="887" x2="971" y1="212.3125" y2="212.3125"/><text fill="#000000" font-family="sans-serif" font-size="14" lengthAdjust="spacing" textLength="39" x="892" y="230.8457">Admin</text><text fill="#000000" font-family="sans-serif" font-size="14" lengthAdjust="spacing" textLength="42" x="892" y="248.4551">Doctor</text><text fill="#000000" font-family="sans-serif" font-size="14" lengthAdjust="spacing" textLength="37" x="892" y="266.0645">Nurse</text><text fill="#000000" font-family="sans-serif" font-size="14" lengthAdjust="spacing" textLength="69" x="892" y="283.6738">Technician</text><text fill="#000000" font-family="sans-serif" font-size="14" lengthAdjust="spacing" textLength="44" x="892" y="301.2832">Patient</text></g><!--class OperationType--><g id="elem_OperationType"><rect codeLine="67" fill="#FFFACD" height="65.7969" id="OperationType" rx="2.5" ry="2.5" style="stroke:#8B4513;stroke-width:0.5;" width="101" x="295.5" y="541.1094"/><text fill="#000000" font-family="sans-serif" font-size="12" font-style="italic" lengthAdjust="spacing" textLength="43" x="324.5" y="558.5664">&#171;entity&#187;</text><text fill="#000000" font-family="sans-serif" font-size="12" font-style="italic" lengthAdjust="spacing" textLength="35" x="328.5" y="573.6602">&#171;root&#187;</text><text fill="#000000" font-family="sans-serif" font-size="14" lengthAdjust="spacing" textLength="95" x="298.5" y="590.8301">OperationType</text><line style="stroke:#8B4513;stroke-width:0.5;" x1="296.5" x2="395.5" y1="598.9063" y2="598.9063"/></g><!--entity OperationTypeID--><g id="elem_OperationTypeID"><rect fill="#FFFACD" height="41.2188" rx="2.5" ry="2.5" style="stroke:#8B4513;stroke-width:0.5;" width="128" x="23" y="391.6094"/><text fill="#000000" font-family="sans-serif" font-size="14" font-style="italic" lengthAdjust="spacing" textLength="97" x="38.5" y="409.1426">&#171;Value Object&#187;</text><text fill="#000000" font-family="sans-serif" font-size="14" lengthAdjust="spacing" textLength="108" x="33" y="426.752">OperationTypeID</text></g><!--entity OperationTypeName--><g id="elem_OperationTypeName"><rect fill="#FFFACD" height="41.2188" rx="2.5" ry="2.5" style="stroke:#8B4513;stroke-width:0.5;" width="151" x="186.5" y="391.6094"/><text fill="#000000" font-family="sans-serif" font-size="14" font-style="italic" lengthAdjust="spacing" textLength="97" x="213.5" y="409.1426">&#171;Value Object&#187;</text><text fill="#000000" font-family="sans-serif" font-size="14" lengthAdjust="spacing" textLength="131" x="196.5" y="426.752">OperationTypeName</text></g><!--entity EstimatedDuration--><g id="elem_EstimatedDuration"><rect fill="#FFFACD" height="41.2188" rx="2.5" ry="2.5" style="stroke:#8B4513;stroke-width:0.5;" width="136" x="124" y="553.6094"/><text fill="#000000" font-family="sans-serif" font-size="14" font-style="italic" lengthAdjust="spacing" textLength="97" x="143.5" y="571.1426">&#171;Value Object&#187;</text><text fill="#000000" font-family="sans-serif" font-size="14" lengthAdjust="spacing" textLength="116" x="134" y="588.752">EstimatedDuration</text></g><!--entity isActive--><g id="elem_isActive"><rect fill="#FFFACD" height="41.2188" rx="2.5" ry="2.5" style="stroke:#8B4513;stroke-width:0.5;" width="117" x="372.5" y="391.6094"/><text fill="#000000" font-family="sans-serif" font-size="14" font-style="italic" lengthAdjust="spacing" textLength="97" x="382.5" y="409.1426">&#171;Value Object&#187;</text><text fill="#000000" font-family="sans-serif" font-size="14" lengthAdjust="spacing" textLength="48" x="407" y="426.752">isActive</text></g><!--class Specialization--><g id="elem_Specialization"><rect codeLine="87" fill="#FFFACD" height="65.7969" id="Specialization" rx="2.5" ry="2.5" style="stroke:#8B4513;stroke-width:0.5;" width="92" x="300" y="692.1094"/><text fill="#000000" font-family="sans-serif" font-size="12" font-style="italic" lengthAdjust="spacing" textLength="43" x="324.5" y="709.5664">&#171;entity&#187;</text><text fill="#000000" font-family="sans-serif" font-size="12" font-style="italic" lengthAdjust="spacing" textLength="35" x="328.5" y="724.6602">&#171;root&#187;</text><text fill="#000000" font-family="sans-serif" font-size="14" lengthAdjust="spacing" textLength="86" x="303" y="741.8301">Specialization</text><line style="stroke:#8B4513;stroke-width:0.5;" x1="301" x2="391" y1="749.9063" y2="749.9063"/></g><!--entity SpecializationName--><g id="elem_SpecializationName"><rect fill="#FFFACD" height="41.2188" rx="2.5" ry="2.5" style="stroke:#8B4513;stroke-width:0.5;" width="142" x="191" y="819.1094"/><text fill="#000000" font-family="sans-serif" font-size="14" font-style="italic" lengthAdjust="spacing" textLength="97" x="213.5" y="836.6426">&#171;Value Object&#187;</text><text fill="#000000" font-family="sans-serif" font-size="14" lengthAdjust="spacing" textLength="122" x="201" y="854.252">SpecializationName</text></g><!--entity SpecializationDescription--><g id="elem_SpecializationDescription"><rect fill="#FFFACD" height="41.2188" rx="2.5" ry="2.5" style="stroke:#8B4513;stroke-width:0.5;" width="177" x="368.5" y="819.1094"/><text fill="#000000" font-family="sans-serif" font-size="14" font-style="italic" lengthAdjust="spacing" textLength="97" x="408.5" y="836.6426">&#171;Value Object&#187;</text><text fill="#000000" font-family="sans-serif" font-size="14" lengthAdjust="spacing" textLength="157" x="378.5" y="854.252">SpecializationDescription</text></g><g id="elem_GMN13"><path d="M307,44.6094 L307,70.9609 L785,70.9609 L785,54.6094 L775,44.6094 L307,44.6094 " fill="#FEFFDD" style="stroke:#181818;stroke-width:0.5;"/><path d="M775,44.6094 L775,54.6094 L785,54.6094 L775,44.6094 " fill="#FEFFDD" style="stroke:#181818;stroke-width:1.0;"/><text fill="#000000" font-family="sans-serif" font-size="13" lengthAdjust="spacing" textLength="457" x="313" y="63.1045">This logic is abstracted by the backend and is implemented in the IAM process</text></g><!--reverse link Username to User--><g id="link_Username_User"><path codeLine="56" d="M651.1565,265.2124 C664.0965,294.3324 686.11,343.8594 701.7,378.9294 " fill="none" id="Username-backto-User" style="stroke:#A52A2A;stroke-width:1.0;"/><polygon fill="#A52A2A" points="648.72,259.7294,648.7194,269.5782,650.7504,264.2986,656.0301,266.3296,648.72,259.7294" style="stroke:#A52A2A;stroke-width:1.0;"/><text fill="#000000" font-family="sans-serif" font-size="13" lengthAdjust="spacing" textLength="7" x="643.1881" y="281.2925">1</text><text fill="#000000" font-family="sans-serif" font-size="13" lengthAdjust="spacing" textLength="7" x="691.1956" y="368.3718">1</text></g><!--reverse link Email to User--><g id="link_Email_User"><path codeLine="57" d="M780.8435,265.2124 C767.9035,294.3324 745.89,343.8594 730.3,378.9294 " fill="none" id="Email-backto-User" style="stroke:#A52A2A;stroke-width:1.0;"/><polygon fill="#A52A2A" points="783.28,259.7294,775.9699,266.3296,781.2496,264.2986,783.2806,269.5782,783.28,259.7294" style="stroke:#A52A2A;stroke-width:1.0;"/><text fill="#000000" font-family="sans-serif" font-size="13" lengthAdjust="spacing" textLength="7" x="772.8431" y="281.2925">1</text><text fill="#000000" font-family="sans-serif" font-size="13" lengthAdjust="spacing" textLength="7" x="725.4263" y="368.3718">1</text></g><!--reverse link Role to User--><g id="link_Role_User"><path codeLine="58" d="M881.5542,295.9275 C875.8142,301.8775 874,303.3694 868,308.6094 C825.7,345.5794 769.48,380.2894 738.63,398.2894 " fill="none" id="Role-backto-User" style="stroke:#A52A2A;stroke-width:1.0;"/><polygon fill="#A52A2A" points="885.72,291.6094,876.5926,295.3094,882.2485,295.2078,882.3501,300.8638,885.72,291.6094" style="stroke:#A52A2A;stroke-width:1.0;"/><text fill="#000000" font-family="sans-serif" font-size="13" lengthAdjust="spacing" textLength="7" x="870.9721" y="296.5246">1</text><text fill="#000000" font-family="sans-serif" font-size="13" lengthAdjust="spacing" textLength="7" x="746.6323" y="389.1871">1</text></g><!--link GMN13 to User Aggregate--><g id="link_GMN13_User Aggregate"><path d="M546,70.6694 C546,80.5719 546,95.7412 546,112.9855 C546,115.141 546,117.3289 546,119.5431 C546,120.6501 546,121.7638 546,122.8831 C546,123.4428 546,124.004 546,124.5664 C546,124.8477 546,125.1292 546,125.4111 " fill="none" id="GMN13-User Aggregate" style="stroke:#A52A2A;stroke-width:1.0;stroke-dasharray:7.0,7.0;"/></g><!--reverse link OperationTypeID to OperationType--><g id="link_OperationTypeID_OperationType"><path codeLine="77" d="M110.6644,436.8893 C126.5744,452.3393 145.87,469.5894 169,485.1094 C191.09,499.9294 251.31,529.0594 295.4,549.7494 " fill="none" id="OperationTypeID-backto-OperationType" style="stroke:#A52A2A;stroke-width:1.0;"/><polygon fill="#A52A2A" points="106.36,432.7094,110.03,441.8489,109.947,436.1927,115.6033,436.1097,106.36,432.7094" style="stroke:#A52A2A;stroke-width:1.0;"/><text fill="#000000" font-family="sans-serif" font-size="13" lengthAdjust="spacing" textLength="7" x="103.8206" y="454.2669">1</text><text fill="#000000" font-family="sans-serif" font-size="13" lengthAdjust="spacing" textLength="7" x="280.4541" y="542.5324">1</text></g><!--reverse link OperationTypeName to OperationType--><g id="link_OperationTypeName_OperationType"><path codeLine="78" d="M275.0892,438.0417 C289.2392,464.9917 312.08,508.4994 329.07,540.8594 " fill="none" id="OperationTypeName-backto-OperationType" style="stroke:#A52A2A;stroke-width:1.0;"/><polygon fill="#A52A2A" points="272.3,432.7294,272.9423,442.5573,274.6243,437.1563,280.0253,438.8383,272.3,432.7294" style="stroke:#A52A2A;stroke-width:1.0;"/><text fill="#000000" font-family="sans-serif" font-size="13" lengthAdjust="spacing" textLength="7" x="267.2125" y="454.2925">1</text><text fill="#000000" font-family="sans-serif" font-size="13" lengthAdjust="spacing" textLength="7" x="318.0478" y="530.288">1</text></g><!--reverse link EstimatedDuration to OperationType--><g id="link_EstimatedDuration_OperationType"><path codeLine="79" d="M266.28,574.1094 C278,574.1094 283.72,574.1094 295.44,574.1094 " fill="none" id="EstimatedDuration-backto-OperationType" style="stroke:#A52A2A;stroke-width:1.0;"/><polygon fill="#A52A2A" points="260.28,574.1094,269.28,578.1094,265.28,574.1094,269.28,570.1094,260.28,574.1094" style="stroke:#A52A2A;stroke-width:1.0;"/><text fill="#000000" font-family="sans-serif" font-size="13" lengthAdjust="spacing" textLength="7" x="268.1309" y="570.7368">1</text><text fill="#000000" font-family="sans-serif" font-size="13" lengthAdjust="spacing" textLength="7" x="280.4999" y="570.4702">1</text></g><!--reverse link isActive to OperationType--><g id="link_isActive_OperationType"><path codeLine="80" d="M417.7646,438.0278 C403.4446,464.9778 380.33,508.4994 363.13,540.8594 " fill="none" id="isActive-backto-OperationType" style="stroke:#A52A2A;stroke-width:1.0;"/><polygon fill="#A52A2A" points="420.58,432.7294,412.8246,438.8002,418.2339,437.1448,419.8893,442.554,420.58,432.7294" style="stroke:#A52A2A;stroke-width:1.0;"/><text fill="#000000" font-family="sans-serif" font-size="13" lengthAdjust="spacing" textLength="7" x="409.665" y="454.2925">1</text><text fill="#000000" font-family="sans-serif" font-size="13" lengthAdjust="spacing" textLength="7" x="358.8134" y="530.288">1</text></g><!--link Specialization to SpecializationName--><g id="link_Specialization_SpecializationName"><path codeLine="94" d="M321.93,758.3494 C307.29,777.9594 292.6589,797.5511 280.1789,814.2711 " fill="none" id="Specialization-to-SpecializationName" style="stroke:#A52A2A;stroke-width:1.0;"/><polygon fill="#A52A2A" points="276.59,819.0794,285.1789,814.2596,279.5808,815.0725,278.7679,809.4743,276.59,819.0794" style="stroke:#A52A2A;stroke-width:1.0;"/><text fill="#000000" font-family="sans-serif" font-size="13" lengthAdjust="spacing" textLength="7" x="309.8468" y="779.4993">1</text><text fill="#000000" font-family="sans-serif" font-size="13" lengthAdjust="spacing" textLength="7" x="272.8477" y="808.2133">1</text></g><!--link Specialization to SpecializationDescription--><g id="link_Specialization_SpecializationDescription"><path codeLine="95" d="M377.81,758.3494 C397.16,777.9594 417.0155,798.0887 433.5155,814.8087 " fill="none" id="Specialization-to-SpecializationDescription" style="stroke:#A52A2A;stroke-width:1.0;"/><polygon fill="#A52A2A" points="437.73,819.0794,434.2554,809.8638,434.218,815.5205,428.5612,815.483,437.73,819.0794" style="stroke:#A52A2A;stroke-width:1.0;"/><text fill="#000000" font-family="sans-serif" font-size="13" lengthAdjust="spacing" textLength="7" x="376.0297" y="779.4993">1</text><text fill="#000000" font-family="sans-serif" font-size="13" lengthAdjust="spacing" textLength="7" x="424.0413" y="808.2133">1</text></g><!--link OperationType to Specialization--><g id="link_OperationType_Specialization"><path codeLine="102" d="M346,607.4394 C346,632.5194 346,661.0994 346,686.0994 " fill="none" id="OperationType-to-Specialization" style="stroke:#A52A2A;stroke-width:1.0;"/><polygon fill="#A52A2A" points="346,692.0994,350,683.0994,346,687.0994,342,683.0994,346,692.0994" style="stroke:#A52A2A;stroke-width:1.0;"/><text fill="#000000" font-family="sans-serif" font-size="13" lengthAdjust="spacing" textLength="5" x="340.5547" y="628.3458">*</text><text fill="#000000" font-family="sans-serif" font-size="13" lengthAdjust="spacing" textLength="5" x="340.4844" y="681.1934">*</text></g><!--link User to OperationType--><g id="link_User_OperationType"><path codeLine="106" d="M693.41,422.8794 C635.05,448.1194 483.6071,513.6079 402.1371,548.8379 " fill="none" id="User-to-OperationType" style="stroke:#A52A2A;stroke-width:1.0;"/><polygon fill="#A52A2A" points="396.63,551.2194,406.4784,551.3186,401.2193,549.2348,403.3031,543.9758,396.63,551.2194" style="stroke:#A52A2A;stroke-width:1.0;"/><text fill="#000000" font-family="sans-serif" font-size="13" lengthAdjust="spacing" textLength="28" x="532" y="507.6045">adds</text><text fill="#000000" font-family="sans-serif" font-size="13" lengthAdjust="spacing" textLength="7" x="678.4199" y="421.3077">1</text><text fill="#000000" font-family="sans-serif" font-size="13" lengthAdjust="spacing" textLength="20" x="404.3982" y="544.7922">1..*</text></g><!--SRC=[rLHDRzim3BtxLn2v52YGORiMWO6qsI50cXPDjkkWI8pDLPOCILwN3ltle-Lys4wzjiS5S22PJoGVtvDpKWYIdDIOvFMwm91RvHEXjNtwKT1lCbcINFX7CgLmee326YjpPmk4hT0Usx5Io4UHuIhiD8936OJ9T0VXSw7i4-SyFwp9ODYL2DPn2rmJrXJuTAZ_OMOBGGPkhKAT9CdfcDJ2-sa8ZZPLmBcqPaNF29_FCF0d0VujQ8iBBdLjdK9tOxLrd5nbwAvrXLq8qycShOngODFx-yNyPhgUtoqZhXzV80_d9gVjrfe8c3fddvhODQ-Qb-t2Aw6KnYRsqkvuO99jJiAf_u0IopZDCeUP2EYJPCyBHjyykbDan4nY9ZGizmvYT39fTcawcJXhGvhk-Ruqs3Y16ca4ct4o-IwOBTnjVlAuqlG4-ShEqUVnVRsgW0UhCLQh2dGYa3N7Kf6oAiWSTpChWtN7xR9o7e-xDShSa2HnmjzpGkRHRlm27b37EZwdqWCPNr-za6D3N1p6qi3Zkz6N4OohSHeN1z83uKXu85PpPLMu4sC3rxGbsEsv75Umpic3jXb9u8NO-E243AXWiukTRbX9D0e4FmoWejHOC556y3sj4VFfBPJEIlHjuU_A_OnXNL_sGGiSSH7sBYzqZind_x141xbympu-KC4DgbcrRtmOItug0_qQI7Une4omlB0gaJsYwJdcYx46qF55VDKTGqVA7jqFmPS7zxnoG1zir2V-LeK3-uPGxR6Zwbt6mwhtSE-IlNlc3JMxu1bwwQXyNTKXINezClFnEAtvdpVo4NohbpYxtbU2Bsrlz9Sy-dhob_rC34rEDp-Ay-dJPSy1Ly0VwZfhyXS0]--></g></svg>