<?xml version="1.0" encoding="us-ascii" standalone="no"?><svg xmlns="http://www.w3.org/2000/svg" xmlns:xlink="http://www.w3.org/1999/xlink" contentStyleType="text/css" height="882px" preserveAspectRatio="none" style="width:973px;height:882px;background:#FFFFFF;" version="1.1" viewBox="0 0 973 882" width="973px" zoomAndPan="magnify"><defs/><g><text fill="#000000" font-family="sans-serif" font-size="14" font-weight="bold" lengthAdjust="spacing" textLength="100" x="429.5" y="24.5332">Domain Model</text><!--cluster User Aggregate--><g id="cluster_User Aggregate"><rect fill="none" height="343.5" rx="2.5" ry="2.5" style="stroke:#000000;stroke-width:1.5;" width="458" x="509" y="125.6094"/><text fill="#000000" font-family="sans-serif" font-size="14" font-weight="bold" lengthAdjust="spacing" textLength="110" x="683" y="142.1426">User Aggregate</text></g><!--cluster Operation Type Aggregate--><g id="cluster_Operation Type Aggregate"><rect fill="none" height="267.5" rx="2.5" ry="2.5" style="stroke:#000000;stroke-width:1.5;" width="470" x="7" y="355.6094"/><text fill="#000000" font-family="sans-serif" font-size="14" font-weight="bold" lengthAdjust="spacing" textLength="184" x="150" y="372.1426">Operation Type Aggregate</text></g><!--cluster Specialization Aggregate--><g id="cluster_Specialization Aggregate"><rect fill="none" height="220" rx="2.5" ry="2.5" style="stroke:#000000;stroke-width:1.5;" width="387" x="168" y="656.1094"/><text fill="#000000" font-family="sans-serif" font-size="14" font-weight="bold" lengthAdjust="spacing" textLength="174" x="274.5" y="672.6426">Specialization Aggregate</text></g><!--class User--><g id="elem_User"><rect codeLine="40" fill="#FFFACD" height="65.7969" id="User" rx="2.5" ry="2.5" style="stroke:#8B4513;stroke-width:0.5;" width="45" x="664.5" y="379.1094"/><text fill="#000000" font-family="sans-serif" font-size="12" font-style="italic" lengthAdjust="spacing" textLength="43" x="665.5" y="396.5664">&#171;entity&#187;</text><text fill="#000000" font-family="sans-serif" font-size="12" font-style="italic" lengthAdjust="spacing" textLength="35" x="669.5" y="411.6602">&#171;root&#187;</text><text fill="#000000" font-family="sans-serif" font-size="14" lengthAdjust="spacing" textLength="29" x="672.5" y="428.8301">User</text><line style="stroke:#8B4513;stroke-width:0.5;" x1="665.5" x2="708.5" y1="436.9063" y2="436.9063"/></g><!--entity Username--><g id="elem_Username"><rect fill="#FFFACD" height="41.2188" rx="2.5" ry="2.5" style="stroke:#8B4513;stroke-width:0.5;" width="117" x="552.5" y="218.6094"/><text fill="#000000" font-family="sans-serif" font-size="14" font-style="italic" lengthAdjust="spacing" textLength="97" x="562.5" y="236.1426">&#171;Value Object&#187;</text><text fill="#000000" font-family="sans-serif" font-size="14" lengthAdjust="spacing" textLength="64" x="579" y="253.752">Username</text></g><!--entity Email--><g id="elem_Email"><rect fill="#FFFACD" height="41.2188" rx="2.5" ry="2.5" style="stroke:#8B4513;stroke-width:0.5;" width="117" x="704.5" y="218.6094"/><text fill="#000000" font-family="sans-serif" font-size="14" font-style="italic" lengthAdjust="spacing" textLength="97" x="714.5" y="236.1426">&#171;Value Object&#187;</text><text fill="#000000" font-family="sans-serif" font-size="14" lengthAdjust="spacing" textLength="34" x="746" y="253.752">Email</text></g><!--class Role--><g id="elem_Role"><rect codeLine="46" fill="#FFFACD" height="138.75" id="Role" rx="2.5" ry="2.5" style="stroke:#8B4513;stroke-width:0.5;" width="86" x="857" y="169.6094"/><text fill="#000000" font-family="sans-serif" font-size="12" font-style="italic" lengthAdjust="spacing" textLength="84" x="858" y="187.0664">&#171;enumeration&#187;</text><text fill="#000000" font-family="sans-serif" font-size="14" lengthAdjust="spacing" textLength="29" x="885.5" y="204.2363">Role</text><line style="stroke:#8B4513;stroke-width:0.5;" x1="858" x2="942" y1="212.3125" y2="212.3125"/><text fill="#000000" font-family="sans-serif" font-size="14" lengthAdjust="spacing" textLength="39" x="863" y="230.8457">Admin</text><text fill="#000000" font-family="sans-serif" font-size="14" lengthAdjust="spacing" textLength="42" x="863" y="248.4551">Doctor</text><text fill="#000000" font-family="sans-serif" font-size="14" lengthAdjust="spacing" textLength="37" x="863" y="266.0645">Nurse</text><text fill="#000000" font-family="sans-serif" font-size="14" lengthAdjust="spacing" textLength="69" x="863" y="283.6738">Technician</text><text fill="#000000" font-family="sans-serif" font-size="14" lengthAdjust="spacing" textLength="44" x="863" y="301.2832">Patient</text></g><!--class OperationType--><g id="elem_OperationType"><rect codeLine="67" fill="#FFFACD" height="65.7969" id="OperationType" rx="2.5" ry="2.5" style="stroke:#8B4513;stroke-width:0.5;" width="101" x="288.5" y="541.1094"/><text fill="#000000" font-family="sans-serif" font-size="12" font-style="italic" lengthAdjust="spacing" textLength="43" x="317.5" y="558.5664">&#171;entity&#187;</text><text fill="#000000" font-family="sans-serif" font-size="12" font-style="italic" lengthAdjust="spacing" textLength="35" x="321.5" y="573.6602">&#171;root&#187;</text><text fill="#000000" font-family="sans-serif" font-size="14" lengthAdjust="spacing" textLength="95" x="291.5" y="590.8301">OperationType</text><line style="stroke:#8B4513;stroke-width:0.5;" x1="289.5" x2="388.5" y1="598.9063" y2="598.9063"/></g><!--entity OperationTypeID--><g id="elem_OperationTypeID"><rect fill="#FFFACD" height="41.2188" rx="2.5" ry="2.5" style="stroke:#8B4513;stroke-width:0.5;" width="128" x="23" y="391.6094"/><text fill="#000000" font-family="sans-serif" font-size="14" font-style="italic" lengthAdjust="spacing" textLength="97" x="38.5" y="409.1426">&#171;Value Object&#187;</text><text fill="#000000" font-family="sans-serif" font-size="14" lengthAdjust="spacing" textLength="108" x="33" y="426.752">OperationTypeID</text></g><!--entity OperationTypeName--><g id="elem_OperationTypeName"><rect fill="#FFFACD" height="41.2188" rx="2.5" ry="2.5" style="stroke:#8B4513;stroke-width:0.5;" width="151" x="186.5" y="391.6094"/><text fill="#000000" font-family="sans-serif" font-size="14" font-style="italic" lengthAdjust="spacing" textLength="97" x="213.5" y="409.1426">&#171;Value Object&#187;</text><text fill="#000000" font-family="sans-serif" font-size="14" lengthAdjust="spacing" textLength="131" x="196.5" y="426.752">OperationTypeName</text></g><!--entity EstimatedDuration--><g id="elem_EstimatedDuration"><rect fill="#FFFACD" height="41.2188" rx="2.5" ry="2.5" style="stroke:#8B4513;stroke-width:0.5;" width="136" x="117" y="553.6094"/><text fill="#000000" font-family="sans-serif" font-size="14" font-style="italic" lengthAdjust="spacing" textLength="97" x="136.5" y="571.1426">&#171;Value Object&#187;</text><text fill="#000000" font-family="sans-serif" font-size="14" lengthAdjust="spacing" textLength="116" x="127" y="588.752">EstimatedDuration</text></g><!--entity isActive--><g id="elem_isActive"><rect fill="#FFFACD" height="41.2188" rx="2.5" ry="2.5" style="stroke:#8B4513;stroke-width:0.5;" width="88" x="373" y="391.6094"/><text fill="#000000" font-family="sans-serif" font-size="14" font-style="italic" lengthAdjust="spacing" textLength="68" x="383" y="409.1426">&#171;Boolean&#187;</text><text fill="#000000" font-family="sans-serif" font-size="14" lengthAdjust="spacing" textLength="48" x="393" y="426.752">isActive</text></g><!--class Specialization--><g id="elem_Specialization"><rect codeLine="87" fill="#FFFACD" height="65.7969" id="Specialization" rx="2.5" ry="2.5" style="stroke:#8B4513;stroke-width:0.5;" width="92" x="293" y="692.1094"/><text fill="#000000" font-family="sans-serif" font-size="12" font-style="italic" lengthAdjust="spacing" textLength="43" x="317.5" y="709.5664">&#171;entity&#187;</text><text fill="#000000" font-family="sans-serif" font-size="12" font-style="italic" lengthAdjust="spacing" textLength="35" x="321.5" y="724.6602">&#171;root&#187;</text><text fill="#000000" font-family="sans-serif" font-size="14" lengthAdjust="spacing" textLength="86" x="296" y="741.8301">Specialization</text><line style="stroke:#8B4513;stroke-width:0.5;" x1="294" x2="384" y1="749.9063" y2="749.9063"/></g><!--entity SpecializationName--><g id="elem_SpecializationName"><rect fill="#FFFACD" height="41.2188" rx="2.5" ry="2.5" style="stroke:#8B4513;stroke-width:0.5;" width="142" x="184" y="819.1094"/><text fill="#000000" font-family="sans-serif" font-size="14" font-style="italic" lengthAdjust="spacing" textLength="97" x="206.5" y="836.6426">&#171;Value Object&#187;</text><text fill="#000000" font-family="sans-serif" font-size="14" lengthAdjust="spacing" textLength="122" x="194" y="854.252">SpecializationName</text></g><!--entity SpecializationDescription--><g id="elem_SpecializationDescription"><rect fill="#FFFACD" height="41.2188" rx="2.5" ry="2.5" style="stroke:#8B4513;stroke-width:0.5;" width="177" x="361.5" y="819.1094"/><text fill="#000000" font-family="sans-serif" font-size="14" font-style="italic" lengthAdjust="spacing" textLength="97" x="401.5" y="836.6426">&#171;Value Object&#187;</text><text fill="#000000" font-family="sans-serif" font-size="14" lengthAdjust="spacing" textLength="157" x="371.5" y="854.252">SpecializationDescription</text></g><g id="elem_GMN13"><path d="M278,44.6094 L278,70.9609 L756,70.9609 L756,54.6094 L746,44.6094 L278,44.6094 " fill="#FEFFDD" style="stroke:#181818;stroke-width:0.5;"/><path d="M746,44.6094 L746,54.6094 L756,54.6094 L746,44.6094 " fill="#FEFFDD" style="stroke:#181818;stroke-width:1.0;"/><text fill="#000000" font-family="sans-serif" font-size="13" lengthAdjust="spacing" textLength="457" x="284" y="63.1045">This logic is abstracted by the backend and is implemented in the IAM process</text></g><!--reverse link Username to User--><g id="link_Username_User"><path codeLine="56" d="M622.1565,265.2124 C635.0965,294.3324 657.11,343.8594 672.7,378.9294 " fill="none" id="Username-backto-User" style="stroke:#A52A2A;stroke-width:1.0;"/><polygon fill="#A52A2A" points="619.72,259.7294,619.7194,269.5782,621.7504,264.2986,627.0301,266.3296,619.72,259.7294" style="stroke:#A52A2A;stroke-width:1.0;"/><text fill="#000000" font-family="sans-serif" font-size="13" lengthAdjust="spacing" textLength="7" x="614.1881" y="281.2925">1</text><text fill="#000000" font-family="sans-serif" font-size="13" lengthAdjust="spacing" textLength="7" x="662.1956" y="368.3718">1</text></g><!--reverse link Email to User--><g id="link_Email_User"><path codeLine="57" d="M751.8435,265.2124 C738.9035,294.3324 716.89,343.8594 701.3,378.9294 " fill="none" id="Email-backto-User" style="stroke:#A52A2A;stroke-width:1.0;"/><polygon fill="#A52A2A" points="754.28,259.7294,746.9699,266.3296,752.2496,264.2986,754.2806,269.5782,754.28,259.7294" style="stroke:#A52A2A;stroke-width:1.0;"/><text fill="#000000" font-family="sans-serif" font-size="13" lengthAdjust="spacing" textLength="7" x="743.8431" y="281.2925">1</text><text fill="#000000" font-family="sans-serif" font-size="13" lengthAdjust="spacing" textLength="7" x="696.4263" y="368.3718">1</text></g><!--reverse link Role to User--><g id="link_Role_User"><path codeLine="58" d="M852.5542,295.9275 C846.8142,301.8775 845,303.3694 839,308.6094 C796.7,345.5794 740.48,380.2894 709.63,398.2894 " fill="none" id="Role-backto-User" style="stroke:#A52A2A;stroke-width:1.0;"/><polygon fill="#A52A2A" points="856.72,291.6094,847.5926,295.3094,853.2485,295.2078,853.3501,300.8638,856.72,291.6094" style="stroke:#A52A2A;stroke-width:1.0;"/><text fill="#000000" font-family="sans-serif" font-size="13" lengthAdjust="spacing" textLength="7" x="841.9721" y="296.5246">1</text><text fill="#000000" font-family="sans-serif" font-size="13" lengthAdjust="spacing" textLength="7" x="717.6323" y="389.1871">1</text></g><!--link GMN13 to User Aggregate--><g id="link_GMN13_User Aggregate"><path d="M517,70.6694 C517,80.5719 517,95.7412 517,112.9855 C517,115.141 517,117.3289 517,119.5431 C517,120.6501 517,121.7638 517,122.8831 C517,123.4428 517,124.004 517,124.5664 C517,124.8477 517,125.1292 517,125.4111 " fill="none" id="GMN13-User Aggregate" style="stroke:#A52A2A;stroke-width:1.0;stroke-dasharray:7.0,7.0;"/></g><!--reverse link OperationTypeID to OperationType--><g id="link_OperationTypeID_OperationType"><path codeLine="77" d="M110.7478,436.7755 C126.6978,452.1655 146,469.4094 169,485.1094 C189.93,499.3994 246.25,527.8894 288.37,548.5994 " fill="none" id="OperationTypeID-backto-OperationType" style="stroke:#A52A2A;stroke-width:1.0;"/><polygon fill="#A52A2A" points="106.43,432.6094,110.1292,441.7371,110.0281,436.0812,115.6841,435.9801,106.43,432.6094" style="stroke:#A52A2A;stroke-width:1.0;"/><text fill="#000000" font-family="sans-serif" font-size="13" lengthAdjust="spacing" textLength="7" x="104.1094" y="454.4959">1</text><text fill="#000000" font-family="sans-serif" font-size="13" lengthAdjust="spacing" textLength="7" x="273.4197" y="541.2134">1</text></g><!--reverse link OperationTypeName to OperationType--><g id="link_OperationTypeName_OperationType"><path codeLine="78" d="M274.0419,438.1358 C287.0119,465.0858 307.91,508.4994 323.48,540.8594 " fill="none" id="OperationTypeName-backto-OperationType" style="stroke:#A52A2A;stroke-width:1.0;"/><polygon fill="#A52A2A" points="271.44,432.7294,271.7386,442.5737,273.6083,437.2348,278.9472,439.1045,271.44,432.7294" style="stroke:#A52A2A;stroke-width:1.0;"/><text fill="#000000" font-family="sans-serif" font-size="13" lengthAdjust="spacing" textLength="7" x="266.1106" y="454.2925">1</text><text fill="#000000" font-family="sans-serif" font-size="13" lengthAdjust="spacing" textLength="7" x="312.7354" y="530.288">1</text></g><!--reverse link EstimatedDuration to OperationType--><g id="link_EstimatedDuration_OperationType"><path codeLine="79" d="M259.28,574.1094 C271,574.1094 276.72,574.1094 288.44,574.1094 " fill="none" id="EstimatedDuration-backto-OperationType" style="stroke:#A52A2A;stroke-width:1.0;"/><polygon fill="#A52A2A" points="253.28,574.1094,262.28,578.1094,258.28,574.1094,262.28,570.1094,253.28,574.1094" style="stroke:#A52A2A;stroke-width:1.0;"/><text fill="#000000" font-family="sans-serif" font-size="13" lengthAdjust="spacing" textLength="7" x="261.1309" y="570.7368">1</text><text fill="#000000" font-family="sans-serif" font-size="13" lengthAdjust="spacing" textLength="7" x="273.4999" y="570.4702">1</text></g><!--reverse link isActive to OperationType--><g id="link_isActive_OperationType"><path codeLine="80" d="M404.8105,438.1225 C391.6705,465.0725 370.5,508.4994 354.72,540.8594 " fill="none" id="isActive-backto-OperationType" style="stroke:#A52A2A;stroke-width:1.0;"/><polygon fill="#A52A2A" points="407.44,432.7294,399.9003,439.066,405.2487,437.2236,407.0911,442.5721,407.44,432.7294" style="stroke:#A52A2A;stroke-width:1.0;"/><text fill="#000000" font-family="sans-serif" font-size="13" lengthAdjust="spacing" textLength="7" x="396.7669" y="454.2925">1</text><text fill="#000000" font-family="sans-serif" font-size="13" lengthAdjust="spacing" textLength="7" x="350.1258" y="530.288">1</text></g><!--link Specialization to SpecializationName--><g id="link_Specialization_SpecializationName"><path codeLine="94" d="M314.93,758.3494 C300.29,777.9594 285.6589,797.5511 273.1789,814.2711 " fill="none" id="Specialization-to-SpecializationName" style="stroke:#A52A2A;stroke-width:1.0;"/><polygon fill="#A52A2A" points="269.59,819.0794,278.1789,814.2596,272.5808,815.0725,271.7679,809.4743,269.59,819.0794" style="stroke:#A52A2A;stroke-width:1.0;"/><text fill="#000000" font-family="sans-serif" font-size="13" lengthAdjust="spacing" textLength="7" x="302.8468" y="779.4993">1</text><text fill="#000000" font-family="sans-serif" font-size="13" lengthAdjust="spacing" textLength="7" x="265.8477" y="808.2133">1</text></g><!--link Specialization to SpecializationDescription--><g id="link_Specialization_SpecializationDescription"><path codeLine="95" d="M370.81,758.3494 C390.16,777.9594 410.0155,798.0887 426.5155,814.8087 " fill="none" id="Specialization-to-SpecializationDescription" style="stroke:#A52A2A;stroke-width:1.0;"/><polygon fill="#A52A2A" points="430.73,819.0794,427.2554,809.8638,427.218,815.5205,421.5612,815.483,430.73,819.0794" style="stroke:#A52A2A;stroke-width:1.0;"/><text fill="#000000" font-family="sans-serif" font-size="13" lengthAdjust="spacing" textLength="7" x="369.0297" y="779.4993">1</text><text fill="#000000" font-family="sans-serif" font-size="13" lengthAdjust="spacing" textLength="7" x="417.0413" y="808.2133">1</text></g><!--link OperationType to Specialization--><g id="link_OperationType_Specialization"><path codeLine="102" d="M339,607.4394 C339,632.5194 339,661.0994 339,686.0994 " fill="none" id="OperationType-to-Specialization" style="stroke:#A52A2A;stroke-width:1.0;"/><polygon fill="#A52A2A" points="339,692.0994,343,683.0994,339,687.0994,335,683.0994,339,692.0994" style="stroke:#A52A2A;stroke-width:1.0;"/><text fill="#000000" font-family="sans-serif" font-size="13" lengthAdjust="spacing" textLength="5" x="333.5547" y="628.3458">*</text><text fill="#000000" font-family="sans-serif" font-size="13" lengthAdjust="spacing" textLength="5" x="333.4844" y="681.1934">*</text></g><!--link User to OperationType--><g id="link_User_OperationType"><path codeLine="106" d="M664.43,423.4794 C609.23,448.8594 471.7614,512.073 394.9814,547.373 " fill="none" id="User-to-OperationType" style="stroke:#A52A2A;stroke-width:1.0;"/><polygon fill="#A52A2A" points="389.53,549.8794,399.3781,549.7542,394.0729,547.7908,396.0363,542.4856,389.53,549.8794" style="stroke:#A52A2A;stroke-width:1.0;"/><text fill="#000000" font-family="sans-serif" font-size="13" lengthAdjust="spacing" textLength="28" x="514" y="507.6045">adds</text><text fill="#000000" font-family="sans-serif" font-size="13" lengthAdjust="spacing" textLength="7" x="649.4461" y="422.0915">1</text><text fill="#000000" font-family="sans-serif" font-size="13" lengthAdjust="spacing" textLength="20" x="397.6637" y="543.0809">1..*</text></g><!--SRC=[rLHDRzim3BtxLn2v52YGOhiMWG6dwI50cXPDjkkWo8ojLHODILwN3ltle-Lys4wzjiS5S22PJoJVUvHpbI98PQN6AA_N1VgSKXS9hUdvHw5-AvD5qOLxKgOKLXHGa26PMoeGja8xRCTA8Pz4XYk_qmWMfHScqns4oqLApvpp_B1M1lskH23BBN1DM2lFfttz3pCgX39mHodgA8fEnwGMpYNUMxMfFCubcPLwGVXoXe4_4V1leRQuu59JiYdQ6z9aENcQePtg2hiGffDPgapQm9A7XyNy9bdFxvS1ruylaCMvoTLsIoO04clfkObDUTMyR1TUYJJLsCHUsnqFADdc96pw7r1Y6vCiivW9ZowAzhnWzCsXFKL6p2HaGiDsxo149vDc5yUJYINoSRpd-zfWWm8rqWWUnidaks2sSB_voNB5yGboovEZp-FxUbK1ZwGnLAiAjC8hCiTIWN9QA7FSpKXwiiVjih8EZxirojmegSG9_y09cKUxyGjuH1tgk5oL3fHnzTNpEJR4nK6M1XxUZRwEO5oDux0ua1u81y83iPehkyAT6F9SaqgWxRaTrx3EbGDDcPB02x5ntWhfCONDBdIwOIVHf23uOO0gIeq54sK4tzCQCK_keBGaqRMDlo_t6iEwlko38t341TY7Pg5pP3xxnqXqaCjtniTvLN23wQpQDpwCLIwHNlsgqqs9bHPc7xrOg4omix0gaST3gvUGAiGQG6Samgkk0XqNUqm_1LyU1kUD0_emGNtExrKu46y8rUDrDBpBUDZm7kv3ZdVFl6Da5pn39wqgtpPqo99UZynyF8vh_kUDV0RVwYLer_j0y7tjIN_9qjVAN_OpCJGwNVfWpjNLPMy2he6_qNNMw2y0]--></g></svg>