<?xml version="1.0" encoding="us-ascii" standalone="no"?><svg xmlns="http://www.w3.org/2000/svg" xmlns:xlink="http://www.w3.org/1999/xlink" contentStyleType="text/css" height="1502px" preserveAspectRatio="none" style="width:1922px;height:1502px;background:#FFFFFF;" version="1.1" viewBox="0 0 1922 1502" width="1922px" zoomAndPan="magnify"><defs/><g><text fill="#000000" font-family="sans-serif" font-size="14" font-weight="bold" lengthAdjust="spacing" textLength="184" x="868" y="29.5332">Sequence Diagram PART 1</text><rect fill="#FFFFFF" height="1279.8594" style="stroke:#181818;stroke-width:1.0;" width="10" x="25" y="131.2188"/><rect fill="#FFFFFF" height="605.2891" style="stroke:#181818;stroke-width:1.0;" width="10" x="265" y="153.5703"/><rect fill="#FFFFFF" height="621.8672" style="stroke:#181818;stroke-width:1.0;" width="10" x="265" y="789.2109"/><rect fill="#FFFFFF" height="528.2344" style="stroke:#181818;stroke-width:1.0;" width="10" x="507" y="183.9219"/><rect fill="#FFFFFF" height="552.1641" style="stroke:#181818;stroke-width:1.0;" width="10" x="507" y="819.5625"/><rect fill="#FFFFFF" height="346.125" style="stroke:#181818;stroke-width:1.0;" width="10" x="749" y="335.6797"/><rect fill="#FFFFFF" height="491.4609" style="stroke:#181818;stroke-width:1.0;" width="10" x="749" y="849.9141"/><rect fill="#FFFFFF" height="30.3516" style="stroke:#181818;stroke-width:1.0;" width="10" x="956" y="905.6172"/><rect fill="#FFFFFF" height="30.3516" style="stroke:#181818;stroke-width:1.0;" width="10" x="1126.5" y="1008.0234"/><rect fill="#FFFFFF" height="30.3516" style="stroke:#181818;stroke-width:1.0;" width="10" x="1288" y="1068.7266"/><rect fill="#FFFFFF" height="30.3516" style="stroke:#181818;stroke-width:1.0;" width="10" x="1408" y="214.2734"/><rect fill="#FFFFFF" height="30.3516" style="stroke:#181818;stroke-width:1.0;" width="10" x="1408" y="274.9766"/><rect fill="#FFFFFF" height="30.3516" style="stroke:#181818;stroke-width:1.0;" width="10" x="1408" y="366.0313"/><rect fill="#FFFFFF" height="30.3516" style="stroke:#181818;stroke-width:1.0;" width="10" x="1509.5" y="487.4375"/><rect fill="#FFFFFF" height="30.3516" style="stroke:#181818;stroke-width:1.0;" width="10" x="1629" y="548.1406"/><rect fill="#FFFFFF" height="30.3516" style="stroke:#181818;stroke-width:1.0;" width="10" x="1629" y="1145.2656"/><rect fill="#FFFFFF" height="30.3516" style="stroke:#181818;stroke-width:1.0;" width="10" x="1629" y="1266.6719"/><rect fill="#FFFFFF" height="30.3516" style="stroke:#181818;stroke-width:1.0;" width="10" x="1723.5" y="426.7344"/><rect fill="#FFFFFF" height="30.3516" style="stroke:#181818;stroke-width:1.0;" width="10" x="1784" y="1205.9688"/><rect fill="#FFFFFF" height="32.6094" style="stroke:#181818;stroke-width:1.0;" width="10" x="1867" y="618.8438"/><rect fill="none" height="447.1094" style="stroke:#000000;stroke-width:1.5;" width="1196.5" x="641.5" y="864.9141"/><rect fill="none" height="354.0547" style="stroke:#000000;stroke-width:1.5;" width="1176.5" x="651.5" y="950.9688"/><line style="stroke:#181818;stroke-width:0.5;stroke-dasharray:5.0,5.0;" x1="30" x2="30" y1="121.2188" y2="1420.0781"/><line style="stroke:#181818;stroke-width:0.5;stroke-dasharray:5.0,5.0;" x1="270" x2="270" y1="121.2188" y2="1420.0781"/><line style="stroke:#181818;stroke-width:0.5;stroke-dasharray:5.0,5.0;" x1="512" x2="512" y1="121.2188" y2="1420.0781"/><line style="stroke:#181818;stroke-width:0.5;stroke-dasharray:5.0,5.0;" x1="753.5" x2="753.5" y1="121.2188" y2="1420.0781"/><line style="stroke:#181818;stroke-width:0.5;stroke-dasharray:5.0,5.0;" x1="961" x2="961" y1="121.2188" y2="1420.0781"/><line style="stroke:#181818;stroke-width:0.5;stroke-dasharray:5.0,5.0;" x1="1131" x2="1131" y1="121.2188" y2="1420.0781"/><line style="stroke:#181818;stroke-width:0.5;stroke-dasharray:5.0,5.0;" x1="1293" x2="1293" y1="121.2188" y2="1420.0781"/><line style="stroke:#181818;stroke-width:0.5;stroke-dasharray:5.0,5.0;" x1="1413" x2="1413" y1="121.2188" y2="1420.0781"/><line style="stroke:#181818;stroke-width:0.5;stroke-dasharray:5.0,5.0;" x1="1514" x2="1514" y1="121.2188" y2="1420.0781"/><line style="stroke:#181818;stroke-width:0.5;stroke-dasharray:5.0,5.0;" x1="1634" x2="1634" y1="121.2188" y2="1420.0781"/><line style="stroke:#181818;stroke-width:0.5;stroke-dasharray:5.0,5.0;" x1="1728" x2="1728" y1="121.2188" y2="1420.0781"/><line style="stroke:#181818;stroke-width:0.5;stroke-dasharray:5.0,5.0;" x1="1789" x2="1789" y1="121.2188" y2="1420.0781"/><line style="stroke:#181818;stroke-width:0.5;stroke-dasharray:5.0,5.0;" x1="1872" x2="1872" y1="617.7969" y2="1420.0781"/><text fill="#000000" font-family="sans-serif" font-size="14" lengthAdjust="spacing" textLength="44" x="5" y="118.1426">Patient</text><ellipse cx="30" cy="52.1094" fill="#E2E2F0" rx="8" ry="8" style="stroke:#181818;stroke-width:0.5;"/><path d="M30,60.1094 L30,87.1094 M17,68.1094 L43,68.1094 M30,87.1094 L17,102.1094 M30,87.1094 L43,102.1094 " fill="none" style="stroke:#181818;stroke-width:0.5;"/><text fill="#000000" font-family="sans-serif" font-size="14" lengthAdjust="spacing" textLength="44" x="5" y="1433.6113">Patient</text><ellipse cx="30" cy="1445.1875" fill="#E2E2F0" rx="8" ry="8" style="stroke:#181818;stroke-width:0.5;"/><path d="M30,1453.1875 L30,1480.1875 M17,1461.1875 L43,1461.1875 M30,1480.1875 L17,1495.1875 M30,1480.1875 L43,1495.1875 " fill="none" style="stroke:#181818;stroke-width:0.5;"/><rect fill="#E2E2F0" height="31.6094" rx="2.5" ry="2.5" style="stroke:#181818;stroke-width:0.5;" width="150" x="195" y="88.6094"/><text fill="#000000" font-family="sans-serif" font-size="14" lengthAdjust="spacing" textLength="136" x="202" y="110.1426">ChangePatientDataUI</text><rect fill="#E2E2F0" height="31.6094" rx="2.5" ry="2.5" style="stroke:#181818;stroke-width:0.5;" width="150" x="195" y="1419.0781"/><text fill="#000000" font-family="sans-serif" font-size="14" lengthAdjust="spacing" textLength="136" x="202" y="1440.6113">ChangePatientDataUI</text><rect fill="#E2E2F0" height="31.6094" rx="2.5" ry="2.5" style="stroke:#181818;stroke-width:0.5;" width="200" x="412" y="88.6094"/><text fill="#000000" font-family="sans-serif" font-size="14" lengthAdjust="spacing" textLength="186" x="419" y="110.1426">ChangePatientDataController</text><rect fill="#E2E2F0" height="31.6094" rx="2.5" ry="2.5" style="stroke:#181818;stroke-width:0.5;" width="200" x="412" y="1419.0781"/><text fill="#000000" font-family="sans-serif" font-size="14" lengthAdjust="spacing" textLength="186" x="419" y="1440.6113">ChangePatientDataController</text><rect fill="#E2E2F0" height="31.6094" rx="2.5" ry="2.5" style="stroke:#181818;stroke-width:0.5;" width="185" x="661.5" y="88.6094"/><text fill="#000000" font-family="sans-serif" font-size="14" lengthAdjust="spacing" textLength="171" x="668.5" y="110.1426">ChangePatientDataService</text><rect fill="#E2E2F0" height="31.6094" rx="2.5" ry="2.5" style="stroke:#181818;stroke-width:0.5;" width="185" x="661.5" y="1419.0781"/><text fill="#000000" font-family="sans-serif" font-size="14" lengthAdjust="spacing" textLength="171" x="668.5" y="1440.6113">ChangePatientDataService</text><rect fill="#E2E2F0" height="31.6094" rx="2.5" ry="2.5" style="stroke:#181818;stroke-width:0.5;" width="148" x="887" y="88.6094"/><text fill="#000000" font-family="sans-serif" font-size="14" lengthAdjust="spacing" textLength="134" x="894" y="110.1426">SensitiveDataService</text><rect fill="#E2E2F0" height="31.6094" rx="2.5" ry="2.5" style="stroke:#181818;stroke-width:0.5;" width="148" x="887" y="1419.0781"/><text fill="#000000" font-family="sans-serif" font-size="14" lengthAdjust="spacing" textLength="134" x="894" y="1440.6113">SensitiveDataService</text><rect fill="#E2E2F0" height="31.6094" rx="2.5" ry="2.5" style="stroke:#181818;stroke-width:0.5;" width="173" x="1045" y="88.6094"/><text fill="#000000" font-family="sans-serif" font-size="14" lengthAdjust="spacing" textLength="159" x="1052" y="110.1426">PendingRequestsService</text><rect fill="#E2E2F0" height="31.6094" rx="2.5" ry="2.5" style="stroke:#181818;stroke-width:0.5;" width="173" x="1045" y="1419.0781"/><text fill="#000000" font-family="sans-serif" font-size="14" lengthAdjust="spacing" textLength="159" x="1052" y="1440.6113">PendingRequestsService</text><rect fill="#E2E2F0" height="31.6094" rx="2.5" ry="2.5" style="stroke:#181818;stroke-width:0.5;" width="130" x="1228" y="88.6094"/><text fill="#000000" font-family="sans-serif" font-size="14" lengthAdjust="spacing" textLength="116" x="1235" y="110.1426">NotificationService</text><rect fill="#E2E2F0" height="31.6094" rx="2.5" ry="2.5" style="stroke:#181818;stroke-width:0.5;" width="130" x="1228" y="1419.0781"/><text fill="#000000" font-family="sans-serif" font-size="14" lengthAdjust="spacing" textLength="116" x="1235" y="1440.6113">NotificationService</text><rect fill="#E2E2F0" height="31.6094" rx="2.5" ry="2.5" style="stroke:#181818;stroke-width:0.5;" width="90" x="1368" y="88.6094"/><text fill="#000000" font-family="sans-serif" font-size="14" lengthAdjust="spacing" textLength="76" x="1375" y="110.1426">AuthService</text><rect fill="#E2E2F0" height="31.6094" rx="2.5" ry="2.5" style="stroke:#181818;stroke-width:0.5;" width="90" x="1368" y="1419.0781"/><text fill="#000000" font-family="sans-serif" font-size="14" lengthAdjust="spacing" textLength="76" x="1375" y="1440.6113">AuthService</text><rect fill="#E2E2F0" height="31.6094" rx="2.5" ry="2.5" style="stroke:#181818;stroke-width:0.5;" width="93" x="1468" y="88.6094"/><text fill="#000000" font-family="sans-serif" font-size="14" lengthAdjust="spacing" textLength="79" x="1475" y="110.1426">Repositories</text><rect fill="#E2E2F0" height="31.6094" rx="2.5" ry="2.5" style="stroke:#181818;stroke-width:0.5;" width="93" x="1468" y="1419.0781"/><text fill="#000000" font-family="sans-serif" font-size="14" lengthAdjust="spacing" textLength="79" x="1475" y="1440.6113">Repositories</text><rect fill="#E2E2F0" height="31.6094" rx="2.5" ry="2.5" style="stroke:#181818;stroke-width:0.5;" width="126" x="1571" y="88.6094"/><text fill="#000000" font-family="sans-serif" font-size="14" lengthAdjust="spacing" textLength="112" x="1578" y="110.1426">PatientRepository</text><rect fill="#E2E2F0" height="31.6094" rx="2.5" ry="2.5" style="stroke:#181818;stroke-width:0.5;" width="126" x="1571" y="1419.0781"/><text fill="#000000" font-family="sans-serif" font-size="14" lengthAdjust="spacing" textLength="112" x="1578" y="1440.6113">PatientRepository</text><rect fill="#E2E2F0" height="31.6094" rx="2.5" ry="2.5" style="stroke:#181818;stroke-width:0.5;" width="43" x="1707" y="88.6094"/><text fill="#000000" font-family="sans-serif" font-size="14" lengthAdjust="spacing" textLength="29" x="1714" y="110.1426">User</text><rect fill="#E2E2F0" height="31.6094" rx="2.5" ry="2.5" style="stroke:#181818;stroke-width:0.5;" width="43" x="1707" y="1419.0781"/><text fill="#000000" font-family="sans-serif" font-size="14" lengthAdjust="spacing" textLength="29" x="1714" y="1440.6113">User</text><rect fill="#E2E2F0" height="31.6094" rx="2.5" ry="2.5" style="stroke:#181818;stroke-width:0.5;" width="58" x="1760" y="88.6094"/><text fill="#000000" font-family="sans-serif" font-size="14" lengthAdjust="spacing" textLength="44" x="1767" y="110.1426">Patient</text><rect fill="#E2E2F0" height="31.6094" rx="2.5" ry="2.5" style="stroke:#181818;stroke-width:0.5;" width="58" x="1760" y="1419.0781"/><text fill="#000000" font-family="sans-serif" font-size="14" lengthAdjust="spacing" textLength="44" x="1767" y="1440.6113">Patient</text><rect fill="#E2E2F0" height="31.6094" rx="2.5" ry="2.5" style="stroke:#181818;stroke-width:0.5;" width="88" x="1828" y="1419.0781"/><text fill="#000000" font-family="sans-serif" font-size="14" lengthAdjust="spacing" textLength="74" x="1835" y="1440.6113">PatientDTO</text><rect fill="#FFFFFF" height="1279.8594" style="stroke:#181818;stroke-width:1.0;" width="10" x="25" y="131.2188"/><rect fill="#FFFFFF" height="605.2891" style="stroke:#181818;stroke-width:1.0;" width="10" x="265" y="153.5703"/><rect fill="#FFFFFF" height="621.8672" style="stroke:#181818;stroke-width:1.0;" width="10" x="265" y="789.2109"/><rect fill="#FFFFFF" height="528.2344" style="stroke:#181818;stroke-width:1.0;" width="10" x="507" y="183.9219"/><rect fill="#FFFFFF" height="552.1641" style="stroke:#181818;stroke-width:1.0;" width="10" x="507" y="819.5625"/><rect fill="#FFFFFF" height="346.125" style="stroke:#181818;stroke-width:1.0;" width="10" x="749" y="335.6797"/><rect fill="#FFFFFF" height="491.4609" style="stroke:#181818;stroke-width:1.0;" width="10" x="749" y="849.9141"/><rect fill="#FFFFFF" height="30.3516" style="stroke:#181818;stroke-width:1.0;" width="10" x="956" y="905.6172"/><rect fill="#FFFFFF" height="30.3516" style="stroke:#181818;stroke-width:1.0;" width="10" x="1126.5" y="1008.0234"/><rect fill="#FFFFFF" height="30.3516" style="stroke:#181818;stroke-width:1.0;" width="10" x="1288" y="1068.7266"/><rect fill="#FFFFFF" height="30.3516" style="stroke:#181818;stroke-width:1.0;" width="10" x="1408" y="214.2734"/><rect fill="#FFFFFF" height="30.3516" style="stroke:#181818;stroke-width:1.0;" width="10" x="1408" y="274.9766"/><rect fill="#FFFFFF" height="30.3516" style="stroke:#181818;stroke-width:1.0;" width="10" x="1408" y="366.0313"/><rect fill="#FFFFFF" height="30.3516" style="stroke:#181818;stroke-width:1.0;" width="10" x="1509.5" y="487.4375"/><rect fill="#FFFFFF" height="30.3516" style="stroke:#181818;stroke-width:1.0;" width="10" x="1629" y="548.1406"/><rect fill="#FFFFFF" height="30.3516" style="stroke:#181818;stroke-width:1.0;" width="10" x="1629" y="1145.2656"/><rect fill="#FFFFFF" height="30.3516" style="stroke:#181818;stroke-width:1.0;" width="10" x="1629" y="1266.6719"/><rect fill="#FFFFFF" height="30.3516" style="stroke:#181818;stroke-width:1.0;" width="10" x="1723.5" y="426.7344"/><rect fill="#FFFFFF" height="30.3516" style="stroke:#181818;stroke-width:1.0;" width="10" x="1784" y="1205.9688"/><rect fill="#FFFFFF" height="32.6094" style="stroke:#181818;stroke-width:1.0;" width="10" x="1867" y="618.8438"/><polygon fill="#A52A2A" points="253,149.5703,263,153.5703,253,157.5703,257,153.5703" style="stroke:#A52A2A;stroke-width:1.0;"/><line style="stroke:#A52A2A;stroke-width:1.0;" x1="35" x2="259" y1="153.5703" y2="153.5703"/><text fill="#000000" font-family="sans-serif" font-size="13" lengthAdjust="spacing" textLength="189" x="42" y="148.7139">Request to change the user data</text><polygon fill="#A52A2A" points="495,179.9219,505,183.9219,495,187.9219,499,183.9219" style="stroke:#A52A2A;stroke-width:1.0;"/><line style="stroke:#A52A2A;stroke-width:1.0;" x1="275" x2="501" y1="183.9219" y2="183.9219"/><text fill="#000000" font-family="sans-serif" font-size="13" lengthAdjust="spacing" textLength="127" x="282" y="179.0654">canChangeUserData()</text><polygon fill="#A52A2A" points="1396,210.2734,1406,214.2734,1396,218.2734,1400,214.2734" style="stroke:#A52A2A;stroke-width:1.0;"/><line style="stroke:#A52A2A;stroke-width:1.0;" x1="517" x2="1402" y1="214.2734" y2="214.2734"/><text fill="#000000" font-family="sans-serif" font-size="13" lengthAdjust="spacing" textLength="234" x="524" y="209.417">ensureAuthenticatedUserHasAnyOf(role)</text><polygon fill="#A52A2A" points="528,240.625,518,244.625,528,248.625,524,244.625" style="stroke:#A52A2A;stroke-width:1.0;"/><line style="stroke:#A52A2A;stroke-width:1.0;stroke-dasharray:2.0,2.0;" x1="522" x2="1412" y1="244.625" y2="244.625"/><text fill="#000000" font-family="sans-serif" font-size="13" lengthAdjust="spacing" textLength="22" x="534" y="239.7686">true</text><polygon fill="#A52A2A" points="1396,270.9766,1406,274.9766,1396,278.9766,1400,274.9766" style="stroke:#A52A2A;stroke-width:1.0;"/><line style="stroke:#A52A2A;stroke-width:1.0;" x1="517" x2="1402" y1="274.9766" y2="274.9766"/><text fill="#000000" font-family="sans-serif" font-size="13" lengthAdjust="spacing" textLength="234" x="524" y="270.1201">ensureAuthenticatedUserHasAnyOf(role)</text><polygon fill="#A52A2A" points="528,301.3281,518,305.3281,528,309.3281,524,305.3281" style="stroke:#A52A2A;stroke-width:1.0;"/><line style="stroke:#A52A2A;stroke-width:1.0;stroke-dasharray:2.0,2.0;" x1="522" x2="1412" y1="305.3281" y2="305.3281"/><text fill="#000000" font-family="sans-serif" font-size="13" lengthAdjust="spacing" textLength="22" x="534" y="300.4717">true</text><polygon fill="#A52A2A" points="737,331.6797,747,335.6797,737,339.6797,741,335.6797" style="stroke:#A52A2A;stroke-width:1.0;"/><line style="stroke:#A52A2A;stroke-width:1.0;" x1="517" x2="743" y1="335.6797" y2="335.6797"/><text fill="#000000" font-family="sans-serif" font-size="13" lengthAdjust="spacing" textLength="110" x="524" y="330.8232">getPatientByUser()</text><polygon fill="#A52A2A" points="1396,362.0313,1406,366.0313,1396,370.0313,1400,366.0313" style="stroke:#A52A2A;stroke-width:1.0;"/><line style="stroke:#A52A2A;stroke-width:1.0;" x1="759" x2="1402" y1="366.0313" y2="366.0313"/><text fill="#000000" font-family="sans-serif" font-size="13" lengthAdjust="spacing" textLength="95" x="766" y="361.1748">getLoggedUser()</text><polygon fill="#A52A2A" points="770,392.3828,760,396.3828,770,400.3828,766,396.3828" style="stroke:#A52A2A;stroke-width:1.0;"/><line style="stroke:#A52A2A;stroke-width:1.0;stroke-dasharray:2.0,2.0;" x1="764" x2="1412" y1="396.3828" y2="396.3828"/><text fill="#000000" font-family="sans-serif" font-size="13" lengthAdjust="spacing" textLength="25" x="776" y="391.5264">user</text><polygon fill="#A52A2A" points="1711.5,422.7344,1721.5,426.7344,1711.5,430.7344,1715.5,426.7344" style="stroke:#A52A2A;stroke-width:1.0;"/><line style="stroke:#A52A2A;stroke-width:1.0;" x1="759" x2="1717.5" y1="426.7344" y2="426.7344"/><text fill="#000000" font-family="sans-serif" font-size="13" lengthAdjust="spacing" textLength="39" x="766" y="421.8779">email()</text><polygon fill="#A52A2A" points="770,453.0859,760,457.0859,770,461.0859,766,457.0859" style="stroke:#A52A2A;stroke-width:1.0;"/><line style="stroke:#A52A2A;stroke-width:1.0;stroke-dasharray:2.0,2.0;" x1="764" x2="1727.5" y1="457.0859" y2="457.0859"/><text fill="#000000" font-family="sans-serif" font-size="13" lengthAdjust="spacing" textLength="31" x="776" y="452.2295">email</text><polygon fill="#A52A2A" points="1497.5,483.4375,1507.5,487.4375,1497.5,491.4375,1501.5,487.4375" style="stroke:#A52A2A;stroke-width:1.0;"/><line style="stroke:#A52A2A;stroke-width:1.0;" x1="759" x2="1503.5" y1="487.4375" y2="487.4375"/><text fill="#000000" font-family="sans-serif" font-size="13" lengthAdjust="spacing" textLength="129" x="766" y="482.5811">getPatientRepository()</text><polygon fill="#A52A2A" points="770,513.7891,760,517.7891,770,521.7891,766,517.7891" style="stroke:#A52A2A;stroke-width:1.0;"/><line style="stroke:#A52A2A;stroke-width:1.0;" x1="764" x2="1513.5" y1="517.7891" y2="517.7891"/><text fill="#000000" font-family="sans-serif" font-size="13" lengthAdjust="spacing" textLength="101" x="776" y="512.9326">patientRepository</text><polygon fill="#A52A2A" points="1617,544.1406,1627,548.1406,1617,552.1406,1621,548.1406" style="stroke:#A52A2A;stroke-width:1.0;"/><line style="stroke:#A52A2A;stroke-width:1.0;" x1="759" x2="1623" y1="548.1406" y2="548.1406"/><text fill="#000000" font-family="sans-serif" font-size="13" lengthAdjust="spacing" textLength="108" x="766" y="543.2842">findByEmail(email)</text><polygon fill="#A52A2A" points="770,574.4922,760,578.4922,770,582.4922,766,578.4922" style="stroke:#A52A2A;stroke-width:1.0;"/><line style="stroke:#A52A2A;stroke-width:1.0;stroke-dasharray:2.0,2.0;" x1="764" x2="1633" y1="578.4922" y2="578.4922"/><text fill="#000000" font-family="sans-serif" font-size="13" lengthAdjust="spacing" textLength="39" x="776" y="573.6357">patient</text><polygon fill="#A52A2A" points="1816,604.8438,1826,608.8438,1816,612.8438,1820,608.8438" style="stroke:#A52A2A;stroke-width:1.0;"/><line style="stroke:#A52A2A;stroke-width:1.0;" x1="759" x2="1822" y1="608.8438" y2="608.8438"/><text fill="#000000" font-family="sans-serif" font-size="13" lengthAdjust="spacing" textLength="141" x="766" y="603.9873">new PatientDTO(patient)</text><rect fill="#E2E2F0" height="31.6094" rx="2.5" ry="2.5" style="stroke:#181818;stroke-width:0.5;" width="88" x="1828" y="586.4922"/><text fill="#000000" font-family="sans-serif" font-size="14" lengthAdjust="spacing" textLength="74" x="1835" y="608.0254">PatientDTO</text><polygon fill="#A52A2A" points="770,647.4531,760,651.4531,770,655.4531,766,651.4531" style="stroke:#A52A2A;stroke-width:1.0;"/><line style="stroke:#A52A2A;stroke-width:1.0;stroke-dasharray:2.0,2.0;" x1="764" x2="1871" y1="651.4531" y2="651.4531"/><text fill="#000000" font-family="sans-serif" font-size="13" lengthAdjust="spacing" textLength="65" x="776" y="646.5967">patientDTO</text><polygon fill="#A52A2A" points="528,677.8047,518,681.8047,528,685.8047,524,681.8047" style="stroke:#A52A2A;stroke-width:1.0;"/><line style="stroke:#A52A2A;stroke-width:1.0;stroke-dasharray:2.0,2.0;" x1="522" x2="753" y1="681.8047" y2="681.8047"/><text fill="#000000" font-family="sans-serif" font-size="13" lengthAdjust="spacing" textLength="65" x="534" y="676.9482">patientDTO</text><polygon fill="#A52A2A" points="286,708.1563,276,712.1563,286,716.1563,282,712.1563" style="stroke:#A52A2A;stroke-width:1.0;"/><line style="stroke:#A52A2A;stroke-width:1.0;" x1="280" x2="511" y1="712.1563" y2="712.1563"/><text fill="#000000" font-family="sans-serif" font-size="13" lengthAdjust="spacing" textLength="65" x="292" y="707.2998">patientDTO</text><polygon fill="#A52A2A" points="46,754.8594,36,758.8594,46,762.8594,42,758.8594" style="stroke:#A52A2A;stroke-width:1.0;"/><line style="stroke:#A52A2A;stroke-width:1.0;stroke-dasharray:2.0,2.0;" x1="40" x2="269" y1="758.8594" y2="758.8594"/><text fill="#000000" font-family="sans-serif" font-size="13" lengthAdjust="spacing" textLength="202" x="52" y="737.6514">Shows patientDTO and asks which</text><text fill="#000000" font-family="sans-serif" font-size="13" lengthAdjust="spacing" textLength="171" x="60" y="754.0029">attributes he wants to change</text><polygon fill="#A52A2A" points="253,785.2109,263,789.2109,253,793.2109,257,789.2109" style="stroke:#A52A2A;stroke-width:1.0;"/><line style="stroke:#A52A2A;stroke-width:1.0;" x1="35" x2="259" y1="789.2109" y2="789.2109"/><text fill="#000000" font-family="sans-serif" font-size="13" lengthAdjust="spacing" textLength="174" x="42" y="784.3545">Request to change some data</text><polygon fill="#A52A2A" points="495,815.5625,505,819.5625,495,823.5625,499,819.5625" style="stroke:#A52A2A;stroke-width:1.0;"/><line style="stroke:#A52A2A;stroke-width:1.0;" x1="275" x2="501" y1="819.5625" y2="819.5625"/><text fill="#000000" font-family="sans-serif" font-size="13" lengthAdjust="spacing" textLength="213" x="282" y="814.7061">changePatientData(patientAttributes)</text><polygon fill="#A52A2A" points="737,845.9141,747,849.9141,737,853.9141,741,849.9141" style="stroke:#A52A2A;stroke-width:1.0;"/><line style="stroke:#A52A2A;stroke-width:1.0;" x1="517" x2="743" y1="849.9141" y2="849.9141"/><text fill="#000000" font-family="sans-serif" font-size="13" lengthAdjust="spacing" textLength="213" x="524" y="845.0576">changePatientData(patientAttributes)</text><path d="M641.5,864.9141 L714.5,864.9141 L714.5,873.2656 L704.5,883.2656 L641.5,883.2656 L641.5,864.9141 " fill="#EEEEEE" style="stroke:#000000;stroke-width:1.5;"/><rect fill="none" height="447.1094" style="stroke:#000000;stroke-width:1.5;" width="1196.5" x="641.5" y="864.9141"/><text fill="#000000" font-family="sans-serif" font-size="13" font-weight="bold" lengthAdjust="spacing" textLength="28" x="656.5" y="879.4092">loop</text><text fill="#000000" font-family="sans-serif" font-size="11" font-weight="bold" lengthAdjust="spacing" textLength="105" x="729.5" y="878.333">[For each attribute]</text><polygon fill="#A52A2A" points="944,901.6172,954,905.6172,944,909.6172,948,905.6172" style="stroke:#A52A2A;stroke-width:1.0;"/><line style="stroke:#A52A2A;stroke-width:1.0;" x1="759" x2="950" y1="905.6172" y2="905.6172"/><text fill="#000000" font-family="sans-serif" font-size="13" lengthAdjust="spacing" textLength="178" x="766" y="900.7607">isSensitiveData(attributeName)</text><polygon fill="#A52A2A" points="770,931.9688,760,935.9688,770,939.9688,766,935.9688" style="stroke:#A52A2A;stroke-width:1.0;"/><line style="stroke:#A52A2A;stroke-width:1.0;stroke-dasharray:2.0,2.0;" x1="764" x2="960" y1="935.9688" y2="935.9688"/><text fill="#000000" font-family="sans-serif" font-size="13" lengthAdjust="spacing" textLength="45" x="776" y="931.1123">boolean</text><path d="M651.5,950.9688 L712.5,950.9688 L712.5,959.3203 L702.5,969.3203 L651.5,969.3203 L651.5,950.9688 " fill="#EEEEEE" style="stroke:#000000;stroke-width:1.5;"/><rect fill="none" height="354.0547" style="stroke:#000000;stroke-width:1.5;" width="1176.5" x="651.5" y="950.9688"/><text fill="#000000" font-family="sans-serif" font-size="13" font-weight="bold" lengthAdjust="spacing" textLength="16" x="666.5" y="965.4639">alt</text><text fill="#000000" font-family="sans-serif" font-size="11" font-weight="bold" lengthAdjust="spacing" textLength="108" x="727.5" y="964.3877">[If is sensitive data]</text><polygon fill="#A52A2A" points="1114.5,1004.0234,1124.5,1008.0234,1114.5,1012.0234,1118.5,1008.0234" style="stroke:#A52A2A;stroke-width:1.0;"/><line style="stroke:#A52A2A;stroke-width:1.0;" x1="759" x2="1120.5" y1="1008.0234" y2="1008.0234"/><text fill="#000000" font-family="sans-serif" font-size="13" lengthAdjust="spacing" textLength="253" x="766" y="986.8154">createPendingRequest(user, attributeName,</text><text fill="#000000" font-family="sans-serif" font-size="13" lengthAdjust="spacing" textLength="140" x="770" y="1003.167">pendingValue, oldValue)</text><polygon fill="#A52A2A" points="770,1034.375,760,1038.375,770,1042.375,766,1038.375" style="stroke:#A52A2A;stroke-width:1.0;"/><line style="stroke:#A52A2A;stroke-width:1.0;stroke-dasharray:2.0,2.0;" x1="764" x2="1130.5" y1="1038.375" y2="1038.375"/><text fill="#000000" font-family="sans-serif" font-size="13" lengthAdjust="spacing" textLength="93" x="776" y="1033.5186">pendingRequest</text><polygon fill="#A52A2A" points="1276,1064.7266,1286,1068.7266,1276,1072.7266,1280,1068.7266" style="stroke:#A52A2A;stroke-width:1.0;"/><line style="stroke:#A52A2A;stroke-width:1.0;" x1="759" x2="1282" y1="1068.7266" y2="1068.7266"/><text fill="#000000" font-family="sans-serif" font-size="13" lengthAdjust="spacing" textLength="307" x="766" y="1063.8701">notifyPendingRequest(pendingRequest, patientEmail)</text><polygon fill="#A52A2A" points="770,1095.0781,760,1099.0781,770,1103.0781,766,1099.0781" style="stroke:#A52A2A;stroke-width:1.0;"/><line style="stroke:#A52A2A;stroke-width:1.0;stroke-dasharray:2.0,2.0;" x1="764" x2="1292" y1="1099.0781" y2="1099.0781"/><text fill="#000000" font-family="sans-serif" font-size="13" lengthAdjust="spacing" textLength="41" x="776" y="1094.2217">notified</text><line style="stroke:#000000;stroke-width:1.0;stroke-dasharray:2.0,2.0;" x1="651.5" x2="1828" y1="1108.0781" y2="1108.0781"/><text fill="#000000" font-family="sans-serif" font-size="11" font-weight="bold" lengthAdjust="spacing" textLength="139" x="656.5" y="1119.4971">[If it is not sensitive data]</text><polygon fill="#A52A2A" points="1617,1141.2656,1627,1145.2656,1617,1149.2656,1621,1145.2656" style="stroke:#A52A2A;stroke-width:1.0;"/><line style="stroke:#A52A2A;stroke-width:1.0;" x1="759" x2="1623" y1="1145.2656" y2="1145.2656"/><text fill="#000000" font-family="sans-serif" font-size="13" lengthAdjust="spacing" textLength="108" x="766" y="1140.4092">findByEmail(email)</text><polygon fill="#A52A2A" points="770,1171.6172,760,1175.6172,770,1179.6172,766,1175.6172" style="stroke:#A52A2A;stroke-width:1.0;"/><line style="stroke:#A52A2A;stroke-width:1.0;stroke-dasharray:2.0,2.0;" x1="764" x2="1633" y1="1175.6172" y2="1175.6172"/><text fill="#000000" font-family="sans-serif" font-size="13" lengthAdjust="spacing" textLength="39" x="776" y="1170.7607">patient</text><polygon fill="#A52A2A" points="1772,1201.9688,1782,1205.9688,1772,1209.9688,1776,1205.9688" style="stroke:#A52A2A;stroke-width:1.0;"/><line style="stroke:#A52A2A;stroke-width:1.0;" x1="759" x2="1778" y1="1205.9688" y2="1205.9688"/><text fill="#000000" font-family="sans-serif" font-size="13" lengthAdjust="spacing" textLength="252" x="766" y="1201.1123">changeAttribute(attributeName, newValue)~</text><polygon fill="#A52A2A" points="770,1232.3203,760,1236.3203,770,1240.3203,766,1236.3203" style="stroke:#A52A2A;stroke-width:1.0;"/><line style="stroke:#A52A2A;stroke-width:1.0;stroke-dasharray:2.0,2.0;" x1="764" x2="1788" y1="1236.3203" y2="1236.3203"/><text fill="#000000" font-family="sans-serif" font-size="13" lengthAdjust="spacing" textLength="39" x="776" y="1231.4639">patient</text><polygon fill="#A52A2A" points="1617,1262.6719,1627,1266.6719,1617,1270.6719,1621,1266.6719" style="stroke:#A52A2A;stroke-width:1.0;"/><line style="stroke:#A52A2A;stroke-width:1.0;" x1="759" x2="1623" y1="1266.6719" y2="1266.6719"/><text fill="#000000" font-family="sans-serif" font-size="13" lengthAdjust="spacing" textLength="73" x="766" y="1261.8154">save(patient)</text><polygon fill="#A52A2A" points="770,1293.0234,760,1297.0234,770,1301.0234,766,1297.0234" style="stroke:#A52A2A;stroke-width:1.0;"/><line style="stroke:#A52A2A;stroke-width:1.0;stroke-dasharray:2.0,2.0;" x1="764" x2="1633" y1="1297.0234" y2="1297.0234"/><text fill="#000000" font-family="sans-serif" font-size="13" lengthAdjust="spacing" textLength="33" x="776" y="1292.167">saved</text><polygon fill="#A52A2A" points="528,1337.375,518,1341.375,528,1345.375,524,1341.375" style="stroke:#A52A2A;stroke-width:1.0;"/><line style="stroke:#A52A2A;stroke-width:1.0;stroke-dasharray:2.0,2.0;" x1="522" x2="753" y1="1341.375" y2="1341.375"/><text fill="#000000" font-family="sans-serif" font-size="13" lengthAdjust="spacing" textLength="49" x="534" y="1336.5186">changed</text><polygon fill="#A52A2A" points="286,1367.7266,276,1371.7266,286,1375.7266,282,1371.7266" style="stroke:#A52A2A;stroke-width:1.0;"/><line style="stroke:#A52A2A;stroke-width:1.0;stroke-dasharray:2.0,2.0;" x1="280" x2="511" y1="1371.7266" y2="1371.7266"/><text fill="#000000" font-family="sans-serif" font-size="13" lengthAdjust="spacing" textLength="49" x="292" y="1366.8701">changed</text><polygon fill="#A52A2A" points="46,1398.0781,36,1402.0781,46,1406.0781,42,1402.0781" style="stroke:#A52A2A;stroke-width:1.0;"/><line style="stroke:#A52A2A;stroke-width:1.0;stroke-dasharray:2.0,2.0;" x1="40" x2="264" y1="1402.0781" y2="1402.0781"/><text fill="#000000" font-family="sans-serif" font-size="13" lengthAdjust="spacing" textLength="49" x="52" y="1397.2217">changed</text><!--SRC=[rLPBRnen4BxpAqOvqIYHsYk7IZnI5GabA1jwwiNP7HOhYqrj4qIhzhTtRAztxML9qakh8YNisj_CD-_1S5CXPFXjZo97c75MAhQ5vVZ-0JuCz1CNEsOFyeffFJP6ySUzmNakHSQ_8xmVT37mOm3qMV0rBhZ0YLG5ggcif8APB4fKasgFAOJbJwMIUr5us7YvNCoduuVvtQt3TUyNk9LYkk7hjHGEC5PA7lpTX9xyOKoSiQAeqD_zZ2tUaMfMOcQE50I5kM6Yh33nYQdYFt29vOOEbynm56P0fXkUynqJ1Ywc6t8AwwiPCsmrlm2cOJL_1JULmYXPLQWSldrzHIv3zSnpT49xZIfByHaApGr_nYvM- -SKlKHHS57UsmBLHlVWwwjKx5OQlkOv6KM5UYf3rnsUyTviOY2ZznHnZpj9Xal5KJj8VD0nsWUZ0HmTVbUVfjYLhkExocxkUzN4meDUnEpXBWRHwy2L17zc1fkggB_X-YFbVWHrtC18o5qAmMpG9GmAoamhJuMocbkfjW96r1V29zxQRpCvVDTAHANIFbeDDgeZe0BOAxGH9tDiah2mMZupFHR7k_MGy1XfSwcm_-2wOmGOHOrNO0hz5vmffQjw6469fWxwv6ZPuXZvpl38saeliP1bwOqRdZKe4DZl4riQdRQY28HRngjObwiqTndhSh1OcOC5PN6n9vwrHHvJ9BsHo4QCkww6c3tHqBWKH4XwpKKnETuuvvpj4NtKQZN- -fGtPci4kapKIvUN92Fm06st3UlRKqhRU-rZ7wr5d3BRqvexARYpShv-qhgZDZq7ZrhIDZE1mpWOGRQHXtXu01C5ZPCd3OSDppVmLG2miFerq9GuqFJHxUH8gcQU3XhecpHQRl7rAKEYUNUvXCWtFqNqM-PEIC6VgVCXhgJSmIVQhkJZfeq3jALIBnNIptMotOOD-fPju_4ILbsGZClaKT8eOYAEQO2poi1yJInqKjFuA7PD2H4dZnMIXdIB3Yty2XBZhcoMTnxsXT7lcIkGLU6UJkqEAxV3bXHxmjZZJBZfccvNi-qtky2F7RjJfLUXP6ywtHyl-LXhR9_Jpx7eiSp93R3Iw89jRBm9VZRcVtqcDONSLEsmaqkQLZvrlqxu0_qRsNlTrEmPpu_0CnvQeQBNFygg-pip_xolnSl3ByoQ7l1Beo_0Jp-_0G00]--></g></svg>