<?xml version="1.0" encoding="us-ascii" standalone="no"?><svg xmlns="http://www.w3.org/2000/svg" xmlns:xlink="http://www.w3.org/1999/xlink" contentStyleType="text/css" height="557px" preserveAspectRatio="none" style="width:1135px;height:557px;background:#FFFFFF;" version="1.1" viewBox="0 0 1135 557" width="1135px" zoomAndPan="magnify"><defs/><g><text fill="#000000" font-family="sans-serif" font-size="14" font-weight="bold" lengthAdjust="spacing" textLength="184" x="474.75" y="29.5332">Sequence Diagram PART 1</text><rect fill="#FFFFFF" height="425.9219" style="stroke:#181818;stroke-width:1.0;" width="10" x="112" y="86.2188"/><rect fill="#FFFFFF" height="403.5703" style="stroke:#181818;stroke-width:1.0;" width="10" x="336" y="108.5703"/><rect fill="#FFFFFF" height="30.3516" style="stroke:#181818;stroke-width:1.0;" width="10" x="548" y="138.9219"/><rect fill="#FFFFFF" height="30.3516" style="stroke:#181818;stroke-width:1.0;" width="10" x="698" y="199.625"/><rect fill="#FFFFFF" height="30.3516" style="stroke:#181818;stroke-width:1.0;" width="10" x="864.5" y="321.0313"/><rect fill="#FFFFFF" height="30.3516" style="stroke:#181818;stroke-width:1.0;" width="10" x="864.5" y="442.4375"/><rect fill="#FFFFFF" height="30.3516" style="stroke:#181818;stroke-width:1.0;" width="10" x="997" y="260.3281"/><rect fill="#FFFFFF" height="30.3516" style="stroke:#181818;stroke-width:1.0;" width="10" x="1095.5" y="381.7344"/><line style="stroke:#181818;stroke-width:0.5;stroke-dasharray:5.0,5.0;" x1="117" x2="117" y1="76.2188" y2="521.1406"/><line style="stroke:#181818;stroke-width:0.5;stroke-dasharray:5.0,5.0;" x1="340.5" x2="340.5" y1="76.2188" y2="521.1406"/><line style="stroke:#181818;stroke-width:0.5;stroke-dasharray:5.0,5.0;" x1="552.5" x2="552.5" y1="76.2188" y2="521.1406"/><line style="stroke:#181818;stroke-width:0.5;stroke-dasharray:5.0,5.0;" x1="702.5" x2="702.5" y1="76.2188" y2="521.1406"/><line style="stroke:#181818;stroke-width:0.5;stroke-dasharray:5.0,5.0;" x1="869.5" x2="869.5" y1="76.2188" y2="521.1406"/><line style="stroke:#181818;stroke-width:0.5;stroke-dasharray:5.0,5.0;" x1="1001.5" x2="1001.5" y1="76.2188" y2="521.1406"/><line style="stroke:#181818;stroke-width:0.5;stroke-dasharray:5.0,5.0;" x1="1100.5" x2="1100.5" y1="76.2188" y2="521.1406"/><rect fill="#E2E2F0" height="31.6094" rx="2.5" ry="2.5" style="stroke:#181818;stroke-width:0.5;" width="224" x="5" y="43.6094"/><text fill="#000000" font-family="sans-serif" font-size="14" lengthAdjust="spacing" textLength="210" x="12" y="65.1426">AcceptPendingRequestController</text><rect fill="#E2E2F0" height="31.6094" rx="2.5" ry="2.5" style="stroke:#181818;stroke-width:0.5;" width="224" x="5" y="520.1406"/><text fill="#000000" font-family="sans-serif" font-size="14" lengthAdjust="spacing" textLength="210" x="12" y="541.6738">AcceptPendingRequestController</text><rect fill="#E2E2F0" height="31.6094" rx="2.5" ry="2.5" style="stroke:#181818;stroke-width:0.5;" width="173" x="254.5" y="43.6094"/><text fill="#000000" font-family="sans-serif" font-size="14" lengthAdjust="spacing" textLength="159" x="261.5" y="65.1426">PendingRequestsService</text><rect fill="#E2E2F0" height="31.6094" rx="2.5" ry="2.5" style="stroke:#181818;stroke-width:0.5;" width="173" x="254.5" y="520.1406"/><text fill="#000000" font-family="sans-serif" font-size="14" lengthAdjust="spacing" textLength="159" x="261.5" y="541.6738">PendingRequestsService</text><rect fill="#E2E2F0" height="31.6094" rx="2.5" ry="2.5" style="stroke:#181818;stroke-width:0.5;" width="93" x="506.5" y="43.6094"/><text fill="#000000" font-family="sans-serif" font-size="14" lengthAdjust="spacing" textLength="79" x="513.5" y="65.1426">Repositories</text><rect fill="#E2E2F0" height="31.6094" rx="2.5" ry="2.5" style="stroke:#181818;stroke-width:0.5;" width="93" x="506.5" y="520.1406"/><text fill="#000000" font-family="sans-serif" font-size="14" lengthAdjust="spacing" textLength="79" x="513.5" y="541.6738">Repositories</text><rect fill="#E2E2F0" height="31.6094" rx="2.5" ry="2.5" style="stroke:#181818;stroke-width:0.5;" width="187" x="609.5" y="43.6094"/><text fill="#000000" font-family="sans-serif" font-size="14" lengthAdjust="spacing" textLength="173" x="616.5" y="65.1426">PendingRequestRepository</text><rect fill="#E2E2F0" height="31.6094" rx="2.5" ry="2.5" style="stroke:#181818;stroke-width:0.5;" width="187" x="609.5" y="520.1406"/><text fill="#000000" font-family="sans-serif" font-size="14" lengthAdjust="spacing" textLength="173" x="616.5" y="541.6738">PendingRequestRepository</text><rect fill="#E2E2F0" height="31.6094" rx="2.5" ry="2.5" style="stroke:#181818;stroke-width:0.5;" width="126" x="806.5" y="43.6094"/><text fill="#000000" font-family="sans-serif" font-size="14" lengthAdjust="spacing" textLength="112" x="813.5" y="65.1426">PatientRepository</text><rect fill="#E2E2F0" height="31.6094" rx="2.5" ry="2.5" style="stroke:#181818;stroke-width:0.5;" width="126" x="806.5" y="520.1406"/><text fill="#000000" font-family="sans-serif" font-size="14" lengthAdjust="spacing" textLength="112" x="813.5" y="541.6738">PatientRepository</text><rect fill="#E2E2F0" height="31.6094" rx="2.5" ry="2.5" style="stroke:#181818;stroke-width:0.5;" width="119" x="942.5" y="43.6094"/><text fill="#000000" font-family="sans-serif" font-size="14" lengthAdjust="spacing" textLength="105" x="949.5" y="65.1426">PendingRequest</text><rect fill="#E2E2F0" height="31.6094" rx="2.5" ry="2.5" style="stroke:#181818;stroke-width:0.5;" width="119" x="942.5" y="520.1406"/><text fill="#000000" font-family="sans-serif" font-size="14" lengthAdjust="spacing" textLength="105" x="949.5" y="541.6738">PendingRequest</text><rect fill="#E2E2F0" height="31.6094" rx="2.5" ry="2.5" style="stroke:#181818;stroke-width:0.5;" width="58" x="1071.5" y="43.6094"/><text fill="#000000" font-family="sans-serif" font-size="14" lengthAdjust="spacing" textLength="44" x="1078.5" y="65.1426">Patient</text><rect fill="#E2E2F0" height="31.6094" rx="2.5" ry="2.5" style="stroke:#181818;stroke-width:0.5;" width="58" x="1071.5" y="520.1406"/><text fill="#000000" font-family="sans-serif" font-size="14" lengthAdjust="spacing" textLength="44" x="1078.5" y="541.6738">Patient</text><rect fill="#FFFFFF" height="425.9219" style="stroke:#181818;stroke-width:1.0;" width="10" x="112" y="86.2188"/><rect fill="#FFFFFF" height="403.5703" style="stroke:#181818;stroke-width:1.0;" width="10" x="336" y="108.5703"/><rect fill="#FFFFFF" height="30.3516" style="stroke:#181818;stroke-width:1.0;" width="10" x="548" y="138.9219"/><rect fill="#FFFFFF" height="30.3516" style="stroke:#181818;stroke-width:1.0;" width="10" x="698" y="199.625"/><rect fill="#FFFFFF" height="30.3516" style="stroke:#181818;stroke-width:1.0;" width="10" x="864.5" y="321.0313"/><rect fill="#FFFFFF" height="30.3516" style="stroke:#181818;stroke-width:1.0;" width="10" x="864.5" y="442.4375"/><rect fill="#FFFFFF" height="30.3516" style="stroke:#181818;stroke-width:1.0;" width="10" x="997" y="260.3281"/><rect fill="#FFFFFF" height="30.3516" style="stroke:#181818;stroke-width:1.0;" width="10" x="1095.5" y="381.7344"/><polygon fill="#A52A2A" points="324,104.5703,334,108.5703,324,112.5703,328,108.5703" style="stroke:#A52A2A;stroke-width:1.0;"/><line style="stroke:#A52A2A;stroke-width:1.0;" x1="122" x2="330" y1="108.5703" y2="108.5703"/><text fill="#000000" font-family="sans-serif" font-size="13" lengthAdjust="spacing" textLength="195" x="129" y="103.7139">acceptPendingRequest(requestId)</text><polygon fill="#A52A2A" points="536,134.9219,546,138.9219,536,142.9219,540,138.9219" style="stroke:#A52A2A;stroke-width:1.0;"/><line style="stroke:#A52A2A;stroke-width:1.0;" x1="346" x2="542" y1="138.9219" y2="138.9219"/><text fill="#000000" font-family="sans-serif" font-size="13" lengthAdjust="spacing" textLength="183" x="353" y="134.0654">getPendingRequestRepository()</text><polygon fill="#A52A2A" points="357,165.2734,347,169.2734,357,173.2734,353,169.2734" style="stroke:#A52A2A;stroke-width:1.0;"/><line style="stroke:#A52A2A;stroke-width:1.0;stroke-dasharray:2.0,2.0;" x1="351" x2="552" y1="169.2734" y2="169.2734"/><text fill="#000000" font-family="sans-serif" font-size="13" lengthAdjust="spacing" textLength="155" x="363" y="164.417">pendingRequestRepository</text><polygon fill="#A52A2A" points="686,195.625,696,199.625,686,203.625,690,199.625" style="stroke:#A52A2A;stroke-width:1.0;"/><line style="stroke:#A52A2A;stroke-width:1.0;" x1="346" x2="692" y1="199.625" y2="199.625"/><text fill="#000000" font-family="sans-serif" font-size="13" lengthAdjust="spacing" textLength="107" x="353" y="194.7686">findById(requestId)</text><polygon fill="#A52A2A" points="357,225.9766,347,229.9766,357,233.9766,353,229.9766" style="stroke:#A52A2A;stroke-width:1.0;"/><line style="stroke:#A52A2A;stroke-width:1.0;stroke-dasharray:2.0,2.0;" x1="351" x2="702" y1="229.9766" y2="229.9766"/><text fill="#000000" font-family="sans-serif" font-size="13" lengthAdjust="spacing" textLength="93" x="363" y="225.1201">pendingRequest</text><polygon fill="#A52A2A" points="985,256.3281,995,260.3281,985,264.3281,989,260.3281" style="stroke:#A52A2A;stroke-width:1.0;"/><line style="stroke:#A52A2A;stroke-width:1.0;" x1="346" x2="991" y1="260.3281" y2="260.3281"/><text fill="#000000" font-family="sans-serif" font-size="13" lengthAdjust="spacing" textLength="67" x="353" y="255.4717">getPatient()</text><polygon fill="#A52A2A" points="357,286.6797,347,290.6797,357,294.6797,353,290.6797" style="stroke:#A52A2A;stroke-width:1.0;"/><line style="stroke:#A52A2A;stroke-width:1.0;stroke-dasharray:2.0,2.0;" x1="351" x2="1001" y1="290.6797" y2="290.6797"/><text fill="#000000" font-family="sans-serif" font-size="13" lengthAdjust="spacing" textLength="39" x="363" y="285.8232">patient</text><polygon fill="#A52A2A" points="852.5,317.0313,862.5,321.0313,852.5,325.0313,856.5,321.0313" style="stroke:#A52A2A;stroke-width:1.0;"/><line style="stroke:#A52A2A;stroke-width:1.0;" x1="346" x2="858.5" y1="321.0313" y2="321.0313"/><text fill="#000000" font-family="sans-serif" font-size="13" lengthAdjust="spacing" textLength="110" x="353" y="316.1748">findByUser(patient)</text><polygon fill="#A52A2A" points="357,347.3828,347,351.3828,357,355.3828,353,351.3828" style="stroke:#A52A2A;stroke-width:1.0;"/><line style="stroke:#A52A2A;stroke-width:1.0;stroke-dasharray:2.0,2.0;" x1="351" x2="868.5" y1="351.3828" y2="351.3828"/><text fill="#000000" font-family="sans-serif" font-size="13" lengthAdjust="spacing" textLength="39" x="363" y="346.5264">patient</text><polygon fill="#A52A2A" points="1083.5,377.7344,1093.5,381.7344,1083.5,385.7344,1087.5,381.7344" style="stroke:#A52A2A;stroke-width:1.0;"/><line style="stroke:#A52A2A;stroke-width:1.0;" x1="346" x2="1089.5" y1="381.7344" y2="381.7344"/><text fill="#000000" font-family="sans-serif" font-size="13" lengthAdjust="spacing" textLength="266" x="353" y="376.8779">changeAttribute(attributeName, pendingValue)</text><polygon fill="#A52A2A" points="357,408.0859,347,412.0859,357,416.0859,353,412.0859" style="stroke:#A52A2A;stroke-width:1.0;"/><line style="stroke:#A52A2A;stroke-width:1.0;stroke-dasharray:2.0,2.0;" x1="351" x2="1099.5" y1="412.0859" y2="412.0859"/><text fill="#000000" font-family="sans-serif" font-size="13" lengthAdjust="spacing" textLength="49" x="363" y="407.2295">changed</text><polygon fill="#A52A2A" points="852.5,438.4375,862.5,442.4375,852.5,446.4375,856.5,442.4375" style="stroke:#A52A2A;stroke-width:1.0;"/><line style="stroke:#A52A2A;stroke-width:1.0;" x1="346" x2="858.5" y1="442.4375" y2="442.4375"/><text fill="#000000" font-family="sans-serif" font-size="13" lengthAdjust="spacing" textLength="73" x="353" y="437.5811">save(patient)</text><polygon fill="#A52A2A" points="357,468.7891,347,472.7891,357,476.7891,353,472.7891" style="stroke:#A52A2A;stroke-width:1.0;"/><line style="stroke:#A52A2A;stroke-width:1.0;stroke-dasharray:2.0,2.0;" x1="351" x2="868.5" y1="472.7891" y2="472.7891"/><text fill="#000000" font-family="sans-serif" font-size="13" lengthAdjust="spacing" textLength="33" x="363" y="467.9326">saved</text><polygon fill="#A52A2A" points="133,499.1406,123,503.1406,133,507.1406,129,503.1406" style="stroke:#A52A2A;stroke-width:1.0;"/><line style="stroke:#A52A2A;stroke-width:1.0;stroke-dasharray:2.0,2.0;" x1="127" x2="335" y1="503.1406" y2="503.1406"/><text fill="#000000" font-family="sans-serif" font-size="13" lengthAdjust="spacing" textLength="49" x="139" y="498.2842">changed</text><!--SRC=[rPH1ZziW48Nl_XLeJwxKIEsrXvMSxCLIj8tYRUzJc7X7wu0BarHfrVzUOfm4EpYDUgilnZ3lyV70C763eiBlEzGInHD1RM4hLiNwHNpCt1lf5euTiW7d2cPBttQCfJIwefyeFcJZ6l4h4_vPqWQNf75kh4AxC8snuice6ksysU6m1EHRRSrEgr1Mh5RBSb6yb9-Vkxhn-1AtHYzUQRCnkYieh3K_mjZSjq9dF745IZKOndx7nAstXXehFlWGB4e6NJSuM1DOzHyiAVEqJ99Qq2mU2YcnvHLgHRfU7_VMyS9ejgPfq3u8SEBoEPGEHQv2koU9dSI5TZyqbAsnDOxOM4BN5SSTjsOurnqwsVNWI0nCgCUgjk-zDL72FcaT6_fSGJBjWJ4ExD8KiyTHBEAJW4JwkGtlKhsxM8u27HbvwpX4RrmZJuMNHxQ3w0SMinHkEs6PAKnRNdDUKtdV3MarFvGgkVJ4FYTCxk2DAHEcVsCDeORTpYVvHcmJNFsPcGHAm9mExZckBxucxtiZdEY0zu9x4SxAoSczJhxwUm_FjtiEfzOpRF7zAV6luA-vQwWJKnefMAi4qkqu7EpntuCugjLTCSmUex_vWfjy_W00]--></g></svg>