<?xml version="1.0" encoding="us-ascii" standalone="no"?><svg xmlns="http://www.w3.org/2000/svg" xmlns:xlink="http://www.w3.org/1999/xlink" contentStyleType="text/css" height="1219px" preserveAspectRatio="none" style="width:2177px;height:1219px;background:#FFFFFF;" version="1.1" viewBox="0 0 2177 1219" width="2177px" zoomAndPan="magnify"><defs/><g><text fill="#000000" font-family="sans-serif" font-size="14" font-weight="bold" lengthAdjust="spacing" textLength="132" x="1024" y="29.5332">Sequence Diagram</text><rect fill="#FFFFFF" height="987.6797" style="stroke:#181818;stroke-width:1.0;" width="10" x="22.5" y="131.2188"/><rect fill="#FFFFFF" height="965.3281" style="stroke:#181818;stroke-width:1.0;" width="10" x="211.5" y="153.5703"/><rect fill="#FFFFFF" height="904.625" style="stroke:#181818;stroke-width:1.0;" width="10" x="449.5" y="183.9219"/><rect fill="#FFFFFF" height="843.9219" style="stroke:#181818;stroke-width:1.0;" width="10" x="682.5" y="214.2734"/><rect fill="#FFFFFF" height="91.0547" style="stroke:#181818;stroke-width:1.0;" width="10" x="813.5" y="244.625"/><rect fill="#FFFFFF" height="58.3516" style="stroke:#181818;stroke-width:1.0;" width="10" x="813.5" y="969.4922"/><rect fill="#FFFFFF" height="119.0547" style="stroke:#181818;stroke-width:1.0;" width="10" x="1152.5" y="538.1406"/><rect fill="#FFFFFF" height="58.3516" style="stroke:#181818;stroke-width:1.0;" width="10" x="1342.5" y="568.4922"/><rect fill="#FFFFFF" height="58.3516" style="stroke:#181818;stroke-width:1.0;" width="10" x="1594" y="808.4375"/><rect fill="#FFFFFF" height="14" style="stroke:#181818;stroke-width:1.0;" width="10" x="1862.5" y="925.1406"/><rect fill="#FFFFFF" height="14" style="stroke:#181818;stroke-width:1.0;" width="10" x="1949" y="764.0859"/><rect fill="#FFFFFF" height="30.3516" style="stroke:#181818;stroke-width:1.0;" width="10" x="2028" y="477.4375"/><rect fill="#FFFFFF" height="30.3516" style="stroke:#181818;stroke-width:1.0;" width="10" x="2028" y="703.3828"/><rect fill="#FFFFFF" height="30.3516" style="stroke:#181818;stroke-width:1.0;" width="10" x="2112" y="274.9766"/><rect fill="#FFFFFF" height="14" style="stroke:#181818;stroke-width:1.0;" width="10" x="2112" y="598.8438"/><rect fill="#FFFFFF" height="14" style="stroke:#181818;stroke-width:1.0;" width="10" x="2112" y="838.7891"/><rect fill="#FFFFFF" height="14" style="stroke:#181818;stroke-width:1.0;" width="10" x="2112" y="999.8438"/><rect fill="none" height="545.1094" style="stroke:#000000;stroke-width:1.5;" width="1556" x="615" y="350.6797"/><rect fill="none" height="452.0547" style="stroke:#000000;stroke-width:1.5;" width="1536" x="625" y="436.7344"/><line style="stroke:#181818;stroke-width:0.5;stroke-dasharray:5.0,5.0;" x1="27" x2="27" y1="121.2188" y2="1136.8984"/><line style="stroke:#181818;stroke-width:0.5;stroke-dasharray:5.0,5.0;" x1="216.5" x2="216.5" y1="121.2188" y2="1136.8984"/><line style="stroke:#181818;stroke-width:0.5;stroke-dasharray:5.0,5.0;" x1="454.5" x2="454.5" y1="121.2188" y2="1136.8984"/><line style="stroke:#181818;stroke-width:0.5;stroke-dasharray:5.0,5.0;" x1="687" x2="687" y1="121.2188" y2="1136.8984"/><line style="stroke:#181818;stroke-width:0.5;stroke-dasharray:5.0,5.0;" x1="818.5" x2="818.5" y1="121.2188" y2="1136.8984"/><line style="stroke:#181818;stroke-width:0.5;stroke-dasharray:5.0,5.0;" x1="1157.5" x2="1157.5" y1="121.2188" y2="1136.8984"/><line style="stroke:#181818;stroke-width:0.5;stroke-dasharray:5.0,5.0;" x1="1347" x2="1347" y1="121.2188" y2="1136.8984"/><line style="stroke:#181818;stroke-width:0.5;stroke-dasharray:5.0,5.0;" x1="1493" x2="1493" y1="121.2188" y2="1136.8984"/><line style="stroke:#181818;stroke-width:0.5;stroke-dasharray:5.0,5.0;" x1="1599" x2="1599" y1="121.2188" y2="1136.8984"/><line style="stroke:#181818;stroke-width:0.5;stroke-dasharray:5.0,5.0;" x1="1736" x2="1736" y1="121.2188" y2="1136.8984"/><line style="stroke:#181818;stroke-width:0.5;stroke-dasharray:5.0,5.0;" x1="1867" x2="1867" y1="121.2188" y2="1136.8984"/><line style="stroke:#181818;stroke-width:0.5;stroke-dasharray:5.0,5.0;" x1="1954" x2="1954" y1="121.2188" y2="1136.8984"/><line style="stroke:#181818;stroke-width:0.5;stroke-dasharray:5.0,5.0;" x1="2033" x2="2033" y1="121.2188" y2="1136.8984"/><line style="stroke:#181818;stroke-width:0.5;stroke-dasharray:5.0,5.0;" x1="2117" x2="2117" y1="121.2188" y2="1136.8984"/><text fill="#000000" font-family="sans-serif" font-size="14" lengthAdjust="spacing" textLength="39" x="5" y="118.1426">Admin</text><ellipse cx="27.5" cy="52.1094" fill="#E2E2F0" rx="8" ry="8" style="stroke:#181818;stroke-width:0.5;"/><path d="M27.5,60.1094 L27.5,87.1094 M14.5,68.1094 L40.5,68.1094 M27.5,87.1094 L14.5,102.1094 M27.5,87.1094 L40.5,102.1094 " fill="none" style="stroke:#181818;stroke-width:0.5;"/><text fill="#000000" font-family="sans-serif" font-size="14" lengthAdjust="spacing" textLength="39" x="5" y="1150.4316">Admin</text><ellipse cx="27.5" cy="1162.0078" fill="#E2E2F0" rx="8" ry="8" style="stroke:#181818;stroke-width:0.5;"/><path d="M27.5,1170.0078 L27.5,1197.0078 M14.5,1178.0078 L40.5,1178.0078 M27.5,1197.0078 L14.5,1212.0078 M27.5,1197.0078 L40.5,1212.0078 " fill="none" style="stroke:#181818;stroke-width:0.5;"/><rect fill="#E2E2F0" height="31.6094" rx="2.5" ry="2.5" style="stroke:#181818;stroke-width:0.5;" width="52" x="190.5" y="88.6094"/><text fill="#000000" font-family="sans-serif" font-size="14" lengthAdjust="spacing" textLength="38" x="197.5" y="110.1426">Route</text><rect fill="#E2E2F0" height="31.6094" rx="2.5" ry="2.5" style="stroke:#181818;stroke-width:0.5;" width="52" x="190.5" y="1135.8984"/><text fill="#000000" font-family="sans-serif" font-size="14" lengthAdjust="spacing" textLength="38" x="197.5" y="1157.4316">Route</text><rect fill="#E2E2F0" height="31.6094" rx="2.5" ry="2.5" style="stroke:#181818;stroke-width:0.5;" width="120" x="394.5" y="88.6094"/><text fill="#000000" font-family="sans-serif" font-size="14" lengthAdjust="spacing" textLength="106" x="401.5" y="110.1426">PatientController</text><rect fill="#E2E2F0" height="31.6094" rx="2.5" ry="2.5" style="stroke:#181818;stroke-width:0.5;" width="120" x="394.5" y="1135.8984"/><text fill="#000000" font-family="sans-serif" font-size="14" lengthAdjust="spacing" textLength="106" x="401.5" y="1157.4316">PatientController</text><rect fill="#E2E2F0" height="31.6094" rx="2.5" ry="2.5" style="stroke:#181818;stroke-width:0.5;" width="105" x="635" y="88.6094"/><text fill="#000000" font-family="sans-serif" font-size="14" lengthAdjust="spacing" textLength="91" x="642" y="110.1426">PatientService</text><rect fill="#E2E2F0" height="31.6094" rx="2.5" ry="2.5" style="stroke:#181818;stroke-width:0.5;" width="105" x="635" y="1135.8984"/><text fill="#000000" font-family="sans-serif" font-size="14" lengthAdjust="spacing" textLength="91" x="642" y="1157.4316">PatientService</text><rect fill="#E2E2F0" height="31.6094" rx="2.5" ry="2.5" style="stroke:#181818;stroke-width:0.5;" width="126" x="755.5" y="88.6094"/><text fill="#000000" font-family="sans-serif" font-size="14" lengthAdjust="spacing" textLength="112" x="762.5" y="110.1426">PatientRepository</text><rect fill="#E2E2F0" height="31.6094" rx="2.5" ry="2.5" style="stroke:#181818;stroke-width:0.5;" width="126" x="755.5" y="1135.8984"/><text fill="#000000" font-family="sans-serif" font-size="14" lengthAdjust="spacing" textLength="112" x="762.5" y="1157.4316">PatientRepository</text><rect fill="#E2E2F0" height="31.6094" rx="2.5" ry="2.5" style="stroke:#181818;stroke-width:0.5;" width="166" x="1074.5" y="88.6094"/><text fill="#000000" font-family="sans-serif" font-size="14" lengthAdjust="spacing" textLength="152" x="1081.5" y="110.1426">PendingRequestService</text><rect fill="#E2E2F0" height="31.6094" rx="2.5" ry="2.5" style="stroke:#181818;stroke-width:0.5;" width="166" x="1074.5" y="1135.8984"/><text fill="#000000" font-family="sans-serif" font-size="14" lengthAdjust="spacing" textLength="152" x="1081.5" y="1157.4316">PendingRequestService</text><rect fill="#E2E2F0" height="31.6094" rx="2.5" ry="2.5" style="stroke:#181818;stroke-width:0.5;" width="187" x="1254" y="88.6094"/><text fill="#000000" font-family="sans-serif" font-size="14" lengthAdjust="spacing" textLength="173" x="1261" y="110.1426">PendingRequestRepository</text><rect fill="#E2E2F0" height="31.6094" rx="2.5" ry="2.5" style="stroke:#181818;stroke-width:0.5;" width="187" x="1254" y="1135.8984"/><text fill="#000000" font-family="sans-serif" font-size="14" lengthAdjust="spacing" textLength="173" x="1261" y="1157.4316">PendingRequestRepository</text><rect fill="#E2E2F0" height="31.6094" rx="2.5" ry="2.5" style="stroke:#181818;stroke-width:0.5;" width="85" x="1451" y="88.6094"/><text fill="#000000" font-family="sans-serif" font-size="14" lengthAdjust="spacing" textLength="71" x="1458" y="110.1426">LogService</text><rect fill="#E2E2F0" height="31.6094" rx="2.5" ry="2.5" style="stroke:#181818;stroke-width:0.5;" width="85" x="1451" y="1135.8984"/><text fill="#000000" font-family="sans-serif" font-size="14" lengthAdjust="spacing" textLength="71" x="1458" y="1157.4316">LogService</text><rect fill="#E2E2F0" height="31.6094" rx="2.5" ry="2.5" style="stroke:#181818;stroke-width:0.5;" width="106" x="1546" y="88.6094"/><text fill="#000000" font-family="sans-serif" font-size="14" lengthAdjust="spacing" textLength="92" x="1553" y="110.1426">LogRepository</text><rect fill="#E2E2F0" height="31.6094" rx="2.5" ry="2.5" style="stroke:#181818;stroke-width:0.5;" width="106" x="1546" y="1135.8984"/><text fill="#000000" font-family="sans-serif" font-size="14" lengthAdjust="spacing" textLength="92" x="1553" y="1157.4316">LogRepository</text><rect fill="#E2E2F0" height="31.6094" rx="2.5" ry="2.5" style="stroke:#181818;stroke-width:0.5;" width="148" x="1662" y="88.6094"/><text fill="#000000" font-family="sans-serif" font-size="14" lengthAdjust="spacing" textLength="134" x="1669" y="110.1426">SensitiveDataService</text><rect fill="#E2E2F0" height="31.6094" rx="2.5" ry="2.5" style="stroke:#181818;stroke-width:0.5;" width="148" x="1662" y="1135.8984"/><text fill="#000000" font-family="sans-serif" font-size="14" lengthAdjust="spacing" textLength="134" x="1669" y="1157.4316">SensitiveDataService</text><rect fill="#E2E2F0" height="31.6094" rx="2.5" ry="2.5" style="stroke:#181818;stroke-width:0.5;" width="95" x="1820" y="88.6094"/><text fill="#000000" font-family="sans-serif" font-size="14" lengthAdjust="spacing" textLength="81" x="1827" y="110.1426">EmailService</text><rect fill="#E2E2F0" height="31.6094" rx="2.5" ry="2.5" style="stroke:#181818;stroke-width:0.5;" width="95" x="1820" y="1135.8984"/><text fill="#000000" font-family="sans-serif" font-size="14" lengthAdjust="spacing" textLength="81" x="1827" y="1157.4316">EmailService</text><rect fill="#E2E2F0" height="31.6094" rx="2.5" ry="2.5" style="stroke:#181818;stroke-width:0.5;" width="58" x="1925" y="88.6094"/><text fill="#000000" font-family="sans-serif" font-size="14" lengthAdjust="spacing" textLength="44" x="1932" y="110.1426">Patient</text><rect fill="#E2E2F0" height="31.6094" rx="2.5" ry="2.5" style="stroke:#181818;stroke-width:0.5;" width="58" x="1925" y="1135.8984"/><text fill="#000000" font-family="sans-serif" font-size="14" lengthAdjust="spacing" textLength="44" x="1932" y="1157.4316">Patient</text><rect fill="#E2E2F0" height="31.6094" rx="2.5" ry="2.5" style="stroke:#181818;stroke-width:0.5;" width="80" x="1993" y="88.6094"/><text fill="#000000" font-family="sans-serif" font-size="14" lengthAdjust="spacing" textLength="66" x="2000" y="110.1426">PatientDto</text><rect fill="#E2E2F0" height="31.6094" rx="2.5" ry="2.5" style="stroke:#181818;stroke-width:0.5;" width="80" x="1993" y="1135.8984"/><text fill="#000000" font-family="sans-serif" font-size="14" lengthAdjust="spacing" textLength="66" x="2000" y="1157.4316">PatientDto</text><text fill="#000000" font-family="sans-serif" font-size="14" lengthAdjust="spacing" textLength="62" x="2083" y="118.1426">DataBase</text><path d="M2099,67.6094 C2099,57.6094 2117,57.6094 2117,57.6094 C2117,57.6094 2135,57.6094 2135,67.6094 L2135,93.6094 C2135,103.6094 2117,103.6094 2117,103.6094 C2117,103.6094 2099,103.6094 2099,93.6094 L2099,67.6094 " fill="#E2E2F0" style="stroke:#181818;stroke-width:1.5;"/><path d="M2099,67.6094 C2099,77.6094 2117,77.6094 2117,77.6094 C2117,77.6094 2135,77.6094 2135,67.6094 " fill="none" style="stroke:#181818;stroke-width:1.5;"/><text fill="#000000" font-family="sans-serif" font-size="14" lengthAdjust="spacing" textLength="62" x="2083" y="1150.4316">DataBase</text><path d="M2099,1163.5078 C2099,1153.5078 2117,1153.5078 2117,1153.5078 C2117,1153.5078 2135,1153.5078 2135,1163.5078 L2135,1189.5078 C2135,1199.5078 2117,1199.5078 2117,1199.5078 C2117,1199.5078 2099,1199.5078 2099,1189.5078 L2099,1163.5078 " fill="#E2E2F0" style="stroke:#181818;stroke-width:1.5;"/><path d="M2099,1163.5078 C2099,1173.5078 2117,1173.5078 2117,1173.5078 C2117,1173.5078 2135,1173.5078 2135,1163.5078 " fill="none" style="stroke:#181818;stroke-width:1.5;"/><rect fill="#FFFFFF" height="987.6797" style="stroke:#181818;stroke-width:1.0;" width="10" x="22.5" y="131.2188"/><rect fill="#FFFFFF" height="965.3281" style="stroke:#181818;stroke-width:1.0;" width="10" x="211.5" y="153.5703"/><rect fill="#FFFFFF" height="904.625" style="stroke:#181818;stroke-width:1.0;" width="10" x="449.5" y="183.9219"/><rect fill="#FFFFFF" height="843.9219" style="stroke:#181818;stroke-width:1.0;" width="10" x="682.5" y="214.2734"/><rect fill="#FFFFFF" height="91.0547" style="stroke:#181818;stroke-width:1.0;" width="10" x="813.5" y="244.625"/><rect fill="#FFFFFF" height="58.3516" style="stroke:#181818;stroke-width:1.0;" width="10" x="813.5" y="969.4922"/><rect fill="#FFFFFF" height="119.0547" style="stroke:#181818;stroke-width:1.0;" width="10" x="1152.5" y="538.1406"/><rect fill="#FFFFFF" height="58.3516" style="stroke:#181818;stroke-width:1.0;" width="10" x="1342.5" y="568.4922"/><rect fill="#FFFFFF" height="58.3516" style="stroke:#181818;stroke-width:1.0;" width="10" x="1594" y="808.4375"/><rect fill="#FFFFFF" height="14" style="stroke:#181818;stroke-width:1.0;" width="10" x="1862.5" y="925.1406"/><rect fill="#FFFFFF" height="14" style="stroke:#181818;stroke-width:1.0;" width="10" x="1949" y="764.0859"/><rect fill="#FFFFFF" height="30.3516" style="stroke:#181818;stroke-width:1.0;" width="10" x="2028" y="477.4375"/><rect fill="#FFFFFF" height="30.3516" style="stroke:#181818;stroke-width:1.0;" width="10" x="2028" y="703.3828"/><rect fill="#FFFFFF" height="30.3516" style="stroke:#181818;stroke-width:1.0;" width="10" x="2112" y="274.9766"/><rect fill="#FFFFFF" height="14" style="stroke:#181818;stroke-width:1.0;" width="10" x="2112" y="598.8438"/><rect fill="#FFFFFF" height="14" style="stroke:#181818;stroke-width:1.0;" width="10" x="2112" y="838.7891"/><rect fill="#FFFFFF" height="14" style="stroke:#181818;stroke-width:1.0;" width="10" x="2112" y="999.8438"/><polygon fill="#A52A2A" points="199.5,149.5703,209.5,153.5703,199.5,157.5703,203.5,153.5703" style="stroke:#A52A2A;stroke-width:1.0;"/><line style="stroke:#A52A2A;stroke-width:1.0;" x1="32.5" x2="205.5" y1="153.5703" y2="153.5703"/><text fill="#000000" font-family="sans-serif" font-size="13" lengthAdjust="spacing" textLength="160" x="39.5" y="148.7139">HttpPut("personalData/{id}")</text><polygon fill="#A52A2A" points="437.5,179.9219,447.5,183.9219,437.5,187.9219,441.5,183.9219" style="stroke:#A52A2A;stroke-width:1.0;"/><line style="stroke:#A52A2A;stroke-width:1.0;" x1="221.5" x2="443.5" y1="183.9219" y2="183.9219"/><text fill="#000000" font-family="sans-serif" font-size="13" lengthAdjust="spacing" textLength="209" x="228.5" y="179.0654">DeletePatientAsync(id, adminEmail)</text><polygon fill="#A52A2A" points="670.5,210.2734,680.5,214.2734,670.5,218.2734,674.5,214.2734" style="stroke:#A52A2A;stroke-width:1.0;"/><line style="stroke:#A52A2A;stroke-width:1.0;" x1="459.5" x2="676.5" y1="214.2734" y2="214.2734"/><text fill="#000000" font-family="sans-serif" font-size="13" lengthAdjust="spacing" textLength="204" x="466.5" y="209.417">UpdatePatientAsync(id, patientDto)</text><polygon fill="#A52A2A" points="801.5,240.625,811.5,244.625,801.5,248.625,805.5,244.625" style="stroke:#A52A2A;stroke-width:1.0;"/><line style="stroke:#A52A2A;stroke-width:1.0;" x1="692.5" x2="807.5" y1="244.625" y2="244.625"/><text fill="#000000" font-family="sans-serif" font-size="13" lengthAdjust="spacing" textLength="102" x="699.5" y="239.7686">GetByIdAsync(id)</text><polygon fill="#A52A2A" points="2100,270.9766,2110,274.9766,2100,278.9766,2104,274.9766" style="stroke:#A52A2A;stroke-width:1.0;"/><line style="stroke:#A52A2A;stroke-width:1.0;" x1="823.5" x2="2106" y1="274.9766" y2="274.9766"/><text fill="#000000" font-family="sans-serif" font-size="13" lengthAdjust="spacing" textLength="62" x="830.5" y="270.1201">getById(id)</text><polygon fill="#A52A2A" points="834.5,301.3281,824.5,305.3281,834.5,309.3281,830.5,305.3281" style="stroke:#A52A2A;stroke-width:1.0;"/><line style="stroke:#A52A2A;stroke-width:1.0;stroke-dasharray:2.0,2.0;" x1="828.5" x2="2116" y1="305.3281" y2="305.3281"/><text fill="#000000" font-family="sans-serif" font-size="13" lengthAdjust="spacing" textLength="39" x="840.5" y="300.4717">patient</text><polygon fill="#A52A2A" points="703.5,331.6797,693.5,335.6797,703.5,339.6797,699.5,335.6797" style="stroke:#A52A2A;stroke-width:1.0;"/><line style="stroke:#A52A2A;stroke-width:1.0;stroke-dasharray:2.0,2.0;" x1="697.5" x2="817.5" y1="335.6797" y2="335.6797"/><text fill="#000000" font-family="sans-serif" font-size="13" lengthAdjust="spacing" textLength="39" x="709.5" y="330.8232">patient</text><path d="M615,350.6797 L688,350.6797 L688,359.0313 L678,369.0313 L615,369.0313 L615,350.6797 " fill="#EEEEEE" style="stroke:#000000;stroke-width:1.5;"/><rect fill="none" height="545.1094" style="stroke:#000000;stroke-width:1.5;" width="1556" x="615" y="350.6797"/><text fill="#000000" font-family="sans-serif" font-size="13" font-weight="bold" lengthAdjust="spacing" textLength="28" x="630" y="365.1748">loop</text><text fill="#000000" font-family="sans-serif" font-size="11" font-weight="bold" lengthAdjust="spacing" textLength="154" x="703" y="364.0986">[for each patient attribute's]</text><polygon fill="#A52A2A" points="1724,387.3828,1734,391.3828,1724,395.3828,1728,391.3828" style="stroke:#A52A2A;stroke-width:1.0;"/><line style="stroke:#A52A2A;stroke-width:1.0;" x1="692.5" x2="1730" y1="391.3828" y2="391.3828"/><text fill="#000000" font-family="sans-serif" font-size="13" lengthAdjust="spacing" textLength="150" x="699.5" y="386.5264">isSensitive(attributeValue)</text><polygon fill="#A52A2A" points="703.5,417.7344,693.5,421.7344,703.5,425.7344,699.5,421.7344" style="stroke:#A52A2A;stroke-width:1.0;"/><line style="stroke:#A52A2A;stroke-width:1.0;stroke-dasharray:2.0,2.0;" x1="697.5" x2="1735" y1="421.7344" y2="421.7344"/><text fill="#000000" font-family="sans-serif" font-size="13" lengthAdjust="spacing" textLength="24" x="709.5" y="416.8779">bool</text><path d="M625,436.7344 L686,436.7344 L686,445.0859 L676,455.0859 L625,455.0859 L625,436.7344 " fill="#EEEEEE" style="stroke:#000000;stroke-width:1.5;"/><rect fill="none" height="452.0547" style="stroke:#000000;stroke-width:1.5;" width="1536" x="625" y="436.7344"/><text fill="#000000" font-family="sans-serif" font-size="13" font-weight="bold" lengthAdjust="spacing" textLength="16" x="640" y="451.2295">alt</text><text fill="#000000" font-family="sans-serif" font-size="11" font-weight="bold" lengthAdjust="spacing" textLength="82" x="701" y="450.1533">[if is sensitive]</text><polygon fill="#A52A2A" points="2016,473.4375,2026,477.4375,2016,481.4375,2020,477.4375" style="stroke:#A52A2A;stroke-width:1.0;"/><line style="stroke:#A52A2A;stroke-width:1.0;" x1="692.5" x2="2022" y1="477.4375" y2="477.4375"/><text fill="#000000" font-family="sans-serif" font-size="13" lengthAdjust="spacing" textLength="82" x="699.5" y="472.5811">getAttribute(X)</text><polygon fill="#A52A2A" points="703.5,503.7891,693.5,507.7891,703.5,511.7891,699.5,507.7891" style="stroke:#A52A2A;stroke-width:1.0;"/><line style="stroke:#A52A2A;stroke-width:1.0;stroke-dasharray:2.0,2.0;" x1="697.5" x2="2032" y1="507.7891" y2="507.7891"/><text fill="#000000" font-family="sans-serif" font-size="13" lengthAdjust="spacing" textLength="47" x="709.5" y="502.9326">attribute</text><polygon fill="#A52A2A" points="1140.5,534.1406,1150.5,538.1406,1140.5,542.1406,1144.5,538.1406" style="stroke:#A52A2A;stroke-width:1.0;"/><line style="stroke:#A52A2A;stroke-width:1.0;" x1="692.5" x2="1146.5" y1="538.1406" y2="538.1406"/><text fill="#000000" font-family="sans-serif" font-size="13" lengthAdjust="spacing" textLength="441" x="699.5" y="533.2842">AddPendingRequestAsync(patientId,oldValue, pendingValue, propertyName)</text><polygon fill="#A52A2A" points="1330.5,564.4922,1340.5,568.4922,1330.5,572.4922,1334.5,568.4922" style="stroke:#A52A2A;stroke-width:1.0;"/><line style="stroke:#A52A2A;stroke-width:1.0;" x1="1162.5" x2="1336.5" y1="568.4922" y2="568.4922"/><text fill="#000000" font-family="sans-serif" font-size="13" lengthAdjust="spacing" textLength="161" x="1169.5" y="563.6357">AddAsync(pendingRequest)</text><polygon fill="#A52A2A" points="2100,594.8438,2110,598.8438,2100,602.8438,2104,598.8438" style="stroke:#A52A2A;stroke-width:1.0;"/><line style="stroke:#A52A2A;stroke-width:1.0;" x1="1352.5" x2="2106" y1="598.8438" y2="598.8438"/><text fill="#000000" font-family="sans-serif" font-size="13" lengthAdjust="spacing" textLength="122" x="1359.5" y="593.9873">add(pendingRequest)</text><polygon fill="#A52A2A" points="1363.5,608.8438,1353.5,612.8438,1363.5,616.8438,1359.5,612.8438" style="stroke:#A52A2A;stroke-width:1.0;"/><line style="stroke:#A52A2A;stroke-width:1.0;stroke-dasharray:2.0,2.0;" x1="1357.5" x2="2116" y1="612.8438" y2="612.8438"/><polygon fill="#A52A2A" points="1173.5,622.8438,1163.5,626.8438,1173.5,630.8438,1169.5,626.8438" style="stroke:#A52A2A;stroke-width:1.0;"/><line style="stroke:#A52A2A;stroke-width:1.0;stroke-dasharray:2.0,2.0;" x1="1167.5" x2="1346.5" y1="626.8438" y2="626.8438"/><polygon fill="#A52A2A" points="703.5,653.1953,693.5,657.1953,703.5,661.1953,699.5,657.1953" style="stroke:#A52A2A;stroke-width:1.0;"/><line style="stroke:#A52A2A;stroke-width:1.0;stroke-dasharray:2.0,2.0;" x1="697.5" x2="1156.5" y1="657.1953" y2="657.1953"/><text fill="#000000" font-family="sans-serif" font-size="13" lengthAdjust="spacing" textLength="93" x="709.5" y="652.3389">pendingRequest</text><line style="stroke:#000000;stroke-width:1.0;stroke-dasharray:2.0,2.0;" x1="625" x2="2161" y1="666.1953" y2="666.1953"/><text fill="#000000" font-family="sans-serif" font-size="11" font-weight="bold" lengthAdjust="spacing" textLength="59" x="630" y="677.6143">[if it is not]</text><polygon fill="#A52A2A" points="2016,699.3828,2026,703.3828,2016,707.3828,2020,703.3828" style="stroke:#A52A2A;stroke-width:1.0;"/><line style="stroke:#A52A2A;stroke-width:1.0;" x1="692.5" x2="2022" y1="703.3828" y2="703.3828"/><text fill="#000000" font-family="sans-serif" font-size="13" lengthAdjust="spacing" textLength="82" x="699.5" y="698.5264">getAttribute(X)</text><polygon fill="#A52A2A" points="703.5,729.7344,693.5,733.7344,703.5,737.7344,699.5,733.7344" style="stroke:#A52A2A;stroke-width:1.0;"/><line style="stroke:#A52A2A;stroke-width:1.0;stroke-dasharray:2.0,2.0;" x1="697.5" x2="2032" y1="733.7344" y2="733.7344"/><text fill="#000000" font-family="sans-serif" font-size="13" lengthAdjust="spacing" textLength="47" x="709.5" y="728.8779">attribute</text><polygon fill="#A52A2A" points="1937,760.0859,1947,764.0859,1937,768.0859,1941,764.0859" style="stroke:#A52A2A;stroke-width:1.0;"/><line style="stroke:#A52A2A;stroke-width:1.0;" x1="692.5" x2="1943" y1="764.0859" y2="764.0859"/><text fill="#000000" font-family="sans-serif" font-size="13" lengthAdjust="spacing" textLength="122" x="699.5" y="759.2295">setAttribute(attribute)</text><polygon fill="#A52A2A" points="703.5,774.0859,693.5,778.0859,703.5,782.0859,699.5,778.0859" style="stroke:#A52A2A;stroke-width:1.0;"/><line style="stroke:#A52A2A;stroke-width:1.0;stroke-dasharray:2.0,2.0;" x1="697.5" x2="1953" y1="778.0859" y2="778.0859"/><polygon fill="#A52A2A" points="1582,804.4375,1592,808.4375,1582,812.4375,1586,808.4375" style="stroke:#A52A2A;stroke-width:1.0;"/><line style="stroke:#A52A2A;stroke-width:1.0;stroke-dasharray:2.0,2.0;" x1="692.5" x2="1588" y1="808.4375" y2="808.4375"/><text fill="#000000" font-family="sans-serif" font-size="13" lengthAdjust="spacing" textLength="160" x="699.5" y="803.5811">CreateLogAsync(log, email)</text><polygon fill="#A52A2A" points="2100,834.7891,2110,838.7891,2100,842.7891,2104,838.7891" style="stroke:#A52A2A;stroke-width:1.0;"/><line style="stroke:#A52A2A;stroke-width:1.0;stroke-dasharray:2.0,2.0;" x1="1604" x2="2106" y1="838.7891" y2="838.7891"/><text fill="#000000" font-family="sans-serif" font-size="13" lengthAdjust="spacing" textLength="46" x="1611" y="833.9326">add(log)</text><polygon fill="#A52A2A" points="1615,848.7891,1605,852.7891,1615,856.7891,1611,852.7891" style="stroke:#A52A2A;stroke-width:1.0;"/><line style="stroke:#A52A2A;stroke-width:1.0;stroke-dasharray:2.0,2.0;" x1="1609" x2="2116" y1="852.7891" y2="852.7891"/><polygon fill="#A52A2A" points="1504.5,862.7891,1494.5,866.7891,1504.5,870.7891,1500.5,866.7891" style="stroke:#A52A2A;stroke-width:1.0;"/><line style="stroke:#A52A2A;stroke-width:1.0;stroke-dasharray:2.0,2.0;" x1="1498.5" x2="1598" y1="866.7891" y2="866.7891"/><polygon fill="#A52A2A" points="703.5,876.7891,693.5,880.7891,703.5,884.7891,699.5,880.7891" style="stroke:#A52A2A;stroke-width:1.0;"/><line style="stroke:#A52A2A;stroke-width:1.0;stroke-dasharray:2.0,2.0;" x1="697.5" x2="1492.5" y1="880.7891" y2="880.7891"/><polygon fill="#A52A2A" points="1850.5,921.1406,1860.5,925.1406,1850.5,929.1406,1854.5,925.1406" style="stroke:#A52A2A;stroke-width:1.0;"/><line style="stroke:#A52A2A;stroke-width:1.0;" x1="692.5" x2="1856.5" y1="925.1406" y2="925.1406"/><text fill="#000000" font-family="sans-serif" font-size="13" lengthAdjust="spacing" textLength="254" x="699.5" y="920.2842">SendEmailAsync(email, subject , message)</text><polygon fill="#A52A2A" points="703.5,935.1406,693.5,939.1406,703.5,943.1406,699.5,939.1406" style="stroke:#A52A2A;stroke-width:1.0;"/><line style="stroke:#A52A2A;stroke-width:1.0;stroke-dasharray:2.0,2.0;" x1="697.5" x2="1866.5" y1="939.1406" y2="939.1406"/><polygon fill="#A52A2A" points="801.5,965.4922,811.5,969.4922,801.5,973.4922,805.5,969.4922" style="stroke:#A52A2A;stroke-width:1.0;"/><line style="stroke:#A52A2A;stroke-width:1.0;" x1="692.5" x2="807.5" y1="969.4922" y2="969.4922"/><text fill="#000000" font-family="sans-serif" font-size="13" lengthAdjust="spacing" textLength="73" x="699.5" y="964.6357">save(patient)</text><polygon fill="#A52A2A" points="2100,995.8438,2110,999.8438,2100,1003.8438,2104,999.8438" style="stroke:#A52A2A;stroke-width:1.0;"/><line style="stroke:#A52A2A;stroke-width:1.0;stroke-dasharray:2.0,2.0;" x1="823.5" x2="2106" y1="999.8438" y2="999.8438"/><text fill="#000000" font-family="sans-serif" font-size="13" lengthAdjust="spacing" textLength="73" x="830.5" y="994.9873">save(patient)</text><polygon fill="#A52A2A" points="834.5,1009.8438,824.5,1013.8438,834.5,1017.8438,830.5,1013.8438" style="stroke:#A52A2A;stroke-width:1.0;"/><line style="stroke:#A52A2A;stroke-width:1.0;stroke-dasharray:2.0,2.0;" x1="828.5" x2="2116" y1="1013.8438" y2="1013.8438"/><polygon fill="#A52A2A" points="703.5,1023.8438,693.5,1027.8438,703.5,1031.8438,699.5,1027.8438" style="stroke:#A52A2A;stroke-width:1.0;"/><line style="stroke:#A52A2A;stroke-width:1.0;stroke-dasharray:2.0,2.0;" x1="697.5" x2="817.5" y1="1027.8438" y2="1027.8438"/><polygon fill="#A52A2A" points="470.5,1054.1953,460.5,1058.1953,470.5,1062.1953,466.5,1058.1953" style="stroke:#A52A2A;stroke-width:1.0;"/><line style="stroke:#A52A2A;stroke-width:1.0;stroke-dasharray:2.0,2.0;" x1="464.5" x2="686.5" y1="1058.1953" y2="1058.1953"/><text fill="#000000" font-family="sans-serif" font-size="13" lengthAdjust="spacing" textLength="22" x="476.5" y="1053.3389">true</text><polygon fill="#A52A2A" points="232.5,1084.5469,222.5,1088.5469,232.5,1092.5469,228.5,1088.5469" style="stroke:#A52A2A;stroke-width:1.0;"/><line style="stroke:#A52A2A;stroke-width:1.0;stroke-dasharray:2.0,2.0;" x1="226.5" x2="453.5" y1="1088.5469" y2="1088.5469"/><text fill="#000000" font-family="sans-serif" font-size="13" lengthAdjust="spacing" textLength="22" x="238.5" y="1083.6904">true</text><polygon fill="#A52A2A" points="38.5,1114.8984,28.5,1118.8984,38.5,1122.8984,34.5,1118.8984" style="stroke:#A52A2A;stroke-width:1.0;"/><line style="stroke:#A52A2A;stroke-width:1.0;stroke-dasharray:2.0,2.0;" x1="32.5" x2="215.5" y1="1118.8984" y2="1118.8984"/><text fill="#000000" font-family="sans-serif" font-size="13" lengthAdjust="spacing" textLength="22" x="44.5" y="1114.042">true</text><!--SRC=[rLPDZzCm4BtdLrYzq9MwWdCFIFr0KAbQgeH5NDrucZNhsi5s5fKL_vsndG_7JJaYaKFZPDwycV4RJsgv5K0A-D60B85iEQqqFPFCF7DPKxSi1JLcPQtcnyR2hbIouB-0lCjI37dD25vxVe8zbx1Mce7UAA4qsIfMWLwB1iOGMZvNMZMI1TZgSDZlDgilkyyF7fVQzt1MSlF4JoSbFM2bjVePR6jSXPTnu88o9Y3OViSPrqXDAoZi1SlNK5egAm6ZcgXc_q59jBGk33jpcM7YbfUyfjAIMQvGhXcXXZpknfO3jHoatIXfjH82j4SDZvFe0lGBBmDXOq0NawWSQcKuPdJfWNa21Ccuh7BNSMR4MeCi_ePDk16UKEzL5VEvnoj0GkBUZ345IBJp5zXIIsCwWuQ4xyEPSX5ZmB-Ot9b-FoQjMwjw0AupXi6Fr02PkJJMkF9cTlI2ynTgeTNS_vBxzwZoadoojZuqTZwhGHibgN3URryv-psx6non7nvtpcMGV4cs8C12cyxAN6Gvvsn1gAFtTKO4KQiCIqVe6uCioMED1LoJrNsn4Lbefk3PKkH8yH7i-h9ZdNFYa9CitD237H5U1VWOYTk5nlkETTaba368CIrJb_yaB7Ho9fIgoGaF75gUEXoXtNHyOuP2VByi2JTzHyrxt5UAS-Ckyv0XC9PnL4h4OKFJuKM59Vo4RFwLfyl6cuQxwhUX7zNpRycckSPgxt6rVLPflHtUXt2dSuaznyQ7CkZJRiIEBPHWlhY5St2uxaahx4bxUQ1dYD8APnv_sX1EUOpHieuYZRtopACx-N4cteOFRU0Tn-87chP04XkxA6E5nb4IV961m4FhXB9EAwdilrN9BJ194mVeFPD0uGX5nQNC7Iq2t9n4teq6DE9344YeQX5cNaJjHwh7tyVg87Oa2UaqyT14bDxTp_38rf57cYHcb40oTsByhT-OC9an5poDpC-pK89_lo2cENx7Fm5aGSvW3FunY7BjfdfBCRrVhJ5H6qUEeNZms_DnSuXr6tK37ErMwpSnm6xhc6VX6kICflQIMDrSDHMIn9FTVruce176Vr8G5xv7rr3yw4HFuTkLN7y0]--></g></svg>